<svg width="256" height="240" viewBox="0 0 256 240" fill="none" xmlns="http://www.w3.org/2000/svg">
<g clip-path="url(#clip0_2372_15935)">
<path d="M255.98 98.34V4.03003C172.27 16.12 86.8097 23.33 8.46973 24.49C72.5397 69.29 144.37 102.05 172.83 108.83C173.03 108.83 173.23 108.83 173.43 108.83C181.95 108.83 194.45 107.69 209.81 105.64L218.59 104.42C229.91 102.78 242.49 100.73 255.98 98.34Z" fill="#DEB887"/>
<path d="M12.5295 64.19C12.0595 74.42 11.1495 102.97 14.3395 120.71C31.4595 141.58 102.049 195.6 138.099 210.67C138.149 183.68 139.119 141.01 139.299 133.65C123.559 126.27 104.009 116.67 84.8495 106.68C60.3995 93.93 30.1295 77.25 12.5295 64.19Z" fill="#B87B55"/>
<path d="M173.5 217.86C187.57 217.27 219.37 210.41 255.98 201.25V136.57C216.3 144.11 192.42 146.14 178.64 146.35C177.75 163.63 175.07 198.17 173.5 217.86Z" fill="#B87B55"/>
<path d="M173.4 112.84C173.12 112.84 172.84 112.84 172.57 112.84C172.42 112.84 172.27 112.82 172.13 112.79C143.21 105.96 69.2696 72.26 4.10957 26.32C3.88957 32.59 3.80957 45.62 6.29957 53.87C7.80957 55.33 9.64957 56.9 11.7496 58.55C11.8996 58.64 12.0296 58.74 12.1496 58.87C45.2696 84.74 144.29 132.7 168.15 142.09C185.56 143.51 216.17 140.04 255.98 132.43V102.36C219.33 108.84 189.4 112.84 173.4 112.84Z" fill="#DEB887"/>
<path d="M209.819 105.64C212.649 105.26 215.579 104.85 218.599 104.42L209.819 105.64Z" fill="#DEB887"/>
<path d="M143.25 135.49C142.93 149.43 141.57 212.26 142.32 228.7C146.33 231.77 150.44 233.51 152.94 234.38C153.37 212.98 155.55 164.95 156.74 141.62C152.81 139.88 148.26 137.81 143.25 135.49Z" fill="#DEB887"/>
<path d="M166.969 145.92C165.239 145.24 163.109 144.36 160.659 143.31C159.459 167.05 157.369 213.22 156.939 234.22C161.289 232.77 166.129 231.41 168.449 230.78C168.609 228.85 168.919 225.04 169.319 220.02C169.319 219.98 169.309 219.94 169.309 219.89C169.309 219.74 169.329 219.59 169.369 219.45C170.899 200.25 173.709 164.24 174.639 146.37C171.709 146.34 169.369 146.21 167.529 146.06C167.339 146.03 167.149 145.99 166.969 145.92Z" fill="#DEB887"/>
<path d="M0.379883 21.97C0.379883 21.98 0.379883 21.99 0.379883 21.99C0.389883 21.96 0.399883 21.94 0.409883 21.91C0.399883 21.94 0.389883 21.95 0.379883 21.97Z" fill="black"/>
<path d="M1.05957 21C1.08957 20.98 1.11957 20.95 1.14957 20.93C1.11957 20.96 1.08957 20.98 1.05957 21Z" fill="black"/>
<path d="M2.19922 20.58C2.26922 20.58 2.34922 20.57 2.41922 20.57C3.43922 20.64 4.21922 21.47 4.26922 22.46L142.269 15.28L243.139 3.84L255.979 1.83V0C170.069 12.43 82.2792 19.71 2.26922 20.57C2.23922 20.57 2.22922 20.58 2.19922 20.58Z" fill="black"/>
<path d="M4.21965 23.81C4.18965 24.3 4.15965 24.94 4.13965 25.7L31.4196 41.19L4.21965 23.81Z" fill="black"/>
<path d="M144.83 101.47L161.64 107.14L103.85 82.33L144.83 101.47Z" fill="black"/>
<path d="M4.21973 23.81L31.4097 41.19L103.85 82.33L161.64 107.14L172.6 110.84L209.83 105.65C194.46 107.7 181.96 108.84 173.45 108.84C173.25 108.84 173.04 108.84 172.85 108.84C144.38 102.05 72.5397 69.29 8.46973 24.49C86.7997 23.33 172.27 16.12 255.98 4.03002V1.83002L243.14 3.84002L142.27 15.29L4.26973 22.47C4.26973 22.55 4.27973 22.63 4.27973 22.71C4.27973 22.74 4.24973 23.13 4.21973 23.81Z" fill="black"/>
<path d="M255.98 99.21V98.34C242.49 100.73 229.91 102.78 218.6 104.42L255.98 99.21Z" fill="black"/>
<path d="M172.129 112.78C172.269 112.81 172.419 112.83 172.569 112.83C172.839 112.83 173.119 112.83 173.399 112.83C189.399 112.83 219.329 108.83 255.979 102.35V100.03L237.469 103.51L187.269 110.17L172.599 110.84L166.219 109.11L161.649 107.15L144.849 101.48L103.859 82.34L94.4494 78.3L61.2494 60.27L31.4094 41.19L4.12937 25.7C4.11937 25.9 4.10938 26.1 4.10938 26.32C69.2694 72.26 143.209 105.96 172.129 112.78Z" fill="black"/>
<path d="M237.469 103.51L255.979 100.03V99.21L218.599 104.42C215.579 104.86 212.649 105.27 209.819 105.64L172.589 110.83L187.259 110.16L237.469 103.51Z" fill="black"/>
<path d="M94.4392 78.29L103.849 82.33L31.4092 41.19L61.2392 60.26L94.4392 78.29Z" fill="black"/>
<path d="M172.59 110.83L161.64 107.14L166.21 109.1L172.59 110.83Z" fill="black"/>
<path d="M207.55 142.25L211.59 141.57L194.12 143.24L207.55 142.25Z" fill="black"/>
<path d="M164.03 142.57L160.78 141C160.78 141.03 160.78 141.07 160.77 141.11L164.03 142.57Z" fill="black"/>
<path d="M1.14941 20.94C1.44941 20.73 1.80941 20.6 2.19941 20.59C1.81941 20.6 1.45941 20.72 1.14941 20.94Z" fill="black"/>
<path d="M143.3 133.26L157.06 139.44C157.1 139.38 157.13 139.32 157.17 139.26L143.29 132.56C143.29 132.62 143.31 132.68 143.3 132.74C143.31 132.78 143.31 132.96 143.3 133.26Z" fill="black"/>
<path d="M76.6992 100.13L139.659 131.6C139.799 131.39 139.989 131.21 140.199 131.06L92.2792 107.92L33.6592 75.42L40.8392 80.13L76.6992 100.13Z" fill="black"/>
<path d="M0.40918 21.92C0.46918 21.76 0.53918 21.61 0.63918 21.47C0.53918 21.61 0.45918 21.76 0.40918 21.92Z" fill="black"/>
<path d="M9.29958 58.87L4.34958 54.34L1.52958 37.54L1.11958 24.19C0.429577 23.69 0.129577 22.81 0.379577 22C0.339577 22.14 0.309577 22.29 0.299577 22.44C0.229577 23.3 -1.14042 43.8 2.63958 55.56C2.73958 55.87 2.90958 56.15 3.13958 56.37C4.67958 57.89 6.54958 59.51 8.66958 61.21C8.69958 60.64 8.71958 60.26 8.72958 60.13C8.75958 59.64 8.97958 59.2 9.29958 58.87Z" fill="black"/>
<path d="M0.689453 21.38C0.799453 21.24 0.919453 21.11 1.05945 21C0.919453 21.11 0.789453 21.24 0.689453 21.38Z" fill="black"/>
<path d="M12.6393 61.92C12.6093 62.52 12.5693 63.27 12.5293 64.18C30.1293 77.24 60.3993 93.93 84.8393 106.67C103.999 116.66 123.549 126.25 139.289 133.64C139.299 133.14 139.309 132.8 139.309 132.64C139.319 132.25 139.449 131.9 139.649 131.59L76.6993 100.13L40.8293 80.13L33.6493 75.42L17.7593 66.61L12.6393 61.92Z" fill="black"/>
<path d="M211.59 141.57L207.55 142.25L194.12 143.24L178.72 144.71C178.69 145.24 178.67 145.79 178.64 146.35C192.43 146.15 216.31 144.12 255.98 136.57V134.12L226.29 140.16L211.59 141.57Z" fill="black"/>
<path d="M10.8494 58.26C11.1794 58.28 11.4894 58.39 11.7494 58.55C9.64938 56.89 7.80938 55.32 6.29938 53.87C3.79938 45.62 3.88938 32.59 4.10938 26.32C3.10938 25.62 2.11937 24.91 1.11937 24.2L1.10938 24.19L1.52937 37.53L4.34937 54.33L9.29938 58.86C9.69938 58.47 10.2494 58.23 10.8494 58.26Z" fill="black"/>
<path d="M168.159 142.09C144.299 132.7 45.2792 84.75 12.1592 58.87C12.5392 59.26 12.7692 59.8 12.7292 60.38C12.7292 60.42 12.6992 60.87 12.6592 61.65L33.6592 75.42L92.2792 107.91L140.199 131.05C140.539 130.82 140.939 130.68 141.369 130.68C142.409 130.7 143.239 131.52 143.309 132.54L157.189 139.24C157.579 138.69 158.229 138.35 158.919 138.38C160.019 138.44 160.869 139.38 160.809 140.48C160.799 140.64 160.789 140.82 160.779 140.98L164.029 142.55L174.709 144.81C174.719 144.65 174.729 144.48 174.729 144.32C174.779 143.22 175.729 142.36 176.819 142.42C177.869 142.47 178.679 143.32 178.709 144.35L194.109 143.22L211.579 141.55L255.969 134.08V132.41C216.179 140.04 185.559 143.51 168.159 142.09Z" fill="black"/>
<path d="M17.7694 66.62L33.6594 75.43L12.6594 61.66C12.6594 61.75 12.6494 61.84 12.6494 61.93L17.7694 66.62Z" fill="black"/>
<path d="M211.589 141.57L226.289 140.17L255.979 134.13V134.1L211.589 141.57Z" fill="black"/>
<path d="M178.73 144.53C178.73 144.59 178.72 144.65 178.72 144.71L194.12 143.24L178.72 144.37C178.72 144.43 178.73 144.48 178.73 144.53Z" fill="black"/>
<path d="M156.81 140.29C156.83 139.98 156.92 139.69 157.06 139.44L143.3 133.26C143.29 133.72 143.27 134.47 143.25 135.49C148.26 137.82 152.81 139.88 156.74 141.61C156.77 141.17 156.79 140.71 156.81 140.29Z" fill="black"/>
<path d="M160.66 143.31C163.11 144.36 165.24 145.24 166.97 145.92C167.15 145.99 167.34 146.03 167.53 146.05C169.36 146.21 171.71 146.33 174.64 146.36C174.66 145.93 174.68 145.51 174.7 145.09L173.07 145.25L164.04 142.57L160.78 141.11C160.74 141.82 160.7 142.55 160.66 143.31Z" fill="black"/>
<path d="M174.7 145.1C174.7 145.01 174.71 144.92 174.71 144.84L164.03 142.58L173.06 145.26L174.7 145.1Z" fill="black"/>
<path d="M1.1192 24.19L1.1092 23.98L4.1292 25.7C4.1592 24.93 4.1892 24.29 4.2092 23.81L2.2792 22.57L4.2692 22.47C4.2192 21.47 3.4392 20.65 2.4192 20.58C2.3392 20.57 2.2692 20.58 2.1992 20.59C1.8092 20.61 1.4492 20.73 1.1492 20.94C1.1192 20.96 1.0892 20.98 1.0592 21C0.919197 21.11 0.789198 21.23 0.689198 21.38C0.669198 21.41 0.649198 21.44 0.629198 21.47C0.539198 21.61 0.459198 21.76 0.399198 21.92C0.399198 21.95 0.379198 21.97 0.379198 22C0.129198 22.81 0.429198 23.69 1.1192 24.19Z" fill="black"/>
<path d="M4.2193 23.81C4.2593 23.14 4.2793 22.74 4.2793 22.71C4.2893 22.63 4.2793 22.55 4.2693 22.47L2.2793 22.57L4.2193 23.81Z" fill="black"/>
<path d="M4.10938 26.32C4.11937 26.11 4.11937 25.9 4.12937 25.7L1.10938 23.98L1.11937 24.19L1.12937 24.2C2.11937 24.91 3.10938 25.62 4.10938 26.32Z" fill="black"/>
<path d="M138.09 211.54L121.78 204.83L66.7995 169.96L12.9595 124.03L10.0295 85.82L11.3195 63.29C10.3895 62.58 9.50952 61.9 8.65952 61.21C8.29952 67.73 6.67952 101.5 10.4895 121.93C10.5495 122.25 10.6895 122.56 10.8995 122.82C27.8995 143.96 101.83 200.52 138.09 214.98C138.09 213.87 138.09 212.72 138.09 211.54Z" fill="black"/>
<path d="M14.34 120.71C11.15 102.97 12.07 74.43 12.53 64.19C12.13 63.89 11.72 63.59 11.33 63.29L10.04 85.82L12.97 124.03L66.81 169.96L121.79 204.83L138.1 211.54C138.1 211.25 138.1 210.96 138.1 210.67C102.05 195.6 31.46 141.58 14.34 120.71Z" fill="black"/>
<path d="M11.75 58.55C11.88 58.66 12.02 58.76 12.15 58.87C12.04 58.75 11.9 58.64 11.75 58.55Z" fill="black"/>
<path d="M11.4699 60.87L11.5599 60.93L9.29992 58.87C8.97992 59.2 8.75992 59.64 8.72992 60.14C8.71992 60.27 8.69992 60.65 8.66992 61.22C9.51992 61.9 10.3999 62.59 11.3299 63.3L11.4699 60.87Z" fill="black"/>
<path d="M12.6393 61.92L11.5493 60.93L11.4593 60.87L11.3193 63.29C11.7093 63.59 12.1193 63.89 12.5193 64.19C12.5693 63.27 12.6093 62.52 12.6393 61.92Z" fill="black"/>
<path d="M12.7296 60.38C12.7696 59.79 12.5396 59.26 12.1596 58.87C12.0196 58.76 11.8896 58.66 11.7596 58.55C11.4896 58.39 11.1896 58.28 10.8596 58.26C10.2496 58.22 9.69957 58.46 9.30957 58.86L11.5596 60.92L12.6596 61.64C12.6996 60.88 12.7196 60.42 12.7296 60.38Z" fill="black"/>
<path d="M12.6596 61.65L11.5596 60.93L12.6496 61.92C12.6496 61.83 12.6496 61.74 12.6596 61.65Z" fill="black"/>
<path d="M152.889 237.02C152.889 236.84 152.899 236.65 152.899 236.47L140.829 230.08L140.649 215.55C140.469 215.6 140.279 215.63 140.089 215.63C139.849 215.63 139.609 215.59 139.379 215.5C138.959 215.34 138.519 215.17 138.089 214.99C138.109 221.45 138.189 226.69 138.369 229.82C138.399 230.38 138.669 230.91 139.109 231.26C146.379 237.13 154.129 238.92 154.449 239C153.549 238.79 152.879 237.98 152.889 237.02Z" fill="black"/>
<path d="M155.27 239.01C155.15 239.03 155.03 239.05 154.91 239.05C155.02 239.04 155.15 239.03 155.27 239.01Z" fill="black"/>
<path d="M171.289 221.9C171.219 221.9 171.159 221.89 171.089 221.88L170.329 232.34L156.909 236.21C156.909 236.5 156.899 236.8 156.899 237.08C156.889 237.99 156.259 238.75 155.419 238.98C155.479 238.97 155.529 238.96 155.589 238.94C161.639 236.74 170.759 234.31 170.849 234.29C171.669 234.07 172.259 233.36 172.329 232.52C172.339 232.36 172.679 228.29 173.189 221.89C172.659 221.91 172.139 221.92 171.659 221.92C171.529 221.91 171.409 221.91 171.289 221.9Z" fill="black"/>
<path d="M176.609 146.37L171.379 217.9C171.419 217.9 171.449 217.9 171.489 217.9L178.059 146.36C177.559 146.37 177.079 146.37 176.609 146.37Z" fill="black"/>
<path d="M140.1 211.47C140.27 211.54 140.44 211.61 140.61 211.67L140.1 170.68V211.47Z" fill="black"/>
<path d="M140.1 170.67V134.02C139.83 133.89 139.57 133.77 139.3 133.64C139.13 141 138.15 183.67 138.1 210.66C138.78 210.94 139.45 211.21 140.1 211.47V170.68V170.67Z" fill="black"/>
<path d="M171.49 217.91C171.54 217.91 171.6 217.91 171.65 217.91C172.23 217.91 172.85 217.89 173.5 217.87C175.07 198.17 177.74 163.64 178.64 146.37C178.44 146.37 178.25 146.37 178.06 146.38L171.49 217.91Z" fill="black"/>
<path d="M169.319 220.01C168.919 225.04 168.609 228.84 168.449 230.77C166.139 231.4 161.299 232.77 156.939 234.21C156.929 234.9 156.909 235.56 156.899 236.2L170.319 232.33L171.079 221.87C170.129 221.78 169.369 220.99 169.319 220.01Z" fill="black"/>
<path d="M176.289 146.38C175.719 146.38 175.169 146.38 174.629 146.37C173.699 164.24 170.889 200.25 169.359 219.45C169.569 218.55 170.399 217.87 171.319 217.91C171.339 217.91 171.359 217.91 171.379 217.91L176.609 146.38C176.499 146.37 176.399 146.38 176.289 146.38Z" fill="black"/>
<path d="M142.319 228.69C141.559 212.26 142.929 149.42 143.249 135.48C142.219 135 141.169 134.51 140.089 134.01V170.68L140.599 211.67C140.669 211.7 140.729 211.72 140.799 211.75C141.829 212.14 142.349 213.3 141.959 214.33C141.729 214.94 141.229 215.37 140.649 215.53L140.829 230.06L152.899 236.45C152.909 235.79 152.919 235.09 152.939 234.36C150.439 233.5 146.339 231.77 142.319 228.69Z" fill="black"/>
<path d="M176.689 145.25L176.609 146.37C177.079 146.37 177.559 146.37 178.059 146.36L178.209 144.76L175.569 145.01L176.689 145.25Z" fill="black"/>
<path d="M139.66 131.6L140.1 131.82L143.31 133.26C143.32 132.96 143.32 132.78 143.32 132.74C143.32 132.68 143.31 132.62 143.31 132.56L140.21 131.06C139.99 131.2 139.81 131.39 139.66 131.6Z" fill="black"/>
<path d="M139.66 131.6C139.45 131.9 139.32 132.26 139.32 132.65C139.32 132.81 139.31 133.15 139.3 133.65C139.57 133.78 139.83 133.9 140.1 134.03V131.83L139.66 131.6Z" fill="black"/>
<path d="M178.06 146.36C178.25 146.36 178.44 146.36 178.64 146.35C178.67 145.78 178.7 145.23 178.72 144.71L178.21 144.76L178.06 146.36Z" fill="black"/>
<path d="M178.21 144.76L178.24 144.41L178.72 144.37C178.69 143.34 177.87 142.49 176.83 142.44C175.74 142.38 174.79 143.24 174.74 144.34C174.73 144.5 174.72 144.67 174.72 144.83L175.57 145.01L178.21 144.76Z" fill="black"/>
<path d="M141.359 130.69C140.939 130.68 140.529 130.82 140.189 131.06L143.289 132.56C143.229 131.54 142.409 130.72 141.359 130.69Z" fill="black"/>
<path d="M178.719 144.38L178.239 144.42L178.209 144.77L178.719 144.72C178.719 144.66 178.729 144.6 178.729 144.54C178.729 144.48 178.719 144.43 178.719 144.38Z" fill="black"/>
<path d="M175.559 145.02L174.689 145.1C174.669 145.51 174.649 145.93 174.629 146.37C175.159 146.38 175.709 146.38 176.289 146.38C176.389 146.38 176.499 146.38 176.609 146.38L176.689 145.26L175.559 145.02Z" fill="black"/>
<path d="M140.1 131.82V134.02C141.17 134.52 142.22 135.01 143.26 135.49C143.28 134.47 143.3 133.72 143.31 133.26L140.1 131.82Z" fill="black"/>
<path d="M175.56 145.02L174.71 144.84C174.71 144.93 174.7 145.02 174.7 145.1L175.56 145.02Z" fill="black"/>
<path d="M140.1 215.62C140.29 215.62 140.48 215.59 140.66 215.54L140.61 211.68C140.44 211.62 140.27 211.55 140.1 211.48V212.37L138.1 211.55C138.1 212.73 138.1 213.88 138.1 215C138.53 215.17 138.97 215.35 139.39 215.51C139.62 215.58 139.86 215.62 140.1 215.62Z" fill="black"/>
<path d="M138.089 211.54L140.089 212.36V211.47C139.439 211.21 138.769 210.94 138.089 210.66C138.099 210.95 138.089 211.25 138.089 211.54Z" fill="black"/>
<path d="M141.969 214.33C142.359 213.3 141.839 212.14 140.809 211.75C140.739 211.73 140.679 211.7 140.609 211.67L140.659 215.53C141.239 215.37 141.729 214.94 141.969 214.33Z" fill="black"/>
<path d="M155.41 238.97C155.36 238.98 155.31 239 155.26 239.01C155.32 239 155.36 238.98 155.41 238.97Z" fill="black"/>
<path d="M154.869 239.05C154.879 239.05 154.889 239.05 154.899 239.05C154.749 239.05 154.609 239.03 154.459 239C154.589 239.03 154.729 239.04 154.869 239.05Z" fill="black"/>
<path d="M156.739 141.61C155.549 164.95 153.359 212.98 152.939 234.37C153.739 234.65 154.379 234.84 154.799 234.95C155.489 234.7 156.209 234.46 156.949 234.21C157.379 213.21 159.469 167.04 160.669 143.3C159.439 142.79 158.129 142.22 156.739 141.61Z" fill="black"/>
<path d="M160.769 141.11C160.769 141.07 160.769 141.04 160.779 141L157.179 139.26C157.139 139.32 157.099 139.38 157.069 139.44L160.769 141.11Z" fill="black"/>
<path d="M160.809 140.5C160.869 139.4 160.019 138.46 158.919 138.4C158.229 138.37 157.579 138.72 157.189 139.26L160.789 141C160.789 140.84 160.799 140.66 160.809 140.5Z" fill="black"/>
<path d="M156.74 141.61C158.12 142.22 159.43 142.79 160.66 143.31C160.7 142.55 160.74 141.82 160.77 141.1L157.06 139.43C156.92 139.68 156.82 139.97 156.81 140.28C156.79 140.71 156.77 141.17 156.74 141.61Z" fill="black"/>
<path d="M156.89 237.07C156.89 236.8 156.9 236.49 156.9 236.2L154 237.04L152.9 236.46C152.9 236.64 152.89 236.84 152.89 237.01C152.88 237.97 153.55 238.79 154.45 238.99C154.6 239.02 154.74 239.04 154.89 239.04H154.9C155.02 239.04 155.15 239.03 155.26 239C155.31 238.99 155.36 238.97 155.41 238.96C156.25 238.74 156.88 237.99 156.89 237.07Z" fill="black"/>
<path d="M154.799 234.96C154.389 234.85 153.749 234.65 152.939 234.38C152.929 235.11 152.909 235.81 152.899 236.47L153.999 237.05L156.899 236.21C156.909 235.57 156.919 234.91 156.939 234.22C156.209 234.46 155.489 234.71 154.799 234.96Z" fill="black"/>
<path d="M229.45 209.74L189.23 218L173.36 219.68C173.3 220.44 173.24 221.17 173.18 221.87C187.31 221.41 218.48 214.85 255.98 205.49V203.25L229.45 209.74Z" fill="black"/>
<path d="M173.359 219.69L189.229 218.01L229.449 209.75L255.979 203.26V201.26C219.379 210.42 187.579 217.28 173.499 217.87C173.449 218.49 173.409 219.09 173.359 219.69Z" fill="black"/>
<path d="M169.32 220.01C169.33 219.82 169.35 219.63 169.37 219.44C169.34 219.58 169.31 219.73 169.31 219.88C169.31 219.93 169.32 219.97 169.32 220.01Z" fill="black"/>
<path d="M171.489 217.91C171.449 217.91 171.419 217.91 171.379 217.91L171.089 221.89C171.159 221.9 171.219 221.91 171.289 221.91C171.409 221.91 171.529 221.91 171.649 221.91C172.129 221.91 172.649 221.9 173.179 221.88C173.239 221.18 173.289 220.45 173.359 219.69L171.309 219.91L171.489 217.91Z" fill="black"/>
<path d="M171.65 217.91C171.6 217.91 171.54 217.91 171.49 217.91L171.31 219.91L173.36 219.69C173.41 219.1 173.46 218.49 173.51 217.87C172.85 217.89 172.23 217.91 171.65 217.91Z" fill="black"/>
<path d="M169.36 219.45C169.34 219.64 169.33 219.83 169.31 220.02C169.36 221 170.12 221.78 171.08 221.89L171.37 217.91C171.35 217.91 171.33 217.91 171.31 217.91C170.4 217.87 169.58 218.55 169.36 219.45Z" fill="black"/>
</g>
<defs>
<clipPath id="clip0_2372_15935">
<rect width="255.98" height="239.05" fill="white"/>
</clipPath>
</defs>
</svg>
