<svg width="257" height="336" viewBox="0 0 257 336" fill="none" xmlns="http://www.w3.org/2000/svg">
<g clip-path="url(#clip0_2372_16025)">
<path d="M251.37 153.07C250.45 150.07 249.26 145.7 245.72 144.92C245.7 144.92 245.68 144.91 245.66 144.91C243.71 142.39 241.24 140.26 238.42 138.73C237.22 138.08 235.71 138.44 235 139.63C233.31 142.44 231.22 144.93 228.97 147.31C226.83 149.57 224.64 152.31 221.9 153.85C219.31 155.3 215.97 156.48 213 156.72C211.84 156.81 210.7 156.76 209.57 156.63C209.48 156.53 209.38 156.43 209.27 156.34C206.97 154.42 203.94 153.63 201.05 154.65C200.74 154.76 200.45 154.92 200.2 155.12C199.94 154.16 199.18 153.38 197.89 153.41C197.78 153.41 197.68 153.42 197.57 153.42C197.02 152.85 196.49 152.24 195.97 151.66C195.55 151.19 194.96 150.97 194.34 150.95C193.05 149.04 190.03 149.74 189.78 152.29C189.41 156.02 186.23 159.02 183.76 161.53C180.77 164.58 177.54 167.2 173.83 169.31C173.66 169.32 173.48 169.35 173.29 169.4C156.86 173.93 136.94 165.98 130.91 149.39C129.04 144.24 128.53 138.66 126.3 133.64C126.69 133.23 126.94 132.69 126.94 132.02C126.94 131.53 126.75 131 126.44 130.56C126.83 128.02 127.22 125.48 127.61 122.95C128.08 119.86 128.56 116.88 129.59 113.92C131.44 108.61 133.84 103.67 137.11 99.13C137.28 99.02 137.44 98.88 137.59 98.71C138.64 97.52 139.7 96.34 140.84 95.25C141.16 95.22 141.48 95.12 141.79 94.94C142.42 94.58 143.03 94.18 143.62 93.76C144.33 93.44 145.02 93.08 145.69 92.69C146.59 93.13 147.73 93.02 148.57 92.25C150.42 90.58 153.3 90.58 155.65 90.49C158.96 90.36 162.34 90.35 165.61 90.97C168.61 91.53 171.44 92.57 174.05 94.16C176.23 95.49 178.77 97.28 179.75 99.76C180.74 102.26 184.05 101.86 184.57 99.72C184.64 99.57 184.69 99.42 184.73 99.25C185.66 94.84 188.47 91.25 192.51 89.27C194.27 88.41 193.99 85.89 192.51 84.95C189.82 83.25 186.93 81.9 183.92 80.87C183.48 80.72 183.08 80.72 182.7 80.81C181.9 80.27 181.09 79.77 180.2 79.36C177.13 77.92 173.8 77.2 170.41 77.32C170.12 77.33 169.84 77.4 169.58 77.51C165.22 75.91 160.65 74.9 155.99 74.74C154.04 74.67 152.11 74.8 150.18 75.05C151.49 74.37 152.48 73.33 152.75 71.69C153.04 69.95 152.88 68.1 152.88 66.34L152.91 59.95C152.93 56.01 152.94 52.08 152.96 48.14C152.96 47.34 152.73 46.09 152.97 45.33C153 45.23 152.26 45.91 153.17 45.1C153.38 44.92 153.58 44.74 153.79 44.55C155.15 43.36 156.49 42.15 157.8 40.92C162.68 36.32 167.23 31.28 170.81 25.58C172.6 22.73 174.17 19.69 175.31 16.52C175.88 14.95 176.14 13.17 175.43 11.6C175.39 11.27 175.28 10.94 175.06 10.63C174.09 9.29001 172.58 8.37001 170.96 8.45001C166.17 7.79001 161.1 12.07 157.93 15.14C155.67 17.33 153.38 19.56 151.39 22.01C149.33 24.53 147.5 27.23 147.3 30.55C145.88 33.41 144.76 36.45 143.84 39.53C142.86 41.24 142.16 43.11 141.63 45.04C140.71 48.4 140.03 51.84 139.6 55.29C138.79 61.83 140.23 68.26 140.25 74.78C136.36 76.04 132.44 77.26 128.46 78.19C128.03 78.25 127.6 78.31 127.17 78.4C126.69 78.5 126.22 78.63 125.76 78.79C123.95 79.14 122.13 79.42 120.29 79.58C118.56 79.73 116.73 79.65 114.99 79.94C111.52 73.7 109.04 66.98 106.12 60.47C104.54 56.94 102.81 53.46 100.71 50.2C100.51 49.89 100.31 49.59 100.1 49.29C101.71 47.67 103.09 45.72 104.38 44.02C106.84 40.77 109.01 37.3 110.85 33.67C112.78 29.88 114.23 25.88 116.11 22.07C117.94 18.33 119.77 14.46 119.56 10.19C119.55 9.93001 119.49 9.69001 119.41 9.47001C119.54 8.00001 119.33 6.56001 118.63 5.18001C118.6 5.12001 118.57 5.06001 118.53 4.98001C118.42 4.77001 118.31 4.56001 118.16 4.37001C118.04 4.20001 117.92 4.02001 117.79 3.85001C117.12 2.98001 116.16 2.89001 115.31 3.23001C114 2.97001 112.51 3.23001 111.32 3.57001C107.58 4.64001 104.73 7.41001 102.29 10.31C99.8198 13.24 97.6098 16.38 95.7398 19.72C93.8898 23.03 91.7398 26.77 92.1798 30.67C90.2098 35.85 89.2598 41.41 89.4598 46.97C89.4598 47.03 89.4798 47.08 89.4798 47.13C89.4798 47.9 89.4998 48.68 89.5298 49.45C89.6698 52.71 90.0398 55.96 90.6098 59.17C91.1698 62.31 91.9398 65.42 92.9298 68.46C93.3998 69.91 93.9598 71.81 94.9498 73.19C95.6298 75.71 96.4298 78.25 97.6098 80.57C98.2598 81.84 99.1698 82.93 99.9598 84.11C100.34 84.68 100.77 85.33 100.97 86.01C100.48 86.11 99.9998 86.21 99.5398 86.31C97.2998 86.79 95.1198 87.5 93.0098 88.38C88.5298 90.24 84.4498 92.77 80.6898 95.83C73.2998 101.86 67.6698 109.86 63.0398 118.12C61.5298 120.81 60.3398 123.55 59.6998 126.58C59.4098 127.93 59.1398 129.28 58.8798 130.64C58.1698 131.78 57.7498 133.03 57.6598 134.34C56.9898 134.46 56.3598 134.82 55.9298 135.45C55.6998 135.8 55.4698 136.14 55.2298 136.49C54.4698 137.62 54.8098 138.72 55.5798 139.41C55.6998 149.98 56.9698 160.42 60.6698 170.4C62.2298 174.6 64.6198 178.36 67.5598 181.73C69.5098 183.96 71.6798 185.93 73.9798 187.76C75.0698 189.22 76.3398 190.55 77.7298 191.71C79.8198 193.46 82.0998 194.95 84.4498 196.32C85.4998 196.93 86.5498 197.55 87.6198 198.13C107 205.83 127.21 207.65 148.9 206.25C150.15 205.56 151.47 205.1 152.93 204.84C153.59 204.72 154.23 204.59 154.86 204.42C154.9 204.48 154.95 204.54 154.99 204.59C156.17 205.98 157.71 207.01 159.39 207.83C160.86 209.21 162.73 210.13 164.69 210.68C165.59 211.15 166.52 211.59 167.47 211.99C167.77 212.11 168.09 212.13 168.41 212.08C168.69 212.35 169.03 212.56 169.44 212.65C170.27 212.83 171.09 212.93 171.91 213.01C174.68 213.36 177.48 213.51 180.26 213.33C180.66 213.3 181.05 213.26 181.44 213.2C185.93 214.21 191 212.77 194.12 209.35C194.39 209.22 194.65 209.07 194.9 208.91C197.34 207.31 198.89 204.86 200.18 202.31C201.02 202.15 201.72 201.49 202.02 200.7C205.88 201.19 209.75 201.02 213.59 200.46C217.03 200.28 220.72 200.21 223.91 198.96C224.5 198.73 225 198.34 225.33 197.85C229.72 196.62 234.07 195.07 237.9 192.67C247.82 186.47 253.35 174.94 253.02 163.38C252.95 159.87 252.38 156.38 251.37 153.07Z" fill="#DAED95"/>
<path d="M102.66 200.57C102.7 200.59 102.75 200.62 102.79 200.65C102.87 200.69 102.93 200.73 102.97 200.76C103.01 200.93 102.95 201.15 102.94 201.32C102.9 201.96 102.82 202.58 102.89 203.23C102.91 203.44 102.97 203.64 103.04 203.83C100.73 207.41 98.9403 214.89 99.6603 219.11C100.19 226.68 102.92 231.07 108.39 236.32C106.33 237.14 109.09 239.34 108.29 240.88C107.09 243.19 106.35 245.67 105.91 248.23C105.11 252.89 104.76 257.64 104.32 262.36C101.66 262.25 98.9903 262.19 96.3303 262.35C92.9003 262.56 89.7303 263.29 86.4403 264.24C84.9503 264.67 82.3803 260.42 81.7503 260.14C76.9803 257.98 71.9303 257.64 66.6603 257.19C64.1303 256.97 61.6403 257.31 59.1903 257.96C57.3403 258.45 56.0703 258.5 54.1303 258.42C50.6203 249.19 45.3203 239.75 35.9103 235.83C40.1903 227.5 39.2503 217.77 36.1903 209.05C38.9003 209.15 41.6403 209.03 44.2303 208.23C47.7403 207.15 50.7703 204.8 52.3103 201.4C53.8603 198 53.9203 194.17 52.3303 190.77C50.8003 187.5 47.7803 185.02 44.3303 184.06C43.9103 183.94 43.4803 183.97 43.0903 184.1C40.1903 183.02 37.0803 182.54 33.9803 182.78C28.0603 183.24 22.1903 186.09 18.4203 190.78C17.8503 191.49 15.6703 190.66 15.4003 191.42C15.2403 191.51 15.0803 191.61 14.9303 191.73C11.6603 194.33 10.5503 198.58 8.52031 202.29C6.61031 205.78 5.14031 209.59 4.01031 213.41C1.73031 221.15 1.13031 229.53 3.53031 237.31C3.54031 237.33 3.55031 237.34 3.55031 237.36C3.33031 246.38 5.09031 255.34 8.77031 263.66C8.82031 263.78 8.8903 263.88 8.9503 263.98C9.1103 264.59 9.2803 265.19 9.4803 265.78C11.1303 270.77 13.6203 275.42 16.2903 279.92C19.0303 284.53 21.9503 289.04 25.0303 293.43C25.7903 294.51 26.5603 295.6 27.3403 296.66C28.1003 297.69 28.8803 298.76 30.0003 299.43C30.7103 299.86 31.5303 300.09 32.3503 300.13C39.2503 307.89 47.8703 314.04 57.2703 318.42C57.7203 318.63 58.1803 318.83 58.6403 319.03C62.0603 321.23 65.8003 322.86 69.6703 324.26C75.2903 326.29 81.0703 327.81 87.0003 328.52C90.2403 328.91 93.5203 329.02 96.7803 328.76C97.8903 328.67 99.1303 328.6 100.36 328.39C100.5 328.39 100.63 328.4 100.77 328.4C107.73 328.31 114.78 326.23 119.49 321C121.31 319.87 123.06 318.62 124.73 317.27C127.05 315.39 129.78 313.04 131.06 310.17C131.07 310.17 131.08 310.17 131.09 310.17C132.92 310.29 133.88 307.81 132.83 306.54C132.85 306.53 132.86 306.52 132.88 306.51C137.05 303.95 139.01 299.75 139.67 295.02C140 292.67 140.28 290.35 141.07 288.09C141.83 285.91 142.96 283.88 144.16 281.92C145.38 279.93 146.7 278.02 147.98 276.07C148.69 274.98 149.22 273.86 149 272.53C148.79 271.29 148.17 270.08 147.8 268.87C146.15 263.5 145.81 257.76 146.85 252.23C146.86 252.19 146.85 252.15 146.86 252.11C148.43 251.71 149.31 249.18 147.51 247.98C144.22 245.76 141.94 242.26 140.94 238.42C140.32 236.03 140.2 233.52 140.5 231.08C140.79 228.72 141.63 226.58 142.35 224.33C142.72 223.17 142.86 222.04 142.82 220.93C143.21 220.67 143.56 220.29 143.86 219.76C144.28 219.02 144.4 218.2 144.9 217.5C145.1 217.22 145.33 216.99 145.57 216.78C146.52 217.47 147.99 217.52 148.82 216.25C150.67 213.41 152.59 210.35 155.42 208.38C155.74 208.15 154.64 202.45 154.97 202.27C135.97 203.49 119.67 207.38 102.66 200.57Z" fill="#DAED95"/>
<path d="M205.99 264.51C205.77 260.19 205.09 255.89 203.97 251.72C203.95 251.65 203.92 251.59 203.9 251.53C203.97 251.2 203.96 250.86 203.85 250.54C203.21 248.67 202.13 247.17 200.84 245.71C200.3 245.1 199.74 244.25 199.11 243.74C199.15 243.59 199.19 243.44 199.23 243.29C199.36 242.76 199.47 242.23 199.56 241.7C200.35 237.27 200.2 232.76 199.09 228.4C198.96 227.89 198.64 227.47 198.23 227.19C197.77 224.99 196.74 222.95 195.33 221.22C195.23 220.97 195.12 220.71 195.02 220.45C194.52 219.23 193.96 218.11 193.22 217.03C192.86 216.5 192.49 215.98 192.15 215.44C191.95 215.12 191.76 214.79 191.56 214.46C191.54 214.42 191.43 214.22 191.33 214.05C191.2 213.26 190.47 212.42 189.75 212.29C189.73 212.29 189.71 212.28 189.69 212.28C188.64 212.09 187.43 212.54 187.07 213.66C184.09 212.71 180.91 212.91 177.81 212.49C174.31 212.01 166.52 211.88 163.23 210.54C161.75 209.94 160.33 209.17 159 208.28C157.63 207.37 154.74 205.86 154.74 205.86C154.74 205.86 152.07 206.5 149.82 209C147.22 211.9 145.72 215.52 144.43 219.18C142.96 221.7 142.13 224.53 141.58 227.4C141.01 230.39 140.42 233.53 140.65 236.59C140.89 239.69 141.99 242.43 144.05 244.72C145.04 245.82 146.2 246.74 147.36 247.64C147.86 248.02 148.45 248.39 148.97 248.81C146.05 255.41 146.04 263.02 149.02 269.56C148.96 269.76 148.91 269.97 148.89 270.19C148.66 272.75 147.2 275.03 145.89 277.15C144.33 279.66 142.91 282.16 141.8 284.92C140.72 287.61 139.93 290.41 139.49 293.29C139.38 294.03 139.21 294.87 139.12 295.7C138.88 295.87 138.69 296.1 138.55 296.38C135.14 303.47 131.66 310.97 126.08 316.56C123.51 319.14 120.61 321.31 117.61 323.34C116.05 324.39 114.46 325.55 112.72 326.29C111.06 326.99 109.25 326.82 107.59 327.46C105.36 328.32 105.6 331.78 108.17 331.85C108.35 331.85 108.57 331.85 108.75 331.93C109.16 332.11 109.6 332.2 110.01 332.18C114.98 333.12 120.02 333.65 125.08 333.65C127.4 333.65 129.72 333.55 132.05 333.44C132.12 333.46 132.18 333.49 132.26 333.5C132.46 333.54 132.65 333.55 132.84 333.57V333.58C132.9 333.59 132.96 333.58 133.02 333.59C133.25 333.61 133.49 333.63 133.72 333.63C136.04 333.77 138.35 333.58 140.63 333.08C140.82 333.04 140.98 332.97 141.13 332.9C144.12 332.91 147.12 332.74 150.09 332.36C152.04 332.11 153.99 331.83 155.87 331.26C157.72 330.7 159.44 329.8 161.18 328.96C162.78 328.19 164.46 327.8 166.17 327.37C168.03 326.9 169.8 326.22 171.45 325.22C174.49 323.38 177.49 321 179.89 318.33C181.23 316.84 182.44 315.17 183.3 313.34C183.75 312.38 184.15 311.37 184.42 310.34C184.53 309.92 184.62 309.49 184.69 309.05C184.72 308.87 184.78 308.66 184.81 308.46C185.15 308.3 185.47 308.05 185.7 307.75C189.4 306.19 192.65 303.8 195.55 300.96C197.13 299.41 198.76 297.76 199.92 295.84C201.12 293.85 201.87 291.53 202.73 289.36C202.79 289.28 202.86 289.21 202.91 289.12C203.71 287.82 203.94 286.37 204.09 284.86C204.23 283.37 204.36 281.87 204.35 280.38C204.33 278.1 203.95 275.75 202.93 273.7C203.76 272.79 204.53 271.82 205.07 270.71C206.04 268.73 206.1 266.67 205.99 264.51Z" fill="#FBECA9"/>
<path d="M156.05 225.23L158.14 228.77L157.1 234.3L152.94 236.31L148.72 234.36L149.46 228.77L151.72 225.23H156.05Z" fill="#BB8DF5"/>
<path d="M162.43 257.12L165.28 260.09L165.53 265.72L161.93 268.62L157.38 267.69L156.82 262.08L158.21 258.12L162.43 257.12Z" fill="#BB8DF5"/>
<path d="M153.56 288.14L157.35 291.11L157.69 296.73L152.9 299.64L146.84 298.71L146.09 293.1L147.94 289.13L153.56 288.14Z" fill="#BB8DF5"/>
<path d="M234.66 137.52C246.99 137.8 262.96 159.67 248.56 183.56C240.8 196.44 222.92 202.11 205.15 201.47C182.3 200.64 159.45 190.61 156.51 185.13" stroke="black" stroke-width="4" stroke-miterlimit="10" stroke-linecap="round" stroke-linejoin="round"/>
<path d="M151.72 190.91C151.72 190.91 153.56 185.12 161.18 182.16" stroke="black" stroke-width="4" stroke-miterlimit="10" stroke-linecap="round" stroke-linejoin="round"/>
<path d="M229.36 164.7C229.36 164.7 233.5 165.92 234.91 166.96" stroke="black" stroke-width="4" stroke-miterlimit="10" stroke-linecap="round" stroke-linejoin="round"/>
<path d="M243 162.39C242.99 161.91 243.34 160.24 243.6 159.66" stroke="black" stroke-width="4" stroke-miterlimit="10" stroke-linecap="round" stroke-linejoin="round"/>
<path d="M201.13 201.23C199.3 211.25 187.86 213.3 177.7 213.29C169.02 213.29 155.32 208.28 153.35 204.4C151.2 205 147.95 205.88 146.22 206.24" stroke="black" stroke-width="4" stroke-miterlimit="10" stroke-linecap="round" stroke-linejoin="round"/>
<path d="M115.58 80.37C121.65 78.25 141.3 74.23 158.76 75.22C174.99 76.14 190.12 81.34 195.33 87.14" stroke="black" stroke-width="4" stroke-miterlimit="10" stroke-linecap="round" stroke-linejoin="round"/>
<path d="M111.62 204.04C103.32 204.92 84.4401 199.04 72.2301 187.95C60.9701 177.72 56.7501 164.99 55.8101 150.68C53.9101 121.74 69.9301 95.15 98.3501 85.55" stroke="black" stroke-width="4" stroke-miterlimit="10" stroke-linecap="round" stroke-linejoin="round"/>
<path d="M158.1 231.43C157.54 234.7 155.53 237.3 151.93 237.22C149.03 237.15 147.26 234.3 147.71 230.66C148.13 227.34 150.12 224.17 153.74 224.42C156.41 224.61 158.85 227.05 158.1 231.43Z" stroke="black" stroke-width="4" stroke-miterlimit="10" stroke-linecap="round" stroke-linejoin="round"/>
<path d="M166.04 260.61C167 263.79 166.37 267.01 163.12 268.55C160.5 269.79 157.63 268.03 156.41 264.57C155.3 261.42 155.66 257.68 159.01 256.29C161.47 255.27 164.75 256.36 166.04 260.61Z" stroke="black" stroke-width="4" stroke-miterlimit="10" stroke-linecap="round" stroke-linejoin="round"/>
<path d="M156.89 296.47C155.48 299.47 152.14 301.18 148.61 299.95C145.87 299 145.45 295.88 146.69 292.43C147.82 289.29 150.47 286.62 153.94 287.66C156.5 288.42 159.15 291.67 156.89 296.47Z" stroke="black" stroke-width="4" stroke-miterlimit="10" stroke-linecap="round" stroke-linejoin="round"/>
<path d="M102.13 203.13C92.0502 217.86 106.37 244.72 124.6 243.83" stroke="black" stroke-width="4" stroke-miterlimit="10" stroke-linecap="round" stroke-linejoin="round"/>
<path d="M108.4 238.38C106.16 242.59 101.23 253.02 105.31 267.65" stroke="black" stroke-width="4" stroke-miterlimit="10" stroke-linecap="round" stroke-linejoin="round"/>
<path d="M103.25 262C98.95 260.44 82.53 260.09 77.54 271.36" stroke="black" stroke-width="4" stroke-miterlimit="10" stroke-linecap="round" stroke-linejoin="round"/>
<path d="M39.6797 268.8C44.5597 261.2 58.1897 255.89 64.7897 255.94C73.0097 256 83.5197 259.49 84.9797 263.82" stroke="black" stroke-width="4" stroke-miterlimit="10" stroke-linecap="round" stroke-linejoin="round"/>
<path d="M54.14 258.41C53.53 253.46 50.27 251.6 47.83 247.46C42.7 238.78 37.53 237.35 35.71 236.31" stroke="black" stroke-width="4" stroke-miterlimit="10" stroke-linecap="round" stroke-linejoin="round"/>
<path d="M22.4902 237.89C24.7202 238.85 28.4402 238.63 32.0802 237.31C36.5902 235.67 37.8502 231.71 38.6102 226.03C39.4102 220.03 38.8102 213.37 35.0402 209.42" stroke="black" stroke-width="4" stroke-miterlimit="10" stroke-linecap="round" stroke-linejoin="round"/>
<path d="M101.51 328.44C117.59 336.96 147.51 333.02 156.15 330.72C166.6 327.94 181.62 322.39 185.35 308.85" stroke="black" stroke-width="4" stroke-miterlimit="10" stroke-linecap="round" stroke-linejoin="round"/>
<path d="M189.25 213.65C192.37 216.21 198.07 224.23 199.87 229.58C201.78 235.22 202.03 244.09 198.06 247.64" stroke="black" stroke-width="4" stroke-miterlimit="10" stroke-linecap="round" stroke-linejoin="round"/>
<path d="M149.46 211.85C143.44 218.05 133.94 238.14 143.44 245.7" stroke="black" stroke-width="4" stroke-miterlimit="10" stroke-linecap="round" stroke-linejoin="round"/>
<path d="M147.97 249.79C143.01 260.7 145.49 271.86 154.54 275.95" stroke="black" stroke-width="4" stroke-miterlimit="10" stroke-linecap="round" stroke-linejoin="round"/>
<path d="M146.48 277.38C141.25 285.23 136.8 294.03 139.41 301.17" stroke="black" stroke-width="4" stroke-miterlimit="10" stroke-linecap="round" stroke-linejoin="round"/>
<path d="M158.63 246.32C169.05 252.77 188.14 251.64 192.11 249.97" stroke="black" stroke-width="4" stroke-miterlimit="10" stroke-linecap="round" stroke-linejoin="round"/>
<path d="M161.61 277.38C170.54 280.29 190.87 282.22 197.57 277.38" stroke="black" stroke-width="4" stroke-miterlimit="10" stroke-linecap="round" stroke-linejoin="round"/>
<path d="M202.53 274.42C208.94 266.44 206.99 251.89 199.91 245.05" stroke="black" stroke-width="4" stroke-miterlimit="10" stroke-linecap="round" stroke-linejoin="round"/>
<path d="M141.28 306.33C143.82 310.24 162.65 315.54 176.25 311.95C197.58 306.33 208.34 293.78 202.54 274.42" stroke="black" stroke-width="4" stroke-miterlimit="10" stroke-linecap="round" stroke-linejoin="round"/>
<path d="M133.84 303.88C130.86 310.73 123.34 324.43 103.25 328.15C86.4001 331.27 65.6301 323.89 52.4201 316.08C32.5701 304.34 22.1801 292.33 14.5601 278.88C4.25011 260.68 1.83011 242.22 2.01011 227.22C2.21011 211.25 6.62011 202.19 12.5701 195.35C22.9401 183.45 32.8801 182.04 39.0201 182.91C45.9801 183.9 53.2401 186.8 53.9001 195.31C54.3901 201.64 50.6801 208.29 41.0101 209.13C35.3501 209.62 31.9401 208.59 29.9501 206.81" stroke="black" stroke-width="4" stroke-miterlimit="10" stroke-linecap="round" stroke-linejoin="round"/>
<path d="M100.99 87.99C92.5196 75.01 84.7996 47.78 90.8196 30.58C99.5296 5.74 110.77 0.999997 115.58 2.16C120.55 3.36 121.5 8.66 119.04 16.28C114.55 30.18 102.3 48.89 97.0396 49.97" stroke="black" stroke-width="4" stroke-miterlimit="10" stroke-linecap="round" stroke-linejoin="round"/>
<path d="M100.5 47.78C103.81 53.36 111.53 77.46 116.8 83.48" stroke="black" stroke-width="4" stroke-miterlimit="10" stroke-linecap="round" stroke-linejoin="round"/>
<path d="M139.75 75.78C137.7 58.06 141.18 35.94 149.46 23.71C157.74 11.48 167.06 3.84998 174.48 8.51998C179.68 11.79 175.93 21.03 168.94 29.45C161.95 37.87 152.85 45.36 148.05 46.67" stroke="black" stroke-width="4" stroke-miterlimit="10" stroke-linecap="round" stroke-linejoin="round"/>
<path d="M151.72 75.07C153.14 66.94 153.13 52.56 151.72 45" stroke="black" stroke-width="4" stroke-miterlimit="10" stroke-linecap="round" stroke-linejoin="round"/>
<path d="M220.64 89.41C220.32 88.86 219.83 88.39 219.14 88.05C213.57 85.32 202.06 82 197.37 87.88C196.34 87.49 195.19 87.52 194.16 88.21C189.32 91.45 186.4 95.96 184.25 101.31C183.67 102.76 183.27 104.1 182.95 105.49C180.84 101.44 178.21 97.76 174.18 95.31C173.66 94.99 173.12 94.83 172.59 94.78C172.57 94.77 172.55 94.75 172.53 94.74C170.32 93.33 168.12 92.68 165.55 92.58C165.26 92.43 164.94 92.31 164.58 92.22C156.78 90.35 148.85 91.76 142.43 96.67C141.77 97.17 141.34 97.78 141.06 98.42C140.32 99.03 139.62 99.67 138.93 100.34C134.37 102.22 130.64 108.79 129.42 112.88C129.07 114.07 129.25 115.09 129.75 115.9C129.68 116.21 129.63 116.54 129.61 116.89C129.57 117.64 129.53 118.39 129.5 119.15C129.26 119.55 129.09 119.98 129.01 120.46C128.1 126.11 127.53 131.89 128.82 137.44C127.67 138.67 127.11 140.43 127.62 142.13C128.17 143.97 128.95 145.78 129.99 147.39C130.15 147.64 130.33 147.87 130.53 148.09C130.58 148.15 130.65 148.21 130.7 148.27C130.82 148.39 130.93 148.51 131.06 148.61C131.16 148.7 131.26 148.78 131.37 148.85C131.53 148.97 131.7 149.08 131.88 149.18C131.92 149.2 131.95 149.22 131.98 149.24C132.4 149.46 132.85 149.63 133.32 149.72C133.59 150.46 133.9 151.18 134.26 151.89C134.37 157.58 142.22 163.11 146.44 165.61C148.83 167.02 151.97 169.61 154.97 169.34C156.09 169.83 157.07 170.02 158.49 170.09C158.69 170.21 158.89 170.33 159.12 170.43C162.25 171.82 165.55 169.66 168.45 168.47C172.31 167.7 176.04 166.16 178.84 163.71C179.48 163.55 180.11 163.2 180.68 162.58C185.39 157.48 189.36 152.35 190.28 145.48C193.72 149.55 198.12 152.68 203.28 154.44C206.54 155.56 213.16 156.97 216.21 154.27C222.6 153.35 228.4 149.5 231.75 143.94C235.01 138.51 236.19 133.01 236.27 127.27C239.11 115.12 232.67 95.75 220.64 89.41ZM175.7 156.18C175.06 156.45 174.46 156.88 173.96 157.53C172.43 159.51 169.33 159.84 167.05 160.3C164.84 160.75 162.74 161.04 160.55 160.96C160.2 160.57 159.83 160.2 159.41 159.89C157.94 158.81 156.33 158.36 154.65 157.68C150.46 155.96 147.14 153.02 144.73 149.21C144.4 148.69 143.97 148.3 143.48 148C143.39 147.79 143.29 147.57 143.17 147.35C141.88 145.06 142.06 142.07 141.73 139.51C141.4 136.95 140.93 134.44 140.32 131.94C140.55 131.48 140.72 130.96 140.79 130.38C141.34 125.76 141.94 121.17 142.93 116.62C143.21 115.34 142.91 114.25 142.3 113.42C144.4 109.97 147.4 107.1 151.06 104.85C151.79 104.4 152.32 103.86 152.7 103.26C152.97 103.23 153.26 103.18 153.55 103.09C155.34 102.56 157.13 102.12 158.94 101.73C160.19 101.61 161.42 101.58 162.64 101.63C162.93 102.36 163.5 103.02 164.47 103.47C166.43 104.38 168.81 104.72 170.57 105.86C172.69 107.23 174.42 109.66 175.82 111.69C176.02 111.98 176.24 112.22 176.46 112.44C176.1 113.94 176.53 115.6 178.27 116.61C178.27 116.61 178.28 116.61 178.28 116.62C178.32 116.7 178.35 116.78 178.39 116.86C178.46 117.14 178.56 117.43 178.69 117.72C179.33 119.17 179.97 120.62 180.62 122.07C180.4 122.94 180.53 123.92 181.19 124.93C182.55 126.98 182.15 130.44 182.25 132.84C182.38 135.81 182.49 138.8 182.48 141.78C182.47 147.89 179.57 151.91 175.7 156.18ZM227.74 119.01C228.75 125.93 228.9 132.06 225.63 138.44C223.3 143 219.33 145.8 214.58 146.33C214.58 146.33 214.58 146.33 214.57 146.33C211.05 144.92 208.02 144.55 204.78 142.32C200.92 139.66 199.01 137.33 197.53 132.84C195.96 128.07 194.83 123.19 194 118.23C193.85 117.36 193.48 116.7 192.98 116.23C193.88 109.5 196.21 102.32 200.45 97.04C201.5 96.88 202.35 96.27 202.91 95.45C203.69 94.89 204.96 94.46 206.31 94.11C206.97 95.04 208.02 95.67 209.4 95.62C211.23 95.56 213.06 95.53 214.9 95.51C222.1 97.28 226.95 107.33 228.45 115.98C227.88 116.8 227.57 117.82 227.74 119.01Z" fill="#BB8DF5"/>
<path d="M182.19 131.09C184.16 149.1 174.77 160.9 163.16 160.9C151.55 160.9 140.15 146.88 140.15 131.09C140.15 115.3 149.56 102.51 161.17 102.51C172.78 102.51 182.19 115.3 182.19 131.09Z" fill="white"/>
<path d="M227.66 119.72C229.23 135.02 221.75 145.04 212.51 145.04C203.27 145.04 194.2 133.13 194.2 119.72C194.2 106.31 201.69 95.44 210.93 95.44C220.17 95.44 227.66 106.31 227.66 119.72Z" fill="white"/>
<path d="M55.6799 144.42L75.9199 140.67L115.45 136.72H121.28L122.22 139.98L119.59 143.12L62.7499 150.27L51.2599 155.71L47.2799 160.98L45.7199 166.1L42.3799 167.46L38.9199 164.77L40.6399 156.16L46.4799 149.36L55.6799 144.42Z" fill="#BB8DF5"/>
<path d="M186.45 113.59C183.18 97.59 168.68 87.7 151.08 91.84C134.41 95.76 125.21 115.71 127.58 134.54C129.95 153.35 141.43 171.86 164.29 170.15C183.19 168.74 190.97 151.8 190.78 144.83" stroke="black" stroke-width="4" stroke-miterlimit="10" stroke-linecap="round" stroke-linejoin="round"/>
<path d="M183.18 104.07C184.42 97.69 190.12 87.14 203.79 84.76C218.54 82.19 232.56 92.61 236.21 114.12C240.01 136.52 229.9 153.54 214.07 155.58C200.94 157.27 193.76 150.88 190.67 147.04" stroke="black" stroke-width="4" stroke-miterlimit="10" stroke-linecap="round" stroke-linejoin="round"/>
<path d="M158.259 102.26C169.929 101.03 180.379 115.26 182.109 127.53C183.939 140.46 181.079 157.01 167.959 159.6C151.229 162.91 142.309 147.93 140.469 134.5C138.629 121.08 144.509 103.71 158.259 102.26Z" stroke="black" stroke-width="4" stroke-miterlimit="10" stroke-linecap="round" stroke-linejoin="round"/>
<path d="M206.47 95.12C217.93 92.51 225.43 105.24 227.3 116.23C229.23 127.59 228.29 143.34 215.93 145.49C205.98 147.22 196.62 136 194.64 122.58C192.98 111.33 195.95 97.51 206.47 95.12Z" stroke="black" stroke-width="4" stroke-miterlimit="10" stroke-linecap="round" stroke-linejoin="round"/>
<path d="M42.7096 167.48C42.5996 167.48 42.4896 167.48 42.3796 167.47C40.1796 167.29 38.5396 165.36 38.7196 163.16C39.7896 149.99 52.2896 144.9 62.5896 142.94C70.3396 141.47 104.89 136.71 119.22 135.4C120.93 135.81 122.02 137.3 122.18 139C122.3 140.31 122.31 142.36 120.47 143.34C106.31 144.63 71.6996 149.35 64.0796 150.8C52.9196 152.92 47.2296 157.17 46.6896 163.81C46.5196 165.89 44.7696 167.48 42.7096 167.48Z" stroke="black" stroke-width="4" stroke-miterlimit="10" stroke-linecap="round" stroke-linejoin="round"/>
<path d="M166.93 120.22L163.15 125.94L165.04 136.67L173.57 139.98L178.35 135.4V125.8L172.86 120.11L168.41 119.05L166.93 120.22Z" fill="#282E36"/>
<path d="M213.87 113.31L212.14 119.05L214.68 126.76L221.43 128.85L225.24 124.25L222.18 113.31L218.69 111.37L216.2 112.39L213.87 113.31Z" fill="#282E36"/>
<path d="M224.53 119.03C225.11 123.93 223.84 128.22 219.76 128.8C216.37 129.28 213.02 126.43 212.29 121.01C211.63 116.09 213.24 111.94 217.49 111.4C220.89 110.98 223.93 113.98 224.53 119.03Z" stroke="black" stroke-width="4" stroke-miterlimit="10" stroke-linecap="round" stroke-linejoin="round"/>
<path d="M178.19 128.05C178.89 134.01 177.35 139.21 172.39 139.92C168.27 140.51 164.2 137.04 163.32 130.47C162.52 124.49 164.48 119.45 169.64 118.8C173.77 118.27 177.47 121.92 178.19 128.05Z" stroke="black" stroke-width="4" stroke-miterlimit="10" stroke-linecap="round" stroke-linejoin="round"/>
</g>
<defs>
<clipPath id="clip0_2372_16025">
<rect width="256.26" height="335.66" fill="white"/>
</clipPath>
</defs>
</svg>
