<svg width="207" height="206" viewBox="0 0 207 206" fill="none" xmlns="http://www.w3.org/2000/svg">
<g clip-path="url(#clip0_2212_15946)">
<path d="M153.05 154.01L157.31 152.86L166.86 146.53L173.12 147.5L179.99 146.53L180.64 157.68L177.83 167.45L171.62 171.06H163.9L158.16 168.28L154.81 162.08L153.05 154.01Z" fill="#282E36"/>
<path d="M109.78 168.77L121.18 170.98L126.87 177.85L130.09 187.52L128.31 196.08L124.84 200.77L117.57 204.12H111.57L102.26 197.84L95.85 188.63L95.04 179.5L98.96 172.08L107.33 167.64L109.78 168.77Z" fill="#282E36"/>
<path d="M17.1999 122.73L35.6199 135.83L37.4399 139.87L37.7899 148.82L31.3999 156.69L24.3899 159.75L18.1899 159.23L9.72992 153.76L5.33992 143.78L3.91992 135.47L6.84992 127.72L11.9599 123.69L17.1999 122.73Z" fill="#282E36"/>
<path d="M17.09 34.4101L38.25 22.7901L85.15 9.18005L113.98 15.4701L143.48 27.9901L138.75 39.7901L135.53 61.2401L126.53 125.51L122.69 146.53L118.71 153.75L113.17 156.09L93.33 150.41L60.22 134.72L30.16 116.95L14.24 103.41L11.96 82.6401L13.85 46.1201L17.09 34.4101Z" fill="#D15F5B"/>
<path d="M31.1797 35.9L87.1097 16.65L139.71 34.79L133.01 79.23L97.3097 67.44L64.0597 53.11L31.1797 35.9Z" fill="#AB3A36"/>
<path d="M158.71 33.0699L191.16 50.5099L184.36 93.9999L176.41 132.49L166.86 145.71L143.48 157.36L133.7 159.11L138.53 142.18L142.62 115.15L149.22 66.9699L154.21 38.7899L158.71 33.0699Z" fill="#D15F5B"/>
<path d="M155.14 40.28L188.67 59.51L175.85 67.89L148.48 78.79L150.82 53.8L155.14 40.28Z" fill="#AB3A36"/>
<path d="M147.56 89.19L172.35 79.23L188.67 71.87L179.33 114.65L175.52 134.42L166.86 145.71L147.56 156.09L133.7 159.11L138.67 144.44L142.62 115.15L147.56 89.19Z" fill="#D15F5B"/>
<path d="M12.8399 90.65L14.2399 103.41L19.4899 109.11L44.9999 126.79L76.9899 142.66L108.12 155.12L119.55 152.97L122.51 145.06L133.24 80.9L139.03 36.5L145.38 24.43L163.38 8.68999L179.19 2.62H193.66L201.03 7.33L204.4 16.1V36.36L200.97 67.22L194.79 107.09L191.16 124.6L184.73 139.89L178.98 146.52L172.27 148.38L165.76 146.8L175.37 136.03L181.16 111.47L184.34 95.38L191.16 56.13L192.46 23.87L190.77 18.65L188.3 16.96L179.34 17.52C179.34 17.52 168.73 23.03 168.58 23.13C168.43 23.23 160.17 30.05 160.17 30.05L152.81 42.71L151.31 56.42L147.56 80.56C147.56 80.56 142.12 125.63 141.64 125.81C141.16 125.99 137.48 152.77 137.48 152.77L130.92 162.65L121.74 169.21L107.31 168.39L91.3299 163.36L62.3499 149.64L32.6399 132.52L11.8499 118.53L3.79992 107.45L2.66992 96.65L7.81992 91.92L12.8399 90.65Z" fill="#B8BFC2"/>
<path d="M15.71 131.17L22.2 137.05L23.9 142.01V149.9L22.33 152.61L16.8 153.47L12.18 148.72L9.97998 141.76L9.72998 136.72L11.38 132.02L14.2 130.09L15.71 131.17Z" fill="#B8BFC2"/>
<path d="M108.42 177.97L116.37 187.52L117.57 192.37L115.8 196.92L110.79 198.4L103.49 191.94L101.36 187.15L100.27 179.66L103.06 176.17L107.62 176.59L108.42 177.97Z" fill="#B8BFC2"/>
<path d="M157.31 151.73L158.06 160.39L161.19 164.21L164.74 166.04L168.71 160.11V152.96L166.86 147.97L163.62 146.53L159.29 150.42L157.31 151.73Z" fill="#B8BFC2"/>
<path d="M142.63 27.22C130.02 20.82 107.43 11.69 86.7199 9.06C69.0299 10.09 26.1999 27.97 15.5699 35.4C11.3299 57.89 10.3899 85.28 14.3499 103.92C23.1999 116.48 86.7199 151.09 108.09 155.12C121.08 157.57 122.24 150.1 124.38 138.47C126.9 124.77 131.65 91.05 134.78 67.22C136.19 56.48 137.08 46.62 138.94 38.99C142.42 24.7 152.49 17.09 158.82 12.34C165.24 7.52 173.57 3.87 181.27 2.6C188.56 1.4 193.26 2.09 196.77 3.84C204.77 7.84 204.59 17.29 204.31 27.5C203.91 42.18 199.58 85.66 195.06 108.63C190.54 131.6 183.95 146.37 175.39 147.5C166.83 148.63 165.51 146.56 165.51 146.56" stroke="black" stroke-width="4" stroke-miterlimit="10" stroke-linecap="round" stroke-linejoin="round"/>
<path d="M12.4401 90.65C4.09009 92.77 -5.18991 103.21 10.4801 116.91C26.1501 130.61 79.3701 161.33 103.66 167.55C112.14 169.72 122.07 171 127.38 166.89C136.7 159.69 137.82 146.07 139.52 135.97C142.34 119.17 149.97 60.44 152.23 45.48C154.51 30.37 170.09 20.96 179.48 17.81C187.48 15.13 190.8 17.54 192.11 20.92C193.57 24.68 191.76 50.14 189.08 66.8C186.4 83.46 179.9 118.89 178.35 125.67C177.57 129.06 176.29 134.48 173.2 138.59C170.1 142.7 164.79 146.57 160.56 149.11C154.91 152.5 144.86 158.69 133.71 159.12" stroke="black" stroke-width="4" stroke-miterlimit="10" stroke-linecap="round" stroke-linejoin="round"/>
<path d="M21.6802 39.79C32.4102 48.45 102.46 82.38 132 87.79" stroke="black" stroke-width="3" stroke-miterlimit="10" stroke-linecap="round" stroke-linejoin="round"/>
<path d="M157.91 32.6899C165.36 36.2999 178.28 42.1399 191.16 50.5099" stroke="black" stroke-width="3" stroke-miterlimit="10" stroke-linecap="round" stroke-linejoin="round"/>
<path d="M146.2 89.19C155.76 86.98 183.04 75.7 188.67 69.27" stroke="black" stroke-width="3" stroke-miterlimit="10" stroke-linecap="round" stroke-linejoin="round"/>
<path d="M140.14 35C130.78 30.45 111.85 22.98 87.9502 16.66C67.6002 19.6 35.7102 33.33 30.1602 36.44C55.2002 49.33 98.7801 70.72 133.18 79.23" stroke="black" stroke-width="3" stroke-miterlimit="10" stroke-linecap="round" stroke-linejoin="round"/>
<path d="M147.56 79.2301C159.67 73.4301 183.89 66.65 190.13 59.5C176.42 51.6 167.43 44.59 153.79 39.8" stroke="black" stroke-width="3" stroke-miterlimit="10" stroke-linecap="round" stroke-linejoin="round"/>
<path d="M87.11 23.9401C86.92 35.1301 84.56 48.1701 82.23 61.2401" stroke="black" stroke-width="3" stroke-miterlimit="10" stroke-linecap="round" stroke-linejoin="round"/>
<path d="M115.185 197.934C118.222 196.051 117.797 189.867 114.236 184.121C110.675 178.375 105.326 175.243 102.289 177.126C99.2513 179.008 99.6759 185.192 103.237 190.938C106.798 196.684 112.147 199.816 115.185 197.934Z" stroke="black" stroke-width="3" stroke-miterlimit="10" stroke-linecap="round" stroke-linejoin="round"/>
<path d="M119.26 169.57C121.89 171.28 124.38 173.8 126.43 177.1C131.75 185.68 130.95 194.49 126.1 198.81C124.5 200.23 121.83 201.96 118.88 203.28C112.97 205.93 104.31 202.14 99 193.56C93.68 184.98 93.68 175 99.33 171.85C101 170.92 103.63 169.31 105.71 168.27" stroke="black" stroke-width="3" stroke-miterlimit="10" stroke-linecap="round" stroke-linejoin="round"/>
<path d="M20.9306 153.536C24.2949 152.332 25.1748 146.196 22.896 139.831C20.6172 133.467 16.0427 129.284 12.6784 130.488C9.31417 131.693 8.43423 137.829 10.713 144.193C12.9918 150.558 17.5664 154.741 20.9306 153.536Z" stroke="black" stroke-width="3" stroke-miterlimit="10" stroke-linecap="round" stroke-linejoin="round"/>
<path d="M36.2802 135.53C39.6802 145.03 37.0602 153.48 31.4102 156.69C29.5502 157.75 26.5802 158.87 23.4102 159.55C17.0802 160.9 9.41016 155.38 6.00016 145.88C2.59016 136.38 4.68016 126.62 10.8702 124.72C12.6602 124.17 15.5102 123.17 17.7402 122.58" stroke="black" stroke-width="3" stroke-miterlimit="10" stroke-linecap="round" stroke-linejoin="round"/>
<path d="M165.02 146.53C166.63 148.21 167.94 151.06 168.47 154.41C169.37 160.12 167.65 165.13 164.63 165.6C161.61 166.07 158.44 161.83 157.54 156.13C157.27 154.4 157.24 152.74 157.41 151.25" stroke="black" stroke-width="3" stroke-miterlimit="10" stroke-linecap="round" stroke-linejoin="round"/>
<path d="M178.37 146.53C179.31 148.38 180.02 150.54 180.39 152.94C181.73 161.46 178.18 168.14 172.92 169.93C171.19 170.52 168.51 170.99 165.75 171.05C160.22 171.17 154.66 165.32 153.32 156.79C153.16 155.76 153.06 154.74 153.03 153.75" stroke="black" stroke-width="3" stroke-miterlimit="10" stroke-linecap="round" stroke-linejoin="round"/>
</g>
<defs>
<clipPath id="clip0_2212_15946">
<rect width="206.4" height="205.62" fill="white"/>
</clipPath>
</defs>
</svg>
