<svg width="217" height="229" viewBox="0 0 217 229" fill="none" xmlns="http://www.w3.org/2000/svg">
<g clip-path="url(#clip0_2164_15984)">
<path d="M36.1 49.45L64.68 54.9399L71.27 56.36L74.61 60.2L81.62 58.04L85.95 60.6699L168.82 79.4L172.16 81.9199L178.99 82.3499L192.1 85.1399L203.65 90.1299L170.42 226.79L90.12 210.02L2 184.25L13.28 130.85L29.62 70.12L36.1 49.45Z" fill="#E0C9AF"/>
<path d="M42.6104 48.8299L62.6604 48.6799V52.9699L60.9604 54.0499L42.6104 48.8299Z" fill="#E0C9AF"/>
<path d="M49.54 66.8899L186.8 97.2899L163.52 201.5L91.79 186.79L25.25 167.69L49.54 66.8899Z" fill="#CF9959"/>
<path d="M82.7398 55.58L80.7998 57.36L83.3698 59.1L112.39 65.17L168.82 79.4L167.69 72.59L156.3 67.73L94.4198 52.97L82.7398 55.58Z" fill="#E0C9AF"/>
<path d="M185.99 82.8099L189.39 77.3099L196.63 79.0799L214.85 87.7799L180.82 220.59L171.79 226.24L187.98 157.14L203.65 90.1299L185.99 82.8099Z" fill="#E0C9AF"/>
<path d="M58.1399 84.8199L98.0899 92.16L92.5899 121.76L51.1299 113.29L58.1399 84.8199Z" fill="#FAF6F3"/>
<path d="M113.2 105.14L158.09 115.87L153.72 144.39L138.61 141.57L121.39 135.78L108.12 132.25L113.2 105.14Z" fill="#FAF6F3"/>
<path d="M119.69 147.92L160.07 157.24L154.42 188.58L109.67 178.27L119.69 147.92Z" fill="#FAF6F3"/>
<path d="M50.5202 128.72L98.0902 136.09L91.1802 166.93L71.7902 162.89L44.4502 156.25L50.5202 128.72Z" fill="#FAF6F3"/>
<path d="M63.1498 91.7999L62.5898 94.0099" stroke="#6B6B6B" stroke-width="3" stroke-miterlimit="10" stroke-linecap="round" stroke-linejoin="round"/>
<path d="M67.4401 92.5599L66.8701 94.7699" stroke="#6B6B6B" stroke-width="3" stroke-miterlimit="10" stroke-linecap="round" stroke-linejoin="round"/>
<path d="M72.2298 93.1499L71.5098 96.4199" stroke="#6B6B6B" stroke-width="3" stroke-miterlimit="10" stroke-linecap="round" stroke-linejoin="round"/>
<path d="M76.3799 97.5L78.2799 97.79" stroke="#6B6B6B" stroke-width="3" stroke-miterlimit="10" stroke-linecap="round" stroke-linejoin="round"/>
<path d="M76.9004 93.86L78.8104 94.14" stroke="#6B6B6B" stroke-width="3" stroke-miterlimit="10" stroke-linecap="round" stroke-linejoin="round"/>
<path d="M84.9297 96.25C84.8597 96.91 84.7897 97.57 84.7197 98.22" stroke="#6B6B6B" stroke-width="3" stroke-miterlimit="10" stroke-linecap="round" stroke-linejoin="round"/>
<path d="M90.4899 96.4399C90.4099 97.2199 90.1099 97.9799 89.6299 98.6099" stroke="#6B6B6B" stroke-width="3" stroke-miterlimit="10" stroke-linecap="round" stroke-linejoin="round"/>
<path d="M59.8496 100.26C60.7096 100.7 61.6896 100.85 62.6496 101C62.8696 101.03 63.0796 101.07 63.2996 101.1C64.4896 101.28 65.6796 101.47 66.8696 101.65" stroke="#6B6B6B" stroke-width="3" stroke-miterlimit="10" stroke-linecap="round" stroke-linejoin="round"/>
<path d="M70.4502 102.12C71.0602 102.41 71.6802 102.69 72.3302 102.88C72.9302 103.06 73.5502 103.15 74.1602 103.24C75.1602 103.39 76.1702 103.54 77.1702 103.68C77.2802 103.7 77.4002 103.72 77.4802 103.8C77.5602 103.88 77.5702 104.01 77.5702 104.13C77.5802 104.81 77.5002 105.49 77.3302 106.14" stroke="#6B6B6B" stroke-width="3" stroke-miterlimit="10" stroke-linecap="round" stroke-linejoin="round"/>
<path d="M82.29 105.33C84.76 105.51 87.2 106.05 89.52 106.92" stroke="#6B6B6B" stroke-width="3" stroke-miterlimit="10" stroke-linecap="round" stroke-linejoin="round"/>
<path d="M58.6503 108.3C58.7003 108.49 58.6703 108.7 58.5703 108.87" stroke="#6B6B6B" stroke-width="3" stroke-miterlimit="10" stroke-linecap="round" stroke-linejoin="round"/>
<path d="M62.3301 109.53C63.5201 109.82 64.7101 110.11 65.9001 110.4" stroke="#6B6B6B" stroke-width="3" stroke-miterlimit="10" stroke-linecap="round" stroke-linejoin="round"/>
<path d="M70.5195 111.4C70.6395 111.43 70.7195 111.56 70.6995 111.68" stroke="#6B6B6B" stroke-width="3" stroke-miterlimit="10" stroke-linecap="round" stroke-linejoin="round"/>
<path d="M74.54 112.32C77.13 112.53 79.48 113.9 82.03 114.37" stroke="#6B6B6B" stroke-width="3" stroke-miterlimit="10" stroke-linecap="round" stroke-linejoin="round"/>
<path d="M86.7998 115.73C86.7998 115.26 86.7998 114.79 86.7998 114.32" stroke="#6B6B6B" stroke-width="3" stroke-miterlimit="10" stroke-linecap="round" stroke-linejoin="round"/>
<path d="M117.67 111.78C117.64 111.94 117.81 112.06 117.97 112.13C119.31 112.71 120.82 112.7 122.28 112.81C123.74 112.92 125.29 113.21 126.33 114.24" stroke="#6B6B6B" stroke-width="3" stroke-miterlimit="10" stroke-linecap="round" stroke-linejoin="round"/>
<path d="M129.53 115.26C129.56 115.26 129.59 115.26 129.62 115.26" stroke="#6B6B6B" stroke-width="3" stroke-miterlimit="10" stroke-linecap="round" stroke-linejoin="round"/>
<path d="M133.12 116.24C134.18 116.53 135.24 116.84 136.3 117.16" stroke="#6B6B6B" stroke-width="3" stroke-miterlimit="10" stroke-linecap="round" stroke-linejoin="round"/>
<path d="M140.4 117.04C140.48 117.36 140.41 117.7 140.23 117.97" stroke="#6B6B6B" stroke-width="3" stroke-miterlimit="10" stroke-linecap="round" stroke-linejoin="round"/>
<path d="M144.96 117.61C144.65 118.09 144.46 118.65 144.41 119.21" stroke="#6B6B6B" stroke-width="3" stroke-miterlimit="10" stroke-linecap="round" stroke-linejoin="round"/>
<path d="M148.44 119.61C148.37 119.6 148.45 119.5 148.52 119.5C150.21 119.46 151.91 119.89 153.38 120.73" stroke="#6B6B6B" stroke-width="3" stroke-miterlimit="10" stroke-linecap="round" stroke-linejoin="round"/>
<path d="M115.4 119.69C115.45 119.1 115.78 118.53 116.26 118.19C118.51 118.59 120.76 118.98 123.01 119.38C123.6 119.48 124.35 119.83 124.2 120.41C124.14 120.62 123.96 120.87 124.11 121.03C124.16 121.08 124.23 121.11 124.3 121.13C126.13 121.72 127.97 122.31 129.8 122.89" stroke="#6B6B6B" stroke-width="3" stroke-miterlimit="10" stroke-linecap="round" stroke-linejoin="round"/>
<path d="M133.95 123.08C134.07 123.37 134.27 123.64 134.52 123.83" stroke="#6B6B6B" stroke-width="3" stroke-miterlimit="10" stroke-linecap="round" stroke-linejoin="round"/>
<path d="M138.63 125.47C140.14 125.78 141.64 126.09 143.15 126.41C143.55 126.49 143.97 126.58 144.36 126.46C144.75 126.34 145.09 125.95 145 125.55" stroke="#6B6B6B" stroke-width="3" stroke-miterlimit="10" stroke-linecap="round" stroke-linejoin="round"/>
<path d="M148.54 127.97C148.77 127.46 148.92 126.92 148.98 126.37" stroke="#6B6B6B" stroke-width="3" stroke-miterlimit="10" stroke-linecap="round" stroke-linejoin="round"/>
<path d="M114.2 127.87C114.27 128.18 114.33 128.5 114.4 128.81" stroke="#6B6B6B" stroke-width="3" stroke-miterlimit="10" stroke-linecap="round" stroke-linejoin="round"/>
<path d="M118.55 128.45C118.64 129.04 118.72 129.64 118.81 130.23" stroke="#6B6B6B" stroke-width="3" stroke-miterlimit="10" stroke-linecap="round" stroke-linejoin="round"/>
<path d="M123.23 129.29C123.2 129.92 123.17 130.54 123.13 131.17" stroke="#6B6B6B" stroke-width="3" stroke-miterlimit="10" stroke-linecap="round" stroke-linejoin="round"/>
<path d="M127.18 131.45C127.18 131.48 127.18 131.51 127.18 131.54" stroke="#6B6B6B" stroke-width="3" stroke-miterlimit="10" stroke-linecap="round" stroke-linejoin="round"/>
<path d="M131.24 130.74C131.74 130.88 132.23 131.03 132.73 131.17" stroke="#6B6B6B" stroke-width="3" stroke-miterlimit="10" stroke-linecap="round" stroke-linejoin="round"/>
<path d="M130.16 134.5C130.63 134.83 131.21 135.02 131.79 135.04" stroke="#6B6B6B" stroke-width="3" stroke-miterlimit="10" stroke-linecap="round" stroke-linejoin="round"/>
<path d="M135.9 135.32C135.98 134.56 136.33 133.82 136.94 133.37C137.55 132.91 138.41 132.79 139.09 133.14C140.12 133.67 140.42 135.05 141.37 135.72C141.77 136 142.24 136.13 142.71 136.25C144.65 136.77 146.59 137.3 148.53 137.82" stroke="#6B6B6B" stroke-width="3" stroke-miterlimit="10" stroke-linecap="round" stroke-linejoin="round"/>
<path d="M123.88 156.57C123.67 155.96 123.45 155.32 123.53 154.68C123.6 154.04 124.06 153.39 124.7 153.32C125.11 153.28 125.5 153.47 125.87 153.65C126.65 154.04 127.48 154.49 127.85 155.28C128.01 155.62 128.07 156.01 128.3 156.31C128.56 156.64 128.98 156.79 129.38 156.93C130.82 157.42 132.26 157.92 133.7 158.41C133.84 158.46 133.99 158.51 134.14 158.5C134.67 158.46 134.83 157.76 134.79 157.23" stroke="#6B6B6B" stroke-width="3" stroke-miterlimit="10" stroke-linecap="round" stroke-linejoin="round"/>
<path d="M139.63 158.09C139.77 159.08 139.91 160.06 140.05 161.05" stroke="#6B6B6B" stroke-width="3" stroke-miterlimit="10" stroke-linecap="round" stroke-linejoin="round"/>
<path d="M143.97 158.87C143.92 159.91 143.99 160.95 144.17 161.98" stroke="#6B6B6B" stroke-width="3" stroke-miterlimit="10" stroke-linecap="round" stroke-linejoin="round"/>
<path d="M148.14 161.26C149.64 160.88 151.16 161.57 152.66 161.97" stroke="#6B6B6B" stroke-width="3" stroke-miterlimit="10" stroke-linecap="round" stroke-linejoin="round"/>
<path d="M119.62 163.24C119.35 163.45 119.26 163.86 119.4 164.16" stroke="#6B6B6B" stroke-width="3" stroke-miterlimit="10" stroke-linecap="round" stroke-linejoin="round"/>
<path d="M124.97 164.13C125.16 163.75 125.68 163.72 126.1 163.76C126.61 163.81 127.12 163.88 127.62 163.98C128.09 164.07 128.56 164.19 128.97 164.43C129.37 164.66 129.7 165.01 130.03 165.34C130.33 165.65 130.62 165.95 130.92 166.26C130.98 166.32 131.04 166.38 131.06 166.47C131.1 166.61 131.01 166.75 130.93 166.86C130.54 167.4 130.08 167.89 129.56 168.31" stroke="#6B6B6B" stroke-width="3" stroke-miterlimit="10" stroke-linecap="round" stroke-linejoin="round"/>
<path d="M136.67 165.92C136.64 166.72 136.62 167.52 136.59 168.32" stroke="#6B6B6B" stroke-width="3" stroke-miterlimit="10" stroke-linecap="round" stroke-linejoin="round"/>
<path d="M140.6 166.98C140.51 167.97 140.53 168.96 140.66 169.94" stroke="#6B6B6B" stroke-width="3" stroke-miterlimit="10" stroke-linecap="round" stroke-linejoin="round"/>
<path d="M145.45 170.34C145.48 170.06 145.51 169.78 145.54 169.5C145.55 169.43 145.56 169.35 145.6 169.29C145.65 169.23 145.72 169.2 145.79 169.17C147.19 168.67 148.73 168.91 150.19 169.15C150.96 169.28 151.74 169.41 152.47 169.7C152.66 169.77 152.86 169.87 152.95 170.05C153.04 170.21 153.03 170.4 153.01 170.58C152.99 170.89 152.97 171.19 152.95 171.5" stroke="#6B6B6B" stroke-width="3" stroke-miterlimit="10" stroke-linecap="round" stroke-linejoin="round"/>
<path d="M54.4199 134.74C56.0599 133.8 58.0899 133.94 59.9599 134.24C62.2499 134.6 64.5199 135.14 66.7299 135.84C66.9299 135.9 67.1699 136.04 67.1299 136.24" stroke="#6B6B6B" stroke-width="3" stroke-miterlimit="10" stroke-linecap="round" stroke-linejoin="round"/>
<path d="M70.8203 136.72C70.8703 136.91 70.9203 137.1 70.9803 137.29" stroke="#6B6B6B" stroke-width="3" stroke-miterlimit="10" stroke-linecap="round" stroke-linejoin="round"/>
<path d="M74.9502 137.94C75.3102 138.47 75.9002 138.83 76.5402 138.9" stroke="#6B6B6B" stroke-width="3" stroke-miterlimit="10" stroke-linecap="round" stroke-linejoin="round"/>
<path d="M81.7803 139.14C85.2603 140.29 88.9703 140.5 92.6303 140.7C92.5703 141.03 92.5103 141.37 92.4503 141.7" stroke="#6B6B6B" stroke-width="3" stroke-miterlimit="10" stroke-linecap="round" stroke-linejoin="round"/>
<path d="M52.7898 140.38C52.7198 140.79 52.7098 141.21 52.7598 141.63C54.5598 141.93 56.3598 142.27 58.1498 142.66C57.9398 141.97 58.6098 141.26 59.3298 141.14C60.0498 141.02 60.7598 141.3 61.4498 141.55C63.1298 142.15 64.8798 142.57 66.6498 142.79" stroke="#6B6B6B" stroke-width="3" stroke-miterlimit="10" stroke-linecap="round" stroke-linejoin="round"/>
<path d="M71.4895 144.18C71.1395 144.29 71.1995 144.85 71.4895 145.06C71.7795 145.27 72.1796 145.25 72.5396 145.28C73.3396 145.34 74.0996 145.65 74.8596 145.91C77.2696 146.73 79.8095 147.04 82.3395 147.34C82.4895 147.09 82.5595 146.8 82.5595 146.51" stroke="#6B6B6B" stroke-width="3" stroke-miterlimit="10" stroke-linecap="round" stroke-linejoin="round"/>
<path d="M86.9 147.17C86.84 147.73 86.77 148.3 86.71 148.86" stroke="#6B6B6B" stroke-width="3" stroke-miterlimit="10" stroke-linecap="round" stroke-linejoin="round"/>
<path d="M91.2602 148.03C91.0902 148.62 90.9202 149.21 90.7402 149.8" stroke="#6B6B6B" stroke-width="3" stroke-miterlimit="10" stroke-linecap="round" stroke-linejoin="round"/>
<path d="M51.2402 150.71C51.4602 150.8 51.5702 151.08 51.4902 151.3" stroke="#6B6B6B" stroke-width="3" stroke-miterlimit="10" stroke-linecap="round" stroke-linejoin="round"/>
<path d="M55.1403 151.53C54.9403 151.9 55.0203 152.39 55.3203 152.68" stroke="#6B6B6B" stroke-width="3" stroke-miterlimit="10" stroke-linecap="round" stroke-linejoin="round"/>
<path d="M59.3203 152.53C59.5203 152.9 59.6203 153.33 59.6003 153.75" stroke="#6B6B6B" stroke-width="3" stroke-miterlimit="10" stroke-linecap="round" stroke-linejoin="round"/>
<path d="M65.4203 153.1C65.3803 153.82 65.4203 154.55 65.5403 155.26" stroke="#6B6B6B" stroke-width="3" stroke-miterlimit="10" stroke-linecap="round" stroke-linejoin="round"/>
<path d="M69.7803 154.67C75.2303 155.34 80.6603 156.26 86.0303 157.43" stroke="#6B6B6B" stroke-width="3" stroke-miterlimit="10" stroke-linecap="round" stroke-linejoin="round"/>
<path d="M125.59 15.96L128.36 16.49L130.99 22.42L128.66 26.93L105.66 43.8L90.1504 53.37L78.8904 56.36L78.1904 48.53L82.8504 44.09L100.85 34.44L119.92 20.93L125.59 15.96Z" fill="#FAF6F3"/>
<path d="M66.97 46.7599L69.73 47.3099V54.0499L67.32 57.2399L64.87 52.6699L64.46 48.1999L66.97 46.7599Z" fill="#FAF6F3"/>
<path d="M175.95 81.0799L178.36 74.1599L183.05 70.1699L185.72 74.1599L186.55 78.6499L183.93 81.8499L181.25 82.8299L175.95 81.0799Z" fill="#FAF6F3"/>
<path d="M146.9 21.6699L161.72 64.1199L170.52 76.0199L175.95 66.8899L163.03 41.8499L153.72 8.30995L146.9 2.56995H140.03L138.75 4.85995L146.47 9.09995L148.31 15.5299L146.9 21.6699Z" fill="#FAF6F3"/>
<path d="M133.49 6.73999H142.83L147.22 10.89L146.67 20.75L140.81 25.06H133.86L129.62 19.73L128.87 13.21L130.09 9.30999L133.49 6.73999Z" fill="#D15F5B"/>
<path d="M74.24 43.0299H78.99L78.89 50.3299L77.87 60.5299L73.78 60.1499L70 54.8399L70.92 46.1299L74.24 43.0299Z" fill="#E0C9AF"/>
<path d="M181.05 66.22L184.31 68.49L181.77 71.61L177.25 77.05L174.19 82.6L170.89 79.4L171.79 72.49L175.95 67.73L181.05 66.22Z" fill="#E0C9AF"/>
<path d="M143.23 24.1C138.14 27.04 132.09 24.08 129.71 19.96C127.33 15.84 127.53 10.12 132.62 7.17997C137.71 4.23997 144.76 6.19997 147.14 10.32C149.52 14.44 148.32 21.16 143.23 24.1Z" stroke="black" stroke-width="4" stroke-miterlimit="10" stroke-linecap="round" stroke-linejoin="round"/>
<path d="M146.67 20.75C151.31 39.92 160.91 67.03 170.51 75.64" stroke="black" stroke-width="4" stroke-miterlimit="10" stroke-linecap="round" stroke-linejoin="round"/>
<path d="M136.15 5.95002C140.02 -1.15998 151.88 2.30002 153.86 8.73002C155.99 15.64 158.1 25.29 162.19 38.8C165.73 50.49 172.07 62.09 176.45 66.89" stroke="black" stroke-width="4" stroke-miterlimit="10" stroke-linecap="round" stroke-linejoin="round"/>
<path d="M132.08 22.73C124.01 32.07 95.58 55.91 79.25 55.88" stroke="black" stroke-width="4" stroke-miterlimit="10" stroke-linecap="round" stroke-linejoin="round"/>
<path d="M80.0195 45.85C93.5695 42.25 120.5 21.65 128.35 13.21" stroke="black" stroke-width="4" stroke-miterlimit="10" stroke-linecap="round" stroke-linejoin="round"/>
<path d="M184.68 70.46C185.15 68.88 185.08 66.15 181.24 65.97C179.35 65.88 176.27 67.13 174.11 69.57C171.82 72.17 170.51 76.06 170.51 79.41C170.51 81.75 174.13 83.55 175.26 81.39C176.39 79.23 177.47 75.48 178.74 73.48C180.18 71.23 182.89 69.33 184.68 70.46Z" stroke="black" stroke-width="3" stroke-miterlimit="10" stroke-linecap="round" stroke-linejoin="round"/>
<path d="M183.22 71.61C185.68 73.39 188.24 75.08 187.45 78.9C186.93 81.41 182 85.44 175.95 81.09" stroke="black" stroke-width="4" stroke-miterlimit="10" stroke-linecap="round" stroke-linejoin="round"/>
<path d="M80.0203 44.96C77.6203 49.05 78.3803 57.6 78.8003 59.1C78.3503 59.83 76.8903 60.77 74.6103 60.2C72.6703 59.72 70.9203 58.08 70.2603 55.87C69.2703 52.57 69.6203 48.61 71.6003 45.03C72.6503 43.13 74.7603 41.92 77.3003 42.3C79.8403 42.68 80.0203 44.96 80.0203 44.96Z" stroke="black" stroke-width="3" stroke-miterlimit="10" stroke-linecap="round" stroke-linejoin="round"/>
<path d="M69.46 46.86C67.3 46.26 64.28 46.92 63.42 50.26C62.96 52.05 63.39 56.59 69.36 56.35" stroke="black" stroke-width="4" stroke-miterlimit="10" stroke-linecap="round" stroke-linejoin="round"/>
<path d="M80.0195 58.73C80.0195 58.73 150.84 72.12 169.62 79.08" stroke="black" stroke-width="4" stroke-miterlimit="10" stroke-linecap="round" stroke-linejoin="round"/>
<path d="M184.88 82.3501C188.91 84.1101 198.25 87.1201 203.65 90.1301C201.34 109.71 176.94 195.58 171.41 226.24C149.2 226.24 38.14 198.18 2 184.25C6.14 154.59 21.2 101.05 24.21 87.5001C27.22 73.9501 32.87 56.7101 36.63 48.2001C46.98 51.5201 59.44 54.0001 63.28 54.3701" stroke="black" stroke-width="4" stroke-miterlimit="10" stroke-linecap="round" stroke-linejoin="round"/>
<path d="M42.9602 64.12C42.9602 64.12 158.27 91.1 186.55 96.98C182.47 113.79 164.74 186.63 162.66 208.06C137.51 204.55 42.1202 182.7 16.4902 171.77C23.2102 144.88 35.4002 91.76 42.9602 64.12Z" stroke="black" stroke-width="3" stroke-miterlimit="10" stroke-linecap="round" stroke-linejoin="round"/>
<path d="M36.6396 48.2001L50.0896 47.3101L64.0097 48.8301" stroke="black" stroke-width="4" stroke-miterlimit="10" stroke-linecap="round" stroke-linejoin="round"/>
<path d="M91.1104 52.97C99.5104 54.6 148.54 63.75 165.88 70.11" stroke="black" stroke-width="4" stroke-miterlimit="10" stroke-linecap="round" stroke-linejoin="round"/>
<path d="M187.6 76.63C202.71 80.3 210.05 84.82 214.85 87.78C212.31 100.63 187.79 191.61 180.45 220.59C178.71 221.89 171.41 226.24 171.41 226.24" stroke="black" stroke-width="4" stroke-miterlimit="10" stroke-linecap="round" stroke-linejoin="round"/>
<path d="M49.8798 65.73C42.8598 89.41 28.5498 150.98 25.0898 167.68C34.5398 171.78 119.78 195.27 163.04 201.49" stroke="black" stroke-width="3" stroke-miterlimit="10" stroke-linecap="round" stroke-linejoin="round"/>
<path d="M49.8102 127.78C49.6202 132.49 45.2002 153.24 44.4502 156.25C51.9302 158.09 63.5602 161.1 69.0102 161.85C74.4702 162.6 84.2602 166.18 90.8502 166.93C92.5402 158.65 96.8702 142.89 99.1302 136.09C90.2802 135.05 65.2502 130.04 49.8102 127.78Z" stroke="black" stroke-width="3" stroke-miterlimit="10" stroke-linecap="round" stroke-linejoin="round"/>
<path d="M113.62 104.44C112.68 111.78 109.86 126.46 107.78 132.11C117.38 133.12 128.67 138.89 137.52 140.77C146.37 142.65 153.71 144.35 153.71 144.35C155.22 134.94 157.07 121.01 158.59 115.55C149.39 113.85 124.16 107.64 113.62 104.44Z" stroke="black" stroke-width="3" stroke-miterlimit="10" stroke-linecap="round" stroke-linejoin="round"/>
<path d="M58.0899 84.3C58.0899 84.3 52.6299 106.7 51.1299 113.29C65.0599 116.87 86.3299 121.01 92.5399 121.76C94.0499 113.85 97.4299 97.48 99.1299 91.83C91.1099 89.76 69.7599 87.04 58.0899 84.3Z" stroke="black" stroke-width="3" stroke-miterlimit="10" stroke-linecap="round" stroke-linejoin="round"/>
<path d="M110.38 178.27C121.11 180.95 145.82 186.32 154.14 188.01C156.68 174.74 159.65 161.05 160.49 156.81C152.87 155.12 126.61 149.19 118.84 147.35C118.45 152.17 115.67 157.89 114.18 163.44C112.45 169.94 111.9 176.07 110.38 178.27Z" stroke="black" stroke-width="3" stroke-miterlimit="10" stroke-linecap="round" stroke-linejoin="round"/>
</g>
<defs>
<clipPath id="clip0_2164_15984">
<rect width="216.85" height="228.24" fill="white"/>
</clipPath>
</defs>
</svg>
