<svg width="317" height="263" viewBox="0 0 317 263" fill="none" xmlns="http://www.w3.org/2000/svg">
<g clip-path="url(#clip0_2212_16040)">
<path d="M5.81012 230.26C21.7801 191.76 46.3301 135.2 64.0301 97.18C81.7301 59.16 105.75 6.92002 105.75 6.92002C105.75 6.92002 106.99 3.78002 103.74 2.37002C100.73 1.06002 97.9001 3.98002 97.9001 3.98002C97.9001 3.98002 23.8101 164.03 1.87012 219.85L5.81012 230.26Z" fill="#E0D5A1"/>
<path d="M105.75 6.92004C122.76 10.4 178.86 27.53 212.36 53.13C245.86 78.73 255.65 100.94 270.71 112.61C285.77 124.28 306.1 137.46 314.76 139.34C310.24 146.49 308.74 153.36 307.51 156.85C306.29 160.33 297.35 172.38 295.65 175.96C293.96 179.54 289.16 194.31 287.84 200.34C286.52 206.36 285.68 212.86 283.7 216.81C281.72 220.76 273.91 228.29 272.78 236.48C271.65 244.67 279.06 259.38 273.44 260.95C255.28 257.56 245.58 253.8 239.09 250.79C232.6 247.78 207.56 232.34 196.27 217.38C184.98 202.42 162.29 178.51 150.91 165.9C139.53 153.29 119.76 144.72 104.32 139.08C88.8801 133.44 74.1401 132.47 67.9401 130.89C60.5601 129.01 52.8701 125.59 51.5801 124.48" fill="#D15F5B"/>
<path d="M2 220.47C23.94 164.66 91.08 15.5399 97.63 4.37994C98.91 2.19994 101.49 1.48994 103.74 2.36994C105.01 2.85994 106.54 4.66994 105.75 6.91994C103.26 14.0599 81.73 59.1599 64.03 97.1799C46.33 135.2 21.79 191.76 5.81 230.26" stroke="black" stroke-width="4" stroke-miterlimit="10" stroke-linecap="round" stroke-linejoin="round"/>
<path d="M105.75 6.91992C122.76 10.3999 178.86 27.5299 212.36 53.1299C245.86 78.7299 255.65 100.94 270.71 112.61C285.77 124.28 306.1 137.46 314.76 139.34C310.24 146.49 308.74 153.36 307.51 156.85C306.29 160.33 297.35 172.38 295.65 175.96C293.96 179.54 289.16 194.31 287.84 200.34C286.52 206.36 285.68 212.86 283.7 216.81C281.72 220.76 273.91 228.29 272.78 236.48C271.65 244.67 279.06 259.38 273.44 260.95C255.28 257.56 245.58 253.8 239.09 250.79C232.6 247.78 207.56 232.34 196.27 217.38C184.98 202.42 162.29 178.51 150.91 165.9C139.53 153.29 119.76 144.72 104.32 139.08C88.8801 133.44 74.1401 132.47 67.9401 130.89C60.5601 129.01 52.8701 125.59 51.5801 124.48" stroke="black" stroke-width="4" stroke-miterlimit="10" stroke-linecap="round" stroke-linejoin="round"/>
<path d="M239.719 129.66C239.739 128.38 239.629 127.1 239.369 125.83C239.029 124.22 238.459 122.68 237.679 121.27C236.889 119.83 235.889 118.55 234.709 117.45C231.519 111.47 227.389 105.65 222.779 100.68C224.019 101.38 225.369 101.95 226.709 102.32C228.849 102.92 231.719 103.25 233.279 101.35C233.549 101.02 233.759 100.68 233.929 100.32C235.069 97.78 234.149 94.49 231.629 92.16C231.539 92.08 231.449 92 231.369 91.92C229.619 90.37 227.949 89.5 226.689 88.92C223.529 87.47 220.279 87 217.289 87.52C214.839 87.95 212.619 89.04 210.949 90.58C209.209 89.43 207.419 88.37 205.619 87.41C208.519 87.58 211.379 86.92 213.239 85.89C215.109 84.85 216.189 83.4 216.449 81.6C216.649 80.22 216.529 77.52 213.519 74.93C213.399 74.83 213.269 74.72 213.149 74.62C211.629 73.41 210.009 72.92 208.759 72.62L207.879 72.43L207.689 72.4C207.389 72.36 207.089 72.32 206.799 72.28L206.729 72.27H206.659C206.369 72.25 206.069 72.24 205.779 72.23H205.739H205.699C205.459 72.23 205.219 72.24 204.979 72.25L204.699 72.26C203.389 72.35 202.119 72.65 200.919 73.14C199.819 73.59 198.759 74.22 197.769 75.01C196.089 76.35 194.649 78.05 193.379 80.19C192.939 80.92 192.529 81.69 192.159 82.48C188.129 81.71 182.659 81.4 177.379 83.35C177.329 83.3 177.289 83.25 177.239 83.19C175.579 81.35 173.919 80.23 172.309 79.86C171.059 79.58 169.219 79.63 167.549 81.5C166.989 82.13 167.089 83.27 167.789 84.05C167.869 84.13 167.949 84.21 168.029 84.28C168.709 84.84 169.579 84.88 170.089 84.31C170.779 83.54 171.499 83.25 172.289 83.43C172.999 83.59 173.749 84.11 174.419 84.73C171.249 86.49 168.259 89.2 165.859 93.35C165.529 93.91 165.369 94.57 165.379 95.27L161.309 102.23C160.069 104.34 160.119 107.33 161.439 110.03L180.819 150.49C181.629 152.22 182.789 153.8 184.169 155.06C185.549 156.32 187.109 157.23 188.689 157.68L226.289 168.69C228.849 169.46 231.219 168.58 232.459 166.38L236.529 159.14C237.069 158.93 237.539 158.52 237.859 157.93C243.089 148.49 242.079 137.91 239.719 129.66ZM236.369 129.96C236.459 127.8 235.599 125.56 234.019 124.31C231.869 122.62 229.209 123.39 228.089 126.03C226.969 128.67 227.799 132.18 229.949 133.89C232.099 135.6 234.739 134.86 235.869 132.23C235.849 132.3 235.829 132.36 235.809 132.43C234.269 137.12 230.599 139.22 226.189 136.15C225.749 135.84 225.339 135.52 224.969 135.17C221.569 132.04 220.769 127.25 222.169 123.07C223.709 118.42 227.379 116.26 231.789 119.24C232.229 119.54 232.639 119.86 233.009 120.21C233.279 120.46 233.529 120.73 233.779 121C235.359 122.8 236.219 125.03 236.419 127.34C236.489 128.22 236.479 129.09 236.369 129.96ZM204.449 107.1C206.589 104.75 209.699 104.2 213.239 106.51C213.739 106.84 214.199 107.19 214.629 107.57C218.079 110.65 219.159 115.3 218.229 119.64C218.519 116.83 217.309 113.8 215.139 112.36C212.559 110.66 209.609 111.83 208.549 114.98C207.489 118.12 208.729 122.05 211.309 123.78C213.499 125.25 215.949 124.64 217.289 122.48C215.309 126.78 211.459 128.49 206.879 125.41C206.379 125.08 205.919 124.71 205.489 124.33C201.629 120.87 200.729 115.55 202.309 110.88C202.439 110.5 202.589 110.13 202.739 109.78C203.209 108.74 203.779 107.83 204.449 107.1ZM193.409 85.67C193.559 85.71 193.719 85.76 193.879 85.8C193.999 85.5 194.109 85.2 194.239 84.91C194.649 83.97 195.109 83.06 195.629 82.2C196.659 80.46 197.919 78.86 199.519 77.59C200.319 76.95 201.209 76.41 202.189 76.01C203.169 75.61 204.229 75.36 205.339 75.28C205.619 75.27 205.899 75.26 206.179 75.26C206.459 75.27 206.739 75.29 207.029 75.3C207.309 75.33 207.599 75.37 207.879 75.41L207.989 75.42L208.099 75.44L208.309 75.48L208.729 75.57C209.859 75.84 210.999 76.23 211.969 77C213.129 77.92 214.079 79.05 213.869 80.52C213.379 83.94 205.839 85.54 201.399 83.52C201.309 83.62 201.219 83.73 201.129 83.84C200.639 84.44 200.189 85.1 199.779 85.81C199.489 86.31 199.229 86.84 198.989 87.38C203.429 89.08 207.799 91.5 211.749 94.31C212.899 92.74 215.059 91.08 218.199 90.54C220.159 90.2 222.929 90.24 226.229 91.76C227.549 92.37 228.949 93.15 230.339 94.43C231.669 95.67 232.159 97.15 231.589 98.42C231.499 98.62 231.389 98.78 231.259 98.94C229.699 100.83 223.699 98.8 220.979 96.11C220.579 96.12 220.209 96.16 219.879 96.21C218.189 96.49 217.019 97.23 216.309 97.9C216.419 98 216.539 98.09 216.649 98.19C221.439 102.44 226.329 108.19 230.309 114.62C228.149 113.81 226.039 113.8 224.189 114.64C223.309 115.04 222.509 115.61 221.789 116.35C221.729 115.48 221.619 114.62 221.439 113.76C221.069 112.03 220.449 110.39 219.599 108.88C218.709 107.3 217.569 105.89 216.229 104.7C215.639 104.17 214.999 103.69 214.339 103.25C212.659 102.16 210.969 101.49 209.329 101.28C207.739 101.08 206.229 101.3 204.839 101.93C203.609 102.49 202.509 103.37 201.569 104.54L179.549 85.84C184.009 84.45 188.879 84.62 193.409 85.67ZM234.699 156.1L230.169 164.16C229.379 165.56 227.879 166.13 226.249 165.64L188.649 154.74C186.369 154.1 184.249 152.16 183.069 149.65L163.699 109.12C162.859 107.39 162.829 105.5 163.619 104.15L168.149 96.38C167.959 95.99 167.979 95.57 168.159 95.26C170.409 91.37 173.289 88.76 176.479 87.13C176.539 87.22 176.609 87.31 176.649 87.39C176.789 87.61 176.949 87.8 177.139 87.96L199.889 107.3C199.659 107.81 199.439 108.33 199.249 108.89C198.229 111.88 198.049 115.08 198.729 118.15C199.099 119.84 199.719 121.45 200.569 122.95C201.459 124.52 202.599 125.93 203.939 127.13C204.529 127.66 205.169 128.16 205.829 128.61C206.279 128.91 206.739 129.18 207.189 129.43C208.159 129.95 209.119 130.31 210.069 130.54C210.329 130.6 210.579 130.67 210.839 130.71C212.429 130.96 213.939 130.78 215.329 130.18C216.469 129.69 217.479 128.9 218.379 127.88C218.439 128.45 218.519 129.03 218.639 129.59C218.879 130.7 219.239 131.78 219.699 132.81C219.889 133.24 220.099 133.67 220.329 134.09C221.149 135.56 222.189 136.89 223.419 138.02C223.959 138.52 224.539 138.99 225.149 139.41C226.679 140.48 228.229 141.14 229.729 141.39C231.179 141.63 232.579 141.49 233.849 140.94C235.019 140.43 236.059 139.6 236.939 138.47C237.569 137.66 238.099 136.72 238.539 135.65C239.619 142.48 239.069 149.52 235.599 155.75C235.389 156.05 235.069 156.21 234.699 156.1Z" fill="#292E35"/>
<path d="M215.489 136.76L215.989 138.36C216.139 138.82 216.399 139.22 216.719 139.52C217.029 139.81 217.399 139.99 217.769 140.03C217.879 140.04 217.999 140.04 218.109 140.03C218.949 139.9 219.359 138.93 219.029 137.88L218.529 136.27C218.199 135.22 217.249 134.47 216.419 134.61C215.889 134.7 215.529 135.11 215.419 135.67C215.349 135.99 215.369 136.37 215.489 136.76Z" fill="#292E35"/>
<path d="M231.079 144.78C231.009 144.79 230.949 144.8 230.879 144.82C230.089 145.09 229.809 146.15 230.239 147.2C230.699 148.29 230.879 149.63 230.789 150.88C230.759 151.22 230.729 151.55 230.659 151.86C230.479 152.7 230.089 153.71 229.279 154.54C228.849 154.98 228.309 155.37 227.609 155.65C225.829 156.35 223.519 156.02 220.919 154.69C219.219 153.83 217.449 152.53 215.719 150.97C215.569 150.83 215.409 150.71 215.259 150.57C214.559 149.92 213.879 149.23 213.219 148.49C212.259 147.42 211.369 146.33 210.549 145.23C208.089 141.94 206.279 138.62 205.159 135.83C204.859 135.08 204.609 134.37 204.409 133.71C205.209 133.49 205.539 132.48 205.149 131.46C204.919 130.88 204.509 130.43 204.049 130.18C203.699 129.99 203.319 129.92 202.969 130.01L201.769 130.34L201.739 130.35L198.949 131.11C198.139 131.33 197.809 132.33 198.209 133.35C198.359 133.74 198.599 134.08 198.879 134.33C199.329 134.74 199.889 134.93 200.389 134.8L201.489 134.5C201.999 136.1 202.739 137.93 203.739 139.91C204.399 141.22 205.169 142.59 206.069 144C207.109 145.64 208.319 147.33 209.689 149.01C210.209 149.65 210.759 150.3 211.329 150.94C211.979 151.67 212.649 152.35 213.319 153C213.479 153.16 213.639 153.32 213.799 153.47C215.939 155.47 218.159 157.08 220.349 158.21C223.739 159.96 226.839 160.37 229.309 159.41C231.359 158.6 232.519 157.15 233.189 155.68C233.499 155 233.719 154.32 233.849 153.7C233.979 153.1 234.049 152.47 234.079 151.82C234.159 149.94 233.819 147.95 233.099 146.23C232.699 145.26 231.829 144.66 231.079 144.78Z" fill="#292E35"/>
<path d="M242.35 129.9C242.34 128.52 242.19 127.14 241.9 125.77C241.47 123.74 240.76 121.8 239.77 120C238.89 118.39 237.8 116.94 236.54 115.66C234.72 112.31 232.63 109.01 230.33 105.88C232.48 105.88 234.18 105.17 235.35 103.76C235.75 103.28 236.06 102.77 236.31 102.21C238.03 98.37 236.65 93.28 232.97 89.86C232.86 89.76 232.75 89.66 232.65 89.57C230.58 87.73 228.64 86.73 227.18 86.07C224.34 84.78 221.43 84.17 218.65 84.27C218.83 83.77 218.96 83.24 219.04 82.68C219.29 80.97 219.37 76.55 214.79 72.61C214.64 72.48 214.48 72.35 214.32 72.22C212.32 70.63 210.31 70.02 208.79 69.66L207.77 69.44L207.49 69.4C207.18 69.36 206.87 69.32 206.56 69.28L206.42 69.26L206.28 69.25C205.98 69.23 205.67 69.22 205.36 69.21H205.28H205.19C204.91 69.21 204.63 69.22 204.38 69.23L204.04 69.25C202.51 69.36 201.03 69.71 199.64 70.29C198.37 70.81 197.15 71.54 196.02 72.44C194.14 73.94 192.54 75.82 191.14 78.19C190.93 78.54 190.72 78.9 190.53 79.27C186.96 78.76 182.31 78.63 177.65 80.02C177.42 79.8 177.18 79.59 176.94 79.4C175.43 78.14 173.88 77.33 172.34 76.99C169.76 76.41 167.35 77.22 165.54 79.24C164.82 80.04 164.5 81.16 164.62 82.41C164.74 83.66 165.29 84.88 166.17 85.86C166.36 86.07 166.57 86.27 166.78 86.45C166.87 86.52 166.96 86.6 167.05 86.66C165.76 88.06 164.61 89.65 163.59 91.41C163.18 92.12 162.92 92.94 162.82 93.82L159.04 100.28C157.35 103.16 157.41 107.21 159.21 110.89L178.59 151.28C179.64 153.51 181.13 155.55 182.91 157.17C184.69 158.8 186.71 159.98 188.75 160.56L226.36 171.68C229.85 172.74 233.08 171.55 234.77 168.54L238.55 161.81C239.21 161.41 239.76 160.82 240.17 160.08C244.74 151.84 245.5 141.36 242.35 129.9ZM236.52 159.12L232.45 166.36C231.21 168.56 228.84 169.44 226.28 168.67L188.68 157.66C187.1 157.21 185.54 156.31 184.16 155.04C182.78 153.78 181.62 152.2 180.81 150.47L161.43 110.01C160.11 107.31 160.06 104.33 161.3 102.21L165.37 95.25C165.36 94.56 165.52 93.9 165.85 93.33C168.25 89.18 171.24 86.47 174.41 84.71C173.74 84.09 173 83.57 172.28 83.41C171.49 83.23 170.77 83.52 170.08 84.29C169.57 84.86 168.7 84.82 168.02 84.26C167.94 84.19 167.86 84.12 167.78 84.03C167.08 83.26 166.97 82.12 167.54 81.48C169.21 79.61 171.05 79.56 172.3 79.84C173.91 80.21 175.57 81.33 177.23 83.17C177.28 83.22 177.32 83.28 177.37 83.33C182.64 81.38 188.11 81.69 192.15 82.46C192.52 81.67 192.93 80.9 193.37 80.17C194.64 78.03 196.08 76.33 197.76 74.99C198.75 74.2 199.81 73.58 200.91 73.12C202.11 72.63 203.38 72.33 204.69 72.24L204.97 72.23C205.21 72.22 205.45 72.21 205.69 72.21H205.73H205.77C206.06 72.22 206.35 72.24 206.65 72.25H206.72L206.79 72.26C207.09 72.3 207.38 72.34 207.68 72.38L207.87 72.41L208.75 72.6C209.99 72.89 211.61 73.39 213.14 74.6C213.27 74.7 213.39 74.8 213.51 74.91C216.53 77.5 216.64 80.2 216.44 81.58C216.18 83.38 215.1 84.83 213.23 85.87C211.37 86.91 208.51 87.56 205.61 87.39C207.41 88.35 209.2 89.41 210.94 90.56C212.61 89.02 214.84 87.93 217.28 87.5C220.27 86.97 223.53 87.45 226.68 88.9C227.94 89.48 229.62 90.35 231.36 91.9C231.45 91.98 231.54 92.06 231.62 92.14C234.13 94.47 235.06 97.76 233.92 100.3C233.76 100.66 233.54 101 233.27 101.33C231.71 103.22 228.83 102.9 226.7 102.3C225.37 101.93 224.01 101.36 222.77 100.66C227.38 105.64 231.51 111.45 234.7 117.43C235.87 118.53 236.87 119.81 237.67 121.25C238.45 122.67 239.02 124.2 239.36 125.81C239.63 127.07 239.74 128.36 239.71 129.64C242.07 137.89 243.08 148.46 237.85 157.89C237.53 158.5 237.07 158.91 236.52 159.12Z" fill="white"/>
<path d="M236.91 138.44C236.03 139.57 234.99 140.41 233.82 140.91C232.54 141.46 231.15 141.61 229.7 141.36C228.21 141.11 226.66 140.45 225.12 139.38C224.51 138.96 223.93 138.49 223.39 137.99C222.16 136.85 221.12 135.53 220.3 134.06C220.07 133.64 219.86 133.22 219.67 132.78C219.21 131.75 218.85 130.67 218.61 129.56C218.49 128.99 218.41 128.42 218.35 127.85C217.46 128.88 216.44 129.66 215.3 130.15C213.91 130.75 212.4 130.93 210.81 130.68C210.56 130.64 210.3 130.57 210.04 130.51C209.09 130.28 208.12 129.92 207.16 129.4C206.71 129.16 206.25 128.89 205.8 128.58C205.14 128.13 204.5 127.64 203.91 127.1C202.57 125.9 201.44 124.49 200.54 122.92C199.69 121.43 199.07 119.82 198.7 118.12C198.03 115.05 198.21 111.85 199.22 108.86C199.41 108.3 199.63 107.78 199.86 107.27L177.11 87.93C176.92 87.77 176.75 87.58 176.62 87.36C176.58 87.29 176.51 87.19 176.45 87.1C173.26 88.74 170.38 91.34 168.13 95.23C167.95 95.54 167.93 95.96 168.12 96.35L163.59 104.12C162.8 105.47 162.83 107.37 163.67 109.09L183.04 149.62C184.21 152.12 186.34 154.07 188.62 154.71L226.22 165.61C227.86 166.1 229.35 165.53 230.14 164.13L234.67 156.07C235.04 156.17 235.36 156.01 235.54 155.69C239.01 149.46 239.56 142.42 238.48 135.59C238.07 136.69 237.53 137.64 236.91 138.44ZM218.52 136.27L219.02 137.88C219.35 138.93 218.94 139.9 218.1 140.03C217.99 140.05 217.87 140.05 217.76 140.03C217.39 139.99 217.03 139.81 216.71 139.52C216.39 139.22 216.13 138.82 215.98 138.36L215.48 136.76C215.36 136.37 215.34 136 215.4 135.67C215.51 135.11 215.87 134.7 216.4 134.61C217.25 134.47 218.19 135.21 218.52 136.27ZM234.08 151.81C234.05 152.45 233.98 153.09 233.85 153.69C233.72 154.31 233.5 154.99 233.19 155.67C232.52 157.13 231.36 158.59 229.31 159.4C226.84 160.37 223.75 159.95 220.35 158.2C218.16 157.08 215.94 155.47 213.8 153.46C213.64 153.31 213.48 153.14 213.32 152.99C212.65 152.34 211.98 151.66 211.33 150.93C210.76 150.29 210.21 149.65 209.69 149C208.32 147.32 207.11 145.64 206.07 143.99C205.18 142.59 204.41 141.21 203.74 139.9C202.74 137.92 201.99 136.09 201.49 134.49L200.39 134.79C199.89 134.92 199.33 134.73 198.88 134.32C198.6 134.07 198.36 133.73 198.21 133.34C197.81 132.32 198.15 131.32 198.95 131.1L201.74 130.34C201.75 130.34 201.76 130.33 201.77 130.33L202.97 130C203.32 129.9 203.7 129.98 204.05 130.17C204.51 130.42 204.93 130.87 205.15 131.45C205.55 132.47 205.22 133.48 204.41 133.7C204.61 134.36 204.86 135.08 205.16 135.82C206.28 138.61 208.08 141.93 210.55 145.22C211.37 146.32 212.26 147.41 213.22 148.48C213.88 149.22 214.57 149.91 215.26 150.56C215.41 150.7 215.57 150.82 215.72 150.96C217.44 152.52 219.22 153.82 220.92 154.68C223.52 156.01 225.83 156.34 227.61 155.64C228.31 155.36 228.85 154.97 229.28 154.53C230.09 153.7 230.48 152.69 230.66 151.85C230.73 151.53 230.76 151.2 230.79 150.87C230.88 149.62 230.7 148.28 230.24 147.19C229.8 146.15 230.09 145.09 230.88 144.81C230.94 144.79 231.01 144.78 231.08 144.77C231.83 144.65 232.7 145.25 233.1 146.21C233.82 147.95 234.16 149.94 234.08 151.81Z" fill="white"/>
<path d="M204.82 101.97C206.21 101.33 207.72 101.11 209.31 101.32C210.95 101.53 212.64 102.19 214.32 103.29C214.99 103.73 215.62 104.21 216.21 104.74C217.55 105.93 218.68 107.34 219.58 108.92C220.43 110.43 221.05 112.07 221.42 113.8C221.6 114.65 221.72 115.52 221.77 116.39C222.49 115.65 223.29 115.07 224.17 114.68C226.02 113.84 228.13 113.85 230.29 114.66C226.31 108.23 221.42 102.48 216.63 98.2299C216.52 98.1299 216.4 98.0399 216.29 97.9399C217 97.2699 218.17 96.5299 219.86 96.2499C220.19 96.1899 220.56 96.1599 220.96 96.1499C223.69 98.8399 229.68 100.87 231.24 98.9799C231.36 98.8299 231.48 98.6599 231.57 98.4599C232.14 97.1899 231.66 95.7099 230.32 94.4699C228.93 93.1799 227.53 92.3999 226.21 91.7999C222.92 90.2899 220.14 90.2499 218.18 90.5799C215.04 91.1199 212.88 92.7799 211.73 94.3499C207.78 91.5399 203.41 89.1199 198.97 87.4199C199.22 86.8799 199.48 86.3499 199.76 85.8499C200.17 85.1399 200.62 84.4799 201.11 83.8799C201.2 83.7699 201.29 83.6599 201.38 83.5599C205.82 85.5799 213.36 83.9799 213.85 80.5599C214.06 79.0899 213.11 77.9599 211.95 77.0399C210.98 76.2599 209.84 75.8799 208.71 75.6099L208.29 75.5199L208.08 75.4799L207.97 75.4599L207.86 75.4499C207.58 75.4099 207.29 75.3699 207.01 75.3399C206.73 75.3199 206.45 75.3099 206.16 75.2999C205.88 75.2999 205.6 75.3099 205.32 75.3199C204.21 75.3899 203.15 75.6499 202.17 76.0499C201.19 76.4499 200.3 76.9899 199.5 77.6299C197.9 78.8999 196.64 80.4999 195.61 82.2399C195.09 83.1099 194.63 84.0099 194.22 84.9499C194.09 85.2399 193.98 85.5399 193.86 85.8399C193.71 85.7999 193.55 85.7499 193.39 85.7099C188.86 84.6599 183.99 84.4899 179.51 85.9099L201.53 104.61C202.49 103.41 203.59 102.53 204.82 101.97Z" fill="white"/>
<path d="M222.17 123.08C220.78 127.25 221.58 132.04 224.97 135.18C225.35 135.53 225.75 135.86 226.19 136.16C230.61 139.23 234.27 137.12 235.81 132.44C235.83 132.37 235.85 132.31 235.87 132.24C234.74 134.87 232.09 135.61 229.95 133.9C227.8 132.19 226.96 128.68 228.09 126.04C229.21 123.4 231.87 122.62 234.02 124.32C235.6 125.57 236.46 127.81 236.37 129.97C236.48 129.1 236.49 128.23 236.42 127.36C236.22 125.04 235.36 122.81 233.78 121.02C233.54 120.75 233.29 120.48 233.01 120.23C232.63 119.89 232.22 119.56 231.79 119.26C227.38 116.27 223.71 118.43 222.17 123.08Z" fill="white"/>
<path d="M215.139 112.36C217.309 113.8 218.519 116.83 218.229 119.64C219.169 115.3 218.079 110.65 214.629 107.57C214.199 107.19 213.739 106.83 213.239 106.51C209.699 104.2 206.589 104.75 204.449 107.1C203.779 107.83 203.199 108.74 202.739 109.79C202.579 110.14 202.439 110.5 202.309 110.89C200.729 115.55 201.639 120.88 205.489 124.34C205.919 124.72 206.379 125.09 206.879 125.42C211.449 128.5 215.309 126.79 217.289 122.49C215.949 124.64 213.509 125.26 211.309 123.79C208.729 122.06 207.499 118.13 208.549 114.99C209.619 111.83 212.559 110.65 215.139 112.36Z" fill="white"/>
</g>
<defs>
<clipPath id="clip0_2212_16040">
<rect width="316.76" height="262.94" fill="white"/>
</clipPath>
</defs>
</svg>
