<svg width="324" height="327" viewBox="0 0 324 327" fill="none" xmlns="http://www.w3.org/2000/svg">
<g clip-path="url(#clip0_2374_16133)">
<path d="M191.47 136.29L195.05 135.87L198.32 136.55L197.87 139.31L192.92 140.1L191.18 138.07L191.47 136.29Z" fill="white"/>
<path d="M2 23.94L28.03 31.94L67.42 174.53L90.47 272.65V324.74L23.84 277.68L2 23.94Z" fill="#965C38"/>
<path d="M5.25 23.01L85.57 10.51L157.96 2L177.02 8.88L90.47 20.99L28.03 31.94L5.25 23.01Z" fill="#965C38"/>
<path d="M90.4701 324.74L99.7901 323.89L102.05 269.9L39.8701 39.5L112.87 26.25L175.93 17.54L190.12 54.89L197.49 56.79L195.93 73L220.21 139.71L235.67 185.96L240.36 179.42L231.56 156.74L231.46 137.55L226.53 124.98L186.85 22.81L179.89 8.88L146.37 13.17L29.5801 32.79L90.4701 272.65V324.74Z" fill="#965C38"/>
<path d="M102.05 269.9L179.42 257.67L240.36 244.4L246.9 249.07L250.32 253.45L240.36 291L100.65 322.08L102.05 279.28V269.9Z" fill="#965C38"/>
<path d="M243.98 205.21L251.51 195.36L261.7 241.92L251.04 290.48L244.04 292.02L242.09 288.95L251.9 244.4L243.98 205.21Z" fill="#965C38"/>
<path d="M61.04 110.37L71.7 115.74L86.2 113.49L95.75 117.87L115.11 112.62L114.51 107.33L131.42 121.66L146.77 117L147.51 109.24L154.36 112.22L155.53 110.58L156.4 106.72L162.58 105.41L168.69 108.18L171.24 106.69L182.14 112.05L190.52 109.64L192.33 107.07L205.06 112.42V123.42L69.93 145.02L61.04 110.37Z" fill="#965C38"/>
<path d="M83.8398 197.52L88.7798 199.8L108.55 195.64L109.25 191.26L121.46 194.37L134.38 192.46L134.97 188.93V182.49L150.19 187.41L165.16 184.2L166.64 174.95L176.61 183.59L195.65 185.04L205.54 177.96L208.36 173.26L229.89 181.31L228.62 190.34L171.88 202.74L88.4298 213.47L83.8398 197.52Z" fill="#965C38"/>
<path d="M99.6504 213.47L117.58 223.27L126.68 210.21L99.6504 213.47Z" fill="#965C38"/>
<path d="M246.1 228.83L241.82 244.28L249.95 250.76L251.98 240.22L248.75 228.83H246.1Z" fill="#965C38"/>
<path d="M236.3 214.79L246.9 220.55L243.98 207.14L236.3 214.79Z" fill="#965C38"/>
<path d="M188.31 201.21L214.77 211.82V217.41L220.86 218.2L236.3 188.02L197.49 74.91L195.16 76.69L192.33 107.07L205.06 112.42V123.42L194.65 125.09L202.85 132.18L204.05 145.08V147.99L209.41 152.55L209.91 172.08L226.68 180.11L229.89 181.31L228.62 190.34L188.31 201.21Z" fill="#965C38"/>
<path d="M134.97 25.07L173.67 36.23L178.95 51.61L189.3 54.7L175.93 17.54L137.91 22.79L134.97 25.07Z" fill="#965C38"/>
<path d="M87.5996 30.84L109.86 36.12L111.65 27.8L87.5996 30.84Z" fill="#965C38"/>
<path d="M41.2101 44.48L39.8701 39.5L53.3901 37.53L78.5301 46.4L86.2001 113.49L71.7001 115.74L61.0401 110.37L41.2101 44.48Z" fill="#F3BA73"/>
<path d="M56.3096 37.53L86.1996 31.69L112.87 36.93L115.11 112.62L94.5696 117.87L84.5496 113.2L77.0596 45.07L56.3096 37.53Z" fill="#5BAE85"/>
<path d="M114.58 44.3L147.51 52.69V118.34L131.42 121.66L114.51 107.33L114.58 44.3Z" fill="#BB8DF5"/>
<path d="M110.97 34.25L112.87 26.25L134.97 25.07L173.67 36.23L178.29 49.69L170.85 107.83L166.17 108.82L161.09 104.86L156.4 106.72L155.53 110.58L149.2 110.96L147.51 109.24V52.69L114.58 44.3L111.65 36.69L110.97 34.25Z" fill="#FD7676"/>
<path d="M178.95 51.61L197.49 56.79L190.52 109.64L182.14 112.05L171.24 106.69L178.95 51.61Z" fill="#537CE6"/>
<path d="M121.72 26.25L164.45 38.93L171.24 48.22L165.39 102.44L156.4 106.72L155.53 45.59L152.59 40.88L130.19 35.08L120.97 29.78L118.33 26.25H121.72Z" fill="#F9F9F9"/>
<path d="M152.87 207.14L180.19 216.04L184.12 222.72L181.47 229.93L180.83 232.94L184.99 240.22L197.64 244.4L211 240.22L216.12 211.52L186.47 200.61L152.87 207.14Z" fill="#5BAE85"/>
<path d="M186.07 245.6L195.93 249.82L210.19 247.41L208.75 252.11L182.99 257.67L184.12 245.6H186.07Z" fill="#5BAE85"/>
<path d="M184.99 240.22L184.12 245.6L195.93 249.82L208.69 246.62L210.19 241.29L196.59 243.52L184.99 240.22Z" fill="#DAED95"/>
<path d="M69.9297 145.02L90.4697 141.9L107.23 152.55L108.55 195.64L87.0497 199L83.8397 197.52L69.9297 145.02Z" fill="#FBECA9"/>
<path d="M108.55 164.33L117.16 161.54L131.85 162.94L134.38 166.81L134.97 188.93L131.85 192.96L119.29 194.82L110.95 191.87L107.7 189.78V165.49L108.55 164.33Z" fill="#4E5D71"/>
<path d="M93.7898 141.9L116.73 138.32L120.19 161.54L108.55 164.33L107.7 150.67L91.5898 142.61L93.7898 141.9Z" fill="#282E36"/>
<path d="M116.73 138.32L142.43 133.78L162.58 130.6L172.29 137.55L165.47 155.89L165.16 184.2L149.24 189.6L134.97 182.49L134.38 166.81L131.85 162.94L120.19 161.54L116.73 138.32Z" fill="#DEE5E8"/>
<path d="M176.2 127.96L167.6 129.3L164.23 131.78L172.29 137.56L168.88 148.18L177.82 144.42L183.38 144.02L184.04 144.21C185.39 137.2 181.38 131.79 176.2 127.96Z" fill="#30365C"/>
<path d="M204.05 145.92L202.85 132.18L194.64 125.09L176.19 127.96C181.37 131.79 185.38 137.21 184.02 144.21L189.29 145.74L193.07 135.88L197.48 136.71L198.31 138.69L196.54 145.04L204.05 145.92Z" fill="#626C9C"/>
<path d="M189.3 145.73L189.33 152.55L192.55 154.63L194.65 154.6L196.55 145.02L204.05 145.08L209.41 152.55V160.51L208.71 170.45L198.99 185.04L188.31 185.36L183.13 184.23L176.61 183.59L168.8 175.38L165.38 163.37L167.33 150.88L177.81 144.41L189.3 145.73Z" fill="#D15F5B"/>
<path d="M96.2597 212.46L130.57 229.48L128.5 266.9L102.05 269.9L88.4297 213.47L96.2597 212.46Z" fill="#ABD2E2"/>
<path d="M119.44 222.5L122.8 214.34L135.51 210.21L152.31 209.02L170.8 210.21L177.72 215.23L184 220.55L181.47 229.93L177.72 233.82L156.86 237.11L142.43 237.92L132.59 234.92L130.57 229.48L119.44 222.5Z" fill="#865A94"/>
<path d="M100.26 47.85L106.69 47.38L108.47 107.83L103.27 109.4L100.26 47.85Z" fill="#255741"/>
<path d="M132.59 234.92L150.19 237.49L171.28 234.92L179.61 231.86L183.13 235.48L182.99 257.67L177.21 258.8L177.72 249.82L168.83 245.33L150.19 243.89L138.05 245.33L131.42 248.46L132.59 234.92Z" fill="#A1BDB6"/>
<path d="M131.52 247.23L150.19 243.89L177.79 249.07L177.21 258.8L128.5 266.9L131.52 247.23Z" fill="#DDFF5E"/>
<path opacity="0.7" d="M159.95 251.26C159.35 252.37 158.18 252.81 156 252.81C153.82 252.81 152.71 252.27 152.05 251.26C152.05 249.08 153.82 247.31 156 247.31C158.18 247.31 159.95 249.08 159.95 251.26Z" fill="white"/>
<path opacity="0.7" d="M149.63 251.9C149.03 253.01 147.86 253.45 145.68 253.45C143.5 253.45 142.39 252.91 141.73 251.9C141.73 249.72 143.5 247.95 145.68 247.95C147.86 247.94 149.63 249.71 149.63 251.9Z" fill="white"/>
<path d="M130.44 253.73C135.16 256.68 151.15 259.29 165.84 256.13C167.76 255.72 168.71 255.85 169.75 256.86C170.73 257.81 170.56 259.08 170.56 259.08L128.69 265.69L130.44 253.73Z" fill="#75A628"/>
<path d="M157.28 253.19C156.57 254.5 155.19 255.02 152.61 255.02C150.03 255.02 148.72 254.39 147.94 253.19C147.94 250.61 150.03 248.52 152.61 248.52C155.19 248.52 157.28 250.61 157.28 253.19Z" fill="white"/>
<path d="M150.02 224.79C161.479 224.79 170.77 222.256 170.77 219.13C170.77 216.004 161.479 213.47 150.02 213.47C138.56 213.47 129.27 216.004 129.27 219.13C129.27 222.256 138.56 224.79 150.02 224.79Z" fill="#A67FB3"/>
<path d="M147 159.2C146.19 164.41 140.42 166.97 133.4 165.13C127.44 163.57 123.42 158.14 123.42 152.86C123.42 147.58 128.88 143.29 135.04 144.99C144.51 147.6 147.98 152.86 147 159.2Z" fill="#A67FB3"/>
<path d="M144.91 158.4C144.65 160.09 142.78 160.91 140.51 160.32C138.58 159.82 137.28 158.06 137.28 156.35C137.28 154.64 139.05 153.25 141.04 153.8C144.1 154.65 145.23 156.35 144.91 158.4Z" fill="#ABD2E2"/>
<path d="M130.94 153.64C130.72 155.06 129.14 155.76 127.23 155.26C125.61 154.84 124.51 153.35 124.51 151.91C124.51 150.47 126 149.3 127.68 149.76C130.26 150.47 131.21 151.91 130.94 153.64Z" fill="#ABD2E2"/>
<path d="M177.687 154.864C178.747 153.028 178.51 150.905 177.156 150.124C175.802 149.342 173.846 150.198 172.785 152.034C171.725 153.871 171.962 155.993 173.316 156.775C174.67 157.556 176.626 156.701 177.687 154.864Z" fill="white"/>
<path d="M174.293 162.923C175.06 162.673 175.452 161.768 175.169 160.901C174.886 160.035 174.035 159.536 173.269 159.786C172.502 160.036 172.11 160.942 172.393 161.808C172.676 162.674 173.527 163.173 174.293 162.923Z" fill="white"/>
<path d="M105.809 246.512C107.684 245.999 108.67 243.632 108.012 241.224C107.354 238.816 105.3 237.279 103.425 237.792C101.549 238.305 100.563 240.672 101.221 243.08C101.879 245.488 103.933 247.025 105.809 246.512Z" fill="#FBDD55"/>
<path d="M176.94 233.92C179.84 237.49 179.66 243.18 178.85 248.52C177.14 247.9 156.53 243.99 156.53 243.99L138.52 245.61L131.52 247.65L132.67 234.45L146.69 236.49L168.48 235.68L176.94 233.92Z" fill="#475E5B"/>
<path d="M66.5202 54.84L72.0502 53.28C73.1202 52.98 74.2202 53.7 74.3602 54.81L81.0402 107.77C81.1602 108.7 80.5502 109.57 79.6402 109.78L76.3502 110.53C75.3302 110.76 74.3202 110.09 74.1402 109.06L65.2202 56.9C65.0602 55.98 65.6302 55.09 66.5202 54.84Z" fill="#FBECA9"/>
<path d="M141.49 68.22C140.42 70.07 138.18 70.47 136.96 69.77C135.74 69.07 135.62 67 136.69 65.16C137.76 63.31 139.6 62.39 140.82 63.09C142.04 63.79 142.55 66.38 141.49 68.22Z" fill="#FBECA9"/>
<path d="M141.49 80.37C140.42 82.22 138.18 82.62 136.96 81.92C135.74 81.22 135.62 79.15 136.69 77.31C137.76 75.46 139.6 74.54 140.82 75.24C142.03 75.94 142.55 78.53 141.49 80.37Z" fill="#FBECA9"/>
<path d="M141.49 95.58C140.42 97.43 138.18 97.83 136.96 97.13C135.74 96.43 135.62 94.36 136.69 92.52C137.76 90.67 139.6 89.75 140.82 90.45C142.03 91.14 142.55 93.73 141.49 95.58Z" fill="#FBECA9"/>
<path d="M142.17 109.58C141.1 111.43 138.86 111.83 137.64 111.13C136.42 110.43 136.3 108.36 137.37 106.52C138.44 104.67 140.28 103.75 141.5 104.45C142.72 105.14 143.24 107.73 142.17 109.58Z" fill="#FBECA9"/>
<path d="M124.5 64.41L127.32 112.22" stroke="#854EC9" stroke-width="3" stroke-miterlimit="10" stroke-linecap="round" stroke-linejoin="round"/>
<path opacity="0.14" d="M193.08 135.87L196.36 135.5L199.35 137.55L193.73 154.65L189.3 154.08L190.56 140.1L193.08 135.87Z" fill="white"/>
<path d="M191.18 138.07C191.18 138.07 195 139.9 198.31 138.67L192.54 154.63L190.12 154.18L189.89 144L191.18 138.07Z" fill="#BF996F"/>
<path d="M216.12 218.2L230.33 224.79L225.25 247.8L208.75 252.11L216.12 218.2Z" fill="#ABD2E2"/>
<path d="M223.93 219.89L240.9 216.74L247.8 224.11L240.36 244.4L225.25 247.8L230.33 224.79L223.93 219.89Z" fill="#537CE6"/>
<path d="M220.86 218.2L238.94 181.78L253.95 188.55L234.86 217.86L222.02 219.41L220.86 218.2Z" fill="#282E36"/>
<path d="M241.6 117.86L248.97 107.93L264.84 98.93L284.5 95.63L298.43 100L310.8 109.99L313.72 120.84L315.04 132.37L308.63 157.51L297.21 172.09L272.64 184L254.77 183.21L241.6 175.35L232.75 159.81L231.5 145.72L235.79 128.12L241.6 117.86ZM251.89 116.18L244.6 129.3L238.8 142.51L240.35 159.1L249.15 169.52L264.78 175.47L282.24 172.08L297.22 158.91L305.35 137.56L303.94 121.46L295.82 109.66L277.77 103L259.13 109.97L251.89 116.18Z" fill="#97A4B8"/>
<path d="M243.12 162.13L244.1 148.18L252.2 129.29L265.04 115.27L280.54 109.17L295.82 109.64L281.14 104.24L261.7 109.64L246.9 123.8L241.6 139.71L239.96 152.55L243.12 162.13Z" fill="#2D3A4A"/>
<path d="M241.6 175.35L254.78 183.21L266.66 185.36L283.61 180.35L299.23 169.52L311.09 150.88L314.88 135.51V114.3L321.94 128.12L320.11 148.93L311.28 168.32L294.84 184L276.83 191.51L264.4 192.43L257.19 190.72L249.91 188.02L240.36 179.42L239.14 176.3L241.6 175.35Z" fill="#4D5C73"/>
<path d="M268.46 113.11L276.66 109.64L291.15 107.93L300.54 113.11L305.82 131.8L302.05 150.45L289.03 166.81L275.89 174.53H259.42L249.15 169.52L243.12 162.13L244.89 146.35L252.2 129.29L265.04 115.27L268.46 113.11Z" fill="#ABD2E2"/>
<path d="M278.189 128.584C281.935 125.783 283.302 121.278 281.241 118.522C279.18 115.767 274.473 115.805 270.727 118.606C266.981 121.408 265.615 125.912 267.675 128.668C269.736 131.423 274.443 131.386 278.189 128.584Z" fill="white"/>
<path d="M267.372 138.941C268.447 136.343 267.771 133.597 265.862 132.808C263.954 132.018 261.535 133.483 260.46 136.081C259.385 138.678 260.061 141.424 261.969 142.214C263.878 143.004 266.297 141.538 267.372 138.941Z" fill="white"/>
<path d="M176.721 57.94C176.721 57.94 182.421 59.15 186.201 60.08C185.351 71.61 183.071 105.71 181.511 112.22" stroke="#2A3D73" stroke-width="3" stroke-miterlimit="10" stroke-linecap="round" stroke-linejoin="round"/>
<path d="M66.4102 135.46C98.5702 133.12 183.65 119.38 205.68 112.23" stroke="black" stroke-width="3" stroke-miterlimit="10" stroke-linecap="round" stroke-linejoin="round"/>
<path d="M186.19 60.08C186.19 60.08 192.61 57.84 197.48 56.79" stroke="#2A3D73" stroke-width="3" stroke-miterlimit="10" stroke-linecap="round" stroke-linejoin="round"/>
<path d="M123.65 26.25L164.45 38.93" stroke="#9E3E3E" stroke-width="3" stroke-miterlimit="10" stroke-linecap="round" stroke-linejoin="round"/>
<path d="M251.34 194.44C251.34 194.44 256.8 225.73 261.69 241.92C260.54 253.5 253.98 280.88 251.03 290.48L244.03 292.02L241.81 290.01C226.56 295.37 122.37 319.94 100.92 321.49L99.7904 323.89C99.7904 323.89 94.1404 324.74 90.4704 324.74C74.6604 312.69 39.8604 289.16 23.8304 277.68C19.7004 174.15 7.12043 98.54 2.00043 23.94C1.16043 22.5 122.49 3.63 156.14 2L181.58 8.88C197.08 44.3 215.27 96.6 231.09 136.69" stroke="black" stroke-width="4" stroke-miterlimit="10" stroke-linecap="round" stroke-linejoin="round"/>
<path d="M88.0304 39.19L64.9404 35.08" stroke="#255741" stroke-width="3" stroke-miterlimit="10" stroke-linecap="round" stroke-linejoin="round"/>
<path d="M2 23.94C2 23.94 18.56 28.08 28.73 32.22C60.01 26.28 131.38 12.59 181.58 8.88" stroke="black" stroke-width="3" stroke-miterlimit="10" stroke-linecap="round" stroke-linejoin="round"/>
<path d="M85.3506 205.59C128.311 202.2 205.111 191.4 229.391 180.11" stroke="black" stroke-width="3" stroke-miterlimit="10" stroke-linecap="round" stroke-linejoin="round"/>
<path d="M28.7305 32.22C28.7305 32.22 85.0905 235.78 90.4705 272.65C90.6305 298.27 90.4705 324.74 90.4705 324.74" stroke="black" stroke-width="3" stroke-miterlimit="10" stroke-linecap="round" stroke-linejoin="round"/>
<path d="M102.051 277.87C126.621 277.16 223.171 260.65 250.321 250.62" stroke="black" stroke-width="3" stroke-miterlimit="10" stroke-linecap="round" stroke-linejoin="round"/>
<path d="M195.931 70.57C212.191 115.82 230.751 169.96 236.301 188.01" stroke="black" stroke-width="3" stroke-miterlimit="10" stroke-linecap="round" stroke-linejoin="round"/>
<path d="M175.931 17.54C178.301 24.94 183.511 36.75 189.291 52.83" stroke="black" stroke-width="3" stroke-miterlimit="10" stroke-linecap="round" stroke-linejoin="round"/>
<path d="M100.92 321.49C100.92 321.49 102.05 286.08 102.05 269.89C96.0301 243.17 45.1401 56.82 39.8701 39.5C72.4001 33.54 159.75 19.05 175.93 17.54" stroke="black" stroke-width="4" stroke-miterlimit="10" stroke-linecap="round" stroke-linejoin="round"/>
<path d="M130.57 247.22C141.25 241.58 169.18 243.67 176.95 249.04L176.18 258.8" stroke="#75A628" stroke-width="4" stroke-miterlimit="10" stroke-linecap="round" stroke-linejoin="round"/>
<path d="M205.67 112.22V122.33C190.71 125.49 95.2705 142.29 68.7305 144.01" stroke="black" stroke-width="4" stroke-miterlimit="10" stroke-linecap="round" stroke-linejoin="round"/>
<path d="M205.67 112.22L190.96 107.07" stroke="black" stroke-width="4" stroke-miterlimit="10" stroke-linecap="round" stroke-linejoin="round"/>
<path d="M241.82 290.01C241.82 290.01 250.1 258.01 251.98 243.81C249.16 225.07 243.79 205.58 243.79 205.58" stroke="black" stroke-width="3" stroke-miterlimit="10" stroke-linecap="round" stroke-linejoin="round"/>
<path d="M90.4707 272.65L102.051 269.9" stroke="black" stroke-width="3" stroke-miterlimit="10" stroke-linecap="round" stroke-linejoin="round"/>
<path d="M240.691 243.81C207.091 255.15 123.421 268.83 102.051 269.89" stroke="black" stroke-width="4" stroke-miterlimit="10" stroke-linecap="round" stroke-linejoin="round"/>
<path d="M250.321 250.62C250.321 250.62 242.731 244.18 240.681 243.81" stroke="black" stroke-width="4" stroke-miterlimit="10" stroke-linecap="round" stroke-linejoin="round"/>
<path d="M304.494 162.736C319.842 141.496 318.267 114.148 300.976 101.652C283.684 89.1563 257.223 96.2448 241.874 117.485C226.526 138.725 228.101 166.073 245.393 178.568C262.684 191.064 289.145 183.976 304.494 162.736Z" stroke="black" stroke-width="4" stroke-miterlimit="10" stroke-linecap="round" stroke-linejoin="round"/>
<path d="M306.29 106.48C329.72 122.2 321.4 148.93 315.78 160.65C304.53 184.09 276.32 197.95 256.12 190.34" stroke="black" stroke-width="4" stroke-miterlimit="10" stroke-linecap="round" stroke-linejoin="round"/>
<path d="M297.14 157.43C309.419 140.438 308.404 118.736 294.872 108.958C281.34 99.1793 260.417 105.027 248.137 122.019C235.858 139.011 236.874 160.712 250.406 170.491C263.937 180.27 284.861 174.422 297.14 157.43Z" stroke="black" stroke-width="4" stroke-miterlimit="10" stroke-linecap="round" stroke-linejoin="round"/>
<path d="M243.83 163.23C240.41 145.61 251.53 127.95 260.29 119.26C269.59 110.04 282.75 106.73 293.72 108.3" stroke="black" stroke-width="4" stroke-miterlimit="10" stroke-linecap="round" stroke-linejoin="round"/>
<path d="M234.43 217.41L254.771 188.84C254.771 188.84 243.931 185.26 240.351 180.79C231.081 196.83 220.271 219.41 220.271 219.41" stroke="black" stroke-width="4" stroke-miterlimit="10" stroke-linecap="round" stroke-linejoin="round"/>
<path d="M233.921 163.37L240.361 180.79" stroke="black" stroke-width="4" stroke-miterlimit="10" stroke-linecap="round" stroke-linejoin="round"/>
<path d="M128.96 24.44C128.96 24.44 160.03 30.44 173.58 35.52C175.36 38.14 178.35 43.16 177.73 48.98C175.68 68.01 171.24 101.39 170.66 107.07C168.78 109.65 161.61 105.62 161.61 105.62" stroke="black" stroke-width="4" stroke-miterlimit="10" stroke-linecap="round" stroke-linejoin="round"/>
<path d="M110.43 35.61C110.43 35.61 109.68 31.57 111.65 28.27" stroke="black" stroke-width="4" stroke-miterlimit="10" stroke-linecap="round" stroke-linejoin="round"/>
<path d="M147.131 107.77C147.131 107.77 152.401 113.45 155.511 109.64C155.591 94.63 156.631 61.46 156.351 47.13C156.291 43.88 154.261 40.98 151.231 39.79C140.011 35.38 131.021 34.24 123.421 31.93C121.441 31.33 116.631 28.27 117.731 26.24" stroke="black" stroke-width="4" stroke-miterlimit="10" stroke-linecap="round" stroke-linejoin="round"/>
<path d="M165.77 103C165.77 103 170.19 63.93 171.23 49.86C171.43 47.15 169.54 41.19 164.45 38.93" stroke="black" stroke-width="3" stroke-miterlimit="10" stroke-linecap="round" stroke-linejoin="round"/>
<path d="M155.53 107.07L165.77 103" stroke="black" stroke-width="3" stroke-miterlimit="10" stroke-linecap="round" stroke-linejoin="round"/>
<path d="M113.58 44.1C113.58 44.1 138.47 49.07 147.51 52.7C147.51 62.72 146.76 117.88 146.76 117.88C139.42 121.27 131.85 122.02 131.85 122.02L114.59 107.78" stroke="black" stroke-width="4" stroke-miterlimit="10" stroke-linecap="round" stroke-linejoin="round"/>
<path d="M95.7503 117.87C95.7503 117.87 88.0303 60.08 88.0303 39.19C99.2203 35.9 106.59 35.7 112.88 36.93" stroke="#255741" stroke-width="3" stroke-miterlimit="10" stroke-linecap="round" stroke-linejoin="round"/>
<path d="M112.87 36.93C113.91 52.69 114.58 113.17 114.58 113.17L95.7402 117.88" stroke="black" stroke-width="4" stroke-miterlimit="10" stroke-linecap="round" stroke-linejoin="round"/>
<path d="M112.87 36.93L85.5703 31.57" stroke="black" stroke-width="4" stroke-miterlimit="10" stroke-linecap="round" stroke-linejoin="round"/>
<path d="M78.43 45.4L59.64 50.67L41.21 44.1" stroke="black" stroke-width="3" stroke-miterlimit="10" stroke-linecap="round" stroke-linejoin="round"/>
<path d="M50.8809 37.53L78.4309 45.4" stroke="black" stroke-width="4" stroke-miterlimit="10" stroke-linecap="round" stroke-linejoin="round"/>
<path d="M70.9006 115.74C66.5306 95.97 62.4306 68.65 59.6406 50.67" stroke="black" stroke-width="3" stroke-miterlimit="10" stroke-linecap="round" stroke-linejoin="round"/>
<path d="M78.4304 45.4L85.5704 113.2C85.5704 113.2 74.2904 117.19 70.9004 115.74" stroke="black" stroke-width="4" stroke-miterlimit="10" stroke-linecap="round" stroke-linejoin="round"/>
<path d="M70.9006 115.74L59.6406 110.65" stroke="black" stroke-width="4" stroke-miterlimit="10" stroke-linecap="round" stroke-linejoin="round"/>
<path d="M95.7503 117.87L85.5703 113.2" stroke="black" stroke-width="4" stroke-miterlimit="10" stroke-linecap="round" stroke-linejoin="round"/>
<path d="M113.341 52.69L130.191 60.08C130.191 60.08 143.931 55.47 147.511 52.69" stroke="black" stroke-width="3" stroke-miterlimit="10" stroke-linecap="round" stroke-linejoin="round"/>
<path d="M130.19 60.08C130.19 60.08 131.96 111.42 131.85 122.01" stroke="black" stroke-width="3" stroke-miterlimit="10" stroke-linecap="round" stroke-linejoin="round"/>
<path d="M100.261 46.91C100.261 46.91 104.701 46.4 106.621 46.4C107.211 53.69 108.471 100.89 108.541 107.77C106.471 109.64 102.851 109.64 102.851 109.64C101.451 79.47 100.631 59.89 100.261 46.91Z" stroke="black" stroke-width="3" stroke-miterlimit="10" stroke-linecap="round" stroke-linejoin="round"/>
<path d="M170.851 105.41L181.501 112.22C181.501 112.22 186.621 110.57 190.431 110.15C191.681 103.87 196.781 65.4 197.491 56.79C193.631 55.43 179.701 52.7 179.701 52.7" stroke="black" stroke-width="4" stroke-miterlimit="10" stroke-linecap="round" stroke-linejoin="round"/>
<path d="M189.3 145.73C183.56 142.72 173.42 141.78 167.49 150.88C162.7 158.23 166.5 181.75 178.1 184C181.65 184.69 182.62 183.9 186.76 184.36C190.6 184.78 192.96 185.52 197.34 184.57C201.72 183.63 210.76 174.71 211.13 161.81C211.51 148.92 203.13 145.06 197.2 145.81" stroke="black" stroke-width="4" stroke-miterlimit="10" stroke-linecap="round" stroke-linejoin="round"/>
<path d="M184.99 150.45C184.99 150.45 186.12 153.88 191.34 154.53C198.23 155.38 200.09 151.85 200.09 151.85" stroke="black" stroke-width="3" stroke-miterlimit="10" stroke-linecap="round" stroke-linejoin="round"/>
<path d="M189.301 154.08C189.371 148.06 189.941 137.63 192.551 136.13C195.161 134.62 199.681 136.07 198.901 138.39C198.121 140.71 194.771 146.61 193.731 154.66" stroke="black" stroke-width="3" stroke-miterlimit="10" stroke-linecap="round" stroke-linejoin="round"/>
<path d="M108.55 151.75C103.09 148.42 95.1903 143.71 88.0303 141.9" stroke="black" stroke-width="4" stroke-miterlimit="10" stroke-linecap="round" stroke-linejoin="round"/>
<path d="M69.9307 148.42L85.5607 156.64C85.5607 156.64 102.331 154.38 108.541 151.75" stroke="black" stroke-width="3" stroke-miterlimit="10" stroke-linecap="round" stroke-linejoin="round"/>
<path d="M88.0306 199C88.0306 199 84.9906 175.09 85.5706 156.65" stroke="black" stroke-width="3" stroke-miterlimit="10" stroke-linecap="round" stroke-linejoin="round"/>
<path d="M108.55 151.75C108.55 151.75 108.36 181.11 108.55 195.99C102.71 197.5 88.0303 199 88.0303 199" stroke="black" stroke-width="4" stroke-miterlimit="10" stroke-linecap="round" stroke-linejoin="round"/>
<path d="M88.03 199L82.79 196.03" stroke="black" stroke-width="4" stroke-miterlimit="10" stroke-linecap="round" stroke-linejoin="round"/>
<path d="M174.33 128.12C181.77 130.01 185.16 136.52 183.94 143.62" stroke="black" stroke-width="3" stroke-miterlimit="10" stroke-linecap="round" stroke-linejoin="round"/>
<path d="M194.65 124.46C201.82 127.09 206.17 136.36 203 146.55" stroke="black" stroke-width="4" stroke-miterlimit="10" stroke-linecap="round" stroke-linejoin="round"/>
<path d="M229.391 180.11C229.391 185.14 228.611 189.85 228.611 189.85C202.631 200.51 110.721 211.9 87.4707 213.54" stroke="black" stroke-width="4" stroke-miterlimit="10" stroke-linecap="round" stroke-linejoin="round"/>
<path d="M208.71 172.49L229.39 180.11" stroke="black" stroke-width="4" stroke-miterlimit="10" stroke-linecap="round" stroke-linejoin="round"/>
<path d="M160.051 130.6L172.291 135.87L167.491 150.88" stroke="black" stroke-width="4" stroke-miterlimit="10" stroke-linecap="round" stroke-linejoin="round"/>
<path d="M166.011 166.32L165.471 184.69L149.351 189.24L134.381 182.29" stroke="black" stroke-width="3" stroke-miterlimit="10" stroke-linecap="round" stroke-linejoin="round"/>
<path d="M120.191 161.54L117.971 137.51" stroke="black" stroke-width="3" stroke-miterlimit="10" stroke-linecap="round" stroke-linejoin="round"/>
<path d="M141.12 133.78L152.87 139.24L149.35 189.24" stroke="black" stroke-width="3" stroke-miterlimit="10" stroke-linecap="round" stroke-linejoin="round"/>
<path d="M152.87 139.24C158.09 137.12 166.63 136.3 172.28 135.87" stroke="black" stroke-width="3" stroke-miterlimit="10" stroke-linecap="round" stroke-linejoin="round"/>
<path d="M134.38 167.58C134.38 167.58 134.38 184.41 134.38 188.79C134.38 193.17 129.02 195 121.53 195C117.15 195 109.53 192.42 108.48 189.18" stroke="black" stroke-width="3" stroke-miterlimit="10" stroke-linecap="round" stroke-linejoin="round"/>
<path d="M108.551 183.3C116.171 187.96 128.311 189.09 134.391 184.43" stroke="black" stroke-width="3" stroke-miterlimit="10" stroke-linecap="round" stroke-linejoin="round"/>
<path d="M131.52 234.39C133.87 235.92 141.88 237.32 154.99 237.09C168.38 236.86 182.76 232.89 183.05 226.62C183.14 224.63 183.21 222.31 182.99 220.58C181.96 212.68 162.63 207.13 147 208.54C131.37 209.95 122.41 211.94 120.31 218.05C119.75 219.7 119.29 223.7 119.29 223.7" stroke="black" stroke-width="4" stroke-miterlimit="10" stroke-linecap="round" stroke-linejoin="round"/>
<path d="M180.131 231.86C183.821 234.22 184.491 239.19 184.211 243.42C183.931 247.66 183.081 257.67 183.081 257.67" stroke="black" stroke-width="4" stroke-miterlimit="10" stroke-linecap="round" stroke-linejoin="round"/>
<path d="M97.0205 213.54L131.851 229.45C131.851 229.45 129.961 259.46 128.501 266.9" stroke="black" stroke-width="4" stroke-miterlimit="10" stroke-linecap="round" stroke-linejoin="round"/>
<path d="M90.0605 223.27C90.0605 223.27 103.461 228.32 113.771 234.39C113.771 234.39 125.081 229.31 131.851 229.45" stroke="black" stroke-width="3" stroke-miterlimit="10" stroke-linecap="round" stroke-linejoin="round"/>
<path d="M113.77 234.39C113.77 234.39 112.38 257.15 110.96 269.14" stroke="black" stroke-width="3" stroke-miterlimit="10" stroke-linecap="round" stroke-linejoin="round"/>
<path d="M105.809 246.512C107.684 245.999 108.67 243.632 108.012 241.224C107.354 238.816 105.3 237.279 103.425 237.792C101.549 238.305 100.563 240.672 101.221 243.08C101.879 245.488 103.933 247.025 105.809 246.512Z" stroke="black" stroke-width="3" stroke-miterlimit="10" stroke-linecap="round" stroke-linejoin="round"/>
<path d="M184.271 200.61L215.671 211.52C215.671 211.52 212.021 236.11 208.711 252.34" stroke="black" stroke-width="4" stroke-miterlimit="10" stroke-linecap="round" stroke-linejoin="round"/>
<path d="M214.771 217.41C214.771 217.41 225.721 221.11 231.081 224.22C228.541 232.69 224.751 248.46 224.751 248.46" stroke="black" stroke-width="4" stroke-miterlimit="10" stroke-linecap="round" stroke-linejoin="round"/>
<path d="M212.95 228.83L231.09 224.22" stroke="black" stroke-width="3" stroke-miterlimit="10" stroke-linecap="round" stroke-linejoin="round"/>
<path d="M220.28 219.41C235.42 218.15 240.13 216.04 240.13 216.04C242.95 218.58 248.11 223.27 248.11 223.27L240.69 243.81" stroke="black" stroke-width="4" stroke-miterlimit="10" stroke-linecap="round" stroke-linejoin="round"/>
<path d="M229.771 228.83C229.771 228.83 241.681 225.99 248.101 223.27" stroke="black" stroke-width="3" stroke-miterlimit="10" stroke-linecap="round" stroke-linejoin="round"/>
<path d="M184.271 238.77L197.351 243.81L211.001 240.22" stroke="black" stroke-width="3" stroke-miterlimit="10" stroke-linecap="round" stroke-linejoin="round"/>
<path d="M184.12 244.77L196.5 250.06L209.78 246.87" stroke="black" stroke-width="3" stroke-miterlimit="10" stroke-linecap="round" stroke-linejoin="round"/>
<path d="M196.501 250.06L195.931 254.15" stroke="black" stroke-width="3" stroke-miterlimit="10" stroke-linecap="round" stroke-linejoin="round"/>
<path d="M197.351 243.81C198.621 235.37 199.501 221.96 199.981 216.74L215.681 211.52" stroke="black" stroke-width="3" stroke-miterlimit="10" stroke-linecap="round" stroke-linejoin="round"/>
<path d="M199.97 216.74C186.65 210.21 172.36 205.17 166 203.69" stroke="black" stroke-width="3" stroke-miterlimit="10" stroke-linecap="round" stroke-linejoin="round"/>
<circle cx="7.95996" cy="31.38" r="2" fill="black"/>
<circle cx="22.8506" cy="36.18" r="2" fill="black"/>
<circle cx="50.1904" cy="139.24" r="2" fill="black"/>
<circle cx="66.4102" cy="209.02" r="2" fill="black"/>
<circle cx="82.79" cy="276.31" r="2" fill="black"/>
<path d="M134.381 165.36C140.951 166.72 146.231 164.17 147.001 159.2C147.981 152.86 144.511 147.6 135.041 144.99C128.881 143.29 123.421 147.59 123.421 152.86C123.421 155.9 124.841 159.67 127.111 162.04" stroke="#613C6B" stroke-width="3" stroke-miterlimit="10" stroke-linecap="round" stroke-linejoin="round"/>
<path d="M144.91 158.4C144.65 160.09 142.78 160.91 140.51 160.32C138.58 159.82 137.28 158.06 137.28 156.35C137.28 154.64 139.05 153.25 141.04 153.8C144.1 154.65 145.23 156.35 144.91 158.4Z" stroke="black" stroke-width="2" stroke-miterlimit="10" stroke-linecap="round" stroke-linejoin="round"/>
<path d="M130.941 153.64C130.721 155.06 129.141 155.76 127.231 155.26C125.611 154.84 124.511 153.35 124.511 151.91C124.511 150.47 126.001 149.3 127.681 149.76C130.261 150.47 131.211 151.91 130.941 153.64Z" stroke="black" stroke-width="2" stroke-miterlimit="10" stroke-linecap="round" stroke-linejoin="round"/>
<path d="M108.551 164.33C113.721 161.54 133.301 160.37 134.321 166.32C135.331 172.27 125.061 173.12 120.571 173.12C116.081 173.12 109.571 171.14 108.561 169.52" stroke="black" stroke-width="3" stroke-miterlimit="10" stroke-linecap="round" stroke-linejoin="round"/>
<path d="M159.54 142.51C159.93 143.87 160.6 145.15 161.49 146.25C162.22 147.15 163.11 147.94 163.69 148.94" stroke="#613C6B" stroke-width="3" stroke-miterlimit="10" stroke-linecap="round" stroke-linejoin="round"/>
<path d="M163.61 142.44C160.8 144.45 159.38 147.85 157.03 150.39" stroke="#613C6B" stroke-width="3" stroke-miterlimit="10" stroke-linecap="round" stroke-linejoin="round"/>
<path d="M160.21 162.1C160.48 162.06 160.75 161.99 160.96 161.82C161.24 161.6 161.37 161.24 161.47 160.9C161.66 160.3 161.81 159.67 161.72 159.05C161.45 157.26 158.68 157.01 157.74 158.38C156.47 160.21 158.18 162.38 160.21 162.1Z" stroke="#613C6B" stroke-width="3" stroke-miterlimit="10" stroke-linecap="round" stroke-linejoin="round"/>
<path d="M154.171 172.44C154.241 172.6 154.441 172.63 154.621 172.63C156.911 172.68 159.211 172.66 161.501 172.55C160.971 171.46 159.381 167.67 157.971 168.42C157.661 168.58 154.231 172.59 154.171 172.44Z" stroke="#613C6B" stroke-width="3" stroke-miterlimit="10" stroke-linecap="round" stroke-linejoin="round"/>
<path d="M91.5908 161.54C91.5908 161.54 96.7208 160.76 102.621 159.35C102.901 163.73 102.621 171.35 102.621 171.35C102.621 171.35 92.4208 173.62 91.5908 173.55C91.5908 168.41 91.5908 161.54 91.5908 161.54Z" stroke="#9C7A29" stroke-width="3" stroke-miterlimit="10" stroke-linecap="round" stroke-linejoin="round"/>
<path d="M91.5908 180.62C91.5908 180.62 96.7208 179.84 102.621 178.43C102.901 182.81 102.621 190.43 102.621 190.43C102.621 190.43 92.4208 191.7 91.5908 191.63C92.1708 187.68 91.5908 180.62 91.5908 180.62Z" stroke="#9C7A29" stroke-width="3" stroke-miterlimit="10" stroke-linecap="round" stroke-linejoin="round"/>
<path d="M165.47 52.69L161.62 99.99" stroke="#9E9E9E" stroke-width="3" stroke-miterlimit="10" stroke-linecap="round" stroke-linejoin="round"/>
</g>
<defs>
<clipPath id="clip0_2374_16133">
<rect width="323.94" height="326.74" fill="white"/>
</clipPath>
</defs>
</svg>
