<svg width="222" height="278" viewBox="0 0 222 278" fill="none" xmlns="http://www.w3.org/2000/svg">
<g clip-path="url(#clip0_2163_15949)">
<path d="M48.0004 34.7699L66.0204 27.7499L87.8604 13.4599L98.6304 6.22994L117.19 2.18994L136.76 3.96994L156.5 16.3199L173.69 26.0199L194.4 31.7599L199.29 31.9399L218.07 260.85L202.12 263.81L189.93 255.53L186.56 211.37L197.01 210.41L195.77 197.16L192.38 196.4L187.86 191.25L178.26 45.8199L62.0704 52.3299L75.2504 274.17L53.9804 275.11L44.3804 264.57L34.4004 44.3299L48.0004 34.7699Z" fill="#BF996F"/>
<path d="M71.6201 198.8L187.86 191.25L195.77 197.16L197.01 210.41L73.3701 221.18L71.6201 198.8Z" fill="#BF996F"/>
<path d="M2 221.18L37 143.34L40.89 191.25L19.89 233.2H8.05L2 221.18Z" fill="#BF996F"/>
<path d="M62.0703 52.3299L178.26 45.8199L187.86 191.25L71.6203 198.8L62.0703 52.3299Z" fill="#60665B"/>
<path d="M81.8398 74.4299C82.9498 74.3199 83.4898 68.6599 84.5998 68.5599C85.7098 68.4599 87.1098 71.4999 88.2198 71.3999C89.3298 71.2999 90.3598 70.4799 91.4698 70.3899C92.5798 70.2999 93.8998 72.8099 94.9998 72.7199C96.0998 72.6299 97.2898 73.6699 98.3898 73.5799C99.4998 73.4899 99.9798 65.3599 101.09 65.2799C102.2 65.1999 103.73 70.9099 104.84 70.8299C105.95 70.7499 106.89 68.3799 108 68.2999C109.11 68.2299 110.49 72.5299 111.59 72.4599C112.69 72.3899 113.42 65.9799 114.53 65.9099C115.64 65.8499 116.9 68.5699 118.01 68.5099C119.12 68.4499 120.31 70.2099 121.42 70.1599C122.53 70.1099 123.35 63.7899 124.46 63.7399C125.57 63.6899 126.75 65.1399 127.86 65.0999C128.97 65.0599 130.06 64.2699 131.17 64.2299C132.28 64.1899 133.59 70.2599 134.7 70.2299C135.81 70.1999 136.71 62.8999 137.83 62.8699C138.94 62.8399 140.23 70.0299 141.34 70.0099C142.45 69.9899 143.41 62.0499 144.52 62.0299C145.63 62.0099 146.86 69.2099 147.97 69.1899C149.08 69.1799 150.19 69.9199 151.3 69.9099C152.41 69.8999 153.48 64.0999 154.59 64.0899C155.7 64.0799 156.82 69.4599 157.93 69.4599C159.04 69.4599 160.17 61.8999 161.28 61.8999" stroke="white" stroke-width="2" stroke-miterlimit="10" stroke-linecap="round" stroke-linejoin="round"/>
<path d="M82.4502 92.51C83.5602 92.54 84.6402 93.32 85.7502 93.33C86.8602 93.34 87.9802 94.69 89.0902 94.68C90.2002 94.66 91.2902 93.67 92.4002 93.63C93.5102 93.59 94.6202 93.65 95.7302 93.59C96.8402 93.53 98.0902 95.5 99.2002 95.42C100.31 95.34 101.47 95.44 102.58 95.33C103.69 95.22 104.46 91.82 105.56 91.7C106.67 91.57 107.92 92.75 109.02 92.61C110.12 92.47 111.35 93.14 112.45 92.98C113.55 92.81 114.56 92.07 115.66 91.88C116.76 91.69 118.12 92.85 119.21 92.64" stroke="white" stroke-width="2" stroke-miterlimit="10" stroke-linecap="round" stroke-linejoin="round"/>
<path d="M135.93 89.9C136.02 89.26 138.51 90.67 139.12 90.46C140.19 90.09 141.11 89.44 142.2 89.12C143.29 88.79 144.03 87.31 145.14 87.04C146.24 86.76 147.24 85.98 148.36 85.75C149.47 85.52 150.56 84.98 151.68 84.8C152.8 84.62 154.1 85.55 155.23 85.41C156.36 85.27 157.45 84.75 158.58 84.66C159.48 84.58 160.4 85.5 161.31 85.51C162.23 85.52 162.94 85.67 163.82 85.86C164.71 86.05 165.83 85.32 166.61 85.81C167.75 86.51 167.6 88.08 167.99 89.35C168.4 90.69 169.69 92.2 168.77 93.26C168.06 94.08 166.62 93.96 165.55 94.17C164.53 94.37 163.44 96.36 162.41 96.35C161.29 96.34 160.2 95.8 159.08 95.82C157.96 95.83 156.82 94.42 155.7 94.45C154.58 94.48 153.53 95.94 152.41 95.99C151.29 96.04 150.18 95.88 149.06 95.96C147.94 96.04 146.8 95.61 145.68 95.71C144.56 95.81 143.41 95.47 142.3 95.59C141.19 95.71 138.69 95.86 137.58 96.01C138.75 97.02 139.63 99.53 140.75 100.6C141.65 101.47 143.56 102.14 144.79 102.35C145.89 102.54 147.09 103.14 148.21 103.21C149.32 103.29 150.61 103.32 151.72 103.28C152.84 103.25 153.9 101.46 155 101.31C156.11 101.17 157.1 100.5 158.18 100.25" stroke="white" stroke-width="2" stroke-miterlimit="10" stroke-linecap="round" stroke-linejoin="round"/>
<path d="M76.5195 116.75C77.0795 117.85 77.8495 118.79 78.2495 119.95C78.6595 121.1 80.3195 121.86 80.6895 123.03C81.0595 124.2 80.4395 125.67 80.8695 126.81C81.2995 127.94 82.9295 128.41 83.5395 129.47C84.1595 130.54 84.7795 131.17 85.6195 132.03C86.4695 132.91 86.5195 135.77 87.6395 136.31C88.2395 135.44 88.0095 132.74 88.8195 132.05C89.6295 131.36 91.4295 131.99 92.3895 131.53C92.8795 131.29 91.9295 129.89 92.2295 129.43C92.5095 128.99 92.4595 129.41 92.4095 128.89C92.2895 127.68 92.4995 126.68 92.0995 125.54C91.6995 124.41 91.1895 123.42 90.6695 122.32C90.1495 121.23 90.0595 119.91 89.5695 118.82C89.2895 118.21 88.8395 116.75 89.2695 116.24C89.4895 115.98 90.3995 116.26 90.7295 116.16C91.8395 115.83 93.1795 117.01 94.3295 116.86C95.4795 116.71 96.4395 116.86 97.5995 116.88C98.7595 116.91 100.24 113.89 101.38 114.09C101.86 114.18 102.73 115.35 103.06 115.72C103.39 116.09 101.2 117.31 101.24 117.8C101.32 118.96 103 120.01 103.03 121.18C103.06 122.35 102.31 123.54 102.35 124.71C102.39 125.88 104.47 126.91 104.58 128.06C104.69 129.23 102.76 130.67 102.99 131.81C103.22 132.95 103.05 134.4 103.47 135.5" stroke="white" stroke-width="2" stroke-miterlimit="10" stroke-linecap="round" stroke-linejoin="round"/>
<path d="M115.46 118.27C116.57 118.13 117.53 116.81 118.64 116.68C119.75 116.54 120.94 117.04 122.05 116.9C123.16 116.76 124.56 119 125.67 118.86C126.78 118.72 127.57 116 128.68 115.86C129.79 115.72 130.95 116.01 132.06 115.87C133.17 115.73 134.66 118.68 135.77 118.55C136.88 118.41 137.66 115.55 138.77 115.42C139.88 115.28 141.26 117.33 142.37 117.19C143.48 117.05 144.08 112.79 145.19 112.65C146.3 112.51 147.87 116.16 148.98 116.02C150.09 115.88 150.89 113.2 152 113.06C153.11 112.92 154.2 112.65 155.31 112.51C156.42 112.37 157.76 114.1 158.87 113.96" stroke="white" stroke-width="2" stroke-miterlimit="10" stroke-linecap="round" stroke-linejoin="round"/>
<path d="M117.84 130.35C118.84 129.89 120.7 131.46 121.73 131.07C122.76 130.67 123.36 129.15 124.41 128.82C125.46 128.48 126.89 129.53 127.95 129.24C129.01 128.95 129.59 126.78 130.66 126.53C131.73 126.28 132.98 126.8 134.06 126.58C135.14 126.36 136.69 128.63 137.77 128.42C138.85 128.21 139.68 126.7 140.76 126.5C141.86 126.3 142.89 125.77 143.99 125.57C145.09 125.37 146.34 126.1 147.44 125.91C148.54 125.72 149.47 124.61 150.57 124.43C151.67 124.25 152.55 122.65 153.65 122.49C154.75 122.33 155.68 120.73 156.79 120.59C157.9 120.45 159.46 124.33 160.57 124.21C161.68 124.1 162.56 121.59 163.67 121.51" stroke="white" stroke-width="2" stroke-miterlimit="10" stroke-linecap="round" stroke-linejoin="round"/>
<path d="M139.02 135.44C140.14 135.33 141.1 133.47 142.23 133.37C143.35 133.26 144.37 132.01 145.49 131.91C146.61 131.81 147.92 133.62 149.04 133.51C150.16 133.4 151.06 130.9 152.19 130.8C153.31 130.69 154.4 130.18 155.52 130.07C156.64 129.96 157.84 130.65 158.97 130.55C160.09 130.44 161.37 131.91 162.49 131.81C163.61 131.71 164.72 131.44 165.85 131.33C166.98 131.22 167.92 129.18 169.04 129.07C170.16 128.96 171.57 131.82 172.69 131.72" stroke="white" stroke-width="2" stroke-miterlimit="10" stroke-linecap="round" stroke-linejoin="round"/>
<path d="M87.9102 148.71C89.0502 148.72 90.1502 158.79 91.2902 158.79C92.4302 158.79 93.5902 155.23 94.7302 155.23C95.8702 155.24 97.0002 157.45 98.1402 157.45C99.2802 157.46 100.45 152.07 101.59 152.07C102.73 152.08 103.84 158.56 104.99 158.56C106.13 158.57 107.29 154.71 108.43 154.72C109.57 154.73 110.74 149.39 111.88 149.4C113.05 149.41 114.19 148.88 115.36 148.88C116.53 148.88 117.67 152.38 118.84 152.36C120.01 152.34 121.31 156.35 122.48 156.3C123.65 156.25 124.61 152.56 125.77 152.47C126.93 152.38 128.27 154.02 129.43 153.87C130.49 153.73 131.61 153.8 132.67 153.62C133.73 153.44 133.82 147.86 134.88 147.67C135.94 147.48 138.28 154.73 139.34 154.55C140.4 154.37 140.72 149.3 141.79 149.16C142.76 149.04 143.9 149.87 144.87 149.79C145.84 149.71 146.63 145.9 147.61 145.84C148.59 145.78 149.75 148.46 150.73 148.42C151.71 148.38 152.99 154.95 153.96 154.9C154.97 154.85 155.52 145.22 156.53 145.17C157.54 145.12 158.54 145.38 159.55 145.32C160.56 145.26 161.91 150.89 162.92 150.82C163.93 150.75 165.09 152.63 166.1 152.56C167.11 152.49 167.64 145.98 168.65 145.91C169.66 145.83 170.7 146.34 171.71 146.25C172.72 146.16 174.63 147.14 175.64 147.05C174.9 147.23 172.72 146.14 171.98 146.32" stroke="white" stroke-width="2" stroke-miterlimit="10" stroke-linecap="round" stroke-linejoin="round"/>
<path d="M98.69 165.3C97.83 165.63 96.71 165.36 95.9 165.79C95.09 166.21 94.62 167.22 93.86 167.74C92.8 168.46 91.45 169 91.03 170.21C90.76 170.99 90.36 171.91 90.43 172.73C90.55 174.12 91.27 175.46 91.65 176.79C91.86 177.52 92.65 177.73 93.2 178.25C93.74 178.76 93.83 180.23 94.55 180.4C95.66 180.67 96.94 180.27 98.07 180.44C99.2 180.61 100.3 181.46 101.44 181.54C102.58 181.62 103.76 180.04 104.91 180.02C105.24 180.01 106.1 181.39 106.36 181.19C106.56 181.03 106.06 180.09 106.17 179.86C106.78 178.45 107.91 177.27 108.53 175.87C108.88 175.06 109.17 174.05 109.18 173.17C109.2 171.57 107.46 170.9 105.88 170.66" stroke="white" stroke-width="2" stroke-miterlimit="10" stroke-linecap="round" stroke-linejoin="round"/>
<path d="M126.97 176.84C128.03 176.74 128.98 175.48 130.03 175.38C131.09 175.28 132.13 175.04 133.18 174.93C134.23 174.82 135.14 173.34 136.19 173.23C137.24 173.12 138.16 171.91 139.22 171.78C140.28 171.65 141.72 174.81 142.77 174.68C143.82 174.55 144.76 173.48 145.81 173.34C146.86 173.2 147.95 173.36 149.01 173.22C150.06 173.08 150.95 171.76 152 171.62C153.05 171.48 154.51 174.13 155.56 173.97C156.61 173.81 157.47 172.33 158.52 172.17C159.57 172.01 160.81 173.03 161.86 172.87C162.91 172.71 163.47 169.57 164.52 169.4" stroke="white" stroke-width="2" stroke-miterlimit="10" stroke-linecap="round" stroke-linejoin="round"/>
<path d="M187.2 211.32L189.51 255.13C189.51 255.13 194.79 260.46 201.19 264.6C204.58 264.22 219.24 261.53 219.24 261.53C216.98 228.02 202.3 45.85 200.04 31.92C187.05 32.67 168.43 24.96 157.6 17.14C146.78 9.33001 140.56 0.860006 118.1 2.14001C94.4202 3.48001 80.2402 16.29 69.3202 25.32C58.4002 34.35 46.6402 33.51 42.0302 37.46L34.4102 44.33C35.5402 69.55 43.6302 246.68 44.3902 264.56L53.9902 275.1C67.3502 276.42 75.2602 274.16 75.2602 274.16C72.6102 210.26 62.0702 52.33 62.0702 52.33C62.0702 52.33 160.07 45.27 183.6 45.83C187.18 92.59 198.18 199.9 201.19 264.59" stroke="black" stroke-width="4" stroke-miterlimit="10" stroke-linecap="round" stroke-linejoin="round"/>
<path d="M72.4902 219.79C72.4902 219.79 171.95 213 197.56 210.36" stroke="black" stroke-width="4" stroke-miterlimit="10" stroke-linecap="round" stroke-linejoin="round"/>
<path d="M38.69 138.76C31.01 160.28 13.67 197.26 2 222.49C3.18 225.91 8.05 235.2 8.05 235.2L19.89 233.2C19.89 233.2 36.28 202.45 40.88 186.98" stroke="black" stroke-width="4" stroke-miterlimit="10" stroke-linecap="round" stroke-linejoin="round"/>
<path d="M8.0498 235.2C8.0498 235.2 34.6098 178.1 39.8498 164.19" stroke="black" stroke-width="3" stroke-miterlimit="10" stroke-linecap="round" stroke-linejoin="round"/>
<path d="M53.9803 275.11C51.9503 210.36 44.5603 67.96 42.0303 37.46" stroke="black" stroke-width="3" stroke-miterlimit="10" stroke-linecap="round" stroke-linejoin="round"/>
<path d="M71.6201 204.54C114.87 201.41 171.49 198.55 196.41 197.16" stroke="black" stroke-width="3" stroke-miterlimit="10" stroke-linecap="round" stroke-linejoin="round"/>
<path d="M71.6201 200.06C71.6201 200.06 169.33 193.01 189.09 192.73L194.36 196.47" stroke="black" stroke-width="3" stroke-miterlimit="10" stroke-linecap="round" stroke-linejoin="round"/>
<path d="M178.26 45.8201C178.26 45.8201 188.71 188.97 189.09 192.73" stroke="black" stroke-width="3" stroke-miterlimit="10" stroke-linecap="round" stroke-linejoin="round"/>
</g>
<defs>
<clipPath id="clip0_2163_15949">
<rect width="221.24" height="277.52" fill="white"/>
</clipPath>
</defs>
</svg>
