<svg width="287" height="368" viewBox="0 0 287 368" fill="none" xmlns="http://www.w3.org/2000/svg">
<g clip-path="url(#clip0_2212_15975)">
<path d="M3.49 128.15L31.85 144.31L40.88 152.78L93.38 178.05L117.12 195.33L135.57 202.82L129.1 246.34L125.99 256.66L113.21 324.33L109.02 365.68L95.85 361.35L96.29 342.36L87.75 347.98L85.68 339.89L76.49 329.62L75.26 345.46L56.34 331.61L31.77 318.18L6.44 300.36L6.61 213.77L2 133.81L3.49 128.15Z" fill="#BDC4C7"/>
<path d="M3.49023 128.15L42.3902 120.41L43.0702 133.41L47.6202 137.05L61.4002 141.35L84.1202 139.8L82.0102 144.6L81.1702 148.27L77.5202 151.87L119.88 178.64L139.85 191.47L155.79 183.9L176.97 177.58L189.12 177.8L197.19 179.03L205.78 182.15L213.87 178.64L221.59 179.18L229.42 173.57L238.19 171.08L253.97 170.17L264.15 172.1L269.73 172.43L279.57 179.89L239.8 184.47L197.8 190.82L135.57 202.82L116.77 193.33L91.0302 176.92L40.8802 152.78L31.8502 144.31L3.49023 128.15Z" fill="#DEE5E8"/>
<path d="M135.57 202.82L204.51 189.65L256.58 182.53L285.02 180.8L266.48 235.22L260.18 258.92L241.58 316.18L236.5 333.75L202.04 348.44L178.64 355.6L164.37 357.77L172.77 348.3L169.81 346.19L154.84 350.38L154.77 338.01L148.66 344.99L140.29 361.35L135.57 357.58L129.92 360.65L127.1 356.24L118.84 364.53L109.02 365.68L109.4 353.77L117.12 304.69L126.15 252.93L130.3 243.89L135.57 202.82Z" fill="#CFD6D9"/>
<path d="M86.4896 115.85L144.6 112.01L171.42 108.17L189.12 120.04L173.24 120.41L159.26 122.97L149.21 128.52L136.58 127.29L119.02 130.14L98.1096 134.22L86.0996 141.02L86.4896 115.85Z" fill="#DEE5E8"/>
<path d="M68.8703 94.09L66.3903 103.23L71.5003 102.74L73.6003 95L78.1403 96.31L82.6803 98.66L80.8103 105.65L85.7803 112.94L86.8303 121.35L86.1003 139.7L79.8503 141.75L61.4003 141.35L49.2803 138.38L43.0703 133.41L43.3203 121.24L45.3103 109.4L50.3303 103.58L49.2803 97.91L53.9703 95L62.5303 93.63L68.8703 94.09Z" fill="#865A94"/>
<path d="M66.3896 103.34L73.0596 81.38L83.8896 57.59L100.88 36.65L121.2 18.69L135.12 11.12L128.59 29.29L122.27 36.2L107.98 44.11L116.7 44.79L117.16 46.56L101.57 61.88L85.0097 75.06L79.6996 77.93L74.8997 89.31L70.9296 102.9L68.2297 104.19L66.3896 103.34Z" fill="#F5F5F5"/>
<path d="M60.3501 120.41L74.3501 121.55L86.8301 121.35L86.1001 132.6L70.6701 133.81L59.0801 131.7L60.3501 120.41Z" fill="#E3E3E3"/>
<path d="M98.1099 134.22L124.95 128.15L144.6 127.98L152.6 130.48L190.19 156.43L205 170.17L212.55 176.5L213.87 178.64L210.99 179.89L200.9 174.82L185.17 172.82L164.55 174.95L144.08 183.84L141.59 185.73L81.1699 148.27L83.3799 143.29L92.4999 137.4L98.1099 134.22Z" fill="#E3E1CF"/>
<path d="M78.5795 150.1L83.2395 149.62L141.59 185.73L157.21 177.63L174.05 170.98L194.11 171.61L209.59 178.39L210.99 179.89L205.78 182.15L185.02 177.21L165.4 180.21L139.85 191.47L94.4195 162.76L77.5195 151.87L78.5795 150.1Z" fill="#D15F5B"/>
<path d="M216.98 178.16L220.79 171.37L232.84 165.14L248.84 164.17L264.08 167.8L266.44 169.4V173.82L258.81 171.37L240.65 170.94L228.98 173.82L219.19 179.23L216.98 178.16Z" fill="#D15F5B"/>
<path d="M213.87 178.64L195.9 160.32L149.21 128.52L164.55 121.26L193.17 120.41L212.65 125.93L238.81 143.75L264.92 165.73L263.1 167.56L240.5 164.14L227.52 166.81L218.95 173.49L216.3 179.23L213.87 178.64Z" fill="#E3E1CF"/>
<path d="M75.3298 351C75.3298 345.54 74.7698 332.93 76.8398 328.79C80.9798 331.61 87.5698 344.41 89.0798 348.37" stroke="black" stroke-width="4" stroke-miterlimit="10" stroke-linecap="round" stroke-linejoin="round"/>
<path d="M87.75 352.31C89.07 348.36 92.83 342.15 95.84 341.2C98.85 348.16 97.16 357.95 95.84 361.34" stroke="black" stroke-width="4" stroke-miterlimit="10" stroke-linecap="round" stroke-linejoin="round"/>
<path d="M135.38 203.98C137.45 201.53 138.96 202.1 138.96 202.1C138.96 202.1 158.54 199.46 167.2 197.02C175.86 194.57 208.8 188.74 216.14 187.8C223.48 186.86 240.42 184.04 246.63 183.85C252.84 183.66 277.12 180.46 284.09 180.84" stroke="#EBF3F7" stroke-width="3" stroke-miterlimit="10" stroke-linecap="round" stroke-linejoin="round"/>
<path d="M108.37 365.68C108.46 358.53 113.17 322.39 114.68 315.61C116.19 308.83 119.01 297.73 119.01 297.73C119.76 288.88 123.53 271 123.53 271C123.53 271 125.6 257.07 126.92 252.93C129.93 249.35 129.74 244.08 129.74 244.08C129.74 244.08 134.63 210.95 135.39 203.99" stroke="#7C8082" stroke-width="4" stroke-miterlimit="10" stroke-linecap="round" stroke-linejoin="round"/>
<path d="M96.29 360L108.37 365.68" stroke="black" stroke-width="4" stroke-miterlimit="10" stroke-linecap="round" stroke-linejoin="round"/>
<path d="M2.2998 127.29C11.5198 134.15 26.8398 140.72 31.8498 143.33C36.8598 145.94 40.2498 151.17 44.4098 153.71C48.5698 156.25 93.5398 178.05 98.8998 180.81C104.26 183.57 114.99 191.76 117.39 193.88C123.6 197.41 132.46 200.22 136.57 202.84" stroke="#EBF3F7" stroke-width="3" stroke-miterlimit="10" stroke-linecap="round" stroke-linejoin="round"/>
<path d="M159.66 361.35C160.6 359.66 170.58 352.31 173.59 347.04C169.64 344.22 156.46 349.11 153.26 351.28" stroke="black" stroke-width="4" stroke-miterlimit="10" stroke-linecap="round" stroke-linejoin="round"/>
<path d="M108.37 365.68C108.37 365.68 114.96 364.93 118.44 365.68C120.04 360.41 123.8 357.49 126.72 355.23C128.04 358.81 129.73 362.76 129.92 365.68" stroke="black" stroke-width="4" stroke-miterlimit="10" stroke-linecap="round" stroke-linejoin="round"/>
<path d="M129.1 361.8C131.99 357.11 136.22 357.58 136.22 357.58C136.98 359.97 139.89 362.76 139.89 362.76C140.83 358.43 147.61 343.84 154.76 338.01C158.34 345.16 153.25 351.28 151.18 355.33" stroke="black" stroke-width="4" stroke-miterlimit="10" stroke-linecap="round" stroke-linejoin="round"/>
<path d="M87.4697 115.8C98.4797 115.8 117.4 113.26 129.54 112.69C141.68 112.12 160.32 108.3 169.92 108.17C173.87 110.65 185.07 114.89 189.5 118.93" stroke="black" stroke-width="4" stroke-miterlimit="10" stroke-linecap="round" stroke-linejoin="round"/>
<path d="M268.51 171.56C272.75 174.67 279.38 178.67 284.09 180.83" stroke="black" stroke-width="4" stroke-miterlimit="10" stroke-linecap="round" stroke-linejoin="round"/>
<path d="M51.5198 104.88C48.9298 102.81 48.3798 98.71 50.9798 96.34C53.8698 93.7 62.0598 93.07 68.8798 94.09" stroke="black" stroke-width="3" stroke-miterlimit="10" stroke-linecap="round" stroke-linejoin="round"/>
<path d="M74.3398 94.69C79.5598 94.74 82.6798 97.4 82.6798 101.1C82.6798 103.27 81.0699 105.67 77.8699 106.43" stroke="black" stroke-width="3" stroke-miterlimit="10" stroke-linecap="round" stroke-linejoin="round"/>
<path d="M66.3896 103.34C74.3396 72.32 82.4797 59.48 92.0497 47.13C105.86 29.3 128.34 9.54001 143.66 1.51001C126.08 20.48 122.19 34.79 122.19 34.79C122.19 34.79 111.35 42.78 106.16 44.96C112.36 45.29 118.89 44.63 118.89 44.63C111.02 53.84 89.8996 74.72 80.3496 78.4" stroke="black" stroke-width="3" stroke-miterlimit="10" stroke-linecap="round" stroke-linejoin="round"/>
<path d="M87.4803 62.4C86.0103 65.21 81.8003 73.02 78.2503 81.99C75.1503 89.83 72.6403 98.77 71.5303 103.34" stroke="black" stroke-width="3" stroke-miterlimit="10" stroke-linecap="round" stroke-linejoin="round"/>
<path d="M55.4297 100.27C56.9297 101.46 62.5897 103.58 68.0997 103.59C72.4197 103.59 75.8297 102.32 77.4497 100.72" stroke="black" stroke-width="3" stroke-miterlimit="10" stroke-linecap="round" stroke-linejoin="round"/>
<path d="M50.8101 104.19C46.6301 106.43 44.3701 111.78 43.9001 115.62C43.4301 119.46 42.6101 127.76 43.0801 133.41C45.1301 136.97 54.5401 140.6 64.1101 141.39C73.3101 142.15 84.2501 141.96 86.1601 137.81C86.9101 131.97 86.7201 124.54 86.7201 118.52C86.7201 112.5 83.3801 107.12 80.3401 105.34" stroke="black" stroke-width="3" stroke-miterlimit="10" stroke-linecap="round" stroke-linejoin="round"/>
<path d="M86.8301 120.41C82.4001 121.92 69.4401 122.29 60.3701 119.56C60.3701 123.61 59.0801 131.7 59.0801 131.7C63.4101 134.43 81.0901 134.67 86.6401 131.49" stroke="black" stroke-width="3" stroke-miterlimit="10" stroke-linecap="round" stroke-linejoin="round"/>
<path d="M212.55 176.5C203.33 164.64 158.62 133.45 149.21 128.51C135.66 126.63 128.41 128.12 115.24 130.94C102.06 133.76 91.7999 134.8 82.0199 144.59C82.0199 144.59 81.1699 147.08 81.1699 148.26C91.0999 154.85 131.66 179.23 141.59 185.72C148.74 179.32 166.81 171.67 176.79 170.54C186.77 169.41 204.46 173.86 210.3 178.95" stroke="black" stroke-width="3" stroke-miterlimit="10" stroke-linecap="round" stroke-linejoin="round"/>
<path d="M86.9404 146.89C92.0204 150.7 108.5 159.7 111.89 161.96C115.28 164.22 137.44 177.77 140.69 179.89" stroke="black" stroke-width="3" stroke-miterlimit="10" stroke-linecap="round" stroke-linejoin="round"/>
<path d="M82.0795 148.87C82.0795 148.87 77.5895 149.68 77.5195 151.87C82.5295 155.75 132.93 186.39 139.85 191.47C145.5 188.79 165.83 177.78 178.53 177.49C191.23 177.2 200.27 179.04 205.78 182.15C208.6 180.8 215.8 177.21 221.59 179.19C225.97 173.83 234.58 170.95 243.24 170.58C251.9 170.2 260.33 170.52 267.43 173.12C267.43 171.25 266.58 169.54 265.74 168.13" stroke="black" stroke-width="3" stroke-miterlimit="10" stroke-linecap="round" stroke-linejoin="round"/>
<path d="M149.21 128.52C153.4 125.26 157.78 122.86 164.27 121.73C170.76 120.6 180.7 118.98 193.16 120.41C201.35 121.35 208.31 123.61 208.31 123.61C225.82 132.07 263.04 163.66 267.42 168.03C259.66 167.18 241.63 162.24 234.29 164.92C226.95 167.6 219.75 169.58 216.81 178.64" stroke="black" stroke-width="3" stroke-miterlimit="10" stroke-linecap="round" stroke-linejoin="round"/>
<path d="M108.51 147.33C109.31 146.48 111.8 145.31 113.45 145.12" stroke="black" stroke-width="3" stroke-miterlimit="10" stroke-linecap="round" stroke-linejoin="round"/>
<path d="M119.57 142.76C119.57 142.76 121.59 141.3 122.39 141.35" stroke="black" stroke-width="3" stroke-miterlimit="10" stroke-linecap="round" stroke-linejoin="round"/>
<path d="M128.55 141.02C128.55 141.02 131.23 138.71 134.29 138.76C138.57 137.4 143.23 137.72 144.88 138.01C146.86 137.76 150.57 136.32 152.08 136.74" stroke="black" stroke-width="3" stroke-miterlimit="10" stroke-linecap="round" stroke-linejoin="round"/>
<path d="M119.02 154.06C120.43 153.64 122.38 152.58 122.38 152.58L124.94 151.52" stroke="black" stroke-width="3" stroke-miterlimit="10" stroke-linecap="round" stroke-linejoin="round"/>
<path d="M129.33 149.47L130.32 149.77" stroke="black" stroke-width="3" stroke-miterlimit="10" stroke-linecap="round" stroke-linejoin="round"/>
<path d="M135.12 147.7L137.94 147.33L141.4 145.11L153.12 144.03L155.45 143.4L160.74 143.96" stroke="black" stroke-width="3" stroke-miterlimit="10" stroke-linecap="round" stroke-linejoin="round"/>
<path d="M131.24 160.31L133.97 158.34H136.58" stroke="black" stroke-width="3" stroke-miterlimit="10" stroke-linecap="round" stroke-linejoin="round"/>
<path d="M142.44 155.33L144.79 154.06L153.82 151.51L158.53 149.77H165.4" stroke="black" stroke-width="3" stroke-miterlimit="10" stroke-linecap="round" stroke-linejoin="round"/>
<path d="M169.07 147.33L170.67 147.7" stroke="black" stroke-width="3" stroke-miterlimit="10" stroke-linecap="round" stroke-linejoin="round"/>
<path d="M139.05 164.08L141.21 163.39" stroke="black" stroke-width="3" stroke-miterlimit="10" stroke-linecap="round" stroke-linejoin="round"/>
<path d="M149.21 159.33L152.08 158.34L158.44 156.17L176.32 153.54L178.48 154.06" stroke="black" stroke-width="3" stroke-miterlimit="10" stroke-linecap="round" stroke-linejoin="round"/>
<path d="M144.6 169.35H146.86L149.21 167C149.21 167 162.58 163.33 164.55 164.08" stroke="black" stroke-width="3" stroke-miterlimit="10" stroke-linecap="round" stroke-linejoin="round"/>
<path d="M171.52 162.76L174.34 160.78C174.34 160.78 182.06 159.74 186.1 160.78" stroke="black" stroke-width="3" stroke-miterlimit="10" stroke-linecap="round" stroke-linejoin="round"/>
<path d="M172.47 130.48L173.87 129.07" stroke="black" stroke-width="3" stroke-miterlimit="10" stroke-linecap="round" stroke-linejoin="round"/>
<path d="M179.94 129.07L181.56 128.15C181.56 128.15 197.72 127.51 199.91 128.15C201.89 127.37 204.99 128.47 204.99 128.47" stroke="black" stroke-width="3" stroke-miterlimit="10" stroke-linecap="round" stroke-linejoin="round"/>
<path d="M179.94 137.4L180.51 136.27" stroke="black" stroke-width="3" stroke-miterlimit="10" stroke-linecap="round" stroke-linejoin="round"/>
<path d="M184.46 135.35L186.22 134.22C186.22 134.22 194.55 132.46 197.8 132.95" stroke="black" stroke-width="3" stroke-miterlimit="10" stroke-linecap="round" stroke-linejoin="round"/>
<path d="M186.22 134.22C186.22 134.22 194.54 132.51 197.8 132.95C199.14 132.67 212.46 131.55 215.56 132.36" stroke="black" stroke-width="3" stroke-miterlimit="10" stroke-linecap="round" stroke-linejoin="round"/>
<path d="M186.72 143.11L188.77 143.75L189.12 142.83" stroke="black" stroke-width="3" stroke-miterlimit="10" stroke-linecap="round" stroke-linejoin="round"/>
<path d="M194.06 141.35L195.82 140.29L211.42 138.74L215.52 138.17L225.12 139.44" stroke="black" stroke-width="3" stroke-miterlimit="10" stroke-linecap="round" stroke-linejoin="round"/>
<path d="M198.79 153.21L200.06 152.86" stroke="black" stroke-width="3" stroke-miterlimit="10" stroke-linecap="round" stroke-linejoin="round"/>
<path d="M204.51 148.87L206.2 147.7L220.11 144.46L229.42 145.02" stroke="black" stroke-width="3" stroke-miterlimit="10" stroke-linecap="round" stroke-linejoin="round"/>
<path d="M205.92 160.32L207.47 161.54" stroke="black" stroke-width="3" stroke-miterlimit="10" stroke-linecap="round" stroke-linejoin="round"/>
<path d="M211.85 159.33H212.55" stroke="black" stroke-width="3" stroke-miterlimit="10" stroke-linecap="round" stroke-linejoin="round"/>
<path d="M216.3 157.09L216.58 155.89C216.58 155.89 223.78 151.73 226.67 151.44C229.56 151.16 238.25 150.73 239.8 151.44" stroke="black" stroke-width="3" stroke-miterlimit="10" stroke-linecap="round" stroke-linejoin="round"/>
<path d="M215.729 165.14C215.729 165.14 227.529 159.12 231.679 158.43C237.119 157.65 247.069 157.79 248.549 158.43" stroke="black" stroke-width="3" stroke-miterlimit="10" stroke-linecap="round" stroke-linejoin="round"/>
<path d="M42.39 120.41C34.67 121.54 8.12998 126.64 2.29998 127.29C0.789975 136.34 5.49998 177.07 6.05998 186.11C6.61998 195.15 7.56998 290.96 6.43998 300.37C14.35 307.9 32.23 318.63 38.06 321.83C43.9 325.03 67.99 336.51 75.33 345.55" stroke="black" stroke-width="4" stroke-miterlimit="10" stroke-linecap="round" stroke-linejoin="round"/>
<path d="M284.08 180.83C282.2 190.99 274.29 211.14 273.16 215.09C268.27 226.95 263.56 245.21 261.87 254.81C256.22 267.99 248.13 293.4 246.43 299.23C244.74 305.07 237.77 328.97 237.21 333.3C230.25 337.82 220.65 341.02 211.99 344.97C203.33 348.92 185.26 352.31 180.18 355.13C171.33 357.95 164.37 357.77 164.37 357.77" stroke="black" stroke-width="4" stroke-miterlimit="10" stroke-linecap="round" stroke-linejoin="round"/>
</g>
<defs>
<clipPath id="clip0_2212_15975">
<rect width="286.08" height="367.68" fill="white"/>
</clipPath>
</defs>
</svg>
