<svg width="650" height="251" viewBox="0 0 650 251" fill="none" xmlns="http://www.w3.org/2000/svg">
<g clip-path="url(#clip0_2212_15844)">
<path d="M566.37 157.49L581.86 164.91L608.97 167.17L633.15 165.78L624.5 172.7L597.11 175.2L583.02 170.81L572.54 163.32L566.37 157.49Z" fill="#DEB887"/>
<path d="M147.22 39.3699L193.96 27.9699L241.03 19.7699L312.87 11.7199L374.89 9.63989L433.49 12.9599L474.1 19.1099L501.55 26.0999L510.99 34.4999L526.85 63.2799L541.14 108.48L553.65 146.76L537.41 128.66L513.2 105.26L493.26 91.2199L468.85 78.7399L441.59 69.5199L419.82 66.0999L387.13 66.5199L338.4 74.2099L312.87 80.6899L288.68 92.0299L262.17 110.31L241.03 132.93L223.41 156.77L206.8 176.95V167.47L193.97 168.23L181.24 158.94L170.7 146.08L164.07 127.78L158.93 96.2399L153.44 60.9499L144.14 40.4099L147.22 39.3699Z" fill="#537CE6"/>
<path d="M158.71 201.4L183.44 200.89L194.38 198.34L205.23 176.95L214.89 168.6L228.89 149.35L256.31 114.76L284.54 93.3L307.88 81.2L338.4 74.21L383.36 66.52L429.11 66.1L463.15 76.81L499.69 94.62L530.69 121.53L551.12 143.94L572.54 163.32L583.02 170.81L603.22 175.1L624.5 172.7L645.94 161.82L647.25 187.42L645.39 205.86L622.33 213.04L582.84 214.18L560.07 208.81L547.66 206.05L527.57 195.29L520.49 188.55L504.11 173.87L482.94 149.11L463.55 131.98L448.59 121.53L430.05 113.82L404.26 113.72L388.26 117.11L361.34 124.17L339.03 133.4L320.62 145.99L294.07 169.56L277.29 186.1L261.02 209.5L241.7 229.89L227.53 239.8L208.96 246.62L192.49 248.88H167.74L145.05 243.89L128.21 237.09L125.59 235.84L121.01 219.81L117.94 194.98L130.36 195.69L141.48 199.7L150.8 201.96L158.71 201.4Z" fill="#DEB887"/>
<path d="M102.09 11.89L124.64 19.79L142.24 36.39L152.68 56.12L160.96 110.62L166.75 138.48L174.61 154.1L196.07 167.8L206.8 167.47L203.03 185.58L194.38 198.34L165.95 201.91L143.36 200.41L122.28 191.94L113.27 178.77L104.4 151.28L99.35 115.41L92.18 86.08L79.53 60.1L69.6 52.28L61.18 47.65L51.82 47.86L39.35 54.6L34.42 63.45L32.7 79.18L36.86 106.59L38.93 130.02L38.33 151.47L34.75 170.1L26.33 182.19L20.82 187.42L10.44 182.41L2 171.98L13.86 161.82L17.22 152.61L18.54 133.41L16.54 106.9L12.35 75.98L11.94 61.36L16.57 45.62L31.5 27.92L51.97 17.12L76.16 10.61L102.09 11.89Z" fill="#DEB887"/>
<path d="M497.81 23.6499L505.13 3.88994L519.46 2.18994L546.42 4.43994L564.8 14.7599L576.49 39.3699L586.66 66.0999L589.48 92.3599L597.01 110.21L609.58 127L621.67 133.96L640.3 135.65L633.15 167.11H603.22L585.72 165.78L566.37 157.49L552.18 142.26L541.94 106.67L530.36 72.3999L518.7 47.3699L505.9 28.3599L497.81 23.6499Z" fill="#DEB887"/>
<path d="M69.6001 52.2799L62.6101 64.0899L58.0101 81.8099V100.27L61.1801 137.54L60.4801 164.98L55.1401 180.62L46.8001 185.58L22.3301 187.42L30.1601 176.95L37.5801 159L39.2701 139.42L37.5501 114.38L31.9801 74.3599L35.3201 59.6099L45.4801 49.8599L55.4601 47.7799L64.3801 49.4099L69.6001 52.2799Z" fill="#B8905C"/>
<path d="M57.0305 179.01L117.94 194.98L118.33 211.98L123.75 229.41L98.4705 223.47L67.2005 215.83L35.1305 204.83L31.9805 186.01L43.5105 184.97L53.4505 182.34L57.0305 179.01Z" fill="#C79760"/>
<path d="M60.6699 135.37L83.5299 136.14L102.03 134.44L107.04 164.83L73.5099 167.8L60.6699 167.85V135.37Z" fill="#C79760"/>
<path d="M69.6004 52.2799L77.8604 58.7899L87.2204 75.9099L99.3504 115.41L102.03 134.44L82.0804 136.33L61.1804 137.54L59.1904 114.2L57.6904 93.2999L60.0304 71.8199L64.6804 59.9799L69.6004 52.2799Z" fill="#303E63"/>
<path d="M190.33 103.89L183.7 104.89L177.57 110.2L179.84 126.48L183.13 136.88L196.77 137.18L205.28 134.76L209.01 127.7L206.14 115.75L229.1 62.5299L204.29 65.4499L190.33 103.89Z" fill="#E0C9AF"/>
<path d="M494.96 92.5699L493.62 83.5099L497.01 80.6199L504.36 79.2799L513.48 41.3499L534.06 40.8899L522.66 74.8099L518.38 92.8799L517.96 100.65L516.21 105.11L512.78 105.87L494.96 92.5699Z" fill="#E0C9AF"/>
<path d="M194.38 167.47C184.97 161.45 176.46 157.99 170.1 144.88C160.5 125.12 158.99 95.56 157.49 80.88C155.99 66.2 148.45 33.44 125.49 20.27C95.55 3.08999 57.35 11.39 35.38 25.25C20.89 34.39 8.46 51.45 12.36 75.99C15 92.55 21.58 138.48 17.07 153.17C12.54 167.84 2 171.98 2 171.98C10.28 186.66 20.82 187.42 20.82 187.42C32.87 187.42 46.42 185.16 53.2 182.53C59.6 177.82 61.67 162.77 61.29 148.08C60.71 125.3 56.96 104.22 57.34 89.92C57.72 75.62 62.61 59.43 70.14 51.71C83.51 58.2 93.48 85.4 98 107.98C102.52 130.57 103.27 155.79 111.93 175.93C120.59 196.07 138.78 199.67 152.78 202.28C167.65 203.41 188.17 200.96 194.38 198.33C201.16 191.18 206.8 175.55 206.8 167.46C199.27 167.46 174.24 169.72 162.38 173.11C162.38 184.03 158.24 194.76 150.96 201.94" stroke="black" stroke-width="4" stroke-miterlimit="10" stroke-linecap="round" stroke-linejoin="round"/>
<path d="M31.9805 27.57C56.4005 16.69 80.8905 24.05 96.3105 34.1C111.18 43.79 126.52 74.48 129.91 99.89C133.3 125.3 134.43 167.56 162.38 173.11" stroke="black" stroke-width="3" stroke-miterlimit="10" stroke-linecap="round" stroke-linejoin="round"/>
<path d="M70.1403 51.7C59.4103 46.81 52.6303 46.81 46.8003 49.25C35.1303 54.14 30.2803 68.45 33.6203 86.52C35.6403 97.45 41.0203 127.08 38.3303 151.46C36.5703 167.38 30.4903 179.98 20.8203 187.41" stroke="black" stroke-width="3" stroke-miterlimit="10" stroke-linecap="round" stroke-linejoin="round"/>
<path d="M131.89 196.43C123.29 194.29 118.05 194.05 118.05 194.05C117.06 208.17 122.99 227.56 125.11 235.6C133.72 239.84 154.19 248.68 166.76 248.26C160.69 239.37 156.6 223.12 157.3 202.52" stroke="black" stroke-width="4" stroke-miterlimit="10" stroke-linecap="round" stroke-linejoin="round"/>
<path d="M645.39 160.5C649.72 169.35 646.9 193.06 645.39 205.86C640.5 210.19 614.14 218.1 574.24 212.83C528.45 206.78 508.35 178.64 497.06 164.45C483.88 147.89 459.41 125.3 432.68 113.81C404.44 110.42 375.08 117.76 348.73 128.3C322.38 138.84 278.33 182.89 267.79 199.83C257.25 216.77 238.43 235.22 225.25 240.87C212.07 246.52 201.16 247.65 166.76 248.26" stroke="black" stroke-width="4" stroke-miterlimit="10" stroke-linecap="round" stroke-linejoin="round"/>
<path d="M205.23 176.95C215.74 172.17 234.04 137.53 255.69 116.26C272.42 99.82 293.05 88.49 312.87 80.68C331.18 73.47 385.33 66.83 395.05 66.4C415.28 65.51 434.02 66.19 454.05 73.06C483.7 83.22 508.54 98.47 529.44 120.21C550.33 141.95 554.57 149.01 563.32 156.35" stroke="black" stroke-width="4" stroke-miterlimit="10" stroke-linecap="round" stroke-linejoin="round"/>
<path d="M563.32 156.36C578.28 171.04 588.73 174.83 605.86 175.18C626.19 175.6 639.46 166.52 645.39 160.5" stroke="black" stroke-width="4" stroke-miterlimit="10" stroke-linecap="round" stroke-linejoin="round"/>
<path d="M432.68 113.82C461.95 116.83 484.26 125.58 506 147.61C527.74 169.63 545.06 205.21 574.24 212.83" stroke="black" stroke-width="4" stroke-miterlimit="10" stroke-linecap="round" stroke-linejoin="round"/>
<path d="M164.07 202.53C182.14 208.31 205.86 207.46 221.95 192.78C238.04 178.1 265.15 135.09 291.97 113.82C318.79 92.55 355.22 69.86 400.96 66.1" stroke="black" stroke-width="4" stroke-miterlimit="10" stroke-linecap="round" stroke-linejoin="round"/>
<path d="M144.14 39.3699C144.14 39.3699 343.79 -16.1901 497.81 24.5799" stroke="black" stroke-width="4" stroke-miterlimit="10" stroke-linecap="round" stroke-linejoin="round"/>
<path d="M526.55 62.5499C531 73.2699 534.49 84.2499 536.71 92.5699C542.61 114.76 550.52 140.74 556.73 147.14C562.94 153.54 572.35 161.84 587.41 165.78C589.86 152.41 589.48 133.96 589.48 133.96C606.8 133.77 630.52 132.27 640.3 134.52C638.61 148.83 637.24 159.22 633.15 165.77C621.48 168.77 587.41 165.77 587.41 165.77" stroke="black" stroke-width="4" stroke-miterlimit="10" stroke-linecap="round" stroke-linejoin="round"/>
<path d="M622.33 133.3C598.05 127.85 589.86 94.53 587.04 75.05C584.22 55.57 572.36 21.65 563.32 13.18C551.21 1.81997 530.35 1.18997 509.76 2.47997C500.72 3.03997 498.84 20.07 497.81 24.59" stroke="black" stroke-width="4" stroke-miterlimit="10" stroke-linecap="round" stroke-linejoin="round"/>
<path d="M507.49 3.00999C518.99 -2.10001 534.26 17.6 543.27 29.3C559 49.72 563.22 86.4 565.01 95.92C567.83 110.9 572.45 131.88 589.48 133.95" stroke="black" stroke-width="3" stroke-miterlimit="10" stroke-linecap="round" stroke-linejoin="round"/>
<path d="M193.94 137.9C196.18 147.84 198.09 157.94 199.3 167.81" stroke="black" stroke-width="3" stroke-miterlimit="10" stroke-linecap="round" stroke-linejoin="round"/>
<path d="M148.2 38.2899C170.28 41.7199 179.09 81.0099 183.13 95.9299C183.92 98.8599 184.75 101.88 185.58 104.97" stroke="black" stroke-width="3" stroke-miterlimit="10" stroke-linecap="round" stroke-linejoin="round"/>
<path d="M213.09 99.88C218.57 116.86 224.08 136.64 226.18 152.93" stroke="black" stroke-width="3" stroke-miterlimit="10" stroke-linecap="round" stroke-linejoin="round"/>
<path d="M200.78 65.1799C201.29 66.4899 201.92 68.1399 202.65 70.0799" stroke="black" stroke-width="3" stroke-miterlimit="10" stroke-linecap="round" stroke-linejoin="round"/>
<path d="M231.43 62.53C238.24 74.29 249.11 105.89 250.64 121.53" stroke="black" stroke-width="3" stroke-miterlimit="10" stroke-linecap="round" stroke-linejoin="round"/>
<path d="M257.82 59.35C263.65 70.33 270.95 96.04 271.35 103.05" stroke="black" stroke-width="3" stroke-miterlimit="10" stroke-linecap="round" stroke-linejoin="round"/>
<path d="M282.52 56.75C286.61 65.07 291.87 81.86 293.29 89.56" stroke="black" stroke-width="3" stroke-miterlimit="10" stroke-linecap="round" stroke-linejoin="round"/>
<path d="M305.11 54.47C309.39 62.62 312.4 75.23 312.87 80.69" stroke="black" stroke-width="3" stroke-miterlimit="10" stroke-linecap="round" stroke-linejoin="round"/>
<path d="M325.76 52.61C329.57 58.39 333.32 66.79 333.87 75.11" stroke="black" stroke-width="3" stroke-miterlimit="10" stroke-linecap="round" stroke-linejoin="round"/>
<path d="M510.35 53.43C505.15 41.91 498.46 29.74 491.16 24.59" stroke="black" stroke-width="3" stroke-miterlimit="10" stroke-linecap="round" stroke-linejoin="round"/>
<path d="M529.43 120.22C526.52 109.34 524.59 94.5999 520.36 79.7999" stroke="black" stroke-width="3" stroke-miterlimit="10" stroke-linecap="round" stroke-linejoin="round"/>
<path d="M346.65 51.27C349.58 56.45 353.08 65.87 353.71 71.58" stroke="black" stroke-width="3" stroke-miterlimit="10" stroke-linecap="round" stroke-linejoin="round"/>
<path d="M364.59 49.39C367.4 54.36 370.76 63.39 371.36 68.86" stroke="black" stroke-width="3" stroke-miterlimit="10" stroke-linecap="round" stroke-linejoin="round"/>
<path d="M381 46.1899C383.93 51.3799 387.44 60.8099 388.07 66.5199" stroke="black" stroke-width="3" stroke-miterlimit="10" stroke-linecap="round" stroke-linejoin="round"/>
<path d="M397.95 46.1899C402.36 50.1899 406.15 58.9199 406.78 64.6299" stroke="black" stroke-width="3" stroke-miterlimit="10" stroke-linecap="round" stroke-linejoin="round"/>
<path d="M414.42 45.39C421.01 49.4 424.6 58.93 425.22 64.64" stroke="black" stroke-width="3" stroke-miterlimit="10" stroke-linecap="round" stroke-linejoin="round"/>
<path d="M477.19 42.3099C484.41 47.2899 493.53 58.2999 500.26 80.0299" stroke="black" stroke-width="3" stroke-miterlimit="10" stroke-linecap="round" stroke-linejoin="round"/>
<path d="M456.02 44.0399C464.87 51.2699 475.77 70.2399 477.19 82.5199" stroke="black" stroke-width="3" stroke-miterlimit="10" stroke-linecap="round" stroke-linejoin="round"/>
<path d="M436.61 43.96C443.81 48.74 447.99 59.57 450.66 71.96" stroke="black" stroke-width="3" stroke-miterlimit="10" stroke-linecap="round" stroke-linejoin="round"/>
<path d="M41.2695 185.58C71.1695 195.89 100.26 201.03 118.33 204.39" stroke="black" stroke-width="3" stroke-miterlimit="10" stroke-linecap="round" stroke-linejoin="round"/>
<path d="M56.4004 178.77C70.6104 184.31 104.2 191.67 118.04 194.05" stroke="black" stroke-width="4" stroke-miterlimit="10" stroke-linecap="round" stroke-linejoin="round"/>
<path d="M31.9805 186.41C31.9805 186.41 32.2205 195.1 35.8905 204.39C56.4105 213.68 103.12 227.35 123.43 229.41" stroke="black" stroke-width="4" stroke-miterlimit="10" stroke-linecap="round" stroke-linejoin="round"/>
<path d="M57.6904 84.49C69.9504 86.53 92.1804 86.09 92.1804 86.09" stroke="black" stroke-width="3" stroke-miterlimit="10" stroke-linecap="round" stroke-linejoin="round"/>
<path d="M57.6904 114.01C57.6904 114.01 85.0604 114.86 97.1804 114.01" stroke="black" stroke-width="3" stroke-miterlimit="10" stroke-linecap="round" stroke-linejoin="round"/>
<path d="M61.04 142.75C74.15 142.88 93.83 142.41 103.12 140.98" stroke="black" stroke-width="3" stroke-miterlimit="10" stroke-linecap="round" stroke-linejoin="round"/>
<path d="M59.3896 74.36C59.3896 74.36 75.8596 75.09 87.6396 74.36" stroke="black" stroke-width="3" stroke-miterlimit="10" stroke-linecap="round" stroke-linejoin="round"/>
<path d="M57.9102 104.32C57.9102 104.32 88.9702 105.65 96.5902 104.32" stroke="black" stroke-width="3" stroke-miterlimit="10" stroke-linecap="round" stroke-linejoin="round"/>
<path d="M61.1797 135.98C71.4597 136.78 95.3997 136.19 102.16 134.42" stroke="black" stroke-width="3" stroke-miterlimit="10" stroke-linecap="round" stroke-linejoin="round"/>
<path d="M60.0303 167.8C77.7603 169.16 107.04 164.83 107.04 164.83" stroke="black" stroke-width="4" stroke-miterlimit="10" stroke-linecap="round" stroke-linejoin="round"/>
<path d="M229.1 63.2899L203.03 122.85H190.99L188.92 110.62L203.98 66.1499" stroke="black" stroke-width="4" stroke-miterlimit="10" stroke-linecap="round" stroke-linejoin="round"/>
<path d="M190.99 122.85L212.35 65.1799" stroke="black" stroke-width="3" stroke-miterlimit="10" stroke-linecap="round" stroke-linejoin="round"/>
<path d="M191.2 103.89L183.13 104.97C183.13 104.97 183.84 124.03 186.38 130.1C193.75 132.36 208.97 128.26 208.97 128.26L206.95 116.21" stroke="black" stroke-width="3" stroke-miterlimit="10" stroke-linecap="round" stroke-linejoin="round"/>
<path d="M208.96 128.27L206 134.48C206 134.48 192.02 140.27 183.13 136.88C179.32 127.56 177.2 114.72 177.62 109.35L183.13 104.97" stroke="black" stroke-width="3" stroke-miterlimit="10" stroke-linecap="round" stroke-linejoin="round"/>
<path d="M186.38 130.1L183.13 136.88" stroke="black" stroke-width="3" stroke-miterlimit="10" stroke-linecap="round" stroke-linejoin="round"/>
<path d="M534.23 40.4L515.12 94.59H505.13L503.42 84.45L513.2 40.68" stroke="black" stroke-width="4" stroke-miterlimit="10" stroke-linecap="round" stroke-linejoin="round"/>
<path d="M505.13 94.5899L519.43 40.7" stroke="black" stroke-width="3" stroke-miterlimit="10" stroke-linecap="round" stroke-linejoin="round"/>
<path d="M508.52 102.22C514.25 102.31 518.42 99.68 518.42 99.68L518.34 86.13" stroke="black" stroke-width="3" stroke-miterlimit="10" stroke-linecap="round" stroke-linejoin="round"/>
<path d="M504.36 79.7999L497.6 80.6199C497.6 80.6199 498.26 90.8899 500.36 95.9299" stroke="black" stroke-width="3" stroke-miterlimit="10" stroke-linecap="round" stroke-linejoin="round"/>
<path d="M494.96 92.57C494.57 89.94 493.7 87.84 494.05 83.4L497.6 80.63" stroke="black" stroke-width="3" stroke-miterlimit="10" stroke-linecap="round" stroke-linejoin="round"/>
<path d="M518.42 99.6799L515.96 104.83C515.96 104.83 514.68 105.12 513.06 105.45" stroke="black" stroke-width="3" stroke-miterlimit="10" stroke-linecap="round" stroke-linejoin="round"/>
<path d="M454.05 73.0699C483.7 83.2299 508.54 98.4799 529.44 120.22C550.33 141.96 554.57 149.02 563.32 156.36" stroke="black" stroke-width="4" stroke-miterlimit="10" stroke-linecap="round" stroke-linejoin="round"/>
</g>
<defs>
<clipPath id="clip0_2212_15844">
<rect width="649.69" height="250.28" fill="white"/>
</clipPath>
</defs>
</svg>
