<svg width="424" height="127" viewBox="0 0 424 127" fill="none" xmlns="http://www.w3.org/2000/svg">
<g clip-path="url(#clip0_2212_15912)">
<path d="M2.50977 28.53L29.9798 21.47L36.4498 77.66L40.5398 124.93L17.6698 118.17L13.0498 84.29L2.50977 28.53Z" fill="#CFD6D9"/>
<path d="M29.9795 21.47L132.199 10.33L249.049 4.71L380.909 2.01L415.079 2L420.509 32.48L421.349 71.3L419.019 99.26L370.469 97.93L266.29 103.04L170.799 110.9L40.5395 124.93L40.6795 109.54L30.7995 28.67L29.9795 21.47Z" fill="#CFD6D9"/>
<path d="M72.02 35.02H79.65L94.8 40.24L97.6 43.83L98.81 49.4L95.46 53.5H85.42L81.62 51.96L72.02 53.5L68.7 59.52V75.67L73.23 86.59L81.82 91.6L90.15 89.83L91.51 84.15L92.5 79L83.76 79.35L78.09 76.53L76.68 70.17L81.48 65.09L93.34 62.27L101.97 66.32L105.99 75.55V91.74L100.61 101.62L89.94 107.02L72.54 107.52L58.71 99.59L52.85 90.61L47.46 73.31L50.04 56.44L58.39 42.01L66.22 36.95L72.02 35.02Z" fill="#FFC13B"/>
<path d="M117.81 48.76L127.93 45.01L138.09 46.32L140.21 51.82L137.11 57.61L130.27 63.46L129.01 67.77L132.38 92.29L131.03 98.83L127.65 101.62L118.9 99.6L114.24 92.2L112.13 81.33V65.66L112.54 55.68L115.08 50.27L117.81 48.76Z" fill="#FFC13B"/>
<path d="M147.59 49.11L151.91 46.5L158.05 47.58L162.1 60.61L164.56 90.5L161.58 97.08L154.11 96.74L151.33 93.36L147.76 68.79L147.59 49.11Z" fill="#FFC13B"/>
<path d="M192.989 41.8001L190.509 28.6701L194.699 24.0601L200.629 26.1301L205.539 32.9301L209.869 55.9101L212.489 73.9901L211.569 83.0301L204.439 92.2101L185.799 94.1901L176.649 87.6701L171.869 80.6101L169.439 60.4401L175.809 47.9201L184.259 41.6701L192.989 41.8001ZM190.509 55.9101L186.379 60.4301L183.699 65.3701L186.659 75.1101L190.509 78.5301L196.399 78.2201L197.389 68.0601L196.119 57.7501L193.299 56.2001L190.509 55.9101Z" fill="#FFC13B"/>
<path d="M147.59 24.3501L142.95 28.3501L142.35 35.0201L146.68 38.3601L157.43 35.0201L159.27 29.8001L157.14 27.2601L149.95 24.0601L147.59 24.3501Z" fill="#FFC13B"/>
<path d="M235.08 27.26L241.4 31.21L246.03 80.06L242.99 86.83H237.1L232.81 81.76L229.65 57.56L228.96 30.7L235.08 27.26Z" fill="#FFC13B"/>
<path d="M266.99 33.25L277.54 37.05L279.59 43.06L276.94 45.58H268.63L265.86 45.98L264.96 50.13L275.07 53.28L284.46 62.69L285.24 70.46L283.03 78.36L273.59 82.95L262.99 83.45L255.79 81.83L253.27 74.61L255.55 72.06L267.8 70.28L270.05 65.94L268.68 63.46L256.87 60.01L253.27 54.74L250.35 47.12L254.52 38.65L259.06 34.5L266.19 33.37L266.99 33.25Z" fill="#FFC13B"/>
<path d="M285.76 26.41L286.04 50.4L288.49 74.98L291.19 80.01L297.25 81.56L301.12 76.2L299.1 41.11L296.96 24.43L292.3 21.9L287.19 22.94L285.76 26.41Z" fill="#FFC13B"/>
<path d="M311.18 33.25L319.27 31.96L329.81 36.85L337.06 46.36L337.55 58.34L336.12 75.25L326.52 82.64L314.57 82.12L308.65 76.07L306.33 68.39L309.11 55.4L319.37 49.38L323.04 48.91L324.45 46.65L320.78 43.64L313.78 45.33L310.81 44.77L305.63 40.16L307.27 36.77L311.18 33.25ZM319.83 61.61L318.18 65.37L321.58 69.17L324.91 67.26L324.44 60.01L322.56 61.05L319.83 61.61Z" fill="#FFC13B"/>
<path d="M341.76 37.42L353.72 33.25L366.16 36.43L371.22 46.17L372.63 55.87L371.6 72.32L368.39 77.95L360.59 75.13L359.08 70.46L359.18 58.32L359.55 47.4L357.2 47.1L355.25 49L351.83 64.59L351.65 75.65L348.72 79.1H344.31L341.76 77.89L339.18 76.49L338.27 63.46L341.76 37.42Z" fill="#FFC13B"/>
<path d="M395.79 37.42V19.63L404.63 17.14L408.76 19.23L410.89 27.73L413.11 69.95L406.24 81.28L395.22 83.16L384.65 78.53L377.26 66.6L379.92 46.76L387.48 39.53L395.79 37.42ZM396.35 52.32L391.01 57.31L392.02 62.18L393.68 66.51L398.65 67.24L399.48 57.32L396.35 52.32Z" fill="#FFC13B"/>
<path d="M49.0101 78.79C45.1201 60.85 53.3801 40.6 67.3601 36.58C76.6801 33.9 91.3601 33.9 97.1501 43.07C99.6201 46.99 99.2901 50.32 97.3601 52.21C95.3901 54.14 91.7701 54.78 89.9501 54.29C86.6101 53.4 82.8401 50.27 77.6201 51.35C74.9801 51.9 71.4801 53.28 69.5001 57.43C67.9001 60.8 67.1501 65.86 68.3501 73.7C71.0301 91.21 80.9101 92.48 86.7001 91.49C92.4901 90.5 93.7601 83.58 92.3501 78.36C86.1401 80.76 78.3501 81.28 76.2601 74.9C74.5001 69.54 77.4701 64.99 83.1101 63.64C88.7601 62.29 95.0401 62.65 99.6201 64.6C105.76 67.21 107.74 80.91 106.47 89.24C105.2 97.57 101.11 105.76 85.4301 107.88C69.7501 110 54.5201 104.2 49.0101 78.79Z" stroke="black" stroke-width="4" stroke-miterlimit="10" stroke-linecap="round" stroke-linejoin="round"/>
<path d="M112.26 57.6101C112.47 50.4601 121.58 44.4801 132.02 45.0501C142.46 45.6201 141.62 57.1901 136.68 58.7401C131.74 60.2901 128.49 64.5301 128.92 68.6201C129.34 72.7101 132.03 87.1101 132.59 94.4601C133.15 101.8 119.6 105.75 115.93 95.0201C112.26 84.2901 111.84 72.1501 112.26 57.6101Z" stroke="black" stroke-width="4" stroke-miterlimit="10" stroke-linecap="round" stroke-linejoin="round"/>
<path d="M146.85 50.88C147.93 45.47 157.58 44.57 159.98 49.84C162.41 55.18 164.87 88.18 164.53 92.4C164.31 95.17 162.66 97.31 159.41 97.67C156.33 98.02 152.32 96.89 151.33 93.35C149.75 87.72 145.82 56.02 146.85 50.88Z" stroke="black" stroke-width="4" stroke-miterlimit="10" stroke-linecap="round" stroke-linejoin="round"/>
<path d="M228.33 32.5401C229.41 26.2701 239.06 25.2301 241.46 31.3401C243.89 37.5301 246.35 75.7601 246.01 80.6601C245.79 83.8701 244.14 86.3401 240.89 86.7701C237.81 87.1701 233.8 85.8701 232.81 81.7601C231.23 75.2201 227.3 38.4901 228.33 32.5401Z" stroke="black" stroke-width="4" stroke-miterlimit="10" stroke-linecap="round" stroke-linejoin="round"/>
<path d="M284.62 27.0501C285.63 20.7801 294.62 19.7401 296.85 25.8501C299.12 32.0401 301.41 70.2701 301.09 75.1701C300.88 78.3801 298.77 80.8701 295.73 81.1401C290.88 81.5601 288.66 78.0801 288.36 73.8801C287.45 61.1401 283.66 33.0101 284.62 27.0501Z" stroke="black" stroke-width="4" stroke-miterlimit="10" stroke-linecap="round" stroke-linejoin="round"/>
<path d="M142.42 32.34C141.84 28.03 144.87 23.96 149.95 24.06C155.03 24.15 158.07 26.22 158.04 31.21C158.02 34.9 154.93 38.36 150.42 38.36C145.91 38.36 142.89 35.82 142.42 32.34Z" stroke="black" stroke-width="4" stroke-miterlimit="10" stroke-linecap="round" stroke-linejoin="round"/>
<path d="M195.32 42.6C190.52 39.87 178.1 42.79 174.14 50.32C170.19 57.85 168.68 64.69 169.81 73.32C170.94 81.95 177.48 95.17 194.92 93.4C211.08 91.76 212.01 80.06 211.47 70.46C210.72 56.91 206.29 34.51 204.6 29.52C203.81 27.18 200.92 24 197.11 24.06C193.73 24.11 191.16 26.32 190.98 30.04C190.84 32.91 192.39 40.02 193 41.81" stroke="black" stroke-width="4" stroke-miterlimit="10" stroke-linecap="round" stroke-linejoin="round"/>
<path d="M195.41 56.3401C191.16 54.7401 183.65 57.3801 184.3 68.2001C184.96 79.0201 194.94 79.4001 197.19 77.8901C198.99 74.6901 197.76 58.9701 195.41 56.3401Z" stroke="black" stroke-width="4" stroke-miterlimit="10" stroke-linecap="round" stroke-linejoin="round"/>
<path d="M250.39 46.6901C251.1 38.6901 257.05 33.6501 264.58 33.2801C272.11 32.9001 277.19 36.1001 279.07 38.6401C280.01 39.9101 280.21 42.4101 279.09 44.0001C277.98 45.5901 275.55 46.2701 273.54 45.7601C268.91 44.5901 266.48 44.3801 265.42 46.6601C264.68 48.2401 265.56 50.6001 267.68 50.9501C269.8 51.3001 278.39 53.6501 281.6 57.6501C284.22 60.9101 286.13 64.9401 284.79 72.2901C283.45 79.6401 274.88 83.3701 269.09 83.8701C263.3 84.3601 257.8 83.4501 255.47 81.6101C254.43 80.7901 252.69 78.4401 252.89 76.1701C253.14 73.3801 255.32 71.2701 258.25 70.7701C260.33 70.4201 262.69 71.3001 264.99 71.0901C267.72 70.8301 269.35 69.4201 269.74 68.0501C270.47 65.5201 269.71 63.9901 267.6 62.6901C263.84 60.3701 259.7 62.0001 255.32 58.1701C251.39 54.7201 250.09 50.1101 250.39 46.6901Z" stroke="black" stroke-width="4" stroke-miterlimit="10" stroke-linecap="round" stroke-linejoin="round"/>
<path d="M324.54 49.8501C324.73 47.9301 324.06 44.0301 321.05 44.0301C318.03 44.0301 313.14 46.1601 310.49 45.1901C308.91 44.6101 306.83 42.9501 306.57 40.4201C306.15 36.3001 309.22 33.9601 312.37 33.3301C317.93 32.2301 327.51 30.6201 333.6 39.7701C338.46 47.0701 338.46 66.9501 335.78 73.7001C333.1 80.4501 327.07 82.9801 319.53 82.6101C312.66 82.2701 306.19 76.2501 306.33 67.5001C306.47 58.7501 309.63 53.8301 313.64 51.5501C317.49 49.3401 321.49 48.6201 324.54 49.8501Z" stroke="black" stroke-width="4" stroke-miterlimit="10" stroke-linecap="round" stroke-linejoin="round"/>
<path d="M325.01 60.63C325.1 62.3 325.26 65.86 325.01 68.3C322.33 69.89 318.45 69.5 318.2 65.69C317.95 61.87 321.87 59.74 325.01 60.63Z" stroke="black" stroke-width="4" stroke-miterlimit="10" stroke-linecap="round" stroke-linejoin="round"/>
<path d="M339.97 40.62C338.84 49.23 337.71 67.73 338.56 74.64C338.98 78.1 342.73 79.54 345.59 79.68C349.12 79.86 351.27 77.53 351.7 75.41C352.55 71.17 353.04 54.09 353.46 50.14C353.67 48.16 354.91 47.09 356.51 47.05C358.11 47 360.07 47.98 360.07 50.24C360.07 54.76 358.76 69.91 359.89 73.44C361.02 76.97 363.14 78.38 366.67 78.24C370.2 78.1 371.33 75.84 371.61 72.31C371.89 68.78 373.25 47.53 370.83 42.45C367.44 35.32 362.57 33.72 355.47 33.77C350.13 33.81 342.37 36.11 339.97 40.62Z" stroke="black" stroke-width="4" stroke-miterlimit="10" stroke-linecap="round" stroke-linejoin="round"/>
<path d="M397.33 38.2301C389.83 36.5301 376.18 41.5801 377.32 60.7701C378.46 79.9601 389.91 82.7801 399.09 82.6701C408.27 82.5501 412.72 73.9101 413.11 69.9501C413.5 65.9901 412.08 25.9701 409.34 20.1401C407.19 15.5701 398.16 16.4101 396.21 20.2401C394.26 24.0701 395.17 32.9501 396.04 38.0101" stroke="black" stroke-width="4" stroke-miterlimit="10" stroke-linecap="round" stroke-linejoin="round"/>
<path d="M400.45 51.7001C397.52 50.3101 390.49 53.5601 390.54 60.2501C390.59 66.5601 397.47 68.4801 401.04 66.4801" stroke="black" stroke-width="4" stroke-miterlimit="10" stroke-linecap="round" stroke-linejoin="round"/>
<path d="M398.65 52.3201C399.24 55.4801 399.89 61.0201 399.15 66.1101" stroke="black" stroke-width="4" stroke-miterlimit="10" stroke-linecap="round" stroke-linejoin="round"/>
<path d="M29.9805 20.8601C29.9805 20.8601 40.6405 101.78 42.0205 124.93C72.7005 121.18 158.27 111.12 240.17 104.91C323.07 98.6101 402.23 96.1901 419.02 99.2601C422.15 65.6601 422.93 34.3101 416.29 2.24005C335.93 0.620052 100.89 7.19005 29.9805 20.8601Z" stroke="black" stroke-width="4" stroke-miterlimit="10" stroke-linecap="round" stroke-linejoin="round"/>
<path d="M29.98 20.8601L2 28.6701C2 28.6701 16.68 99.2601 18.66 117.89C26.1 119.96 33.66 121.61 42.02 124.93" stroke="black" stroke-width="4" stroke-miterlimit="10" stroke-linecap="round" stroke-linejoin="round"/>
</g>
<defs>
<clipPath id="clip0_2212_15912">
<rect width="423.35" height="126.93" fill="white"/>
</clipPath>
</defs>
</svg>
