<svg width="1439" height="105" viewBox="0 0 1439 105" fill="none" xmlns="http://www.w3.org/2000/svg">
<path d="M1440 1.19333L1437.35 0.62L1434.68 0.48L1432.03 0.84L1429.39 1.13333L1426.76 1.48L1424.11 1.7L1421.48 2.05333L1418.97 3.06667L1416.28 3.12667L1413.56 3.18667L1411.19 4.67333L1408.53 5.01333L1406.18 6.36L1403.29 6.09333L1400.99 7.56667L1398.38 8.19333L1396.31 10.1467L1393.84 11.0867L1391.35 11.9933L1388.65 12.5467L1386.51 14.2L1384.06 15.26L1381.66 16.44L1379.83 18.52L1377.79 20.2267L1375.18 21.1267L1373.07 22.7467L1370.78 24.1267L1369.33 26.5533L1367 27.9067L1365.03 29.6867L1363.17 31.5733L1361.06 33.2133L1359.47 35.4467L1357.38 37.1667L1355.23 38.8067L1353.13 40.5133L1350.75 41.82L1348.35 43.0533L1346.01 44.4L1343.36 45.06L1341.21 46.9067L1338.53 47.44L1335.75 47.5L1333.24 48.4333L1330.63 49.02L1328.07 49.96L1325.41 50.4933L1322.69 50.3533L1320 50.0667L1317.33 49.9267L1314.62 50.18L1311.91 50.12L1309.29 49.4667L1306.59 49.1733L1303.93 48.6133L1301.67 46.82L1299.2 45.84L1296.68 44.96L1293.86 44.6533L1291.85 42.7L1289.58 41.2867L1286.78 40.6533L1284.89 38.6467L1282.53 37.2867L1281.19 34.7333L1278.95 33.2L1276.92 31.4867L1275.27 29.3533L1272.66 28.2933L1270.74 26.4667L1268.68 24.8067L1266.83 22.88L1265.07 20.7667L1262.37 20L1260.11 18.62L1257.91 17.1333L1255.61 15.8333L1253.31 14.5133L1251.02 13.18L1248.69 11.9133L1246.61 10.0867L1244.05 9.28667L1241.45 8.6L1239.21 7.04L1236.63 6.31333L1233.89 6.15333L1231.41 5.18667L1228.73 4.92L1226.27 3.87333L1223.63 3.52667L1221.01 3.15333L1218.43 2.57333L1215.93 1.37333L1213.25 1.36L1210.61 1.09333L1208 0.353333L1205.29 1.26667L1202.65 1.06667L1200 0.0933333L1197.33 0.0466667L1194.67 0.166667L1192.07 1.26667L1189.4 1.20667L1186.71 1.01333L1184.15 1.91333L1181.57 2.62L1178.95 2.94L1176.23 2.87333L1173.65 3.54L1171.21 4.74667L1168.55 5.04667L1166.09 6.06667L1163.63 7.06667L1160.79 7.02L1158.36 8.14L1155.89 9.14L1153.41 10.1467L1151.29 11.8733L1148.71 12.66L1146.83 14.7733L1144.34 15.74L1141.92 16.8667L1140.03 18.8267L1137.52 19.8333L1134.99 20.8533L1133.36 23.12L1131.38 24.8867L1129.34 26.5667L1127.33 28.28L1124.65 29.2667L1123.1 31.5L1121.19 33.34L1118.98 34.9133L1116.91 36.6133L1115.15 38.7067L1112.95 40.2667L1110.81 41.9067L1108.32 42.9933L1105.66 43.6867L1103.71 45.8467L1100.87 46.04L1098.7 47.94L1095.92 48.1L1093.41 49.18L1090.62 48.9333L1088.06 49.9133L1085.4 50.4133L1082.71 50.7267L1080 50.5667L1077.33 49.9867L1074.57 50.6867L1071.99 49.5667L1069.25 49.6733L1066.8 48.2533L1063.99 48.4067L1061.55 47.2L1058.87 46.7L1056.4 45.6067L1053.8 44.7667L1051.56 43.2133L1049.19 41.9133L1047.24 39.98L1045.09 38.3933L1043.19 36.4867L1041.14 34.78L1039.16 32.9933L1037.09 31.3067L1035 29.6467L1033.24 27.6333L1030.69 26.54L1028.64 24.86L1026.95 22.72L1024.45 21.64L1022.27 20.14L1020.2 18.4667L1017.99 17L1015.62 15.8067L1013.28 14.5667L1010.99 13.24L1008.48 12.3467L1006.21 10.96L1004.15 9.05333L1001.49 8.51333L998.94 7.76L996.647 6.26667L994.087 5.51333L991.26 5.70667L988.96 4.08L986.36 3.50667L983.753 2.98L981.153 2.41333L978.553 1.84667L975.813 2.21333L973.307 0.906667L970.56 1.60667L967.913 1.52667L965.3 0.966667L962.667 0.1L960 1.18667V1.01333L957.333 0.113333L954.68 0.526667L952.087 1.56L949.387 1.06L946.68 0.78L944.12 1.73333L941.513 2.23333L938.96 3.01333L936.253 3L933.66 3.60667L930.993 3.90667L928.627 5.32667L926.14 6.24667L923.653 7.15333L921.113 7.90667L918.367 8.16L915.833 9.01333L913.84 11.08L911.333 11.9667L909.153 13.52L906.787 14.6933L903.987 15.1267L901.667 16.4533L899.333 17.7467L897.133 19.26L895.627 21.7467L893.42 23.2067L890.687 24.0133L888.66 25.7467L886.66 27.5133L884.713 29.3333L882.807 31.1933L881.22 33.3733L879.253 35.2133L877.06 36.7867L874.893 38.3667L872.767 39.9933L870.647 41.6533L868.08 42.5733L866.067 44.5133L863.533 45.4467L861.147 46.7333L858.547 47.4867L855.873 47.9467L853.407 49.16L850.68 49.2667L848.127 50.3933L845.407 50.4733L842.667 49.7733L840 50.2133L837.293 50.72L834.587 50.5333L832.04 49.2L829.193 49.9467L826.52 49.4533L823.987 48.44L821.407 47.6133L819.173 45.92L816.373 45.6667L814.167 44.0333L811.56 43.22L809.147 41.9867L807.227 40L804.873 38.6733L802.647 37.14L801.193 34.7267L798.52 33.6333L797.327 31.0533L795.073 29.5733L792.6 28.36L791.007 26.1533L788.78 24.68L786.74 22.9933L784.893 21.0133L782.493 19.8067L780.22 18.4467L778.4 16.3333L775.533 15.96L773.693 13.8067L770.827 13.5533L768.927 11.4267L766.293 10.7733L763.933 9.54667L761.527 8.42L758.893 7.87333L756.293 7.29333L753.787 6.46667L751.38 5.28667L748.813 4.64L746.393 3.36667L743.633 3.52667L741.093 2.72L738.547 1.89333L735.913 1.50667L733.213 1.69333L730.593 1.28667L727.973 0.68L725.333 0.166667L722.667 0.113333L720 0.426667L717.327 0.02L714.693 0.846667L712.027 0.68L709.413 1.32667L706.8 1.77333L704.08 1.44L701.52 2.3L698.913 2.78667L696.307 3.27333L693.707 3.78667L690.993 3.92L688.727 5.66L686.173 6.35333L683.333 6.22667L681.047 7.72L678.607 8.76667L676.113 9.67333L673.673 10.7067L671.133 11.5533L668.847 12.9333L666.433 14.0533L664.293 15.66L662.053 17.08L659.38 17.82L657.527 19.84L655.113 21.0267L652.993 22.6333L651.367 24.8733L649.233 26.44L647.133 28.0533L644.967 29.6067L643.167 31.5733L641.413 33.5667L638.993 34.9267L637.18 36.9267L634.747 38.1733L632.973 40.2867L630.307 41.1133L628.207 42.8L626.027 44.4267L623.58 45.5667L620.873 46.04L618.307 46.7667L615.92 48.1067L613.26 48.5267L610.707 49.4333L608.133 50.4333L605.413 50.5467L602.68 50.1133L600 50.22L597.307 50.36L594.627 50.14L591.94 49.8933L589.313 49.3267L586.607 49.0867L584.2 47.6667L581.673 46.82L578.927 46.54L576.587 45.18L574.06 44.2533L571.353 43.58L569.013 42.2067L567.327 39.8533L564.747 38.8333L562.827 36.92L560.773 35.1867L559.107 33.0533L557.193 31.1933L555.22 29.4067L552.867 28.0533L550.653 26.5733L549.307 24.02L547.06 22.56L544.34 21.7933L542.713 19.4867L540.627 17.8067L538.347 16.42L535.84 15.42L533.633 13.9267L531.267 12.7L528.527 12.2467L526.227 10.92L523.88 9.67333L521.28 9.04667L518.853 7.98L516.327 7.19333L514.153 5.32L511.527 4.79333L508.88 4.37333L506.253 3.94L503.773 2.9L501.173 2.32L498.527 1.99333L495.8 2.31333L493.28 1.1L490.6 1.18667L487.92 1.48667L485.327 0.366667L482.673 0L480 1.19333L477.347 0.62L474.68 0.48L472.033 0.84L469.393 1.13333L466.76 1.48L464.113 1.7L461.48 2.05333L458.967 3.06667L456.28 3.12667L453.56 3.18667L451.193 4.67333L448.533 5.01333L446.18 6.36L443.287 6.09333L440.987 7.56667L438.38 8.19333L436.313 10.1467L433.84 11.0867L431.347 11.9933L428.647 12.5467L426.513 14.2L424.06 15.26L421.66 16.44L419.827 18.52L417.787 20.2267L415.18 21.1267L413.073 22.7467L410.78 24.1267L409.327 26.5533L407 27.9067L405.033 29.6867L403.167 31.5733L401.06 33.2133L399.467 35.4467L397.38 37.1667L395.227 38.8067L393.127 40.5133L390.747 41.82L388.347 43.0533L386.013 44.4L383.36 45.06L381.213 46.9067L378.527 47.44L375.753 47.5L373.24 48.4333L370.633 49.02L368.067 49.96L365.407 50.4933L362.693 50.3533L360 50.0667L357.327 49.9267L354.62 50.18L351.913 50.12L349.287 49.4667L346.587 49.1733L343.933 48.6133L341.673 46.82L339.2 45.84L336.68 44.96L333.86 44.6533L331.847 42.7L329.58 41.2867L326.78 40.6533L324.893 38.6467L322.527 37.2867L321.187 34.7333L318.953 33.2L316.92 31.4867L315.267 29.3533L312.66 28.2933L310.74 26.4667L308.68 24.8067L306.827 22.88L305.073 20.7667L302.367 20L300.107 18.62L297.913 17.1333L295.607 15.8333L293.307 14.5133L291.02 13.18L288.693 11.9133L286.607 10.0867L284.047 9.28667L281.453 8.6L279.207 7.04L276.633 6.31333L273.887 6.15333L271.413 5.18667L268.733 4.92L266.273 3.87333L263.633 3.52667L261.013 3.15333L258.433 2.57333L255.933 1.37333L253.253 1.36L250.607 1.09333L248 0.353333L245.287 1.26667L242.647 1.06667L240 0.0933333L237.333 0.0466667L234.667 0.166667L232.067 1.26667L229.4 1.20667L226.707 1.01333L224.147 1.91333L221.573 2.62L218.947 2.94L216.227 2.87333L213.647 3.54L211.213 4.74667L208.547 5.04667L206.087 6.06667L203.627 7.06667L200.787 7.02L198.36 8.14L195.887 9.14L193.413 10.1467L191.287 11.8733L188.707 12.66L186.833 14.7733L184.34 15.74L181.92 16.8667L180.027 18.8267L177.52 19.8333L174.987 20.8533L173.36 23.12L171.38 24.8867L169.34 26.5667L167.327 28.28L164.653 29.2667L163.1 31.5L161.187 33.34L158.98 34.9133L156.913 36.6133L155.153 38.7067L152.953 40.2667L150.807 41.9067L148.32 42.9933L145.66 43.6867L143.707 45.8467L140.873 46.04L138.7 47.94L135.92 48.1L133.413 49.18L130.62 48.9333L128.06 49.9133L125.4 50.4133L122.707 50.7267L120 50.5667L117.327 49.9867L114.573 50.6867L111.987 49.5667L109.247 49.6733L106.8 48.2533L103.993 48.4067L101.547 47.2L98.8667 46.7L96.4 45.6067L93.8 44.7667L91.56 43.2133L89.1933 41.9133L87.24 39.98L85.0867 38.3933L83.1933 36.4867L81.14 34.78L79.16 32.9933L77.0867 31.3067L75 29.6467L73.24 27.6333L70.6867 26.54L68.64 24.86L66.9467 22.72L64.4467 21.64L62.2733 20.14L60.2 18.4667L57.9933 17L55.62 15.8067L53.28 14.5667L50.9867 13.24L48.48 12.3467L46.2133 10.96L44.1467 9.05333L41.4933 8.51333L38.94 7.76L36.6467 6.26667L34.0867 5.51333L31.26 5.70667L28.96 4.08L26.36 3.50667L23.7533 2.98L21.1533 2.41333L18.5533 1.84667L15.8133 2.21333L13.3067 0.906667L10.56 1.60667L7.91333 1.52667L5.3 0.966667L2.66667 0.1L0 1.18667V54.1933L2.66 54.66L5.32667 54.6867L8.12 53.9333L10.74 54.7L13.34 55.44L15.8467 56.48L18.4267 57.1733L20.9667 58.0467L23.5 58.9267L25.66 60.6133L28.2467 61.44L30.7667 62.4667L32.5333 64.66L34.84 66.0133L37.0667 67.5133L38.7533 69.64L40.6867 71.4667L42.9933 72.92L45.3467 74.28L46.8133 76.62L48.74 78.46L50.6933 80.2867L53.5467 80.9333L55.24 83.1L57.22 84.9133L59.3933 86.4667L62.18 87.0267L64.52 88.2533L66.7067 89.7667L68.8333 91.42L71.2133 92.5867L73.8933 93.1267L76.3 94.2133L78.4533 95.9467L81.08 96.5067L83.6867 97.0667L85.96 98.6333L88.5933 99.1133L91.06 100.153L93.6733 100.653L96.2 101.54L98.7733 102.293L101.6 101.533L104.193 102.067L106.747 102.953L109.387 103.253L112.047 103.32L114.687 103.587L117.34 103.767L120 103.26L122.647 103.213L125.3 103.427L127.94 103.167L130.633 103.487L133.207 102.547L135.807 102.053L138.4 101.54L141.24 102.333L143.607 100.633L146.307 100.567L148.793 99.6L151.307 98.7533L153.953 98.3533L156.66 98.06L159.107 97L161.573 95.9933L164.147 95.2533L166.2 93.3133L169.02 93.06L171.147 91.3667L173.727 90.5533L175.973 89.1067L178.113 87.5L180.04 85.5933L182.247 84.1267L185.04 83.4933L186.467 80.9533L189.053 79.9667L190.86 77.98L193.273 76.72L195.047 74.7067L197.167 73.0867L199.093 71.2467L200.48 68.8L202.773 67.32L204.573 65.2333L207.093 64.1133L209.36 62.66L211.767 61.46L213.833 59.6067L216.56 59.0733L218.967 57.86L221.6 57.26L224.073 56.18L226.627 55.3067L229.313 54.98L231.98 54.68L234.58 53.68L237.313 54.0333L240 53.58L242.7 53.76L245.38 54.1067L248.107 54.06L250.587 55.5533L253.32 55.54L255.84 56.5L258.373 57.34L260.887 58.2467L263.633 58.6267L265.72 60.5L268.553 60.8867L270.74 62.5067L273.113 63.8133L275.193 65.5467L277.073 67.5L279.413 68.92L281.093 71.06L283.453 72.4333L285.053 74.6L287.36 75.9867L288.94 78.22L291.34 79.4733L293.333 81.2133L295.287 83.0333L297.48 84.5333L299.447 86.38L301.913 87.46L303.993 89.1733L306.3 90.5067L309.147 90.8067L310.973 93.0867L313.74 93.4533L316.027 94.8533L318.767 95.16L320.793 97.2733L323.673 97.1133L325.9 98.8333L328.667 98.8467L331.247 99.4533L333.653 100.733L336.407 100.573L338.813 102.06L341.5 102.133L344.167 102.233L346.76 102.88L349.42 102.907L352.013 103.787L354.72 102.887L357.36 103.087L360 103.633L362.653 103.593L365.307 103.48L367.927 102.94L370.667 103.807L373.28 103.173L375.947 103.053L378.453 101.873L381.213 102.193L383.84 101.713L386.447 101.153L388.733 99.3733L391.587 99.72L393.967 98.4L396.613 97.9267L399.113 97.0133L401.667 96.2333L403.96 94.8133L406.4 93.7533L408.467 91.9267L411.407 91.8667L413.433 90.02L415.527 88.34L417.787 86.9667L420.227 85.88L422.633 84.7L424.893 83.2933L427.007 81.6733L429.3 80.28L431.027 78.18L432.967 76.3667L434.913 74.56L437.08 72.9933L439.047 71.2L440.993 69.3667L442.627 67.1467L444.993 65.7933L447.367 64.5067L449.513 62.9133L451.9 61.7L453.767 59.4667L456.313 58.5133L458.88 57.64L461.427 56.7467L463.893 55.54L466.627 55.3067L469.3 54.9133L471.98 54.6533L474.587 53.7533L477.34 54.6333L480 53.3733L482.707 53.6L485.367 54.2333L488.087 54.1867L490.607 55.4467L493.433 55.0533L495.987 55.98L498.433 57.16L501.027 57.8867L503.413 59.1267L505.827 60.2933L508.487 61.0133L510.673 62.6133L512.66 64.4667L515.087 65.6933L516.773 67.8667L519.46 68.8733L521.433 70.72L523.433 72.4533L524.7 74.9867L527.347 76L528.667 78.5533L531.313 79.5067L533 81.66L535.073 83.3333L537.72 84.18L539.4 86.4533L542.167 87.0533L544.34 88.5667L546.227 90.64L548.853 91.3667L551.073 92.8867L553.613 93.74L555.887 95.1733L558.507 95.8067L561.1 96.4467L563.58 97.38L565.86 98.9467L568.407 99.76L571.2 99.6133L573.68 100.627L576.227 101.433L578.967 101.253L581.46 102.38L584.06 103.007L586.733 103.087L589.393 103.22L592.013 103.813L594.68 103.753L597.34 103.92L600 103.873L602.667 104.293L605.32 103.873L607.92 102.82L610.66 103.773L613.253 102.987L615.88 102.587L618.527 102.313L621.027 101.227L623.78 101.453L626.453 101.173L628.933 100.127L631.38 99.0133L633.987 98.46L636.5 97.6067L638.8 96.1667L641.62 96.1133L643.953 94.7933L646.48 93.9267L648.46 91.92L651.407 91.8733L653.733 90.5667L655.56 88.4L658.073 87.4333L660.62 86.4867L662.647 84.72L664.46 82.68L666.58 81.1L669.273 80.2467L671.007 78.1533L672.667 76.02L674.607 74.2267L677.033 72.9467L679.267 71.42L680.753 69.1L682.433 66.9133L684.867 65.6267L687.193 64.26L689.027 62.1333L691.447 60.8867L694.013 59.96L696.22 58.2933L699.18 58.4133L701.467 56.8533L704.073 56.18L706.587 55.14L709.327 55.0667L711.92 54.2267L714.58 53.66L717.293 53.6267L720 53.5533L722.713 53.46L725.327 54.7067L727.987 54.9133L730.8 54.4L733.387 55.2533L735.84 56.48L738.567 56.76L740.82 58.42L743.433 59.08L746.073 59.7933L748.647 60.72L750.36 63.1133L752.573 64.5933L755.26 65.46L757.22 67.3267L759.007 69.36L761.22 70.9333L763.18 72.72L765.1 74.5467L767.253 76.1133L768.807 78.38L771.027 79.8733L773.373 81.1667L775.213 83.14L777.12 85.0667L779.673 86.0333L781.747 87.7333L783.96 89.2267L786.58 89.9933L788.98 91.1333L791.167 92.6867L793.56 93.8467L795.967 94.9933L798.427 96L800.86 97.0867L803.587 97.3667L805.9 98.8267L808.593 99.1133L811.273 99.34L813.727 100.44L816.347 100.867L819.007 101.067L821.6 101.553L824.06 103.013L826.753 102.9L829.44 102.72L832.04 103.433L834.667 104.093L837.333 104.02L840 103.087L842.64 103.113L845.287 103.08L847.98 103.707L850.587 102.96L853.3 103.38L855.82 102.16L858.4 101.54L861.113 101.693L863.78 101.447L866.4 100.973L869.027 100.467L871.46 99.2933L873.973 98.42L876.693 98.16L878.993 96.6933L881.267 95.2333L883.96 94.8133L886.207 93.3333L888.54 92.0867L891.36 91.7867L893.36 89.88L895.907 88.9933L897.88 87.1133L900.653 86.54L902.167 84.0133L905.08 83.5533L906.793 81.3867L909.207 80.16L910.94 78.08L912.82 76.2L915.173 74.8467L916.933 72.84L919.12 71.2733L920.8 69.1533L922.48 66.9733L925.153 66.0067L927.14 64.1867L929.527 62.9333L931.513 61.0067L933.827 59.5933L936.4 58.7067L938.78 57.38L941.567 57.1533L944.213 56.6667L946.7 55.62L949.347 55.1933L952.04 55.1L954.593 53.8467L957.307 53.9067L960 54.04V54.1933L962.66 54.66L965.327 54.6867L968.12 53.9333L970.74 54.7L973.34 55.44L975.847 56.48L978.427 57.1733L980.967 58.0467L983.5 58.9267L985.66 60.6133L988.247 61.44L990.767 62.4667L992.533 64.66L994.84 66.0133L997.067 67.5133L998.753 69.64L1000.69 71.4667L1002.99 72.92L1005.35 74.28L1006.81 76.62L1008.74 78.46L1010.69 80.2867L1013.55 80.9333L1015.24 83.1L1017.22 84.9133L1019.39 86.4667L1022.18 87.0267L1024.52 88.2533L1026.71 89.7667L1028.83 91.42L1031.21 92.5867L1033.89 93.1267L1036.3 94.2133L1038.45 95.9467L1041.08 96.5067L1043.69 97.0667L1045.96 98.6333L1048.59 99.1133L1051.06 100.153L1053.67 100.653L1056.2 101.54L1058.77 102.293L1061.6 101.533L1064.19 102.067L1066.75 102.953L1069.39 103.253L1072.05 103.32L1074.69 103.587L1077.34 103.767L1080 103.26L1082.65 103.213L1085.3 103.427L1087.94 103.167L1090.63 103.487L1093.21 102.547L1095.81 102.053L1098.4 101.54L1101.24 102.333L1103.61 100.633L1106.31 100.567L1108.79 99.6L1111.31 98.7533L1113.95 98.3533L1116.66 98.06L1119.11 97L1121.57 95.9933L1124.15 95.2533L1126.2 93.3133L1129.02 93.06L1131.15 91.3667L1133.73 90.5533L1135.97 89.1067L1138.11 87.5L1140.04 85.5933L1142.25 84.1267L1145.04 83.4933L1146.47 80.9533L1149.05 79.9667L1150.86 77.98L1153.27 76.72L1155.05 74.7067L1157.17 73.0867L1159.09 71.2467L1160.48 68.8L1162.77 67.32L1164.57 65.2333L1167.09 64.1133L1169.36 62.66L1171.77 61.46L1173.83 59.6067L1176.56 59.0733L1178.97 57.86L1181.6 57.26L1184.07 56.18L1186.63 55.3067L1189.31 54.98L1191.98 54.68L1194.58 53.68L1197.31 54.0333L1200 53.58L1202.7 53.76L1205.38 54.1067L1208.11 54.06L1210.59 55.5533L1213.32 55.54L1215.84 56.5L1218.37 57.34L1220.89 58.2467L1223.63 58.6267L1225.72 60.5L1228.55 60.8867L1230.74 62.5067L1233.11 63.8133L1235.19 65.5467L1237.07 67.5L1239.41 68.92L1241.09 71.06L1243.45 72.4333L1245.05 74.6L1247.36 75.9867L1248.94 78.22L1251.34 79.4733L1253.33 81.2133L1255.29 83.0333L1257.48 84.5333L1259.45 86.38L1261.91 87.46L1263.99 89.1733L1266.3 90.5067L1269.15 90.8067L1270.97 93.0867L1273.74 93.4533L1276.03 94.8533L1278.77 95.16L1280.79 97.2733L1283.67 97.1133L1285.9 98.8333L1288.67 98.8467L1291.25 99.4533L1293.65 100.733L1296.41 100.573L1298.81 102.06L1301.5 102.133L1304.17 102.233L1306.76 102.88L1309.42 102.907L1312.01 103.787L1314.72 102.887L1317.36 103.087L1320 103.633L1322.65 103.593L1325.31 103.48L1327.93 102.94L1330.67 103.807L1333.28 103.173L1335.95 103.053L1338.45 101.873L1341.21 102.193L1343.84 101.713L1346.45 101.153L1348.73 99.3733L1351.59 99.72L1353.97 98.4L1356.61 97.9267L1359.11 97.0133L1361.67 96.2333L1363.96 94.8133L1366.4 93.7533L1368.47 91.9267L1371.41 91.8667L1373.43 90.02L1375.53 88.34L1377.79 86.9667L1380.23 85.88L1382.63 84.7L1384.89 83.2933L1387.01 81.6733L1389.3 80.28L1391.03 78.18L1392.97 76.3667L1394.91 74.56L1397.08 72.9933L1399.05 71.2L1400.99 69.3667L1402.63 67.1467L1404.99 65.7933L1407.37 64.5067L1409.51 62.9133L1411.9 61.7L1413.77 59.4667L1416.31 58.5133L1418.88 57.64L1421.43 56.7467L1423.89 55.54L1426.63 55.3067L1429.3 54.9133L1431.98 54.6533L1434.59 53.7533L1437.34 54.6333L1440 53.3733V1.19333Z" fill="#C58CFD"/>
</svg>
