<svg width="60" height="60" viewBox="0 0 60 60" fill="none" xmlns="http://www.w3.org/2000/svg">
<mask id="mask0_1903_15759" style="mask-type:luminance" maskUnits="userSpaceOnUse" x="0" y="0" width="60" height="60">
<path d="M43.261 60H16.739C7.49491 60 0 52.5065 0 43.261V16.739C0 7.49491 7.4935 0 16.739 0H43.261C52.5051 0 60 7.49351 60 16.739V43.261C60 52.5065 52.5051 60 43.261 60Z" fill="white"/>
</mask>
<g mask="url(#mask0_1903_15759)">
<path d="M59.9986 0.00170898H0V30.0473H59.9986V0.00170898Z" fill="#FBECA9"/>
</g>
<mask id="mask1_1903_15759" style="mask-type:luminance" maskUnits="userSpaceOnUse" x="0" y="0" width="60" height="60">
<path d="M43.261 60H16.739C7.49491 60 0 52.5065 0 43.261V16.739C0 7.49491 7.4935 0 16.739 0H43.261C52.5051 0 60 7.49351 60 16.739V43.261C60 52.5065 52.5051 60 43.261 60Z" fill="white"/>
</mask>
<g mask="url(#mask1_1903_15759)">
<path d="M-149.887 88.1489H209.887C110.539 -11.1997 -50.5381 -11.1997 -149.887 88.1489Z" fill="#A1D4E5"/>
</g>
<mask id="mask2_1903_15759" style="mask-type:luminance" maskUnits="userSpaceOnUse" x="0" y="0" width="60" height="60">
<path d="M43.261 60H16.739C7.49491 60 0 52.5065 0 43.261V16.739C0 7.49491 7.4935 0 16.739 0H43.261C52.5051 0 60 7.49351 60 16.739V43.261C60 52.5065 52.5051 60 43.261 60Z" fill="white"/>
</mask>
<g mask="url(#mask2_1903_15759)">
<path d="M209.887 -54.6067H-149.887C-50.5381 44.7419 110.539 44.7419 209.887 -54.6067Z" fill="#A1D4E5"/>
</g>
<path d="M29.9992 56.7558C28.9842 56.7558 27.9833 56.4877 27.1045 55.9795L6.13311 43.8717C4.70404 43.0463 3.81683 41.5091 3.81683 39.8596V34.455C3.61188 34.0998 3.50098 33.6885 3.50098 33.2533C3.50098 23.9194 9.46292 18.7675 13.4918 16.3543C13.4553 15.797 13.4441 15.2341 13.4582 14.6796C13.4932 13.0568 13.7375 11.5898 14.2064 10.2029C14.4829 9.38865 14.8395 8.62498 15.2648 7.93291C15.7295 7.17766 16.284 6.4912 16.9143 5.89318L17.0505 5.76964C17.167 5.66436 17.2835 5.55907 17.4042 5.458L17.4267 5.43975L17.4492 5.4215C17.5994 5.30498 17.7496 5.18707 17.9012 5.07195L17.9377 5.04388L17.9756 5.01861C18.1342 4.91052 18.2943 4.80523 18.4557 4.69995L18.5582 4.63256L19.0523 4.35321C19.757 3.97278 20.706 3.53198 21.801 3.48706C21.8922 3.48285 21.9835 3.48145 22.0733 3.48145C24.2941 3.48145 25.0915 4.76452 25.368 5.5296C25.7316 6.53051 25.5884 7.70549 24.9441 9.02226C24.3011 10.3376 23.0574 11.8916 21.5679 13.0568C22.7275 12.7578 23.9095 12.5149 25.0929 12.3352C25.5014 10.8486 26.31 9.35356 27.4092 8.08873C28.7554 6.54174 30.5046 5.37798 32.4671 4.72662C33.2518 4.46551 34.3173 4.1665 35.6046 4.1665C35.6691 4.1665 35.7351 4.1679 35.8011 4.16931C37.6766 4.21423 39.0172 5.40746 39.1365 7.13695C39.1534 7.38542 39.1393 7.64092 39.0944 7.91887C38.8319 9.52061 37.3256 10.6198 36.1071 11.2599C35.3463 11.66 34.5236 11.9717 33.7221 12.171C38.0037 12.6651 42.26 13.9819 45.8074 15.95C49.8012 18.1652 56.5002 23.3593 56.5002 33.2533C56.5002 33.6885 56.3879 34.1012 56.1843 34.455V39.8596C56.1843 41.5091 55.2971 43.0477 53.8681 43.8717L32.8966 55.9795C32.0165 56.4877 31.0141 56.7558 29.9992 56.7558Z" fill="black"/>
<path d="M44.9891 17.4226C40.3719 14.8607 34.7764 13.638 29.9993 13.638C29.9164 13.638 29.8308 13.6408 29.748 13.6422C29.9192 13.0049 30.3011 12.1303 31.0563 11.2613C31.2051 11.0901 31.3778 10.9118 31.5729 10.7321C33.6548 10.8683 37.1685 9.24267 37.431 7.64514C37.452 7.5174 37.4647 7.38684 37.4549 7.25207C37.3945 6.38452 36.7558 5.87635 35.7605 5.85248C34.7216 5.82721 33.8162 6.05322 32.9978 6.32556C30.9496 7.00641 29.5599 8.1842 28.6797 9.19494C27.2688 10.8163 26.6484 12.5697 26.5108 13.8457C23.7776 14.1602 20.9307 14.841 18.2494 15.9023C18.2227 15.5261 18.2087 15.1499 18.2129 14.7779C18.2199 14.2458 18.262 13.7194 18.3392 13.2084C18.3533 13.1158 18.3701 13.0245 18.387 12.9333C21.1581 12.0376 24.4753 8.01013 23.7846 6.10657C23.4884 5.28815 22.7009 5.13935 21.8684 5.17304C21.1693 5.20112 20.4899 5.49451 19.8511 5.83844L19.6139 5.97181L19.496 6.03919L19.437 6.07288L19.3795 6.11078C19.2265 6.21045 19.0734 6.31152 18.9232 6.414C18.7772 6.5249 18.6312 6.63721 18.4867 6.75091C18.3463 6.86883 18.2101 6.99377 18.0739 7.11731C17.5405 7.62408 17.0772 8.20245 16.6996 8.81731C16.3206 9.43218 16.0258 10.0835 15.8026 10.7433C15.3562 12.0643 15.1709 13.4078 15.1428 14.7231C15.1259 15.3815 15.1484 16.0357 15.2074 16.6856C15.2256 16.8864 15.2467 17.0871 15.2719 17.2865C15.1863 17.3328 15.0979 17.3763 15.0122 17.424C9.94731 20.2345 5.18701 25.3443 5.18701 33.2547C5.18701 33.4948 5.29791 33.7194 5.50287 33.8415V39.8624C5.50287 40.9153 6.06439 41.8895 6.97686 42.416L27.9483 54.5238C28.5828 54.8902 29.2917 55.0741 30.0007 55.0741C30.7096 55.0741 31.4185 54.8902 32.053 54.5238L53.0244 42.416C53.9369 41.8895 54.4984 40.9153 54.4984 39.8624V33.8415C54.7048 33.7208 54.8143 33.4948 54.8143 33.2547C54.8157 25.3429 50.054 20.233 44.9891 17.4226Z" fill="black"/>
<mask id="mask3_1903_15759" style="mask-type:luminance" maskUnits="userSpaceOnUse" x="5" y="31" width="50" height="25">
<path d="M29.9993 45.3527L5.50146 31.208V39.8597C5.50146 40.9125 6.06299 41.8867 6.97546 42.4132L27.9469 54.521C29.2173 55.2538 30.7826 55.2538 32.053 54.521L53.0244 42.4132C53.9369 41.8867 54.4984 40.9125 54.4984 39.8597V31.208L29.9993 45.3527Z" fill="white"/>
</mask>
<g mask="url(#mask3_1903_15759)">
<path d="M29.9985 45.3527V55.7072L54.4977 41.5625V31.208L29.9985 45.3527Z" fill="#C2A480"/>
</g>
<mask id="mask4_1903_15759" style="mask-type:luminance" maskUnits="userSpaceOnUse" x="5" y="31" width="50" height="25">
<path d="M29.9993 45.3527L5.50146 31.208V39.8597C5.50146 40.9125 6.06299 41.8867 6.97546 42.4132L27.9469 54.521C29.2173 55.2538 30.7826 55.2538 32.053 54.521L53.0244 42.4132C53.9369 41.8867 54.4984 40.9125 54.4984 39.8597V31.208L29.9993 45.3527Z" fill="white"/>
</mask>
<g mask="url(#mask4_1903_15759)">
<path d="M5.50146 31.208V41.5625L29.9993 55.7072V45.3527L5.50146 31.208Z" fill="#A07650"/>
</g>
<path d="M44.9889 17.4226C40.3718 14.8606 34.7763 13.6379 29.9991 13.6379C25.222 13.6379 19.6264 14.8621 15.0093 17.4226C9.94438 20.233 5.18408 25.3429 5.18408 33.2533C5.18408 33.4947 5.29637 33.7222 5.50554 33.8429L28.3511 47.033C28.8606 47.3278 29.4306 47.4752 29.9991 47.4752C30.5677 47.4752 31.1376 47.3278 31.6472 47.033L54.4927 33.8429C54.7019 33.7222 54.8142 33.4947 54.8142 33.2533C54.8156 25.3429 50.0539 20.233 44.9889 17.4226Z" fill="#1CAA90"/>
<path d="M52.6159 35.0208C52.6159 38.258 48.2107 40.7385 44.3629 40.7385C40.5151 40.7385 34.6401 39.9748 34.6401 36.7376C34.6401 33.5005 40.9011 28.0986 44.7489 28.0986C48.5954 28.0972 52.6159 31.7836 52.6159 35.0208Z" fill="#1CAA90"/>
<path d="M43.7057 41.7167C43.3196 42.8734 40.3899 43.8533 38.1073 42.6685C35.9412 41.5426 31.4266 36.204 32.9132 34.2625C34.1584 32.6369 36.5982 31.7188 40.5162 32.8994C43.9415 33.9298 44.4792 39.3976 43.7057 41.7167Z" fill="#1CAA90"/>
<path d="M18.3868 12.9318C21.1579 12.0362 24.4751 8.00867 23.7845 6.10511C23.4883 5.28669 22.7007 5.13788 21.8683 5.17158C21.1692 5.19965 20.4897 5.49305 19.851 5.83698L19.6138 5.97034L19.4958 6.03772L19.4369 6.07141L19.3793 6.10932C19.2263 6.20899 19.0733 6.31006 18.9231 6.41254C18.7771 6.52344 18.6311 6.63575 18.4865 6.74945C18.3461 6.86737 18.21 6.99231 18.0738 7.11585C17.5403 7.62262 17.0771 8.20099 16.6995 8.81585C16.3205 9.43212 16.0257 10.0821 15.8024 10.7419C15.356 12.0629 15.1707 13.4063 15.1426 14.7217C15.1258 15.38 15.1483 16.0342 15.2072 16.6842C15.2648 17.3341 15.356 17.9799 15.4824 18.6299C15.4852 18.6467 15.4908 18.6706 15.495 18.6874C15.6929 19.5353 16.5394 20.0617 17.3859 19.8638C18.2324 19.6659 18.7602 18.8194 18.5623 17.9729L18.5609 17.9687C18.4402 17.4535 18.3532 16.9186 18.2928 16.3838C18.2352 15.8475 18.2086 15.3099 18.2142 14.7778C18.2212 14.2458 18.2633 13.7193 18.3405 13.2084C18.3532 13.1143 18.37 13.0231 18.3868 12.9318Z" fill="#1CAA90"/>
<path d="M37.4549 7.25211C37.3946 6.38456 36.7558 5.87638 35.7605 5.85252C34.7217 5.82725 33.8163 6.05326 32.9979 6.3256C30.9497 7.00644 29.5599 8.18424 28.6797 9.19498C27.057 11.0606 26.48 13.099 26.48 14.3862C26.48 15.2566 27.1847 15.9613 28.055 15.9613C28.9254 15.9613 29.6301 15.2566 29.6301 14.3862C29.6301 13.8725 29.9277 12.5599 31.0578 11.2614C31.2066 11.0901 31.3793 10.9118 31.5744 10.7321C33.6562 10.8683 37.17 9.24271 37.4325 7.64518C37.4521 7.51743 37.4648 7.38688 37.4549 7.25211Z" fill="#1CAA90"/>
<path d="M44.1556 29.1471C41.2778 29.1471 39.0458 26.9726 38.4702 23.6076C38.174 21.8767 38.4042 20.2132 39.1174 18.9203C39.9232 17.4604 41.2652 16.5311 42.9989 16.2349C43.3484 16.1745 43.6966 16.145 44.0349 16.145C46.9127 16.145 49.1448 18.3195 49.7203 21.6844C50.0165 23.4153 49.7863 25.0788 49.0732 26.3717C48.2674 27.8317 46.9253 28.761 45.1916 29.0572C44.8421 29.1162 44.4939 29.1471 44.1556 29.1471Z" fill="white"/>
<path d="M44.0345 17.1937C46.5347 17.1937 48.2277 19.1871 48.6839 21.8599C49.1921 24.829 47.9834 27.513 45.0144 28.0212C44.7182 28.0717 44.4318 28.0956 44.1553 28.0956C41.6551 28.0956 39.9621 26.1022 39.5059 23.4294C38.9977 20.4603 40.2064 17.7762 43.1754 17.2681C43.4716 17.2189 43.758 17.1937 44.0345 17.1937ZM44.0345 15.095C43.6373 15.095 43.2288 15.1301 42.8217 15.2003C40.7918 15.547 39.1493 16.6883 38.1975 18.4136C37.7679 19.1913 37.4886 20.0672 37.3651 21.0162C37.25 21.9034 37.2738 22.8355 37.4353 23.7859C37.7371 25.5533 38.4671 27.0849 39.5438 28.2163C40.139 28.8424 40.8282 29.3295 41.5891 29.6665C42.3879 30.0202 43.2512 30.1985 44.1553 30.1985C44.5525 30.1985 44.9611 30.1634 45.3682 30.0932C47.3981 29.7465 49.0405 28.6052 49.9923 26.8799C50.4218 26.1022 50.7012 25.2262 50.8247 24.2773C50.9399 23.39 50.916 22.4579 50.7546 21.5076C50.4527 19.7402 49.7228 18.2086 48.646 17.0771C48.0508 16.451 47.3616 15.9639 46.6007 15.627C45.8005 15.2733 44.9372 15.095 44.0345 15.095Z" fill="black"/>
<path d="M1.97325 27.6115C1.91289 27.6115 1.85111 27.6059 1.78935 27.5961C1.218 27.495 0.837575 26.9503 0.937245 26.3804C1.23345 24.7014 2.13749 23.8872 2.8422 23.5012C3.75187 23.0028 4.90019 22.8695 6.25486 23.1053C6.90482 23.219 7.44809 23.3945 7.73307 23.4956L26.4275 23.3819C26.4303 23.3819 26.4317 23.3819 26.4345 23.3819C27.0115 23.3819 27.4804 23.8479 27.4846 24.4249C27.4874 25.0047 27.0213 25.4777 26.4416 25.4805L7.55338 25.5957C7.413 25.5957 7.27401 25.569 7.14486 25.5156C6.57071 25.2812 4.85386 24.7899 3.85154 25.343C3.40654 25.5886 3.13139 26.0463 3.00786 26.744C2.91521 27.2536 2.47301 27.6115 1.97325 27.6115Z" fill="black"/>
<path d="M31.7158 32.5697C28.5194 32.5697 26.0402 30.1467 25.3987 26.3957C25.0674 24.4627 25.3229 22.604 26.1175 21.1637C27.0103 19.5438 28.4997 18.5148 30.4257 18.1849C30.8146 18.1189 31.202 18.0852 31.5783 18.0852C34.7747 18.0852 37.2538 20.5082 37.8954 24.2591C38.2267 26.1922 37.9712 28.0508 37.1766 29.4911C36.2838 31.1111 34.7944 32.1401 32.8683 32.47C32.4795 32.536 32.0906 32.5697 31.7158 32.5697Z" fill="white"/>
<path d="M31.5787 19.1352C34.4186 19.1352 36.3404 21.3996 36.8598 24.436C37.4367 27.8094 36.0638 30.857 32.6905 31.434C32.355 31.4915 32.0293 31.5196 31.7148 31.5196C28.8749 31.5196 26.9531 29.2553 26.4337 26.2188C25.8568 22.8455 27.2297 19.7978 30.603 19.2209C30.9385 19.1633 31.2642 19.1352 31.5787 19.1352ZM31.5787 17.0352C31.1435 17.0352 30.6957 17.0745 30.2479 17.1503C29.1192 17.344 28.1042 17.7525 27.2353 18.3674C26.393 18.9626 25.708 19.7319 25.1984 20.657C24.7281 21.5091 24.4207 22.4693 24.2859 23.5123C24.1582 24.4908 24.1848 25.5212 24.3645 26.5726C24.6986 28.5239 25.5002 30.2127 26.685 31.4564C27.3364 32.1401 28.0874 32.6721 28.917 33.0399C29.7888 33.4246 30.7308 33.6197 31.7162 33.6197C32.1514 33.6197 32.5992 33.5804 33.0456 33.5046C34.1743 33.3109 35.1892 32.9024 36.0582 32.2875C36.9005 31.6923 37.5855 30.923 38.0951 29.9979C38.5654 29.1458 38.8728 28.1856 39.0076 27.1426C39.1353 26.1641 39.1087 25.1337 38.929 24.0823C38.5949 22.131 37.7933 20.4422 36.6099 19.1998C35.9585 18.5162 35.2075 17.9841 34.3778 17.6163C33.5061 17.2303 32.5641 17.0352 31.5787 17.0352Z" fill="black"/>
<path d="M34.4032 28.6344C36.1379 28.3377 37.2625 26.4498 36.9149 24.4178C36.5673 22.3858 34.8793 20.979 33.1445 21.2757C31.4097 21.5724 30.2852 23.4603 30.6328 25.4923C30.9803 27.5244 32.6684 28.9311 34.4032 28.6344Z" fill="black"/>
<path d="M46.2316 25.2263C47.7394 25.0871 48.8277 23.5223 48.6624 21.7312C48.4971 19.94 47.1408 18.6008 45.633 18.74C44.1252 18.8791 43.0368 20.444 43.2021 22.2351C43.3674 24.0262 44.7238 25.3654 46.2316 25.2263Z" fill="black"/>
<path d="M41.3377 33.9776C41.1019 33.9776 40.866 33.899 40.6695 33.7376L39.9872 33.1746C39.5408 32.8054 39.4777 32.1442 39.8469 31.6964C40.2161 31.2486 40.8773 31.1869 41.3251 31.5561L42.0073 32.119C42.4537 32.4882 42.5169 33.1494 42.1477 33.5972C41.9399 33.8471 41.6409 33.9776 41.3377 33.9776Z" fill="black"/>
<path d="M31.2713 39.5058C31.0649 39.5058 30.8558 39.4454 30.6733 39.3177C30.1974 38.9864 30.0795 38.3322 30.4108 37.8563L32.0588 35.4853C32.3901 35.0094 33.0443 34.8915 33.5202 35.2228C33.9961 35.5541 34.114 36.2082 33.7827 36.6841L32.1346 39.0552C31.9297 39.3485 31.604 39.5058 31.2713 39.5058Z" fill="black"/>
<path d="M43.7528 42.2027C43.1338 42.2027 42.5048 42.1662 41.8703 42.0932C36.8812 41.5148 33.2411 39.2715 31.6394 37.5238C31.2477 37.097 31.2758 36.4316 31.704 36.04C32.1307 35.6483 32.7947 35.6764 33.1878 36.1045C34.652 37.7021 37.9804 39.5284 42.1132 40.0071C44.0238 40.2289 45.9386 40.0549 47.5066 39.5172C49.114 38.9669 50.3142 38.06 50.9768 36.8949C51.7335 35.5655 51.6366 34.3905 51.4218 33.6395C51.1719 32.7649 50.6118 31.9689 49.959 31.5604C49.4677 31.253 49.3175 30.6058 49.6249 30.1131C49.9324 29.6218 50.5795 29.4716 51.0723 29.779C52.1644 30.4613 53.0488 31.6882 53.4419 33.0625C53.7662 34.201 53.9192 35.9698 52.8017 37.9337C51.8809 39.5509 50.2861 40.7848 48.1874 41.5036C46.8342 41.9668 45.3265 42.2027 43.7528 42.2027Z" fill="black"/>
</svg>
