<svg width="80" height="48" viewBox="0 0 80 48" fill="none" xmlns="http://www.w3.org/2000/svg">
<path d="M16.8429 12.4155V18.9351C16.8429 19.4966 16.7326 19.9334 16.512 20.2453C16.3115 20.5365 15.9707 20.8068 15.4894 21.0564C14.9481 21.3891 14.1661 21.6699 13.1435 21.8986C12.1409 22.1274 11.1283 22.2418 10.1057 22.2418C8.20088 22.2418 6.47649 21.8986 4.93256 21.2123C3.40868 20.5053 2.20562 19.4238 1.32337 17.9681C0.441123 16.4916 0 14.5991 0 12.2907C0 10.0863 0.451149 8.24578 1.35345 6.76923C2.25574 5.27189 3.45881 4.14888 4.96264 3.40021C6.48652 2.63075 8.18083 2.24601 10.0456 2.24601C11.2687 2.24601 12.3314 2.38119 13.2337 2.65154C14.156 2.9219 14.8578 3.29623 15.3391 3.77455C15.8403 4.25287 16.091 4.78317 16.091 5.36547C16.091 5.82299 15.9707 6.22852 15.7301 6.58206C15.5095 6.9356 15.2488 7.20596 14.9481 7.39312C14.4267 7.06038 13.7851 6.74844 13.0232 6.45729C12.2813 6.14534 11.389 5.98937 10.3463 5.98937C9.24354 5.98937 8.25101 6.23892 7.36876 6.73804C6.48652 7.23715 5.79475 7.95463 5.29348 8.89047C4.81225 9.8263 4.57164 10.9493 4.57164 12.2595C4.57164 13.6736 4.81225 14.8486 5.29348 15.7845C5.7747 16.6995 6.43639 17.3858 7.27853 17.8433C8.14073 18.28 9.1132 18.4984 10.196 18.4984C10.7173 18.4984 11.1885 18.4464 11.6096 18.3424C12.0306 18.2385 12.3514 18.1345 12.572 18.0305V14.2247H8.96282C8.86257 14.0376 8.76231 13.788 8.66206 13.4761C8.58185 13.1641 8.54175 12.821 8.54175 12.4467C8.54175 11.8228 8.68211 11.3652 8.96282 11.0741C9.24354 10.7829 9.61448 10.6374 10.0757 10.6374H15.1285C15.6699 10.6374 16.091 10.7933 16.3917 11.1053C16.6925 11.4172 16.8429 11.854 16.8429 12.4155Z" fill="black"/>
<path d="M24.6689 10.6998V14.6615H20.3379V10.2006C20.3379 9.61834 20.4682 9.12962 20.7289 8.73449C21.0096 8.33936 21.3805 7.98582 21.8417 7.67388C22.5034 7.25795 23.2954 6.9356 24.2178 6.70684C25.1401 6.45729 26.1226 6.33251 27.1653 6.33251C29.1704 6.33251 30.1729 7.02919 30.1729 8.42255C30.1729 8.73449 30.1328 9.03604 30.0526 9.32719C29.9724 9.59754 29.8621 9.8367 29.7218 10.0447C29.5213 10.0031 29.2706 9.97188 28.9699 9.95108C28.6891 9.90949 28.3784 9.88869 28.0375 9.88869C27.4159 9.88869 26.8043 9.96148 26.2028 10.1071C25.6013 10.2526 25.09 10.4502 24.6689 10.6998ZM20.3379 13.4761L24.6689 13.5697V21.6803C24.4684 21.7218 24.1877 21.7738 23.8268 21.8362C23.4859 21.8986 23.1149 21.9298 22.7139 21.9298C21.8918 21.9298 21.2903 21.7842 20.9093 21.4931C20.5284 21.1811 20.3379 20.63 20.3379 19.8398V13.4761Z" fill="black"/>
<path d="M32.318 2.46437C32.318 1.77809 32.5386 1.19579 32.9797 0.717476C33.4408 0.239159 34.0324 0 34.7542 0C35.476 0 36.0575 0.239159 36.4986 0.717476C36.9598 1.19579 37.1904 1.77809 37.1904 2.46437C37.1904 3.12986 36.9598 3.70176 36.4986 4.18008C36.0575 4.6584 35.476 4.89755 34.7542 4.89755C34.0324 4.89755 33.4408 4.6584 32.9797 4.18008C32.5386 3.70176 32.318 3.12986 32.318 2.46437ZM32.5887 13.4761H36.9197V21.6803C36.7392 21.7218 36.4686 21.7738 36.1076 21.8362C35.7668 21.8986 35.3858 21.9298 34.9647 21.9298C34.1426 21.9298 33.5411 21.7842 33.1601 21.4931C32.7792 21.1811 32.5887 20.63 32.5887 19.8398V13.4761ZM36.9197 15.8157H32.5887V6.9564C32.7691 6.89401 33.0298 6.83162 33.3707 6.76923C33.7316 6.70684 34.1226 6.67565 34.5437 6.67565C35.3858 6.67565 35.9873 6.82122 36.3483 7.11237C36.7292 7.40352 36.9197 7.96503 36.9197 8.79688V15.8157Z" fill="black"/>
<path d="M49.9589 18.0929V8.64091L54.2598 8.60971V18.6544C54.2598 19.1327 54.1595 19.5382 53.959 19.871C53.7585 20.2037 53.4477 20.5157 53.0267 20.8068C52.4853 21.1603 51.7735 21.4723 50.8912 21.7426C50.029 22.0338 49.0465 22.1794 47.9437 22.1794C46.2795 22.1794 44.8458 21.8882 43.6428 21.3059C42.4397 20.7236 41.5073 19.8502 40.8456 18.6856C40.204 17.521 39.8832 16.0548 39.8832 14.2871C39.8832 12.4778 40.214 10.9909 40.8757 9.8263C41.5374 8.64091 42.4297 7.76746 43.5525 7.20595C44.6954 6.62366 45.9687 6.33251 47.3723 6.33251C48.0941 6.33251 48.7357 6.41569 49.2972 6.58206C49.8786 6.74843 50.3498 6.946 50.7108 7.17476V10.8869C50.41 10.6374 50.019 10.4086 49.5378 10.2006C49.0766 9.97188 48.5453 9.8575 47.9437 9.8575C47.2219 9.8575 46.5802 10.0135 46.0188 10.3254C45.4774 10.6374 45.0463 11.1261 44.7255 11.7916C44.4248 12.4363 44.2744 13.2785 44.2744 14.3183C44.2744 15.7949 44.5952 16.8867 45.2368 17.5938C45.8985 18.28 46.7908 18.6232 47.9136 18.6232C48.3748 18.6232 48.7758 18.5712 49.1167 18.4672C49.4576 18.3424 49.7383 18.2177 49.9589 18.0929ZM54.2598 9.51436H49.9288V1.40376C50.1092 1.34137 50.3799 1.28938 50.7408 1.24779C51.1018 1.1854 51.4827 1.1542 51.8837 1.1542C52.7259 1.1542 53.3274 1.29978 53.6883 1.59093C54.0693 1.88207 54.2598 2.43318 54.2598 3.24424V9.51436Z" fill="black"/>
<path d="M2.05913 34.4303H6.51047V47.4697C6.33001 47.5113 6.03927 47.5633 5.63825 47.6257C5.25728 47.6881 4.86628 47.7193 4.46526 47.7193C3.58301 47.7193 2.96143 47.5633 2.60051 47.2513C2.23959 46.9186 2.05913 46.3467 2.05913 45.5356V34.4303ZM6.51047 40.139H2.05913V28.5658C2.25965 28.5242 2.56041 28.4722 2.96143 28.4098C3.36245 28.3266 3.75345 28.285 4.13442 28.285C4.97656 28.285 5.57809 28.441 5.93901 28.7529C6.31998 29.0441 6.51047 29.616 6.51047 30.4686V40.139Z" fill="black"/>
<path d="M22.0591 43.1648C22.0591 44.683 21.5077 45.8684 20.4049 46.721C19.3222 47.5737 17.7381 48 15.6528 48C14.0086 48 12.6552 47.7505 11.5925 47.2513C10.5498 46.7314 10.0285 46.0035 10.0285 45.0677C10.0285 44.6518 10.1187 44.2878 10.2992 43.9759C10.4796 43.6432 10.7102 43.3832 10.9909 43.196C11.5524 43.5496 12.204 43.8719 12.9459 44.1631C13.6878 44.4334 14.54 44.5686 15.5024 44.5686C17.0263 44.5686 17.7882 44.1111 17.7882 43.196C17.7882 42.8217 17.6479 42.5201 17.3672 42.2914C17.1065 42.0626 16.6754 41.8859 16.0739 41.7611L14.7204 41.4179C13.1364 41.0852 11.9534 40.5549 11.1714 39.827C10.3894 39.0783 9.99841 38.0697 9.99841 36.8011C9.99841 35.3662 10.5598 34.2224 11.6827 33.3697C12.8056 32.5171 14.3194 32.0907 16.2243 32.0907C17.2068 32.0907 18.079 32.1947 18.8409 32.4027C19.6229 32.5899 20.2445 32.881 20.7057 33.2761C21.1669 33.6713 21.3974 34.16 21.3974 34.7423C21.3974 35.1374 21.3172 35.491 21.1568 35.8029C20.9964 36.1149 20.7959 36.3644 20.5553 36.5516C20.3147 36.406 19.9738 36.2604 19.5327 36.1149C19.0916 35.9485 18.6003 35.8133 18.0589 35.7093C17.5376 35.5845 17.0464 35.5222 16.5852 35.5222C15.8433 35.5222 15.2618 35.6261 14.8407 35.8341C14.4397 36.0421 14.2392 36.3644 14.2392 36.8011C14.2392 37.0923 14.3495 37.3418 14.5701 37.5498C14.8107 37.737 15.2317 37.9033 15.8333 38.0489L17.0965 38.3609C18.861 38.7768 20.1242 39.3799 20.8861 40.1702C21.6681 40.9396 22.0591 41.9379 22.0591 43.1648Z" fill="black"/>
<path d="M25.0522 39.2655L29.3532 39.3591V47.4697C29.1727 47.5113 28.902 47.5633 28.5411 47.6257C28.2002 47.6881 27.8293 47.7193 27.4283 47.7193C26.6062 47.7193 26.0046 47.5737 25.6237 47.2825C25.2427 46.9706 25.0522 46.4195 25.0522 45.6292V39.2655ZM29.3532 41.6987L25.0522 41.6051V27.1932C25.2327 27.1308 25.4933 27.0788 25.8342 27.0372C26.1951 26.9748 26.5761 26.9436 26.9771 26.9436C27.8193 26.9436 28.4208 27.0892 28.7817 27.3804C29.1627 27.6715 29.3532 28.2226 29.3532 29.0337V41.6987Z" fill="black"/>
<path d="M38.9607 44.631C39.442 44.631 39.9132 44.579 40.3743 44.475C40.8355 44.371 41.1664 44.2567 41.3669 44.1319V41.0436L38.7502 41.2932C38.0484 41.3556 37.497 41.5219 37.096 41.7923C36.695 42.0418 36.4945 42.4162 36.4945 42.9153C36.4945 43.4352 36.685 43.8511 37.0659 44.1631C37.4669 44.475 38.0986 44.631 38.9607 44.631ZM38.7803 32.1219C40.8455 32.1219 42.4897 32.5691 43.7129 33.4633C44.936 34.3368 45.5475 35.7197 45.5475 37.6122V44.7246C45.5475 45.2445 45.4172 45.6604 45.1565 45.9724C44.9159 46.2843 44.6051 46.5651 44.2242 46.8146C43.6226 47.1681 42.8807 47.4489 41.9985 47.6569C41.1162 47.8648 40.1037 47.9688 38.9607 47.9688C36.9155 47.9688 35.2914 47.5633 34.0883 46.7522C32.8853 45.9204 32.2837 44.6934 32.2837 43.0713C32.2837 41.6571 32.7048 40.5757 33.547 39.827C34.4092 39.0783 35.6623 38.6104 37.3065 38.4233L41.3368 37.9865V37.581C41.3368 36.8531 41.0661 36.3332 40.5247 36.0213C40.0034 35.6885 39.2515 35.5222 38.269 35.5222C37.507 35.5222 36.7551 35.6157 36.0132 35.8029C35.2714 35.9901 34.6097 36.2188 34.0282 36.4892C33.8076 36.3228 33.6071 36.0733 33.4267 35.7405C33.2662 35.4078 33.186 35.0646 33.186 34.7111C33.186 33.8376 33.6372 33.2138 34.5395 32.8394C35.1009 32.5899 35.7626 32.4131 36.5245 32.3091C37.3065 32.1843 38.0585 32.1219 38.7803 32.1219Z" fill="black"/>
<path d="M62.7588 37.7994V40.7629H58.4278V37.9553C58.4278 37.1651 58.2073 36.5828 57.7661 36.2084C57.325 35.8341 56.7335 35.6469 55.9916 35.6469C55.4703 35.6469 54.9891 35.7197 54.5479 35.8653C54.1269 35.9901 53.7459 36.146 53.405 36.3332V40.7629H49.074V35.8653C49.074 35.3454 49.1743 34.9191 49.3748 34.5863C49.5953 34.2536 49.9061 33.9416 50.3071 33.6505C50.9488 33.2138 51.7608 32.8498 52.7433 32.5587C53.7459 32.2675 54.8387 32.1219 56.0217 32.1219C58.1672 32.1219 59.8214 32.6107 60.9843 33.5881C62.1673 34.5655 62.7588 35.9693 62.7588 37.7994ZM49.074 39.3279H53.405V47.4697C53.2045 47.5113 52.9238 47.5633 52.5629 47.6257C52.222 47.6881 51.8511 47.7193 51.4501 47.7193C50.628 47.7193 50.0264 47.5737 49.6455 47.2825C49.2645 46.9706 49.074 46.4195 49.074 45.6292V39.3279ZM58.4278 39.3279H62.7588V47.4697C62.5784 47.5113 62.3077 47.5633 61.9468 47.6257C61.6059 47.6881 61.2249 47.7193 60.8039 47.7193C59.9818 47.7193 59.3802 47.5737 58.9993 47.2825C58.6183 46.9706 58.4278 46.4195 58.4278 45.6292V39.3279Z" fill="black"/>
<path d="M75.6991 43.8823V34.4303L80 34.3992V44.4438C80 44.9221 79.8997 45.3277 79.6992 45.6604C79.4987 45.9931 79.1879 46.3051 78.7669 46.5962C78.2255 46.9498 77.5137 47.2617 76.6314 47.5321C75.7692 47.8232 74.7867 47.9688 73.6839 47.9688C72.0197 47.9688 70.586 47.6777 69.383 47.0954C68.1799 46.5131 67.2475 45.6396 66.5859 44.475C65.9442 43.3104 65.6234 41.8443 65.6234 40.0766C65.6234 38.2673 65.9542 36.7803 66.6159 35.6157C67.2776 34.4303 68.1699 33.5569 69.2927 32.9954C70.4357 32.4131 71.7089 32.1219 73.1125 32.1219C73.8343 32.1219 74.4759 32.2051 75.0374 32.3715C75.6189 32.5379 76.0901 32.7354 76.451 32.9642V36.6764C76.1502 36.4268 75.7592 36.198 75.278 35.9901C74.8168 35.7613 74.2855 35.6469 73.6839 35.6469C72.9621 35.6469 72.3205 35.8029 71.759 36.1149C71.2176 36.4268 70.7865 36.9155 70.4657 37.581C70.165 38.2257 70.0146 39.0679 70.0146 40.1078C70.0146 41.5843 70.3354 42.6761 70.977 43.3832C71.6387 44.0695 72.531 44.4126 73.6539 44.4126C74.115 44.4126 74.516 44.3606 74.8569 44.2567C75.1978 44.1319 75.4785 44.0071 75.6991 43.8823ZM80 35.3038H75.669V27.1932C75.8494 27.1308 76.1201 27.0788 76.4811 27.0372C76.842 26.9748 77.2229 26.9436 77.624 26.9436C78.4661 26.9436 79.0676 27.0892 79.4286 27.3804C79.8095 27.6715 80 28.2226 80 29.0337V35.3038Z" fill="black"/>
</svg>
