<svg width="60" height="60" viewBox="0 0 60 60" fill="none" xmlns="http://www.w3.org/2000/svg">
<circle cx="30" cy="30" r="29.5" fill="#FFA53A" stroke="black"/>
<path d="M21.5764 38.4744C21.7231 38.3762 22.032 38.2961 21.8782 38.4498C21.7619 38.4498 21.6645 38.464 21.5764 38.4744C21.4993 38.5259 21.4669 38.5824 21.5696 38.6127C22.3064 38.8297 23.082 39.1103 23.6486 39.6414C24.015 39.985 24.3307 40.4639 24.5788 40.9017C24.733 41.1738 24.6549 41.5675 24.7331 41.8705C24.8181 42.1998 24.9288 42.4676 25.0803 42.7707C25.3319 43.2738 25.5811 43.6754 26.1991 43.5037C26.9685 43.29 27.221 43.2518 27.9052 43.748C28.3148 44.0451 28.7181 44.3774 29.1569 44.6311C29.7322 44.9637 30.4534 45.0298 31.0987 45.1154C31.516 45.1708 31.9557 45.2807 32.3719 45.3169C32.6552 45.3416 33.0009 45.5194 33.2806 45.4541C33.7958 45.3339 33.7382 44.6329 33.7479 44.2024C33.7731 43.0812 33.2206 42.0528 33.2206 40.9231C33.2206 40.6673 33.3518 40.4404 33.3706 40.1858C33.3957 39.8471 33.3372 39.4908 33.2635 39.1613C33.1878 38.8229 32.9761 38.6343 32.8348 38.334C32.6364 37.9124 32.388 37.469 32.1232 37.0866C31.3661 35.993 30.0039 35.349 29.3798 34.1632C28.6312 32.7409 27.8105 31.6135 27.2022 30.1338C26.7037 28.921 25.5932 27.7219 25.5786 26.394C25.5745 26.0171 26.1018 24.1389 26.1991 23.7711C26.3252 23.295 27.1115 22.8522 27.3819 22.4596C27.796 21.8586 28.5631 21.7575 29.1569 21.3121C29.8261 20.8102 30.7329 20.6338 31.4331 20.176C32.3915 19.5493 33.3037 17.8735 34.373 17.4941C34.9815 17.2781 35.5933 17.0661 36.2162 16.8939C37.0369 16.6671 37.8572 16.7077 38.6896 16.5853C40.7751 16.2786 43.12 16.3015 45.1924 16.6882C46.5978 16.9504 49.8212 18.4412 50.2549 20.176C50.4888 21.1116 50.678 21.9674 50.705 22.9408C50.7368 24.087 50.5668 25.2549 50.4821 26.3958C50.4498 26.8305 51.7209 27.532 50.4821 27.5632C50.3586 28.1277 50.3058 28.7338 50.2935 29.3121C50.2863 29.6492 50.4841 29.7262 50.7957 29.8475L50.8079 29.8522C51.391 30.0793 50.7412 30.0162 51.3144 30.2709C51.6142 30.4042 51.7844 30.816 51.9317 31.0811C52.1535 31.4804 51.9702 32.4874 51.9702 32.9372C51.9702 33.2965 52.0062 33.7151 51.6616 33.9145C50.841 34.3896 49.9599 34.6341 49.0553 34.9733C48.4598 35.1966 47.6293 35.0548 47.0106 35.0548C46.5217 35.0548 46.0412 34.9776 45.5489 34.9776C45.416 34.9776 45.1867 34.9319 45.0645 34.9862C44.8058 35.1012 44.5546 35.638 44.3658 35.8349C43.7815 36.4447 43.4406 36.8113 43.5985 37.6182C43.8856 39.0856 44.3865 40.4397 44.4087 41.9476C44.4127 42.2246 44.5572 42.4675 44.563 42.745C44.5718 43.1681 44.6401 43.5826 44.6401 44.0052C44.6401 44.7546 44.6916 45.5297 44.623 46.2771C44.5706 46.8477 44.3094 47.43 44.1729 47.9875C44.1035 48.2708 43.9708 49.27 43.6371 49.4663C43.3858 49.6142 43.1785 49.9421 42.9469 50.1351C42.6839 50.3543 42.4653 50.6227 42.2493 50.8881L42.2482 50.8895C41.7993 51.441 41.2687 51.8568 40.675 52.2526C39.947 52.738 39.124 52.8157 38.3474 53.1485C37.5069 53.5087 36.2828 53.2028 35.4668 52.9899C34.2521 52.6731 33.0382 52.346 31.7889 52.2012C31.1576 52.128 30.521 52.0297 29.8856 52.0297C28.1965 52.0297 26.4401 51.6788 24.7803 51.3739C23.4173 51.1235 22.1481 50.478 20.798 50.1779C20.3318 50.0743 20.3958 48.5166 20.022 48.2202C19.8268 48.0654 19.5144 47.9492 19.3876 47.7187C19.1455 47.2785 19.106 46.817 18.8732 46.3727C18.4301 45.5268 17.0511 44.5754 16.5622 43.748C15.3496 41.6959 14.2612 41.0252 13.395 38.8056C13.112 38.0802 13.1463 37.2916 12.8678 36.5722C12.5991 35.878 12.4648 34.8957 12.4648 34.1632C12.4648 33.2706 12.7261 32.9801 13.4036 32.4657C13.9149 32.0775 14.5181 31.7374 15.1397 31.5655C15.3309 31.5126 15.9051 31.4883 16.0484 31.304C16.1565 31.1651 16.0947 30.7934 16.087 30.6396C16.0586 30.0705 15.9286 29.523 15.937 28.9507C15.9499 28.0722 17.2603 27.4299 17.9431 27.1074C18.6373 26.7796 19.3548 27.7153 19.7521 28.1534C20.2835 28.7393 20.5547 29.3675 20.7209 30.1338C20.7676 30.3493 20.8783 30.7128 20.7594 30.9268C20.6696 31.0885 20.5702 31.211 20.4122 31.3126C20.0875 31.5213 19.8956 32.0203 19.7778 32.3628C19.7614 32.4105 19.4214 33.2338 19.6106 33.2758C19.903 33.3408 20.2148 33.5229 20.4722 33.6831C21.8199 34.5216 20.7517 36.3009 20.5708 37.4767C20.5204 37.8044 20.824 38.09 21.0295 38.2955C21.2349 38.5009 21.3834 38.497 21.5764 38.4744Z" fill="white"/>
<path d="M29.7832 20.5947C27.7005 21.764 27.1222 22.1817 25.9146 24.0996C25.3929 24.9282 25.3655 26.8499 25.6831 27.8028C26.3334 29.7536 27.4565 31.1181 28.2953 32.7956" stroke="black" stroke-width="1.5" stroke-linecap="round"/>
<path d="M28.9043 21.5755C29.4257 21.4597 29.9954 20.6809 30.4336 20.3787C30.8576 20.0862 31.337 20.0876 31.7468 19.7803" stroke="black" stroke-width="1.5" stroke-linecap="round"/>
<path d="M51.0518 23.3699C50.8851 21.5353 50.3454 19.1258 48.8078 17.9177C47.3112 16.7418 45.4028 16.4881 43.4802 16.4881C41.2939 16.4881 35.5303 15.8149 34.1465 18.5826" stroke="black" stroke-width="1.5" stroke-linecap="round"/>
<path d="M43.4232 23.3708C42.5429 22.4905 41.6496 21.9066 40.3812 21.7584C38.9806 21.5947 37.4049 21.4377 36.6162 22.7724C35.6105 24.4742 34.7589 30.7014 38.1953 30.7014C39.7825 30.7014 42.1914 29.2924 42.2264 27.4766C42.2435 26.5834 42.4308 25.4068 42.0103 24.6258C41.8146 24.2623 41.8268 23.9214 41.5531 23.5869C41.1671 23.1151 40.7617 22.8573 40.2815 22.4732" stroke="black" stroke-width="1.5" stroke-linecap="round"/>
<path d="M38.9275 25.3151C38.7201 25.7069 38.5597 26.0421 38.6366 26.5036C38.7222 27.0171 38.9313 26.2592 38.9275 26.0964C38.8903 24.4976 38.0274 26.019 38.3457 26.8943C38.4347 27.1389 38.656 27.517 38.9608 27.3763C39.5749 27.0929 39.4024 25.8476 39.2932 25.3484C39.0404 24.1927 38.2435 25.6463 38.7779 25.9135" stroke="black" stroke-width="1.5" stroke-linecap="round"/>
<path d="M46.5571 21.1257C46.025 21.1789 44.5198 22.284 44.3463 22.8046C43.8611 24.2602 45.02 25.8109 45.2106 27.193C45.3931 28.5159 46.0957 30.755 47.7872 30.7004C49.127 30.6572 49.962 30.2734 50.2972 28.9883C50.6735 27.5459 50.746 26.2833 50.746 24.8077C50.746 23.8263 50.4845 22.9587 49.7736 22.2478C49.3599 21.8341 48.6066 22.0234 48.0781 22.0234C47.653 22.0234 45.7339 21.7249 45.5098 22.173" stroke="black" stroke-width="1.5" stroke-linecap="round"/>
<path d="M47.4535 26.5116C47.7205 26.4448 47.5556 25.4383 47.2291 26.2872C47.0931 26.6409 47.5353 27.3865 47.786 26.9604C48.2426 26.1842 47.5893 25.0571 47.1543 26.362" stroke="black" stroke-width="1.5" stroke-linecap="round"/>
<path d="M50.2977 29.8037C50.6619 29.8401 51.9508 30.4728 52.093 30.7928C52.3178 31.2986 52.5107 31.8458 52.6582 32.3802C53.0813 33.9139 51.9061 35.38 50.4806 35.6716C49.4949 35.8732 48.4337 35.8414 47.4469 35.63C46.0991 35.3412 44.5227 35.0401 43.2663 34.4747C42.6832 34.2123 41.5721 34.1189 41.1719 33.6186C40.9133 33.2955 40.7826 33.035 40.4238 32.7958" stroke="black" stroke-width="1.5" stroke-linecap="round"/>
<path d="M40.573 32.1968C40.5267 32.614 40.2118 33.337 39.9746 33.6928" stroke="black" stroke-width="1.5" stroke-linecap="round"/>
<path d="M50.1465 32.1968C50.2566 32.5026 50.3677 32.7172 50.5953 32.9448" stroke="black" stroke-width="1.5" stroke-linecap="round"/>
<path d="M48.2131 25.4645C48.0945 25.6276 47.5623 26.944 47.7061 26.944C48.4958 26.944 48.082 25.603 47.9222 25.2568C47.6768 24.725 47.6616 26.2015 47.7643 26.4453C47.965 26.9219 48.2258 27.1965 48.3627 26.5118" stroke="black" stroke-width="1.5" stroke-linecap="round"/>
<path d="M37.1348 17.0866C37.2581 14.9894 36.9633 12.6269 37.434 10.5871C37.6189 9.78573 38.2438 8.5678 38.93 8.11035" stroke="black" stroke-width="1.5" stroke-linecap="round"/>
<path d="M44.6117 16.1889C44.3364 13.1611 44.6317 9.68751 46.5565 7.21265" stroke="black" stroke-width="1.5" stroke-linecap="round"/>
<path d="M44.6132 35.4883C44.1001 36.8566 42.856 36.5877 41.6211 36.8347" stroke="black" stroke-width="1.5" stroke-linecap="round"/>
<path d="M44.014 37.2839C44.014 40.0114 45.0613 42.6559 45.0613 45.4208C45.0613 47.5539 44.4601 49.11 43.5569 50.9728C42.5923 52.9622 40.8045 53.223 38.7945 53.5078C34.6148 54.0999 30.5862 53.9933 26.4188 53.2418C24.5309 52.9013 23.0307 51.5437 21.5733 50.3494C19.6975 48.8123 18.1661 46.4288 17.6836 44.0162" stroke="black" stroke-width="1.5" stroke-linecap="round"/>
<path d="M30.6996 34.7407C29.5525 35.4577 31.5218 37.5029 31.9795 37.9988C33.0456 39.1537 33.9949 40.6285 35.1877 41.6225" stroke="black" stroke-width="1.5" stroke-linecap="round"/>
<path d="M33.0996 39.5269C32.7638 39.6388 32.6615 40.4798 32.5594 40.7486C32.1861 41.7308 31.8405 42.6414 31.936 43.7158C32.0085 44.5317 32.3113 45.8649 33.0996 46.2591" stroke="black" stroke-width="1.5" stroke-linecap="round"/>
<path d="M32.0468 44.1653C31.4199 43.5867 29.9634 42.4809 29.0547 42.9352C28.7807 43.0722 28.9051 43.5972 28.9051 43.8661" stroke="black" stroke-width="1.5" stroke-linecap="round"/>
<path d="M27.4144 43.1187C26.6203 43.1187 26.1861 43.4493 25.6191 44.0163" stroke="black" stroke-width="1.5" stroke-linecap="round"/>
<path d="M25.7627 42.9686C25.652 41.3631 24.7673 38.3334 22.9784 37.8072C22.1299 37.5577 21.1912 37.799 20.377 38.0316" stroke="black" stroke-width="1.5" stroke-linecap="round"/>
<path d="M16.6398 45.3626C16.4996 43.9606 15.2731 42.8303 14.5453 41.7056C14.0174 40.8898 13.5019 39.8436 13.7973 38.8465C13.889 38.5369 14.0965 38.3618 14.0965 38.032" stroke="black" stroke-width="1.5" stroke-linecap="round"/>
<path d="M13.4937 38.331C13.4602 37.1914 12.673 36.287 12.2969 35.2391C12.0917 34.6674 11.6058 33.4079 11.8813 32.7956C12.0519 32.4167 12.7352 32.1809 13.0782 32.0476C14.3835 31.54 15.9988 31.5988 17.3835 31.5988" stroke="black" stroke-width="1.5" stroke-linecap="round"/>
<path d="M20.8336 36.8343C20.8988 36.5734 21.3703 36.28 21.5151 36.0032C21.8595 35.3448 21.6244 34.7291 21.3406 34.075C21.0936 33.5058 20.7996 33.0024 20.2351 32.7202C20.0054 32.6053 19.7451 32.5629 19.6367 32.3462" stroke="black" stroke-width="1.5" stroke-linecap="round"/>
<path d="M17.6852 32.3462C16.6171 31.9647 14.6885 29.7888 15.3746 28.5147C15.9119 27.5168 16.9673 26.726 18.134 26.6612C19.6045 26.5795 20.6773 27.3422 20.6773 28.7391C20.6773 29.5285 19.8536 30.4013 19.0316 30.4013" stroke="black" stroke-width="1.5" stroke-linecap="round"/>
<path d="M33.8473 53.1423C33.8473 52.7337 33.673 52.3651 33.6977 51.9455C33.7176 51.6068 34.8788 51.4044 35.1605 51.3138C35.9056 51.0743 36.7417 51.2391 37.4711 51.0146C38.3676 50.7388 37.4947 49.5105 37.2965 48.9035C37.0398 48.1174 36.5415 46.8422 37.737 46.7093C38.4628 46.6287 37.5874 45.0718 37.5874 44.4736C37.5874 43.3724 39.1137 42.8196 40.0559 42.8196C40.3128 42.8196 40.7328 42.9562 40.513 42.7365C40.215 42.4385 40.0257 42.0051 39.8647 41.6228C38.9886 39.542 43.7326 39.2828 44.9181 39.6779" stroke="black" stroke-width="1.5" stroke-linecap="round"/>
</svg>
