<svg width="100%" height="100%" viewBox="0 0 450 450" fill="none" xmlns="http://www.w3.org/2000/svg" style="display: block;">
<rect width="100%" height="100%" 
fill="selectedBackgroundColor"/>
<path d="M347.761 192.04C346.841 189.04 345.651 184.67 342.111 183.89C342.091 183.89 342.071 183.88 342.051 183.88C336.531 176.76 330.751 174.87 328.181 173.48C327.131 172.91 319.521 170.91 318.631 170.12C317.731 169.32 317.041 168.44 316.541 167.34C316.211 163.85 314.211 160.9 313.551 157.51C313.431 156.87 313.511 156.16 313.361 155.53C313.161 154.69 312.491 153.98 312.011 153.28C310.811 151.55 309.601 149.81 308.401 148.08C307.671 147.03 306.941 145.98 306.051 145.06C305.271 144.26 304.381 143.57 303.571 142.8C302.431 141.72 301.431 140.5 300.441 139.28C298.411 136.79 296.371 134.3 294.041 132.09C287.851 126.23 279.861 122.59 271.691 120.17C266.811 118.72 261.821 117.67 256.821 116.67C252.291 115.76 247.621 114.3 243.001 114.21C239.911 114.15 236.821 114.13 233.741 114.15C231.611 114.17 229.471 114.2 227.361 114.47C222.661 115.06 218.211 116.74 213.731 118.18C209.681 119.48 205.621 120.23 201.711 121.87C200.091 122.54 198.531 123.34 196.951 124.08C195.341 124.83 193.641 125.28 192.031 125.99C191.511 126.22 191.081 126.6 190.561 126.84C189.761 127.21 188.921 127.51 188.111 127.87C186.531 128.58 185.001 129.39 183.511 130.27C181.271 131.6 179.151 133.1 177.141 134.74C169.751 140.77 164.121 148.77 159.491 157.03C157.981 159.72 156.791 162.46 156.151 165.49C155.861 166.84 155.591 168.19 155.331 169.55C153.591 172.33 153.641 177.69 153.501 180.93C153.441 182.27 153.471 183.61 153.411 184.95C153.301 187.16 154.261 189.74 154.711 191.91C155.261 194.58 155.801 197.26 156.351 199.93C157.131 203.72 157.911 207.53 159.261 211.15C159.761 212.49 160.341 213.8 161.151 214.98C161.771 215.9 162.521 216.72 163.291 217.52C165.231 219.56 167.301 221.52 169.021 223.75C169.901 224.89 170.641 226.1 171.301 227.38C171.971 228.68 173.051 229.65 174.191 230.6C176.281 232.35 178.561 233.84 180.911 235.21C181.961 235.82 183.011 236.44 184.081 237.02C185.901 237.74 187.741 238.42 189.601 239.05C192.171 239.92 194.601 240.6 197.011 241.91C197.071 241.94 197.141 241.98 197.171 242.05C197.201 242.12 197.191 242.19 197.181 242.27C196.731 245.03 196.281 247.79 195.831 250.56C195.631 251.79 195.471 253.02 195.731 254.26C195.991 255.5 195.891 256.79 196.111 258.07C196.641 265.64 199.371 270.03 204.841 275.28C202.781 276.1 205.541 278.3 204.741 279.84C203.541 282.15 202.801 284.63 202.361 287.19C201.561 291.85 200.701 293.33 200.271 298.05C197.611 297.94 193.841 297.97 191.171 298.13C187.741 298.34 185.331 300.01 182.041 300.96C180.551 301.39 178.821 299.38 178.201 299.1C173.431 296.94 168.381 296.6 163.111 296.15C160.591 295.93 156.331 297.61 154.371 295.44C153.761 294.76 153.431 293.89 153.091 293.05C151.661 289.53 149.711 286.23 147.351 283.25C146.191 281.79 144.931 280.36 143.551 279.1C142.451 278.09 141.611 276.73 140.651 275.56C139.581 274.25 139.101 272.55 138.851 270.88C138.601 269.21 138.571 267.5 138.271 265.84C137.881 263.66 137.041 261.6 136.111 259.6C135.751 258.84 135.211 258.09 134.931 257.31C134.571 256.3 134.561 255.04 134.331 253.98C133.821 251.63 133.381 250.42 133.481 248.08C133.641 244.37 136.921 242.53 138.281 239.14C139.661 235.7 142.591 231.27 142.411 227.51C142.321 225.56 139.101 220.81 137.271 220.46C135.341 220.1 132.601 219.24 130.641 219.39C126.741 219.39 122.251 223.6 119.121 225.81C115.761 228.17 113.731 231.49 111.331 234.74C110.251 236.2 109.151 237.7 108.611 239.43C108.271 240.52 108.161 241.67 107.901 242.79C107.501 244.54 106.741 246.18 106.071 247.84C104.251 252.36 103.081 257.11 102.251 261.91C101.451 266.53 101.371 271.35 100.401 275.91C98.6011 284.36 105.421 310.25 106.331 312.21C107.201 314.06 107.431 316.23 108.091 318.14C109.491 322.18 112.501 324.64 114.541 328.58C115.621 330.67 117.061 332.54 118.501 334.4C120.251 336.67 121.991 338.93 123.741 341.2C124.631 342.35 125.521 343.51 126.611 344.47C127.971 345.68 129.591 346.54 131.131 347.53C133.441 349.02 135.561 350.78 137.811 352.35C141.471 354.9 145.461 356.91 149.441 358.92C152.981 360.7 156.531 362.49 160.291 363.71C162.451 364.41 164.671 364.92 166.891 365.43C169.381 366 171.871 366.58 174.361 367.15C177.651 367.91 180.991 368.67 184.391 368.73C187.391 368.78 190.261 367.97 193.241 367.73C194.351 367.64 195.591 367.57 196.821 367.36C196.961 367.36 197.091 367.37 197.231 367.37C204.191 367.28 211.241 365.2 215.951 359.97C217.771 358.84 219.521 357.59 221.191 356.24C223.511 354.36 226.241 352.01 227.551 349.15C229.381 349.27 230.341 346.79 229.291 345.52C229.311 345.51 229.321 345.5 229.341 345.49C233.511 342.93 235.471 338.73 236.131 334C236.461 331.65 236.741 329.33 237.531 327.07C238.291 324.89 239.421 322.86 240.621 320.9C241.841 318.91 243.161 317 244.441 315.05C245.151 313.96 245.681 312.84 245.461 311.51C245.251 310.27 244.631 309.06 244.261 307.85C243.091 304.04 242.581 300.03 242.751 296.04C242.831 294.26 242.911 292.89 243.861 291.42C244.821 289.95 245.461 288.18 245.921 286.5C246.121 285.77 246.281 285.01 246.231 284.25C246.161 283.15 245.661 282.12 245.101 281.16C244.561 280.25 243.961 279.37 243.281 278.55C242.701 277.86 242.061 277.21 241.521 276.49C239.721 274.08 239.171 271.04 238.951 268.1C238.861 266.86 238.541 265.48 238.581 264.26C238.611 263.5 238.991 262.74 239.121 261.99C239.171 261.73 239.151 259.96 239.271 259.88C239.661 259.62 240.011 259.24 240.311 258.71C240.731 257.97 240.851 257.15 241.351 256.45C241.551 256.17 241.781 255.94 242.021 255.73C242.971 256.42 244.441 256.47 245.271 255.2C247.121 252.36 249.041 249.3 251.871 247.33C252.061 247.2 251.771 245.29 251.561 243.64C252.721 244.95 254.201 245.95 255.831 246.74C257.301 248.12 259.171 249.04 261.131 249.59C262.031 250.06 262.961 250.5 263.911 250.9C264.211 251.02 264.531 251.04 264.851 250.99C265.131 251.26 265.471 251.47 265.881 251.56C266.711 251.74 267.531 251.84 268.351 251.92C271.121 252.27 273.921 252.42 276.701 252.24C277.101 252.21 277.491 252.17 277.881 252.11C282.371 253.12 287.441 251.68 290.561 248.26C290.831 248.13 291.091 247.98 291.341 247.82C293.781 246.22 295.331 243.77 296.621 241.22C297.461 241.06 298.161 240.4 298.461 239.61C302.321 240.1 306.191 239.93 310.031 239.37C313.471 239.19 317.161 239.12 320.351 237.87C320.941 237.64 321.441 237.25 321.771 236.76C326.161 235.53 330.511 233.98 334.341 231.58C344.261 225.38 349.791 213.85 349.461 202.29C349.341 198.83 348.771 195.35 347.761 192.04Z" 
fill="selectedBodyColor"/>
<path d="M302.381 303.48C302.161 299.16 301.481 294.86 300.361 290.69C300.341 290.62 300.311 290.56 300.291 290.5C300.361 290.17 300.351 289.83 300.241 289.51C299.601 287.64 298.521 286.14 297.231 284.68C296.691 284.07 296.131 283.22 295.501 282.71C295.541 282.56 295.581 282.41 295.621 282.26C295.751 281.73 295.861 281.2 295.951 280.67C296.741 276.24 296.591 271.73 295.481 267.37C295.351 266.86 295.031 266.44 294.621 266.16C294.161 263.96 293.141 261.92 291.721 260.19C291.621 259.94 291.511 259.68 291.411 259.42C290.911 258.2 290.351 257.08 289.611 256C289.251 255.47 288.881 254.95 288.541 254.41C288.341 254.09 288.151 253.76 287.951 253.43C287.931 253.39 287.821 253.19 287.721 253.02C287.591 252.23 286.861 251.39 286.141 251.26C286.121 251.26 286.101 251.25 286.081 251.25C285.031 251.06 283.821 251.51 283.461 252.63C280.481 251.68 277.301 251.88 274.201 251.46C270.701 250.98 262.911 250.85 259.621 249.51C258.141 248.91 256.721 248.14 255.391 247.25C254.021 246.34 249.191 243.53 249.191 243.53C249.191 243.53 246.511 243.55 244.261 246.05C241.661 248.95 241.241 253.61 239.951 257.27C239.731 257.91 239.261 258.39 239.101 259.05C238.881 259.93 238.841 260.96 238.731 261.87C238.491 263.93 238.391 266.01 238.461 268.08C238.501 269.56 238.631 271.05 239.051 272.46C239.461 273.84 240.141 275.13 240.871 276.37C241.821 278 242.871 279.57 244.001 281.08C244.341 281.54 244.701 282 244.921 282.53C245.161 283.12 245.221 283.76 245.271 284.39C245.391 285.87 245.441 287.4 244.901 288.81C244.441 290.02 243.681 291.1 243.121 292.26C242.031 294.53 241.251 296.99 240.961 299.5C240.351 304.85 242.291 309.97 246.691 313.19C246.631 313.39 243.591 313.98 242.271 316.09C240.711 318.6 239.291 321.1 238.181 323.86C237.101 326.55 236.311 329.35 235.871 332.23C235.761 332.97 235.591 333.81 235.501 334.64C235.261 334.81 235.071 335.04 234.931 335.32C231.521 342.41 228.041 349.91 222.461 355.5C219.891 358.08 216.991 360.25 213.991 362.28C212.431 363.33 210.841 364.49 209.101 365.23C207.441 365.93 205.631 365.76 203.971 366.4C201.741 367.26 201.981 370.72 204.551 370.79C204.731 370.79 204.951 370.79 205.131 370.87C205.541 371.05 205.981 371.14 206.391 371.12C211.361 372.06 216.401 372.59 221.461 372.59C223.781 372.59 226.101 372.49 228.431 372.38C228.501 372.4 228.561 372.43 228.641 372.44C228.841 372.48 229.031 372.49 229.221 372.52C229.281 372.53 229.341 372.52 229.401 372.53C229.631 372.55 229.871 372.57 230.101 372.57C232.421 372.71 234.731 372.52 237.011 372.02C237.201 371.98 237.361 371.91 237.511 371.84C240.501 371.85 243.501 371.68 246.471 371.3C248.421 371.05 250.371 370.77 252.251 370.2C254.101 369.64 255.821 368.74 257.561 367.9C259.161 367.13 260.841 366.74 262.551 366.31C264.411 365.84 266.181 365.16 267.831 364.16C270.871 362.32 273.871 359.94 276.271 357.27C278.181 355.15 279.141 352.35 281.391 350.67C284.141 348.62 286.881 346.57 289.621 344.52C291.771 342.91 293.961 341.28 295.581 339.13C296.741 337.6 297.591 335.77 297.781 333.85C297.861 332.98 297.711 332.18 297.941 331.36C298.221 330.33 298.731 329.29 299.131 328.29C299.191 328.21 299.261 328.14 299.311 328.05C300.111 326.75 300.341 325.3 300.491 323.79C300.631 322.3 300.761 320.8 300.751 319.31C300.731 317.03 300.351 314.68 299.331 312.63C300.161 311.72 300.931 310.75 301.471 309.64C302.431 307.7 302.491 305.63 302.381 303.48Z" 
fill="selectedBellyColor"/>
<path d="M250.721 259.12L253.581 262.23L254.371 268.53L251.381 272.7L246.851 272.13L244.881 265.14L247.011 260.59L250.721 259.12Z" 
fill="selectedSpotColor"/>
<path d="M253.701 295.25L256.761 298.44L257.031 304.48L253.171 307.6L248.281 306.6L247.111 299.37L249.281 294.73L253.701 295.25Z" 
fill="selectedSpotColor"/>
<path d="M249.461 326.79L252.281 330.22L251.761 335.87L247.271 338.19L242.231 336.54L242.381 330.84L244.521 327.11L249.461 326.79Z" 
fill="selectedSpotColor"/>
<path d="M254.301 222.79C255.841 224.37 257.871 225.75 259.941 226.99C262.031 228.22 264.221 229.33 266.461 230.33C270.951 232.34 275.651 233.93 280.441 235.18C285.231 236.43 290.111 237.31 295.021 237.83C299.941 238.35 304.871 238.53 309.751 238.14C314.631 237.74 319.471 236.85 324.071 235.31C328.661 233.77 333.041 231.59 336.731 228.61C338.591 227.14 340.231 225.43 341.671 223.58C343.061 221.73 344.251 219.61 345.291 217.46C347.311 213.13 348.441 208.44 348.401 203.71C348.391 201.35 348.101 198.99 347.561 196.67C347.011 194.35 346.251 192.07 345.221 190.02C344.181 187.96 342.811 186.09 341.191 184.36C339.551 182.62 337.771 181 335.841 179.66C333.911 178.3 331.811 177.18 329.621 176.3L326.091 174.96C324.891 174.48 323.681 173.98 322.471 173.4C321.261 172.82 320.051 172.15 318.881 171.3C318.291 170.88 317.711 170.39 317.171 169.83C316.621 169.28 316.111 168.58 315.731 167.94C314.961 166.62 314.491 165.41 313.991 164.24C313.501 163.07 313.021 161.93 312.521 160.81C308.481 151.8 303.031 143.43 295.801 136.82C292.201 133.51 288.261 130.5 284.051 128.05C279.811 125.59 275.311 123.52 270.671 121.82C266.031 120.12 261.251 118.77 256.421 117.76C251.591 116.75 246.701 116.21 241.771 116.12C236.841 116.03 231.841 116.3 226.901 116.79C221.961 117.29 217.051 118.06 212.251 119.22C202.641 121.53 193.441 125.39 185.111 130.7C176.791 135.93 169.481 142.79 164.221 151.02C158.921 159.22 155.821 168.75 155.091 178.5C154.711 183.37 154.881 188.32 155.591 193.12C155.991 195.52 156.511 197.89 157.201 200.22C157.921 202.53 158.771 204.81 159.791 207.01C161.851 211.41 164.511 215.52 167.631 219.3C169.181 221.18 170.841 223.03 172.591 224.71L173.901 225.96L175.281 227.14C176.181 227.95 177.181 228.65 178.141 229.4C180.111 230.82 182.161 232.16 184.301 233.34C186.421 234.56 188.621 235.65 190.861 236.65C195.341 238.61 200.041 240.33 204.731 241.41L204.791 241.42C205.651 241.62 206.181 242.47 205.991 243.33C205.811 244.13 205.061 244.64 204.271 244.56C201.611 244.27 199.081 243.72 196.581 243C194.091 242.28 191.621 241.47 189.241 240.44C184.451 238.44 179.861 235.92 175.641 232.83C174.601 232.03 173.541 231.27 172.551 230.4L171.051 229.12L169.621 227.75C167.731 225.93 166.011 224.01 164.351 222C161.031 217.99 158.171 213.56 155.941 208.81C154.831 206.43 153.921 203.96 153.141 201.46C152.391 198.94 151.831 196.38 151.401 193.79C150.631 188.6 150.461 183.39 150.861 178.19C151.631 167.8 154.971 157.53 160.651 148.75C166.281 139.93 174.081 132.64 182.841 127.14C191.551 121.59 201.231 117.54 211.261 115.12C216.281 113.91 221.371 113.11 226.481 112.59C231.591 112.08 236.691 111.81 241.861 111.9C247.021 112 252.221 112.57 257.281 113.63C262.331 114.68 267.301 116.08 272.141 117.86C276.981 119.64 281.701 121.79 286.201 124.41C290.721 127.04 294.861 130.2 298.691 133.73C306.401 140.78 312.191 149.71 316.401 159.1C316.931 160.28 317.431 161.47 317.911 162.63C318.401 163.78 318.861 164.93 319.381 165.79C320.271 167.36 322.201 168.57 324.331 169.61C325.401 170.12 326.521 170.6 327.661 171.05L331.211 172.4C333.701 173.4 336.091 174.67 338.291 176.22C339.391 176.99 340.451 177.82 341.451 178.72C342.451 179.61 343.381 180.52 344.301 181.5C346.131 183.45 347.781 185.69 349.021 188.14C350.261 190.6 351.101 193.15 351.711 195.74C352.321 198.34 352.651 201.03 352.661 203.72C352.711 209.11 351.411 214.47 349.151 219.29C348.561 220.48 347.971 221.67 347.291 222.81C346.671 223.96 345.861 225.1 345.071 226.19C343.411 228.33 341.521 230.28 339.421 231.95C335.241 235.32 330.421 237.7 325.451 239.37C320.471 241.04 315.301 241.98 310.121 242.41C304.931 242.83 299.721 242.63 294.601 242.09C289.471 241.54 284.391 240.56 279.411 239.23C274.431 237.89 269.541 236.2 264.831 234.05C262.471 232.98 260.161 231.78 257.921 230.4C255.691 229 253.511 227.5 251.551 225.43C250.831 224.66 250.861 223.46 251.621 222.73C252.381 222.01 253.571 222.04 254.301 222.78V222.79Z" fill="black"/>
<path d="M247.441 228.13C248.151 226.14 249.151 224.1 250.821 222.34C251.641 221.46 252.671 220.72 253.781 220.17C254.901 219.64 256.091 219.33 257.241 219.24C258.291 219.16 259.221 219.95 259.301 221C259.371 221.92 258.781 222.74 257.921 222.99L257.881 223C256.241 223.47 254.961 224.15 253.841 225.28C252.721 226.4 251.811 227.96 250.951 229.61L250.931 229.65C250.441 230.59 249.291 230.95 248.351 230.46C247.501 230.02 247.121 229.01 247.441 228.13Z" fill="black"/>
<path d="M326.251 201.61C328.201 202.1 330.561 202.76 332.531 204.33C333.401 205.02 333.551 206.29 332.861 207.16C332.191 208.01 330.971 208.17 330.101 207.54L330.081 207.52C329.461 207.07 328.741 206.72 327.931 206.43C327.121 206.14 326.251 205.94 325.251 205.72C324.111 205.47 323.381 204.34 323.631 203.19C323.881 202.05 325.011 201.32 326.161 201.58C326.181 201.58 326.201 201.59 326.211 201.59L326.251 201.61Z" fill="black"/>
<path d="M337.861 202.16C338.011 201.53 338.091 200.98 338.111 200.35C338.141 199.73 338.121 199.05 338.081 198.36C338.021 197.19 338.931 196.19 340.101 196.14C341.271 196.08 342.271 196.99 342.321 198.16C342.321 198.23 342.321 198.3 342.321 198.37C342.281 199.14 342.231 199.93 342.111 200.77C342.001 201.6 341.781 202.49 341.501 203.27C341.151 204.27 340.061 204.79 339.061 204.44C338.131 204.11 337.611 203.14 337.831 202.2L337.861 202.16Z" fill="black"/>
<path d="M300.261 240.69C299.961 242.32 299.291 243.72 298.481 244.94C297.671 246.17 296.711 247.24 295.671 248.19C293.551 250.07 291.211 251.47 288.581 252.5C285.961 253.49 283.281 253.9 280.671 254.15C279.361 254.27 278.061 254.33 276.771 254.36C275.461 254.38 274.251 254.41 272.851 254.32C267.381 253.98 262.411 252.07 257.781 249.84C255.461 248.7 253.221 247.45 251.051 246.1L249.431 245.07C249.221 244.92 248.701 244.62 248.991 244.76C249.131 244.79 249.141 244.74 248.991 244.79C248.691 244.86 248.151 245.16 247.591 245.48C247.001 245.79 246.351 246.18 245.431 246.39L245.391 246.4C244.531 246.6 243.681 246.06 243.481 245.21C243.281 244.35 243.821 243.5 244.671 243.3C244.711 243.29 244.751 243.28 244.781 243.28C245.091 243.23 245.571 243.04 246.081 242.75C246.621 242.47 247.151 242.1 248.061 241.79C248.501 241.65 249.161 241.51 249.911 241.73C250.271 241.83 250.661 242.08 250.711 242.11L251.111 242.34L252.711 243.26C254.861 244.47 257.051 245.57 259.291 246.55C263.751 248.48 268.441 249.95 273.041 250.12C277.791 250.17 282.861 249.95 287.031 248.4C289.071 247.61 291.121 246.41 292.741 244.95C294.371 243.52 295.741 241.66 296.081 239.95L296.091 239.9C296.321 238.75 297.431 238.01 298.581 238.23C299.731 238.45 300.471 239.55 300.261 240.69Z" fill="black"/>
<path d="M254.791 265.27C255.581 269.02 254.191 272.74 250.831 273.43C248.161 273.97 245.441 271.43 244.721 267.35C244.071 263.64 245.321 259.98 248.491 259.03C250.831 258.33 253.751 260.37 254.791 265.27Z" stroke="black" stroke-width="3" stroke-miterlimit="10" stroke-linecap="round" stroke-linejoin="round"/>
<path d="M257.581 298.99C258.491 302.43 258.101 306.3 254.441 307.52C251.671 308.44 248.261 307.05 247.241 303.25C246.391 300.12 247.041 295.78 250.031 294.36C252.891 293 256.531 295.05 257.581 298.99Z" stroke="black" stroke-width="3" stroke-miterlimit="10" stroke-linecap="round" stroke-linejoin="round"/>
<path d="M251.131 335.51C249.501 338.34 246.431 340.02 243.571 337.98C241.511 336.51 241.461 333.04 243.011 329.74C244.421 326.74 247.251 325.34 249.851 326.35C252.031 327.2 253.731 330.99 251.131 335.51Z" stroke="black" stroke-width="3" stroke-miterlimit="10" stroke-linecap="round" stroke-linejoin="round"/>
<path d="M198.881 242.58C198.101 243.85 197.641 245.7 197.431 247.56C197.221 249.44 197.221 251.39 197.371 253.33C197.531 255.27 197.841 257.2 198.341 259.05C198.471 259.51 198.581 259.97 198.741 260.41C198.871 260.86 199.031 261.3 199.211 261.71C199.371 262.15 199.571 262.52 199.761 262.91C199.951 263.3 200.261 263.76 200.501 264.19C202.581 267.64 204.911 270.85 207.751 273.52C210.571 276.2 213.911 278.28 217.541 279.8H217.551C218.521 280.21 218.981 281.33 218.571 282.3C218.171 283.26 217.061 283.72 216.091 283.33C212.081 281.71 208.261 279.39 205.051 276.41C201.821 273.44 199.241 269.92 197.011 266.32C196.731 265.85 196.461 265.45 196.181 264.93C195.891 264.41 195.591 263.88 195.381 263.35C195.131 262.82 194.931 262.29 194.751 261.76C194.551 261.23 194.391 260.69 194.251 260.16C193.671 258.01 193.331 255.85 193.151 253.67C192.981 251.49 192.971 249.3 193.221 247.07C193.501 244.85 193.951 242.56 195.331 240.28C195.941 239.28 197.241 238.96 198.241 239.56C199.241 240.16 199.561 241.47 198.961 242.47L198.951 242.48L198.881 242.58Z" fill="black"/>
<path d="M206.491 276.54C205.901 277.35 205.351 278.52 204.901 279.65C204.431 280.8 204.041 282.01 203.691 283.23C203.011 285.68 202.571 288.23 202.351 290.78C202.151 293.34 202.121 295.91 202.301 298.48C202.521 301.04 202.971 303.58 203.541 306.09L203.551 306.15C203.791 307.18 203.141 308.2 202.121 308.44C201.131 308.67 200.151 308.08 199.861 307.12C199.061 304.43 198.501 301.66 198.201 298.86C197.931 296.06 197.871 293.23 198.111 290.43C198.341 287.62 198.801 284.83 199.561 282.09C199.951 280.72 200.361 279.36 200.941 278.02C201.511 276.67 202.101 275.37 203.101 274C203.791 273.05 205.121 272.85 206.061 273.54C207.011 274.23 207.211 275.56 206.521 276.5L206.491 276.54Z" fill="black"/>
<path d="M182.381 303.87C180.411 305.57 178.741 307.85 177.391 310.29C176.041 312.74 174.971 315.38 174.251 318.09V318.1C173.981 319.12 172.931 319.72 171.921 319.45C170.921 319.18 170.311 318.16 170.561 317.16C171.301 314.11 172.401 311.17 173.861 308.38C175.331 305.6 177.131 302.94 179.611 300.68C180.481 299.89 181.821 299.96 182.611 300.82C183.401 301.69 183.331 303.03 182.471 303.82C182.461 303.83 182.451 303.84 182.441 303.85L182.381 303.87Z" fill="black"/>
<path d="M200.231 298.04C196.731 296.76 187.791 297.75 181.001 302.27" stroke="black" stroke-width="4.24" stroke-miterlimit="10" stroke-linecap="round" stroke-linejoin="round"/>
<path d="M154.201 296.98C156.511 295.85 158.881 295.15 161.191 294.91C170.941 293.9 179.541 297.95 180.991 302.27" stroke="black" stroke-width="4.24" stroke-miterlimit="10" stroke-linecap="round" stroke-linejoin="round"/>
<path d="M143.731 303.19C146.531 300.28 149.561 297.43 153.141 295.15L153.151 295.14C154.141 294.51 155.451 294.8 156.081 295.78C156.711 296.77 156.421 298.08 155.441 298.71C155.391 298.74 155.331 298.78 155.271 298.81C151.951 300.54 148.881 302.91 145.921 305.49C145.261 306.07 144.251 306 143.671 305.34C143.131 304.72 143.161 303.78 143.731 303.19Z" fill="black"/>
<path d="M153.881 296.2C153.271 291.25 152.131 286.54 149.021 282.39C145.841 278.14 141.741 275.03 138.611 274.55C139.881 266.79 136.581 257.38 132.541 253.73" stroke="black" stroke-width="4.24" stroke-miterlimit="10" stroke-linecap="round" stroke-linejoin="round"/>
<path d="M122.921 279.21C126.971 277.97 135.961 274.59 138.621 274.96" stroke="black" stroke-width="3.18" stroke-miterlimit="10" stroke-linecap="round" stroke-linejoin="round"/>
<path d="M198.901 365.53C202.061 367.15 205.511 368.3 209.041 369.17C212.581 370.03 216.241 370.48 219.911 370.81C227.261 371.38 234.731 371.13 242.061 370.11C245.731 369.6 249.311 368.91 252.791 367.8C256.331 366.7 259.801 365.43 263.091 363.88C266.351 362.3 269.461 360.43 272.021 358.06C273.311 356.88 274.421 355.57 275.401 354.18C276.361 352.77 277.111 351.25 277.731 349.65L277.771 349.56C278.151 348.58 279.261 348.1 280.241 348.48C281.161 348.84 281.641 349.84 281.381 350.77C280.821 352.76 279.991 354.7 278.881 356.46C277.721 358.18 276.421 359.8 274.901 361.17C271.901 363.94 268.451 366.01 264.931 367.72C261.391 369.4 257.741 370.74 254.061 371.88C250.331 373.07 246.461 373.82 242.661 374.36C235.011 375.43 227.291 375.7 219.571 375.12C215.711 374.77 211.861 374.27 208.051 373.33C204.251 372.38 200.491 371.12 196.921 369.27C195.881 368.73 195.471 367.45 196.011 366.41C196.551 365.37 197.821 364.97 198.861 365.5L198.901 365.53Z" fill="black"/>
<path d="M285.721 250.56C288.171 252.89 290.461 255.39 292.541 258.09C294.621 260.79 296.521 263.67 297.901 267.02C299.251 270.42 299.791 273.93 299.771 277.52C299.741 279.32 299.531 281.14 298.991 282.98C298.461 284.8 297.531 286.69 295.871 288.18C295.001 288.96 293.661 288.89 292.881 288.02C292.111 287.16 292.171 285.84 293.011 285.06L293.051 285.03C293.851 284.28 294.451 283.1 294.831 281.76C295.221 280.42 295.391 278.93 295.431 277.43C295.501 274.43 295.051 271.28 294.061 268.5C293.031 265.68 291.341 262.93 289.531 260.31C287.691 257.69 285.661 255.17 283.471 252.8L283.461 252.79C282.861 252.14 282.901 251.14 283.551 250.54C284.161 249.98 285.121 249.99 285.721 250.56Z" fill="black"/>
<path d="M244.141 250.57C242.511 252.57 241.461 255.06 240.771 257.65C240.421 258.95 240.201 260.29 240.061 261.64C239.911 262.99 239.851 264.35 239.891 265.69C239.981 271.1 241.931 276.15 245.201 280.48L245.211 280.5C245.741 281.2 245.601 282.21 244.901 282.74C244.291 283.2 243.441 283.16 242.891 282.67C240.541 280.61 238.661 277.96 237.471 275.01C236.261 272.07 235.731 268.88 235.701 265.77C235.691 262.66 236.111 259.56 237.061 256.58C238.001 253.61 239.481 250.7 241.811 248.4C242.441 247.78 243.441 247.79 244.061 248.42C244.631 249 244.671 249.91 244.161 250.54L244.141 250.57Z" fill="black"/>
<path d="M245.731 289.57C244.631 291.73 243.711 293.95 243.041 296.19C242.391 298.43 242.091 300.73 242.281 302.9C242.481 305.07 243.221 307.06 244.501 308.68C245.751 310.33 247.521 311.61 249.551 312.76L249.581 312.78C250.351 313.22 250.621 314.2 250.191 314.97C249.831 315.6 249.121 315.89 248.451 315.75C245.761 315.16 243.111 313.65 241.221 311.33C239.331 309.02 238.311 306.06 238.151 303.21C237.951 300.34 238.531 297.58 239.411 295.03C240.291 292.47 241.571 290.13 243.001 287.94C243.481 287.21 244.471 287 245.201 287.48C245.881 287.93 246.111 288.82 245.751 289.53L245.731 289.57Z" fill="black"/>
<path d="M243.651 318.72C242.401 320.14 241.351 321.77 240.411 323.45C239.491 325.14 238.721 326.92 238.171 328.74C237.061 332.37 236.771 336.22 237.791 339.41L237.801 339.45C238.161 340.56 237.541 341.76 236.431 342.12C235.361 342.46 234.211 341.9 233.811 340.87C232.931 338.61 232.751 336.21 232.931 333.96C233.121 331.69 233.681 329.53 234.431 327.48C235.181 325.42 236.151 323.48 237.291 321.63C238.431 319.79 239.781 318.07 241.341 316.52C241.961 315.9 242.971 315.9 243.591 316.53C244.181 317.13 244.201 318.07 243.661 318.7L243.651 318.72Z" fill="black"/>
<path d="M255.811 284.01C258.111 285.35 260.731 286.23 263.391 286.9C266.061 287.57 268.811 287.98 271.591 288.21C274.371 288.44 277.171 288.5 279.951 288.38C280.651 288.36 281.341 288.31 282.031 288.25C282.721 288.21 283.411 288.14 284.091 288.08C285.421 287.96 286.871 287.8 287.921 287.55L288.101 287.51C288.901 287.32 289.711 287.82 289.901 288.63C290.061 289.33 289.711 290.03 289.091 290.32C287.451 291.1 286.031 291.32 284.531 291.58C283.051 291.81 281.571 291.92 280.101 291.96C277.151 292.06 274.211 291.98 271.281 291.71C268.351 291.44 265.421 290.9 262.551 290.12C259.681 289.32 256.851 288.21 254.251 286.56C253.551 286.12 253.341 285.19 253.791 284.49C254.221 283.81 255.121 283.59 255.811 284V284.01Z" fill="black"/>
<path d="M258.681 315.01C261.251 316.2 264.191 316.84 267.121 317.34C270.071 317.82 273.071 318.02 276.071 318.07C279.071 318.11 282.071 317.92 284.991 317.51C287.891 317.08 290.801 316.41 293.081 315.14L293.281 315.03C294.001 314.63 294.911 314.89 295.311 315.61C295.691 316.29 295.471 317.15 294.841 317.58C294.121 318.06 293.381 318.64 292.611 318.96L291.451 319.5L290.281 319.91C289.501 320.2 288.711 320.4 287.921 320.58C287.131 320.79 286.331 320.9 285.541 321.04C282.361 321.55 279.181 321.66 276.011 321.61C272.841 321.56 269.681 321.25 266.551 320.66C263.421 320.08 260.311 319.21 257.321 317.69C256.581 317.31 256.291 316.41 256.671 315.67C257.041 314.95 257.911 314.65 258.631 314.99L258.681 315.01Z" fill="black"/>
<path d="M298.921 313.39C305.331 305.41 303.381 290.86 296.301 284.02" stroke="black" stroke-width="4.24" stroke-miterlimit="10" stroke-linecap="round" stroke-linejoin="round"/>
<path d="M239.341 346.31C242.151 348.11 245.511 349.3 248.951 350.05C252.401 350.8 255.971 351.19 259.531 351.32C263.101 351.42 266.691 351.31 270.201 350.73C273.731 350.17 277.071 349.34 280.181 347.91C280.971 347.56 281.761 347.17 282.571 346.76C283.261 346.39 283.941 345.99 284.611 345.49C285.951 344.52 287.221 343.34 288.421 342.09C289.621 340.84 290.731 339.49 291.731 338.09C292.751 336.69 293.551 335.27 294.321 333.67C295.831 330.53 296.991 327.2 297.571 323.84C298.171 320.51 298.181 317.05 296.991 314.25V314.24C296.531 313.16 297.031 311.92 298.111 311.46C299.181 311 300.411 311.49 300.881 312.55C301.751 314.53 302.151 316.61 302.261 318.63C302.371 320.66 302.201 322.65 301.881 324.58C301.191 328.45 299.891 332.09 298.221 335.55C297.411 337.25 296.391 339.04 295.241 340.59C294.101 342.17 292.871 343.65 291.531 345.04C290.181 346.43 288.761 347.76 287.131 348.93C286.331 349.52 285.431 350.07 284.501 350.55C283.671 350.96 282.821 351.38 281.931 351.78C280.151 352.57 278.261 353.18 276.371 353.62C274.481 354.04 272.591 354.32 270.711 354.51C266.941 354.84 263.191 355.01 259.431 354.88C255.671 354.72 251.921 354.29 248.211 353.47C244.521 352.6 240.821 351.45 237.411 349.33C236.571 348.8 236.311 347.69 236.831 346.85C237.361 346.01 238.471 345.75 239.311 346.27L239.321 346.28L239.341 346.31Z" fill="black"/>
<path d="M231.681 343.49C229.291 349.67 225.441 355.47 220.271 359.89C215.111 364.32 208.771 367.28 202.221 368.75C195.671 370.21 189.021 370.57 182.421 370.25C175.831 369.86 169.281 368.81 162.941 367C156.581 365.24 150.421 362.74 144.631 359.53C141.751 357.92 138.951 356.21 136.251 354.32C133.541 352.46 130.911 350.44 128.431 348.27C123.421 343.97 118.941 339.02 115.101 333.64C111.281 328.24 108.061 322.46 105.531 316.32C103.071 310.18 101.261 303.82 100.061 297.36C98.8411 290.91 98.1811 284.36 98.0411 277.8C97.9111 271.23 98.3811 264.64 99.4611 258.14C100.561 251.65 102.301 245.2 105.111 239.11C107.901 232.97 112.051 227.42 117.311 223.08C118.631 221.99 120.041 221.01 121.541 220.12C122.291 219.67 123.051 219.28 123.881 218.89C124.711 218.52 125.561 218.21 126.421 217.95C128.141 217.44 129.931 217.15 131.771 217.13C133.601 217.11 135.501 217.38 137.321 218.1C139.131 218.81 140.841 220.08 142.041 221.64C143.231 223.18 144.051 224.99 144.441 226.88C145.241 230.7 144.221 234.54 142.521 237.64C141.671 239.22 140.641 240.64 139.521 241.97C139.231 242.29 138.951 242.62 138.661 242.94L137.911 243.75C137.591 244.14 137.291 244.66 137.051 245.27C136.561 246.49 136.261 247.96 135.991 249.52C135.851 250.3 135.721 251.11 135.531 251.98C135.431 252.42 135.321 252.88 135.141 253.4C134.931 253.91 134.761 254.56 133.881 255.36C132.981 256.11 131.641 255.98 130.901 255.07C130.151 254.17 130.281 252.83 131.191 252.09C130.921 252.35 131.091 252.24 131.151 251.99C131.231 251.75 131.321 251.43 131.391 251.08C131.541 250.38 131.671 249.59 131.811 248.79C132.101 247.18 132.401 245.46 133.111 243.69C133.461 242.8 133.941 241.89 134.641 241.03C135.071 240.55 135.261 240.36 135.531 240.06C135.791 239.79 136.021 239.5 136.271 239.22C137.221 238.08 138.091 236.88 138.761 235.62C140.131 233.11 140.781 230.31 140.241 227.76C139.971 226.49 139.431 225.3 138.651 224.29C137.881 223.3 136.911 222.58 135.731 222.11C133.371 221.17 130.371 221.3 127.651 222.1C126.271 222.49 125.031 223.09 123.741 223.86C122.471 224.61 121.231 225.48 120.071 226.44C115.401 230.31 111.631 235.35 109.121 240.94C106.541 246.57 104.931 252.68 103.861 258.87C102.821 265.08 102.361 271.4 102.481 277.7C102.761 290.31 104.951 303 109.601 314.65C114.361 326.23 121.781 336.79 131.271 344.97C133.631 347.04 136.121 348.96 138.721 350.74C141.291 352.55 144.001 354.2 146.731 355.74C152.201 358.78 158.051 361.16 164.111 362.85C170.151 364.58 176.401 365.59 182.661 365.97C188.911 366.29 195.241 365.94 201.281 364.6C207.271 363.22 212.981 360.67 217.671 356.77C222.421 352.93 226.091 347.85 228.781 342.21C229.161 341.42 230.111 341.08 230.901 341.46C231.651 341.82 232.001 342.7 231.701 343.46L231.681 343.49Z" fill="black"/>
<path d="M274.081 254.38C271.251 254.44 268.481 254.06 265.791 253.46C263.111 252.81 260.481 252 257.961 250.86C255.441 249.73 253.051 248.31 250.831 246.55C250.291 246.08 249.731 245.65 249.221 245.12L248.841 244.73C248.751 244.63 248.481 244.37 248.661 244.53C248.761 244.61 248.951 244.67 249.031 244.66C249.121 244.66 249.121 244.65 249.071 244.66C248.831 244.7 248.241 245.04 247.671 245.38C247.061 245.71 246.421 246.14 245.411 246.38L245.361 246.39C244.501 246.59 243.651 246.06 243.441 245.21C243.231 244.36 243.771 243.5 244.621 243.29C244.671 243.28 244.721 243.27 244.771 243.26C245.061 243.22 245.581 242.99 246.111 242.68C246.681 242.38 247.201 241.97 248.231 241.63C248.501 241.55 248.831 241.49 249.251 241.51C249.661 241.53 250.171 241.7 250.541 241.97L251.421 242.73C251.851 243.12 252.371 243.46 252.851 243.81C254.891 245.14 257.191 246.15 259.531 247.05C261.881 247.9 264.291 248.67 266.741 249.17C269.181 249.71 271.651 250.04 274.081 250.13H274.121C275.291 250.17 276.201 251.16 276.161 252.33C276.121 253.46 275.201 254.35 274.081 254.38Z" fill="black"/>
<path d="M121.811 254.72C125.181 255.37 130.101 255.2 132.301 253.43" stroke="black" stroke-width="3.18" stroke-miterlimit="10" stroke-linecap="round" stroke-linejoin="round"/>
</svg>
