<svg width="1280" height="1172" viewBox="0 0 1280 1172" fill="none" xmlns="http://www.w3.org/2000/svg">
<path d="M437.24 682.96L577.23 675.68L678.1 664.23L752.33 652.62L881.39 625.21L921.43 647.38L967.2 669.97L993.99 683.62L943.26 700.37L880.17 718.98L816.71 734.63L749.92 749.34L672.42 763.9L622.22 770.56L607.55 771.22L601.16 769.49L529.39 738.68L496.19 720.65L437.24 682.96Z" fill="#DEB887"/>
<path d="M446.42 721.26L475.79 740.52L511.66 760.52L575.05 792.2V872.75L556.74 865.22L501.76 830.35L447.92 784.42L444.99 746.21L446.42 721.26Z" fill="#B87B55"/>
<path d="M613.19 804.8L642.51 802.64L703.89 792.3L810.43 766.74C810.43 766.74 896.61 740.24 896.83 741.52C897.06 742.8 928.299 732.26 928.299 732.26L920.52 795.13L836.63 824.12L748.539 849.53L664.409 870.11L624.19 878.37L606.27 880.27L613.19 804.8Z" fill="#B87B55"/>
<path d="M436.07 684.37L538.8 742.72L579.79 761.86L607.55 771.22L707.95 757.23L859.16 724.16L955.39 697.32L993.99 683.62L992.15 705.6L953.1 722.43L856.77 754.68L754.28 781.64L661.24 800.56L608.02 805.64L598.99 802.96L527.23 768.3L452.72 727.01L439.31 714.73L436.49 697.92L436.07 684.37Z" fill="#DEB887"/>
<path d="M575.051 792.2L598.991 802.96L611.651 805.64L605.281 892.73L588.961 897.43L575.791 890.46L575.051 831.05V792.2Z" fill="#DEB887"/>
<path d="M928.299 732.28L942.789 726.17L962.849 720.31L949.74 803.99L931.659 812.17L920.52 803.16L928.299 732.28Z" fill="#DEB887"/>
<path d="M883.69 624.62C736.11 662.25 568.33 681.55 437.24 682.96C503.69 730.4 579.38 764.58 607.54 771.22C666.18 771.75 922.83 715.15 993.99 682.96C965.76 669.41 906.77 640.85 883.69 624.62Z" stroke="black" stroke-width="4" stroke-miterlimit="10" stroke-linecap="round" stroke-linejoin="round"/>
<path d="M993.99 682.96C994.91 687.05 994.58 701.29 992.39 705.45C943.92 733.4 675.5 810.65 602.65 804.44C576.86 794.37 464.35 739.8 439.5 715.33C435.79 703.8 437.24 682.95 437.24 682.95" stroke="black" stroke-width="4" stroke-miterlimit="10" stroke-linecap="round" stroke-linejoin="round"/>
<path d="M445.68 720.65C445.68 720.65 443.27 759.75 447.41 781.96C464.96 803.78 540.41 860.84 575.04 874.01" stroke="black" stroke-width="4" stroke-miterlimit="10" stroke-linecap="round" stroke-linejoin="round"/>
<path d="M576.269 793.08C576.269 793.08 574.349 873.15 575.329 890.09C582.319 895.74 589.849 897.43 589.849 897.43C596.059 895.17 605.289 892.72 605.289 892.72C605.289 892.72 610.559 828.64 611.689 804.82" stroke="black" stroke-width="4" stroke-miterlimit="10" stroke-linecap="round" stroke-linejoin="round"/>
<path d="M589.85 897.43C590.13 877.38 592.5 825.35 593.76 800.78" stroke="black" stroke-width="4" stroke-miterlimit="10" stroke-linecap="round" stroke-linejoin="round"/>
<path d="M606.26 880.29C647.07 880.68 893.03 809.26 920.52 794.2" stroke="black" stroke-width="4" stroke-miterlimit="10" stroke-linecap="round" stroke-linejoin="round"/>
<path d="M927.469 731.5L920.52 803.16L932.979 813.23C932.979 813.23 941.679 748.91 942.799 727.37" stroke="black" stroke-width="4" stroke-miterlimit="10" stroke-linecap="round" stroke-linejoin="round"/>
<path d="M963.021 718.65C959.061 756.48 952.331 797.61 949.741 803.99L932.971 813.24" stroke="black" stroke-width="4" stroke-miterlimit="10" stroke-linecap="round" stroke-linejoin="round"/>
</svg>
