<svg width="100%" height="100%" viewBox="0 0 1280 1172" fill="none" xmlns="http://www.w3.org/2000/svg">
<path d="M1280 0H0V1172H1280V0Z" fill="with #FFAA00" style="pointer-events: none;"/>
<path d="M159.938 12.9L178.838 55.01L197.698 91.06L227.098 136.74L244.928 155.62L262.698 171.06L264.198 180.66L256.838 186.35L246.968 187.58L243.168 193.17L235.608 197.28L231.298 199.22L227.098 185.91L220.078 185.17L213.178 194.03L205.308 196.4L195.988 192.66L193.098 200.77L185.218 207.2L174.388 211.08H172.838L168.248 214.82L160.768 213.9L158.788 213.06L152.878 218.88L147.288 220.89L134.888 217.85L132.888 218.21L128.018 222.74L120.928 228.51L108.318 231.65L94.9781 230.56L88.6981 226.04L84.5781 215.95L86.7981 204.09L94.6281 194.77L103.518 180.73L108.038 171.06L116.018 153.55L124.628 131.17L129.568 115.5L142.768 60.73L142.168 51.75L142.908 19.71L146.408 11.04L151.288 8.20996L157.618 10.08L159.938 12.9Z" fill="#DAED95"/>
<path d="M219.637 183.76L227.097 185.91L228.577 194.34L234.607 204.66L248.937 229.43L264.197 252.16L285.007 278.28L302.017 293.46L314.087 303.06L315.967 313.46L310.977 323.1L305.127 329.35L293.827 332.56L287.017 333.41L283.517 333.37L282.107 325.86L272.007 330.75L268.207 332.42L265.147 338.29L259.587 344.35L250.147 347.1L241.277 346.23L230.647 338.84L229.807 349.15L226.697 354.27L214.507 357.55L211.447 362.4L206.087 366.65H198.537L194.977 368.91L183.777 371.84L175.737 370.04L169.667 367.27L165.217 363.48L151.667 367.51L144.317 365.03L136.837 361.29L132.817 355.08L125.457 362.27L118.887 365.94L111.357 366.76L104.237 365.9L100.717 365.96L96.3274 365.87L86.7774 359.19L83.8274 355.15L80.9374 357.08L66.1374 356.36L60.6074 352.42L56.7474 345.62V336.37L53.3274 334.04L51.3574 326.84L54.9574 318.44L59.8874 311.5L71.7574 302.56L81.2874 294.02L98.5074 275.95L107.047 265.22L115.267 247.51L118.647 237.48V229.08L134.367 216.51L141.147 220.18L152.877 218.88L160.837 213.13L166.067 213.9L172.067 209.96L178.627 209.1L190.697 204.73L195.987 193.57L203.967 195.55L213.177 194.03L217.877 189.55L219.637 183.76Z" fill="#9BD793"/>
<path d="M281.619 325.74L289.059 352.8L301.309 374.39L314.419 390.46L329.759 401.2L339.399 410.45V417.1L335.069 423.34L334.259 430.74L329.229 434.74L328.189 437.37L322.429 445.2L314.669 447.35H308.609L310.519 456.15L307.069 459.87L296.589 463.35L291.229 463.14L288.119 463.35L281.629 468.2L272.569 469.29H261.769L253.449 465.05L248.929 471.71L240.329 476.69L228.229 477.13L224.469 475L219.189 478.02L211.139 475.43L205.319 463.75L197.399 472.14L186.909 472.23L177.689 469.74L168.429 469.95L159.149 471.93L149.779 465.98L147.649 461.4L139.169 467.05L123.509 465.52L120.529 463.27L115.329 464.26L102.889 458.33L88.9287 461L80.3487 459.22L78.2087 462.32L74.2587 463.73L61.0587 461.47L55.0087 455.08L54.1387 450.38L42.5487 447.48L35.8487 440.61L33.7487 434.52L30.6387 427.18L34.7487 418.44L48.7187 412.08L61.4287 408.13L77.0887 397.98L88.4387 381.97L94.0687 365.29L98.8387 366.35L107.869 366.38L111.409 366.81L121.859 365.29L132.869 355.13L136.889 361.34L141.199 365.29L149.499 366.81L165.269 363.53L169.719 367.32L180.589 371.15L195.029 368.96L199.929 366.81L207.839 365.36L213.289 359.62L214.569 357.59C214.569 357.59 216.879 356.88 217.299 356.88C217.719 356.88 224.919 354.31 224.919 354.31L229.969 347.82L230.709 338.89L241.339 346.28L252.589 346.73L260.499 341.79L265.209 338.34L268.259 332.47L274.189 330.35L281.619 325.74Z" fill="#5BC092"/>
<path d="M80.1283 460.18L82.6983 458.63L95.5983 460.18L103.638 458.63L108.738 462.75L115.548 464.7L119.828 463.9L129.848 467.86L143.308 465.88L148.348 461.08L152.818 469.78L162.938 471.88L170.508 469.5L178.318 469.31L187.268 473.41L197.238 471.62L205.668 465.31L211.548 475.24L219.118 477.36L224.388 475.71L235.208 476.87L244.108 474.91L251.968 469.47L254.228 465.64L263.778 468.61L279.358 467.24L289.008 461.88L293.478 463.13L304.568 461.67L308.158 457.74L309.978 453.71L309.098 447.34L314.788 448L316.508 447.89L329.848 473L343.068 489.67L361.588 509.5L370.348 521.67L370.998 532.25L367.448 542.56L358.418 553.01L349.118 556.11L339.928 556.81L329.408 555.97L326.658 562.4L318.078 571.62L306.908 575.53L294.358 575.76L280.698 572.49L272.368 566.56L269.898 577.15L267.378 582.05L258.388 585.83L246.878 585.2L237.848 579.05L232.278 589.44L226.138 594.3L211.308 602L195.838 603.62L188.688 601.13L182.368 594.8L181.448 584.56L174.358 591.46L170.418 594.25L157.238 597.11L145.978 594.94L140.588 590.49L137.468 590.74L131.908 587.91L122.718 592.16L117.878 592.11L109.978 589.59L102.178 581.24L100.498 571.01V559.78L93.4683 564.74L78.1883 569.2L63.6383 568.33L58.0983 563.1L53.8983 562.68L44.9983 555.91L41.5083 549.22L38.2283 549.84L30.0483 554.11L16.4883 554.02L7.31828 548.6L5.48828 540.32L9.27828 532.18L22.4183 523.71L37.6683 514.11L55.3083 497.74L73.4083 478.02L78.6083 465.41L80.1283 460.18Z" fill="#1CAA90"/>
<path d="M145.179 594.28L158.509 597.78L169.239 596.03L181.569 585.81L187.819 600.25L197.669 604.47L214.039 601.17L213.189 640.79L214.039 677.03L217.339 693.22L222.709 701.72L221.099 712.89L218.149 726.29L213.569 730.68L200.679 730.21L193.019 726.35L184.079 728.8L174.649 727.9L165.669 724.16L157.379 730.68L150.469 732.26L144.769 729.64L139.919 726L137.899 722.68H134.229L126.599 720.07L121.999 712.89L116.629 715.52L112.109 714.11L105.459 709.97L106.749 700.75L108.629 698.03L101.379 697.36V691.9L103.739 688.32L122.179 678.25L133.379 662.44L143.549 638.16L144.109 623.95L146.469 599.67L145.179 594.28Z" fill="#875137"/>
<path d="M241.451 182.7C250.701 189.76 261.171 186.66 263.611 179.66C266.291 171.97 259.161 166.25 254.221 162.86C249.281 159.47 239.401 151.85 229.231 139.42C219.071 127 206.641 106.38 198.881 93.11C191.121 79.84 178.411 54.57 174.741 46.38C171.071 38.19 165.001 24.85 163.401 20.36C160.101 11.1 156.601 7.68002 151.821 8.12002C146.501 8.61002 142.971 13.77 142.971 24.59C142.971 27.68 142.871 47.68 141.461 59.7C139.011 80.59 131.671 106.19 127.151 121.63C122.631 137.07 110.401 168.5 102.871 181.87C95.3411 195.23 90.5211 199.92 87.5511 204.22C84.5811 208.52 82.1111 218.34 88.8911 225.61C95.6711 232.88 111.551 232.67 118.541 229.7C125.531 226.74 131.391 219.04 132.661 216.92" stroke="black" stroke-width="4" stroke-miterlimit="10" stroke-linecap="round" stroke-linejoin="round"/>
<path d="M241.811 178.89C241.591 181.44 239.101 184.53 234.751 185.81C230.901 186.94 224.441 186.37 220.791 183.48" stroke="black" stroke-width="4" stroke-miterlimit="10" stroke-linecap="round" stroke-linejoin="round"/>
<path d="M212.58 166.11C215.76 168.79 224.45 180.54 217.38 190.11C210.18 199.85 198.74 194.98 195.99 191.8" stroke="black" stroke-width="4" stroke-miterlimit="10" stroke-linecap="round" stroke-linejoin="round"/>
<path d="M195.43 186.87C195.71 189.34 195.99 198.92 189.57 204.23C183.66 209.12 177.78 210.3 172.42 209.88" stroke="black" stroke-width="4" stroke-miterlimit="10" stroke-linecap="round" stroke-linejoin="round"/>
<path d="M160.34 211.63C161.13 213.16 163.63 214.19 166.16 213.83C169.48 213.36 171.75 211.29 172.42 209.1" stroke="black" stroke-width="4" stroke-miterlimit="10" stroke-linecap="round" stroke-linejoin="round"/>
<path d="M134.651 190.82C128.301 196.54 127.101 207.71 130.461 213.14C133.811 218.56 139.101 220.75 145.171 220.39C152.781 219.95 157.591 217.57 160.331 211.62" stroke="black" stroke-width="4" stroke-miterlimit="10" stroke-linecap="round" stroke-linejoin="round"/>
<path d="M227.131 186.06C226.741 191.76 229.851 197.72 232.341 202.11C252.811 238.25 270.031 259.24 279.821 270.91C289.611 282.58 298.641 290.11 305.421 295.19C312.201 300.27 317.281 306.67 315.961 313.45C314.641 320.23 308.241 335.47 284.151 333.21" stroke="black" stroke-width="4" stroke-miterlimit="10" stroke-linecap="round" stroke-linejoin="round"/>
<path d="M267.591 329.83C268.341 334.54 264.011 344.7 250.571 347.04C236.661 349.46 229.261 335.9 227.101 331.9C222.341 323.1 219.361 314.06 220.061 306.44" stroke="black" stroke-width="4" stroke-miterlimit="10" stroke-linecap="round" stroke-linejoin="round"/>
<path d="M267.68 331.43C268.81 331.54 272.92 331.12 277.01 328.32C285.46 322.55 290.68 317.81 297.15 314.67C300.85 312.88 305.21 312.18 306.37 312.69" stroke="black" stroke-width="4" stroke-miterlimit="10" stroke-linecap="round" stroke-linejoin="round"/>
<path d="M247.49 185.91C246.6 189.79 242.03 198.01 230.1 197.9" stroke="black" stroke-width="4" stroke-miterlimit="10" stroke-linecap="round" stroke-linejoin="round"/>
<path d="M137.901 261.88C137.121 263.84 137.481 269.69 130.371 285.22C127.391 291.73 119.641 304.33 118.321 312.23C117.611 316.49 117.501 323.17 121.051 328.23C125.611 334.75 132.051 335.95 135.791 334.86" stroke="black" stroke-width="4" stroke-miterlimit="10" stroke-linecap="round" stroke-linejoin="round"/>
<path d="M138.94 328.8C138.75 330.59 132.07 339.62 132.07 344.8C132.07 349.98 131.41 357.6 140.26 363.53C149.11 369.46 160.31 366.07 165.86 362.59" stroke="black" stroke-width="4" stroke-miterlimit="10" stroke-linecap="round" stroke-linejoin="round"/>
<path d="M166.51 336.7C166.89 340.56 159.64 356.65 168.2 365.88C176.9 375.25 194.27 372.28 198.22 365.88C205.37 368.61 214.01 363.9 214.5 354.18" stroke="black" stroke-width="4" stroke-miterlimit="10" stroke-linecap="round" stroke-linejoin="round"/>
<path d="M214.02 356.65C216.71 357.55 223.05 357.59 226.65 353.64C230.26 349.7 231.13 341.77 230.42 337.54" stroke="black" stroke-width="4" stroke-miterlimit="10" stroke-linecap="round" stroke-linejoin="round"/>
<path d="M118.56 229.71C119.55 237.83 112.32 258.46 105.85 267.9C97.2402 280.46 84.1102 293.17 73.2402 301.08C62.3702 308.99 54.4602 314.77 51.6002 323.17C49.3402 329.78 51.4202 334.92 57.9102 335.95" stroke="black" stroke-width="4" stroke-miterlimit="10" stroke-linecap="round" stroke-linejoin="round"/>
<path d="M83.8313 308.56C81.9913 312.23 72.3913 320.28 68.0213 324.09C63.6513 327.9 55.1713 333.97 57.0113 345.13C58.8513 356.29 73.5313 361.65 83.1313 355.44" stroke="black" stroke-width="4" stroke-miterlimit="10" stroke-linecap="round" stroke-linejoin="round"/>
<path d="M83.2296 346.64C82.4496 351.42 85.6396 360.14 91.3596 363.9C94.9696 366.27 99.5196 366.68 103.45 365.31C105.67 367.32 110.98 368.28 116.44 366.76C123.48 364.8 130.81 359.29 132.53 352.63" stroke="black" stroke-width="4" stroke-miterlimit="10" stroke-linecap="round" stroke-linejoin="round"/>
<path d="M94.0195 365.24C92.8595 372.66 86.7895 389.88 75.9195 398.91C65.0495 407.95 56.4395 411.05 49.6595 412.32C42.8795 413.59 34.4095 415.71 31.8695 422.77C30.0995 427.7 31.7295 431.66 34.6895 434.21C33.4195 443.25 44.5695 451.43 54.1695 449.88C52.1895 458.07 67.8595 469.64 80.0095 462.44" stroke="black" stroke-width="4" stroke-miterlimit="10" stroke-linecap="round" stroke-linejoin="round"/>
<path d="M65.6195 427.15C63.2195 429.41 56.2095 436.78 59.6895 444.94C62.5795 451.72 69.2395 452.94 73.4495 452.21" stroke="black" stroke-width="4" stroke-miterlimit="10" stroke-linecap="round" stroke-linejoin="round"/>
<path d="M73.4505 445.93C72.9605 450.02 76.3405 457.79 85.1005 459.62C93.8605 461.45 99.6405 461.17 103.17 458.07" stroke="black" stroke-width="4" stroke-miterlimit="10" stroke-linecap="round" stroke-linejoin="round"/>
<path d="M110.51 426.44C109.8 434.49 104.47 439.64 103.17 448.04C101.93 456.02 104.58 460.75 109.24 463C113.9 465.25 118.13 463.99 120.25 463C124.49 467.24 130.13 468.36 136.2 467.66C142.27 466.95 147.07 462.86 149.05 459.33" stroke="black" stroke-width="4" stroke-miterlimit="10" stroke-linecap="round" stroke-linejoin="round"/>
<path d="M154.56 445.41C151.55 448.7 148.32 458.38 149.76 464.71C151.17 470.92 161.62 474.87 167.92 469.6C170.93 472.06 175.07 470.54 177.99 468.56C180.25 473.16 191.83 474.49 198.04 471.1C203.73 468 206.91 462.54 206.91 457.17" stroke="black" stroke-width="4" stroke-miterlimit="10" stroke-linecap="round" stroke-linejoin="round"/>
<path d="M205.67 429.88C206.42 430.73 207.08 438.43 206.99 442.02C206.85 447.57 206.88 460.17 207.05 466.11C207.37 477.87 220.83 479.85 224.12 474.77C227.25 476.99 235.8 478.69 242.76 475.9C248.79 473.48 253.46 467.07 254.24 462.35" stroke="black" stroke-width="4" stroke-miterlimit="10" stroke-linecap="round" stroke-linejoin="round"/>
<path d="M253.9 463.71C256.67 468.75 266.55 470.44 275.03 468.94C283.51 467.44 289.52 463.48 291.22 456.8" stroke="black" stroke-width="4" stroke-miterlimit="10" stroke-linecap="round" stroke-linejoin="round"/>
<path d="M288.811 461.76C294.891 464.13 301.951 463.84 306.041 460.75C311.261 456.8 310.421 449.17 307.731 446.07C315.071 449.03 326.081 445.93 327.921 439.01C329.761 432.09 321.851 424.19 319.451 423.34" stroke="black" stroke-width="4" stroke-miterlimit="10" stroke-linecap="round" stroke-linejoin="round"/>
<path d="M327.96 434.73C334.56 432.93 335.99 427.53 334.56 423.33C332.3 416.69 312.11 407.52 311.27 402.86" stroke="black" stroke-width="4" stroke-miterlimit="10" stroke-linecap="round" stroke-linejoin="round"/>
<path d="M334.561 423.34C340.071 421.65 341.201 415.34 339.781 411.34C337.241 404.14 320.391 395.98 312.391 388.75C305.051 382.11 295.901 366.21 290.791 354.27C284.991 340.73 282.101 330.58 282.561 324.37" stroke="black" stroke-width="4" stroke-miterlimit="10" stroke-linecap="round" stroke-linejoin="round"/>
<path d="M80.4904 457.89C80.3004 461.6 76.3904 472.52 73.4504 476.66C70.5104 480.8 47.3604 507.91 35.5004 515.81C23.6404 523.72 9.29041 528.38 6.51041 536.52C3.97041 543.96 5.76041 551.77 16.4904 554.03C27.2204 556.29 35.6904 553.84 40.7704 547.07" stroke="black" stroke-width="4" stroke-miterlimit="10" stroke-linecap="round" stroke-linejoin="round"/>
<path d="M63.7402 511.29C60.5402 516.61 55.8302 519.01 51.3202 524.28C46.8002 529.55 41.9102 535.67 41.0602 544.33C40.6402 548.66 42.6002 553.57 45.9702 556.99C49.3402 560.41 54.1002 562.35 57.4402 562.21C61.6802 568.61 72.7902 570.3 80.5002 568.89C88.2102 567.48 95.8902 566.3 101.82 555.22" stroke="black" stroke-width="4" stroke-miterlimit="10" stroke-linecap="round" stroke-linejoin="round"/>
<path d="M107.831 538.68C99.5712 553.08 97.0312 578.21 106.841 587.24C115.091 594.83 126.351 592.6 130.871 587.52" stroke="black" stroke-width="4" stroke-miterlimit="10" stroke-linecap="round" stroke-linejoin="round"/>
<path d="M316.18 447.05C334.98 496.04 375.64 509.59 370.56 532.47C365.48 555.34 347.67 560.27 328.2 554.84C328.2 578.49 288.92 583.03 272.56 565.37C275.69 589.22 246.04 593.49 236.72 576.11C236.72 591.15 224.299 598.26 206.509 602.77C188.719 607.28 177.99 596.56 182.79 578.49C180.34 584.17 176.01 594.02 164.15 596.56C153.79 598.78 142.68 594.18 141 590.35C138.18 591.48 127.919 591.15 131.679 579.53" stroke="black" stroke-width="4" stroke-miterlimit="10" stroke-linecap="round" stroke-linejoin="round"/>
<path d="M145.71 594.28C146.51 604.25 145.52 629.5 142.51 639.57C139.5 649.64 133 665.45 126.04 673.45C119.08 681.45 112.14 684.05 108.44 685.59C105.05 687 99.78 688.98 101 694.15C102.22 699.32 109.75 697.82 109.75 697.82" stroke="black" stroke-width="4" stroke-miterlimit="10" stroke-linecap="round" stroke-linejoin="round"/>
<path d="M131.501 681.45C129.711 683.61 124.061 689.73 119.921 692.46C115.781 695.19 106.641 698.45 105.611 704.79C104.931 709 106.371 712.98 110.891 714.3C114.441 715.34 118.661 714.33 122.711 711.32" stroke="black" stroke-width="4" stroke-miterlimit="10" stroke-linecap="round" stroke-linejoin="round"/>
<path d="M124.91 705.55C122.58 707.74 121.1 714.76 125.76 719.31C130.34 723.78 136.28 722.91 139.03 721.71" stroke="black" stroke-width="4" stroke-miterlimit="10" stroke-linecap="round" stroke-linejoin="round"/>
<path d="M142.041 715.29C140.161 716.65 137.661 721.36 139.731 725.64C141.801 729.92 149.071 732.87 153.141 732.32C160.481 731.33 164.431 726.63 166.501 722.68C171.581 729.08 184.381 731.34 191.721 725.88C204.331 730.59 218.071 733.6 219.201 722.68C220.331 711.76 227.671 706.11 219.201 695.38C210.731 684.65 212.971 627.66 214.961 600.25" stroke="black" stroke-width="4" stroke-miterlimit="10" stroke-linecap="round" stroke-linejoin="round"/>
<path d="M156.161 611.24C155.971 615.38 154.751 625.64 153.711 628.56" stroke="black" stroke-width="4" stroke-miterlimit="10" stroke-linecap="round" stroke-linejoin="round"/>
<path d="M152.171 636.47C151.731 637.95 150.841 640.99 150.471 642.4" stroke="black" stroke-width="4" stroke-miterlimit="10" stroke-linecap="round" stroke-linejoin="round"/>
</svg>
