<svg width="207" height="207" viewBox="0 0 207 207" fill="none" xmlns="http://www.w3.org/2000/svg">
<path d="M153.201 154.55L157.461 153.41L167.011 147.08L173.271 148.05L180.141 147.08L180.791 158.23L177.981 168L171.771 171.61H164.051L158.311 168.82L154.961 162.63L153.201 154.55Z" fill="#282E36"/>
<path d="M109.931 169.32L121.331 171.53L127.021 178.4L130.241 188.07L128.461 196.63L124.991 201.32L117.721 204.67H111.721L102.411 198.39L96.0014 189.18L95.1914 180.05L99.1114 172.63L107.481 168.19L109.931 169.32Z" fill="#282E36"/>
<path d="M17.3503 123.28L35.7703 136.38L37.5903 140.42L37.9403 149.36L31.5503 157.24L24.5403 160.3L18.3403 159.78L9.88031 154.31L5.4903 144.33L4.07031 136.02L7.00031 128.27L12.1103 124.24L17.3503 123.28Z" fill="#282E36"/>
<path d="M17.2413 34.96L38.4013 23.34L85.3013 9.72998L114.131 16.02L143.631 28.54L138.901 40.34L135.681 61.79L126.681 126.06L122.841 147.08L118.861 154.29L113.321 156.64L93.4814 150.96L60.3713 135.27L30.3113 117.5L14.3914 103.96L12.1113 83.18L14.0013 46.67L17.2413 34.96Z" fill="#D15F5B"/>
<path d="M31.3301 36.4501L87.2601 17.2001L139.86 35.3401L133.16 79.7801L97.4601 67.9901L64.2101 53.66L31.3301 36.4501Z" fill="#AB3A36"/>
<path d="M158.862 33.6201L191.312 51.0601L184.512 94.5501L176.562 133.04L167.012 146.26L143.632 157.91L133.852 159.66L138.682 142.73L142.772 115.7L149.372 67.5201L154.362 39.3401L158.862 33.6201Z" fill="#D15F5B"/>
<path d="M155.291 40.8301L188.821 60.0601L176.001 68.4401L148.631 79.3401L150.971 54.35L155.291 40.8301Z" fill="#AB3A36"/>
<path d="M147.702 89.7401L172.502 79.7801L188.822 72.42L179.482 115.2L175.672 134.96L167.012 146.26L147.702 156.64L133.852 159.66L138.822 144.99L142.772 115.7L147.702 89.7401Z" fill="#D15F5B"/>
<path d="M12.9908 91.2001L14.3908 103.96L19.6408 109.66L45.1508 127.34L77.1408 143.21L108.271 155.67L119.701 153.52L122.661 145.61L133.391 81.4501L139.181 37.05L145.531 24.98L163.531 9.24005L179.341 3.17004H193.811L201.181 7.88007L204.551 16.6501V36.91L201.121 67.7701L194.941 107.64L191.311 125.15L184.881 140.44L179.131 147.07L172.421 148.93L165.911 147.35L175.521 136.58L181.311 112.02L184.491 95.9301L191.311 56.6801L192.611 24.42L190.921 19.2001L188.451 17.5101L179.491 18.0701C179.491 18.0701 168.881 23.5801 168.731 23.6801C168.581 23.7801 160.321 30.6 160.321 30.6L152.961 43.2601L151.461 56.97L147.711 81.11C147.711 81.11 142.271 126.18 141.791 126.36C141.311 126.54 137.631 153.32 137.631 153.32L131.071 163.2L121.891 169.76L107.461 168.94L91.4808 163.91L62.5008 150.19L32.7908 133.07L12.0008 119.08L3.93079 108L2.80078 97.2001L7.95081 92.47L12.9908 91.2001Z" fill="#B8BFC2"/>
<path d="M15.8608 131.72L22.3509 137.6L24.0508 142.56V150.45L22.4809 153.16L16.9509 154.02L12.3308 149.27L10.1309 142.31L9.88086 137.27L11.5309 132.56L14.3509 130.64L15.8608 131.72Z" fill="#B8BFC2"/>
<path d="M108.57 178.52L116.52 188.07L117.72 192.92L115.95 197.47L110.94 198.95L103.64 192.49L101.51 187.7L100.42 180.21L103.21 176.72L107.77 177.14L108.57 178.52Z" fill="#B8BFC2"/>
<path d="M157.461 152.28L158.211 160.94L161.341 164.76L164.891 166.59L168.861 160.66V153.51L167.011 148.52L163.771 147.08L159.441 150.96L157.461 152.28Z" fill="#B8BFC2"/>
<path d="M142.78 27.76C130.17 21.36 107.58 12.23 86.8703 9.60001C69.1803 10.64 26.3503 28.52 15.7203 35.95C11.4803 58.44 10.5403 85.83 14.5003 104.47C23.3503 117.03 86.8703 151.64 108.24 155.67C121.23 158.12 122.39 150.65 124.53 139.02C127.05 125.32 131.8 91.6 134.93 67.7701C136.34 57.0301 137.23 47.17 139.09 39.54C142.57 25.25 152.64 17.64 158.97 12.89C165.39 8.07004 173.72 4.42006 181.42 3.15006C188.71 1.95006 193.41 2.64005 196.92 4.39005C204.92 8.39005 204.74 17.84 204.46 28.05C204.06 42.73 199.73 86.21 195.21 109.18C190.69 132.15 184.1 146.92 175.54 148.05C166.98 149.18 165.66 147.11 165.66 147.11" stroke="black" stroke-width="4" stroke-miterlimit="10" stroke-linecap="round" stroke-linejoin="round"/>
<path d="M12.59 91.2002C4.23999 93.3202 -5.04001 103.76 10.63 117.46C26.3 131.15 79.52 161.88 103.81 168.1C112.29 170.27 122.22 171.55 127.53 167.44C136.85 160.24 137.97 146.62 139.67 136.52C142.49 119.72 150.12 60.9902 152.38 46.0302C154.66 30.9202 170.24 21.5101 179.63 18.3601C187.63 15.6801 190.95 18.0901 192.26 21.4701C193.72 25.2301 191.91 50.6901 189.23 67.3501C186.55 84.0101 180.05 119.44 178.5 126.22C177.72 129.61 176.44 135.03 173.35 139.14C170.25 143.25 164.94 147.12 160.71 149.66C155.06 153.05 145.01 159.24 133.86 159.67" stroke="black" stroke-width="4" stroke-miterlimit="10" stroke-linecap="round" stroke-linejoin="round"/>
<path d="M21.8301 40.3401C32.5601 49.0001 102.61 82.9301 132.15 88.3401" stroke="black" stroke-width="3" stroke-miterlimit="10" stroke-linecap="round" stroke-linejoin="round"/>
<path d="M158.061 33.23C165.511 36.84 178.431 42.68 191.311 51.05" stroke="black" stroke-width="3" stroke-miterlimit="10" stroke-linecap="round" stroke-linejoin="round"/>
<path d="M146.35 89.7401C155.91 87.5301 183.19 76.2501 188.82 69.8201" stroke="black" stroke-width="3" stroke-miterlimit="10" stroke-linecap="round" stroke-linejoin="round"/>
<path d="M140.291 35.55C130.931 31 112.001 23.5301 88.1006 17.2101C67.7606 20.1601 35.8605 33.8901 30.3105 37.0001C55.3505 49.8901 98.9305 71.28 133.331 79.79" stroke="black" stroke-width="3" stroke-miterlimit="10" stroke-linecap="round" stroke-linejoin="round"/>
<path d="M147.699 79.7801C159.809 73.9801 184.029 67.2 190.269 60.05C176.559 52.15 167.569 45.1401 153.929 40.3401" stroke="black" stroke-width="3" stroke-miterlimit="10" stroke-linecap="round" stroke-linejoin="round"/>
<path d="M87.2609 24.49C87.0809 35.68 84.7109 48.72 82.3809 61.79" stroke="black" stroke-width="3" stroke-miterlimit="10" stroke-linecap="round" stroke-linejoin="round"/>
<path d="M115.325 198.512C118.363 196.629 117.938 190.445 114.377 184.699C110.816 178.953 105.466 175.821 102.429 177.704C99.3919 179.586 99.8166 185.77 103.378 191.516C106.939 197.262 112.288 200.394 115.325 198.512Z" stroke="black" stroke-width="3" stroke-miterlimit="10" stroke-linecap="round" stroke-linejoin="round"/>
<path d="M119.411 170.12C122.041 171.83 124.531 174.35 126.581 177.65C131.901 186.23 131.101 195.04 126.251 199.36C124.651 200.78 121.981 202.51 119.031 203.83C113.121 206.48 104.461 202.69 99.1508 194.11C93.8308 185.53 93.8309 175.55 99.4809 172.4C101.151 171.47 103.781 169.86 105.861 168.82" stroke="black" stroke-width="3" stroke-miterlimit="10" stroke-linecap="round" stroke-linejoin="round"/>
<path d="M21.1132 154.089C24.4775 152.884 25.3574 146.748 23.0786 140.384C20.7999 134.019 16.2253 129.836 12.861 131.041C9.49679 132.245 8.61685 138.381 10.8956 144.746C13.1744 151.11 17.749 155.293 21.1132 154.089Z" stroke="black" stroke-width="3" stroke-miterlimit="10" stroke-linecap="round" stroke-linejoin="round"/>
<path d="M36.429 136.08C39.829 145.58 37.209 154.03 31.559 157.24C29.699 158.3 26.729 159.42 23.559 160.1C17.229 161.45 9.55904 155.93 6.14904 146.43C2.74904 136.93 4.82903 127.17 11.019 125.27C12.809 124.72 15.6591 123.72 17.8891 123.13" stroke="black" stroke-width="3" stroke-miterlimit="10" stroke-linecap="round" stroke-linejoin="round"/>
<path d="M165.171 147.08C166.781 148.76 168.091 151.61 168.621 154.96C169.521 160.67 167.801 165.68 164.781 166.15C161.761 166.62 158.591 162.38 157.691 156.68C157.421 154.95 157.391 153.29 157.561 151.8" stroke="black" stroke-width="3" stroke-miterlimit="10" stroke-linecap="round" stroke-linejoin="round"/>
<path d="M178.52 147.08C179.46 148.93 180.17 151.09 180.54 153.49C181.88 162.01 178.33 168.69 173.07 170.48C171.34 171.07 168.66 171.54 165.9 171.6C160.37 171.72 154.81 165.87 153.47 157.34C153.31 156.31 153.21 155.29 153.18 154.3" stroke="black" stroke-width="3" stroke-miterlimit="10" stroke-linecap="round" stroke-linejoin="round"/>
</svg>
