<svg width="100%" height="100%" viewBox="0 0 1280 1164" fill="none" xmlns="http://www.w3.org/2000/svg">
<path d="M159.942 12.8118L178.842 54.6344L197.702 90.4383L227.102 135.806L244.932 154.558L262.702 169.892L264.202 179.427L256.842 185.078L246.972 186.299L243.172 191.851L235.612 195.933L231.302 197.86L227.102 184.641L220.082 183.906L213.182 192.705L205.312 195.059L195.992 191.345L193.102 199.399L185.222 205.785L174.392 209.639H172.842L168.252 213.353L160.772 212.44L158.792 211.605L152.882 217.386L147.292 219.382L134.892 216.363L132.892 216.72L128.022 221.219L120.932 226.95L108.322 230.069L94.982 228.986L88.702 224.497L84.582 214.476L86.802 202.697L94.632 193.44L103.522 179.496L108.042 169.892L116.022 152.502L124.632 130.274L129.572 114.711L142.772 60.3153L142.172 51.3966L142.912 19.5753L146.412 10.9645L151.292 8.15381L157.622 10.011L159.942 12.8118Z" fill="#DAED95"/>
<path d="M219.641 182.506L227.101 184.641L228.581 193.013L234.611 203.263L248.941 227.864L264.201 250.439L285.011 276.38L302.021 291.457L314.091 300.991L315.971 311.32L310.981 320.894L305.131 327.102L293.831 330.29L287.021 331.134L283.521 331.094L282.111 323.636L272.011 328.492L268.211 330.151L265.151 335.981L259.591 341.999L250.151 344.731L241.281 343.867L230.651 336.527L229.811 346.767L226.701 351.852L214.511 355.109L211.451 359.926L206.091 364.147H198.541L194.981 366.392L183.781 369.302L175.741 367.514L169.671 364.763L165.221 360.999L151.671 365.001L144.321 362.538L136.841 358.824L132.821 352.656L125.461 359.797L118.891 363.442L111.361 364.256L104.241 363.402L100.721 363.462L96.3313 363.373L86.7813 356.738L83.8313 352.726L80.9413 354.643L66.1413 353.927L60.6113 350.014L56.7513 343.261V334.074L53.3313 331.76L51.3613 324.609L54.9613 316.266L59.8913 309.374L71.7613 300.495L81.2913 292.013L98.5113 274.066L107.051 263.41L115.271 245.82L118.651 235.859V227.516L134.371 215.032L141.151 218.677L152.881 217.386L160.841 211.675L166.071 212.44L172.071 208.527L178.631 207.673L190.701 203.332L195.991 192.249L203.971 194.215L213.181 192.706L217.881 188.256L219.641 182.506Z" fill="#9BD793"/>
<path d="M281.621 323.516L289.061 350.392L301.311 371.834L314.421 387.795L329.761 398.461L339.401 407.648V414.253L335.071 420.45L334.261 427.8L329.231 431.772L328.191 434.384L322.431 442.161L314.671 444.296H308.611L310.521 453.036L307.071 456.731L296.591 460.187L291.231 459.978L288.121 460.187L281.631 465.004L272.571 466.087H261.771L253.451 461.875L248.931 468.49L240.331 473.436L228.231 473.873L224.471 471.758L219.191 474.757L211.141 472.185L205.321 460.584L197.401 468.917L186.911 469.006L177.691 466.533L168.431 466.742L159.151 468.708L149.781 462.799L147.651 458.25L139.171 463.862L123.511 462.342L120.531 460.108L115.331 461.091L102.891 455.201L88.9306 457.853L80.3506 456.085L78.2106 459.164L74.2606 460.564L61.0606 458.32L55.0106 451.973L54.1406 447.306L42.5506 444.425L35.8506 437.602L33.7506 431.554L30.6406 424.264L34.7506 415.584L48.7206 409.267L61.4306 405.344L77.0906 395.263L88.4406 379.363L94.0706 362.796L98.8406 363.849L107.871 363.879L111.411 364.306L121.861 362.796L132.871 352.706L136.891 358.873L141.201 362.796L149.501 364.306L165.271 361.048L169.721 364.813L180.591 368.616L195.031 366.441L199.931 364.306L207.841 362.866L213.291 357.165L214.571 355.149C214.571 355.149 216.881 354.444 217.301 354.444C217.721 354.444 224.921 351.891 224.921 351.891L229.971 345.446L230.711 336.577L241.341 343.916L252.591 344.363L260.501 339.457L265.211 336.03L268.261 330.2L274.191 328.095L281.621 323.516Z" fill="#5BC092"/>
<path d="M80.1322 457.039L82.7022 455.499L95.6022 457.039L103.642 455.499L108.742 459.591L115.552 461.528L119.832 460.733L129.852 464.666L143.312 462.7L148.352 457.933L152.822 466.573L162.942 468.659L170.512 466.295L178.322 466.106L187.272 470.178L197.242 468.401L205.672 462.134L211.552 471.996L219.122 474.101L224.392 472.463L235.212 473.615L244.112 471.668L251.972 466.265L254.232 462.461L263.782 465.411L279.362 464.051L289.012 458.727L293.482 459.969L304.572 458.519L308.162 454.615L309.982 450.613L309.102 444.286L314.792 444.942L316.512 444.833L329.852 469.771L343.072 486.327L361.592 506.022L370.352 518.109L371.002 528.617L367.452 538.856L358.422 549.235L349.122 552.314L339.932 553.009L329.412 552.175L326.662 558.561L318.082 567.718L306.912 571.601L294.362 571.83L280.702 568.582L272.372 562.693L269.902 573.21L267.382 578.077L258.392 581.831L246.882 581.205L237.852 575.097L232.282 585.416L226.142 590.243L211.312 597.891L195.842 599.5L188.692 597.027L182.372 590.74L181.452 580.57L174.362 587.423L170.422 590.194L157.242 593.034L145.982 590.879L140.592 586.459L137.472 586.708L131.912 583.897L122.722 588.118L117.882 588.068L109.982 585.565L102.182 577.272L100.502 567.112V555.959L93.4722 560.885L78.1922 565.315L63.6422 564.451L58.1022 559.256L53.9022 558.839L45.0022 552.115L41.5122 545.471L38.2322 546.087L30.0522 550.328L16.4922 550.238L7.32219 544.855L5.49219 536.632L9.28219 528.547L22.4222 520.135L37.6722 510.601L55.3122 494.342L73.4122 474.757L78.6122 462.233L80.1322 457.039Z" fill="#1CAA90"/>
<path d="M145.183 590.223L158.513 593.699L169.243 591.961L181.573 581.811L187.823 596.152L197.673 600.344L214.043 597.066L213.193 636.416L214.043 672.408L217.343 688.488L222.713 696.93L221.103 708.024L218.153 721.332L213.573 725.692L200.683 725.225L193.023 721.392L184.083 723.825L174.653 722.931L165.673 719.217L157.383 725.692L150.473 727.261L144.773 724.659L139.923 721.044L137.903 717.747H134.233L126.603 715.155L122.003 708.024L116.633 710.636L112.113 709.235L105.463 705.123L106.753 695.966L108.633 693.265L101.383 692.6V687.177L103.743 683.621L122.183 673.62L133.383 657.918L143.553 633.804L144.113 619.691L146.473 595.576L145.183 590.223Z" fill="#875137"/>
<path d="M241.451 181.453C250.701 188.465 261.171 185.386 263.611 178.434C266.291 170.796 259.161 165.115 254.221 161.748C249.281 158.381 239.401 150.813 229.231 138.468C219.071 126.133 206.641 105.654 198.881 92.4745C191.121 79.295 178.411 54.1975 174.741 46.0634C171.071 37.9293 165.001 24.6804 163.401 20.221C160.101 11.0243 156.601 7.62759 151.821 8.06459C146.501 8.55125 142.971 13.676 142.971 24.4222C142.971 27.4911 142.871 47.3546 141.461 59.2925C139.011 80.0399 131.671 105.465 127.151 120.8C122.631 136.134 110.401 167.35 102.871 180.629C95.3411 193.897 90.5211 198.555 87.5511 202.826C84.5811 207.097 82.1111 216.85 88.8911 224.07C95.6711 231.29 111.551 231.082 118.541 228.132C125.531 225.192 131.391 217.545 132.661 215.439" stroke="black" stroke-width="4" stroke-miterlimit="10" stroke-linecap="round" stroke-linejoin="round"/>
<path d="M241.811 177.669C241.591 180.202 239.101 183.27 234.751 184.542C230.901 185.664 224.441 185.098 220.791 182.228" stroke="black" stroke-width="4" stroke-miterlimit="10" stroke-linecap="round" stroke-linejoin="round"/>
<path d="M212.58 164.976C215.76 167.638 224.45 179.308 217.38 188.812C210.18 198.486 198.74 193.649 195.99 190.491" stroke="black" stroke-width="4" stroke-miterlimit="10" stroke-linecap="round" stroke-linejoin="round"/>
<path d="M195.43 185.594C195.71 188.048 195.99 197.562 189.57 202.836C183.66 207.693 177.78 208.865 172.42 208.447" stroke="black" stroke-width="4" stroke-miterlimit="10" stroke-linecap="round" stroke-linejoin="round"/>
<path d="M160.34 210.185C161.13 211.705 163.63 212.728 166.16 212.37C169.48 211.904 171.75 209.848 172.42 207.673" stroke="black" stroke-width="4" stroke-miterlimit="10" stroke-linecap="round" stroke-linejoin="round"/>
<path d="M134.651 189.518C128.301 195.199 127.101 206.292 130.461 211.685C133.811 217.068 139.101 219.243 145.171 218.886C152.781 218.449 157.591 216.085 160.331 210.176" stroke="black" stroke-width="4" stroke-miterlimit="10" stroke-linecap="round" stroke-linejoin="round"/>
<path d="M227.131 184.79C226.741 190.451 229.851 196.37 232.341 200.73C252.811 236.624 270.031 257.471 279.821 269.061C289.611 280.651 298.641 288.13 305.421 293.175C312.201 298.22 317.281 304.577 315.961 311.31C314.641 318.044 308.241 333.18 284.151 330.936" stroke="black" stroke-width="4" stroke-miterlimit="10" stroke-linecap="round" stroke-linejoin="round"/>
<path d="M267.591 327.579C268.341 332.256 264.011 342.347 250.571 344.671C236.661 347.075 229.261 333.607 227.101 329.634C222.341 320.895 219.361 311.916 220.061 304.348" stroke="black" stroke-width="4" stroke-miterlimit="10" stroke-linecap="round" stroke-linejoin="round"/>
<path d="M267.68 329.168C268.81 329.277 272.92 328.86 277.01 326.079C285.46 320.348 290.68 315.641 297.15 312.522C300.85 310.744 305.21 310.049 306.37 310.556" stroke="black" stroke-width="4" stroke-miterlimit="10" stroke-linecap="round" stroke-linejoin="round"/>
<path d="M247.49 184.641C246.6 188.495 242.03 196.659 230.1 196.549" stroke="black" stroke-width="4" stroke-miterlimit="10" stroke-linecap="round" stroke-linejoin="round"/>
<path d="M137.901 260.092C137.121 262.039 137.481 267.849 130.371 283.273C127.391 289.739 119.641 302.253 118.321 310.099C117.611 314.33 117.501 320.964 121.051 325.99C125.611 332.465 132.051 333.657 135.791 332.574" stroke="black" stroke-width="4" stroke-miterlimit="10" stroke-linecap="round" stroke-linejoin="round"/>
<path d="M138.94 326.556C138.75 328.333 132.07 337.302 132.07 342.446C132.07 347.591 131.41 355.159 140.26 361.049C149.11 366.938 160.31 363.571 165.86 360.115" stroke="black" stroke-width="4" stroke-miterlimit="10" stroke-linecap="round" stroke-linejoin="round"/>
<path d="M166.51 334.402C166.89 338.235 159.64 354.216 168.2 363.383C176.9 372.689 194.27 369.739 198.22 363.383C205.37 366.094 214.01 361.416 214.5 351.762" stroke="black" stroke-width="4" stroke-miterlimit="10" stroke-linecap="round" stroke-linejoin="round"/>
<path d="M214.02 354.216C216.71 355.109 223.05 355.149 226.65 351.226C230.26 347.313 231.13 339.437 230.42 335.236" stroke="black" stroke-width="4" stroke-miterlimit="10" stroke-linecap="round" stroke-linejoin="round"/>
<path d="M118.56 228.142C119.55 236.207 112.32 256.696 105.85 266.071C97.2402 278.546 84.1102 291.169 73.2402 299.025C62.3702 306.881 54.4602 312.621 51.6002 320.964C49.3402 327.529 51.4202 332.634 57.9102 333.657" stroke="black" stroke-width="4" stroke-miterlimit="10" stroke-linecap="round" stroke-linejoin="round"/>
<path d="M83.8313 306.454C81.9913 310.099 72.3913 318.094 68.0213 321.878C63.6513 325.662 55.1713 331.69 57.0113 342.774C58.8513 353.858 73.5313 359.181 83.1313 353.014" stroke="black" stroke-width="4" stroke-miterlimit="10" stroke-linecap="round" stroke-linejoin="round"/>
<path d="M83.2296 344.274C82.4496 349.021 85.6396 357.682 91.3596 361.416C94.9696 363.77 99.5196 364.177 103.45 362.816C105.67 364.813 110.98 365.766 116.44 364.257C123.48 362.31 130.81 356.838 132.53 350.223" stroke="black" stroke-width="4" stroke-miterlimit="10" stroke-linecap="round" stroke-linejoin="round"/>
<path d="M94.0195 362.747C92.8595 370.116 86.7895 387.219 75.9195 396.187C65.0495 405.165 56.4395 408.244 49.6595 409.506C42.8795 410.767 34.4095 412.872 31.8695 419.884C30.0995 424.781 31.7295 428.714 34.6895 431.246C33.4195 440.224 44.5695 448.349 54.1695 446.809C52.1895 454.943 67.8595 466.434 80.0095 459.283" stroke="black" stroke-width="4" stroke-miterlimit="10" stroke-linecap="round" stroke-linejoin="round"/>
<path d="M65.6195 424.234C63.2195 426.479 56.2095 433.799 59.6895 441.903C62.5795 448.637 69.2395 449.848 73.4495 449.123" stroke="black" stroke-width="4" stroke-miterlimit="10" stroke-linecap="round" stroke-linejoin="round"/>
<path d="M73.4505 442.886C72.9605 446.948 76.3405 454.665 85.1005 456.483C93.8605 458.3 99.6405 458.022 103.17 454.943" stroke="black" stroke-width="4" stroke-miterlimit="10" stroke-linecap="round" stroke-linejoin="round"/>
<path d="M110.51 423.529C109.8 431.524 104.47 436.639 103.17 444.982C101.93 452.907 104.58 457.605 109.24 459.84C113.9 462.074 118.13 460.823 120.25 459.84C124.49 464.051 130.13 465.163 136.2 464.468C142.27 463.763 147.07 459.701 149.05 456.195" stroke="black" stroke-width="4" stroke-miterlimit="10" stroke-linecap="round" stroke-linejoin="round"/>
<path d="M154.56 442.37C151.55 445.637 148.32 455.251 149.76 461.538C151.17 467.705 161.62 471.629 167.92 466.395C170.93 468.838 175.07 467.328 177.99 465.362C180.25 469.93 191.83 471.251 198.04 467.884C203.73 464.805 206.91 459.383 206.91 454.049" stroke="black" stroke-width="4" stroke-miterlimit="10" stroke-linecap="round" stroke-linejoin="round"/>
<path d="M205.67 426.946C206.42 427.79 207.08 435.437 206.99 439.003C206.85 444.515 206.88 457.029 207.05 462.928C207.37 474.608 220.83 476.575 224.12 471.529C227.25 473.734 235.8 475.422 242.76 472.652C248.79 470.248 253.46 463.882 254.24 459.194" stroke="black" stroke-width="4" stroke-miterlimit="10" stroke-linecap="round" stroke-linejoin="round"/>
<path d="M253.9 460.545C256.67 465.55 266.55 467.229 275.03 465.739C283.51 464.249 289.52 460.316 291.22 453.682" stroke="black" stroke-width="4" stroke-miterlimit="10" stroke-linecap="round" stroke-linejoin="round"/>
<path d="M288.811 458.608C294.891 460.962 301.951 460.674 306.041 457.605C311.261 453.682 310.421 446.104 307.731 443.025C315.071 445.965 326.081 442.886 327.921 436.013C329.761 429.141 321.851 421.295 319.451 420.45" stroke="black" stroke-width="4" stroke-miterlimit="10" stroke-linecap="round" stroke-linejoin="round"/>
<path d="M327.96 431.763C334.56 429.975 335.99 424.612 334.56 420.44C332.3 413.846 312.11 404.738 311.27 400.11" stroke="black" stroke-width="4" stroke-miterlimit="10" stroke-linecap="round" stroke-linejoin="round"/>
<path d="M334.561 420.45C340.071 418.772 341.201 412.505 339.781 408.532C337.241 401.381 320.391 393.277 312.391 386.096C305.051 379.502 295.901 363.71 290.791 351.852C284.991 338.404 282.101 328.323 282.561 322.156" stroke="black" stroke-width="4" stroke-miterlimit="10" stroke-linecap="round" stroke-linejoin="round"/>
<path d="M80.4904 454.765C80.3004 458.449 76.3904 469.295 73.4504 473.406C70.5104 477.518 47.3604 504.443 35.5004 512.289C23.6404 520.145 9.29041 524.773 6.51041 532.858C3.97041 540.247 5.76041 548.004 16.4904 550.248C27.2204 552.493 35.6904 550.06 40.7704 543.336" stroke="black" stroke-width="4" stroke-miterlimit="10" stroke-linecap="round" stroke-linejoin="round"/>
<path d="M63.7402 507.8C60.5402 513.084 55.8302 515.467 51.3202 520.701C46.8002 525.935 41.9102 532.014 41.0602 540.615C40.6402 544.915 42.6002 549.791 45.9702 553.188C49.3402 556.585 54.1002 558.512 57.4402 558.372C61.6802 564.729 72.7902 566.407 80.5002 565.007C88.2102 563.607 95.8902 562.435 101.82 551.43" stroke="black" stroke-width="4" stroke-miterlimit="10" stroke-linecap="round" stroke-linejoin="round"/>
<path d="M107.831 535.003C99.5712 549.305 97.0312 574.263 106.841 583.231C115.091 590.77 126.351 588.555 130.871 583.51" stroke="black" stroke-width="4" stroke-miterlimit="10" stroke-linecap="round" stroke-linejoin="round"/>
<path d="M316.18 443.999C334.98 492.654 375.64 506.112 370.56 528.835C365.48 551.549 347.67 556.446 328.2 551.053C328.2 574.541 288.92 579.05 272.56 561.511C275.69 585.198 246.04 589.439 236.72 572.178C236.72 587.115 224.299 594.176 206.509 598.656C188.719 603.135 177.99 592.488 182.79 574.541C180.34 580.183 176.01 589.965 164.15 592.488C153.79 594.693 142.68 590.124 141 586.32C138.18 587.443 127.919 587.115 131.679 575.574" stroke="black" stroke-width="4" stroke-miterlimit="10" stroke-linecap="round" stroke-linejoin="round"/>
<path d="M145.71 590.224C146.51 600.125 145.52 625.203 142.51 635.204C139.5 645.206 133 660.908 126.04 668.853C119.08 676.798 112.14 679.381 108.44 680.91C105.05 682.311 99.78 684.277 101 689.412C102.22 694.547 109.75 693.057 109.75 693.057" stroke="black" stroke-width="4" stroke-miterlimit="10" stroke-linecap="round" stroke-linejoin="round"/>
<path d="M131.501 676.798C129.711 678.944 124.061 685.022 119.921 687.733C115.781 690.445 106.641 693.682 105.611 699.979C104.931 704.16 106.371 708.113 110.891 709.424C114.441 710.457 118.661 709.454 122.711 706.465" stroke="black" stroke-width="4" stroke-miterlimit="10" stroke-linecap="round" stroke-linejoin="round"/>
<path d="M124.91 700.734C122.58 702.909 121.1 709.881 125.76 714.4C130.34 718.839 136.28 717.975 139.03 716.784" stroke="black" stroke-width="4" stroke-miterlimit="10" stroke-linecap="round" stroke-linejoin="round"/>
<path d="M142.041 710.407C140.161 711.758 137.661 716.436 139.731 720.687C141.801 724.938 149.071 727.867 153.141 727.321C160.481 726.338 164.431 721.67 166.501 717.747C171.581 724.103 184.381 726.348 191.721 720.925C204.331 725.603 218.071 728.592 219.201 717.747C220.331 706.902 227.671 701.29 219.201 690.633C210.731 679.977 212.971 623.376 214.961 596.153" stroke="black" stroke-width="4" stroke-miterlimit="10" stroke-linecap="round" stroke-linejoin="round"/>
<path d="M156.161 607.068C155.971 611.179 154.751 621.369 153.711 624.269" stroke="black" stroke-width="4" stroke-miterlimit="10" stroke-linecap="round" stroke-linejoin="round"/>
<path d="M152.171 632.125C151.731 633.595 150.841 636.615 150.471 638.015" stroke="black" stroke-width="4" stroke-miterlimit="10" stroke-linecap="round" stroke-linejoin="round"/>
</svg>
