<svg width="257" height="240" viewBox="0 0 257 240" fill="none" xmlns="http://www.w3.org/2000/svg">
<path d="M256.94 98.7299V4.42993C173.23 16.5199 87.7697 23.73 9.42969 24.89C73.4997 69.69 145.33 102.45 173.79 109.23C173.99 109.23 174.19 109.23 174.39 109.23C182.91 109.23 195.41 108.09 210.77 106.04L219.55 104.82C230.87 103.17 243.45 101.11 256.94 98.7299Z" fill="#DEB887"/>
<path d="M13.4914 64.5801C13.0214 74.8101 12.1114 103.36 15.3014 121.1C32.4214 141.97 103.011 195.99 139.061 211.06C139.111 184.07 140.081 141.4 140.261 134.04C124.521 126.66 104.971 117.06 85.8114 107.07C61.3514 94.3201 31.0914 77.6401 13.4914 64.5801Z" fill="#B87B55"/>
<path d="M174.461 218.25C188.531 217.66 220.331 210.8 256.941 201.64V136.96C217.261 144.5 193.381 146.53 179.601 146.74C178.701 164.02 176.031 198.55 174.461 218.25Z" fill="#B87B55"/>
<path d="M174.361 113.23C174.081 113.23 173.802 113.23 173.532 113.23C173.382 113.23 173.232 113.21 173.092 113.18C144.172 106.36 70.2315 72.66 5.07149 26.72C4.85149 32.99 4.77149 46.02 7.26149 54.27C8.77149 55.73 10.6115 57.3 12.7115 58.95C12.8615 59.04 12.9915 59.14 13.1115 59.27C46.2315 85.14 145.251 133.1 169.111 142.49C186.521 143.91 217.131 140.44 256.941 132.83V102.76C220.291 109.22 190.351 113.23 174.361 113.23Z" fill="#DEB887"/>
<path d="M210.781 106.03C213.611 105.65 216.541 105.24 219.561 104.81L210.781 106.03Z" fill="#DEB887"/>
<path d="M144.211 135.88C143.891 149.82 142.531 212.65 143.281 229.09C147.291 232.16 151.401 233.9 153.901 234.77C154.331 213.37 156.511 165.34 157.701 142.01C153.761 140.26 149.221 138.2 144.211 135.88Z" fill="#DEB887"/>
<path d="M167.93 146.31C166.2 145.63 164.07 144.75 161.62 143.7C160.42 167.44 158.33 213.61 157.9 234.61C162.25 233.16 167.09 231.8 169.41 231.17C169.57 229.24 169.88 225.43 170.28 220.41C170.28 220.37 170.27 220.33 170.27 220.28C170.27 220.13 170.29 219.98 170.33 219.84C171.86 200.64 174.67 164.63 175.6 146.76C172.67 146.73 170.33 146.6 168.49 146.45C168.29 146.42 168.1 146.38 167.93 146.31Z" fill="#DEB887"/>
<path d="M1.33008 22.36C1.33008 22.37 1.33008 22.3801 1.33008 22.3801C1.34008 22.3501 1.35008 22.33 1.36008 22.3C1.35008 22.33 1.34008 22.34 1.33008 22.36Z" fill="black"/>
<path d="M2.00977 21.3901C2.03977 21.3701 2.06976 21.3401 2.09976 21.3201C2.07976 21.3501 2.04977 21.3701 2.00977 21.3901Z" fill="black"/>
<path d="M1.58984 21.86C1.60984 21.83 1.62984 21.8 1.64984 21.77C1.61984 21.8 1.60984 21.83 1.58984 21.86Z" fill="black"/>
<path d="M3.16016 20.97C3.23016 20.97 3.31016 20.96 3.38016 20.96C4.40016 21.03 5.18016 21.86 5.23016 22.85L143.23 15.67L244.1 4.21997L256.94 2.21002V0.380005C171.03 12.81 83.2402 20.09 3.23016 20.95C3.20016 20.96 3.18016 20.97 3.16016 20.97Z" fill="black"/>
<path d="M5.16986 24.2C5.13986 24.69 5.10984 25.33 5.08984 26.09L32.3698 41.58L5.16986 24.2Z" fill="black"/>
<path d="M145.791 101.86L162.591 107.53L104.801 82.72L145.791 101.86Z" fill="black"/>
<path d="M5.16992 24.2L32.3599 41.58L104.8 82.72L162.59 107.53L173.55 111.23L210.78 106.04C195.41 108.09 182.91 109.23 174.4 109.23C174.2 109.23 173.99 109.23 173.8 109.23C145.34 102.44 73.5099 69.68 9.43991 24.89C87.7699 23.73 173.24 16.52 256.95 4.42999V2.22998L244.11 4.23999L143.24 15.69L5.2399 22.87C5.2399 22.95 5.24991 23.03 5.24991 23.11C5.23991 23.13 5.20992 23.52 5.16992 24.2Z" fill="black"/>
<path d="M256.941 99.6V98.73C243.451 101.12 230.871 103.17 219.561 104.81L256.941 99.6Z" fill="black"/>
<path d="M173.09 113.17C173.23 113.2 173.38 113.22 173.53 113.22C173.8 113.22 174.08 113.22 174.36 113.22C190.36 113.22 220.29 109.22 256.94 102.74V100.42L238.43 103.9L188.23 110.56L173.56 111.23L167.18 109.5L162.61 107.54L145.81 101.87L104.82 82.73L95.4101 78.69L62.2101 60.66L32.3801 41.59L5.1001 26.1C5.0901 26.3 5.08008 26.5 5.08008 26.72C70.2301 72.65 144.16 106.35 173.09 113.17Z" fill="black"/>
<path d="M238.421 103.9L256.931 100.42V99.6L219.551 104.81C216.531 105.25 213.601 105.66 210.771 106.03L173.541 111.22L188.211 110.55L238.421 103.9Z" fill="black"/>
<path d="M95.3911 78.6801L104.801 82.72L32.3711 41.5801L62.1911 60.6501L95.3911 78.6801Z" fill="black"/>
<path d="M173.55 111.22L162.59 107.53L167.16 109.49L173.55 111.22Z" fill="black"/>
<path d="M208.51 142.64L212.55 141.96L195.08 143.63L208.51 142.64Z" fill="black"/>
<path d="M164.99 142.96L161.74 141.39C161.74 141.42 161.74 141.46 161.73 141.5L164.99 142.96Z" fill="black"/>
<path d="M2.11133 21.32C2.41133 21.11 2.77135 20.98 3.16135 20.97C2.77135 20.99 2.41133 21.11 2.11133 21.32Z" fill="black"/>
<path d="M144.26 133.65L158.02 139.83C158.06 139.77 158.09 139.71 158.13 139.65L144.25 132.95C144.25 133.01 144.27 133.07 144.26 133.13C144.27 133.16 144.26 133.35 144.26 133.65Z" fill="black"/>
<path d="M77.6611 100.52L140.621 131.99C140.761 131.78 140.951 131.6 141.161 131.45L93.2411 108.31L34.6211 75.8201L41.8011 80.5301L77.6611 100.52Z" fill="black"/>
<path d="M10.2607 59.26L5.31064 54.73L2.49063 37.93L2.07065 24.59C1.38065 24.09 1.08063 23.21 1.33063 22.4C1.29063 22.54 1.26064 22.69 1.25064 22.84C1.19064 23.71 -0.18935 44.21 3.60065 55.97C3.70065 56.28 3.87065 56.56 4.10065 56.78C5.64065 58.3 7.51065 59.92 9.63065 61.62C9.66065 61.05 9.68065 60.67 9.69065 60.54C9.72065 60.03 9.94065 59.59 10.2607 59.26Z" fill="black"/>
<path d="M13.6003 62.3101C13.5703 62.9101 13.5302 63.6601 13.4902 64.5701C31.0902 77.6301 61.3602 94.3201 85.8002 107.06C104.96 117.05 124.51 126.64 140.25 134.03C140.26 133.53 140.27 133.19 140.27 133.03C140.28 132.64 140.41 132.29 140.61 131.98L77.6502 100.51L41.7802 80.5101L34.6003 75.8L18.7102 66.9901L13.6003 62.3101Z" fill="black"/>
<path d="M212.552 141.96L208.512 142.64L195.082 143.63L179.682 145.1C179.652 145.63 179.632 146.18 179.602 146.74C193.392 146.54 217.272 144.51 256.942 136.96V134.51L227.252 140.55L212.552 141.96Z" fill="black"/>
<path d="M11.8103 58.6501C12.1403 58.6701 12.4503 58.7801 12.7103 58.9401C10.6103 57.2801 8.77031 55.7101 7.26031 54.2601C4.76031 46.0101 4.85031 32.9801 5.07031 26.7101C4.07031 26.0101 3.08029 25.3001 2.08029 24.5901L2.07031 24.5801L2.4903 37.92L5.3103 54.72L10.2603 59.2501C10.6503 58.8601 11.2003 58.6201 11.8103 58.6501Z" fill="black"/>
<path d="M169.111 142.48C145.251 133.09 46.2313 85.14 13.1113 59.26C13.4913 59.65 13.7213 60.19 13.6813 60.77C13.6813 60.81 13.6513 61.26 13.6113 62.04L34.6113 75.81L93.2313 108.3L141.151 131.44C141.491 131.21 141.891 131.07 142.321 131.07C143.361 131.09 144.191 131.91 144.261 132.93L158.141 139.63C158.531 139.08 159.181 138.74 159.871 138.77C160.971 138.83 161.821 139.77 161.761 140.87C161.751 141.03 161.741 141.21 161.731 141.37L164.981 142.94L175.661 145.2C175.671 145.04 175.681 144.87 175.681 144.71C175.731 143.61 176.681 142.75 177.771 142.81C178.821 142.86 179.631 143.71 179.661 144.74L195.061 143.61L212.531 141.94L256.921 134.47V132.8C217.131 140.43 186.521 143.89 169.111 142.48Z" fill="black"/>
<path d="M18.7216 67.0101L34.6115 75.8201L13.6115 62.05C13.6115 62.14 13.6016 62.2301 13.6016 62.3201L18.7216 67.0101Z" fill="black"/>
<path d="M212.551 141.96L227.241 140.56L256.941 134.52V134.49L212.551 141.96Z" fill="black"/>
<path d="M179.69 144.92C179.69 144.98 179.68 145.04 179.68 145.1L195.08 143.63L179.68 144.76C179.68 144.82 179.69 144.87 179.69 144.92Z" fill="black"/>
<path d="M157.771 140.68C157.791 140.37 157.881 140.08 158.021 139.83L144.261 133.65C144.251 134.11 144.231 134.86 144.211 135.88C149.221 138.21 153.771 140.27 157.701 142C157.721 141.56 157.741 141.1 157.771 140.68Z" fill="black"/>
<path d="M161.621 143.7C164.071 144.75 166.201 145.63 167.931 146.31C168.111 146.38 168.301 146.42 168.491 146.44C170.321 146.6 172.671 146.72 175.601 146.75C175.621 146.32 175.641 145.9 175.661 145.48L174.031 145.64L165.001 142.96L161.741 141.5C161.691 142.21 161.661 142.94 161.621 143.7Z" fill="black"/>
<path d="M175.651 145.49C175.651 145.4 175.66 145.31 175.66 145.23L164.98 142.97L174.01 145.65L175.651 145.49Z" fill="black"/>
<path d="M2.06984 24.58L2.05983 24.37L5.07982 26.09C5.10982 25.32 5.13983 24.68 5.15983 24.2L3.22984 22.96L5.21983 22.86C5.16983 21.86 4.38982 21.04 3.36982 20.97C3.28982 20.96 3.21982 20.97 3.14982 20.98C2.75982 21 2.39983 21.12 2.09983 21.33C2.06983 21.35 2.03984 21.37 2.00984 21.4C1.86984 21.51 1.73984 21.63 1.63984 21.78C1.61984 21.81 1.59982 21.84 1.57982 21.87C1.48982 22.01 1.40983 22.16 1.34983 22.32C1.33983 22.35 1.32984 22.37 1.31984 22.4C1.08984 23.2 1.37984 24.08 2.06984 24.58Z" fill="black"/>
<path d="M5.17047 24.2C5.21047 23.53 5.23047 23.13 5.23047 23.1C5.24047 23.02 5.23046 22.94 5.22046 22.86L3.23047 22.96L5.17047 24.2Z" fill="black"/>
<path d="M5.07031 26.71C5.08031 26.5 5.0803 26.29 5.0903 26.09L2.07031 24.37L2.08029 24.58L2.0903 24.59C3.0703 25.3 4.07031 26 5.07031 26.71Z" fill="black"/>
<path d="M139.05 211.92L122.74 205.21L67.7605 170.34L13.9205 124.41L10.9904 86.2001L12.2805 63.67C11.3505 62.96 10.4705 62.2801 9.62045 61.5901C9.26045 68.1101 7.64047 101.88 11.4505 122.31C11.5105 122.63 11.6504 122.94 11.8604 123.2C28.8604 144.34 102.79 200.9 139.05 215.36C139.05 214.26 139.05 213.11 139.05 211.92Z" fill="black"/>
<path d="M15.2903 121.09C12.1003 103.35 13.0203 74.8099 13.4803 64.5699C13.0803 64.2699 12.6702 63.9699 12.2802 63.6699L10.9902 86.2L13.9203 124.41L67.7603 170.34L122.74 205.21L139.05 211.92C139.05 211.63 139.05 211.34 139.05 211.05C103.01 195.99 32.4203 141.96 15.2903 121.09Z" fill="black"/>
<path d="M12.7109 58.9399C12.8409 59.0499 12.9809 59.1499 13.1109 59.2599C12.9909 59.1399 12.8609 59.0299 12.7109 58.9399Z" fill="black"/>
<path d="M12.4209 61.26L12.5109 61.32L10.2609 59.26C9.94086 59.59 9.72086 60.03 9.69086 60.53C9.68086 60.66 9.66086 61.04 9.63086 61.61C10.4809 62.29 11.3609 62.98 12.2909 63.69L12.4209 61.26Z" fill="black"/>
<path d="M13.6013 62.31L12.5113 61.32L12.4213 61.26L12.2812 63.68C12.6712 63.98 13.0813 64.28 13.4813 64.58C13.5313 63.66 13.5613 62.91 13.6013 62.31Z" fill="black"/>
<path d="M13.6797 60.7701C13.7197 60.1801 13.4897 59.6501 13.1097 59.2601C12.9697 59.1501 12.8397 59.0501 12.7097 58.9401C12.4397 58.7801 12.1398 58.6701 11.8098 58.6501C11.1998 58.6101 10.6498 58.8501 10.2598 59.2501L12.5098 61.3101L13.6097 62.0301C13.6497 61.2701 13.6797 60.8101 13.6797 60.7701Z" fill="black"/>
<path d="M13.6097 62.04L12.5098 61.3201L13.5998 62.3101C13.5998 62.2201 13.6097 62.12 13.6097 62.04Z" fill="black"/>
<path d="M153.851 237.41C153.851 237.23 153.861 237.04 153.861 236.86L141.791 230.47L141.611 215.94C141.431 215.99 141.241 216.02 141.051 216.02C140.811 216.02 140.571 215.98 140.341 215.89C139.921 215.73 139.481 215.56 139.051 215.38C139.071 221.84 139.151 227.08 139.331 230.21C139.361 230.77 139.631 231.3 140.071 231.65C147.341 237.52 155.091 239.31 155.411 239.39C154.511 239.18 153.841 238.37 153.851 237.41Z" fill="black"/>
<path d="M156.221 239.4C156.101 239.42 155.981 239.44 155.861 239.44C155.981 239.43 156.101 239.42 156.221 239.4Z" fill="black"/>
<path d="M172.241 222.29C172.171 222.29 172.111 222.28 172.041 222.27L171.281 232.73L157.861 236.6C157.861 236.89 157.851 237.19 157.851 237.47C157.841 238.38 157.211 239.14 156.371 239.37C156.431 239.36 156.481 239.35 156.541 239.33C162.591 237.13 171.711 234.7 171.801 234.68C172.621 234.46 173.211 233.75 173.281 232.91C173.291 232.75 173.631 228.68 174.141 222.28C173.611 222.3 173.091 222.31 172.611 222.31C172.481 222.29 172.361 222.29 172.241 222.29Z" fill="black"/>
<path d="M177.57 146.76L172.34 218.29C172.38 218.29 172.41 218.29 172.45 218.29L179.02 146.75C178.52 146.76 178.03 146.76 177.57 146.76Z" fill="black"/>
<path d="M141.051 211.86C141.221 211.93 141.391 212 141.561 212.06L141.051 171.07V211.86Z" fill="black"/>
<path d="M141.051 171.05V134.4C140.781 134.27 140.521 134.15 140.251 134.02C140.081 141.38 139.101 184.05 139.051 211.04C139.731 211.32 140.401 211.59 141.051 211.85V171.06V171.05Z" fill="black"/>
<path d="M172.451 218.29C172.501 218.29 172.561 218.29 172.611 218.29C173.191 218.29 173.811 218.27 174.461 218.25C176.031 198.55 178.701 164.02 179.601 146.75C179.401 146.75 179.211 146.75 179.021 146.76L172.451 218.29Z" fill="black"/>
<path d="M170.272 220.4C169.872 225.43 169.562 229.23 169.402 231.16C167.092 231.79 162.252 233.16 157.892 234.6C157.882 235.29 157.862 235.95 157.852 236.59L171.272 232.72L172.032 222.26C171.082 222.17 170.332 221.38 170.272 220.4Z" fill="black"/>
<path d="M177.25 146.76C176.68 146.76 176.13 146.76 175.59 146.75C174.66 164.62 171.85 200.63 170.32 219.83C170.53 218.93 171.36 218.25 172.28 218.29C172.3 218.29 172.32 218.29 172.34 218.29L177.57 146.76C177.46 146.76 177.35 146.76 177.25 146.76Z" fill="black"/>
<path d="M143.281 229.08C142.521 212.65 143.891 149.81 144.211 135.87C143.181 135.39 142.131 134.9 141.051 134.4V171.07L141.561 212.06C141.631 212.09 141.691 212.11 141.761 212.14C142.791 212.53 143.311 213.69 142.921 214.72C142.691 215.33 142.191 215.76 141.611 215.92L141.791 230.45L153.861 236.84C153.871 236.18 153.881 235.48 153.901 234.75C151.401 233.89 147.291 232.15 143.281 229.08Z" fill="black"/>
<path d="M177.651 145.64L177.571 146.76C178.041 146.76 178.521 146.76 179.021 146.75L179.171 145.15L176.531 145.4L177.651 145.64Z" fill="black"/>
<path d="M140.621 131.99L141.061 132.21L144.271 133.65C144.281 133.35 144.281 133.17 144.281 133.13C144.281 133.07 144.271 133.01 144.271 132.95L141.171 131.45C140.941 131.59 140.761 131.78 140.621 131.99Z" fill="black"/>
<path d="M140.62 131.99C140.41 132.29 140.28 132.65 140.28 133.04C140.28 133.2 140.27 133.54 140.26 134.04C140.53 134.17 140.79 134.29 141.06 134.42V132.22L140.62 131.99Z" fill="black"/>
<path d="M179.01 146.75C179.2 146.75 179.39 146.75 179.59 146.74C179.62 146.17 179.65 145.62 179.67 145.1L179.16 145.15L179.01 146.75Z" fill="black"/>
<path d="M179.16 145.15L179.19 144.8L179.67 144.76C179.64 143.73 178.82 142.88 177.78 142.83C176.69 142.77 175.74 143.63 175.69 144.73C175.68 144.89 175.67 145.06 175.67 145.22L176.52 145.4L179.16 145.15Z" fill="black"/>
<path d="M142.32 131.08C141.9 131.07 141.49 131.21 141.15 131.45L144.25 132.95C144.19 131.93 143.36 131.11 142.32 131.08Z" fill="black"/>
<path d="M179.68 144.76L179.2 144.8L179.17 145.15L179.68 145.1C179.68 145.04 179.69 144.98 179.69 144.92C179.69 144.87 179.68 144.82 179.68 144.76Z" fill="black"/>
<path d="M176.52 145.4L175.65 145.48C175.63 145.89 175.61 146.31 175.59 146.75C176.12 146.76 176.67 146.76 177.25 146.76C177.35 146.76 177.46 146.76 177.57 146.76L177.65 145.64L176.52 145.4Z" fill="black"/>
<path d="M141.051 132.21V134.41C142.121 134.91 143.171 135.4 144.211 135.88C144.231 134.86 144.251 134.11 144.261 133.65L141.051 132.21Z" fill="black"/>
<path d="M176.52 145.4L175.67 145.22C175.67 145.31 175.66 145.4 175.66 145.48L176.52 145.4Z" fill="black"/>
<path d="M141.051 216.01C141.241 216.01 141.431 215.98 141.611 215.93L141.561 212.07C141.391 212.01 141.221 211.94 141.051 211.87V212.76L139.051 211.94C139.051 213.12 139.051 214.27 139.051 215.39C139.481 215.56 139.921 215.74 140.341 215.9C140.571 215.97 140.811 216.01 141.051 216.01Z" fill="black"/>
<path d="M139.051 211.92L141.051 212.74V211.85C140.401 211.59 139.731 211.32 139.051 211.04C139.051 211.34 139.051 211.64 139.051 211.92Z" fill="black"/>
<path d="M142.921 214.72C143.311 213.69 142.791 212.53 141.761 212.14C141.691 212.12 141.631 212.09 141.561 212.06L141.611 215.92C142.191 215.76 142.691 215.33 142.921 214.72Z" fill="black"/>
<path d="M155.82 239.43C155.83 239.43 155.84 239.43 155.85 239.43C155.7 239.43 155.56 239.41 155.41 239.38C155.54 239.41 155.68 239.43 155.82 239.43Z" fill="black"/>
<path d="M157.7 142C156.51 165.34 154.32 213.37 153.9 234.76C154.7 235.04 155.34 235.23 155.76 235.34C156.45 235.09 157.17 234.85 157.91 234.6C158.34 213.6 160.43 167.43 161.63 143.69C160.39 143.18 159.08 142.61 157.7 142Z" fill="black"/>
<path d="M161.731 141.5C161.731 141.46 161.731 141.43 161.741 141.39L158.141 139.65C158.101 139.71 158.061 139.77 158.031 139.83L161.731 141.5Z" fill="black"/>
<path d="M161.761 140.89C161.821 139.79 160.971 138.85 159.871 138.79C159.181 138.76 158.531 139.11 158.141 139.65L161.741 141.39C161.741 141.22 161.751 141.05 161.761 140.89Z" fill="black"/>
<path d="M157.701 142C159.081 142.61 160.391 143.18 161.621 143.7C161.661 142.94 161.701 142.21 161.731 141.49L158.021 139.82C157.881 140.07 157.781 140.36 157.771 140.67C157.741 141.1 157.721 141.56 157.701 142Z" fill="black"/>
<path d="M157.85 237.46C157.85 237.19 157.86 236.88 157.86 236.59L154.96 237.43L153.86 236.85C153.86 237.03 153.85 237.23 153.85 237.4C153.84 238.36 154.51 239.18 155.41 239.38C155.56 239.41 155.7 239.43 155.85 239.43H155.86C155.98 239.43 156.11 239.42 156.22 239.39C156.27 239.38 156.32 239.36 156.37 239.35C157.21 239.13 157.84 238.38 157.85 237.46Z" fill="black"/>
<path d="M155.752 235.34C155.342 235.23 154.702 235.03 153.892 234.76C153.882 235.49 153.862 236.19 153.852 236.85L154.952 237.43L157.852 236.59C157.862 235.95 157.872 235.29 157.892 234.6C157.172 234.85 156.442 235.1 155.752 235.34Z" fill="black"/>
<path d="M230.411 210.13L190.191 218.39L174.321 220.07C174.261 220.83 174.201 221.56 174.141 222.26C188.271 221.8 219.441 215.24 256.941 205.88V203.64L230.411 210.13Z" fill="black"/>
<path d="M174.311 220.08L190.181 218.4L230.401 210.14L256.931 203.65V201.65C220.331 210.81 188.531 217.67 174.451 218.26C174.411 218.88 174.361 219.48 174.311 220.08Z" fill="black"/>
<path d="M170.27 220.4C170.28 220.21 170.3 220.02 170.32 219.83C170.29 219.97 170.26 220.12 170.26 220.27C170.26 220.32 170.27 220.36 170.27 220.4Z" fill="black"/>
<path d="M172.451 218.29C172.411 218.29 172.381 218.29 172.341 218.29L172.051 222.27C172.121 222.28 172.181 222.29 172.251 222.29C172.371 222.29 172.491 222.29 172.611 222.29C173.091 222.29 173.611 222.28 174.141 222.26C174.201 221.56 174.251 220.83 174.321 220.07L172.271 220.29L172.451 218.29Z" fill="black"/>
<path d="M172.611 218.29C172.561 218.29 172.501 218.29 172.451 218.29L172.271 220.29L174.321 220.07C174.371 219.48 174.421 218.87 174.471 218.25C173.811 218.28 173.181 218.29 172.611 218.29Z" fill="black"/>
<path d="M170.321 219.84C170.301 220.03 170.291 220.22 170.271 220.41C170.321 221.39 171.081 222.17 172.041 222.28L172.331 218.3C172.311 218.3 172.291 218.3 172.271 218.3C171.361 218.26 170.531 218.94 170.321 219.84Z" fill="black"/>
</svg>
