<svg width="257" height="336" viewBox="0 0 257 336" fill="none" xmlns="http://www.w3.org/2000/svg">
<path d="M251.78 153.38C250.86 150.38 249.67 146.01 246.13 145.23C246.11 145.23 246.09 145.22 246.07 145.22C244.12 142.7 241.65 140.57 238.83 139.04C237.63 138.39 236.12 138.75 235.41 139.94C233.72 142.75 231.63 145.24 229.38 147.62C227.24 149.88 225.05 152.62 222.31 154.16C219.72 155.61 216.38 156.79 213.41 157.03C212.25 157.12 211.11 157.07 209.98 156.94C209.89 156.84 209.79 156.74 209.68 156.65C207.38 154.73 204.35 153.94 201.46 154.96C201.15 155.07 200.86 155.23 200.61 155.43C200.35 154.47 199.59 153.69 198.3 153.72C198.19 153.72 198.09 153.73 197.98 153.73C197.43 153.16 196.9 152.55 196.38 151.97C195.96 151.5 195.37 151.28 194.75 151.26C193.46 149.35 190.44 150.05 190.19 152.6C189.82 156.33 186.64 159.33 184.17 161.84C181.18 164.89 177.95 167.51 174.24 169.62C174.07 169.63 173.89 169.66 173.7 169.71C157.27 174.24 137.35 166.29 131.32 149.7C129.45 144.55 128.94 138.97 126.71 133.95C127.1 133.54 127.35 133 127.35 132.33C127.35 131.84 127.16 131.31 126.85 130.87C127.24 128.33 127.63 125.79 128.02 123.26C128.49 120.17 128.97 117.19 130 114.23C131.85 108.92 134.25 103.98 137.52 99.4399C137.69 99.3299 137.85 99.1899 138 99.0199C139.05 97.8299 140.11 96.6499 141.25 95.5599C141.57 95.5299 141.89 95.4299 142.2 95.2499C142.83 94.8899 143.44 94.4899 144.03 94.0699C144.74 93.7499 145.43 93.3899 146.1 92.9999C147 93.4399 148.14 93.3299 148.98 92.5599C150.83 90.8899 153.71 90.8899 156.06 90.7999C159.37 90.6699 162.75 90.6599 166.02 91.2799C169.02 91.8399 171.85 92.8799 174.46 94.4699C176.64 95.7999 179.18 97.5899 180.16 100.07C181.15 102.57 184.46 102.17 184.98 100.03C185.05 99.8799 185.1 99.7299 185.14 99.5599C186.07 95.1499 188.88 91.5599 192.92 89.5799C194.68 88.7199 194.4 86.1999 192.92 85.2599C190.23 83.5599 187.34 82.2099 184.33 81.1799C183.89 81.0299 183.49 81.0299 183.11 81.1199C182.31 80.5799 181.5 80.08 180.61 79.67C177.54 78.23 174.21 77.5099 170.82 77.6299C170.53 77.6399 170.25 77.7099 169.99 77.8199C165.63 76.2199 161.06 75.2099 156.4 75.0499C154.45 74.9799 152.52 75.1099 150.59 75.3599C151.9 74.6799 152.89 73.6399 153.16 71.9999C153.45 70.2599 153.29 68.4099 153.29 66.6499L153.32 60.2599C153.34 56.3199 153.35 52.39 153.37 48.45C153.37 47.65 153.14 46.4 153.38 45.64C153.41 45.54 152.67 46.2199 153.58 45.4099C153.79 45.2299 153.99 45.0499 154.2 44.8599C155.56 43.6699 156.9 42.4599 158.21 41.2299C163.09 36.63 167.64 31.59 171.22 25.89C173.01 23.04 174.58 19.9999 175.72 16.8299C176.29 15.2599 176.55 13.4799 175.84 11.9099C175.8 11.5799 175.69 11.2499 175.47 10.9399C174.5 9.59994 172.99 8.67995 171.37 8.75995C166.58 8.09995 161.51 12.38 158.34 15.45C156.08 17.64 153.79 19.8699 151.8 22.3199C149.74 24.8399 147.91 27.5399 147.71 30.8599C146.29 33.7199 145.17 36.7599 144.25 39.8399C143.27 41.5499 142.57 43.4199 142.04 45.3499C141.12 48.7099 140.44 52.1499 140.01 55.5999C139.2 62.1399 140.64 68.5699 140.66 75.0899C136.77 76.3499 132.85 77.5699 128.87 78.4999C128.44 78.5599 128.01 78.6199 127.58 78.7099C127.1 78.8099 126.63 78.9399 126.17 79.0999C124.36 79.4499 122.54 79.73 120.7 79.89C118.97 80.04 117.14 79.9599 115.4 80.2499C111.93 74.0099 109.45 67.2899 106.53 60.7799C104.95 57.2499 103.22 53.7699 101.12 50.5099C100.92 50.1999 100.72 49.8999 100.51 49.5999C102.12 47.9799 103.5 46.0299 104.79 44.3299C107.25 41.0799 109.42 37.61 111.26 33.9799C113.19 30.1899 114.64 26.1899 116.52 22.3799C118.35 18.6399 120.18 14.7699 119.97 10.4999C119.96 10.2399 119.9 9.99994 119.82 9.77994C119.95 8.30994 119.74 6.86993 119.04 5.48993C119.01 5.42993 118.98 5.36995 118.94 5.28995C118.83 5.07995 118.72 4.86993 118.57 4.67993C118.45 4.50993 118.33 4.32994 118.2 4.15994C117.53 3.28994 116.57 3.19995 115.72 3.53995C114.41 3.27995 112.92 3.53994 111.73 3.87994C107.99 4.94994 105.14 7.71993 102.7 10.6199C100.23 13.5499 98.0199 16.6899 96.1499 20.0299C94.2999 23.3399 92.1499 27.0799 92.5899 30.9799C90.6199 36.1599 89.6699 41.7199 89.8699 47.2799C89.8699 47.3399 89.8899 47.3899 89.8899 47.4399C89.8899 48.2099 89.9099 48.9899 89.9399 49.7599C90.0799 53.0199 90.4499 56.2699 91.0199 59.4799C91.5799 62.62 92.3499 65.7299 93.3399 68.7699C93.8099 70.2199 94.3699 72.1199 95.3599 73.4999C96.0399 76.0199 96.8399 78.5599 98.0199 80.8799C98.6699 82.1499 99.5799 83.24 100.37 84.42C100.75 84.99 101.18 85.6399 101.38 86.3199C100.89 86.4199 100.41 86.5199 99.9499 86.6199C97.7099 87.0999 95.5299 87.8099 93.4199 88.6899C88.9399 90.5499 84.8599 93.08 81.0999 96.14C73.7099 102.17 68.0799 110.17 63.4499 118.43C61.9399 121.12 60.7499 123.86 60.1099 126.89C59.8199 128.24 59.5499 129.59 59.2899 130.95C58.5799 132.09 58.1599 133.34 58.0699 134.65C57.3999 134.77 56.7699 135.13 56.3399 135.76C56.1099 136.11 55.8799 136.45 55.6399 136.8C54.8799 137.93 55.2199 139.03 55.9899 139.72C56.1099 150.29 57.3799 160.73 61.0799 170.71C62.6399 174.91 65.0299 178.67 67.9699 182.04C69.9199 184.27 72.0899 186.24 74.3899 188.07C75.4799 189.53 76.7499 190.86 78.1399 192.02C80.2299 193.77 82.5099 195.26 84.8599 196.63C85.9099 197.24 86.9599 197.86 88.0299 198.44C107.41 206.14 127.62 207.96 149.31 206.56C150.56 205.87 151.88 205.41 153.34 205.15C154 205.03 154.64 204.9 155.27 204.73C155.31 204.79 155.36 204.85 155.4 204.9C156.58 206.29 158.12 207.32 159.8 208.14C161.27 209.52 163.14 210.44 165.1 210.99C166 211.46 166.93 211.9 167.88 212.3C168.18 212.42 168.5 212.44 168.82 212.39C169.1 212.66 169.44 212.87 169.85 212.96C170.68 213.14 171.5 213.24 172.32 213.32C175.09 213.67 177.89 213.82 180.67 213.64C181.07 213.61 181.46 213.57 181.85 213.51C186.34 214.52 191.41 213.08 194.53 209.66C194.8 209.53 195.06 209.38 195.31 209.22C197.75 207.62 199.3 205.17 200.59 202.62C201.43 202.46 202.13 201.8 202.43 201.01C206.29 201.5 210.16 201.33 214 200.77C217.44 200.59 221.13 200.52 224.32 199.27C224.91 199.04 225.41 198.65 225.74 198.16C230.13 196.93 234.48 195.38 238.31 192.98C248.23 186.78 253.76 175.25 253.43 163.69C253.36 160.18 252.79 156.69 251.78 153.38Z" fill="#DAED95"/>
<path d="M103.07 200.89C103.11 200.91 103.16 200.94 103.2 200.97C103.28 201.01 103.34 201.05 103.38 201.08C103.42 201.25 103.36 201.47 103.35 201.64C103.31 202.28 103.23 202.9 103.3 203.55C103.32 203.76 103.38 203.96 103.45 204.15C101.14 207.73 99.3505 215.21 100.07 219.43C100.6 227 103.33 231.39 108.8 236.64C106.74 237.46 109.5 239.66 108.7 241.2C107.5 243.51 106.76 245.99 106.32 248.55C105.52 253.21 105.17 257.96 104.73 262.68C102.07 262.57 99.4004 262.51 96.7404 262.67C93.3104 262.88 90.1404 263.61 86.8504 264.56C85.3604 264.99 82.7904 260.74 82.1604 260.46C77.3904 258.3 72.3405 257.96 67.0705 257.51C64.5405 257.29 62.0504 257.63 59.6004 258.28C57.7504 258.77 56.4804 258.82 54.5404 258.74C51.0304 249.51 45.7305 240.07 36.3205 236.15C40.6005 227.82 39.6605 218.09 36.6005 209.37C39.3105 209.47 42.0505 209.35 44.6405 208.55C48.1505 207.47 51.1804 205.12 52.7204 201.72C54.2704 198.32 54.3304 194.49 52.7404 191.09C51.2104 187.82 48.1904 185.34 44.7404 184.38C44.3204 184.26 43.8905 184.29 43.5005 184.42C40.6005 183.34 37.4905 182.86 34.3905 183.1C28.4705 183.56 22.6004 186.41 18.8304 191.1C18.2604 191.81 16.0805 190.98 15.8105 191.74C15.6505 191.83 15.4905 191.93 15.3405 192.05C12.0705 194.65 10.9604 198.9 8.93045 202.61C7.02045 206.1 5.55047 209.91 4.42047 213.73C2.14047 221.47 1.54046 229.85 3.94046 237.63C3.95046 237.65 3.96045 237.66 3.96045 237.68C3.74045 246.7 5.50045 255.66 9.18045 263.98C9.23045 264.1 9.30044 264.2 9.36044 264.3C9.52044 264.91 9.69047 265.51 9.89047 266.1C11.5405 271.09 14.0305 275.74 16.7005 280.24C19.4405 284.85 22.3605 289.36 25.4405 293.75C26.2005 294.83 26.9705 295.92 27.7505 296.98C28.5105 298.01 29.2905 299.08 30.4105 299.75C31.1205 300.18 31.9405 300.41 32.7605 300.45C39.6605 308.21 48.2804 314.36 57.6804 318.74C58.1304 318.95 58.5904 319.15 59.0504 319.35C62.4704 321.55 66.2105 323.18 70.0805 324.58C75.7005 326.61 81.4804 328.13 87.4104 328.84C90.6504 329.23 93.9305 329.34 97.1905 329.08C98.3005 328.99 99.5405 328.92 100.77 328.71C100.91 328.71 101.04 328.72 101.18 328.72C108.14 328.63 115.19 326.55 119.9 321.32C121.72 320.19 123.47 318.94 125.14 317.59C127.46 315.71 130.19 313.36 131.47 310.49C131.48 310.49 131.49 310.49 131.5 310.49C133.33 310.61 134.29 308.13 133.24 306.86C133.26 306.85 133.27 306.84 133.29 306.83C137.46 304.27 139.42 300.07 140.08 295.34C140.41 292.99 140.69 290.67 141.48 288.41C142.24 286.23 143.37 284.2 144.57 282.24C145.79 280.25 147.11 278.34 148.39 276.39C149.1 275.3 149.63 274.18 149.41 272.85C149.2 271.61 148.58 270.4 148.21 269.19C146.56 263.82 146.22 258.08 147.26 252.55C147.27 252.51 147.26 252.47 147.27 252.43C148.84 252.03 149.72 249.5 147.92 248.3C144.63 246.08 142.35 242.58 141.35 238.74C140.73 236.35 140.61 233.84 140.91 231.4C141.2 229.04 142.04 226.9 142.76 224.65C143.13 223.49 143.27 222.36 143.23 221.25C143.62 220.99 143.97 220.61 144.27 220.08C144.69 219.34 144.81 218.52 145.31 217.82C145.51 217.54 145.74 217.31 145.98 217.1C146.93 217.79 148.4 217.84 149.23 216.57C151.08 213.73 153 210.67 155.83 208.7C156.15 208.47 155.05 202.77 155.38 202.59C136.38 203.8 120.08 207.7 103.07 200.89Z" fill="#DAED95"/>
<path d="M206.411 264.83C206.191 260.51 205.511 256.21 204.391 252.04C204.371 251.97 204.341 251.91 204.321 251.85C204.391 251.52 204.381 251.18 204.271 250.86C203.631 248.99 202.551 247.49 201.261 246.03C200.721 245.42 200.161 244.57 199.531 244.06C199.571 243.91 199.611 243.76 199.651 243.61C199.781 243.08 199.891 242.55 199.981 242.02C200.771 237.59 200.621 233.08 199.511 228.72C199.381 228.21 199.061 227.79 198.651 227.51C198.191 225.31 197.171 223.27 195.751 221.54C195.651 221.29 195.541 221.03 195.441 220.77C194.941 219.55 194.381 218.43 193.641 217.35C193.281 216.82 192.911 216.3 192.571 215.76C192.371 215.44 192.181 215.11 191.981 214.78C191.961 214.74 191.851 214.54 191.751 214.37C191.621 213.58 190.891 212.74 190.171 212.61C190.151 212.61 190.131 212.6 190.111 212.6C189.061 212.4 187.851 212.86 187.491 213.98C184.511 213.03 181.331 213.23 178.231 212.81C174.731 212.33 166.941 212.2 163.651 210.86C162.171 210.26 160.751 209.49 159.421 208.6C158.051 207.69 155.161 206.18 155.161 206.18C155.161 206.18 152.491 206.82 150.241 209.32C147.641 212.22 146.141 215.84 144.851 219.5C143.381 222.02 142.551 224.85 142.001 227.72C141.431 230.71 140.841 233.85 141.071 236.91C141.311 240.01 142.411 242.75 144.471 245.04C145.461 246.14 146.621 247.06 147.781 247.96C148.281 248.34 148.871 248.71 149.391 249.13C146.471 255.73 146.461 263.34 149.441 269.88C149.381 270.08 149.331 270.29 149.311 270.51C149.081 273.07 147.621 275.35 146.311 277.47C144.751 279.98 143.331 282.49 142.221 285.24C141.141 287.93 140.351 290.73 139.911 293.61C139.801 294.35 139.631 295.19 139.541 296.02C139.301 296.19 139.111 296.42 138.971 296.7C135.561 303.79 132.081 311.29 126.501 316.88C123.931 319.46 121.031 321.63 118.031 323.66C116.471 324.71 114.881 325.87 113.141 326.61C111.481 327.31 109.671 327.14 108.011 327.78C105.781 328.64 106.021 332.1 108.591 332.17C108.771 332.17 108.991 332.17 109.171 332.25C109.581 332.43 110.021 332.52 110.431 332.5C115.401 333.44 120.441 333.97 125.501 333.97C127.821 333.97 130.141 333.87 132.471 333.76C132.541 333.78 132.601 333.81 132.681 333.82C132.881 333.86 133.071 333.87 133.261 333.89V333.9C133.321 333.91 133.381 333.9 133.441 333.91C133.671 333.93 133.911 333.95 134.141 333.95C136.461 334.09 138.771 333.9 141.051 333.4C141.241 333.36 141.401 333.29 141.551 333.22C144.541 333.23 147.531 333.06 150.511 332.68C152.461 332.43 154.411 332.15 156.291 331.58C158.141 331.02 159.861 330.12 161.601 329.28C163.201 328.51 164.881 328.12 166.591 327.69C168.451 327.22 170.221 326.54 171.871 325.54C174.911 323.7 177.911 321.32 180.311 318.65C181.651 317.16 182.861 315.49 183.721 313.66C184.171 312.7 184.571 311.69 184.841 310.66C184.951 310.24 185.041 309.81 185.111 309.37C185.141 309.19 185.201 308.98 185.231 308.78C185.571 308.62 185.891 308.37 186.121 308.07C189.821 306.51 193.071 304.12 195.971 301.28C197.551 299.73 199.181 298.08 200.341 296.16C201.541 294.17 202.291 291.85 203.151 289.68C203.211 289.6 203.281 289.53 203.331 289.44C204.131 288.14 204.361 286.69 204.511 285.18C204.651 283.69 204.781 282.19 204.771 280.7C204.751 278.42 204.371 276.07 203.351 274.02C204.181 273.11 204.951 272.14 205.491 271.03C206.451 269.04 206.521 266.98 206.411 264.83Z" fill="#FBECA9"/>
<path d="M156.471 225.54L158.561 229.09L157.511 234.62L153.351 236.62L149.141 234.68L149.871 229.09L152.131 225.54H156.471Z" fill="#BB8DF5"/>
<path d="M162.841 257.44L165.69 260.41L165.94 266.03L162.35 268.94L157.8 268.01L157.23 262.4L158.62 258.43L162.841 257.44Z" fill="#BB8DF5"/>
<path d="M153.97 288.45L157.77 291.42L158.1 297.05L153.31 299.95L147.25 299.02L146.5 293.41L148.35 289.44L153.97 288.45Z" fill="#BB8DF5"/>
<path d="M235.08 137.83C247.41 138.11 263.38 159.98 248.98 183.87C241.22 196.75 223.34 202.42 205.57 201.78C182.72 200.95 159.87 190.92 156.93 185.44" stroke="black" stroke-width="4" stroke-miterlimit="10" stroke-linecap="round" stroke-linejoin="round"/>
<path d="M152.129 191.23C152.129 191.23 153.969 185.44 161.589 182.48" stroke="black" stroke-width="4" stroke-miterlimit="10" stroke-linecap="round" stroke-linejoin="round"/>
<path d="M229.779 165.01C229.779 165.01 233.919 166.23 235.329 167.27" stroke="black" stroke-width="4" stroke-miterlimit="10" stroke-linecap="round" stroke-linejoin="round"/>
<path d="M243.408 162.71C243.398 162.23 243.748 160.56 244.008 159.98" stroke="black" stroke-width="4" stroke-miterlimit="10" stroke-linecap="round" stroke-linejoin="round"/>
<path d="M201.539 201.54C199.709 211.56 188.269 213.61 178.109 213.6C169.429 213.6 155.729 208.59 153.759 204.71C151.609 205.31 148.359 206.19 146.629 206.55" stroke="black" stroke-width="4" stroke-miterlimit="10" stroke-linecap="round" stroke-linejoin="round"/>
<path d="M115.988 80.69C122.058 78.57 141.708 74.55 159.168 75.54C175.398 76.46 190.528 81.66 195.738 87.46" stroke="black" stroke-width="4" stroke-miterlimit="10" stroke-linecap="round" stroke-linejoin="round"/>
<path d="M112.04 204.36C103.74 205.24 84.8601 199.36 72.6501 188.27C61.3901 178.04 57.17 165.31 56.23 151C54.33 122.06 70.3501 95.4701 98.7701 85.8701" stroke="black" stroke-width="4" stroke-miterlimit="10" stroke-linecap="round" stroke-linejoin="round"/>
<path d="M158.508 231.74C157.948 235.01 155.938 237.61 152.338 237.53C149.438 237.46 147.668 234.61 148.118 230.97C148.538 227.65 150.528 224.48 154.148 224.73C156.818 224.92 159.258 227.37 158.508 231.74Z" stroke="black" stroke-width="4" stroke-miterlimit="10" stroke-linecap="round" stroke-linejoin="round"/>
<path d="M166.45 260.92C167.41 264.1 166.78 267.32 163.53 268.86C160.91 270.1 158.04 268.34 156.82 264.88C155.71 261.73 156.07 257.99 159.42 256.6C161.89 255.58 165.16 256.68 166.45 260.92Z" stroke="black" stroke-width="4" stroke-miterlimit="10" stroke-linecap="round" stroke-linejoin="round"/>
<path d="M157.309 296.78C155.899 299.78 152.559 301.49 149.029 300.26C146.289 299.31 145.869 296.19 147.109 292.74C148.239 289.6 150.889 286.93 154.359 287.97C156.909 288.74 159.569 291.98 157.309 296.78Z" stroke="black" stroke-width="4" stroke-miterlimit="10" stroke-linecap="round" stroke-linejoin="round"/>
<path d="M102.539 203.45C92.4594 218.18 106.779 245.04 125.009 244.15" stroke="black" stroke-width="4" stroke-miterlimit="10" stroke-linecap="round" stroke-linejoin="round"/>
<path d="M108.819 238.69C106.579 242.9 101.649 253.33 105.729 267.96" stroke="black" stroke-width="4" stroke-miterlimit="10" stroke-linecap="round" stroke-linejoin="round"/>
<path d="M103.659 262.32C99.3592 260.76 82.9392 260.41 77.9492 271.68" stroke="black" stroke-width="4" stroke-miterlimit="10" stroke-linecap="round" stroke-linejoin="round"/>
<path d="M40.0996 269.12C44.9796 261.52 58.6096 256.21 65.2096 256.26C73.4296 256.32 83.9396 259.81 85.3996 264.14" stroke="black" stroke-width="4" stroke-miterlimit="10" stroke-linecap="round" stroke-linejoin="round"/>
<path d="M54.5491 258.72C53.9391 253.77 50.6791 251.91 48.2391 247.77C43.1091 239.09 37.9391 237.66 36.1191 236.62" stroke="black" stroke-width="4" stroke-miterlimit="10" stroke-linecap="round" stroke-linejoin="round"/>
<path d="M22.8984 238.2C25.1284 239.16 28.8484 238.94 32.4884 237.62C36.9984 235.98 38.2584 232.02 39.0184 226.34C39.8184 220.34 39.2185 213.68 35.4485 209.73" stroke="black" stroke-width="4" stroke-miterlimit="10" stroke-linecap="round" stroke-linejoin="round"/>
<path d="M101.93 328.75C118.01 337.27 147.93 333.33 156.57 331.03C167.02 328.25 182.03 322.7 185.77 309.16" stroke="black" stroke-width="4" stroke-miterlimit="10" stroke-linecap="round" stroke-linejoin="round"/>
<path d="M189.66 213.97C192.78 216.53 198.48 224.55 200.28 229.9C202.19 235.54 202.44 244.41 198.47 247.96" stroke="black" stroke-width="4" stroke-miterlimit="10" stroke-linecap="round" stroke-linejoin="round"/>
<path d="M149.87 212.16C143.85 218.36 134.35 238.45 143.85 246.01" stroke="black" stroke-width="4" stroke-miterlimit="10" stroke-linecap="round" stroke-linejoin="round"/>
<path d="M148.378 250.1C143.418 261.01 145.898 272.17 154.948 276.26" stroke="black" stroke-width="4" stroke-miterlimit="10" stroke-linecap="round" stroke-linejoin="round"/>
<path d="M146.9 277.69C141.67 285.54 137.22 294.34 139.83 301.48" stroke="black" stroke-width="4" stroke-miterlimit="10" stroke-linecap="round" stroke-linejoin="round"/>
<path d="M159.049 246.63C169.469 253.08 188.559 251.95 192.529 250.28" stroke="black" stroke-width="4" stroke-miterlimit="10" stroke-linecap="round" stroke-linejoin="round"/>
<path d="M162.02 277.69C170.95 280.6 191.279 282.53 197.979 277.69" stroke="black" stroke-width="4" stroke-miterlimit="10" stroke-linecap="round" stroke-linejoin="round"/>
<path d="M202.938 274.74C209.348 266.76 207.398 252.21 200.318 245.37" stroke="black" stroke-width="4" stroke-miterlimit="10" stroke-linecap="round" stroke-linejoin="round"/>
<path d="M141.689 306.65C144.229 310.56 163.059 315.86 176.659 312.27C197.989 306.65 208.749 294.1 202.949 274.74" stroke="black" stroke-width="4" stroke-miterlimit="10" stroke-linecap="round" stroke-linejoin="round"/>
<path d="M134.249 304.2C131.269 311.05 123.749 324.75 103.659 328.47C86.8093 331.59 66.0393 324.21 52.8293 316.4C32.9793 304.66 22.5893 292.65 14.9693 279.2C4.65928 261 2.23929 242.54 2.41929 227.54C2.61929 211.57 7.02929 202.51 12.9793 195.67C23.3493 183.77 33.2893 182.36 39.4293 183.23C46.3893 184.22 53.6493 187.12 54.3093 195.63C54.7993 201.96 51.0893 208.61 41.4193 209.45C35.7593 209.94 32.3493 208.91 30.3593 207.13" stroke="black" stroke-width="4" stroke-miterlimit="10" stroke-linecap="round" stroke-linejoin="round"/>
<path d="M101.399 88.3101C92.9294 75.3201 85.2094 48.09 91.2394 30.9C99.9394 6.06005 111.179 1.32007 115.989 2.48007C120.959 3.68007 121.909 8.98006 119.449 16.6001C114.959 30.5001 102.709 49.2101 97.4494 50.2901" stroke="black" stroke-width="4" stroke-miterlimit="10" stroke-linecap="round" stroke-linejoin="round"/>
<path d="M100.91 48.0901C104.22 53.6701 111.94 77.7701 117.21 83.7901" stroke="black" stroke-width="4" stroke-miterlimit="10" stroke-linecap="round" stroke-linejoin="round"/>
<path d="M140.159 76.1C138.109 58.38 141.589 36.26 149.869 24.03C158.149 11.79 167.469 4.16999 174.889 8.83999C180.089 12.11 176.339 21.35 169.349 29.77C162.359 38.19 153.259 45.68 148.459 46.99" stroke="black" stroke-width="4" stroke-miterlimit="10" stroke-linecap="round" stroke-linejoin="round"/>
<path d="M152.129 75.3801C153.549 67.2501 153.539 52.8701 152.129 45.3101" stroke="black" stroke-width="4" stroke-miterlimit="10" stroke-linecap="round" stroke-linejoin="round"/>
<path d="M221.049 89.72C220.729 89.17 220.239 88.7 219.549 88.36C213.979 85.63 202.469 82.31 197.779 88.19C196.749 87.8 195.599 87.83 194.569 88.52C189.729 91.76 186.809 96.27 184.659 101.62C184.079 103.07 183.679 104.41 183.359 105.8C181.249 101.75 178.619 98.07 174.589 95.62C174.069 95.3 173.529 95.14 172.999 95.09C172.979 95.08 172.959 95.06 172.939 95.05C170.729 93.64 168.529 92.99 165.959 92.89C165.669 92.74 165.349 92.62 164.989 92.53C157.189 90.66 149.259 92.07 142.839 96.98C142.179 97.48 141.749 98.09 141.469 98.73C140.729 99.34 140.029 99.98 139.339 100.65C134.779 102.53 131.049 109.1 129.829 113.19C129.479 114.38 129.659 115.4 130.159 116.21C130.089 116.52 130.039 116.85 130.019 117.2C129.979 117.95 129.939 118.7 129.909 119.46C129.669 119.86 129.499 120.29 129.419 120.77C128.509 126.42 127.939 132.2 129.229 137.75C128.079 138.98 127.519 140.74 128.029 142.44C128.579 144.28 129.359 146.09 130.399 147.7C130.559 147.95 130.739 148.18 130.939 148.4C130.989 148.46 131.059 148.52 131.109 148.58C131.229 148.7 131.339 148.82 131.469 148.92C131.569 149.01 131.669 149.09 131.779 149.16C131.939 149.28 132.109 149.39 132.289 149.49C132.329 149.51 132.359 149.53 132.389 149.55C132.809 149.77 133.259 149.94 133.729 150.03C133.999 150.77 134.309 151.49 134.669 152.2C134.779 157.89 142.629 163.42 146.849 165.92C149.239 167.33 152.379 169.92 155.379 169.65C156.499 170.14 157.479 170.33 158.899 170.4C159.099 170.52 159.299 170.64 159.529 170.74C162.659 172.13 165.959 169.97 168.859 168.78C172.719 168.01 176.449 166.47 179.249 164.02C179.889 163.86 180.519 163.51 181.089 162.89C185.799 157.79 189.769 152.66 190.689 145.79C194.129 149.86 198.529 152.99 203.689 154.75C206.949 155.87 213.569 157.28 216.619 154.58C223.009 153.66 228.809 149.81 232.159 144.25C235.419 138.82 236.599 133.32 236.679 127.58C239.519 115.43 233.089 96.06 221.049 89.72ZM176.109 156.5C175.469 156.77 174.869 157.2 174.369 157.85C172.839 159.83 169.739 160.16 167.459 160.62C165.249 161.07 163.149 161.36 160.959 161.28C160.609 160.89 160.239 160.52 159.819 160.21C158.349 159.13 156.739 158.68 155.059 158C150.869 156.28 147.549 153.34 145.139 149.53C144.809 149.01 144.379 148.62 143.889 148.32C143.799 148.11 143.699 147.89 143.579 147.67C142.289 145.38 142.469 142.39 142.139 139.83C141.809 137.27 141.339 134.76 140.729 132.26C140.959 131.8 141.129 131.28 141.199 130.7C141.749 126.08 142.349 121.49 143.339 116.94C143.619 115.66 143.319 114.57 142.709 113.74C144.809 110.29 147.809 107.42 151.469 105.17C152.199 104.72 152.729 104.18 153.109 103.58C153.379 103.55 153.669 103.5 153.959 103.41C155.749 102.88 157.539 102.44 159.349 102.05C160.599 101.93 161.829 101.9 163.049 101.95C163.339 102.68 163.909 103.34 164.879 103.79C166.839 104.7 169.219 105.04 170.979 106.18C173.099 107.55 174.829 109.98 176.229 112.01C176.429 112.3 176.649 112.54 176.869 112.76C176.509 114.26 176.939 115.92 178.679 116.93C178.679 116.93 178.689 116.93 178.689 116.94C178.729 117.02 178.759 117.1 178.799 117.18C178.869 117.46 178.969 117.75 179.099 118.04C179.739 119.49 180.379 120.94 181.029 122.39C180.809 123.26 180.939 124.24 181.599 125.25C182.959 127.3 182.559 130.76 182.659 133.16C182.789 136.13 182.899 139.12 182.889 142.1C182.879 148.21 179.979 152.23 176.109 156.5ZM228.159 119.33C229.169 126.25 229.319 132.38 226.049 138.76C223.719 143.32 219.749 146.12 214.999 146.65C214.999 146.65 214.999 146.65 214.989 146.65C211.469 145.24 208.439 144.87 205.199 142.64C201.339 139.98 199.429 137.65 197.949 133.16C196.379 128.39 195.249 123.51 194.419 118.55C194.269 117.68 193.899 117.02 193.399 116.55C194.299 109.82 196.629 102.64 200.869 97.36C201.919 97.2 202.769 96.59 203.329 95.77C204.109 95.21 205.379 94.78 206.729 94.43C207.389 95.36 208.439 95.99 209.819 95.94C211.649 95.88 213.479 95.85 215.319 95.83C222.519 97.6 227.369 107.65 228.869 116.3C228.289 117.11 227.979 118.13 228.159 119.33Z" fill="#BB8DF5"/>
<path d="M182.601 131.4C184.571 149.41 175.181 161.21 163.571 161.21C151.961 161.21 140.561 147.19 140.561 131.4C140.561 115.62 149.971 102.82 161.581 102.82C173.191 102.82 182.601 115.62 182.601 131.4Z" fill="white"/>
<path d="M228.079 120.03C229.649 135.33 222.169 145.35 212.929 145.35C203.689 145.35 194.619 133.44 194.619 120.03C194.619 106.62 202.109 95.75 211.349 95.75C220.589 95.75 228.079 106.62 228.079 120.03Z" fill="white"/>
<path d="M56.0901 144.73L76.3401 140.98L115.86 137.03H121.69L122.63 140.29L120.01 143.43L63.1601 150.58L51.6701 156.03L47.7001 161.29L46.1301 166.42L42.7901 167.78L39.3301 165.08L41.0601 156.47L46.8901 149.67L56.0901 144.73Z" fill="#BB8DF5"/>
<path d="M186.86 113.91C183.59 97.91 169.09 88.02 151.49 92.16C134.82 96.08 125.62 116.03 127.99 134.86C130.36 153.67 141.84 172.18 164.7 170.47C183.6 169.06 191.38 152.12 191.19 145.15" stroke="black" stroke-width="4" stroke-miterlimit="10" stroke-linecap="round" stroke-linejoin="round"/>
<path d="M183.59 104.38C184.83 98 190.53 87.45 204.2 85.07C218.95 82.5 232.97 92.92 236.62 114.43C240.42 136.83 230.31 153.85 214.48 155.89C201.35 157.58 194.17 151.19 191.08 147.35" stroke="black" stroke-width="4" stroke-miterlimit="10" stroke-linecap="round" stroke-linejoin="round"/>
<path d="M158.671 102.57C170.341 101.34 180.791 115.57 182.521 127.84C184.351 140.77 181.491 157.32 168.371 159.91C151.641 163.22 142.721 148.24 140.881 134.81C139.041 121.39 144.931 104.02 158.671 102.57Z" stroke="black" stroke-width="4" stroke-miterlimit="10" stroke-linecap="round" stroke-linejoin="round"/>
<path d="M206.88 95.43C218.34 92.82 225.84 105.55 227.71 116.54C229.64 127.9 228.7 143.65 216.34 145.8C206.39 147.53 197.03 136.31 195.05 122.89C193.39 111.65 196.36 97.82 206.88 95.43Z" stroke="black" stroke-width="4" stroke-miterlimit="10" stroke-linecap="round" stroke-linejoin="round"/>
<path d="M43.1207 167.79C43.0107 167.79 42.9007 167.79 42.7907 167.78C40.5907 167.6 38.9507 165.67 39.1307 163.47C40.2007 150.3 52.7007 145.21 63.0007 143.25C70.7507 141.78 105.301 137.02 119.631 135.71C121.341 136.12 122.431 137.61 122.591 139.31C122.711 140.62 122.721 142.67 120.881 143.65C106.721 144.94 72.1107 149.66 64.4907 151.11C53.3307 153.23 47.6407 157.48 47.1007 164.12C46.9307 166.21 45.1807 167.79 43.1207 167.79Z" stroke="black" stroke-width="4" stroke-miterlimit="10" stroke-linecap="round" stroke-linejoin="round"/>
</svg>
