<svg width="1280" height="1172" viewBox="0 0 1280 1172" fill="none" xmlns="http://www.w3.org/2000/svg">
<g clip-path="url(#clip0_3027_18373)">
<path d="M64.7983 725.21L76.5383 725.97L69.1483 738.9L72.3183 742.2L84.6283 738.68L78.3183 756.84L80.6783 764L86.3683 766.23L93.1983 764.37L94.4183 771.52L92.2483 776.51L1217.14 929.7L1211.4 949.78L1209.15 972.66L1212.59 979.6L1210.63 1001.52L1206.18 1017.97L1162.16 1050.44L1134.44 1063.85L1089.15 1082.49L1051.03 1069.5L1023.08 1056.09L989.738 1073.17L949.878 1088.62L935.548 1092.37L908.758 1103.07L877.498 1110.49L871.728 1108.18L820.348 1121.74L811.048 1129.9L772.058 1137.97L710.228 1153.64L703.588 1151.24L669.438 1155.3L664.208 1161.27L644.578 1165.36L616.208 1162.68L577.378 1129.36L530.648 1080.23L438.418 1103.49L427.168 1102.12L403.118 1090.35L377.008 1064.61L350.788 1035.48L336.818 1015.15L336.118 1008.9L307.928 1006.33L301.068 1015.14L272.828 1020.01L233.338 1029.44L214.888 1029.12L197.998 1016.05L186.398 1001.68L179.968 1000.04L146.818 950.33L118.188 904.21L99.9683 869.85L98.9383 858.16L93.9983 855.27L65.4783 796.89L63.4883 752.42L64.7983 725.21Z" fill="#9E7D68"/>
<path d="M126.369 643.21L133.809 643.91L141.999 643.56L743.229 601.08L949.379 719.1L1083.78 768.23L1210.98 814.61L1219.43 821.85L1241.05 816.94L1242.25 821.85L1230.75 831.89H1245L1248.53 836.14L1259.35 841.45L1269.15 851.95L1268.63 867.43L1264.49 877.41L1273.31 886.3V891.24L1265.99 893.12L1260.91 891.43L1257.73 895.44L1254.13 894.91L1246.98 890.77L1238.58 892.75L1248.2 902.44L1255.73 915.11L1254.82 917.52L1252.91 918.6L1242.93 916.18L1238.58 929.17L1233.99 929.7L1227.03 921.45L1223.99 923.79L1225.99 937.45L1224.39 939.05L1215.25 937.64L1209.01 931.49L1200.77 933.03L1190.13 924.47L1187.03 928.79L1179.03 929.7L1172.35 937.32L1163.13 937L1161.33 946.11L1156.9 946.92L1148.53 942.44L1136.49 947.99L1131.97 956.09L1125.66 954.21L1108.16 958.94L1091.88 957.5L1088.2 961.4H1083.67L1074.28 955.81L1063.3 968.38L1054.93 970.63L1047.45 967.57L1041.05 971.9L1035.88 972.18L1030.42 964.94L1022.93 965.5L1018.27 961.86L1011.06 970.43L1007.46 969.6L1006.23 961.86L1010.46 950.91L1002.84 952.23L996.719 950.85L981.329 958.82L979.309 967.29L974.229 968.35L954.899 968.51L953.519 976.57L950.889 977.35L940.049 972.84L935.549 974.63L927.859 973.34L915.589 975.38L909.359 976.56L904.389 974.72L891.119 976.9L877.309 977.35L877.099 986.49L871.829 989.63L861.509 988.56L859.289 994.22L854.999 995.33L853.589 1001.78L845.859 1004.61L832.999 1000.09L827.869 1001.36L822.749 1000.6L818.589 1015.06L813.669 1018.53L808.609 1016.38L801.809 1000.04L781.669 1010.33L767.209 1010.52L764.719 1014.63L754.279 1012.65L751.429 1021.57L747.249 1022.68L742.719 1016.51L736.559 1029.6L731.499 1033.87L727.259 1030.91L725.569 1018.21L705.149 1027.71L691.409 1027.62L684.009 1032.87L675.969 1031.26L672.299 1033.87L664.979 1030.45L662.449 1032.61L654.779 1028.94L644.839 1029.33L635.969 1029.88L630.889 1037.03L625.339 1033.08L624.589 1023.83L625.709 1017.74L621.949 1010.87L611.029 1009.08L605.609 1009L598.319 1001.36L594.939 990.18L581.469 985.34L571.779 977.92L569.429 983.38L563.189 982.78L555.879 977.17L553.169 980.71L543.799 979.71L538.309 986.41L530.969 986.58L520.449 982.28L515.439 988.37L505.519 989.69L498.279 985.55L496.249 987.91L487.829 985.08L484.249 978.3L477.949 984.05L465.809 982.78L457.679 984.81L453.139 991.63L445.009 994.15L433.559 989.94L428.439 989.69L425.539 985.92L425.409 978.77L417.879 976L409.679 975.33L400.419 970.61L385.049 967.85L370.559 952.14L366.959 948.46L365.009 939.16L356.529 935.13L352.989 934.57L348.629 925.61L344.299 923.99L340.349 927.1L335.449 924.94L330.059 927.96L325.479 925.22L324.479 917.69L327.169 904.32L318.979 907.62L309.659 905.39L303.689 902.16L297.209 905.76L290.419 903.9L286.699 898.4L278.339 906.66L268.979 908.28L264.389 907.04L260.549 908.53L254.319 905.19L251.969 896.48L243.309 902.63L233.289 905.92L228.249 904.51L212.439 907.84L204.369 905.62L193.839 894.99L189.829 887.26L183.539 882.3L181.849 874.96L172.709 866.91L169.429 855.27L161.049 853.97L157.949 849.83L157.379 845.88L151.229 836.71L147.109 831.57L139.779 828.56L137.979 817.63L130.849 811.84L121.829 810.8L116.069 813.97L112.559 811.43L114.749 798.63L95.3592 781.22L91.3092 777.92L94.4192 771.52L91.8492 764.09L84.1592 767.1L78.7992 763.05L82.0892 740.75L73.1492 742.65L68.7192 740.28L70.8892 733.31L75.6892 725.21L62.6992 724.53L59.7792 718.07L54.2192 716.07L52.4392 712.8L55.2692 708.47L71.0792 702.89L62.4192 696.81L53.3092 694.76L49.6992 690.84L48.8692 687.97L44.0992 685.23L37.1992 681.15L38.4192 677.41L47.2692 676.47L42.1692 670.64L43.5692 666.42L53.3792 667.34L60.2492 669.69L63.4892 665.83L59.0292 652.28L62.6092 643.91L72.0192 645.43L78.4192 649.17L80.2092 642.38L84.6192 642.15L89.4292 644.56L97.9992 642.44L106.839 643.91H111.599L120.109 635.04L124.799 635.68L126.369 643.21Z" fill="#1CAA90"/>
<path d="M141.179 643.81C138.249 643.57 136.269 644.77 135.359 645.55C132.179 643.01 127.739 644.23 125.619 646.16C127.309 641.31 126.789 636.19 123.999 635.24C122.239 634.64 120.009 635.38 117.359 637.32C114.029 639.77 110.769 644.19 110.299 647.38" stroke="black" stroke-width="4" stroke-miterlimit="10" stroke-linecap="round" stroke-linejoin="round"/>
<path d="M79.2291 650.52C78.3091 645.16 79.4591 642.8 82.6291 642.23C85.8091 641.67 89.0491 644.01 90.3191 646.16" stroke="black" stroke-width="4" stroke-miterlimit="10" stroke-linecap="round" stroke-linejoin="round"/>
<path d="M89.8184 645.43C91.7384 642.37 99.0784 641.1 101.688 644.06C104.728 642.93 109.308 643.39 111.318 644.43" stroke="black" stroke-width="4" stroke-miterlimit="10" stroke-linecap="round" stroke-linejoin="round"/>
<path d="M83.4091 653.69C79.3891 651.55 72.9591 643.91 65.2491 643.91C57.3391 643.91 58.1891 661.69 65.2491 665.83" stroke="black" stroke-width="4" stroke-miterlimit="10" stroke-linecap="round" stroke-linejoin="round"/>
<path d="M67.6892 665.5C65.3792 665.55 61.3392 667.57 60.5792 669.97C55.9192 666.96 44.8192 664.51 42.8392 666.96C40.8592 669.41 42.3692 673.64 47.5492 676.75C40.4892 676.75 37.1992 677.79 37.1992 680.23C37.1992 682.68 44.7292 686.54 50.5592 686.25C48.2492 688.81 49.6792 692.44 52.4392 694.25C55.7192 696.4 61.6592 697.19 64.2592 696.63" stroke="black" stroke-width="4" stroke-miterlimit="10" stroke-linecap="round" stroke-linejoin="round"/>
<path d="M109.739 673.64C108.609 669.76 106.559 660.44 110.299 659.59C114.039 658.74 122.289 670.27 124.089 675.55" stroke="black" stroke-width="4" stroke-miterlimit="10" stroke-linecap="round" stroke-linejoin="round"/>
<path d="M108.709 669.37C106.629 668.06 100.839 665.45 98.7891 666.79" stroke="black" stroke-width="4" stroke-miterlimit="10" stroke-linecap="round" stroke-linejoin="round"/>
<path d="M76.7699 687.97C74.7199 688.61 66.6099 686.7 64.3499 690.09C62.0899 693.48 64.2699 700.35 71.0799 702.89" stroke="black" stroke-width="4" stroke-miterlimit="10" stroke-linecap="round" stroke-linejoin="round"/>
<path d="M78.3191 702.02C73.9391 702.37 53.2791 706.68 52.4391 712.8C51.7991 717.43 59.6891 717.34 61.8791 716.71" stroke="black" stroke-width="4" stroke-miterlimit="10" stroke-linecap="round" stroke-linejoin="round"/>
<path d="M64.8686 713.64C63.5086 714.68 58.7086 720.37 62.5186 723.33C66.3286 726.29 75.0086 725.24 77.9086 723.61" stroke="black" stroke-width="4" stroke-miterlimit="10" stroke-linecap="round" stroke-linejoin="round"/>
<path d="M82.1797 719.48C80.3897 720.52 67.2997 736.52 69.3697 740.75C71.4497 744.99 82.8397 741.79 86.4097 735.01C79.7297 747.34 76.5297 760.89 80.9497 764.75C85.3697 768.61 91.3997 764.09 92.8097 761.17C91.5897 768.23 94.4097 771.24 95.8197 772.09" stroke="black" stroke-width="4" stroke-miterlimit="10" stroke-linecap="round" stroke-linejoin="round"/>
<path d="M98.0891 770.82C97.0991 771.15 90.4691 775.34 92.1091 778.82C93.2191 781.17 95.8291 780.33 95.8291 780.33C95.6391 783.95 108.249 795.06 116.629 797.88" stroke="black" stroke-width="4" stroke-miterlimit="10" stroke-linecap="round" stroke-linejoin="round"/>
<path d="M124.25 788C120.86 790.64 115.09 799.11 113.22 804.96C112.02 808.7 112.5 811.63 114.28 812.84C116.87 814.6 119.95 812.86 121.83 810.79" stroke="black" stroke-width="4" stroke-miterlimit="10" stroke-linecap="round" stroke-linejoin="round"/>
<path d="M127.449 800.14C126.539 800.54 124.339 803.09 123.489 805.98C122.819 808.24 123.189 810.94 124.249 811.43C126.669 812.56 129.139 811.01 129.919 809.81" stroke="black" stroke-width="4" stroke-miterlimit="10" stroke-linecap="round" stroke-linejoin="round"/>
<path d="M367.15 930.72C365.33 937.37 364.61 944.18 366.75 948.12C367.79 950.04 369.8 951.06 372.11 951.47C377.33 966.86 395.12 972.51 401.19 970.39C405.43 976.25 415.73 976.32 418.91 975.9C420.67 977.66 423.35 979.5 425.54 979.99" stroke="black" stroke-width="4" stroke-miterlimit="10" stroke-linecap="round" stroke-linejoin="round"/>
<path d="M365.549 939.16C362.439 939.16 359.359 937.83 358.369 934.4C355.629 936.28 350.709 934.93 350.109 930.31C349.509 925.69 349.939 919.19 351.949 912.06" stroke="black" stroke-width="4" stroke-miterlimit="10" stroke-linecap="round" stroke-linejoin="round"/>
<path d="M349.879 925.41C348.869 925.41 346.659 925.83 344.159 922.96C343.409 925.08 341.029 927.58 337.899 926.35C336.019 925.61 335.439 923.78 335.449 920.51C335.469 915.37 337.639 908.14 339.829 905.26" stroke="black" stroke-width="4" stroke-miterlimit="10" stroke-linecap="round" stroke-linejoin="round"/>
<path d="M335.629 923.15C333.469 927.01 332.159 927.67 329.429 927.95C326.699 928.23 323.119 924.42 325.009 915.97C326.899 907.52 330.919 897.74 335.639 893.69" stroke="black" stroke-width="4" stroke-miterlimit="10" stroke-linecap="round" stroke-linejoin="round"/>
<path d="M333.14 896.42C326.8 896.6 320.68 896.7 321.71 891.52C322.13 889.42 324.38 887.07 327.26 885.31C331.5 882.72 337.07 881.11 339.87 880.89" stroke="black" stroke-width="4" stroke-miterlimit="10" stroke-linecap="round" stroke-linejoin="round"/>
<path d="M329.75 902.13C327.09 903.08 324.2 905.69 321.05 906.63C317.9 907.56 314.51 906.82 312.39 905.27C310.37 905.97 306.61 905.06 305 902.73C302.95 899.74 303.47 894.89 305.42 893.04" stroke="black" stroke-width="4" stroke-miterlimit="10" stroke-linecap="round" stroke-linejoin="round"/>
<path d="M303.89 900.04C301.29 905.27 296.96 906.59 293.57 905.65C290.18 904.71 286.32 900.76 288.02 895.11C285.01 899.58 281.03 905.67 276.44 907.8C271.85 909.93 266.65 908.1 265.43 905.94C263.42 908.89 258.34 909.61 255.55 906.84C252.45 903.77 251.82 896.75 253.95 891.26C251.2 897.57 243.65 904.2 238.42 905.75C233.5 907.22 228.18 905.11 229.24 899.26" stroke="black" stroke-width="4" stroke-miterlimit="10" stroke-linecap="round" stroke-linejoin="round"/>
<path d="M229.41 902.59C226.47 905.63 217.53 910.45 205.58 906.12C196.42 902.8 190.75 891.08 190.99 884.94" stroke="black" stroke-width="4" stroke-miterlimit="10" stroke-linecap="round" stroke-linejoin="round"/>
<path d="M191.18 887.57C185.71 886.73 180.72 881.27 182.79 874.58C171.5 872.51 167.45 857.64 171.12 846.25" stroke="black" stroke-width="4" stroke-miterlimit="10" stroke-linecap="round" stroke-linejoin="round"/>
<path d="M169.809 855.2C167.979 855.43 162.589 855.22 160.209 852.19C157.799 849.11 158.409 843.18 159.649 838.92" stroke="black" stroke-width="4" stroke-miterlimit="10" stroke-linecap="round" stroke-linejoin="round"/>
<path d="M158.59 847.09C157.01 845.69 151.27 839.95 151.17 836.09C149.39 835.71 147.72 834.22 147.26 831.71C146.7 828.65 147.69 824.41 149.19 822.91" stroke="black" stroke-width="4" stroke-miterlimit="10" stroke-linecap="round" stroke-linejoin="round"/>
<path d="M143.269 802.68C140.849 806.23 137.479 815.39 138.959 824.92C139.709 829.75 143.898 831.63 147.178 831.13" stroke="black" stroke-width="4" stroke-miterlimit="10" stroke-linecap="round" stroke-linejoin="round"/>
<path d="M130.28 805.98C129.67 808 130.15 811.56 132.19 814.11C133.94 816.3 137.09 817.67 138.69 817.71" stroke="black" stroke-width="4" stroke-miterlimit="10" stroke-linecap="round" stroke-linejoin="round"/>
<path d="M802.699 994.25C801.429 1005.4 806.089 1018.11 813.149 1018.53C820.209 1018.95 823.029 1003.85 822.889 997.07C825.809 1002.76 832.109 1002.48 833.429 999.38C838.699 1003.62 845.099 1005.97 850.839 1003.8C856.579 1001.64 855.359 993.73 853.569 989.96" stroke="black" stroke-width="4" stroke-miterlimit="10" stroke-linecap="round" stroke-linejoin="round"/>
<path d="M802.49 998.5C797.19 1003.29 783.23 1014.75 766 1010.23" stroke="black" stroke-width="4" stroke-miterlimit="10" stroke-linecap="round" stroke-linejoin="round"/>
<path d="M754.279 1010.96C756.629 1013.89 761.689 1016.31 764.729 1014.63C766.549 1013.62 766.039 1009.49 765.579 1007.76" stroke="black" stroke-width="4" stroke-miterlimit="10" stroke-linecap="round" stroke-linejoin="round"/>
<path d="M743.409 1001.03C741.949 1005.97 742.419 1023.34 748.629 1022.91C754.839 1022.49 754.209 1010.27 753.429 1005.76" stroke="black" stroke-width="4" stroke-miterlimit="10" stroke-linecap="round" stroke-linejoin="round"/>
<path d="M742.719 1007.76C742.209 1017.41 736.699 1035.83 730.419 1033.64C724.139 1031.45 725.409 1005.4 730.419 999.97" stroke="black" stroke-width="4" stroke-miterlimit="10" stroke-linecap="round" stroke-linejoin="round"/>
<path d="M726.17 1015.76C724.11 1018.29 715.68 1023.88 707.03 1026.49C700.56 1028.44 693.82 1028.14 690.28 1026.77C690.68 1029.15 687.51 1032.23 684.01 1032.86C680.94 1033.42 677.6 1031.88 676.35 1029.4C675.86 1036.46 667.31 1034.2 665.53 1029.12C664.64 1032.46 661.2 1033.87 658.47 1032.08C654.83 1029.69 654.34 1018.37 655.08 1013.77" stroke="black" stroke-width="4" stroke-miterlimit="10" stroke-linecap="round" stroke-linejoin="round"/>
<path d="M656.019 1028.06C653.119 1030.74 647.399 1030.25 646.129 1027.21C644.149 1032.65 637.169 1031.45 635.969 1026.43C634.699 1032.78 633.639 1037.09 629.119 1036.31C627.079 1035.96 624.779 1033.58 624.599 1029.39C624.389 1024.29 626.759 1016.94 629.399 1012.52" stroke="black" stroke-width="4" stroke-miterlimit="10" stroke-linecap="round" stroke-linejoin="round"/>
<path d="M626.63 1018.6C623.74 1016.13 619.5 1011.62 621.67 1004.09" stroke="black" stroke-width="4" stroke-miterlimit="10" stroke-linecap="round" stroke-linejoin="round"/>
<path d="M621.07 1010.58C618.84 1011.14 613.1 1011.52 612.16 1005.31" stroke="black" stroke-width="4" stroke-miterlimit="10" stroke-linecap="round" stroke-linejoin="round"/>
<path d="M613.628 1008.83C610.468 1011.25 604.728 1009.98 601.148 1005.32C598.068 1001.31 595.408 994.78 595.878 988.1" stroke="black" stroke-width="4" stroke-miterlimit="10" stroke-linecap="round" stroke-linejoin="round"/>
<path d="M595.83 990.16C592.06 990.44 578.79 986.91 570.74 975.34C571.3 981.83 568.62 984.02 565.45 983.67C561.42 983.22 555.29 975.27 554.93 967.65" stroke="black" stroke-width="4" stroke-miterlimit="10" stroke-linecap="round" stroke-linejoin="round"/>
<path d="M557.329 975.87C556.279 981.76 548.089 982.75 544.489 979.43C544.349 981.54 541.729 984.8 538.769 986.21C534.789 988.1 529.669 987.44 527.119 983.32C525.989 983.88 521.969 983.04 520.559 980.92C520.559 984.96 517.809 989.11 509.669 989.67C505.779 989.94 502.299 987.87 499.589 985.47C497.779 989.18 492.249 988.54 488.909 985.39C486.269 982.9 484.789 979.04 484.909 975.88C483.409 981.19 479.429 983.52 475.369 983.97C471.799 984.37 468.179 983.31 466.129 981.56C464.149 986.5 457.449 985.44 454.549 981.28" stroke="black" stroke-width="4" stroke-miterlimit="10" stroke-linecap="round" stroke-linejoin="round"/>
<path d="M457.868 984.05C457.288 986.26 456.658 992.02 447.148 993.9C440.368 995.24 434.838 990.98 433.238 987.12" stroke="black" stroke-width="4" stroke-miterlimit="10" stroke-linecap="round" stroke-linejoin="round"/>
<path d="M428.44 970.18C426.73 972.57 423.62 983.52 426.75 987.69C429.29 991.08 432.68 990.87 434.57 989.33" stroke="black" stroke-width="4" stroke-miterlimit="10" stroke-linecap="round" stroke-linejoin="round"/>
<path d="M634.279 969.97C633.359 970.96 630.169 975.59 628.629 980.91C627.219 985.8 627.299 991.41 629.899 992.56C635.339 994.96 639.709 988.82 641.759 984.65C641.199 987.09 642.589 989.71 644.299 990.72C646.019 991.73 649.279 991.5 650.939 990.05" stroke="black" stroke-width="4" stroke-miterlimit="10" stroke-linecap="round" stroke-linejoin="round"/>
<path d="M855 995.33C857.06 995.57 860.56 994.54 861.29 991.29C862.51 985.83 859.69 982.25 857.05 979.62" stroke="black" stroke-width="4" stroke-miterlimit="10" stroke-linecap="round" stroke-linejoin="round"/>
<path d="M861.51 987.49C868.77 990.58 874.99 990.58 877.1 986.49C879.22 982.4 876.25 972.51 871.45 969.13" stroke="black" stroke-width="4" stroke-miterlimit="10" stroke-linecap="round" stroke-linejoin="round"/>
<path d="M876.77 977.23C882.14 978.45 890.79 979.41 895.45 975.68C898.23 973.46 897.289 968.62 895.099 967.35" stroke="black" stroke-width="4" stroke-miterlimit="10" stroke-linecap="round" stroke-linejoin="round"/>
<path d="M896.229 974.86C896.719 976.71 899.429 977.51 901.939 976.37C906.599 974.25 906.269 968.83 906.269 964.93" stroke="black" stroke-width="4" stroke-miterlimit="10" stroke-linecap="round" stroke-linejoin="round"/>
<path d="M904.959 973.66C905.519 975.2 907.739 976.92 910.509 976.51C914.369 975.95 916.629 972.46 916.999 967.36" stroke="black" stroke-width="4" stroke-miterlimit="10" stroke-linecap="round" stroke-linejoin="round"/>
<path d="M914.809 973.98C918.179 975.95 926.369 974.67 929.149 972.6C929.829 974.46 932.519 975.54 935.079 975.28C938.329 974.95 940.129 972.97 941.289 971.33C943.879 975.28 950.089 979.42 953.669 976.18C957.249 972.93 952.349 961.22 947.879 958.82" stroke="black" stroke-width="4" stroke-miterlimit="10" stroke-linecap="round" stroke-linejoin="round"/>
<path d="M953.52 966.5C957.95 969.55 966.13 970.25 969.62 967.36C972.87 968.97 977.61 968.75 979.78 965.78C981.96 962.82 981.57 957.12 980.25 954.49" stroke="black" stroke-width="4" stroke-miterlimit="10" stroke-linecap="round" stroke-linejoin="round"/>
<path d="M1001.05 935.85C997.38 938.67 994.18 948.84 999.64 951.66C1005.1 954.48 1011.12 951.38 1015.08 947.52C1007.46 955.8 1003.97 968.7 1008.49 970.3C1013.01 971.9 1017.9 965.69 1018.37 961.17C1021.29 966.35 1028.72 966.25 1030.98 964.93" stroke="black" stroke-width="4" stroke-miterlimit="10" stroke-linecap="round" stroke-linejoin="round"/>
<path d="M999.15 938.03C996.17 940.25 988.54 942.63 987.22 938.86C985.9 935.1 992.77 926.91 1005.29 925.68" stroke="black" stroke-width="4" stroke-miterlimit="10" stroke-linecap="round" stroke-linejoin="round"/>
<path d="M997.578 949.68C996.148 952.51 986.918 958.25 981.318 958.82" stroke="black" stroke-width="4" stroke-miterlimit="10" stroke-linecap="round" stroke-linejoin="round"/>
<path d="M1031.48 962.42C1031.13 967.71 1033.74 972.44 1037.76 972.66C1041.78 972.87 1046.72 968.07 1047.57 965.39C1048.7 968.78 1053.06 971.39 1058.09 970.56C1066.84 969.13 1074.54 956.28 1076.58 950.14" stroke="black" stroke-width="4" stroke-miterlimit="10" stroke-linecap="round" stroke-linejoin="round"/>
<path d="M1074.93 954.04C1076.14 957.29 1081.53 961.73 1086.25 961.85C1089.08 961.92 1091.51 959.29 1093.1 957.12C1098.65 960.51 1115.03 960.04 1125.66 953.26C1126.98 955.94 1131.01 957.15 1133.42 955.42C1136.9 952.93 1135.96 948.17 1136.48 945.16" stroke="black" stroke-width="4" stroke-miterlimit="10" stroke-linecap="round" stroke-linejoin="round"/>
<path d="M1136.3 947.34C1140.63 947.34 1146.47 944.33 1148.16 941.22C1150.51 945.17 1155.69 948.09 1159.45 946.49C1163.21 944.89 1164.25 933.22 1162.18 925.88C1169.52 926.44 1171.78 921.64 1171.78 919.39C1171.78 917.13 1167.36 915.06 1163.69 915.81" stroke="black" stroke-width="4" stroke-miterlimit="10" stroke-linecap="round" stroke-linejoin="round"/>
<path d="M1163.18 936.23C1165.81 937.35 1170.44 937.96 1173.75 936.3C1176.68 934.84 1178.46 931.34 1178.66 928.82C1181.41 929.23 1185.49 929.49 1188.19 926.98C1191.08 924.3 1191.53 914.01 1191.37 910.25" stroke="black" stroke-width="4" stroke-miterlimit="10" stroke-linecap="round" stroke-linejoin="round"/>
<path d="M1190.13 923.07C1191.58 926.29 1197.91 933.01 1202.84 933.03C1207.64 933.05 1209.15 930.21 1209.15 927.67" stroke="black" stroke-width="4" stroke-miterlimit="10" stroke-linecap="round" stroke-linejoin="round"/>
<path d="M1222.98 919.71C1224.82 926.77 1227.36 938.35 1225.1 939.47C1222.84 940.6 1213.65 937.11 1208.29 930.67" stroke="black" stroke-width="4" stroke-miterlimit="10" stroke-linecap="round" stroke-linejoin="round"/>
<path d="M1223.99 923.79C1225.44 923.33 1228.04 921.78 1228.7 919.15C1229.64 915.4 1228.09 909.93 1225.99 906.44" stroke="black" stroke-width="4" stroke-miterlimit="10" stroke-linecap="round" stroke-linejoin="round"/>
<path d="M1227.71 921.16C1230.6 926.14 1233.36 929.59 1236.39 929.7C1239.42 929.81 1243.8 919.78 1243.1 911.81" stroke="black" stroke-width="4" stroke-miterlimit="10" stroke-linecap="round" stroke-linejoin="round"/>
<path d="M1243.1 915.42C1246.98 917.45 1252.56 919.36 1254.46 918.3C1256.36 917.24 1251.07 901.99 1238.58 892.32C1248.25 890.77 1254.65 887.45 1254.84 883.71C1255.03 879.97 1249.19 877.15 1246.71 877.43" stroke="black" stroke-width="4" stroke-miterlimit="10" stroke-linecap="round" stroke-linejoin="round"/>
<path d="M1246.71 890.35C1249.33 893.53 1255.34 896.26 1258.46 895.29C1260.39 894.69 1261.24 892.54 1260.44 891.15C1263.96 892.22 1273.57 893.27 1274.46 889.88C1275.35 886.49 1266.65 878.87 1263.31 877.08C1268.67 870.12 1270.6 860.84 1267.59 851.81C1264.58 842.77 1254.51 837.41 1247.92 837.88C1248.39 830.16 1236.63 829.97 1229.57 832.52C1242.28 826.03 1242.84 819.34 1240.68 816.33C1235.41 818.59 1222.04 822.07 1218.37 821.88C1215.64 818.49 1211.94 815.82 1209.98 814.62" stroke="black" stroke-width="4" stroke-miterlimit="10" stroke-linecap="round" stroke-linejoin="round"/>
<path d="M1116.06 922.77C1118.23 924.54 1126.28 926.63 1132.15 922.96C1135.39 920.93 1137.1 917.27 1136.29 913.64" stroke="black" stroke-width="4" stroke-miterlimit="10" stroke-linecap="round" stroke-linejoin="round"/>
<path d="M1136.3 917.24C1141.57 917.88 1148.82 915.53 1147.78 910.26C1151.45 911.01 1154.75 908.49 1155.45 905.27C1156.44 900.66 1152.77 896.42 1149.48 895.58" stroke="black" stroke-width="4" stroke-miterlimit="10" stroke-linecap="round" stroke-linejoin="round"/>
<path d="M64.8795 724.53C63.6495 735.29 61.6695 773.13 66.1895 797.03C73.5295 815.29 93.4795 853.69 95.8395 857.08C98.9495 858.77 100.079 859.15 100.079 859.15C100.079 859.15 99.3295 866.68 100.079 870.44C102.529 878.72 126.429 918.63 130.759 923.9C132.269 928.42 174.429 994.11 181.399 1000.14C184.039 1001.27 184.789 1001.27 187.049 1001.83C187.799 1004.84 203.24 1024.42 214.91 1029.12C227.149 1030.44 240.129 1027.43 253.309 1024.41C266.489 1021.4 292.839 1015.19 300.749 1015.37C305.639 1011.98 307.149 1007.46 308.279 1005.77C313.169 1008.22 332.199 1008.13 336.149 1008.89" stroke="black" stroke-width="4" stroke-miterlimit="10" stroke-linecap="round" stroke-linejoin="round"/>
<path d="M336.129 1008.9C336.109 1010.55 336.159 1012.03 336.299 1013.31C337.519 1024.04 390.889 1080.51 402.459 1089.83C414.029 1099.15 428.999 1103.67 437.749 1103.67C451.299 1100 469.099 1094.63 477.709 1092.94C486.319 1091.25 522.179 1080.23 531.499 1079.95C536.579 1087.86 570.179 1121.74 576.959 1128.51C583.739 1135.29 608.579 1158.16 616.209 1162.67C630.329 1164.93 643.599 1164.36 647.549 1164.08C651.499 1163.8 659.129 1161.54 664.209 1161.26C668.159 1157.87 669.569 1155.05 669.569 1155.05C676.909 1153.92 699.499 1150.25 704.299 1150.53C706.839 1151.94 710.229 1153.64 710.229 1153.64C734.229 1149.97 802.279 1131.05 811.029 1129.92C817.239 1124.84 817.809 1123.14 820.349 1121.73C826.559 1119.75 863.549 1112.41 873.149 1107.33C875.969 1111.28 878.509 1110.44 878.509 1110.44C900.529 1107.9 931.869 1094.63 935.549 1092.37C939.499 1093.22 962.659 1083.9 972.539 1079.66C982.419 1075.42 1012.92 1066.11 1023.08 1056.22C1034.37 1063.84 1076.16 1080.22 1089.15 1082.48C1099.6 1077.96 1117.1 1073.44 1125.01 1068.64C1132.92 1063.84 1145.24 1059.6 1154.04 1055.09C1162.84 1050.57 1193.05 1031.37 1206.61 1017.54C1211.97 998.9 1216.21 976.89 1209.15 972.65C1209.15 963.61 1212.61 951.47 1215.26 936.5" stroke="black" stroke-width="4" stroke-miterlimit="10" stroke-linecap="round" stroke-linejoin="round"/>
<path d="M342.329 925.61C340.069 937.36 340.349 947.96 340.919 953.96C340.569 975.15 336.309 996.73 336.129 1008.91" stroke="black" stroke-width="3" stroke-miterlimit="10" stroke-linecap="round" stroke-linejoin="round"/>
<path d="M208.619 907.04C207.549 916.18 208.869 939.15 209.429 943.1C209.429 953.64 210.939 987.34 211.689 1000.89C212.439 1014.44 213.379 1025.93 214.889 1029.13" stroke="black" stroke-width="3" stroke-miterlimit="10" stroke-linecap="round" stroke-linejoin="round"/>
<path d="M616.209 1162.68C617.149 1148.09 619.969 1138.12 619.969 1138.12L626.179 1122.68C625.239 1119.1 622.229 1114.4 622.229 1114.4C622.229 1114.4 629.189 1063.39 630.889 1055.86C630.889 1047.39 630.889 1036.42 630.889 1036.42" stroke="black" stroke-width="3" stroke-miterlimit="10" stroke-linecap="round" stroke-linejoin="round"/>
<path d="M531.5 1079.95C533.19 1065.08 537.34 1035.71 539.03 1027.06C540.72 1018.4 548.27 992.02 550.14 981.31" stroke="black" stroke-width="3" stroke-miterlimit="10" stroke-linecap="round" stroke-linejoin="round"/>
<path d="M543.799 1007.73C541.289 1005.88 536.299 1001.83 534.889 1000.89" stroke="black" stroke-width="3" stroke-miterlimit="10" stroke-linecap="round" stroke-linejoin="round"/>
<path d="M1023.08 1056.23C1022.52 1040.14 1025.05 979.52 1022.93 964.94" stroke="black" stroke-width="3" stroke-miterlimit="10" stroke-linecap="round" stroke-linejoin="round"/>
<path d="M1095.92 958.28C1093.95 976.04 1088.59 1008.81 1089.43 1018.54C1092.63 1026.3 1093.57 1033.35 1092.63 1042.95C1091.69 1052.55 1089.71 1075.14 1089.15 1082.48" stroke="black" stroke-width="3" stroke-miterlimit="10" stroke-linecap="round" stroke-linejoin="round"/>
<path d="M411.92 451.78L432.86 458.15L462.32 459.2L458.91 504.94L454.51 681.45L454.42 791.67L434.48 802.25L415.74 780.09L411.74 692.38L410.13 611.53L409.75 513.27L411.92 451.78Z" fill="#C79760"/>
<path d="M370.04 378.63L380.35 512.98L384.48 610.41L361.51 615.54L365.28 644.15L378.64 656.99L381.36 710.75L388.21 722.49V726.88L360.41 725.28L354.6 624.62L348.87 480.19L342.61 393.27L332.98 389.94L336.62 378.78L370.04 378.63Z" fill="#9C6238"/>
<path d="M377.711 658.87L381.361 710.75L399.991 736.92L414.231 756.37L412.421 707.38L410.181 691.34L395.971 678.54L392.441 673.69L377.711 658.87Z" fill="#B87B55"/>
<path d="M361.51 615.54L384.48 610.41L410.47 642.11L411.74 692.38L365.28 644.15L361.51 615.54Z" fill="#DEB887"/>
<path d="M540.721 415.05L604.421 413.86L689.851 407.67L791.691 392.25L765.991 367.57L765.431 372.09L762.181 378.3L755.971 379.71L747.561 377.57L741.431 379.15L737.481 380.99L728.581 378.64L720.711 372.9L711.431 380.99L697.241 387.2L679.311 387.95L662.651 380.99L652.661 369.15L650.091 379.71L643.171 385.78L637.091 386.12L631.401 384.3L625.661 386.07L620.161 387.76L614.191 386.48L608.011 379.73L581.751 393.74L561.191 396.8L557.081 394.66L540.721 415.05Z" fill="#9C6238"/>
<path d="M582.791 368.42L594.061 359.61L604.421 352.7L603.841 362.49L582.791 368.42Z" fill="#534A57"/>
<path d="M638.65 334.11L653.34 329.88L648.32 342.65L638.65 334.11Z" fill="#534A57"/>
<path d="M664.21 328.04L682.7 324.51H704.3L713.19 328.04L724.68 334.26L721.7 338.42L720.05 346.57L711.36 350.21L715.06 338.42L713.25 333.67L710.37 333.41L704.87 338.42L695.95 343.25L681.39 343.01L669.43 336.27L663.84 330.29L664.21 328.04Z" fill="#534A57"/>
<path d="M721.281 339.89V346.02L727.451 344.14L728.071 348.9L724.251 359.38L725.481 363.05L720.711 372.9L725.821 377.35L733.241 380.7L745.951 377.74L755.971 379.71L763.131 376.49L765.991 367.57L753.521 355.3L724.531 332.66L721.281 339.89Z" fill="#9E5D5C"/>
<path d="M604.58 351.44L619.45 341.03L640.39 334.11L649.15 344.53L650.84 362.49L652.66 369.15L648.57 381.05L640.59 385.93L631.4 384.3L622.5 387.04L614.19 386.48L607.41 380.56L604.42 361.55L604.58 351.44Z" fill="#606E43"/>
<path d="M653.341 329.88L663.13 328.32L664.44 331.76L675.451 340.61L690.18 343.9L699.8 341.8L706.42 336.56L709.711 333.67L713.99 334.73L715.591 338.96L710.04 351.1H712.11L723.5 343.34L726.6 344.4L728.07 351.67L724.68 360.28L725.82 364.18L717.521 376.37L703.01 384.67L690.701 388.61L683.17 387.73L666.201 383.71L657.26 374.59L651.16 363.66L648.32 355.9L647.73 342.13L653.341 329.88Z" fill="#9C804B"/>
<path d="M557.08 394.66L562.18 397.36L572.77 396.01L586.32 391.31L608.01 379.73L630.02 363.64V361.03L621.52 360.28L603.84 362.49L582.65 368.8L563.08 386.4L557.08 394.66Z" fill="#A66002"/>
<path d="M369.861 376.42H383.741L389.901 390.97L402.181 405.41L386.021 403.85L373.121 399.85L371.691 388.56L369.861 376.42Z" fill="#534A57"/>
<path d="M540.72 415.05L689.85 407.67L737.7 654.9L648.42 668.11L517.02 680.13L454.51 681.45L454.89 601.64L462.32 459.2L482.65 457.86L506.28 448.8L530.32 430.07L540.72 415.05Z" fill="#534A57"/>
<path d="M377.57 436.3L399.84 440.83L401.17 445.49L410.33 450.74L409.75 513.27V587.81L410.47 642.11L384.48 610.41L380.72 560.7L377.57 436.3Z" fill="#534A57"/>
<path d="M654.4 411.36C654.4 411.36 658.28 494.82 658.98 545.69" stroke="#413A45" stroke-width="4" stroke-miterlimit="10" stroke-linecap="round" stroke-linejoin="round"/>
<path d="M667.84 410.14C669.29 433.92 669.78 543.1 671.51 568.13" stroke="#413A45" stroke-width="4" stroke-miterlimit="10" stroke-linecap="round" stroke-linejoin="round"/>
<path d="M454.51 620.35C506.68 622.07 563.78 621.24 599.03 617.09" stroke="#413A45" stroke-width="4" stroke-miterlimit="10" stroke-linecap="round" stroke-linejoin="round"/>
<path d="M675.021 588.72C674.931 614.07 674.121 659.43 672.551 668.66" stroke="#413A45" stroke-width="4" stroke-miterlimit="10" stroke-linecap="round" stroke-linejoin="round"/>
<path d="M451.619 545.69C488.579 549.69 538.599 547.34 570.059 545.69" stroke="#413A45" stroke-width="4" stroke-miterlimit="10" stroke-linecap="round" stroke-linejoin="round"/>
<path d="M456.16 603.56C456.16 603.56 506.21 605.96 581.96 600.62" stroke="#413A45" stroke-width="4" stroke-miterlimit="10" stroke-linecap="round" stroke-linejoin="round"/>
<path d="M428.58 528.98C475.59 534.44 559.34 529.73 582.69 525.03" stroke="#2C272E" stroke-width="4" stroke-miterlimit="10" stroke-linecap="round" stroke-linejoin="round"/>
<path d="M526.699 549.13C526.979 563.25 526.699 593.73 526.699 603.62" stroke="#413A45" stroke-width="4" stroke-miterlimit="10" stroke-linecap="round" stroke-linejoin="round"/>
<path d="M547.261 546.79C547.031 562.39 544.771 595.99 543.641 603.61" stroke="#413A45" stroke-width="4" stroke-miterlimit="10" stroke-linecap="round" stroke-linejoin="round"/>
<path d="M461.689 471.32C516.609 472.25 598.469 471.3 655.619 465.32" stroke="#413A45" stroke-width="4" stroke-miterlimit="10" stroke-linecap="round" stroke-linejoin="round"/>
<path d="M489.71 471.37C489.99 482.21 489.43 515.91 488.58 530.54" stroke="#413A45" stroke-width="4" stroke-miterlimit="10" stroke-linecap="round" stroke-linejoin="round"/>
<path d="M500.86 471.37C501.14 482.21 500.58 515.91 499.73 530.54" stroke="#413A45" stroke-width="4" stroke-miterlimit="10" stroke-linecap="round" stroke-linejoin="round"/>
<path d="M514.53 471.37C514.81 482.21 514.25 515.91 513.4 530.54" stroke="#413A45" stroke-width="4" stroke-miterlimit="10" stroke-linecap="round" stroke-linejoin="round"/>
<path d="M476.53 471.37C476.81 482.21 476.25 515.91 475.4 530.54" stroke="#413A45" stroke-width="4" stroke-miterlimit="10" stroke-linecap="round" stroke-linejoin="round"/>
<path d="M462.32 458.67C453.57 562.11 452.91 656.93 456.11 791.04L435.5 803.52C427.87 734.91 429.39 597.73 431.52 457.85" stroke="black" stroke-width="4" stroke-miterlimit="10" stroke-linecap="round" stroke-linejoin="round"/>
<path d="M435.5 803.52C435.5 803.52 423.64 788.56 415.74 780.08C410.09 707.23 407.89 516.55 411.53 451.23" stroke="black" stroke-width="4" stroke-miterlimit="10" stroke-linecap="round" stroke-linejoin="round"/>
<path d="M411.02 667.71C399.15 661.31 361.51 615.53 361.51 615.53C361.51 615.53 376.95 611.3 384.47 610.41C390.88 620.56 410.59 642.3 410.59 642.3" stroke="black" stroke-width="4" stroke-miterlimit="10" stroke-linecap="round" stroke-linejoin="round"/>
<path d="M361.51 615.54C361.74 624.63 365.27 644.15 365.27 644.15C376.94 655.44 403.21 687.49 411.73 692.38" stroke="black" stroke-width="4" stroke-miterlimit="10" stroke-linecap="round" stroke-linejoin="round"/>
<path d="M384.479 610.41C378.269 577.24 382.989 465.83 369.869 377.38" stroke="black" stroke-width="4" stroke-miterlimit="10" stroke-linecap="round" stroke-linejoin="round"/>
<path d="M378.75 658.87C379.61 670.65 378.26 699.78 381.65 711.92C389.27 720.96 414.28 757.56 414.28 757.56" stroke="black" stroke-width="4" stroke-miterlimit="10" stroke-linecap="round" stroke-linejoin="round"/>
<path d="M388.21 719.45V726.88C380.24 726.88 367.75 726.98 360.41 725.29C355.68 692.86 349.74 471.53 346.09 427.69" stroke="black" stroke-width="4" stroke-miterlimit="10" stroke-linecap="round" stroke-linejoin="round"/>
<path d="M550.09 402.11C628.06 402.11 717.66 392.85 778.7 382.4" stroke="black" stroke-width="3" stroke-miterlimit="10" stroke-linecap="round" stroke-linejoin="round"/>
<path d="M540.721 415.05C590.901 415.32 659.411 411.9 691.881 407.67" stroke="black" stroke-width="3" stroke-miterlimit="10" stroke-linecap="round" stroke-linejoin="round"/>
<path d="M654.42 329.46C642.56 346.21 650.24 366.26 658.54 375.95C666.65 385.42 678.51 388.45 690.93 387.89C697.48 387.59 708.42 384 715.59 378.03C722.02 372.68 729 362.96 724.25 359.39C721.31 357.19 715.82 358.17 710.44 360.17C701.35 363.54 698.79 369.56 684.35 366.08C677.38 364.4 670.17 358.72 666.66 349.72C663.93 342.71 662.81 334.85 664.21 328.06" stroke="black" stroke-width="3" stroke-miterlimit="10" stroke-linecap="round" stroke-linejoin="round"/>
<path d="M663.84 338.42C673.24 348.85 681.15 355.06 692.72 354.78C704.3 354.5 713.28 352.07 718.98 347.44C722.54 344.55 725.38 342.19 727.45 344.52C728.96 346.21 727.62 356.13 724.25 359.39" stroke="black" stroke-width="3" stroke-miterlimit="10" stroke-linecap="round" stroke-linejoin="round"/>
<path d="M663.84 330.29C672.82 340.19 681.01 344.14 688.49 344.28C695.97 344.42 703.45 340.89 706.56 336.52C709.67 332.14 711.5 332.71 713.55 333.84C715.6 334.97 715.39 340.2 713.97 344.29C712.56 348.38 709.57 350.99 705.73 353.32" stroke="black" stroke-width="3" stroke-miterlimit="10" stroke-linecap="round" stroke-linejoin="round"/>
<path d="M721.279 372.21C725.479 376.75 730.139 380.85 735.639 380.99C741.149 381.13 743.549 377.32 746.649 377.46C749.749 377.6 750.459 380 756.249 379.58C762.039 379.16 765.709 375.63 765.989 367.58" stroke="black" stroke-width="3" stroke-miterlimit="10" stroke-linecap="round" stroke-linejoin="round"/>
<path d="M720.741 346.02C720.531 342.02 721.431 334.51 726.281 333.68" stroke="black" stroke-width="3" stroke-miterlimit="10" stroke-linecap="round" stroke-linejoin="round"/>
<path d="M582.479 369.43C602.089 360.8 628.909 357.41 631.309 361.08C633.709 364.75 587.439 394.54 570.889 397.36C563.709 398.58 556.069 395.67 556.769 393.55" stroke="black" stroke-width="3" stroke-miterlimit="10" stroke-linecap="round" stroke-linejoin="round"/>
<path d="M590.32 370.44C591.5 372.09 592.77 374.16 593.05 375.99" stroke="black" stroke-width="3" stroke-miterlimit="10" stroke-linecap="round" stroke-linejoin="round"/>
<path d="M599.029 369.88C599.269 370.21 599.589 371.67 599.689 372.47" stroke="black" stroke-width="3" stroke-miterlimit="10" stroke-linecap="round" stroke-linejoin="round"/>
<path d="M607.41 368.42C607.41 368.42 607.55 368.85 607.41 369.88" stroke="black" stroke-width="3" stroke-miterlimit="10" stroke-linecap="round" stroke-linejoin="round"/>
<path d="M608.01 379.73C610.65 383.66 614.69 388.72 619.81 387.86C624.93 387 626.46 384.62 630.03 384.28C633.61 383.94 635.84 386.57 639.06 386.28C647.26 385.54 653.31 377.42 652.62 366.73" stroke="black" stroke-width="3" stroke-miterlimit="10" stroke-linecap="round" stroke-linejoin="round"/>
<path d="M604.739 362.28C604.419 360.16 604.219 353.98 604.739 350.78" stroke="black" stroke-width="3" stroke-miterlimit="10" stroke-linecap="round" stroke-linejoin="round"/>
<path d="M648.57 344.53C646.98 340.18 641.23 334.68 638.32 334.11" stroke="black" stroke-width="3" stroke-miterlimit="10" stroke-linecap="round" stroke-linejoin="round"/>
<path d="M914.321 502.82C930.291 464.32 954.841 407.76 972.541 369.74C990.241 331.72 1014.26 279.48 1014.26 279.48C1014.26 279.48 1015.5 276.34 1012.25 274.93C1009.24 273.62 1006.41 276.54 1006.41 276.54C1006.41 276.54 932.321 436.6 910.381 492.42L914.321 502.82Z" fill="#E0D5A1"/>
<path d="M1014.25 279.48C1031.26 282.96 1087.36 300.09 1120.86 325.69C1154.36 351.29 1164.15 373.5 1179.21 385.17C1194.27 396.84 1214.6 410.02 1223.26 411.9C1218.74 419.05 1217.24 425.92 1216.01 429.41C1214.79 432.89 1205.85 444.94 1204.15 448.52C1202.45 452.1 1197.66 466.87 1196.34 472.9C1195.02 478.92 1194.18 485.42 1192.2 489.37C1190.22 493.32 1182.41 500.85 1181.28 509.04C1180.15 517.23 1187.56 531.94 1181.94 533.51C1163.78 530.12 1154.08 526.36 1147.59 523.35C1141.1 520.34 1116.06 504.9 1104.77 489.94C1093.48 474.98 1070.79 451.07 1059.41 438.46C1048.02 425.85 1028.26 417.28 1012.82 411.64C997.38 405.99 982.64 405.03 976.44 403.45C969.06 401.57 961.37 398.15 960.08 397.04" fill="#D15F5B"/>
<path d="M910.5 493.03C932.44 437.22 999.58 288.1 1006.13 276.94C1007.41 274.76 1009.99 274.05 1012.24 274.93C1013.51 275.42 1015.04 277.23 1014.25 279.48C1011.76 286.62 990.23 331.72 972.53 369.74C954.83 407.76 930.29 464.32 914.31 502.82" stroke="black" stroke-width="4" stroke-miterlimit="10" stroke-linecap="round" stroke-linejoin="round"/>
<path d="M1014.25 279.48C1031.26 282.96 1087.36 300.09 1120.86 325.69C1154.36 351.29 1164.15 373.5 1179.21 385.17C1194.27 396.84 1214.6 410.02 1223.26 411.9C1218.74 419.05 1217.24 425.92 1216.01 429.41C1214.79 432.89 1205.85 444.94 1204.15 448.52C1202.45 452.1 1197.66 466.87 1196.34 472.9C1195.02 478.92 1194.18 485.42 1192.2 489.37C1190.22 493.32 1182.41 500.85 1181.28 509.04C1180.15 517.23 1187.56 531.94 1181.94 533.51C1163.78 530.12 1154.08 526.36 1147.59 523.35C1141.1 520.34 1116.06 504.9 1104.77 489.94C1093.48 474.98 1070.79 451.07 1059.41 438.46C1048.02 425.85 1028.26 417.28 1012.82 411.64C997.38 405.99 982.64 405.03 976.44 403.45C969.06 401.57 961.37 398.15 960.08 397.04" stroke="black" stroke-width="4" stroke-miterlimit="10" stroke-linecap="round" stroke-linejoin="round"/>
<path d="M1148.22 402.22C1148.24 400.94 1148.13 399.66 1147.87 398.39C1147.53 396.78 1146.96 395.24 1146.18 393.83C1145.39 392.39 1144.39 391.11 1143.21 390.01C1140.02 384.03 1135.89 378.21 1131.28 373.24C1132.52 373.94 1133.87 374.51 1135.21 374.88C1137.35 375.48 1140.22 375.81 1141.78 373.91C1142.05 373.58 1142.26 373.24 1142.43 372.88C1143.57 370.34 1142.65 367.05 1140.13 364.72C1140.04 364.64 1139.95 364.56 1139.86 364.48C1138.11 362.93 1136.44 362.06 1135.18 361.48C1132.02 360.03 1128.77 359.56 1125.78 360.08C1123.33 360.51 1121.11 361.6 1119.44 363.14C1117.7 361.99 1115.91 360.93 1114.11 359.97C1117.01 360.14 1119.87 359.48 1121.73 358.45C1123.6 357.41 1124.68 355.96 1124.94 354.16C1125.14 352.78 1125.02 350.08 1122.01 347.49C1121.89 347.39 1121.76 347.28 1121.64 347.18C1120.12 345.97 1118.5 345.48 1117.25 345.18L1116.37 344.99L1116.18 344.96C1115.88 344.92 1115.58 344.88 1115.29 344.84L1115.22 344.83H1115.15C1114.86 344.81 1114.56 344.8 1114.27 344.79H1114.23H1114.19C1113.95 344.79 1113.71 344.8 1113.47 344.81L1113.19 344.82C1111.88 344.91 1110.61 345.21 1109.41 345.7C1108.31 346.15 1107.25 346.78 1106.26 347.57C1104.58 348.91 1103.14 350.61 1101.87 352.75C1101.43 353.48 1101.03 354.25 1100.66 355.04C1096.63 354.27 1091.16 353.96 1085.88 355.91C1085.83 355.86 1085.79 355.81 1085.74 355.75C1084.08 353.91 1082.42 352.79 1080.81 352.42C1079.56 352.14 1077.72 352.19 1076.05 354.06C1075.49 354.69 1075.59 355.83 1076.29 356.61C1076.37 356.69 1076.45 356.77 1076.53 356.84C1077.21 357.4 1078.08 357.44 1078.59 356.87C1079.28 356.1 1080 355.81 1080.79 355.99C1081.5 356.15 1082.25 356.67 1082.92 357.29C1079.75 359.05 1076.76 361.76 1074.36 365.91C1074.03 366.47 1073.87 367.13 1073.88 367.83L1069.81 374.79C1068.57 376.9 1068.62 379.89 1069.94 382.59L1089.32 423.05C1090.13 424.78 1091.29 426.36 1092.67 427.62C1094.05 428.88 1095.61 429.79 1097.19 430.24L1134.79 441.25C1137.35 442.02 1139.72 441.14 1140.96 438.94L1145.03 431.7C1145.57 431.49 1146.04 431.08 1146.36 430.49C1151.59 421.05 1150.59 410.47 1148.22 402.22ZM1144.88 402.52C1144.97 400.36 1144.11 398.12 1142.53 396.87C1140.38 395.18 1137.72 395.95 1136.6 398.59C1135.48 401.23 1136.31 404.74 1138.46 406.45C1140.61 408.16 1143.25 407.42 1144.38 404.79C1144.36 404.86 1144.34 404.92 1144.32 404.99C1142.78 409.68 1139.11 411.78 1134.7 408.71C1134.26 408.41 1133.85 408.08 1133.48 407.73C1130.08 404.6 1129.28 399.81 1130.68 395.63C1132.22 390.98 1135.89 388.82 1140.3 391.8C1140.74 392.1 1141.15 392.42 1141.52 392.77C1141.79 393.02 1142.04 393.29 1142.29 393.56C1143.87 395.36 1144.73 397.59 1144.93 399.9C1145 400.78 1144.98 401.65 1144.88 402.52ZM1112.96 379.66C1115.1 377.31 1118.21 376.76 1121.75 379.07C1122.25 379.4 1122.71 379.75 1123.14 380.13C1126.59 383.21 1127.67 387.86 1126.74 392.2C1127.03 389.39 1125.82 386.36 1123.65 384.92C1121.07 383.22 1118.12 384.39 1117.06 387.54C1116 390.68 1117.24 394.61 1119.82 396.34C1122.01 397.81 1124.46 397.2 1125.8 395.04C1123.82 399.34 1119.97 401.05 1115.39 397.97C1114.89 397.64 1114.43 397.27 1114 396.89C1110.14 393.43 1109.24 388.11 1110.82 383.44C1110.95 383.06 1111.1 382.69 1111.25 382.34C1111.71 381.3 1112.29 380.39 1112.96 379.66ZM1101.92 358.23C1102.07 358.27 1102.23 358.32 1102.38 358.36C1102.5 358.06 1102.61 357.76 1102.74 357.47C1103.15 356.53 1103.61 355.62 1104.13 354.76C1105.16 353.02 1106.42 351.42 1108.02 350.15C1108.82 349.51 1109.71 348.97 1110.69 348.57C1111.67 348.17 1112.73 347.92 1113.84 347.84C1114.12 347.83 1114.4 347.82 1114.68 347.82C1114.96 347.83 1115.24 347.85 1115.53 347.86C1115.81 347.89 1116.1 347.93 1116.38 347.97L1116.49 347.98L1116.6 348L1116.81 348.04L1117.23 348.13C1118.36 348.4 1119.5 348.79 1120.47 349.56C1121.63 350.48 1122.58 351.61 1122.37 353.08C1121.88 356.5 1114.34 358.1 1109.9 356.08C1109.81 356.18 1109.72 356.29 1109.63 356.4C1109.14 357 1108.69 357.66 1108.28 358.37C1107.99 358.87 1107.73 359.4 1107.49 359.94C1111.93 361.64 1116.3 364.06 1120.25 366.87C1121.4 365.3 1123.56 363.64 1126.7 363.1C1128.66 362.76 1131.43 362.8 1134.73 364.32C1136.05 364.93 1137.45 365.71 1138.84 366.99C1140.17 368.23 1140.66 369.71 1140.09 370.98C1140 371.18 1139.89 371.34 1139.76 371.5C1138.2 373.39 1132.2 371.36 1129.48 368.67C1129.08 368.68 1128.71 368.72 1128.38 368.77C1126.69 369.05 1125.52 369.79 1124.81 370.46C1124.92 370.56 1125.04 370.65 1125.15 370.75C1129.94 375 1134.83 380.75 1138.81 387.18C1136.65 386.37 1134.54 386.36 1132.69 387.2C1131.81 387.6 1131.01 388.17 1130.29 388.91C1130.23 388.04 1130.12 387.18 1129.94 386.32C1129.57 384.59 1128.95 382.95 1128.1 381.44C1127.21 379.86 1126.07 378.45 1124.74 377.26C1124.15 376.73 1123.51 376.25 1122.85 375.81C1121.17 374.72 1119.48 374.05 1117.84 373.84C1116.25 373.64 1114.74 373.86 1113.35 374.49C1112.12 375.05 1111.02 375.93 1110.08 377.1L1088.06 358.4C1092.52 357.01 1097.38 357.18 1101.92 358.23ZM1143.2 428.66L1138.67 436.72C1137.88 438.12 1136.38 438.69 1134.75 438.2L1097.15 427.3C1094.87 426.66 1092.75 424.72 1091.57 422.21L1072.2 381.68C1071.36 379.95 1071.33 378.06 1072.12 376.71L1076.65 368.94C1076.46 368.55 1076.48 368.13 1076.66 367.82C1078.91 363.93 1081.79 361.32 1084.98 359.69C1085.04 359.78 1085.11 359.87 1085.15 359.95C1085.29 360.17 1085.45 360.36 1085.64 360.52L1108.39 379.86C1108.16 380.37 1107.94 380.89 1107.75 381.45C1106.73 384.44 1106.55 387.64 1107.23 390.71C1107.6 392.4 1108.22 394.01 1109.07 395.51C1109.96 397.08 1111.1 398.49 1112.44 399.69C1113.03 400.22 1113.67 400.72 1114.33 401.17C1114.78 401.47 1115.24 401.74 1115.69 401.99C1116.66 402.51 1117.62 402.87 1118.57 403.1C1118.83 403.16 1119.08 403.23 1119.34 403.27C1120.93 403.52 1122.44 403.34 1123.83 402.74C1124.97 402.25 1125.98 401.46 1126.88 400.44C1126.94 401.01 1127.02 401.59 1127.14 402.15C1127.38 403.26 1127.74 404.34 1128.2 405.37C1128.39 405.8 1128.6 406.23 1128.83 406.65C1129.65 408.12 1130.69 409.45 1131.92 410.58C1132.46 411.08 1133.04 411.55 1133.65 411.97C1135.18 413.04 1136.73 413.7 1138.23 413.95C1139.68 414.19 1141.08 414.05 1142.35 413.5C1143.52 412.99 1144.56 412.16 1145.44 411.03C1146.07 410.22 1146.6 409.28 1147.04 408.21C1148.12 415.04 1147.57 422.08 1144.1 428.31C1143.89 428.61 1143.57 428.77 1143.2 428.66Z" fill="#292E35"/>
<path d="M1123.99 409.32L1124.49 410.92C1124.64 411.38 1124.9 411.78 1125.22 412.08C1125.53 412.37 1125.9 412.55 1126.27 412.59C1126.38 412.6 1126.5 412.6 1126.61 412.59C1127.45 412.46 1127.86 411.49 1127.53 410.44L1127.03 408.83C1126.7 407.78 1125.75 407.03 1124.92 407.17C1124.39 407.26 1124.03 407.67 1123.92 408.23C1123.85 408.55 1123.87 408.93 1123.99 409.32Z" fill="#292E35"/>
<path d="M1139.58 417.34C1139.51 417.35 1139.45 417.36 1139.38 417.38C1138.59 417.65 1138.31 418.71 1138.74 419.76C1139.2 420.85 1139.38 422.19 1139.29 423.44C1139.26 423.78 1139.23 424.11 1139.16 424.42C1138.98 425.26 1138.59 426.27 1137.78 427.1C1137.35 427.54 1136.81 427.93 1136.11 428.21C1134.33 428.91 1132.02 428.58 1129.42 427.25C1127.72 426.39 1125.95 425.09 1124.22 423.53C1124.07 423.39 1123.91 423.27 1123.76 423.13C1123.06 422.48 1122.38 421.79 1121.72 421.05C1120.76 419.98 1119.87 418.89 1119.05 417.79C1116.59 414.5 1114.78 411.18 1113.66 408.39C1113.36 407.64 1113.11 406.93 1112.91 406.27C1113.71 406.05 1114.04 405.04 1113.65 404.02C1113.42 403.44 1113.01 402.99 1112.55 402.74C1112.2 402.55 1111.82 402.48 1111.47 402.57L1110.27 402.9L1110.23 402.91L1107.44 403.67C1106.63 403.89 1106.3 404.89 1106.7 405.91C1106.85 406.3 1107.09 406.64 1107.37 406.89C1107.82 407.3 1108.38 407.49 1108.88 407.36L1109.98 407.06C1110.49 408.66 1111.23 410.49 1112.23 412.47C1112.89 413.78 1113.66 415.15 1114.56 416.56C1115.6 418.2 1116.81 419.89 1118.18 421.57C1118.7 422.21 1119.25 422.86 1119.82 423.5C1120.47 424.23 1121.14 424.91 1121.81 425.56C1121.97 425.72 1122.13 425.88 1122.29 426.03C1124.43 428.03 1126.65 429.64 1128.84 430.77C1132.23 432.52 1135.33 432.93 1137.8 431.97C1139.85 431.16 1141.01 429.71 1141.68 428.24C1141.99 427.56 1142.21 426.88 1142.34 426.26C1142.47 425.66 1142.54 425.03 1142.57 424.38C1142.65 422.5 1142.31 420.51 1141.59 418.79C1141.2 417.82 1140.33 417.22 1139.58 417.34Z" fill="#292E35"/>
<path d="M1150.85 402.47C1150.84 401.09 1150.69 399.71 1150.4 398.34C1149.97 396.31 1149.26 394.37 1148.27 392.57C1147.39 390.96 1146.3 389.51 1145.04 388.23C1143.22 384.88 1141.13 381.58 1138.83 378.45C1140.98 378.45 1142.68 377.74 1143.85 376.33C1144.25 375.85 1144.56 375.34 1144.81 374.78C1146.53 370.94 1145.15 365.85 1141.47 362.43C1141.36 362.33 1141.25 362.23 1141.15 362.14C1139.08 360.3 1137.14 359.3 1135.68 358.64C1132.84 357.35 1129.93 356.74 1127.15 356.84C1127.33 356.34 1127.46 355.81 1127.54 355.25C1127.79 353.54 1127.87 349.12 1123.29 345.18C1123.14 345.05 1122.98 344.92 1122.82 344.79C1120.82 343.2 1118.81 342.59 1117.29 342.23L1116.27 342.01L1115.99 341.97C1115.68 341.93 1115.37 341.89 1115.06 341.85L1114.92 341.83L1114.78 341.82C1114.48 341.8 1114.17 341.79 1113.86 341.78H1113.78H1113.69C1113.41 341.78 1113.13 341.79 1112.88 341.8L1112.54 341.82C1111.01 341.93 1109.53 342.28 1108.14 342.86C1106.87 343.38 1105.65 344.11 1104.52 345.01C1102.64 346.51 1101.04 348.39 1099.64 350.76C1099.43 351.11 1099.22 351.47 1099.03 351.84C1095.46 351.33 1090.81 351.2 1086.15 352.59C1085.92 352.37 1085.68 352.16 1085.44 351.97C1083.93 350.71 1082.38 349.9 1080.84 349.56C1078.26 348.98 1075.85 349.79 1074.04 351.81C1073.32 352.61 1073 353.73 1073.12 354.98C1073.24 356.23 1073.79 357.45 1074.67 358.43C1074.86 358.64 1075.07 358.84 1075.28 359.02C1075.37 359.09 1075.46 359.16 1075.55 359.23C1074.26 360.63 1073.11 362.22 1072.09 363.98C1071.68 364.69 1071.42 365.51 1071.32 366.39L1067.54 372.85C1065.85 375.73 1065.91 379.78 1067.71 383.46L1087.09 423.85C1088.14 426.08 1089.63 428.12 1091.41 429.74C1093.19 431.37 1095.21 432.55 1097.25 433.13L1134.86 444.25C1138.35 445.31 1141.58 444.12 1143.27 441.11L1147.05 434.38C1147.71 433.98 1148.26 433.39 1148.67 432.65C1153.25 424.4 1154 413.93 1150.85 402.47ZM1145.03 431.68L1140.96 438.92C1139.72 441.12 1137.36 442 1134.79 441.23L1097.19 430.22C1095.61 429.77 1094.05 428.87 1092.67 427.6C1091.29 426.34 1090.13 424.76 1089.32 423.03L1069.94 382.57C1068.62 379.87 1068.57 376.89 1069.81 374.77L1073.88 367.81C1073.87 367.12 1074.03 366.46 1074.36 365.89C1076.76 361.74 1079.75 359.03 1082.92 357.27C1082.25 356.65 1081.51 356.13 1080.79 355.97C1080 355.79 1079.28 356.08 1078.59 356.85C1078.08 357.42 1077.21 357.38 1076.53 356.82C1076.45 356.75 1076.37 356.68 1076.29 356.59C1075.59 355.82 1075.48 354.68 1076.05 354.04C1077.72 352.17 1079.56 352.12 1080.81 352.4C1082.42 352.77 1084.08 353.89 1085.74 355.73C1085.79 355.78 1085.83 355.84 1085.88 355.89C1091.15 353.94 1096.62 354.25 1100.66 355.02C1101.03 354.23 1101.44 353.46 1101.87 352.73C1103.14 350.59 1104.58 348.89 1106.26 347.55C1107.25 346.76 1108.31 346.14 1109.41 345.68C1110.61 345.19 1111.88 344.89 1113.19 344.8L1113.47 344.79C1113.71 344.78 1113.95 344.77 1114.19 344.77H1114.23H1114.27C1114.56 344.78 1114.85 344.8 1115.15 344.81H1115.22L1115.29 344.82C1115.59 344.86 1115.88 344.9 1116.18 344.94L1116.37 344.97L1117.25 345.16C1118.49 345.45 1120.11 345.95 1121.64 347.16C1121.77 347.26 1121.89 347.36 1122.01 347.47C1125.03 350.06 1125.14 352.76 1124.94 354.14C1124.68 355.94 1123.6 357.39 1121.73 358.43C1119.87 359.47 1117.01 360.12 1114.11 359.95C1115.91 360.91 1117.7 361.97 1119.44 363.12C1121.11 361.58 1123.34 360.49 1125.78 360.06C1128.77 359.53 1132.03 360.01 1135.18 361.46C1136.44 362.04 1138.12 362.91 1139.86 364.46C1139.95 364.54 1140.04 364.62 1140.13 364.7C1142.64 367.03 1143.57 370.32 1142.43 372.86C1142.27 373.22 1142.05 373.56 1141.78 373.89C1140.22 375.78 1137.34 375.46 1135.21 374.86C1133.88 374.49 1132.52 373.92 1131.28 373.22C1135.89 378.2 1140.02 384.01 1143.21 389.99C1144.38 391.09 1145.38 392.37 1146.18 393.81C1146.96 395.23 1147.53 396.76 1147.87 398.37C1148.14 399.63 1148.25 400.92 1148.22 402.2C1150.58 410.45 1151.59 421.02 1146.36 430.45C1146.03 431.06 1145.57 431.47 1145.03 431.68Z" fill="white"/>
<path d="M1145.41 411C1144.53 412.13 1143.49 412.97 1142.32 413.47C1141.04 414.02 1139.65 414.17 1138.2 413.92C1136.71 413.67 1135.16 413.01 1133.62 411.94C1133.01 411.52 1132.43 411.05 1131.89 410.55C1130.66 409.41 1129.62 408.09 1128.8 406.62C1128.57 406.2 1128.36 405.78 1128.17 405.34C1127.71 404.31 1127.35 403.23 1127.11 402.12C1126.99 401.55 1126.91 400.98 1126.85 400.41C1125.96 401.44 1124.94 402.22 1123.8 402.71C1122.41 403.31 1120.9 403.49 1119.31 403.24C1119.06 403.2 1118.8 403.13 1118.54 403.07C1117.59 402.84 1116.62 402.48 1115.66 401.96C1115.21 401.72 1114.75 401.45 1114.3 401.14C1113.64 400.69 1113 400.2 1112.41 399.66C1111.07 398.46 1109.94 397.05 1109.04 395.48C1108.19 393.99 1107.57 392.38 1107.2 390.68C1106.53 387.61 1106.71 384.41 1107.72 381.42C1107.91 380.86 1108.13 380.34 1108.36 379.83L1085.61 360.49C1085.42 360.33 1085.25 360.14 1085.12 359.92C1085.08 359.85 1085.01 359.75 1084.95 359.66C1081.76 361.3 1078.88 363.9 1076.63 367.79C1076.45 368.1 1076.43 368.52 1076.62 368.91L1072.09 376.68C1071.3 378.03 1071.33 379.93 1072.17 381.65L1091.54 422.18C1092.71 424.68 1094.84 426.63 1097.12 427.27L1134.72 438.17C1136.36 438.66 1137.85 438.09 1138.64 436.69L1143.17 428.63C1143.54 428.73 1143.86 428.57 1144.04 428.25C1147.51 422.02 1148.06 414.98 1146.98 408.15C1146.57 409.25 1146.04 410.2 1145.41 411ZM1127.03 408.83L1127.53 410.44C1127.86 411.49 1127.45 412.46 1126.61 412.59C1126.5 412.61 1126.38 412.61 1126.27 412.59C1125.9 412.55 1125.54 412.37 1125.22 412.08C1124.9 411.78 1124.64 411.38 1124.49 410.92L1123.99 409.32C1123.87 408.93 1123.85 408.56 1123.91 408.23C1124.02 407.67 1124.38 407.26 1124.91 407.17C1125.75 407.03 1126.7 407.78 1127.03 408.83ZM1142.58 424.37C1142.55 425.01 1142.48 425.65 1142.35 426.25C1142.22 426.87 1142 427.55 1141.69 428.23C1141.02 429.69 1139.86 431.15 1137.81 431.96C1135.34 432.93 1132.25 432.51 1128.85 430.76C1126.66 429.64 1124.44 428.03 1122.3 426.02C1122.14 425.87 1121.98 425.7 1121.82 425.55C1121.15 424.9 1120.48 424.22 1119.83 423.49C1119.26 422.85 1118.71 422.21 1118.19 421.56C1116.82 419.88 1115.61 418.2 1114.57 416.55C1113.68 415.15 1112.9 413.77 1112.24 412.46C1111.24 410.48 1110.49 408.65 1109.99 407.05L1108.89 407.35C1108.39 407.48 1107.83 407.29 1107.38 406.88C1107.1 406.63 1106.86 406.29 1106.71 405.9C1106.31 404.88 1106.65 403.88 1107.45 403.66L1110.24 402.9C1110.25 402.9 1110.26 402.89 1110.28 402.89L1111.48 402.56C1111.83 402.46 1112.21 402.54 1112.56 402.73C1113.02 402.98 1113.44 403.43 1113.66 404.01C1114.06 405.03 1113.73 406.04 1112.92 406.26C1113.12 406.92 1113.37 407.64 1113.67 408.38C1114.79 411.17 1116.59 414.49 1119.06 417.78C1119.88 418.88 1120.77 419.97 1121.73 421.04C1122.39 421.78 1123.08 422.47 1123.77 423.12C1123.92 423.26 1124.08 423.38 1124.23 423.52C1125.95 425.08 1127.73 426.38 1129.43 427.24C1132.03 428.57 1134.34 428.9 1136.12 428.2C1136.82 427.92 1137.36 427.53 1137.79 427.09C1138.6 426.26 1138.99 425.25 1139.17 424.41C1139.24 424.09 1139.27 423.76 1139.3 423.43C1139.39 422.18 1139.21 420.84 1138.75 419.75C1138.31 418.71 1138.6 417.65 1139.39 417.37C1139.45 417.35 1139.52 417.34 1139.59 417.33C1140.34 417.21 1141.21 417.81 1141.61 418.77C1142.33 420.51 1142.66 422.5 1142.58 424.37Z" fill="white"/>
<path d="M1113.32 374.53C1114.71 373.89 1116.22 373.67 1117.81 373.88C1119.45 374.09 1121.14 374.75 1122.82 375.85C1123.49 376.29 1124.12 376.77 1124.71 377.3C1126.05 378.49 1127.18 379.9 1128.07 381.48C1128.92 382.99 1129.54 384.63 1129.91 386.36C1130.09 387.21 1130.21 388.08 1130.26 388.95C1130.98 388.21 1131.78 387.63 1132.66 387.24C1134.51 386.4 1136.62 386.41 1138.78 387.22C1134.8 380.79 1129.91 375.04 1125.12 370.79C1125.01 370.69 1124.89 370.6 1124.78 370.5C1125.49 369.83 1126.66 369.09 1128.35 368.81C1128.68 368.75 1129.05 368.72 1129.45 368.71C1132.18 371.4 1138.17 373.43 1139.73 371.54C1139.85 371.39 1139.97 371.22 1140.06 371.02C1140.63 369.75 1140.15 368.27 1138.81 367.03C1137.42 365.74 1136.02 364.96 1134.7 364.36C1131.41 362.85 1128.63 362.81 1126.67 363.14C1123.53 363.68 1121.37 365.34 1120.22 366.91C1116.27 364.1 1111.9 361.68 1107.46 359.98C1107.71 359.44 1107.97 358.91 1108.25 358.41C1108.66 357.7 1109.11 357.04 1109.6 356.44C1109.69 356.33 1109.78 356.22 1109.87 356.12C1114.31 358.14 1121.85 356.54 1122.34 353.12C1122.55 351.65 1121.6 350.52 1120.44 349.6C1119.47 348.82 1118.33 348.44 1117.2 348.17L1116.78 348.08L1116.57 348.04L1116.46 348.02L1116.35 348.01C1116.07 347.97 1115.78 347.93 1115.5 347.9C1115.22 347.88 1114.94 347.87 1114.65 347.86C1114.37 347.86 1114.09 347.87 1113.81 347.88C1112.7 347.95 1111.64 348.21 1110.66 348.61C1109.68 349.01 1108.79 349.55 1107.99 350.19C1106.39 351.46 1105.13 353.06 1104.1 354.8C1103.58 355.67 1103.12 356.57 1102.71 357.51C1102.58 357.8 1102.47 358.1 1102.35 358.4C1102.2 358.36 1102.04 358.31 1101.89 358.27C1097.36 357.22 1092.49 357.05 1088.01 358.47L1110.03 377.17C1111 375.97 1112.09 375.09 1113.32 374.53Z" fill="white"/>
<path d="M1130.67 395.64C1129.28 399.81 1130.08 404.6 1133.47 407.74C1133.85 408.09 1134.25 408.42 1134.69 408.72C1139.11 411.79 1142.77 409.68 1144.31 405C1144.33 404.93 1144.35 404.87 1144.37 404.8C1143.24 407.43 1140.59 408.17 1138.45 406.46C1136.3 404.75 1135.46 401.24 1136.59 398.6C1137.71 395.96 1140.37 395.18 1142.52 396.88C1144.1 398.13 1144.96 400.37 1144.87 402.53C1144.98 401.66 1144.99 400.79 1144.92 399.92C1144.72 397.6 1143.86 395.37 1142.28 393.58C1142.04 393.31 1141.79 393.04 1141.51 392.79C1141.13 392.45 1140.72 392.12 1140.29 391.82C1135.88 388.83 1132.22 390.99 1130.67 395.64Z" fill="white"/>
<path d="M1123.65 384.92C1125.82 386.36 1127.03 389.39 1126.74 392.2C1127.68 387.86 1126.59 383.21 1123.14 380.13C1122.71 379.75 1122.25 379.39 1121.75 379.07C1118.21 376.76 1115.1 377.31 1112.96 379.66C1112.29 380.39 1111.71 381.3 1111.25 382.35C1111.09 382.7 1110.95 383.06 1110.82 383.45C1109.24 388.11 1110.15 393.44 1114 396.9C1114.43 397.28 1114.89 397.65 1115.39 397.98C1119.96 401.06 1123.82 399.35 1125.8 395.05C1124.46 397.2 1122.02 397.82 1119.82 396.35C1117.24 394.62 1116.01 390.69 1117.06 387.55C1118.12 384.39 1121.07 383.22 1123.65 384.92Z" fill="white"/>
</g>
<defs>
<clipPath id="clip0_3027_18373">
<rect width="1280" height="1172" fill="white"/>
</clipPath>
</defs>
</svg>
