<svg width="563" height="278" viewBox="0 0 563 278" fill="none" xmlns="http://www.w3.org/2000/svg">
<path d="M3.24023 60.96L143.23 53.6799L244.1 42.2299L318.33 30.6199L447.39 3.20996L487.43 25.3799L533.2 47.9699L559.99 61.6199L509.26 78.3699L446.17 96.9799L382.71 112.63L315.92 127.34L238.42 141.9L188.22 148.56L173.55 149.22L167.16 147.49L95.3903 116.68L62.1902 98.65L3.24023 60.96Z" fill="#DEB887"/>
<path d="M12.4203 99.26L41.7903 118.52L77.6602 138.52L141.05 170.2V250.75L122.74 243.22L67.7603 208.35L13.9203 162.42L10.9902 124.21L12.4203 99.26Z" fill="#B87B55"/>
<path d="M179.19 182.8L208.51 180.64L269.89 170.3L376.43 144.74C376.43 144.74 462.61 118.24 462.83 119.52C463.06 120.8 494.299 110.26 494.299 110.26L486.52 173.13L402.63 202.12L314.539 227.53L230.409 248.11L190.19 256.37L172.27 258.27L179.19 182.8Z" fill="#B87B55"/>
<path d="M2.07031 62.3699L104.8 120.72L145.79 139.86L173.55 149.22L273.95 135.23L425.16 102.16L521.39 75.3199L559.99 61.6199L558.15 83.5999L519.1 100.43L422.77 132.68L320.28 159.64L227.24 178.56L174.02 183.64L164.99 180.96L93.2303 146.3L18.7203 105.01L5.3103 92.7299L2.4903 75.9199L2.07031 62.3699Z" fill="#DEB887"/>
<path d="M141.051 170.2L164.991 180.96L177.651 183.64L171.281 270.73L154.961 275.43L141.791 268.46L141.051 209.05V170.2Z" fill="#DEB887"/>
<path d="M494.299 110.28L508.789 104.17L528.849 98.3099L515.74 181.99L497.659 190.17L486.52 181.16L494.299 110.28Z" fill="#DEB887"/>
<path d="M449.69 2.62012C302.11 40.2501 134.33 59.5501 3.24023 60.9601C69.6902 108.4 145.38 142.58 173.54 149.22C232.18 149.75 488.83 93.1501 559.99 60.9601C531.76 47.4101 472.77 18.8501 449.69 2.62012Z" stroke="black" stroke-width="4" stroke-miterlimit="10" stroke-linecap="round" stroke-linejoin="round"/>
<path d="M559.99 60.9602C560.91 65.0502 560.58 79.2902 558.39 83.4502C509.92 111.4 241.5 188.65 168.65 182.44C142.86 172.37 30.35 117.8 5.50004 93.3302C1.79004 81.8002 3.24003 60.9502 3.24003 60.9502" stroke="black" stroke-width="4" stroke-miterlimit="10" stroke-linecap="round" stroke-linejoin="round"/>
<path d="M11.6798 98.6501C11.6798 98.6501 9.26985 137.75 13.4098 159.96C30.9598 181.78 106.41 238.84 141.04 252.01" stroke="black" stroke-width="4" stroke-miterlimit="10" stroke-linecap="round" stroke-linejoin="round"/>
<path d="M142.269 171.08C142.269 171.08 140.349 251.15 141.329 268.09C148.319 273.74 155.849 275.43 155.849 275.43C162.059 273.17 171.289 270.72 171.289 270.72C171.289 270.72 176.559 206.64 177.689 182.82" stroke="black" stroke-width="4" stroke-miterlimit="10" stroke-linecap="round" stroke-linejoin="round"/>
<path d="M155.85 275.43C156.13 255.38 158.5 203.35 159.76 178.78" stroke="black" stroke-width="4" stroke-miterlimit="10" stroke-linecap="round" stroke-linejoin="round"/>
<path d="M172.26 258.29C213.07 258.68 459.03 187.26 486.52 172.2" stroke="black" stroke-width="4" stroke-miterlimit="10" stroke-linecap="round" stroke-linejoin="round"/>
<path d="M493.469 109.5L486.52 181.16L498.979 191.23C498.979 191.23 507.679 126.91 508.799 105.37" stroke="black" stroke-width="4" stroke-miterlimit="10" stroke-linecap="round" stroke-linejoin="round"/>
<path d="M529.021 96.6501C525.061 134.48 518.331 175.61 515.741 181.99L498.971 191.24" stroke="black" stroke-width="4" stroke-miterlimit="10" stroke-linecap="round" stroke-linejoin="round"/>
</svg>
