<svg width="287" height="369" viewBox="0 0 287 369" fill="none" xmlns="http://www.w3.org/2000/svg">
<path d="M4.32983 128.51L32.6898 144.68L41.7198 153.15L94.2198 178.42L117.96 195.69L136.4 203.19L129.94 246.7L126.83 257.02L114.05 324.69L109.86 366.04L96.6898 361.71L97.1298 342.72L88.5898 348.35L86.5198 340.25L77.3298 329.98L76.0998 345.82L57.1698 331.97L32.6098 318.54L7.27985 300.72L7.44983 214.13L2.83984 134.18L4.32983 128.51Z" fill="#BDC4C7"/>
<path d="M4.33008 128.51L43.23 120.77L43.91 133.78L48.4601 137.41L62.2401 141.71L84.96 140.16L82.85 144.96L82.0101 148.63L78.36 152.23L120.71 179.01L140.69 191.83L156.62 184.27L177.81 177.94L189.96 178.16L198.03 179.39L206.62 182.51L214.71 179.01L222.43 179.55L230.26 173.94L239.03 171.45L254.8 170.53L264.99 172.46L270.57 172.8L280.4 180.25L240.64 184.83L198.64 191.18L136.4 203.19L117.61 193.69L91.86 177.28L41.72 153.15L32.6901 144.68L4.33008 128.51Z" fill="#DEE5E8"/>
<path d="M136.399 203.19L205.349 190.01L257.419 182.9L285.859 181.16L267.319 235.59L261.019 259.28L242.419 316.55L237.339 334.11L202.879 348.81L179.479 355.97L165.199 358.14L173.609 348.66L170.649 346.55L155.679 350.75L155.599 338.37L149.499 345.35L141.129 361.71L136.399 357.95L130.759 361.01L127.939 356.61L119.679 364.89L109.859 366.04L110.239 354.13L117.959 305.05L126.989 253.29L131.129 244.25L136.399 203.19Z" fill="#CFD6D9"/>
<path d="M87.3295 116.21L145.439 112.37L172.26 108.54L189.959 120.4L174.069 120.77L160.099 123.33L150.05 128.88L137.42 127.65L119.859 130.51L98.9495 134.58L86.9395 141.38L87.3295 116.21Z" fill="#DEE5E8"/>
<path d="M69.7101 94.45L67.2302 103.6L72.3401 103.11L74.4401 95.36L78.9802 96.68L83.5202 99.02L81.6502 106.01L86.6202 113.3L87.6702 121.71L86.9401 140.07L80.6901 142.11L62.2402 141.71L50.1202 138.75L43.9102 133.78L44.1602 121.6L46.1502 109.76L51.1702 103.95L50.1202 98.28L54.8102 95.36L63.3702 93.99L69.7101 94.45Z" fill="#865A94"/>
<path d="M67.2305 103.7L73.9005 81.74L84.7205 57.95L101.72 37.02L125 14.14L142.431 3.27002L131.921 16.96L123.11 36.57L108.82 44.47L117.541 45.16L117.99 46.93L102.401 62.24L85.8505 75.42L80.5405 78.29L75.7405 89.67L71.7705 103.27L69.0704 104.56L67.2305 103.7Z" fill="#F5F5F5"/>
<path d="M61.1899 120.77L75.1899 121.92L87.67 121.71L86.9399 132.96L71.5099 134.18L59.9199 132.07L61.1899 120.77Z" fill="#E3E3E3"/>
<path d="M98.9497 134.58L125.79 128.51L145.44 128.35L153.44 130.84L191.03 156.8L205.84 170.53L213.39 176.87L214.71 179.01L211.83 180.25L201.73 175.18L186.01 173.18L165.39 175.31L144.92 184.2L142.43 186.09L82.0098 148.63L84.2197 143.65L93.3397 137.76L98.9497 134.58Z" fill="#E3E1CF"/>
<path d="M79.4194 150.47L84.0793 149.98L142.429 186.09L158.049 178L174.889 171.34L194.949 171.97L210.429 178.76L211.829 180.25L206.619 182.51L185.859 177.57L166.239 180.57L140.689 191.83L95.2594 163.12L78.3594 152.23L79.4194 150.47Z" fill="#D15F5B"/>
<path d="M217.82 178.52L221.63 171.74L233.68 165.5L249.68 164.54L264.92 168.16L267.28 169.77V174.18L259.65 171.74L241.49 171.3L229.82 174.18L220.03 179.6L217.82 178.52Z" fill="#D15F5B"/>
<path d="M214.711 179.01L196.731 160.69L150.051 128.88L165.391 121.62L194.001 120.77L213.491 126.29L239.651 144.11L265.761 166.09L263.931 167.93L241.341 164.5L228.361 167.17L219.791 173.85L217.131 179.6L214.711 179.01Z" fill="#E3E1CF"/>
<path d="M76.1706 351.36C76.1706 345.9 75.6106 333.29 77.6806 329.15C81.8206 331.97 88.4106 344.77 89.9206 348.73" stroke="black" stroke-width="4" stroke-miterlimit="10" stroke-linecap="round" stroke-linejoin="round"/>
<path d="M88.5898 352.68C89.9098 348.73 93.6699 342.52 96.6799 341.57C99.6899 348.53 97.9999 358.32 96.6799 361.71" stroke="black" stroke-width="4" stroke-miterlimit="10" stroke-linecap="round" stroke-linejoin="round"/>
<path d="M136.221 204.35C138.291 201.9 139.801 202.47 139.801 202.47C139.801 202.47 159.381 199.83 168.041 197.39C176.701 194.94 209.641 189.11 216.981 188.17C224.321 187.23 241.261 184.41 247.471 184.22C253.681 184.03 277.961 180.83 284.931 181.21" stroke="#EBF3F7" stroke-width="3" stroke-miterlimit="10" stroke-linecap="round" stroke-linejoin="round"/>
<path d="M109.201 366.04C109.291 358.89 114.001 322.75 115.511 315.97C117.021 309.19 119.841 298.09 119.841 298.09C120.591 289.24 124.361 271.36 124.361 271.36C124.361 271.36 126.431 257.43 127.751 253.29C130.761 249.71 130.571 244.44 130.571 244.44C130.571 244.44 135.461 211.31 136.221 204.35" stroke="#7C8082" stroke-width="4" stroke-miterlimit="10" stroke-linecap="round" stroke-linejoin="round"/>
<path d="M97.1309 360.36L109.201 366.04" stroke="black" stroke-width="4" stroke-miterlimit="10" stroke-linecap="round" stroke-linejoin="round"/>
<path d="M3.13086 127.65C12.3509 134.51 27.6708 141.08 32.6808 143.69C37.6908 146.3 41.0808 151.53 45.2408 154.07C49.4008 156.61 94.3708 178.41 99.7308 181.17C105.091 183.93 115.821 192.12 118.221 194.24C124.431 197.77 133.291 200.58 137.401 203.2" stroke="#EBF3F7" stroke-width="3" stroke-miterlimit="10" stroke-linecap="round" stroke-linejoin="round"/>
<path d="M160.502 361.71C161.442 360.02 171.422 352.67 174.432 347.4C170.482 344.58 157.302 349.47 154.102 351.64" stroke="black" stroke-width="4" stroke-miterlimit="10" stroke-linecap="round" stroke-linejoin="round"/>
<path d="M109.201 366.04C109.201 366.04 115.791 365.29 119.271 366.04C120.871 360.77 124.631 357.85 127.551 355.59C128.871 359.17 130.561 363.12 130.751 366.04" stroke="black" stroke-width="4" stroke-miterlimit="10" stroke-linecap="round" stroke-linejoin="round"/>
<path d="M129.941 362.17C132.831 357.48 137.062 357.95 137.062 357.95C137.822 360.34 140.731 363.13 140.731 363.13C141.671 358.8 148.451 344.21 155.601 338.38C159.181 345.53 154.091 351.65 152.021 355.7" stroke="black" stroke-width="4" stroke-miterlimit="10" stroke-linecap="round" stroke-linejoin="round"/>
<path d="M88.3105 116.16C99.3205 116.16 118.24 113.62 130.38 113.05C142.52 112.48 161.16 108.66 170.76 108.53C174.71 111.01 185.91 115.25 190.34 119.29" stroke="black" stroke-width="4" stroke-miterlimit="10" stroke-linecap="round" stroke-linejoin="round"/>
<path d="M269.352 171.92C273.592 175.03 280.222 179.03 284.932 181.19" stroke="black" stroke-width="4" stroke-miterlimit="10" stroke-linecap="round" stroke-linejoin="round"/>
<path d="M52.3606 105.24C49.7706 103.17 49.2206 99.0701 51.8206 96.7001C54.7106 94.0601 62.9006 93.4301 69.7206 94.4501" stroke="black" stroke-width="3" stroke-miterlimit="10" stroke-linecap="round" stroke-linejoin="round"/>
<path d="M75.1816 95.05C80.4016 95.1 83.5216 97.7601 83.5216 101.46C83.5216 103.63 81.9115 106.03 78.7115 106.79" stroke="black" stroke-width="3" stroke-miterlimit="10" stroke-linecap="round" stroke-linejoin="round"/>
<path d="M67.2305 103.7C75.1805 72.68 83.3205 59.84 92.8905 47.49C106.701 29.66 129.18 9.89999 144.5 1.87C126.92 20.84 123.031 35.15 123.031 35.15C123.031 35.15 112.18 43.14 107 45.32C113.2 45.65 119.73 44.99 119.73 44.99C111.86 54.2 90.7404 75.08 81.1904 78.76" stroke="black" stroke-width="3" stroke-miterlimit="10" stroke-linecap="round" stroke-linejoin="round"/>
<path d="M88.321 62.77C86.851 65.58 82.6411 73.39 79.0911 82.36C75.9911 90.2 73.4811 99.14 72.3711 103.71" stroke="black" stroke-width="3" stroke-miterlimit="10" stroke-linecap="round" stroke-linejoin="round"/>
<path d="M56.2617 100.63C57.7617 101.82 63.4218 103.94 68.9318 103.95C73.2518 103.95 76.6617 102.68 78.2817 101.08" stroke="black" stroke-width="3" stroke-miterlimit="10" stroke-linecap="round" stroke-linejoin="round"/>
<path d="M51.65 104.56C47.47 106.8 45.2099 112.15 44.7399 115.99C44.2699 119.83 43.4499 128.13 43.9199 133.78C45.9699 137.34 55.3799 140.97 64.9499 141.76C74.1499 142.52 85.0899 142.33 86.9999 138.18C87.7499 132.34 87.56 124.91 87.56 118.89C87.56 112.87 84.22 107.49 81.18 105.71" stroke="black" stroke-width="3" stroke-miterlimit="10" stroke-linecap="round" stroke-linejoin="round"/>
<path d="M87.67 120.77C83.24 122.28 70.2799 122.65 61.2099 119.92C61.2099 123.97 59.9199 132.06 59.9199 132.06C64.2499 134.79 81.9299 135.03 87.4799 131.85" stroke="black" stroke-width="3" stroke-miterlimit="10" stroke-linecap="round" stroke-linejoin="round"/>
<path d="M213.392 176.87C204.172 165.01 159.462 133.82 150.052 128.88C136.502 127 129.252 128.49 116.082 131.31C102.902 134.13 92.6417 135.17 82.8617 144.96C82.8617 144.96 82.0117 147.45 82.0117 148.63C91.9417 155.22 132.502 179.6 142.432 186.09C149.582 179.69 167.652 172.04 177.632 170.91C187.612 169.78 205.302 174.23 211.142 179.32" stroke="black" stroke-width="3" stroke-miterlimit="10" stroke-linecap="round" stroke-linejoin="round"/>
<path d="M87.7812 147.25C92.8612 151.06 109.341 160.06 112.731 162.32C116.121 164.58 138.281 178.13 141.531 180.25" stroke="black" stroke-width="3" stroke-miterlimit="10" stroke-linecap="round" stroke-linejoin="round"/>
<path d="M82.9214 149.23C82.9214 149.23 78.4313 150.04 78.3613 152.23C83.3713 156.11 133.771 186.75 140.691 191.83C146.341 189.15 166.671 178.14 179.371 177.85C192.081 177.57 201.111 179.4 206.621 182.51C209.441 181.16 216.641 177.57 222.431 179.55C226.811 174.19 235.421 171.31 244.081 170.94C252.741 170.57 261.171 170.88 268.271 173.48C268.271 171.61 267.421 169.9 266.581 168.49" stroke="black" stroke-width="3" stroke-miterlimit="10" stroke-linecap="round" stroke-linejoin="round"/>
<path d="M150.051 128.88C154.241 125.62 158.621 123.22 165.111 122.09C171.601 120.96 181.541 119.34 194.001 120.77C202.191 121.71 209.151 123.97 209.151 123.97C226.661 132.43 263.881 164.02 268.261 168.39C260.501 167.54 242.471 162.6 235.131 165.28C227.791 167.96 220.591 169.94 217.651 179" stroke="black" stroke-width="3" stroke-miterlimit="10" stroke-linecap="round" stroke-linejoin="round"/>
<path d="M109.352 147.69C110.152 146.84 112.642 145.67 114.292 145.48" stroke="black" stroke-width="3" stroke-miterlimit="10" stroke-linecap="round" stroke-linejoin="round"/>
<path d="M120.4 143.12C120.4 143.12 122.42 141.66 123.22 141.71" stroke="black" stroke-width="3" stroke-miterlimit="10" stroke-linecap="round" stroke-linejoin="round"/>
<path d="M129.391 141.38C129.391 141.38 132.071 139.07 135.131 139.12C139.411 137.76 144.071 138.08 145.721 138.37C147.701 138.12 151.411 136.68 152.921 137.1" stroke="black" stroke-width="3" stroke-miterlimit="10" stroke-linecap="round" stroke-linejoin="round"/>
<path d="M119.861 154.42C121.271 154 123.221 152.94 123.221 152.94L125.781 151.88" stroke="black" stroke-width="3" stroke-miterlimit="10" stroke-linecap="round" stroke-linejoin="round"/>
<path d="M130.17 149.83L131.16 150.13" stroke="black" stroke-width="3" stroke-miterlimit="10" stroke-linecap="round" stroke-linejoin="round"/>
<path d="M135.961 148.07L138.781 147.69L142.241 145.48L153.961 144.4L156.291 143.76L161.581 144.32" stroke="black" stroke-width="3" stroke-miterlimit="10" stroke-linecap="round" stroke-linejoin="round"/>
<path d="M132.08 160.68L134.8 158.7H137.42" stroke="black" stroke-width="3" stroke-miterlimit="10" stroke-linecap="round" stroke-linejoin="round"/>
<path d="M143.281 155.69L145.631 154.42L154.661 151.88L159.371 150.13H166.241" stroke="black" stroke-width="3" stroke-miterlimit="10" stroke-linecap="round" stroke-linejoin="round"/>
<path d="M169.91 147.69L171.51 148.07" stroke="black" stroke-width="3" stroke-miterlimit="10" stroke-linecap="round" stroke-linejoin="round"/>
<path d="M139.891 164.44L142.051 163.75" stroke="black" stroke-width="3" stroke-miterlimit="10" stroke-linecap="round" stroke-linejoin="round"/>
<path d="M150.051 159.69L152.921 158.7L159.281 156.54L177.161 153.9L179.321 154.42" stroke="black" stroke-width="3" stroke-miterlimit="10" stroke-linecap="round" stroke-linejoin="round"/>
<path d="M145.441 169.71H147.701L150.052 167.36C150.052 167.36 163.421 163.69 165.391 164.44" stroke="black" stroke-width="3" stroke-miterlimit="10" stroke-linecap="round" stroke-linejoin="round"/>
<path d="M172.361 163.12L175.181 161.14C175.181 161.14 182.901 160.1 186.941 161.14" stroke="black" stroke-width="3" stroke-miterlimit="10" stroke-linecap="round" stroke-linejoin="round"/>
<path d="M173.311 130.84L174.71 129.43" stroke="black" stroke-width="3" stroke-miterlimit="10" stroke-linecap="round" stroke-linejoin="round"/>
<path d="M180.781 129.43L182.401 128.51C182.401 128.51 198.561 127.87 200.751 128.51C202.731 127.73 205.831 128.83 205.831 128.83" stroke="black" stroke-width="3" stroke-miterlimit="10" stroke-linecap="round" stroke-linejoin="round"/>
<path d="M180.781 137.76L181.351 136.63" stroke="black" stroke-width="3" stroke-miterlimit="10" stroke-linecap="round" stroke-linejoin="round"/>
<path d="M185.301 135.71L187.061 134.58C187.061 134.58 195.391 132.82 198.641 133.31" stroke="black" stroke-width="3" stroke-miterlimit="10" stroke-linecap="round" stroke-linejoin="round"/>
<path d="M187.061 134.58C187.061 134.58 195.381 132.87 198.641 133.31C199.981 133.03 213.301 131.91 216.401 132.72" stroke="black" stroke-width="3" stroke-miterlimit="10" stroke-linecap="round" stroke-linejoin="round"/>
<path d="M187.561 143.48L189.6 144.11L189.96 143.2" stroke="black" stroke-width="3" stroke-miterlimit="10" stroke-linecap="round" stroke-linejoin="round"/>
<path d="M194.9 141.71L196.66 140.65L212.26 139.1L216.36 138.54L225.96 139.81" stroke="black" stroke-width="3" stroke-miterlimit="10" stroke-linecap="round" stroke-linejoin="round"/>
<path d="M199.631 153.57L200.901 153.22" stroke="black" stroke-width="3" stroke-miterlimit="10" stroke-linecap="round" stroke-linejoin="round"/>
<path d="M205.352 149.23L207.042 148.07L220.952 144.82L230.262 145.38" stroke="black" stroke-width="3" stroke-miterlimit="10" stroke-linecap="round" stroke-linejoin="round"/>
<path d="M206.762 160.69L208.312 161.91" stroke="black" stroke-width="3" stroke-miterlimit="10" stroke-linecap="round" stroke-linejoin="round"/>
<path d="M212.691 159.69H213.391" stroke="black" stroke-width="3" stroke-miterlimit="10" stroke-linecap="round" stroke-linejoin="round"/>
<path d="M217.131 157.45L217.411 156.25C217.411 156.25 224.611 152.09 227.501 151.8C230.391 151.52 239.081 151.09 240.631 151.8" stroke="black" stroke-width="3" stroke-miterlimit="10" stroke-linecap="round" stroke-linejoin="round"/>
<path d="M216.57 165.5C216.57 165.5 228.37 159.48 232.52 158.79C237.96 158.01 247.91 158.15 249.39 158.79" stroke="black" stroke-width="3" stroke-miterlimit="10" stroke-linecap="round" stroke-linejoin="round"/>
<path d="M43.2308 120.77C35.5108 121.9 8.97079 127 3.14079 127.65C1.63079 136.7 6.3408 177.43 6.9008 186.47C7.4608 195.51 8.41081 291.32 7.28081 300.73C15.1908 308.26 33.0708 318.99 38.9008 322.19C44.7408 325.39 68.8308 336.87 76.1708 345.91" stroke="black" stroke-width="4" stroke-miterlimit="10" stroke-linecap="round" stroke-linejoin="round"/>
<path d="M284.921 181.2C283.041 191.36 275.131 211.51 274.001 215.46C269.111 227.32 264.401 245.58 262.711 255.18C257.061 268.36 248.971 293.77 247.271 299.6C245.571 305.43 238.611 329.34 238.051 333.67C231.091 338.19 221.491 341.39 212.831 345.34C204.171 349.29 186.101 352.68 181.021 355.5C172.171 358.32 165.211 358.14 165.211 358.14" stroke="black" stroke-width="4" stroke-miterlimit="10" stroke-linecap="round" stroke-linejoin="round"/>
</svg>
