<svg width="424" height="128" viewBox="0 0 424 128" fill="none" xmlns="http://www.w3.org/2000/svg">
<path d="M3.15039 28.9299L30.6204 21.8699L37.0904 78.0599L41.1804 125.33L18.3104 118.57L13.6904 84.6799L3.15039 28.9299Z" fill="#CFD6D9"/>
<path d="M30.6211 21.8699L132.841 10.7199L249.691 5.10991L381.561 2.40991L415.721 2.3999L421.161 32.8799L422.001 71.6999L419.661 99.6599L371.111 98.3299L266.931 103.44L171.441 111.3L41.1811 125.33L41.3211 109.94L31.4411 29.0699L30.6211 21.8699Z" fill="#CFD6D9"/>
<path d="M72.6596 35.4199H80.2896L95.4396 40.6299L98.2396 44.2299L99.4596 49.7899L96.0996 53.8899H86.0596L82.2596 52.3599L72.6596 53.8899L69.3396 59.9199V76.0699L73.8696 86.9799L82.4596 91.9999L90.7896 90.2299L92.1496 84.5499L93.1496 79.3999L84.3996 79.7499L78.7396 76.9299L77.3196 70.5699L82.1196 65.4899L93.9796 62.6699L102.61 66.7199L106.63 75.9499V92.1299L101.25 102.02L90.5796 107.42L73.1796 107.92L59.3496 99.9899L53.4896 91.0099L48.0996 73.7099L50.6796 56.8399L59.0296 42.3999L66.8696 37.3399L72.6596 35.4199Z" fill="#FFC13B"/>
<path d="M118.45 49.1599L128.57 45.4099L138.74 46.7199L140.859 52.2199L137.75 58.0099L130.909 63.8599L129.65 68.1699L133.03 92.6799L131.68 99.2299L128.289 102.02L119.539 99.9999L114.88 92.5999L112.77 81.7299V66.0599L113.18 56.0799L115.719 50.6699L118.45 49.1599Z" fill="#FFC13B"/>
<path d="M148.24 49.5099L152.55 46.8999L158.69 47.9799L162.74 61.0099L165.2 90.8999L162.22 97.4799L154.75 97.1399L151.97 93.7599L148.41 69.1799L148.24 49.5099Z" fill="#FFC13B"/>
<path d="M193.64 42.2L191.16 29.07L195.35 24.46L201.28 26.53L206.19 33.33L210.52 56.31L213.14 74.39L212.22 83.4299L205.09 92.61L186.45 94.59L177.3 88.07L172.52 81.0099L170.09 60.84L176.46 48.32L184.91 42.07L193.64 42.2ZM191.15 56.31L187.02 60.83L184.34 65.77L187.3 75.5099L191.15 78.9299L197.04 78.6199L198.03 68.46L196.76 58.1499L193.94 56.6L191.15 56.31Z" fill="#FFC13B"/>
<path d="M148.24 24.75L143.6 28.75L142.99 35.42L147.32 38.7599L158.08 35.42L159.91 30.2L157.78 27.66L150.59 24.46L148.24 24.75Z" fill="#FFC13B"/>
<path d="M235.72 27.6599L242.04 31.6099L246.67 80.4599L243.63 87.2299H237.74L233.45 82.1599L230.29 57.9599L229.6 31.0999L235.72 27.6599Z" fill="#FFC13B"/>
<path d="M267.63 33.6499L278.18 37.4499L280.23 43.4599L277.58 45.9699H269.28L266.5 46.3799L265.61 50.5299L275.71 53.6799L285.11 63.0899L285.88 70.8599L283.68 78.7599L274.23 83.3499L263.63 83.8399L256.43 82.2299L253.91 74.9999L256.19 72.4599L268.44 70.6699L270.69 66.3399L269.32 63.8599L257.51 60.4099L253.91 55.1399L250.99 47.5099L255.16 39.0399L259.7 34.8999L266.83 33.7699L267.63 33.6499Z" fill="#FFC13B"/>
<path d="M286.41 26.8098L286.68 50.7998L289.13 75.3698L291.83 80.4098L297.89 81.9598L301.76 76.5998L299.75 41.5098L297.61 24.8298L292.94 22.2998L287.83 23.3398L286.41 26.8098Z" fill="#FFC13B"/>
<path d="M311.82 33.6499L319.909 32.3599L330.45 37.2499L337.7 46.7599L338.19 58.7399L336.76 75.6499L327.159 83.0399L315.21 82.5199L309.289 76.4699L306.969 68.7899L309.75 55.7999L320.01 49.7799L323.68 49.3099L325.09 47.0499L321.419 44.0399L314.419 45.7299L311.45 45.1699L306.27 40.5599L307.909 37.1699L311.82 33.6499ZM320.479 62.0099L318.83 65.7699L322.229 69.5699L325.56 67.6599L325.09 60.4099L323.21 61.4499L320.479 62.0099Z" fill="#FFC13B"/>
<path d="M342.41 37.8199L354.36 33.6499L366.8 36.8199L371.86 46.5699L373.28 56.2699L372.25 72.7099L369.03 78.3499L361.23 75.5299L359.72 70.8599L359.82 58.7099L360.19 47.7999L357.84 47.4999L355.89 49.3999L352.48 64.9899L352.29 76.0499L349.36 79.4899H344.95L342.41 78.2899L339.83 76.8899L338.91 63.8599L342.41 37.8199Z" fill="#FFC13B"/>
<path d="M396.431 37.8198V20.0298L405.271 17.5398L409.401 19.6298L411.531 28.1298L413.751 70.3498L406.881 81.6798L395.861 83.5598L385.291 78.9298L377.891 66.9998L380.551 47.1598L388.111 39.9298L396.431 37.8198ZM396.991 52.7198L391.651 57.7098L392.661 62.5798L394.321 66.9098L399.291 67.6398L400.121 57.7198L396.991 52.7198Z" fill="#FFC13B"/>
<path d="M49.6498 79.1798C45.7598 61.2398 54.0198 40.9898 67.9998 36.9698C77.3198 34.2898 91.9998 34.2898 97.7898 43.4598C100.26 47.3798 99.9298 50.7098 97.9998 52.5998C96.0298 54.5298 92.4098 55.1698 90.5898 54.6798C87.2498 53.7898 83.4798 50.6598 78.2598 51.7398C75.6198 52.2898 72.1198 53.6698 70.1398 57.8198C68.5398 61.1898 67.7898 66.2498 68.9898 74.0898C71.6698 91.5998 81.5498 92.8698 87.3398 91.8798C93.1298 90.8898 94.3998 83.9698 92.9898 78.7498C86.7798 81.1498 78.9898 81.6698 76.8998 75.2898C75.1398 69.9298 78.1098 65.3798 83.7498 64.0298C89.3998 62.6798 95.6798 63.0398 100.26 64.9898C106.4 67.5998 108.38 81.2998 107.11 89.6298C105.84 97.9598 101.75 106.15 86.0698 108.27C70.4098 110.38 55.1598 104.6 49.6498 79.1798Z" stroke="black" stroke-width="4" stroke-miterlimit="10" stroke-linecap="round" stroke-linejoin="round"/>
<path d="M112.902 58.0098C113.112 50.8598 122.221 44.8798 132.661 45.4498C143.111 46.0098 142.262 57.5898 137.322 59.1398C132.382 60.6898 129.132 64.9298 129.562 69.0198C129.982 73.1098 132.671 87.5098 133.231 94.8598C133.791 102.2 120.242 106.15 116.572 95.4198C112.902 84.6898 112.482 72.5498 112.902 58.0098Z" stroke="black" stroke-width="4" stroke-miterlimit="10" stroke-linecap="round" stroke-linejoin="round"/>
<path d="M147.49 51.2798C148.57 45.8698 158.22 44.9698 160.62 50.2398C163.05 55.5798 165.51 88.5798 165.17 92.7998C164.95 95.5698 163.3 97.7098 160.05 98.0698C156.97 98.4198 152.96 97.2898 151.97 93.7498C150.39 88.1198 146.46 56.4198 147.49 51.2798Z" stroke="black" stroke-width="4" stroke-miterlimit="10" stroke-linecap="round" stroke-linejoin="round"/>
<path d="M228.97 32.9297C230.05 26.6597 239.701 25.6197 242.101 31.7297C244.531 37.9197 246.991 76.1497 246.651 81.0497C246.431 84.2597 244.781 86.7297 241.531 87.1597C238.451 87.5597 234.441 86.2597 233.451 82.1497C231.871 75.6197 227.94 38.8897 228.97 32.9297Z" stroke="black" stroke-width="4" stroke-miterlimit="10" stroke-linecap="round" stroke-linejoin="round"/>
<path d="M285.26 27.4498C286.27 21.1798 295.26 20.1398 297.49 26.2498C299.76 32.4398 302.05 70.6698 301.73 75.5698C301.52 78.7798 299.41 81.2697 296.37 81.5397C291.52 81.9597 289.3 78.4798 289 74.2798C288.09 61.5398 284.3 33.4098 285.26 27.4498Z" stroke="black" stroke-width="4" stroke-miterlimit="10" stroke-linecap="round" stroke-linejoin="round"/>
<path d="M143.061 32.7398C142.481 28.4298 145.511 24.3598 150.591 24.4598C155.671 24.5598 158.711 26.6198 158.681 31.6098C158.661 35.2998 155.571 38.7598 151.061 38.7598C146.551 38.7598 143.541 36.2198 143.061 32.7398Z" stroke="black" stroke-width="4" stroke-miterlimit="10" stroke-linecap="round" stroke-linejoin="round"/>
<path d="M195.961 42.9998C191.161 40.2698 178.741 43.1898 174.781 50.7198C170.831 58.2498 169.321 65.0898 170.451 73.7198C171.581 82.3498 178.121 95.5698 195.561 93.7998C211.721 92.1598 212.651 80.4598 212.111 70.8598C211.361 57.3098 206.931 34.9098 205.241 29.9198C204.451 27.5798 201.561 24.3998 197.751 24.4598C194.371 24.5098 191.801 26.7198 191.621 30.4398C191.481 33.3098 193.031 40.4198 193.641 42.2098" stroke="black" stroke-width="4" stroke-miterlimit="10" stroke-linecap="round" stroke-linejoin="round"/>
<path d="M196.05 56.7399C191.8 55.1399 184.29 57.7799 184.94 68.5999C185.6 79.4199 195.58 79.7999 197.83 78.2899C199.63 75.0899 198.41 59.3699 196.05 56.7399Z" stroke="black" stroke-width="4" stroke-miterlimit="10" stroke-linecap="round" stroke-linejoin="round"/>
<path d="M251.03 47.0898C251.74 39.0898 257.69 34.0498 265.22 33.6798C272.75 33.2998 277.83 36.4998 279.71 39.0398C280.65 40.3098 280.85 42.8098 279.73 44.3998C278.62 45.9898 276.19 46.6699 274.18 46.1599C269.55 44.9899 267.12 44.7798 266.06 47.0598C265.32 48.6398 266.2 50.9999 268.32 51.3499C270.44 51.6999 279.03 54.0499 282.24 58.0499C284.86 61.3099 286.77 65.3399 285.43 72.6899C284.09 80.0299 275.52 83.7699 269.73 84.2699C263.94 84.7599 258.44 83.8498 256.11 82.0098C255.07 81.1898 253.33 78.8399 253.53 76.5699C253.78 73.7799 255.96 71.6698 258.89 71.1698C260.97 70.8198 263.33 71.6999 265.63 71.4899C268.36 71.2299 269.99 69.8198 270.38 68.4498C271.11 65.9198 270.35 64.3898 268.24 63.0898C264.48 60.7698 260.34 62.3999 255.96 58.5699C252.03 55.1099 250.73 50.5098 251.03 47.0898Z" stroke="black" stroke-width="4" stroke-miterlimit="10" stroke-linecap="round" stroke-linejoin="round"/>
<path d="M325.181 50.2499C325.371 48.3299 324.701 44.4299 321.691 44.4299C318.671 44.4299 313.781 46.5599 311.131 45.5899C309.551 45.0099 307.471 43.3499 307.211 40.8199C306.791 36.6999 309.861 34.3599 313.011 33.7299C318.571 32.6299 328.151 31.0199 334.241 40.1699C339.101 47.4699 339.101 67.3499 336.421 74.0999C333.741 80.8499 327.711 83.3799 320.171 83.0099C313.301 82.6699 306.831 76.6499 306.971 67.8999C307.101 59.1399 310.271 54.2299 314.281 51.9499C318.141 49.7399 322.131 49.0199 325.181 50.2499Z" stroke="black" stroke-width="4" stroke-miterlimit="10" stroke-linecap="round" stroke-linejoin="round"/>
<path d="M325.651 61.0199C325.741 62.6899 325.901 66.2499 325.651 68.6899C322.971 70.2799 319.091 69.8899 318.841 66.0799C318.591 62.2699 322.511 60.1299 325.651 61.0199Z" stroke="black" stroke-width="4" stroke-miterlimit="10" stroke-linecap="round" stroke-linejoin="round"/>
<path d="M340.621 41.0198C339.491 49.6298 338.361 68.1298 339.211 75.0398C339.631 78.4998 343.381 79.9398 346.241 80.0798C349.771 80.2598 351.921 77.9298 352.351 75.8098C353.201 71.5698 353.691 54.4898 354.111 50.5398C354.321 48.5598 355.561 47.4898 357.161 47.4498C358.761 47.4098 360.721 48.3798 360.721 50.6398C360.721 55.1598 359.411 70.3098 360.541 73.8398C361.671 77.3698 363.791 78.7798 367.321 78.6398C370.851 78.4998 371.981 76.2398 372.261 72.7098C372.541 69.1798 373.901 47.9298 371.481 42.8498C368.091 35.7198 363.221 34.1198 356.121 34.1698C350.771 34.2098 343.021 36.5098 340.621 41.0198Z" stroke="black" stroke-width="4" stroke-miterlimit="10" stroke-linecap="round" stroke-linejoin="round"/>
<path d="M397.97 38.6297C390.47 36.9297 376.82 41.9797 377.96 61.1697C379.1 80.3597 390.55 83.1798 399.73 83.0698C408.91 82.9498 413.36 74.3098 413.75 70.3498C414.14 66.3898 412.72 26.3697 409.98 20.5397C407.83 15.9697 398.8 16.8097 396.85 20.6397C394.9 24.4697 395.81 33.3497 396.68 38.4097" stroke="black" stroke-width="4" stroke-miterlimit="10" stroke-linecap="round" stroke-linejoin="round"/>
<path d="M401.09 52.0997C398.16 50.7097 391.13 53.9596 391.18 60.6496C391.23 66.9596 398.11 68.8797 401.68 66.8797" stroke="black" stroke-width="4" stroke-miterlimit="10" stroke-linecap="round" stroke-linejoin="round"/>
<path d="M399.289 52.7197C399.879 55.8797 400.529 61.4197 399.789 66.5097" stroke="black" stroke-width="4" stroke-miterlimit="10" stroke-linecap="round" stroke-linejoin="round"/>
<path d="M30.6211 21.2598C30.6211 21.2598 41.2811 102.18 42.6611 125.33C73.3411 121.58 158.911 111.53 240.811 105.31C323.711 99.0098 402.871 96.5898 419.661 99.6598C422.791 66.0598 423.571 34.7098 416.931 2.63983C336.571 1.01983 101.541 7.58983 30.6211 21.2598Z" stroke="black" stroke-width="4" stroke-miterlimit="10" stroke-linecap="round" stroke-linejoin="round"/>
<path d="M30.6206 21.2598L2.64062 29.0698C2.64062 29.0698 17.3206 99.6598 19.3006 118.29C26.7406 120.36 34.3006 122.01 42.6606 125.33" stroke="black" stroke-width="4" stroke-miterlimit="10" stroke-linecap="round" stroke-linejoin="round"/>
</svg>
