<svg width="334" height="328" viewBox="0 0 334 328" fill="none" xmlns="http://www.w3.org/2000/svg">
<path d="M192.401 137.1L195.981 136.68L199.251 137.35L198.801 140.12L193.851 140.91L192.121 138.87L192.401 137.1Z" fill="white"/>
<path d="M2.94141 24.75L28.9614 32.75L68.3514 175.34L91.4114 273.46V325.55L24.7714 278.49L2.94141 24.75Z" fill="#965C38"/>
<path d="M6.18164 23.8201L86.5016 11.3201L158.892 2.81006L177.952 9.69006L91.4116 21.8L28.9617 32.7501L6.18164 23.8201Z" fill="#965C38"/>
<path d="M91.4117 325.55L100.722 324.7L102.982 270.7L40.8017 40.3101L113.812 27.0601L176.862 18.3501L191.052 55.6901L198.422 57.6001L196.862 73.8L221.142 140.52L236.602 186.77L241.292 180.23L232.492 157.55L232.392 138.36L227.462 125.79L187.782 23.6201L180.822 9.69006L147.312 13.9801L30.5117 33.6001L91.4117 273.46V325.55Z" fill="#965C38"/>
<path d="M102.982 270.7L180.352 258.48L241.292 245.21L247.832 249.88L251.252 254.26L241.292 291.81L101.582 322.89L102.982 280.09V270.7Z" fill="#965C38"/>
<path d="M244.911 206.02L252.441 196.16L262.631 242.73L251.971 291.29L244.971 292.83L243.021 289.76L252.831 245.21L244.911 206.02Z" fill="#965C38"/>
<path d="M61.9707 111.17L72.6307 116.55L87.1307 114.3L96.6807 118.68L116.041 113.43L115.441 108.14L132.361 122.47L147.701 117.81L148.441 110.04L155.291 113.03L156.461 111.38L157.331 107.53L163.511 106.22L169.621 108.98L172.171 107.5L183.071 112.85L191.461 110.45L193.261 107.87L205.991 113.23V124.23L70.8607 145.83L61.9707 111.17Z" fill="#965C38"/>
<path d="M84.7715 198.32L89.7115 200.61L109.481 196.44L110.181 192.07L122.391 195.17L135.311 193.27L135.901 189.74V183.3L151.121 188.22L166.091 185.01L167.571 175.76L177.541 184.39L196.581 185.84L206.471 178.76L209.291 174.06L230.821 182.11L229.551 191.15L172.811 203.54L89.3615 214.28L84.7715 198.32Z" fill="#965C38"/>
<path d="M100.582 214.28L118.512 224.08L127.612 211.02L100.582 214.28Z" fill="#965C38"/>
<path d="M247.032 229.64L242.752 245.09L250.882 251.57L252.912 241.03L249.682 229.64H247.032Z" fill="#965C38"/>
<path d="M237.242 215.59L247.832 221.36L244.912 207.95L237.242 215.59Z" fill="#965C38"/>
<path d="M189.242 202.02L215.702 212.62V218.22L221.792 219L237.242 188.82L198.422 75.7101L196.092 77.4901L193.262 107.87L205.992 113.23V124.23L195.582 125.9L203.782 132.98L204.982 145.89V148.8L210.352 153.36L210.842 172.89L227.612 180.91L230.822 182.11L229.552 191.15L189.242 202.02Z" fill="#965C38"/>
<path d="M135.902 25.8801L174.612 37.0401L179.882 52.4201L190.232 55.5101L176.862 18.3501L138.842 23.6001L135.902 25.8801Z" fill="#965C38"/>
<path d="M88.5312 31.6501L110.791 36.9301L112.581 28.6101L88.5312 31.6501Z" fill="#965C38"/>
<path d="M42.1408 45.2901L40.8008 40.3101L54.3208 38.3301L79.4608 47.2101L87.1308 114.3L72.6308 116.55L61.9708 111.17L42.1408 45.2901Z" fill="#F3BA73"/>
<path d="M57.2422 38.33L87.1322 32.5L113.812 37.74L116.042 113.43L95.5022 118.68L85.4822 114L77.9922 45.88L57.2422 38.33Z" fill="#5BAE85"/>
<path d="M115.511 45.1101L148.441 53.5001V119.15L132.361 122.47L115.441 108.14L115.511 45.1101Z" fill="#BB8DF5"/>
<path d="M111.902 35.0601L113.812 27.0601L135.902 25.8801L174.612 37.0401L179.222 50.5001L171.782 108.64L167.102 109.63L162.022 105.66L157.332 107.53L156.462 111.38L150.132 111.76L148.442 110.04V53.5001L115.512 45.1101L112.582 37.5001L111.902 35.0601Z" fill="#FD7676"/>
<path d="M179.882 52.42L198.422 57.6L191.462 110.45L183.072 112.85L172.172 107.5L179.882 52.42Z" fill="#537CE6"/>
<path d="M122.652 27.0601L165.382 39.7401L172.172 49.0301L166.322 103.24L157.332 107.53L156.462 46.4001L153.522 41.6901L131.122 35.8801L121.902 30.58L119.262 27.0601H122.652Z" fill="#F9F9F9"/>
<path d="M153.811 207.95L181.121 216.84L185.051 223.53L182.401 230.73L181.761 233.74L185.921 241.03L198.571 245.21L211.931 241.03L217.051 212.33L187.411 201.42L153.811 207.95Z" fill="#5BAE85"/>
<path d="M187.002 246.41L196.862 250.62L211.122 248.22L209.692 252.91L183.922 258.48L185.052 246.41H187.002Z" fill="#5BAE85"/>
<path d="M185.921 241.03L185.051 246.41L196.861 250.62L209.621 247.43L211.121 242.1L197.521 244.33L185.921 241.03Z" fill="#DAED95"/>
<path d="M70.8613 145.83L91.4113 142.71L108.161 153.36L109.481 196.44L87.9813 199.81L84.7714 198.32L70.8613 145.83Z" fill="#FBECA9"/>
<path d="M109.481 165.14L118.091 162.35L132.781 163.74L135.311 167.62L135.901 189.74L132.781 193.77L120.221 195.62L111.891 192.68L108.631 190.58V166.3L109.481 165.14Z" fill="#4E5D71"/>
<path d="M94.7214 142.71L117.661 139.13L121.121 162.35L109.481 165.14L108.631 151.48L92.5215 143.41L94.7214 142.71Z" fill="#282E36"/>
<path d="M117.662 139.13L143.362 134.59L163.512 131.4L173.222 138.36L166.402 156.7L166.092 185.01L150.172 190.41L135.902 183.3L135.312 167.62L132.782 163.74L121.122 162.35L117.662 139.13Z" fill="#DEE5E8"/>
<path d="M177.132 128.76L168.532 130.1L165.162 132.58L173.222 138.36L169.812 148.98L178.752 145.22L184.312 144.82L184.972 145.01C186.322 138.01 182.312 132.59 177.132 128.76Z" fill="#30365C"/>
<path d="M204.981 146.73L203.781 132.99L195.571 125.9L177.121 128.77C182.301 132.6 186.311 138.02 184.951 145.02L190.221 146.55L194.001 136.69L198.411 137.52L199.241 139.5L197.471 145.85L204.981 146.73Z" fill="#626C9C"/>
<path d="M190.232 146.54L190.262 153.36L193.482 155.44L195.582 155.41L197.482 145.83L204.982 145.89L210.352 153.36V161.32L209.642 171.26L199.922 185.84L189.242 186.16L184.072 185.04L177.542 184.39L169.732 176.18L166.322 164.18L168.262 151.69L178.742 145.22L190.232 146.54Z" fill="#D15F5B"/>
<path d="M97.1913 213.27L131.501 230.28L129.431 267.7L102.981 270.7L89.3613 214.28L97.1913 213.27Z" fill="#ABD2E2"/>
<path d="M120.371 223.31L123.731 215.15L136.441 211.02L153.241 209.83L171.731 211.02L178.651 216.04L184.931 221.36L182.401 230.73L178.651 234.63L157.791 237.92L143.361 238.73L133.521 235.73L131.501 230.28L120.371 223.31Z" fill="#865A94"/>
<path d="M101.191 48.6501L107.621 48.1901L109.411 108.64L104.211 110.21L101.191 48.6501Z" fill="#255741"/>
<path d="M133.522 235.73L151.122 238.29L172.212 235.73L180.542 232.67L184.072 236.28L183.922 258.48L178.142 259.6L178.652 250.62L169.762 246.14L151.122 244.7L138.982 246.14L132.352 249.27L133.522 235.73Z" fill="#A1BDB6"/>
<path d="M132.452 248.04L151.122 244.7L178.722 249.88L178.142 259.6L129.432 267.7L132.452 248.04Z" fill="#DDFF5E"/>
<path opacity="0.7" d="M160.88 252.07C160.28 253.18 159.11 253.62 156.93 253.62C154.75 253.62 153.64 253.08 152.98 252.07C152.98 249.89 154.75 248.12 156.93 248.12C159.11 248.11 160.88 249.88 160.88 252.07Z" fill="white"/>
<path opacity="0.7" d="M150.562 252.7C149.962 253.81 148.792 254.25 146.612 254.25C144.432 254.25 143.322 253.71 142.662 252.7C142.662 250.52 144.432 248.75 146.612 248.75C148.792 248.75 150.562 250.52 150.562 252.7Z" fill="white"/>
<path d="M131.371 254.54C136.091 257.49 152.081 260.1 166.771 256.94C168.691 256.53 169.641 256.66 170.681 257.67C171.661 258.62 171.491 259.89 171.491 259.89L129.621 266.5L131.371 254.54Z" fill="#75A628"/>
<path d="M158.211 253.99C157.501 255.3 156.121 255.82 153.541 255.82C150.961 255.82 149.651 255.19 148.871 253.99C148.871 251.41 150.961 249.32 153.541 249.32C156.111 249.32 158.211 251.42 158.211 253.99Z" fill="white"/>
<path d="M150.951 225.6C162.411 225.6 171.701 223.066 171.701 219.94C171.701 216.814 162.411 214.28 150.951 214.28C139.491 214.28 130.201 216.814 130.201 219.94C130.201 223.066 139.491 225.6 150.951 225.6Z" fill="#A67FB3"/>
<path d="M147.932 160C147.122 165.21 141.352 167.77 134.332 165.93C128.372 164.37 124.352 158.94 124.352 153.66C124.352 148.38 129.812 144.09 135.972 145.79C145.442 148.4 148.912 153.67 147.932 160Z" fill="#A67FB3"/>
<path d="M145.841 159.21C145.581 160.9 143.711 161.72 141.441 161.13C139.511 160.63 138.211 158.87 138.211 157.16C138.211 155.45 139.981 154.06 141.971 154.61C145.031 155.45 146.161 157.16 145.841 159.21Z" fill="#ABD2E2"/>
<path d="M131.871 154.44C131.651 155.86 130.071 156.56 128.161 156.06C126.541 155.64 125.441 154.15 125.441 152.71C125.441 151.27 126.931 150.1 128.611 150.56C131.191 151.28 132.141 152.71 131.871 154.44Z" fill="#ABD2E2"/>
<path d="M178.603 155.686C179.663 153.85 179.426 151.727 178.072 150.946C176.719 150.164 174.762 151.02 173.701 152.856C172.641 154.693 172.879 156.815 174.232 157.597C175.586 158.378 177.542 157.523 178.603 155.686Z" fill="white"/>
<path d="M175.221 163.711C175.987 163.461 176.379 162.555 176.096 161.689C175.814 160.823 174.963 160.324 174.196 160.574C173.43 160.824 173.038 161.729 173.321 162.596C173.604 163.462 174.454 163.961 175.221 163.711Z" fill="white"/>
<path d="M106.734 247.331C108.609 246.819 109.596 244.451 108.938 242.043C108.279 239.635 106.226 238.099 104.35 238.611C102.475 239.124 101.489 241.492 102.147 243.9C102.805 246.308 104.859 247.844 106.734 247.331Z" fill="#FBDD55"/>
<path d="M177.871 234.73C180.771 238.3 180.591 243.99 179.781 249.33C178.071 248.71 157.461 244.8 157.461 244.8L139.451 246.42L132.451 248.46L133.601 235.26L147.621 237.3L169.411 236.49L177.871 234.73Z" fill="#475E5B"/>
<path d="M67.4511 55.6401L72.9811 54.08C74.0511 53.78 75.1511 54.5 75.2911 55.61L81.9711 108.57C82.0911 109.5 81.4811 110.37 80.5711 110.58L77.2811 111.33C76.2611 111.56 75.2511 110.89 75.0711 109.86L66.1411 57.7101C65.9911 56.7901 66.5611 55.9001 67.4511 55.6401Z" fill="#FBECA9"/>
<path d="M142.421 69.03C141.351 70.88 139.111 71.28 137.891 70.58C136.671 69.88 136.551 67.81 137.621 65.97C138.691 64.13 140.531 63.2 141.751 63.9C142.961 64.6 143.481 67.19 142.421 69.03Z" fill="#FBECA9"/>
<path d="M142.421 81.18C141.351 83.03 139.111 83.4301 137.891 82.7301C136.671 82.0301 136.551 79.9601 137.621 78.1201C138.691 76.2801 140.531 75.35 141.751 76.05C142.961 76.75 143.481 79.34 142.421 81.18Z" fill="#FBECA9"/>
<path d="M142.421 96.39C141.351 98.24 139.111 98.64 137.891 97.94C136.671 97.24 136.551 95.17 137.621 93.33C138.691 91.49 140.531 90.56 141.751 91.26C142.961 91.95 143.481 94.54 142.421 96.39Z" fill="#FBECA9"/>
<path d="M143.102 110.39C142.032 112.24 139.792 112.64 138.572 111.94C137.352 111.24 137.232 109.17 138.302 107.33C139.372 105.49 141.212 104.56 142.432 105.26C143.652 105.95 144.172 108.54 143.102 110.39Z" fill="#FBECA9"/>
<path d="M125.432 65.2201L128.252 113.03" stroke="#854EC9" stroke-width="3" stroke-miterlimit="10" stroke-linecap="round" stroke-linejoin="round"/>
<path opacity="0.14" d="M194.01 136.68L197.29 136.31L200.281 138.36L194.66 155.46L190.23 154.89L191.49 140.91L194.01 136.68Z" fill="white"/>
<path d="M192.122 138.87C192.122 138.87 195.942 140.7 199.252 139.47L193.482 155.43L191.062 154.98L190.832 144.8L192.122 138.87Z" fill="#BF996F"/>
<path d="M217.051 219L231.261 225.59L226.181 248.61L209.691 252.91L217.051 219Z" fill="#ABD2E2"/>
<path d="M224.861 220.7L241.841 217.55L248.731 224.92L241.291 245.21L226.181 248.61L231.261 225.59L224.861 220.7Z" fill="#537CE6"/>
<path d="M221.791 219L239.871 182.58L254.881 189.36L235.791 218.67L222.951 220.22L221.791 219Z" fill="#282E36"/>
<path d="M242.532 118.66L249.902 108.73L265.772 99.7301L285.432 96.4301L299.362 100.8L311.732 110.79L314.652 121.64L315.972 133.17L309.562 158.31L298.142 172.89L273.562 184.81L255.692 184.02L242.522 176.16L233.672 160.62L232.422 146.53L236.712 128.93L242.532 118.66ZM252.822 116.98L245.532 130.1L239.732 143.31L241.282 159.9L250.082 170.32L265.712 176.27L283.172 172.88L298.152 159.71L306.282 138.36L304.872 122.26L296.752 110.46L278.702 103.82L260.062 110.79L252.822 116.98Z" fill="#97A4B8"/>
<path d="M244.051 162.93L245.031 148.98L253.131 130.1L265.971 116.08L281.471 109.97L296.751 110.45L282.071 105.05L262.631 110.45L247.831 124.61L242.531 140.52L240.891 153.36L244.051 162.93Z" fill="#2D3A4A"/>
<path d="M242.532 176.16L255.712 184.02L267.592 186.16L284.542 181.16L300.162 170.33L312.022 151.69L315.812 136.31V115.11L322.872 128.92L321.042 149.74L312.212 169.13L295.772 184.81L277.772 192.31L265.332 193.24L258.122 191.53L250.842 188.82L241.292 180.23L240.082 177.11L242.532 176.16Z" fill="#4D5C73"/>
<path d="M269.391 113.92L277.591 110.45L292.081 108.73L301.481 113.92L306.751 132.61L302.981 151.26L289.961 167.62L276.821 175.34H260.351L250.091 170.33L244.051 162.93L245.821 147.16L253.131 130.1L265.971 116.08L269.391 113.92Z" fill="#ABD2E2"/>
<path d="M279.103 129.356C282.849 126.554 284.215 122.05 282.154 119.294C280.093 116.539 275.386 116.577 271.64 119.378C267.894 122.18 266.528 126.684 268.589 129.44C270.649 132.195 275.356 132.158 279.103 129.356Z" fill="white"/>
<path d="M268.309 139.75C269.384 137.152 268.708 134.406 266.8 133.616C264.891 132.826 262.473 134.292 261.398 136.889C260.323 139.487 260.998 142.233 262.907 143.022C264.815 143.812 267.234 142.347 268.309 139.75Z" fill="white"/>
<path d="M177.65 58.75C177.65 58.75 183.35 59.96 187.13 60.89C186.28 72.42 184 106.52 182.44 113.03" stroke="#2A3D73" stroke-width="3" stroke-miterlimit="10" stroke-linecap="round" stroke-linejoin="round"/>
<path d="M67.3398 136.26C99.4998 133.92 184.58 120.18 206.61 113.03" stroke="black" stroke-width="3" stroke-miterlimit="10" stroke-linecap="round" stroke-linejoin="round"/>
<path d="M187.121 60.8901C187.121 60.8901 193.541 58.6501 198.411 57.6001" stroke="#2A3D73" stroke-width="3" stroke-miterlimit="10" stroke-linecap="round" stroke-linejoin="round"/>
<path d="M124.58 27.0601L165.38 39.7401" stroke="#9E3E3E" stroke-width="3" stroke-miterlimit="10" stroke-linecap="round" stroke-linejoin="round"/>
<path d="M252.28 195.24C252.28 195.24 257.74 226.53 262.63 242.72C261.48 254.3 254.92 281.68 251.97 291.28L244.97 292.82L242.75 290.81C227.5 296.17 123.31 320.74 101.86 322.29L100.73 324.69C100.73 324.69 95.0802 325.54 91.4102 325.54C75.6002 313.49 40.8003 289.96 24.7703 278.48C20.6303 174.95 8.05022 99.34 2.93022 24.7401C2.08022 23.2901 123.42 4.43005 157.06 2.80005L182.5 9.68005C198 45.1001 216.19 97.4001 232.01 137.49" stroke="black" stroke-width="4" stroke-miterlimit="10" stroke-linecap="round" stroke-linejoin="round"/>
<path d="M88.9609 40.0001L65.8809 35.8801" stroke="#255741" stroke-width="3" stroke-miterlimit="10" stroke-linecap="round" stroke-linejoin="round"/>
<path d="M2.93945 24.7501C2.93945 24.7501 19.4994 28.8901 29.6694 33.0301C60.9494 27.0901 132.319 13.4001 182.519 9.69006" stroke="black" stroke-width="3" stroke-miterlimit="10" stroke-linecap="round" stroke-linejoin="round"/>
<path d="M86.2812 206.4C129.241 203.01 206.041 192.21 230.321 180.92" stroke="black" stroke-width="3" stroke-miterlimit="10" stroke-linecap="round" stroke-linejoin="round"/>
<path d="M29.6602 33.03C29.6602 33.03 86.0202 236.59 91.4002 273.46C91.5602 299.08 91.4002 325.55 91.4002 325.55" stroke="black" stroke-width="3" stroke-miterlimit="10" stroke-linecap="round" stroke-linejoin="round"/>
<path d="M102.98 278.68C127.55 277.97 224.1 261.46 251.25 251.43" stroke="black" stroke-width="3" stroke-miterlimit="10" stroke-linecap="round" stroke-linejoin="round"/>
<path d="M196.859 71.3801C213.119 116.63 231.679 170.77 237.229 188.82" stroke="black" stroke-width="3" stroke-miterlimit="10" stroke-linecap="round" stroke-linejoin="round"/>
<path d="M176.859 18.3501C179.229 25.7501 184.439 37.5601 190.219 53.6401" stroke="black" stroke-width="3" stroke-miterlimit="10" stroke-linecap="round" stroke-linejoin="round"/>
<path d="M101.851 322.3C101.851 322.3 102.981 286.89 102.981 270.7C96.9608 243.97 46.0708 57.6201 40.8008 40.3101C73.3308 34.3501 160.681 19.8601 176.861 18.3501" stroke="black" stroke-width="4" stroke-miterlimit="10" stroke-linecap="round" stroke-linejoin="round"/>
<path d="M131.5 248.03C142.18 242.39 170.11 244.48 177.88 249.85L177.11 259.61" stroke="#75A628" stroke-width="4" stroke-miterlimit="10" stroke-linecap="round" stroke-linejoin="round"/>
<path d="M206.61 113.03V123.14C191.65 126.3 96.2099 143.1 69.6699 144.82" stroke="black" stroke-width="4" stroke-miterlimit="10" stroke-linecap="round" stroke-linejoin="round"/>
<path d="M206.611 113.03L191.891 107.87" stroke="black" stroke-width="4" stroke-miterlimit="10" stroke-linecap="round" stroke-linejoin="round"/>
<path d="M242.75 290.82C242.75 290.82 251.03 258.82 252.91 244.62C250.09 225.88 244.72 206.39 244.72 206.39" stroke="black" stroke-width="3" stroke-miterlimit="10" stroke-linecap="round" stroke-linejoin="round"/>
<path d="M91.4102 273.46L102.98 270.7" stroke="black" stroke-width="3" stroke-miterlimit="10" stroke-linecap="round" stroke-linejoin="round"/>
<path d="M241.62 244.62C208.02 255.96 124.35 269.64 102.98 270.7" stroke="black" stroke-width="4" stroke-miterlimit="10" stroke-linecap="round" stroke-linejoin="round"/>
<path d="M251.249 251.43C251.249 251.43 243.659 244.99 241.609 244.62" stroke="black" stroke-width="4" stroke-miterlimit="10" stroke-linecap="round" stroke-linejoin="round"/>
<path d="M305.42 163.576C320.769 142.336 319.194 114.988 301.902 102.492C284.61 89.9963 258.15 97.0848 242.801 118.325C227.452 139.565 229.028 166.913 246.319 179.409C263.611 191.904 290.072 184.816 305.42 163.576Z" stroke="black" stroke-width="4" stroke-miterlimit="10" stroke-linecap="round" stroke-linejoin="round"/>
<path d="M307.221 107.29C330.651 123.01 322.331 149.74 316.711 161.46C305.461 184.9 277.251 198.76 257.051 191.15" stroke="black" stroke-width="4" stroke-miterlimit="10" stroke-linecap="round" stroke-linejoin="round"/>
<path d="M298.068 158.27C310.347 141.278 309.332 119.576 295.8 109.798C282.268 100.019 261.344 105.867 249.065 122.859C236.786 139.851 237.802 161.552 251.333 171.331C264.865 181.11 285.789 175.262 298.068 158.27Z" stroke="black" stroke-width="4" stroke-miterlimit="10" stroke-linecap="round" stroke-linejoin="round"/>
<path d="M244.771 164.03C241.351 146.41 252.471 128.75 261.231 120.06C270.531 110.84 283.691 107.53 294.661 109.1" stroke="black" stroke-width="4" stroke-miterlimit="10" stroke-linecap="round" stroke-linejoin="round"/>
<path d="M235.371 218.22L255.711 189.65C255.711 189.65 244.871 186.07 241.291 181.6C232.021 197.64 221.211 220.22 221.211 220.22" stroke="black" stroke-width="4" stroke-miterlimit="10" stroke-linecap="round" stroke-linejoin="round"/>
<path d="M234.859 164.18L241.289 181.6" stroke="black" stroke-width="4" stroke-miterlimit="10" stroke-linecap="round" stroke-linejoin="round"/>
<path d="M129.891 25.25C129.891 25.25 160.961 31.25 174.511 36.33C176.291 38.95 179.281 43.97 178.661 49.79C176.611 68.82 172.171 102.2 171.591 107.88C169.711 110.46 162.541 106.43 162.541 106.43" stroke="black" stroke-width="4" stroke-miterlimit="10" stroke-linecap="round" stroke-linejoin="round"/>
<path d="M111.361 36.4201C111.361 36.4201 110.611 32.3801 112.581 29.0801" stroke="black" stroke-width="4" stroke-miterlimit="10" stroke-linecap="round" stroke-linejoin="round"/>
<path d="M148.06 108.58C148.06 108.58 153.33 114.26 156.44 110.45C156.52 95.4401 157.56 62.2701 157.28 47.9401C157.22 44.6901 155.19 41.7901 152.16 40.6001C140.94 36.1901 131.95 35.0501 124.35 32.7401C122.37 32.1401 117.56 29.08 118.67 27.05" stroke="black" stroke-width="4" stroke-miterlimit="10" stroke-linecap="round" stroke-linejoin="round"/>
<path d="M166.701 103.81C166.701 103.81 171.121 64.74 172.161 50.67C172.361 47.96 170.471 42 165.381 39.74" stroke="black" stroke-width="3" stroke-miterlimit="10" stroke-linecap="round" stroke-linejoin="round"/>
<path d="M156.461 107.87L166.701 103.81" stroke="black" stroke-width="3" stroke-miterlimit="10" stroke-linecap="round" stroke-linejoin="round"/>
<path d="M114.51 44.91C114.51 44.91 139.4 49.88 148.44 53.51C148.44 63.53 147.69 118.69 147.69 118.69C140.35 122.08 132.78 122.83 132.78 122.83L115.52 108.59" stroke="black" stroke-width="4" stroke-miterlimit="10" stroke-linecap="round" stroke-linejoin="round"/>
<path d="M96.6809 118.68C96.6809 118.68 88.9609 60.8901 88.9609 40.0001C100.151 36.7101 107.521 36.5101 113.811 37.7401" stroke="#255741" stroke-width="3" stroke-miterlimit="10" stroke-linecap="round" stroke-linejoin="round"/>
<path d="M113.81 37.74C114.85 53.5 115.52 113.98 115.52 113.98L96.6797 118.69" stroke="black" stroke-width="4" stroke-miterlimit="10" stroke-linecap="round" stroke-linejoin="round"/>
<path d="M113.81 37.7401L86.5 32.3801" stroke="black" stroke-width="4" stroke-miterlimit="10" stroke-linecap="round" stroke-linejoin="round"/>
<path d="M79.3606 46.21L60.5706 51.48L42.1406 44.91" stroke="black" stroke-width="3" stroke-miterlimit="10" stroke-linecap="round" stroke-linejoin="round"/>
<path d="M51.8203 38.3301L79.3603 46.2101" stroke="black" stroke-width="4" stroke-miterlimit="10" stroke-linecap="round" stroke-linejoin="round"/>
<path d="M71.8303 116.55C67.4603 96.7801 63.3603 69.4601 60.5703 51.4801" stroke="black" stroke-width="3" stroke-miterlimit="10" stroke-linecap="round" stroke-linejoin="round"/>
<path d="M79.36 46.2101L86.5001 114.01C86.5001 114.01 75.2201 118 71.8301 116.55" stroke="black" stroke-width="4" stroke-miterlimit="10" stroke-linecap="round" stroke-linejoin="round"/>
<path d="M71.8303 116.55L60.5703 111.46" stroke="black" stroke-width="4" stroke-miterlimit="10" stroke-linecap="round" stroke-linejoin="round"/>
<path d="M96.68 118.68L86.5 114" stroke="black" stroke-width="4" stroke-miterlimit="10" stroke-linecap="round" stroke-linejoin="round"/>
<path d="M114.27 53.5L131.12 60.89C131.12 60.89 144.86 56.28 148.44 53.5" stroke="black" stroke-width="3" stroke-miterlimit="10" stroke-linecap="round" stroke-linejoin="round"/>
<path d="M131.121 60.8901C131.121 60.8901 132.891 112.23 132.781 122.82" stroke="black" stroke-width="3" stroke-miterlimit="10" stroke-linecap="round" stroke-linejoin="round"/>
<path d="M101.189 47.7101C101.189 47.7101 105.629 47.2001 107.549 47.2001C108.139 54.4901 109.399 101.69 109.469 108.57C107.399 110.44 103.779 110.44 103.779 110.44C102.379 80.2801 101.559 60.7001 101.189 47.7101Z" stroke="black" stroke-width="3" stroke-miterlimit="10" stroke-linecap="round" stroke-linejoin="round"/>
<path d="M171.781 106.22L182.431 113.03C182.431 113.03 187.551 111.38 191.361 110.96C192.611 104.68 197.711 66.21 198.421 57.6C194.561 56.24 180.631 53.51 180.631 53.51" stroke="black" stroke-width="4" stroke-miterlimit="10" stroke-linecap="round" stroke-linejoin="round"/>
<path d="M190.231 146.54C184.491 143.53 174.351 142.59 168.421 151.69C163.631 159.04 167.431 182.56 179.031 184.81C182.581 185.5 183.551 184.71 187.691 185.17C191.531 185.59 193.891 186.33 198.271 185.38C202.651 184.43 211.691 175.52 212.061 162.62C212.441 149.73 204.061 145.87 198.131 146.62" stroke="black" stroke-width="4" stroke-miterlimit="10" stroke-linecap="round" stroke-linejoin="round"/>
<path d="M185.92 151.26C185.92 151.26 187.05 154.69 192.27 155.34C199.16 156.19 201.02 152.66 201.02 152.66" stroke="black" stroke-width="3" stroke-miterlimit="10" stroke-linecap="round" stroke-linejoin="round"/>
<path d="M190.23 154.89C190.3 148.87 190.87 138.44 193.48 136.94C196.09 135.44 200.611 136.88 199.831 139.2C199.051 141.52 195.7 147.42 194.66 155.47" stroke="black" stroke-width="3" stroke-miterlimit="10" stroke-linecap="round" stroke-linejoin="round"/>
<path d="M109.481 152.56C104.021 149.23 96.1209 144.52 88.9609 142.71" stroke="black" stroke-width="4" stroke-miterlimit="10" stroke-linecap="round" stroke-linejoin="round"/>
<path d="M70.8594 149.23L86.4894 157.45C86.4894 157.45 103.259 155.19 109.469 152.56" stroke="black" stroke-width="3" stroke-miterlimit="10" stroke-linecap="round" stroke-linejoin="round"/>
<path d="M88.9594 199.81C88.9594 199.81 85.9193 175.9 86.4993 157.46" stroke="black" stroke-width="3" stroke-miterlimit="10" stroke-linecap="round" stroke-linejoin="round"/>
<path d="M109.481 152.56C109.481 152.56 109.291 181.92 109.481 196.8C103.641 198.31 88.9609 199.81 88.9609 199.81" stroke="black" stroke-width="4" stroke-miterlimit="10" stroke-linecap="round" stroke-linejoin="round"/>
<path d="M88.9608 199.81L83.7207 196.84" stroke="black" stroke-width="4" stroke-miterlimit="10" stroke-linecap="round" stroke-linejoin="round"/>
<path d="M175.26 128.92C182.7 130.81 186.09 137.32 184.87 144.42" stroke="black" stroke-width="3" stroke-miterlimit="10" stroke-linecap="round" stroke-linejoin="round"/>
<path d="M195.58 125.27C202.75 127.9 207.1 137.17 203.93 147.36" stroke="black" stroke-width="4" stroke-miterlimit="10" stroke-linecap="round" stroke-linejoin="round"/>
<path d="M230.32 180.91C230.32 185.94 229.54 190.65 229.54 190.65C203.56 201.31 111.65 212.7 88.4004 214.34" stroke="black" stroke-width="4" stroke-miterlimit="10" stroke-linecap="round" stroke-linejoin="round"/>
<path d="M209.641 173.3L230.321 180.91" stroke="black" stroke-width="4" stroke-miterlimit="10" stroke-linecap="round" stroke-linejoin="round"/>
<path d="M160.98 131.4L173.22 136.68L168.42 151.69" stroke="black" stroke-width="4" stroke-miterlimit="10" stroke-linecap="round" stroke-linejoin="round"/>
<path d="M166.941 167.12L166.401 185.5L150.281 190.04L135.311 183.1" stroke="black" stroke-width="3" stroke-miterlimit="10" stroke-linecap="round" stroke-linejoin="round"/>
<path d="M121.12 162.35L118.9 138.32" stroke="black" stroke-width="3" stroke-miterlimit="10" stroke-linecap="round" stroke-linejoin="round"/>
<path d="M142.051 134.59L153.811 140.04L150.281 190.04" stroke="black" stroke-width="3" stroke-miterlimit="10" stroke-linecap="round" stroke-linejoin="round"/>
<path d="M153.811 140.04C159.031 137.92 167.571 137.1 173.221 136.67" stroke="black" stroke-width="3" stroke-miterlimit="10" stroke-linecap="round" stroke-linejoin="round"/>
<path d="M135.31 168.39C135.31 168.39 135.31 185.22 135.31 189.6C135.31 193.98 129.95 195.81 122.46 195.81C118.08 195.81 110.46 193.23 109.41 189.99" stroke="black" stroke-width="3" stroke-miterlimit="10" stroke-linecap="round" stroke-linejoin="round"/>
<path d="M109.48 184.11C117.1 188.77 129.24 189.9 135.32 185.24" stroke="black" stroke-width="3" stroke-miterlimit="10" stroke-linecap="round" stroke-linejoin="round"/>
<path d="M132.451 235.2C134.801 236.73 142.811 238.13 155.921 237.9C169.311 237.67 183.691 233.7 183.981 227.43C184.071 225.44 184.141 223.12 183.921 221.39C182.891 213.49 163.561 207.94 147.931 209.35C132.311 210.76 123.341 212.75 121.241 218.86C120.681 220.51 120.221 224.51 120.221 224.51" stroke="black" stroke-width="4" stroke-miterlimit="10" stroke-linecap="round" stroke-linejoin="round"/>
<path d="M181.07 232.67C184.76 235.03 185.43 240 185.15 244.23C184.87 248.46 184.02 258.48 184.02 258.48" stroke="black" stroke-width="4" stroke-miterlimit="10" stroke-linecap="round" stroke-linejoin="round"/>
<path d="M97.9512 214.35L132.781 230.26C132.781 230.26 130.891 260.27 129.431 267.71" stroke="black" stroke-width="4" stroke-miterlimit="10" stroke-linecap="round" stroke-linejoin="round"/>
<path d="M90.9902 224.08C90.9902 224.08 104.39 229.13 114.7 235.2C114.7 235.2 126.01 230.12 132.78 230.26" stroke="black" stroke-width="3" stroke-miterlimit="10" stroke-linecap="round" stroke-linejoin="round"/>
<path d="M114.701 235.2C114.701 235.2 113.311 257.97 111.891 269.95" stroke="black" stroke-width="3" stroke-miterlimit="10" stroke-linecap="round" stroke-linejoin="round"/>
<path d="M106.734 247.331C108.609 246.819 109.596 244.451 108.938 242.043C108.279 239.635 106.226 238.099 104.35 238.611C102.475 239.124 101.489 241.492 102.147 243.9C102.805 246.308 104.859 247.844 106.734 247.331Z" stroke="black" stroke-width="3" stroke-miterlimit="10" stroke-linecap="round" stroke-linejoin="round"/>
<path d="M185.201 201.42L216.601 212.33C216.601 212.33 212.951 236.92 209.641 253.15" stroke="black" stroke-width="4" stroke-miterlimit="10" stroke-linecap="round" stroke-linejoin="round"/>
<path d="M215.701 218.22C215.701 218.22 226.651 221.92 232.011 225.03C229.471 233.5 225.681 249.27 225.681 249.27" stroke="black" stroke-width="4" stroke-miterlimit="10" stroke-linecap="round" stroke-linejoin="round"/>
<path d="M213.881 229.64L232.021 225.03" stroke="black" stroke-width="3" stroke-miterlimit="10" stroke-linecap="round" stroke-linejoin="round"/>
<path d="M221.211 220.22C236.351 218.96 241.061 216.85 241.061 216.85C243.881 219.39 249.041 224.08 249.041 224.08L241.621 244.62" stroke="black" stroke-width="4" stroke-miterlimit="10" stroke-linecap="round" stroke-linejoin="round"/>
<path d="M230.701 229.64C230.701 229.64 242.611 226.8 249.031 224.08" stroke="black" stroke-width="3" stroke-miterlimit="10" stroke-linecap="round" stroke-linejoin="round"/>
<path d="M185.201 239.57L198.281 244.62L211.931 241.03" stroke="black" stroke-width="3" stroke-miterlimit="10" stroke-linecap="round" stroke-linejoin="round"/>
<path d="M185.051 245.58L197.431 250.87L210.711 247.68" stroke="black" stroke-width="3" stroke-miterlimit="10" stroke-linecap="round" stroke-linejoin="round"/>
<path d="M197.429 250.87L196.859 254.96" stroke="black" stroke-width="3" stroke-miterlimit="10" stroke-linecap="round" stroke-linejoin="round"/>
<path d="M198.281 244.62C199.551 236.18 200.431 222.77 200.911 217.55L216.611 212.33" stroke="black" stroke-width="3" stroke-miterlimit="10" stroke-linecap="round" stroke-linejoin="round"/>
<path d="M200.9 217.55C187.58 211.02 173.29 205.98 166.93 204.5" stroke="black" stroke-width="3" stroke-miterlimit="10" stroke-linecap="round" stroke-linejoin="round"/>
<circle cx="8.89062" cy="32.1801" r="2" fill="black"/>
<circle cx="23.7812" cy="36.9801" r="2" fill="black"/>
<circle cx="51.1211" cy="140.04" r="2" fill="black"/>
<circle cx="67.3398" cy="209.83" r="2" fill="black"/>
<circle cx="83.7207" cy="277.12" r="2" fill="black"/>
<path d="M135.31 166.17C141.88 167.53 147.16 164.98 147.93 160.01C148.91 153.67 145.44 148.41 135.97 145.8C129.81 144.1 124.35 148.4 124.35 153.67C124.35 156.71 125.77 160.48 128.04 162.85" stroke="#613C6B" stroke-width="3" stroke-miterlimit="10" stroke-linecap="round" stroke-linejoin="round"/>
<path d="M145.841 159.21C145.581 160.9 143.711 161.72 141.441 161.13C139.511 160.63 138.211 158.87 138.211 157.16C138.211 155.45 139.981 154.06 141.971 154.61C145.031 155.45 146.161 157.16 145.841 159.21Z" stroke="black" stroke-width="2" stroke-miterlimit="10" stroke-linecap="round" stroke-linejoin="round"/>
<path d="M131.869 154.44C131.649 155.86 130.069 156.56 128.159 156.06C126.539 155.64 125.439 154.15 125.439 152.71C125.439 151.27 126.929 150.1 128.609 150.56C131.189 151.28 132.139 152.71 131.869 154.44Z" stroke="black" stroke-width="2" stroke-miterlimit="10" stroke-linecap="round" stroke-linejoin="round"/>
<path d="M109.48 165.14C114.65 162.35 134.23 161.18 135.25 167.13C136.26 173.08 125.99 173.93 121.5 173.93C117.01 173.93 110.5 171.95 109.49 170.33" stroke="black" stroke-width="3" stroke-miterlimit="10" stroke-linecap="round" stroke-linejoin="round"/>
<path d="M160.471 143.31C160.861 144.67 161.531 145.95 162.421 147.05C163.151 147.95 164.041 148.74 164.621 149.74" stroke="#613C6B" stroke-width="3" stroke-miterlimit="10" stroke-linecap="round" stroke-linejoin="round"/>
<path d="M164.541 143.24C161.731 145.25 160.311 148.65 157.961 151.19" stroke="#613C6B" stroke-width="3" stroke-miterlimit="10" stroke-linecap="round" stroke-linejoin="round"/>
<path d="M161.141 162.91C161.411 162.87 161.681 162.8 161.891 162.63C162.171 162.41 162.301 162.05 162.401 161.71C162.591 161.11 162.741 160.48 162.651 159.86C162.381 158.07 159.611 157.82 158.671 159.19C157.401 161.02 159.111 163.19 161.141 162.91Z" stroke="#613C6B" stroke-width="3" stroke-miterlimit="10" stroke-linecap="round" stroke-linejoin="round"/>
<path d="M155.1 173.25C155.17 173.41 155.37 173.44 155.55 173.44C157.84 173.49 160.14 173.47 162.43 173.36C161.9 172.27 160.31 168.48 158.9 169.23C158.59 169.39 155.16 173.4 155.1 173.25Z" stroke="#613C6B" stroke-width="3" stroke-miterlimit="10" stroke-linecap="round" stroke-linejoin="round"/>
<path d="M92.5195 162.35C92.5195 162.35 97.6495 161.57 103.549 160.16C103.829 164.54 103.549 172.16 103.549 172.16C103.549 172.16 93.3495 174.43 92.5195 174.36C92.5195 169.22 92.5195 162.35 92.5195 162.35Z" stroke="#9C7A29" stroke-width="3" stroke-miterlimit="10" stroke-linecap="round" stroke-linejoin="round"/>
<path d="M92.5195 181.43C92.5195 181.43 97.6495 180.65 103.549 179.24C103.829 183.62 103.549 191.24 103.549 191.24C103.549 191.24 93.3495 192.51 92.5195 192.44C93.0995 188.49 92.5195 181.43 92.5195 181.43Z" stroke="#9C7A29" stroke-width="3" stroke-miterlimit="10" stroke-linecap="round" stroke-linejoin="round"/>
<path d="M166.401 53.5L162.551 100.8" stroke="#9E9E9E" stroke-width="3" stroke-miterlimit="10" stroke-linecap="round" stroke-linejoin="round"/>
</svg>
