<svg width="218" height="229" viewBox="0 0 218 229" fill="none" xmlns="http://www.w3.org/2000/svg">
<path d="M36.8597 49.65L65.4398 55.14L72.0298 56.56L75.3698 60.41L82.3798 58.24L86.7097 60.88L169.58 79.61L172.92 82.12L179.75 82.56L192.86 85.35L204.41 90.34L171.18 227L90.8798 210.22L2.75977 184.45L14.0398 131.05L30.3798 70.32L36.8597 49.65Z" fill="#E0C9AF"/>
<path d="M43.3691 49.03L63.4192 48.88V53.18L61.7191 54.26L43.3691 49.03Z" fill="#E0C9AF"/>
<path d="M50.2997 67.0901L187.56 97.4901L164.28 201.7L92.5497 187L26.0098 167.89L50.2997 67.0901Z" fill="#CF9959"/>
<path d="M83.5005 55.7901L81.5605 57.5601L84.1306 59.3101L113.151 65.3701L169.581 79.61L168.451 72.7901L157.061 67.9401L95.1805 53.1801L83.5005 55.7901Z" fill="#E0C9AF"/>
<path d="M186.749 83.02L190.149 77.51L197.389 79.28L215.609 87.98L181.579 220.8L172.549 226.45L188.739 157.35L204.409 90.34L186.749 83.02Z" fill="#E0C9AF"/>
<path d="M58.9006 85.02L98.8506 92.36L93.3506 121.96L51.8906 113.49L58.9006 85.02Z" fill="#FAF6F3"/>
<path d="M113.959 105.35L158.849 116.08L154.479 144.6L139.369 141.77L122.149 135.98L108.879 132.45L113.959 105.35Z" fill="#FAF6F3"/>
<path d="M120.45 148.13L160.83 157.44L155.18 188.78L110.43 178.48L120.45 148.13Z" fill="#FAF6F3"/>
<path d="M51.279 128.93L98.849 136.29L91.939 167.14L72.549 163.09L45.209 156.45L51.279 128.93Z" fill="#FAF6F3"/>
<path d="M63.9096 92.01L63.3496 94.22" stroke="#6B6B6B" stroke-width="3" stroke-miterlimit="10" stroke-linecap="round" stroke-linejoin="round"/>
<path d="M68.1989 92.76L67.6289 94.97" stroke="#6B6B6B" stroke-width="3" stroke-miterlimit="10" stroke-linecap="round" stroke-linejoin="round"/>
<path d="M72.9895 93.3501L72.2695 96.6201" stroke="#6B6B6B" stroke-width="3" stroke-miterlimit="10" stroke-linecap="round" stroke-linejoin="round"/>
<path d="M77.1289 97.71L79.0389 97.99" stroke="#6B6B6B" stroke-width="3" stroke-miterlimit="10" stroke-linecap="round" stroke-linejoin="round"/>
<path d="M77.6602 94.0601L79.5702 94.3401" stroke="#6B6B6B" stroke-width="3" stroke-miterlimit="10" stroke-linecap="round" stroke-linejoin="round"/>
<path d="M85.6905 96.46C85.6205 97.12 85.5505 97.78 85.4805 98.43" stroke="#6B6B6B" stroke-width="3" stroke-miterlimit="10" stroke-linecap="round" stroke-linejoin="round"/>
<path d="M91.2506 96.65C91.1706 97.43 90.8706 98.19 90.3906 98.82" stroke="#6B6B6B" stroke-width="3" stroke-miterlimit="10" stroke-linecap="round" stroke-linejoin="round"/>
<path d="M60.6094 100.46C61.4694 100.9 62.4494 101.05 63.4094 101.2C63.6294 101.23 63.8394 101.27 64.0594 101.3C65.2494 101.48 66.4394 101.67 67.6294 101.85" stroke="#6B6B6B" stroke-width="3" stroke-miterlimit="10" stroke-linecap="round" stroke-linejoin="round"/>
<path d="M71.209 102.33C71.819 102.62 72.439 102.9 73.089 103.09C73.689 103.27 74.309 103.36 74.919 103.45C75.919 103.6 76.929 103.75 77.929 103.89C78.039 103.91 78.159 103.93 78.239 104.01C78.319 104.09 78.329 104.22 78.329 104.34C78.339 105.02 78.259 105.7 78.089 106.35" stroke="#6B6B6B" stroke-width="3" stroke-miterlimit="10" stroke-linecap="round" stroke-linejoin="round"/>
<path d="M83.0488 105.54C85.5188 105.72 87.9588 106.26 90.2788 107.13" stroke="#6B6B6B" stroke-width="3" stroke-miterlimit="10" stroke-linecap="round" stroke-linejoin="round"/>
<path d="M59.4101 108.5C59.4601 108.69 59.4301 108.9 59.3301 109.07" stroke="#6B6B6B" stroke-width="3" stroke-miterlimit="10" stroke-linecap="round" stroke-linejoin="round"/>
<path d="M63.0898 109.73C64.2798 110.02 65.4699 110.31 66.6599 110.6" stroke="#6B6B6B" stroke-width="3" stroke-miterlimit="10" stroke-linecap="round" stroke-linejoin="round"/>
<path d="M71.2793 111.61C71.3993 111.64 71.4793 111.77 71.4593 111.89" stroke="#6B6B6B" stroke-width="3" stroke-miterlimit="10" stroke-linecap="round" stroke-linejoin="round"/>
<path d="M75.2988 112.52C77.8888 112.73 80.2388 114.1 82.7888 114.57" stroke="#6B6B6B" stroke-width="3" stroke-miterlimit="10" stroke-linecap="round" stroke-linejoin="round"/>
<path d="M87.5605 115.94C87.5605 115.47 87.5605 115 87.5605 114.53" stroke="#6B6B6B" stroke-width="3" stroke-miterlimit="10" stroke-linecap="round" stroke-linejoin="round"/>
<path d="M118.429 111.98C118.399 112.14 118.569 112.26 118.729 112.33C120.069 112.91 121.579 112.9 123.039 113.01C124.499 113.12 126.049 113.41 127.089 114.44" stroke="#6B6B6B" stroke-width="3" stroke-miterlimit="10" stroke-linecap="round" stroke-linejoin="round"/>
<path d="M130.289 115.47C130.319 115.47 130.349 115.47 130.379 115.47" stroke="#6B6B6B" stroke-width="3" stroke-miterlimit="10" stroke-linecap="round" stroke-linejoin="round"/>
<path d="M133.879 116.45C134.939 116.74 135.999 117.05 137.059 117.37" stroke="#6B6B6B" stroke-width="3" stroke-miterlimit="10" stroke-linecap="round" stroke-linejoin="round"/>
<path d="M141.16 117.24C141.24 117.56 141.17 117.9 140.99 118.17" stroke="#6B6B6B" stroke-width="3" stroke-miterlimit="10" stroke-linecap="round" stroke-linejoin="round"/>
<path d="M145.72 117.82C145.41 118.3 145.22 118.86 145.17 119.42" stroke="#6B6B6B" stroke-width="3" stroke-miterlimit="10" stroke-linecap="round" stroke-linejoin="round"/>
<path d="M149.199 119.81C149.129 119.8 149.209 119.7 149.279 119.7C150.969 119.66 152.669 120.09 154.139 120.93" stroke="#6B6B6B" stroke-width="3" stroke-miterlimit="10" stroke-linecap="round" stroke-linejoin="round"/>
<path d="M116.16 119.89C116.21 119.3 116.54 118.73 117.02 118.39C119.27 118.79 121.52 119.18 123.77 119.58C124.36 119.68 125.11 120.03 124.96 120.61C124.9 120.82 124.72 121.07 124.87 121.23C124.92 121.28 124.99 121.31 125.06 121.33C126.89 121.92 128.73 122.51 130.56 123.09" stroke="#6B6B6B" stroke-width="3" stroke-miterlimit="10" stroke-linecap="round" stroke-linejoin="round"/>
<path d="M134.709 123.28C134.829 123.57 135.029 123.84 135.279 124.03" stroke="#6B6B6B" stroke-width="3" stroke-miterlimit="10" stroke-linecap="round" stroke-linejoin="round"/>
<path d="M139.391 125.68C140.901 125.99 142.401 126.3 143.911 126.62C144.311 126.7 144.731 126.79 145.121 126.67C145.511 126.55 145.851 126.16 145.761 125.76" stroke="#6B6B6B" stroke-width="3" stroke-miterlimit="10" stroke-linecap="round" stroke-linejoin="round"/>
<path d="M149.299 128.17C149.529 127.66 149.679 127.12 149.739 126.57" stroke="#6B6B6B" stroke-width="3" stroke-miterlimit="10" stroke-linecap="round" stroke-linejoin="round"/>
<path d="M114.959 128.08C115.029 128.39 115.089 128.71 115.159 129.02" stroke="#6B6B6B" stroke-width="3" stroke-miterlimit="10" stroke-linecap="round" stroke-linejoin="round"/>
<path d="M119.311 128.65C119.401 129.24 119.481 129.84 119.571 130.43" stroke="#6B6B6B" stroke-width="3" stroke-miterlimit="10" stroke-linecap="round" stroke-linejoin="round"/>
<path d="M123.991 129.49C123.961 130.12 123.931 130.74 123.891 131.37" stroke="#6B6B6B" stroke-width="3" stroke-miterlimit="10" stroke-linecap="round" stroke-linejoin="round"/>
<path d="M127.939 131.65C127.939 131.68 127.939 131.71 127.939 131.74" stroke="#6B6B6B" stroke-width="3" stroke-miterlimit="10" stroke-linecap="round" stroke-linejoin="round"/>
<path d="M132 130.95C132.5 131.09 132.99 131.23 133.49 131.38" stroke="#6B6B6B" stroke-width="3" stroke-miterlimit="10" stroke-linecap="round" stroke-linejoin="round"/>
<path d="M130.92 134.7C131.39 135.03 131.97 135.22 132.55 135.24" stroke="#6B6B6B" stroke-width="3" stroke-miterlimit="10" stroke-linecap="round" stroke-linejoin="round"/>
<path d="M136.66 135.52C136.74 134.76 137.09 134.02 137.7 133.57C138.31 133.12 139.17 132.99 139.85 133.34C140.88 133.87 141.18 135.25 142.13 135.92C142.53 136.2 143 136.33 143.47 136.45C145.41 136.97 147.35 137.5 149.29 138.02" stroke="#6B6B6B" stroke-width="3" stroke-miterlimit="10" stroke-linecap="round" stroke-linejoin="round"/>
<path d="M124.64 156.78C124.43 156.17 124.21 155.53 124.29 154.89C124.37 154.25 124.82 153.6 125.46 153.53C125.87 153.49 126.26 153.68 126.63 153.86C127.41 154.25 128.24 154.7 128.61 155.49C128.77 155.83 128.83 156.22 129.06 156.52C129.32 156.85 129.74 157 130.14 157.14C131.58 157.63 133.02 158.13 134.46 158.62C134.6 158.67 134.75 158.72 134.9 158.71C135.43 158.67 135.59 157.97 135.55 157.44" stroke="#6B6B6B" stroke-width="3" stroke-miterlimit="10" stroke-linecap="round" stroke-linejoin="round"/>
<path d="M140.391 158.3C140.531 159.28 140.671 160.27 140.811 161.26" stroke="#6B6B6B" stroke-width="3" stroke-miterlimit="10" stroke-linecap="round" stroke-linejoin="round"/>
<path d="M144.731 159.07C144.681 160.11 144.751 161.15 144.931 162.18" stroke="#6B6B6B" stroke-width="3" stroke-miterlimit="10" stroke-linecap="round" stroke-linejoin="round"/>
<path d="M148.9 161.47C150.4 161.09 151.92 161.78 153.42 162.18" stroke="#6B6B6B" stroke-width="3" stroke-miterlimit="10" stroke-linecap="round" stroke-linejoin="round"/>
<path d="M120.379 163.44C120.109 163.65 120.019 164.06 120.159 164.36" stroke="#6B6B6B" stroke-width="3" stroke-miterlimit="10" stroke-linecap="round" stroke-linejoin="round"/>
<path d="M125.73 164.33C125.92 163.95 126.44 163.92 126.86 163.96C127.37 164.01 127.88 164.08 128.38 164.18C128.85 164.27 129.32 164.39 129.73 164.63C130.13 164.86 130.46 165.21 130.79 165.54C131.09 165.85 131.38 166.15 131.68 166.46C131.74 166.52 131.8 166.58 131.82 166.67C131.86 166.81 131.77 166.95 131.69 167.06C131.3 167.6 130.84 168.09 130.32 168.51" stroke="#6B6B6B" stroke-width="3" stroke-miterlimit="10" stroke-linecap="round" stroke-linejoin="round"/>
<path d="M137.43 166.12C137.4 166.92 137.38 167.72 137.35 168.52" stroke="#6B6B6B" stroke-width="3" stroke-miterlimit="10" stroke-linecap="round" stroke-linejoin="round"/>
<path d="M141.36 167.19C141.27 168.18 141.29 169.17 141.42 170.15" stroke="#6B6B6B" stroke-width="3" stroke-miterlimit="10" stroke-linecap="round" stroke-linejoin="round"/>
<path d="M146.209 170.54C146.239 170.26 146.269 169.98 146.299 169.7C146.309 169.63 146.319 169.55 146.359 169.49C146.409 169.43 146.479 169.4 146.549 169.37C147.949 168.87 149.489 169.11 150.949 169.35C151.719 169.48 152.499 169.61 153.229 169.9C153.419 169.97 153.619 170.07 153.709 170.25C153.799 170.41 153.789 170.6 153.769 170.78C153.749 171.09 153.729 171.39 153.709 171.7" stroke="#6B6B6B" stroke-width="3" stroke-miterlimit="10" stroke-linecap="round" stroke-linejoin="round"/>
<path d="M55.1797 134.95C56.8197 134.01 58.8497 134.15 60.7197 134.45C63.0097 134.81 65.2797 135.35 67.4897 136.05C67.6897 136.11 67.9297 136.25 67.8897 136.45" stroke="#6B6B6B" stroke-width="3" stroke-miterlimit="10" stroke-linecap="round" stroke-linejoin="round"/>
<path d="M71.5801 136.92C71.6301 137.11 71.6801 137.3 71.7401 137.49" stroke="#6B6B6B" stroke-width="3" stroke-miterlimit="10" stroke-linecap="round" stroke-linejoin="round"/>
<path d="M75.709 138.14C76.069 138.67 76.659 139.03 77.299 139.1" stroke="#6B6B6B" stroke-width="3" stroke-miterlimit="10" stroke-linecap="round" stroke-linejoin="round"/>
<path d="M82.5391 139.35C86.0191 140.5 89.7291 140.71 93.3891 140.91C93.3291 141.24 93.269 141.58 93.209 141.91" stroke="#6B6B6B" stroke-width="3" stroke-miterlimit="10" stroke-linecap="round" stroke-linejoin="round"/>
<path d="M53.5398 140.58C53.4698 140.99 53.4598 141.41 53.5098 141.83C55.3098 142.13 57.1098 142.47 58.8998 142.86C58.6898 142.17 59.3597 141.46 60.0797 141.34C60.7997 141.22 61.5098 141.5 62.1998 141.75C63.8798 142.35 65.6297 142.77 67.3997 142.99" stroke="#6B6B6B" stroke-width="3" stroke-miterlimit="10" stroke-linecap="round" stroke-linejoin="round"/>
<path d="M72.2503 144.39C71.9003 144.5 71.9603 145.06 72.2503 145.27C72.5503 145.48 72.9403 145.46 73.3003 145.49C74.1003 145.55 74.8603 145.86 75.6203 146.12C78.0303 146.94 80.5703 147.25 83.1003 147.55C83.2503 147.3 83.3203 147.01 83.3203 146.72" stroke="#6B6B6B" stroke-width="3" stroke-miterlimit="10" stroke-linecap="round" stroke-linejoin="round"/>
<path d="M87.6607 147.37C87.6007 147.93 87.5307 148.5 87.4707 149.06" stroke="#6B6B6B" stroke-width="3" stroke-miterlimit="10" stroke-linecap="round" stroke-linejoin="round"/>
<path d="M92.02 148.23C91.85 148.82 91.68 149.41 91.5 150" stroke="#6B6B6B" stroke-width="3" stroke-miterlimit="10" stroke-linecap="round" stroke-linejoin="round"/>
<path d="M52 150.91C52.22 151 52.33 151.28 52.25 151.5" stroke="#6B6B6B" stroke-width="3" stroke-miterlimit="10" stroke-linecap="round" stroke-linejoin="round"/>
<path d="M55.8991 151.73C55.6991 152.1 55.7791 152.59 56.0791 152.88" stroke="#6B6B6B" stroke-width="3" stroke-miterlimit="10" stroke-linecap="round" stroke-linejoin="round"/>
<path d="M60.0801 152.74C60.2801 153.11 60.3801 153.54 60.3601 153.96" stroke="#6B6B6B" stroke-width="3" stroke-miterlimit="10" stroke-linecap="round" stroke-linejoin="round"/>
<path d="M66.1791 153.3C66.1391 154.02 66.1791 154.75 66.2991 155.46" stroke="#6B6B6B" stroke-width="3" stroke-miterlimit="10" stroke-linecap="round" stroke-linejoin="round"/>
<path d="M70.5391 154.87C75.9891 155.54 81.4191 156.46 86.7891 157.63" stroke="#6B6B6B" stroke-width="3" stroke-miterlimit="10" stroke-linecap="round" stroke-linejoin="round"/>
<path d="M126.349 16.16L129.119 16.69L131.749 22.62L129.419 27.14L106.419 44.01L90.9092 53.57L79.6492 56.56L78.9492 48.74L83.6092 44.29L101.609 34.65L120.679 21.14L126.349 16.16Z" fill="#FAF6F3"/>
<path d="M67.7307 46.97L70.4907 47.51V54.26L68.0807 57.44L65.6307 52.88L65.2207 48.4L67.7307 46.97Z" fill="#FAF6F3"/>
<path d="M176.709 81.29L179.119 74.36L183.809 70.37L186.479 74.36L187.309 78.85L184.689 82.05L182.009 83.04L176.709 81.29Z" fill="#FAF6F3"/>
<path d="M147.66 21.88L162.48 64.32L171.28 76.22L176.71 67.09L163.79 42.05L154.48 8.51004L147.66 2.77002H140.79L139.51 5.07004L147.23 9.30002L149.07 15.73L147.66 21.88Z" fill="#FAF6F3"/>
<path d="M134.249 6.94006H143.589L147.979 11.0901L147.429 20.9601L141.569 25.2601H134.619L130.379 19.9401L129.629 13.4101L130.849 9.51007L134.249 6.94006Z" fill="#D15F5B"/>
<path d="M74.9897 43.23H79.7498L79.6497 50.54L78.6298 60.74L74.5398 60.35L70.7598 55.04L71.6797 46.34L74.9897 43.23Z" fill="#E0C9AF"/>
<path d="M181.81 66.42L185.07 68.69L182.53 71.81L178.01 77.25L174.95 82.81L171.65 79.61L172.55 72.69L176.71 67.94L181.81 66.42Z" fill="#E0C9AF"/>
<path d="M143.99 24.3002C138.9 27.2402 132.85 24.2802 130.47 20.1602C128.09 16.0402 128.29 10.3202 133.38 7.38017C138.47 4.44017 145.52 6.40015 147.9 10.5202C150.28 14.6402 149.08 21.3602 143.99 24.3002Z" stroke="black" stroke-width="4" stroke-miterlimit="10" stroke-linecap="round" stroke-linejoin="round"/>
<path d="M147.43 20.9601C152.07 40.1301 161.67 67.2401 171.27 75.8501" stroke="black" stroke-width="4" stroke-miterlimit="10" stroke-linecap="round" stroke-linejoin="round"/>
<path d="M136.91 6.15009C140.78 -0.959908 152.64 2.50009 154.62 8.93009C156.75 15.8401 158.86 25.4901 162.95 39.0001C166.49 50.6901 172.83 62.2901 177.21 67.0901" stroke="black" stroke-width="4" stroke-miterlimit="10" stroke-linecap="round" stroke-linejoin="round"/>
<path d="M132.84 22.9301C124.77 32.2701 96.3398 56.11 80.0098 56.08" stroke="black" stroke-width="4" stroke-miterlimit="10" stroke-linecap="round" stroke-linejoin="round"/>
<path d="M80.7793 46.0501C94.3293 42.4501 121.259 21.8502 129.109 13.4102" stroke="black" stroke-width="4" stroke-miterlimit="10" stroke-linecap="round" stroke-linejoin="round"/>
<path d="M185.44 70.6701C185.91 69.0901 185.84 66.3601 182 66.1801C180.11 66.0901 177.03 67.3401 174.87 69.7801C172.58 72.3801 171.27 76.2701 171.27 79.6201C171.27 81.9601 174.89 83.7601 176.02 81.6001C177.15 79.4401 178.23 75.6901 179.5 73.6901C180.94 71.4301 183.65 69.5401 185.44 70.6701Z" stroke="black" stroke-width="3" stroke-miterlimit="10" stroke-linecap="round" stroke-linejoin="round"/>
<path d="M183.979 71.8101C186.439 73.5901 188.999 75.2801 188.209 79.1001C187.689 81.6101 182.759 85.6401 176.709 81.2901" stroke="black" stroke-width="4" stroke-miterlimit="10" stroke-linecap="round" stroke-linejoin="round"/>
<path d="M80.7791 45.1602C78.3791 49.2502 79.1391 57.8001 79.5591 59.3001C79.1091 60.0301 77.6491 60.9701 75.3691 60.4001C73.4291 59.9201 71.6791 58.2802 71.0191 56.0702C70.0291 52.7702 70.3791 48.8102 72.3591 45.2302C73.4091 43.3302 75.5191 42.1202 78.0591 42.5002C80.5891 42.8802 80.7791 45.1602 80.7791 45.1602Z" stroke="black" stroke-width="3" stroke-miterlimit="10" stroke-linecap="round" stroke-linejoin="round"/>
<path d="M70.2198 47.0601C68.0598 46.4601 65.0397 47.1201 64.1797 50.4601C63.7197 52.2501 64.1498 56.7901 70.1198 56.5501" stroke="black" stroke-width="4" stroke-miterlimit="10" stroke-linecap="round" stroke-linejoin="round"/>
<path d="M80.7793 58.9301C80.7793 58.9301 151.599 72.3201 170.379 79.2801" stroke="black" stroke-width="4" stroke-miterlimit="10" stroke-linecap="round" stroke-linejoin="round"/>
<path d="M185.64 82.5602C189.67 84.3202 199.01 87.3301 204.41 90.3401C202.1 109.92 177.7 195.79 172.17 226.45C149.96 226.45 38.8998 198.39 2.75977 184.46C6.89977 154.8 21.9598 101.26 24.9698 87.7101C27.9798 74.1601 33.6298 56.9202 37.3898 48.4102C47.7398 51.7302 60.1998 54.2101 64.0398 54.5801" stroke="black" stroke-width="4" stroke-miterlimit="10" stroke-linecap="round" stroke-linejoin="round"/>
<path d="M43.72 64.3201C43.72 64.3201 159.03 91.3001 187.31 97.1801C183.23 113.99 165.5 186.83 163.42 208.26C138.27 204.75 42.88 182.9 17.25 171.97C23.97 145.09 36.16 91.9701 43.72 64.3201Z" stroke="black" stroke-width="3" stroke-miterlimit="10" stroke-linecap="round" stroke-linejoin="round"/>
<path d="M37.3906 48.4001L50.8506 47.5101L64.7706 49.0301" stroke="black" stroke-width="4" stroke-miterlimit="10" stroke-linecap="round" stroke-linejoin="round"/>
<path d="M91.8691 53.1801C100.269 54.8101 149.299 63.9601 166.639 70.3201" stroke="black" stroke-width="4" stroke-miterlimit="10" stroke-linecap="round" stroke-linejoin="round"/>
<path d="M188.36 76.8301C203.47 80.5001 210.81 85.0201 215.61 87.9801C213.07 100.83 188.55 191.81 181.21 220.79C179.47 222.09 172.17 226.44 172.17 226.44" stroke="black" stroke-width="4" stroke-miterlimit="10" stroke-linecap="round" stroke-linejoin="round"/>
<path d="M50.6396 65.9401C43.6196 89.6201 29.3096 151.19 25.8496 167.89C35.2996 171.99 120.54 195.48 163.8 201.7" stroke="black" stroke-width="3" stroke-miterlimit="10" stroke-linecap="round" stroke-linejoin="round"/>
<path d="M50.569 127.98C50.379 132.69 45.959 153.44 45.209 156.45C52.689 158.29 64.319 161.3 69.769 162.05C75.229 162.8 85.019 166.38 91.609 167.13C93.299 158.85 97.629 143.09 99.889 136.29C91.039 135.25 66.009 130.24 50.569 127.98Z" stroke="black" stroke-width="3" stroke-miterlimit="10" stroke-linecap="round" stroke-linejoin="round"/>
<path d="M114.379 104.64C113.439 111.98 110.619 126.66 108.539 132.31C118.139 133.32 129.429 139.09 138.279 140.97C147.129 142.85 154.469 144.55 154.469 144.55C155.979 135.14 157.829 121.21 159.349 115.75C150.149 114.05 124.919 107.84 114.379 104.64Z" stroke="black" stroke-width="3" stroke-miterlimit="10" stroke-linecap="round" stroke-linejoin="round"/>
<path d="M58.8506 84.5001C58.8506 84.5001 53.3906 106.9 51.8906 113.49C65.8206 117.07 87.0906 121.21 93.3006 121.96C94.8106 114.05 98.1906 97.6801 99.8906 92.0301C91.8706 89.9601 70.5206 87.2401 58.8506 84.5001Z" stroke="black" stroke-width="3" stroke-miterlimit="10" stroke-linecap="round" stroke-linejoin="round"/>
<path d="M111.141 178.48C121.871 181.16 146.581 186.53 154.901 188.22C157.441 174.95 160.411 161.26 161.251 157.02C153.631 155.33 127.371 149.4 119.601 147.56C119.211 152.38 116.431 158.1 114.941 163.65C113.211 170.15 112.661 176.27 111.141 178.48Z" stroke="black" stroke-width="3" stroke-miterlimit="10" stroke-linecap="round" stroke-linejoin="round"/>
</svg>
