<svg width="223" height="279" viewBox="0 0 223 279" fill="none" xmlns="http://www.w3.org/2000/svg">
<path d="M48.8402 35.4401L66.8602 28.4201L88.7002 14.1301L99.4702 6.90015L118.03 2.8501L137.6 4.64014L157.34 16.9801L174.53 26.6801L195.24 32.4201L200.13 32.6001L218.91 261.51L202.96 264.48L190.77 256.2L187.4 212.03L197.84 211.08L196.61 197.82L193.22 197.06L188.7 191.91L179.1 46.4801L62.9102 53.0001L76.0902 274.83L54.8202 275.77L45.2202 265.23L35.2402 45.0001L48.8402 35.4401Z" fill="#BF996F"/>
<path d="M72.459 199.47L188.699 191.91L196.609 197.82L197.839 211.08L74.209 221.84L72.459 199.47Z" fill="#BF996F"/>
<path d="M2.83984 221.84L37.8398 144L41.7198 191.91L20.7298 233.87H8.88985L2.83984 221.84Z" fill="#BF996F"/>
<path d="M62.9102 53.0001L179.1 46.4801L188.7 191.91L72.4602 199.47L62.9102 53.0001Z" fill="#60665B"/>
<path d="M82.6797 75.1001C83.7897 74.9901 84.3297 69.3301 85.4397 69.2301C86.5497 69.1201 87.9497 72.1701 89.0597 72.0701C90.1697 71.9701 91.1997 71.1501 92.3097 71.0601C93.4197 70.9601 94.7397 73.4801 95.8397 73.3901C96.9497 73.3001 98.1297 74.3401 99.2297 74.2501C100.34 74.1601 100.82 66.0301 101.93 65.9501C103.04 65.8701 104.57 71.5801 105.68 71.5001C106.79 71.4201 107.73 69.0501 108.84 68.9701C109.95 68.9001 111.33 73.2001 112.43 73.1301C113.54 73.0601 114.26 66.6501 115.37 66.5801C116.48 66.5201 117.74 69.2401 118.85 69.1801C119.96 69.1201 121.15 70.8801 122.26 70.8301C123.37 70.7801 124.19 64.4601 125.3 64.4101C126.41 64.3601 127.59 65.8101 128.7 65.7701C129.81 65.7301 130.9 64.9401 132.01 64.9001C133.12 64.8601 134.43 70.9301 135.54 70.9001C136.65 70.8701 137.55 63.5701 138.67 63.5401C139.78 63.5101 141.07 70.7001 142.18 70.6801C143.29 70.6601 144.25 62.7201 145.36 62.7001C146.47 62.6801 147.7 69.8801 148.81 69.8601C149.92 69.8501 151.03 70.5901 152.14 70.5801C153.25 70.5701 154.32 64.7701 155.43 64.7601C156.54 64.7601 157.66 70.1301 158.77 70.1301C159.88 70.1301 161.01 62.5701 162.12 62.5701" stroke="white" stroke-width="2" stroke-miterlimit="10" stroke-linecap="round" stroke-linejoin="round"/>
<path d="M83.2891 93.1701C84.3991 93.2001 85.4791 93.9801 86.5891 93.9901C87.6991 94.0001 88.8191 95.3502 89.9291 95.3402C91.0391 95.3302 92.1291 94.3301 93.2391 94.2901C94.3491 94.2501 95.4591 94.3101 96.5691 94.2501C97.6791 94.1901 98.9291 96.1602 100.039 96.0802C101.149 96.0002 102.309 96.1001 103.419 95.9901C104.529 95.8901 105.299 92.4801 106.399 92.3601C107.509 92.2301 108.759 93.4102 109.859 93.2702C110.959 93.1202 112.189 93.8001 113.289 93.6301C114.389 93.4601 115.399 92.7202 116.499 92.5302C117.599 92.3402 118.959 93.5001 120.049 93.2901" stroke="white" stroke-width="2" stroke-miterlimit="10" stroke-linecap="round" stroke-linejoin="round"/>
<path d="M136.76 90.5701C136.85 89.9301 139.34 91.3401 139.95 91.1301C141.02 90.7501 141.94 90.1101 143.03 89.7901C144.12 89.4601 144.86 87.9801 145.97 87.7101C147.07 87.4301 148.07 86.6501 149.19 86.4201C150.3 86.1901 151.39 85.6501 152.51 85.4701C153.63 85.2901 154.93 86.2201 156.06 86.0801C157.19 85.9401 158.28 85.4201 159.41 85.3301C160.31 85.2501 161.23 86.1701 162.14 86.1801C163.06 86.1901 163.77 86.3401 164.65 86.5301C165.54 86.7201 166.66 85.9901 167.44 86.4801C168.58 87.1801 168.43 88.7501 168.82 90.0201C169.23 91.3601 170.52 92.8701 169.6 93.9301C168.89 94.7501 167.45 94.6301 166.38 94.8401C165.36 95.0401 164.27 97.0301 163.24 97.0201C162.12 97.0101 161.03 96.4701 159.91 96.4901C158.79 96.5001 157.65 95.0901 156.53 95.1201C155.41 95.1501 154.36 96.6101 153.24 96.6601C152.12 96.7201 151.01 96.5501 149.89 96.6301C148.77 96.7101 147.63 96.2801 146.51 96.3801C145.39 96.4801 144.24 96.1401 143.13 96.2601C142.02 96.3801 139.52 96.5301 138.41 96.6801C139.58 97.6901 140.46 100.2 141.58 101.27C142.48 102.14 144.39 102.81 145.62 103.02C146.72 103.21 147.92 103.81 149.04 103.88C150.15 103.96 151.44 103.99 152.55 103.95C153.67 103.92 154.73 102.13 155.83 101.98C156.94 101.84 157.93 101.17 159.01 100.92" stroke="white" stroke-width="2" stroke-miterlimit="10" stroke-linecap="round" stroke-linejoin="round"/>
<path d="M77.3594 117.41C77.9194 118.51 78.6894 119.45 79.0894 120.61C79.4994 121.76 81.1594 122.52 81.5294 123.69C81.8994 124.86 81.2794 126.33 81.7094 127.47C82.1394 128.6 83.7694 129.07 84.3794 130.13C84.9994 131.2 85.6194 131.83 86.4594 132.69C87.3094 133.57 87.3594 136.43 88.4794 136.97C89.0794 136.1 88.8494 133.4 89.6594 132.71C90.4694 132.02 92.2694 132.65 93.2294 132.19C93.7194 131.95 92.7694 130.55 93.0694 130.09C93.3494 129.65 93.2994 130.07 93.2494 129.55C93.1294 128.34 93.3394 127.34 92.9394 126.2C92.5394 125.07 92.0294 124.08 91.5094 122.98C90.9894 121.89 90.8994 120.57 90.4094 119.48C90.1294 118.87 89.6794 117.41 90.1094 116.9C90.3294 116.64 91.2394 116.92 91.5694 116.82C92.6794 116.49 94.0194 117.67 95.1694 117.52C96.3194 117.37 97.2794 117.52 98.4394 117.54C99.5994 117.57 101.079 114.55 102.219 114.75C102.699 114.84 103.569 116.01 103.899 116.38C104.229 116.75 102.039 117.97 102.079 118.46C102.159 119.62 103.839 120.67 103.869 121.84C103.899 123.01 103.149 124.2 103.189 125.37C103.229 126.54 105.309 127.57 105.419 128.72C105.529 129.89 103.599 131.33 103.829 132.47C104.059 133.61 103.889 135.06 104.309 136.16" stroke="white" stroke-width="2" stroke-miterlimit="10" stroke-linecap="round" stroke-linejoin="round"/>
<path d="M116.301 118.93C117.411 118.79 118.371 117.47 119.481 117.34C120.591 117.2 121.781 117.7 122.891 117.56C124.001 117.42 125.401 119.66 126.511 119.52C127.621 119.38 128.411 116.66 129.521 116.52C130.631 116.38 131.791 116.67 132.901 116.53C134.011 116.39 135.501 119.34 136.611 119.21C137.721 119.07 138.501 116.21 139.611 116.08C140.721 115.94 142.101 117.99 143.211 117.85C144.321 117.71 144.921 113.45 146.031 113.31C147.141 113.17 148.711 116.82 149.821 116.68C150.931 116.54 151.731 113.86 152.841 113.72C153.951 113.58 155.041 113.31 156.151 113.17C157.261 113.03 158.601 114.76 159.711 114.62" stroke="white" stroke-width="2" stroke-miterlimit="10" stroke-linecap="round" stroke-linejoin="round"/>
<path d="M118.68 131.01C119.68 130.55 121.54 132.12 122.57 131.73C123.6 131.33 124.2 129.81 125.25 129.48C126.3 129.14 127.73 130.19 128.79 129.9C129.85 129.61 130.43 127.44 131.5 127.19C132.57 126.94 133.82 127.46 134.9 127.24C135.98 127.02 137.53 129.29 138.61 129.08C139.69 128.87 140.52 127.36 141.6 127.16C142.7 126.96 143.73 126.43 144.83 126.23C145.93 126.03 147.18 126.76 148.28 126.57C149.38 126.38 150.31 125.27 151.41 125.09C152.51 124.91 153.39 123.31 154.49 123.15C155.59 122.99 156.52 121.39 157.63 121.25C158.74 121.11 160.3 124.99 161.41 124.87C162.52 124.76 163.4 122.25 164.51 122.17" stroke="white" stroke-width="2" stroke-miterlimit="10" stroke-linecap="round" stroke-linejoin="round"/>
<path d="M139.859 136.1C140.979 135.99 141.939 134.13 143.069 134.03C144.189 133.92 145.209 132.67 146.329 132.57C147.449 132.46 148.759 134.28 149.879 134.17C150.999 134.06 151.899 131.56 153.029 131.46C154.149 131.35 155.239 130.84 156.359 130.73C157.479 130.62 158.679 131.31 159.809 131.21C160.929 131.1 162.209 132.57 163.329 132.47C164.449 132.36 165.559 132.1 166.689 131.99C167.809 131.88 168.759 129.84 169.879 129.73C170.999 129.62 172.409 132.48 173.529 132.38" stroke="white" stroke-width="2" stroke-miterlimit="10" stroke-linecap="round" stroke-linejoin="round"/>
<path d="M88.75 149.37C89.89 149.38 90.99 159.45 92.13 159.45C93.27 159.46 94.43 155.89 95.57 155.89C96.71 155.89 97.84 158.11 98.98 158.11C100.12 158.12 101.29 152.73 102.43 152.73C103.57 152.73 104.68 159.22 105.83 159.22C106.97 159.23 108.13 155.37 109.27 155.38C110.41 155.39 111.58 150.05 112.72 150.06C113.89 150.07 115.03 149.54 116.2 149.54C117.37 149.54 118.51 153.04 119.68 153.02C120.85 153 122.15 157.01 123.32 156.96C124.49 156.91 125.45 153.22 126.62 153.13C127.78 153.04 129.12 154.68 130.28 154.53C131.34 154.39 132.46 154.46 133.52 154.28C134.58 154.1 134.67 148.52 135.73 148.33C136.79 148.14 139.13 155.39 140.19 155.21C141.25 155.03 141.57 149.96 142.64 149.82C143.61 149.7 144.75 150.53 145.72 150.45C146.69 150.37 147.48 146.56 148.46 146.5C149.44 146.44 150.6 149.12 151.58 149.08C152.56 149.04 153.84 155.61 154.81 155.56C155.82 155.51 156.37 145.88 157.38 145.83C158.39 145.78 159.39 146.04 160.4 145.98C161.41 145.92 162.76 151.55 163.77 151.48C164.78 151.41 165.94 153.3 166.95 153.22C167.96 153.15 168.49 146.64 169.5 146.57C170.51 146.49 171.55 147 172.56 146.91C173.57 146.82 175.48 147.8 176.49 147.71C175.75 147.89 173.57 146.8 172.83 146.98" stroke="white" stroke-width="2" stroke-miterlimit="10" stroke-linecap="round" stroke-linejoin="round"/>
<path d="M99.5298 165.96C98.6698 166.29 97.5498 166.02 96.7398 166.45C95.9298 166.87 95.4598 167.88 94.6998 168.4C93.6398 169.12 92.2898 169.66 91.8698 170.87C91.5998 171.65 91.1998 172.57 91.2698 173.39C91.3898 174.78 92.1098 176.12 92.4898 177.45C92.6998 178.18 93.4898 178.39 94.0398 178.91C94.5798 179.42 94.6698 180.89 95.3898 181.06C96.4998 181.33 97.7798 180.93 98.9098 181.1C100.04 181.27 101.14 182.12 102.28 182.2C103.42 182.28 104.6 180.7 105.75 180.68C106.08 180.67 106.94 182.05 107.2 181.85C107.4 181.69 106.9 180.75 107.01 180.52C107.62 179.11 108.75 177.93 109.37 176.53C109.72 175.72 110.01 174.71 110.02 173.83C110.04 172.23 108.3 171.56 106.72 171.32" stroke="white" stroke-width="2" stroke-miterlimit="10" stroke-linecap="round" stroke-linejoin="round"/>
<path d="M127.801 177.5C128.861 177.4 129.811 176.14 130.861 176.04C131.921 175.94 132.961 175.7 134.011 175.59C135.061 175.48 135.971 174 137.021 173.89C138.071 173.77 138.991 172.57 140.051 172.44C141.101 172.32 142.551 175.47 143.601 175.34C144.651 175.21 145.591 174.14 146.641 174C147.691 173.86 148.781 174.02 149.841 173.88C150.891 173.74 151.781 172.43 152.831 172.28C153.881 172.13 155.341 174.79 156.391 174.63C157.441 174.47 158.301 172.99 159.351 172.83C160.401 172.67 161.641 173.69 162.691 173.53C163.741 173.36 164.301 170.23 165.351 170.06" stroke="white" stroke-width="2" stroke-miterlimit="10" stroke-linecap="round" stroke-linejoin="round"/>
<path d="M188.04 211.98L190.35 255.79C190.35 255.79 195.63 261.12 202.03 265.26M202.03 265.26C205.42 264.88 220.08 262.19 220.08 262.19C217.82 228.68 203.14 46.51 200.88 32.58C187.89 33.33 169.27 25.6199 158.44 17.7999C147.61 9.97993 141.4 1.51993 118.94 2.79993C95.2502 4.14993 81.0702 16.9599 70.1502 25.9899C59.2302 35.0299 47.4702 34.1799 42.8602 38.1299L35.2402 44.9999C36.3702 70.2199 44.4602 247.35 45.2202 265.23L54.8202 275.77C68.1802 277.09 76.0902 274.83 76.0902 274.83C73.4502 210.92 62.9102 52.9999 62.9102 52.9999C62.9102 52.9999 160.91 45.9399 184.44 46.4999C188.02 93.2599 199.02 200.57 202.03 265.26Z" stroke="black" stroke-width="4" stroke-miterlimit="10" stroke-linecap="round" stroke-linejoin="round"/>
<path d="M73.3301 220.45C73.3301 220.45 172.79 213.66 198.4 211.02" stroke="black" stroke-width="4" stroke-miterlimit="10" stroke-linecap="round" stroke-linejoin="round"/>
<path d="M39.5298 139.42C31.8498 160.94 14.5098 197.92 2.83984 223.15C4.01984 226.57 8.88985 235.86 8.88985 235.86L20.7298 233.86C20.7298 233.86 37.1198 203.11 41.7198 187.64" stroke="black" stroke-width="4" stroke-miterlimit="10" stroke-linecap="round" stroke-linejoin="round"/>
<path d="M8.89062 235.87C8.89062 235.87 35.4506 178.77 40.6906 164.86" stroke="black" stroke-width="3" stroke-miterlimit="10" stroke-linecap="round" stroke-linejoin="round"/>
<path d="M54.8192 275.77C52.7892 211.02 45.3991 68.6199 42.8691 38.1199" stroke="black" stroke-width="3" stroke-miterlimit="10" stroke-linecap="round" stroke-linejoin="round"/>
<path d="M72.459 205.2C115.709 202.07 172.329 199.21 197.249 197.82" stroke="black" stroke-width="3" stroke-miterlimit="10" stroke-linecap="round" stroke-linejoin="round"/>
<path d="M72.459 200.72C72.459 200.72 170.169 193.67 189.929 193.39L195.199 197.13" stroke="black" stroke-width="3" stroke-miterlimit="10" stroke-linecap="round" stroke-linejoin="round"/>
<path d="M179.1 46.4799C179.1 46.4799 189.55 189.63 189.93 193.39" stroke="black" stroke-width="3" stroke-miterlimit="10" stroke-linecap="round" stroke-linejoin="round"/>
</svg>
