<svg width="370" height="729" viewBox="0 0 370 729" fill="none" xmlns="http://www.w3.org/2000/svg">
<path d="M156.938 6.89996L175.838 49.01L194.698 85.06L224.098 130.74L241.928 149.62L259.698 165.06L261.198 174.66L253.838 180.35L243.968 181.58L240.168 187.17L232.608 191.28L228.298 193.22L224.098 179.91L217.078 179.17L210.178 188.03L202.308 190.4L192.988 186.66L190.098 194.77L182.218 201.2L171.388 205.08H169.838L165.248 208.82L157.768 207.9L155.788 207.06L149.878 212.88L144.288 214.89L131.888 211.85L129.888 212.21L125.018 216.74L117.928 222.51L105.318 225.65L91.9781 224.56L85.6981 220.04L81.5781 209.95L83.7981 198.09L91.6281 188.77L100.518 174.73L105.038 165.06L113.018 147.55L121.628 125.17L126.568 109.5L139.768 54.73L139.168 45.75L139.908 13.71L143.408 5.03996L148.288 2.20996L154.618 4.07996L156.938 6.89996Z" fill="#DAED95"/>
<path d="M216.637 177.76L224.097 179.91L225.577 188.34L231.607 198.66L245.937 223.43L261.197 246.16L282.007 272.28L299.017 287.46L311.087 297.06L312.967 307.46L307.977 317.1L302.127 323.35L290.827 326.56L284.017 327.41L280.517 327.37L279.107 319.86L269.007 324.75L265.207 326.42L262.147 332.29L256.587 338.35L247.147 341.1L238.277 340.23L227.647 332.84L226.807 343.15L223.697 348.27L211.507 351.55L208.447 356.4L203.087 360.65H195.537L191.977 362.91L180.777 365.84L172.737 364.04L166.667 361.27L162.217 357.48L148.667 361.51L141.317 359.03L133.837 355.29L129.817 349.08L122.457 356.27L115.887 359.94L108.357 360.76L101.237 359.9L97.7174 359.96L93.3274 359.87L83.7774 353.19L80.8274 349.15L77.9374 351.08L63.1374 350.36L57.6074 346.42L53.7474 339.62V330.37L50.3274 328.04L48.3574 320.84L51.9574 312.44L56.8874 305.5L68.7574 296.56L78.2874 288.02L95.5074 269.95L104.047 259.22L112.267 241.51L115.647 231.48V223.08L131.367 210.51L138.147 214.18L149.877 212.88L157.837 207.13L163.067 207.9L169.067 203.96L175.627 203.1L187.697 198.73L192.987 187.57L200.967 189.55L210.177 188.03L214.877 183.55L216.637 177.76Z" fill="#9BD793"/>
<path d="M278.617 319.74L286.057 346.8L298.307 368.39L311.417 384.46L326.757 395.2L336.397 404.45V411.1L332.067 417.34L331.257 424.74L326.227 428.74L325.187 431.37L319.427 439.2L311.667 441.35H305.607L307.517 450.15L304.067 453.87L293.587 457.35L288.227 457.14L285.117 457.35L278.627 462.2L269.567 463.29H258.767L250.447 459.05L245.927 465.71L237.327 470.69L225.227 471.13L221.467 469L216.187 472.02L208.137 469.43L202.317 457.75L194.397 466.14L183.907 466.23L174.687 463.74L165.427 463.95L156.147 465.93L146.777 459.98L144.647 455.4L136.167 461.05L120.507 459.52L117.527 457.27L112.327 458.26L99.8867 452.33L85.9267 455L77.3467 453.22L75.2067 456.32L71.2567 457.73L58.0567 455.47L52.0067 449.08L51.1367 444.38L39.5467 441.48L32.8467 434.61L30.7467 428.52L27.6367 421.18L31.7467 412.44L45.7167 406.08L58.4267 402.13L74.0867 391.98L85.4367 375.97L91.0667 359.29L95.8367 360.35L104.867 360.38L108.407 360.81L118.857 359.29L129.867 349.13L133.887 355.34L138.197 359.29L146.497 360.81L162.267 357.53L166.717 361.32L177.587 365.15L192.027 362.96L196.927 360.81L204.837 359.36L210.287 353.62L211.567 351.59C211.567 351.59 213.877 350.88 214.297 350.88C214.717 350.88 221.917 348.31 221.917 348.31L226.967 341.82L227.707 332.89L238.337 340.28L249.587 340.73L257.497 335.79L262.207 332.34L265.257 326.47L271.187 324.35L278.617 319.74Z" fill="#5BC092"/>
<path d="M77.1283 454.18L79.6983 452.63L92.5983 454.18L100.638 452.63L105.738 456.75L112.548 458.7L116.828 457.9L126.848 461.86L140.308 459.88L145.348 455.08L149.818 463.78L159.938 465.88L167.508 463.5L175.318 463.31L184.268 467.41L194.238 465.62L202.668 459.31L208.548 469.24L216.118 471.36L221.388 469.71L232.208 470.87L241.108 468.91L248.968 463.47L251.228 459.64L260.778 462.61L276.358 461.24L286.008 455.88L290.478 457.13L301.568 455.67L305.158 451.74L306.978 447.71L306.098 441.34L311.788 442L313.508 441.89L326.848 467L340.068 483.67L358.588 503.5L367.348 515.67L367.998 526.25L364.448 536.56L355.418 547.01L346.118 550.11L336.928 550.81L326.408 549.97L323.658 556.4L315.078 565.62L303.908 569.53L291.358 569.76L277.698 566.49L269.368 560.56L266.898 571.15L264.378 576.05L255.388 579.83L243.878 579.2L234.848 573.05L229.278 583.44L223.138 588.3L208.308 596L192.838 597.62L185.688 595.13L179.368 588.8L178.448 578.56L171.358 585.46L167.418 588.25L154.238 591.11L142.978 588.94L137.588 584.49L134.468 584.74L128.908 581.91L119.718 586.16L114.878 586.11L106.978 583.59L99.1783 575.24L97.4983 565.01V553.78L90.4683 558.74L75.1883 563.2L60.6383 562.33L55.0983 557.1L50.8983 556.68L41.9983 549.91L38.5083 543.22L35.2283 543.84L27.0483 548.11L13.4883 548.02L4.31828 542.6L2.48828 534.32L6.27828 526.18L19.4183 517.71L34.6683 508.11L52.3083 491.74L70.4083 472.02L75.6083 459.41L77.1283 454.18Z" fill="#1CAA90"/>
<path d="M142.179 588.28L155.509 591.78L166.239 590.03L178.569 579.81L184.819 594.25L194.669 598.47L211.039 595.17L210.189 634.79L211.039 671.03L214.339 687.22L219.709 695.72L218.099 706.89L215.149 720.29L210.569 724.68L197.679 724.21L190.019 720.35L181.079 722.8L171.649 721.9L162.669 718.16L154.379 724.68L147.469 726.26L141.769 723.64L136.919 720L134.899 716.68H131.229L123.599 714.07L118.999 706.89L113.629 709.52L109.109 708.11L102.459 703.97L103.749 694.75L105.629 692.03L98.3789 691.36V685.9L100.739 682.32L119.179 672.25L130.379 656.44L140.549 632.16L141.109 617.95L143.469 593.67L142.179 588.28Z" fill="#875137"/>
<path d="M238.451 176.7C247.701 183.76 258.171 180.66 260.611 173.66C263.291 165.97 256.161 160.25 251.221 156.86C246.281 153.47 236.401 145.85 226.231 133.42C216.071 121 203.641 100.38 195.881 87.11C188.121 73.84 175.411 48.57 171.741 40.38C168.071 32.19 162.001 18.85 160.401 14.36C157.101 5.10002 153.601 1.68002 148.821 2.12002C143.501 2.61002 139.971 7.77002 139.971 18.59C139.971 21.68 139.871 41.68 138.461 53.7C136.011 74.59 128.671 100.19 124.151 115.63C119.631 131.07 107.401 162.5 99.8711 175.87C92.3411 189.23 87.5211 193.92 84.5511 198.22C81.5811 202.52 79.1111 212.34 85.8911 219.61C92.6711 226.88 108.551 226.67 115.541 223.7C122.531 220.74 128.391 213.04 129.661 210.92" stroke="black" stroke-width="4" stroke-miterlimit="10" stroke-linecap="round" stroke-linejoin="round"/>
<path d="M238.811 172.89C238.591 175.44 236.101 178.53 231.751 179.81C227.901 180.94 221.441 180.37 217.791 177.48" stroke="black" stroke-width="4" stroke-miterlimit="10" stroke-linecap="round" stroke-linejoin="round"/>
<path d="M209.58 160.11C212.76 162.79 221.45 174.54 214.38 184.11C207.18 193.85 195.74 188.98 192.99 185.8" stroke="black" stroke-width="4" stroke-miterlimit="10" stroke-linecap="round" stroke-linejoin="round"/>
<path d="M192.43 180.87C192.71 183.34 192.99 192.92 186.57 198.23C180.66 203.12 174.78 204.3 169.42 203.88" stroke="black" stroke-width="4" stroke-miterlimit="10" stroke-linecap="round" stroke-linejoin="round"/>
<path d="M157.34 205.63C158.13 207.16 160.63 208.19 163.16 207.83C166.48 207.36 168.75 205.29 169.42 203.1" stroke="black" stroke-width="4" stroke-miterlimit="10" stroke-linecap="round" stroke-linejoin="round"/>
<path d="M131.651 184.82C125.301 190.54 124.101 201.71 127.461 207.14C130.811 212.56 136.101 214.75 142.171 214.39C149.781 213.95 154.591 211.57 157.331 205.62" stroke="black" stroke-width="4" stroke-miterlimit="10" stroke-linecap="round" stroke-linejoin="round"/>
<path d="M224.131 180.06C223.741 185.76 226.851 191.72 229.341 196.11C249.811 232.25 267.031 253.24 276.821 264.91C286.611 276.58 295.641 284.11 302.421 289.19C309.201 294.27 314.281 300.67 312.961 307.45C311.641 314.23 305.241 329.47 281.151 327.21" stroke="black" stroke-width="4" stroke-miterlimit="10" stroke-linecap="round" stroke-linejoin="round"/>
<path d="M264.591 323.83C265.341 328.54 261.011 338.7 247.571 341.04C233.661 343.46 226.261 329.9 224.101 325.9C219.341 317.1 216.361 308.06 217.061 300.44" stroke="black" stroke-width="4" stroke-miterlimit="10" stroke-linecap="round" stroke-linejoin="round"/>
<path d="M264.68 325.43C265.81 325.54 269.92 325.12 274.01 322.32C282.46 316.55 287.68 311.81 294.15 308.67C297.85 306.88 302.21 306.18 303.37 306.69" stroke="black" stroke-width="4" stroke-miterlimit="10" stroke-linecap="round" stroke-linejoin="round"/>
<path d="M244.49 179.91C243.6 183.79 239.03 192.01 227.1 191.9" stroke="black" stroke-width="4" stroke-miterlimit="10" stroke-linecap="round" stroke-linejoin="round"/>
<path d="M134.901 255.88C134.121 257.84 134.481 263.69 127.371 279.22C124.391 285.73 116.641 298.33 115.321 306.23C114.611 310.49 114.501 317.17 118.051 322.23C122.611 328.75 129.051 329.95 132.791 328.86" stroke="black" stroke-width="4" stroke-miterlimit="10" stroke-linecap="round" stroke-linejoin="round"/>
<path d="M135.94 322.8C135.75 324.59 129.07 333.62 129.07 338.8C129.07 343.98 128.41 351.6 137.26 357.53C146.11 363.46 157.31 360.07 162.86 356.59" stroke="black" stroke-width="4" stroke-miterlimit="10" stroke-linecap="round" stroke-linejoin="round"/>
<path d="M163.51 330.7C163.89 334.56 156.64 350.65 165.2 359.88C173.9 369.25 191.27 366.28 195.22 359.88C202.37 362.61 211.01 357.9 211.5 348.18" stroke="black" stroke-width="4" stroke-miterlimit="10" stroke-linecap="round" stroke-linejoin="round"/>
<path d="M211.02 350.65C213.71 351.55 220.05 351.59 223.65 347.64C227.26 343.7 228.13 335.77 227.42 331.54" stroke="black" stroke-width="4" stroke-miterlimit="10" stroke-linecap="round" stroke-linejoin="round"/>
<path d="M115.56 223.71C116.55 231.83 109.32 252.46 102.85 261.9C94.2402 274.46 81.1102 287.17 70.2402 295.08C59.3702 302.99 51.4602 308.77 48.6002 317.17C46.3402 323.78 48.4202 328.92 54.9102 329.95" stroke="black" stroke-width="4" stroke-miterlimit="10" stroke-linecap="round" stroke-linejoin="round"/>
<path d="M80.8313 302.56C78.9913 306.23 69.3913 314.28 65.0213 318.09C60.6513 321.9 52.1713 327.97 54.0113 339.13C55.8513 350.29 70.5313 355.65 80.1313 349.44" stroke="black" stroke-width="4" stroke-miterlimit="10" stroke-linecap="round" stroke-linejoin="round"/>
<path d="M80.2296 340.64C79.4496 345.42 82.6396 354.14 88.3596 357.9C91.9696 360.27 96.5196 360.68 100.45 359.31C102.67 361.32 107.98 362.28 113.44 360.76C120.48 358.8 127.81 353.29 129.53 346.63" stroke="black" stroke-width="4" stroke-miterlimit="10" stroke-linecap="round" stroke-linejoin="round"/>
<path d="M91.0195 359.24C89.8595 366.66 83.7895 383.88 72.9195 392.91C62.0495 401.95 53.4395 405.05 46.6595 406.32C39.8795 407.59 31.4095 409.71 28.8695 416.77C27.0995 421.7 28.7295 425.66 31.6895 428.21C30.4195 437.25 41.5695 445.43 51.1695 443.88C49.1895 452.07 64.8595 463.64 77.0095 456.44" stroke="black" stroke-width="4" stroke-miterlimit="10" stroke-linecap="round" stroke-linejoin="round"/>
<path d="M62.6195 421.15C60.2195 423.41 53.2095 430.78 56.6895 438.94C59.5795 445.72 66.2395 446.94 70.4495 446.21" stroke="black" stroke-width="4" stroke-miterlimit="10" stroke-linecap="round" stroke-linejoin="round"/>
<path d="M70.4505 439.93C69.9605 444.02 73.3405 451.79 82.1005 453.62C90.8605 455.45 96.6405 455.17 100.17 452.07" stroke="black" stroke-width="4" stroke-miterlimit="10" stroke-linecap="round" stroke-linejoin="round"/>
<path d="M107.51 420.44C106.8 428.49 101.47 433.64 100.17 442.04C98.9298 450.02 101.58 454.75 106.24 457C110.9 459.25 115.13 457.99 117.25 457C121.49 461.24 127.13 462.36 133.2 461.66C139.27 460.95 144.07 456.86 146.05 453.33" stroke="black" stroke-width="4" stroke-miterlimit="10" stroke-linecap="round" stroke-linejoin="round"/>
<path d="M151.56 439.41C148.55 442.7 145.32 452.38 146.76 458.71C148.17 464.92 158.62 468.87 164.92 463.6C167.93 466.06 172.07 464.54 174.99 462.56C177.25 467.16 188.83 468.49 195.04 465.1C200.73 462 203.91 456.54 203.91 451.17" stroke="black" stroke-width="4" stroke-miterlimit="10" stroke-linecap="round" stroke-linejoin="round"/>
<path d="M202.67 423.88C203.42 424.73 204.08 432.43 203.99 436.02C203.85 441.57 203.88 454.17 204.05 460.11C204.37 471.87 217.83 473.85 221.12 468.77C224.25 470.99 232.8 472.69 239.76 469.9C245.79 467.48 250.46 461.07 251.24 456.35" stroke="black" stroke-width="4" stroke-miterlimit="10" stroke-linecap="round" stroke-linejoin="round"/>
<path d="M250.9 457.71C253.67 462.75 263.55 464.44 272.03 462.94C280.51 461.44 286.52 457.48 288.22 450.8" stroke="black" stroke-width="4" stroke-miterlimit="10" stroke-linecap="round" stroke-linejoin="round"/>
<path d="M285.811 455.76C291.891 458.13 298.951 457.84 303.041 454.75C308.261 450.8 307.421 443.17 304.731 440.07C312.071 443.03 323.081 439.93 324.921 433.01C326.761 426.09 318.851 418.19 316.451 417.34" stroke="black" stroke-width="4" stroke-miterlimit="10" stroke-linecap="round" stroke-linejoin="round"/>
<path d="M324.96 428.73C331.56 426.93 332.99 421.53 331.56 417.33C329.3 410.69 309.11 401.52 308.27 396.86" stroke="black" stroke-width="4" stroke-miterlimit="10" stroke-linecap="round" stroke-linejoin="round"/>
<path d="M331.561 417.34C337.071 415.65 338.201 409.34 336.781 405.34C334.241 398.14 317.391 389.98 309.391 382.75C302.051 376.11 292.901 360.21 287.791 348.27C281.991 334.73 279.101 324.58 279.561 318.37" stroke="black" stroke-width="4" stroke-miterlimit="10" stroke-linecap="round" stroke-linejoin="round"/>
<path d="M77.4904 451.89C77.3004 455.6 73.3904 466.52 70.4504 470.66C67.5104 474.8 44.3604 501.91 32.5004 509.81C20.6404 517.72 6.29041 522.38 3.51041 530.52C0.970405 537.96 2.76041 545.77 13.4904 548.03C24.2204 550.29 32.6904 547.84 37.7704 541.07" stroke="black" stroke-width="4" stroke-miterlimit="10" stroke-linecap="round" stroke-linejoin="round"/>
<path d="M60.7402 505.29C57.5402 510.61 52.8302 513.01 48.3202 518.28C43.8002 523.55 38.9102 529.67 38.0602 538.33C37.6402 542.66 39.6002 547.57 42.9702 550.99C46.3402 554.41 51.1002 556.35 54.4402 556.21C58.6802 562.61 69.7902 564.3 77.5002 562.89C85.2102 561.48 92.8902 560.3 98.8202 549.22" stroke="black" stroke-width="4" stroke-miterlimit="10" stroke-linecap="round" stroke-linejoin="round"/>
<path d="M104.831 532.68C96.5712 547.08 94.0312 572.21 103.841 581.24C112.091 588.83 123.351 586.6 127.871 581.52" stroke="black" stroke-width="4" stroke-miterlimit="10" stroke-linecap="round" stroke-linejoin="round"/>
<path d="M313.18 441.05C331.98 490.04 372.64 503.59 367.56 526.47C362.48 549.34 344.67 554.27 325.2 548.84C325.2 572.49 285.92 577.03 269.56 559.37C272.69 583.22 243.04 587.49 233.72 570.11C233.72 585.15 221.299 592.26 203.509 596.77C185.719 601.28 174.99 590.56 179.79 572.49C177.34 578.17 173.01 588.02 161.15 590.56C150.79 592.78 139.68 588.18 138 584.35C135.18 585.48 124.919 585.15 128.679 573.53" stroke="black" stroke-width="4" stroke-miterlimit="10" stroke-linecap="round" stroke-linejoin="round"/>
<path d="M142.71 588.28C143.51 598.25 142.52 623.5 139.51 633.57C136.5 643.64 130 659.45 123.04 667.45C116.08 675.45 109.14 678.05 105.44 679.59C102.05 681 96.78 682.98 98 688.15C99.22 693.32 106.75 691.82 106.75 691.82" stroke="black" stroke-width="4" stroke-miterlimit="10" stroke-linecap="round" stroke-linejoin="round"/>
<path d="M128.501 675.45C126.711 677.61 121.061 683.73 116.921 686.46C112.781 689.19 103.641 692.45 102.611 698.79C101.931 703 103.371 706.98 107.891 708.3C111.441 709.34 115.661 708.33 119.711 705.32" stroke="black" stroke-width="4" stroke-miterlimit="10" stroke-linecap="round" stroke-linejoin="round"/>
<path d="M121.91 699.55C119.58 701.74 118.1 708.76 122.76 713.31C127.34 717.78 133.28 716.91 136.03 715.71" stroke="black" stroke-width="4" stroke-miterlimit="10" stroke-linecap="round" stroke-linejoin="round"/>
<path d="M139.041 709.29C137.161 710.65 134.661 715.36 136.731 719.64C138.801 723.92 146.071 726.87 150.141 726.32C157.481 725.33 161.431 720.63 163.501 716.68C168.581 723.08 181.381 725.34 188.721 719.88C201.331 724.59 215.071 727.6 216.201 716.68C217.331 705.76 224.671 700.11 216.201 689.38C207.731 678.65 209.971 621.66 211.961 594.25" stroke="black" stroke-width="4" stroke-miterlimit="10" stroke-linecap="round" stroke-linejoin="round"/>
<path d="M153.161 605.24C152.971 609.38 151.751 619.64 150.711 622.56" stroke="black" stroke-width="4" stroke-miterlimit="10" stroke-linecap="round" stroke-linejoin="round"/>
<path d="M149.171 630.47C148.731 631.95 147.841 634.99 147.471 636.4" stroke="black" stroke-width="4" stroke-miterlimit="10" stroke-linecap="round" stroke-linejoin="round"/>
</svg>
