<svg width="651" height="252" viewBox="0 0 651 252" fill="none" xmlns="http://www.w3.org/2000/svg">
<path d="M567.318 158.42L582.808 165.84L609.918 168.1L634.098 166.71L625.438 173.63L598.058 176.13L583.968 171.74L573.488 164.25L567.318 158.42Z" fill="#DEB887"/>
<path d="M148.17 40.3001L194.91 28.9001L241.98 20.7001L313.82 12.6501L375.84 10.5701L434.44 13.8901L475.05 20.0501L502.5 27.0301L511.94 35.4301L527.8 64.2101L542.09 109.41L554.6 147.69L538.36 129.59L514.15 106.19L494.21 92.1501L469.8 79.6701L442.53 70.4501L420.77 67.0301L388.08 67.4501L339.35 75.1401L313.82 81.6201L289.63 92.9601L263.12 111.24L241.98 133.86L224.35 157.7L207.75 177.88V168.4L194.91 169.16L182.19 159.87L171.64 147.01L165.02 128.71L159.88 97.1701L154.39 61.8801L145.09 41.3401L148.17 40.3001Z" fill="#537CE6"/>
<path d="M159.649 202.33L184.389 201.82L195.319 199.27L206.179 177.88L215.839 169.53L229.839 150.28L257.249 115.69L285.489 94.2302L308.829 82.1302L339.349 75.1402L384.309 67.4502L430.049 67.0302L464.099 77.7401L500.639 95.5501L531.629 122.46L552.069 144.87L573.489 164.25L583.969 171.74L604.169 176.03L625.439 173.63L646.879 162.76L648.199 188.35L646.329 206.79L623.279 213.97L583.789 215.11L561.019 209.74L548.609 206.98L528.509 196.22L521.439 189.48L505.059 174.8L483.889 150.04L464.499 132.91L449.539 122.46L430.989 114.75L405.209 114.66L389.209 118.04L362.289 125.1L339.979 134.33L321.559 146.92L295.019 170.49L278.239 187.03L261.969 210.43L242.649 230.82L228.479 240.73L209.909 247.55L193.439 249.81H168.689L145.989 244.82L129.159 238.02L126.529 236.77L121.959 220.74L118.879 195.92L131.309 196.62L142.429 200.63L151.749 202.89L159.649 202.33Z" fill="#DEB887"/>
<path d="M103.039 12.8201L125.589 20.72L143.179 37.3201L153.629 57.06L161.909 111.55L167.699 139.41L175.559 155.03L197.019 168.73L207.749 168.4L203.979 186.51L195.319 199.27L166.899 202.84L144.309 201.34L123.229 192.87L114.219 179.7L105.349 152.21L100.299 116.34L93.1292 87.0101L80.4692 61.03L70.5492 53.21L62.1192 48.58L52.7692 48.7901L40.2992 55.53L35.3692 64.3801L33.6492 80.11L37.8092 107.52L39.8792 130.95L39.2792 152.4L35.6992 171.03L27.2692 183.12L21.7692 188.35L11.3892 183.34L2.94922 172.91L14.8092 162.75L18.1592 153.55L19.4892 134.34L17.4892 107.83L13.2992 76.91L12.8892 62.2901L17.5092 46.55L32.4492 28.8501L52.9192 18.05L77.1092 11.54L103.039 12.8201Z" fill="#DEB887"/>
<path d="M498.76 24.5801L506.08 4.82013L520.41 3.12012L547.37 5.37012L565.75 15.6901L577.44 40.3001L587.61 67.0301L590.43 93.2901L597.96 111.14L610.53 127.93L622.62 134.89L641.25 136.58L634.1 168.04H604.17L586.66 166.71L567.32 158.42L553.13 143.19L542.89 107.6L531.31 73.3301L519.65 48.3001L506.85 29.2901L498.76 24.5801Z" fill="#DEB887"/>
<path d="M70.5493 53.2101L63.5493 65.0201L58.9593 82.7401V101.2L62.1193 138.47L61.4293 165.91L56.0793 181.56L47.7493 186.51L23.2793 188.35L31.1093 177.88L38.5193 159.93L40.2193 140.35L38.4993 115.31L32.9193 75.2901L36.2693 60.5401L46.4293 50.7901L56.3993 48.7101L65.3293 50.3401L70.5493 53.2101Z" fill="#B8905C"/>
<path d="M57.9799 179.94L118.88 195.92L119.28 212.91L124.7 230.34L99.4199 224.4L68.1499 216.76L36.0799 205.76L32.9199 186.94L44.4499 185.9L54.3899 183.27L57.9799 179.94Z" fill="#C79760"/>
<path d="M61.6191 136.3L84.4792 137.07L102.979 135.37L107.979 165.76L74.4591 168.73L61.6191 168.78V136.3Z" fill="#C79760"/>
<path d="M70.5486 53.2101L78.8087 59.7201L88.1687 76.8401L100.299 116.34L102.979 135.37L83.0287 137.26L62.1187 138.47L60.1387 115.13L58.6387 94.2301L60.9787 72.7501L65.6287 60.9101L70.5486 53.2101Z" fill="#303E63"/>
<path d="M191.28 104.82L184.65 105.83L178.52 111.13L180.79 127.41L184.08 137.81L197.72 138.11L206.22 135.69L209.96 128.63L207.09 116.68L230.05 63.4601L205.24 66.3801L191.28 104.82Z" fill="#E0C9AF"/>
<path d="M495.898 93.5001L494.568 84.4401L497.958 81.55L505.308 80.2101L514.428 42.2801L535.008 41.8201L523.608 75.7401L519.328 93.8101L518.908 101.58L517.158 106.04L513.718 106.8L495.898 93.5001Z" fill="#E0C9AF"/>
<path d="M195.319 168.4C185.909 162.38 177.399 158.92 171.039 145.81C161.439 126.05 159.929 96.4898 158.429 81.8098C156.929 67.1298 149.389 34.3698 126.429 21.1998C96.4892 4.0198 58.2892 12.3198 36.3192 26.1798C21.8292 35.3198 9.39919 52.3798 13.2992 76.9198C15.9392 93.4798 22.5192 139.41 18.0092 154.1C13.4892 168.78 2.94922 172.92 2.94922 172.92C11.2292 187.6 21.7692 188.36 21.7692 188.36C33.8192 188.36 47.3692 186.1 54.1492 183.47C60.5492 178.76 62.6192 163.71 62.2392 149.02C61.6592 126.24 57.9092 105.16 58.2892 90.8598C58.6692 76.5498 63.5592 60.3698 71.0892 52.6498C84.4492 59.1398 94.4292 86.3398 98.9492 108.93C103.469 131.52 104.219 156.74 112.879 176.88C121.539 197.02 139.729 200.62 153.729 203.23C168.599 204.36 189.119 201.91 195.329 199.28C202.109 192.13 207.749 176.5 207.749 168.41C200.219 168.41 175.189 170.67 163.329 174.06C163.329 184.98 159.189 195.71 151.909 202.89" stroke="black" stroke-width="4" stroke-miterlimit="10" stroke-linecap="round" stroke-linejoin="round"/>
<path d="M32.9199 28.4998C57.3399 17.6198 81.8299 24.9798 97.2499 35.0298C112.12 44.7198 127.46 75.4098 130.85 100.82C134.24 126.23 135.37 168.49 163.32 174.04" stroke="black" stroke-width="3" stroke-miterlimit="10" stroke-linecap="round" stroke-linejoin="round"/>
<path d="M71.0895 52.6299C60.3595 47.7399 53.5795 47.7399 47.7495 50.1799C36.0795 55.0699 31.2295 69.3799 34.5695 87.4499C36.5895 98.3799 41.9695 128.01 39.2795 152.39C37.5195 168.31 31.4395 180.91 21.7695 188.34" stroke="black" stroke-width="3" stroke-miterlimit="10" stroke-linecap="round" stroke-linejoin="round"/>
<path d="M132.839 197.36C124.239 195.22 118.999 194.98 118.999 194.98C118.009 209.1 123.939 228.49 126.059 236.53C134.669 240.77 155.139 249.61 167.709 249.19C161.639 240.3 157.549 224.05 158.249 203.45" stroke="black" stroke-width="4" stroke-miterlimit="10" stroke-linecap="round" stroke-linejoin="round"/>
<path d="M646.329 161.43C650.659 170.28 647.839 193.99 646.329 206.79C641.439 211.12 615.079 219.03 575.179 213.76C529.389 207.71 509.289 179.57 497.999 165.38C484.819 148.82 460.349 126.23 433.619 114.74C405.379 111.35 376.019 118.69 349.669 129.23C323.319 139.77 279.269 183.82 268.729 200.76C258.189 217.7 239.369 236.15 226.189 241.8C213.009 247.45 202.099 248.58 167.699 249.19" stroke="black" stroke-width="4" stroke-miterlimit="10" stroke-linecap="round" stroke-linejoin="round"/>
<path d="M206.18 177.88C216.69 173.1 234.99 138.46 256.64 117.19C273.37 100.75 294 89.4199 313.82 81.6099C332.13 74.3999 386.28 67.7599 396 67.3299C416.23 66.4399 434.97 67.1199 455 73.9899C484.65 84.1499 509.49 99.4 530.39 121.14C551.28 142.88 555.52 149.94 564.27 157.28" stroke="black" stroke-width="4" stroke-miterlimit="10" stroke-linecap="round" stroke-linejoin="round"/>
<path d="M564.26 157.29C579.22 171.97 589.67 175.76 606.8 176.11C627.13 176.53 640.4 167.45 646.33 161.43" stroke="black" stroke-width="4" stroke-miterlimit="10" stroke-linecap="round" stroke-linejoin="round"/>
<path d="M433.629 114.75C462.899 117.76 485.209 126.51 506.949 148.54C528.689 170.56 546.009 206.14 575.189 213.76" stroke="black" stroke-width="4" stroke-miterlimit="10" stroke-linecap="round" stroke-linejoin="round"/>
<path d="M165.02 203.46C183.09 209.24 206.81 208.39 222.9 193.71C238.99 179.03 266.1 136.02 292.92 114.75C319.74 93.4799 356.17 70.7899 401.91 67.0299" stroke="black" stroke-width="4" stroke-miterlimit="10" stroke-linecap="round" stroke-linejoin="round"/>
<path d="M145.09 40.2999C145.09 40.2999 344.74 -15.2601 498.76 25.5099" stroke="black" stroke-width="4" stroke-miterlimit="10" stroke-linecap="round" stroke-linejoin="round"/>
<path d="M527.5 63.48C531.95 74.2 535.44 85.18 537.66 93.5C543.56 115.69 551.47 141.67 557.68 148.07C563.89 154.47 573.3 162.77 588.36 166.71C590.81 153.34 590.43 134.89 590.43 134.89C607.75 134.7 631.47 133.2 641.25 135.45C639.56 149.76 638.19 160.15 634.1 166.7C622.43 169.7 588.36 166.7 588.36 166.7" stroke="black" stroke-width="4" stroke-miterlimit="10" stroke-linecap="round" stroke-linejoin="round"/>
<path d="M623.28 134.23C599 128.78 590.81 95.4599 587.99 75.9799C585.17 56.4999 573.31 22.5799 564.27 14.1099C552.16 2.75991 531.309 2.1299 510.719 3.4199C501.679 3.9799 499.8 21.0099 498.77 25.5299" stroke="black" stroke-width="4" stroke-miterlimit="10" stroke-linecap="round" stroke-linejoin="round"/>
<path d="M508.43 3.94981C519.93 -1.16019 535.2 18.5398 544.21 30.2398C559.94 50.6598 564.16 87.3398 565.95 96.8598C568.77 111.84 573.39 132.82 590.42 134.9" stroke="black" stroke-width="3" stroke-miterlimit="10" stroke-linecap="round" stroke-linejoin="round"/>
<path d="M194.889 138.83C197.129 148.77 199.039 158.87 200.249 168.74" stroke="black" stroke-width="3" stroke-miterlimit="10" stroke-linecap="round" stroke-linejoin="round"/>
<path d="M149.148 39.22C171.228 42.65 180.038 81.94 184.078 96.86C184.868 99.79 185.698 102.81 186.528 105.9" stroke="black" stroke-width="3" stroke-miterlimit="10" stroke-linecap="round" stroke-linejoin="round"/>
<path d="M214.039 100.81C219.519 117.79 225.029 137.57 227.129 153.86" stroke="black" stroke-width="3" stroke-miterlimit="10" stroke-linecap="round" stroke-linejoin="round"/>
<path d="M201.719 66.1199C202.229 67.4299 202.859 69.0799 203.589 71.0199" stroke="black" stroke-width="3" stroke-miterlimit="10" stroke-linecap="round" stroke-linejoin="round"/>
<path d="M232.379 63.46C239.189 75.22 250.059 106.82 251.589 122.46" stroke="black" stroke-width="3" stroke-miterlimit="10" stroke-linecap="round" stroke-linejoin="round"/>
<path d="M258.77 60.2799C264.6 71.2599 271.899 96.9699 272.299 103.98" stroke="black" stroke-width="3" stroke-miterlimit="10" stroke-linecap="round" stroke-linejoin="round"/>
<path d="M283.469 57.6799C287.559 65.9999 292.819 82.7899 294.239 90.4899" stroke="black" stroke-width="3" stroke-miterlimit="10" stroke-linecap="round" stroke-linejoin="round"/>
<path d="M306.059 55.3999C310.339 63.5499 313.349 76.1599 313.819 81.6199" stroke="black" stroke-width="3" stroke-miterlimit="10" stroke-linecap="round" stroke-linejoin="round"/>
<path d="M326.709 53.5399C330.519 59.3199 334.269 67.7199 334.819 76.0399" stroke="black" stroke-width="3" stroke-miterlimit="10" stroke-linecap="round" stroke-linejoin="round"/>
<path d="M511.299 54.36C506.099 42.84 499.409 30.67 492.109 25.52" stroke="black" stroke-width="3" stroke-miterlimit="10" stroke-linecap="round" stroke-linejoin="round"/>
<path d="M530.379 121.15C527.469 110.27 525.539 95.53 521.309 80.73" stroke="black" stroke-width="3" stroke-miterlimit="10" stroke-linecap="round" stroke-linejoin="round"/>
<path d="M347.6 52.2C350.53 57.38 354.03 66.7999 354.66 72.5099" stroke="black" stroke-width="3" stroke-miterlimit="10" stroke-linecap="round" stroke-linejoin="round"/>
<path d="M365.539 50.3199C368.349 55.2899 371.709 64.3199 372.309 69.7899" stroke="black" stroke-width="3" stroke-miterlimit="10" stroke-linecap="round" stroke-linejoin="round"/>
<path d="M381.949 47.1199C384.879 52.3099 388.389 61.7399 389.019 67.4499" stroke="black" stroke-width="3" stroke-miterlimit="10" stroke-linecap="round" stroke-linejoin="round"/>
<path d="M398.898 47.1199C403.308 51.1199 407.098 59.8499 407.728 65.5599" stroke="black" stroke-width="3" stroke-miterlimit="10" stroke-linecap="round" stroke-linejoin="round"/>
<path d="M415.369 46.3199C421.959 50.3299 425.549 59.8599 426.169 65.5699" stroke="black" stroke-width="3" stroke-miterlimit="10" stroke-linecap="round" stroke-linejoin="round"/>
<path d="M478.139 43.24C485.359 48.22 494.479 59.23 501.209 80.96" stroke="black" stroke-width="3" stroke-miterlimit="10" stroke-linecap="round" stroke-linejoin="round"/>
<path d="M456.969 44.97C465.819 52.2 476.719 71.17 478.139 83.45" stroke="black" stroke-width="3" stroke-miterlimit="10" stroke-linecap="round" stroke-linejoin="round"/>
<path d="M437.559 44.8899C444.759 49.6699 448.939 60.4999 451.609 72.8899" stroke="black" stroke-width="3" stroke-miterlimit="10" stroke-linecap="round" stroke-linejoin="round"/>
<path d="M42.2188 186.51C72.1187 196.82 101.209 201.96 119.279 205.32" stroke="black" stroke-width="3" stroke-miterlimit="10" stroke-linecap="round" stroke-linejoin="round"/>
<path d="M57.3496 179.7C71.5596 185.24 105.15 192.6 118.99 194.98" stroke="black" stroke-width="4" stroke-miterlimit="10" stroke-linecap="round" stroke-linejoin="round"/>
<path d="M32.9199 187.34C32.9199 187.34 33.1599 196.03 36.8299 205.32C57.3499 214.61 104.06 228.28 124.37 230.34" stroke="black" stroke-width="4" stroke-miterlimit="10" stroke-linecap="round" stroke-linejoin="round"/>
<path d="M58.6387 85.4199C70.8987 87.4599 93.1287 87.0199 93.1287 87.0199" stroke="black" stroke-width="3" stroke-miterlimit="10" stroke-linecap="round" stroke-linejoin="round"/>
<path d="M58.6387 114.94C58.6387 114.94 86.0087 115.79 98.1287 114.94" stroke="black" stroke-width="3" stroke-miterlimit="10" stroke-linecap="round" stroke-linejoin="round"/>
<path d="M61.9883 143.69C75.0983 143.82 94.7783 143.35 104.068 141.92" stroke="black" stroke-width="3" stroke-miterlimit="10" stroke-linecap="round" stroke-linejoin="round"/>
<path d="M60.3398 75.2899C60.3398 75.2899 76.8098 76.0199 88.5898 75.2899" stroke="black" stroke-width="3" stroke-miterlimit="10" stroke-linecap="round" stroke-linejoin="round"/>
<path d="M58.8496 105.25C58.8496 105.25 89.9096 106.58 97.5296 105.25" stroke="black" stroke-width="3" stroke-miterlimit="10" stroke-linecap="round" stroke-linejoin="round"/>
<path d="M62.1191 136.91C72.3991 137.71 96.3392 137.12 103.099 135.35" stroke="black" stroke-width="3" stroke-miterlimit="10" stroke-linecap="round" stroke-linejoin="round"/>
<path d="M60.9785 168.73C78.7085 170.09 107.988 165.76 107.988 165.76" stroke="black" stroke-width="4" stroke-miterlimit="10" stroke-linecap="round" stroke-linejoin="round"/>
<path d="M230.049 64.22L203.979 123.78H191.939L189.859 111.55L204.919 67.08" stroke="black" stroke-width="4" stroke-miterlimit="10" stroke-linecap="round" stroke-linejoin="round"/>
<path d="M191.939 123.78L213.299 66.1199" stroke="black" stroke-width="3" stroke-miterlimit="10" stroke-linecap="round" stroke-linejoin="round"/>
<path d="M192.138 104.82L184.068 105.9C184.068 105.9 184.778 124.96 187.318 131.03C194.688 133.29 209.908 129.19 209.908 129.19L207.888 117.14" stroke="black" stroke-width="3" stroke-miterlimit="10" stroke-linecap="round" stroke-linejoin="round"/>
<path d="M209.91 129.2L206.95 135.41C206.95 135.41 192.97 141.2 184.08 137.81C180.27 128.49 178.15 115.65 178.57 110.28L184.08 105.9" stroke="black" stroke-width="3" stroke-miterlimit="10" stroke-linecap="round" stroke-linejoin="round"/>
<path d="M187.32 131.03L184.08 137.81" stroke="black" stroke-width="3" stroke-miterlimit="10" stroke-linecap="round" stroke-linejoin="round"/>
<path d="M535.179 41.3298L516.069 95.5198H506.079L504.359 85.3798L514.149 41.6098" stroke="black" stroke-width="4" stroke-miterlimit="10" stroke-linecap="round" stroke-linejoin="round"/>
<path d="M506.08 95.5199L520.38 41.6299" stroke="black" stroke-width="3" stroke-miterlimit="10" stroke-linecap="round" stroke-linejoin="round"/>
<path d="M509.469 103.15C515.199 103.24 519.369 100.61 519.369 100.61L519.289 87.0599" stroke="black" stroke-width="3" stroke-miterlimit="10" stroke-linecap="round" stroke-linejoin="round"/>
<path d="M505.309 80.73L498.549 81.55C498.549 81.55 499.209 91.82 501.309 96.86" stroke="black" stroke-width="3" stroke-miterlimit="10" stroke-linecap="round" stroke-linejoin="round"/>
<path d="M495.9 93.4999C495.51 90.8699 494.639 88.7699 494.989 84.3299L498.539 81.5599" stroke="black" stroke-width="3" stroke-miterlimit="10" stroke-linecap="round" stroke-linejoin="round"/>
<path d="M519.37 100.61L516.91 105.76C516.91 105.76 515.63 106.05 514.01 106.38" stroke="black" stroke-width="3" stroke-miterlimit="10" stroke-linecap="round" stroke-linejoin="round"/>
<path d="M454.988 73.9999C484.638 84.1599 509.478 99.4099 530.378 121.15C551.268 142.89 555.508 149.95 564.258 157.29" stroke="black" stroke-width="4" stroke-miterlimit="10" stroke-linecap="round" stroke-linejoin="round"/>
</svg>
