<svg width="1280" height="1172" viewBox="0 0 1280 1172" fill="none" xmlns="http://www.w3.org/2000/svg">
<path d="M206.84 554.44L224.86 547.42L246.7 533.13L257.47 525.9L276.03 521.85L295.6 523.64L315.34 535.98L332.53 545.68L353.24 551.42L358.13 551.6L376.91 780.51L360.96 783.48L348.77 775.2L345.4 731.03L355.84 730.08L354.61 716.82L351.22 716.06L346.7 710.91L337.1 565.48L220.91 572L234.09 793.83L212.82 794.77L203.22 784.23L193.24 564L206.84 554.44Z" fill="#BF996F"/>
<path d="M230.459 718.47L346.699 710.91L354.609 716.82L355.839 730.08L232.209 740.84L230.459 718.47Z" fill="#BF996F"/>
<path d="M160.84 740.84L195.84 663L199.72 710.91L178.73 752.87H166.89L160.84 740.84Z" fill="#BF996F"/>
<path d="M220.91 572L337.1 565.48L346.7 710.91L230.46 718.47L220.91 572Z" fill="#60665B"/>
<path d="M240.68 594.1C241.79 593.99 242.33 588.33 243.44 588.23C244.55 588.12 245.95 591.17 247.06 591.07C248.17 590.97 249.2 590.15 250.31 590.06C251.42 589.96 252.74 592.48 253.84 592.39C254.95 592.3 256.13 593.34 257.23 593.25C258.34 593.16 258.82 585.03 259.93 584.95C261.04 584.87 262.57 590.58 263.68 590.5C264.79 590.42 265.73 588.05 266.84 587.97C267.95 587.9 269.33 592.2 270.43 592.13C271.54 592.06 272.26 585.65 273.37 585.58C274.48 585.52 275.74 588.24 276.85 588.18C277.96 588.12 279.15 589.88 280.26 589.83C281.37 589.78 282.19 583.46 283.3 583.41C284.41 583.36 285.59 584.81 286.7 584.77C287.81 584.73 288.9 583.94 290.01 583.9C291.12 583.86 292.43 589.93 293.54 589.9C294.65 589.87 295.55 582.57 296.67 582.54C297.78 582.51 299.07 589.7 300.18 589.68C301.29 589.66 302.25 581.72 303.36 581.7C304.47 581.68 305.7 588.88 306.81 588.86C307.92 588.85 309.03 589.59 310.14 589.58C311.25 589.57 312.32 583.77 313.43 583.76C314.54 583.76 315.66 589.13 316.77 589.13C317.88 589.13 319.01 581.57 320.12 581.57" stroke="white" stroke-width="2" stroke-miterlimit="10" stroke-linecap="round" stroke-linejoin="round"/>
<path d="M241.289 612.17C242.399 612.2 243.479 612.98 244.589 612.99C245.699 613 246.819 614.35 247.929 614.34C249.039 614.33 250.129 613.33 251.239 613.29C252.349 613.25 253.459 613.31 254.569 613.25C255.679 613.19 256.929 615.16 258.039 615.08C259.149 615 260.309 615.1 261.419 614.99C262.529 614.89 263.299 611.48 264.399 611.36C265.509 611.23 266.759 612.41 267.859 612.27C268.959 612.12 270.189 612.8 271.289 612.63C272.389 612.46 273.399 611.72 274.499 611.53C275.599 611.34 276.959 612.5 278.049 612.29" stroke="white" stroke-width="2" stroke-miterlimit="10" stroke-linecap="round" stroke-linejoin="round"/>
<path d="M294.76 609.57C294.85 608.93 297.34 610.34 297.95 610.13C299.02 609.75 299.94 609.11 301.03 608.79C302.12 608.46 302.86 606.98 303.97 606.71C305.07 606.43 306.07 605.65 307.19 605.42C308.3 605.19 309.39 604.65 310.51 604.47C311.63 604.29 312.93 605.22 314.06 605.08C315.19 604.94 316.28 604.42 317.41 604.33C318.31 604.25 319.23 605.17 320.14 605.18C321.06 605.19 321.77 605.34 322.65 605.53C323.54 605.72 324.66 604.99 325.44 605.48C326.58 606.18 326.43 607.75 326.82 609.02C327.23 610.36 328.52 611.87 327.6 612.93C326.89 613.75 325.45 613.63 324.38 613.84C323.36 614.04 322.27 616.03 321.24 616.02C320.12 616.01 319.03 615.47 317.91 615.49C316.79 615.5 315.65 614.09 314.53 614.12C313.41 614.15 312.36 615.61 311.24 615.66C310.12 615.72 309.01 615.55 307.89 615.63C306.77 615.71 305.63 615.28 304.51 615.38C303.39 615.48 302.24 615.14 301.13 615.26C300.02 615.38 297.52 615.53 296.41 615.68C297.58 616.69 298.46 619.2 299.58 620.27C300.48 621.14 302.39 621.81 303.62 622.02C304.72 622.21 305.92 622.81 307.04 622.88C308.15 622.96 309.44 622.99 310.55 622.95C311.67 622.92 312.73 621.13 313.83 620.98C314.94 620.84 315.93 620.17 317.01 619.92" stroke="white" stroke-width="2" stroke-miterlimit="10" stroke-linecap="round" stroke-linejoin="round"/>
<path d="M235.359 636.41C235.919 637.51 236.689 638.45 237.089 639.61C237.499 640.76 239.159 641.52 239.529 642.69C239.899 643.86 239.279 645.33 239.709 646.47C240.139 647.6 241.769 648.07 242.379 649.13C242.999 650.2 243.619 650.83 244.459 651.69C245.309 652.57 245.359 655.43 246.479 655.97C247.079 655.1 246.849 652.4 247.659 651.71C248.469 651.02 250.269 651.65 251.229 651.19C251.719 650.95 250.769 649.55 251.069 649.09C251.349 648.65 251.299 649.07 251.249 648.55C251.129 647.34 251.339 646.34 250.939 645.2C250.539 644.07 250.029 643.08 249.509 641.98C248.989 640.89 248.899 639.57 248.409 638.48C248.129 637.87 247.679 636.41 248.109 635.9C248.329 635.64 249.239 635.92 249.569 635.82C250.679 635.49 252.019 636.67 253.169 636.52C254.319 636.37 255.279 636.52 256.439 636.54C257.599 636.57 259.079 633.55 260.219 633.75C260.699 633.84 261.569 635.01 261.899 635.38C262.229 635.75 260.039 636.97 260.079 637.46C260.159 638.62 261.839 639.67 261.869 640.84C261.899 642.01 261.149 643.2 261.189 644.37C261.229 645.54 263.309 646.57 263.419 647.72C263.529 648.89 261.599 650.33 261.829 651.47C262.059 652.61 261.889 654.06 262.309 655.16" stroke="white" stroke-width="2" stroke-miterlimit="10" stroke-linecap="round" stroke-linejoin="round"/>
<path d="M274.301 637.93C275.411 637.79 276.371 636.47 277.481 636.34C278.591 636.2 279.781 636.7 280.891 636.56C282.001 636.42 283.401 638.66 284.511 638.52C285.621 638.38 286.411 635.66 287.521 635.52C288.631 635.38 289.791 635.67 290.901 635.53C292.011 635.39 293.501 638.34 294.611 638.21C295.721 638.07 296.501 635.21 297.611 635.08C298.721 634.94 300.101 636.99 301.211 636.85C302.321 636.71 302.921 632.45 304.031 632.31C305.141 632.17 306.711 635.82 307.821 635.68C308.931 635.54 309.731 632.86 310.841 632.72C311.951 632.58 313.041 632.31 314.151 632.17C315.261 632.03 316.601 633.76 317.711 633.62" stroke="white" stroke-width="2" stroke-miterlimit="10" stroke-linecap="round" stroke-linejoin="round"/>
<path d="M276.68 650.01C277.68 649.55 279.54 651.12 280.57 650.73C281.6 650.33 282.2 648.81 283.25 648.48C284.3 648.14 285.73 649.19 286.79 648.9C287.85 648.61 288.43 646.44 289.5 646.19C290.57 645.94 291.82 646.46 292.9 646.24C293.98 646.02 295.53 648.29 296.61 648.08C297.69 647.87 298.52 646.36 299.6 646.16C300.7 645.96 301.73 645.43 302.83 645.23C303.93 645.03 305.18 645.76 306.28 645.57C307.38 645.38 308.31 644.27 309.41 644.09C310.51 643.91 311.39 642.31 312.49 642.15C313.59 641.99 314.52 640.39 315.63 640.25C316.74 640.11 318.3 643.99 319.41 643.87C320.52 643.76 321.4 641.25 322.51 641.17" stroke="white" stroke-width="2" stroke-miterlimit="10" stroke-linecap="round" stroke-linejoin="round"/>
<path d="M297.859 655.1C298.979 654.99 299.939 653.13 301.069 653.03C302.189 652.92 303.209 651.67 304.329 651.57C305.449 651.46 306.759 653.28 307.879 653.17C308.999 653.06 309.899 650.56 311.029 650.46C312.149 650.35 313.239 649.84 314.359 649.73C315.479 649.62 316.679 650.31 317.809 650.21C318.929 650.1 320.209 651.57 321.329 651.47C322.449 651.36 323.559 651.1 324.689 650.99C325.809 650.88 326.759 648.84 327.879 648.73C328.999 648.62 330.409 651.48 331.529 651.38" stroke="white" stroke-width="2" stroke-miterlimit="10" stroke-linecap="round" stroke-linejoin="round"/>
<path d="M246.75 668.37C247.89 668.38 248.99 678.45 250.13 678.45C251.27 678.46 252.43 674.89 253.57 674.89C254.71 674.89 255.84 677.11 256.98 677.11C258.12 677.12 259.29 671.73 260.43 671.73C261.57 671.73 262.68 678.22 263.83 678.22C264.97 678.23 266.13 674.37 267.27 674.38C268.41 674.39 269.58 669.05 270.72 669.06C271.89 669.07 273.03 668.54 274.2 668.54C275.37 668.54 276.51 672.04 277.68 672.02C278.85 672 280.15 676.01 281.32 675.96C282.49 675.91 283.45 672.22 284.62 672.13C285.78 672.04 287.12 673.68 288.28 673.53C289.34 673.39 290.46 673.46 291.52 673.28C292.58 673.1 292.67 667.52 293.73 667.33C294.79 667.14 297.13 674.39 298.19 674.21C299.25 674.03 299.57 668.96 300.64 668.82C301.61 668.7 302.75 669.53 303.72 669.45C304.69 669.37 305.48 665.56 306.46 665.5C307.44 665.44 308.6 668.12 309.58 668.08C310.56 668.04 311.84 674.61 312.81 674.56C313.82 674.51 314.37 664.88 315.38 664.83C316.39 664.78 317.39 665.04 318.4 664.98C319.41 664.92 320.76 670.55 321.77 670.48C322.78 670.41 323.94 672.3 324.95 672.22C325.96 672.15 326.49 665.64 327.5 665.57C328.51 665.49 329.55 666 330.56 665.91C331.57 665.82 333.48 666.8 334.49 666.71C333.75 666.89 331.57 665.8 330.83 665.98" stroke="white" stroke-width="2" stroke-miterlimit="10" stroke-linecap="round" stroke-linejoin="round"/>
<path d="M257.53 684.96C256.67 685.29 255.55 685.02 254.74 685.45C253.93 685.87 253.46 686.88 252.7 687.4C251.64 688.12 250.29 688.66 249.87 689.87C249.6 690.65 249.2 691.57 249.27 692.39C249.39 693.78 250.11 695.12 250.49 696.45C250.7 697.18 251.49 697.39 252.04 697.91C252.58 698.42 252.67 699.89 253.39 700.06C254.5 700.33 255.78 699.93 256.91 700.1C258.04 700.27 259.14 701.12 260.28 701.2C261.42 701.28 262.6 699.7 263.75 699.68C264.08 699.67 264.94 701.05 265.2 700.85C265.4 700.69 264.9 699.75 265.01 699.52C265.62 698.11 266.75 696.93 267.37 695.53C267.72 694.72 268.01 693.71 268.02 692.83C268.04 691.23 266.3 690.56 264.72 690.32" stroke="white" stroke-width="2" stroke-miterlimit="10" stroke-linecap="round" stroke-linejoin="round"/>
<path d="M285.801 696.5C286.861 696.4 287.811 695.14 288.861 695.04C289.921 694.94 290.961 694.7 292.011 694.59C293.061 694.48 293.971 693 295.021 692.89C296.071 692.77 296.991 691.57 298.051 691.44C299.101 691.32 300.551 694.47 301.601 694.34C302.651 694.21 303.591 693.14 304.641 693C305.691 692.86 306.781 693.02 307.841 692.88C308.891 692.74 309.781 691.43 310.831 691.28C311.881 691.13 313.341 693.79 314.391 693.63C315.441 693.47 316.301 691.99 317.351 691.83C318.401 691.67 319.641 692.69 320.691 692.53C321.741 692.36 322.301 689.23 323.351 689.06" stroke="white" stroke-width="2" stroke-miterlimit="10" stroke-linecap="round" stroke-linejoin="round"/>
<path d="M346.04 730.98L348.35 774.79C348.35 774.79 353.63 780.12 360.03 784.26M360.03 784.26C363.42 783.88 378.08 781.19 378.08 781.19C375.82 747.68 361.14 565.51 358.88 551.58C345.89 552.33 327.27 544.62 316.44 536.8C305.61 528.98 299.4 520.52 276.94 521.8C253.25 523.15 239.07 535.96 228.15 544.99C217.23 554.03 205.47 553.18 200.86 557.13L193.24 564C194.37 589.22 202.46 766.35 203.22 784.23L212.82 794.77C226.18 796.09 234.09 793.83 234.09 793.83C231.45 729.92 220.91 572 220.91 572C220.91 572 318.91 564.94 342.44 565.5C346.02 612.26 357.02 719.57 360.03 784.26Z" stroke="black" stroke-width="4" stroke-miterlimit="10" stroke-linecap="round" stroke-linejoin="round"/>
<path d="M231.33 739.45C231.33 739.45 330.79 732.66 356.4 730.02" stroke="black" stroke-width="4" stroke-miterlimit="10" stroke-linecap="round" stroke-linejoin="round"/>
<path d="M197.53 658.42C189.85 679.94 172.51 716.92 160.84 742.15C162.02 745.57 166.89 754.86 166.89 754.86L178.73 752.86C178.73 752.86 195.12 722.11 199.72 706.64" stroke="black" stroke-width="4" stroke-miterlimit="10" stroke-linecap="round" stroke-linejoin="round"/>
<path d="M166.891 754.87C166.891 754.87 193.451 697.77 198.691 683.86" stroke="black" stroke-width="3" stroke-miterlimit="10" stroke-linecap="round" stroke-linejoin="round"/>
<path d="M212.819 794.77C210.789 730.02 203.399 587.62 200.869 557.12" stroke="black" stroke-width="3" stroke-miterlimit="10" stroke-linecap="round" stroke-linejoin="round"/>
<path d="M230.459 724.2C273.709 721.07 330.329 718.21 355.249 716.82" stroke="black" stroke-width="3" stroke-miterlimit="10" stroke-linecap="round" stroke-linejoin="round"/>
<path d="M230.459 719.72C230.459 719.72 328.169 712.67 347.929 712.39L353.199 716.13" stroke="black" stroke-width="3" stroke-miterlimit="10" stroke-linecap="round" stroke-linejoin="round"/>
<path d="M337.1 565.48C337.1 565.48 347.55 708.63 347.93 712.39" stroke="black" stroke-width="3" stroke-miterlimit="10" stroke-linecap="round" stroke-linejoin="round"/>
</svg>
