<svg width="100%" height="100%" viewBox="0 0 450 450" fill="none" xmlns="http://www.w3.org/2000/svg" style="display: block;">
<rect width="100%" height="100%" 
fill="selectedBackgroundColor"/>
<path d="M361.76 192.04C360.84 189.04 359.65 184.67 356.11 183.89C356.09 183.89 356.07 183.88 356.05 183.88C350.53 176.76 344.75 174.87 342.18 173.48C341.13 172.91 333.52 170.91 332.63 170.12C331.73 169.32 331.04 168.44 330.54 167.34C330.21 163.85 328.21 160.9 327.55 157.51C327.43 156.87 327.51 156.16 327.36 155.53C327.16 154.69 326.49 153.98 326.01 153.28C324.81 151.55 323.6 149.81 322.4 148.08C321.67 147.03 320.94 145.98 320.05 145.06C319.27 144.26 318.38 143.57 317.57 142.8C316.43 141.72 315.43 140.5 314.44 139.28C312.41 136.79 310.37 134.3 308.04 132.09C301.85 126.23 293.86 122.59 285.69 120.17C280.81 118.72 275.82 117.67 270.82 116.67C266.29 115.76 261.62 114.3 257 114.21C253.91 114.15 250.82 114.13 247.74 114.15C245.61 114.17 243.47 114.2 241.36 114.47C236.66 115.06 232.21 116.74 227.73 118.18C223.68 119.48 219.62 120.23 215.71 121.87C214.09 122.54 212.53 123.34 210.95 124.08C209.34 124.83 207.64 125.28 206.03 125.99C205.51 126.22 205.08 126.6 204.56 126.84C203.76 127.21 202.92 127.51 202.11 127.87C200.53 128.58 199 129.39 197.51 130.27C195.27 131.6 193.15 133.1 191.14 134.74C183.75 140.77 178.12 148.77 173.49 157.03C171.98 159.72 170.79 162.46 170.15 165.49C169.86 166.84 169.59 168.19 169.33 169.55C167.59 172.33 167.64 177.69 167.5 180.93C167.44 182.27 167.47 183.61 167.41 184.95C167.3 187.16 168.26 189.74 168.71 191.91C169.26 194.58 169.8 197.26 170.35 199.93C171.13 203.72 171.91 207.53 173.26 211.15C173.76 212.49 174.34 213.8 175.15 214.98C175.77 215.9 176.52 216.72 177.29 217.52C179.23 219.56 181.3 221.52 183.02 223.75C183.9 224.89 184.64 226.1 185.3 227.38C185.97 228.68 187.05 229.65 188.19 230.6C190.28 232.35 192.56 233.84 194.91 235.21C195.96 235.82 197.01 236.44 198.08 237.02C199.9 237.74 201.74 238.42 203.6 239.05C206.17 239.92 208.6 240.6 211.01 241.91C211.07 241.94 211.14 241.98 211.17 242.05C211.2 242.12 211.19 242.19 211.18 242.27C210.73 245.03 210.28 247.79 209.83 250.56C209.63 251.79 209.47 253.02 209.73 254.26C209.99 255.5 209.89 256.79 210.11 258.07C210.64 265.64 213.37 270.03 218.84 275.28C216.78 276.1 219.54 278.3 218.74 279.84C217.54 282.15 216.8 284.63 216.36 287.19C215.56 291.85 214.7 293.33 214.27 298.05C211.61 297.94 207.84 297.97 205.17 298.13C201.74 298.34 199.33 300.01 196.04 300.96C194.55 301.39 192.82 299.38 192.2 299.1C187.43 296.94 182.38 296.6 177.11 296.15C174.59 295.93 170.33 297.61 168.37 295.44C167.76 294.76 167.43 293.89 167.09 293.05C165.66 289.53 163.71 286.23 161.35 283.25C160.19 281.79 158.93 280.36 157.55 279.1C156.45 278.09 155.61 276.73 154.65 275.56C153.58 274.25 153.1 272.55 152.85 270.88C152.6 269.21 152.57 267.5 152.27 265.84C151.88 263.66 151.04 261.6 150.11 259.6C149.75 258.84 149.21 258.09 148.93 257.31C148.57 256.3 148.56 255.04 148.33 253.98C147.82 251.63 147.38 250.42 147.48 248.08C147.64 244.37 150.92 242.53 152.28 239.14C153.66 235.7 156.59 231.27 156.41 227.51C156.32 225.56 153.1 220.81 151.27 220.46C149.34 220.1 146.6 219.24 144.64 219.39C140.74 219.39 136.25 223.6 133.12 225.81C129.76 228.17 127.73 231.49 125.33 234.74C124.25 236.2 123.15 237.7 122.61 239.43C122.27 240.52 122.16 241.67 121.9 242.79C121.5 244.54 120.74 246.18 120.07 247.84C118.25 252.36 117.08 257.11 116.25 261.91C115.45 266.53 115.37 271.35 114.4 275.91C112.6 284.36 119.42 310.25 120.33 312.21C121.2 314.06 121.43 316.23 122.09 318.14C123.49 322.18 126.5 324.64 128.54 328.58C129.62 330.67 131.06 332.54 132.5 334.4C134.25 336.67 135.99 338.93 137.74 341.2C138.63 342.35 139.52 343.51 140.61 344.47C141.97 345.68 143.59 346.54 145.13 347.53C147.44 349.02 149.56 350.78 151.81 352.35C155.47 354.9 159.46 356.91 163.44 358.92C166.98 360.7 170.53 362.49 174.29 363.71C176.45 364.41 178.67 364.92 180.89 365.43C183.38 366 185.87 366.58 188.36 367.15C191.65 367.91 194.99 368.67 198.39 368.73C201.39 368.78 204.26 367.97 207.24 367.73C208.35 367.64 209.59 367.57 210.82 367.36C210.96 367.36 211.09 367.37 211.23 367.37C218.19 367.28 225.24 365.2 229.95 359.97C231.77 358.84 233.52 357.59 235.19 356.24C237.51 354.36 240.24 352.01 241.55 349.15C243.38 349.27 244.34 346.79 243.29 345.52C243.31 345.51 243.32 345.5 243.34 345.49C247.51 342.93 249.47 338.73 250.13 334C250.46 331.65 250.74 329.33 251.53 327.07C252.29 324.89 253.42 322.86 254.62 320.9C255.84 318.91 257.16 317 258.44 315.05C259.15 313.96 259.68 312.84 259.46 311.51C259.25 310.27 258.63 309.06 258.26 307.85C257.09 304.04 256.58 300.03 256.75 296.04C256.83 294.26 256.91 292.89 257.86 291.42C258.82 289.95 259.46 288.18 259.92 286.5C260.12 285.77 260.28 285.01 260.23 284.25C260.16 283.15 259.66 282.12 259.1 281.16C258.56 280.25 257.96 279.37 257.28 278.55C256.7 277.86 256.06 277.21 255.52 276.49C253.72 274.08 253.17 271.04 252.95 268.1C252.86 266.86 252.54 265.48 252.58 264.26C252.61 263.5 252.99 262.74 253.12 261.99C253.17 261.73 253.15 259.96 253.27 259.88C253.66 259.62 254.01 259.24 254.31 258.71C254.73 257.97 254.85 257.15 255.35 256.45C255.55 256.17 255.78 255.94 256.02 255.73C256.97 256.42 258.44 256.47 259.27 255.2C261.12 252.36 263.04 249.3 265.87 247.33C266.06 247.2 265.77 245.29 265.56 243.64C266.72 244.95 268.2 245.95 269.83 246.74C271.3 248.12 273.17 249.04 275.13 249.59C276.03 250.06 276.96 250.5 277.91 250.9C278.21 251.02 278.53 251.04 278.85 250.99C279.13 251.26 279.47 251.47 279.88 251.56C280.71 251.74 281.53 251.84 282.35 251.92C285.12 252.27 287.92 252.42 290.7 252.24C291.1 252.21 291.49 252.17 291.88 252.11C296.37 253.12 301.44 251.68 304.56 248.26C304.83 248.13 305.09 247.98 305.34 247.82C307.78 246.22 309.33 243.77 310.62 241.22C311.46 241.06 312.16 240.4 312.46 239.61C316.32 240.1 320.19 239.93 324.03 239.37C327.47 239.19 331.16 239.12 334.35 237.87C334.94 237.64 335.44 237.25 335.77 236.76C340.16 235.53 344.51 233.98 348.34 231.58C358.26 225.38 363.79 213.85 363.46 202.29C363.34 198.83 362.77 195.35 361.76 192.04Z" 
fill="selectedBodyColor"/>
<path d="M316.38 303.48C316.16 299.16 315.48 294.86 314.36 290.69C314.34 290.62 314.31 290.56 314.29 290.5C314.36 290.17 314.35 289.83 314.24 289.51C313.6 287.64 312.52 286.14 311.23 284.68C310.69 284.07 310.13 283.22 309.5 282.71C309.54 282.56 309.58 282.41 309.62 282.26C309.75 281.73 309.86 281.2 309.95 280.67C310.74 276.24 310.59 271.73 309.48 267.37C309.35 266.86 309.03 266.44 308.62 266.16C308.16 263.96 307.14 261.92 305.72 260.19C305.62 259.94 305.51 259.68 305.41 259.42C304.91 258.2 304.35 257.08 303.61 256C303.25 255.47 302.88 254.95 302.54 254.41C302.34 254.09 302.15 253.76 301.95 253.43C301.93 253.39 301.82 253.19 301.72 253.02C301.59 252.23 300.86 251.39 300.14 251.26C300.12 251.26 300.1 251.25 300.08 251.25C299.03 251.06 297.82 251.51 297.46 252.63C294.48 251.68 291.3 251.88 288.2 251.46C284.7 250.98 276.91 250.85 273.62 249.51C272.14 248.91 270.72 248.14 269.39 247.25C268.02 246.34 265.13 244.83 265.13 244.83C265.13 244.83 262.46 245.47 260.21 247.97C257.61 250.87 255.25 253.61 253.96 257.27C253.74 257.91 253.27 258.39 253.11 259.05C252.89 259.93 252.85 260.96 252.74 261.87C252.5 263.93 252.4 266.01 252.47 268.08C252.51 269.56 252.64 271.05 253.06 272.46C253.47 273.84 254.15 275.13 254.88 276.37C255.83 278 256.88 279.57 258.01 281.08C258.35 281.54 258.71 282 258.93 282.53C259.17 283.12 259.23 283.76 259.28 284.39C259.4 285.87 259.45 287.4 258.91 288.81C258.45 290.02 257.69 291.1 257.13 292.26C256.04 294.53 255.26 296.99 254.97 299.5C254.36 304.85 256.3 309.97 260.7 313.19C260.64 313.39 257.6 313.98 256.28 316.09C254.72 318.6 253.3 321.1 252.19 323.86C251.11 326.55 250.32 329.35 249.88 332.23C249.77 332.97 249.6 333.81 249.51 334.64C249.27 334.81 249.08 335.04 248.94 335.32C245.53 342.41 242.05 349.91 236.47 355.5C233.9 358.08 231 360.25 228 362.28C226.44 363.33 224.85 364.49 223.11 365.23C221.45 365.93 219.64 365.76 217.98 366.4C215.75 367.26 215.99 370.72 218.56 370.79C218.74 370.79 218.96 370.79 219.14 370.87C219.55 371.05 219.99 371.14 220.4 371.12C225.37 372.06 230.41 372.59 235.47 372.59C237.79 372.59 240.11 372.49 242.44 372.38C242.51 372.4 242.57 372.43 242.65 372.44C242.85 372.48 243.04 372.49 243.23 372.52C243.29 372.53 243.35 372.52 243.41 372.53C243.64 372.55 243.88 372.57 244.11 372.57C246.43 372.71 248.74 372.52 251.02 372.02C251.21 371.98 251.37 371.91 251.52 371.84C254.51 371.85 257.51 371.68 260.48 371.3C262.43 371.05 264.38 370.77 266.26 370.2C268.11 369.64 269.83 368.74 271.57 367.9C273.17 367.13 274.85 366.74 276.56 366.31C278.42 365.84 280.19 365.16 281.84 364.16C284.88 362.32 287.88 359.94 290.28 357.27C292.19 355.15 293.15 352.35 295.4 350.67C298.15 348.62 300.89 346.57 303.63 344.52C305.78 342.91 307.97 341.28 309.59 339.13C310.75 337.6 311.6 335.77 311.79 333.85C311.87 332.98 311.72 332.18 311.95 331.36C312.23 330.33 312.74 329.29 313.14 328.29C313.2 328.21 313.27 328.14 313.32 328.05C314.12 326.75 314.35 325.3 314.5 323.79C314.64 322.3 314.77 320.8 314.76 319.31C314.74 317.03 314.36 314.68 313.34 312.63C314.17 311.72 314.94 310.75 315.48 309.64C316.43 307.7 316.49 305.63 316.38 303.48Z" 
fill="selectedBellyColor"/>
<path d="M264.72 259.12L267.58 262.23L268.37 268.53L265.38 272.7L260.85 272.13L258.88 265.14L261.01 260.59L264.72 259.12Z" 
fill="selectedSpotColor"/>
<path d="M267.7 295.25L270.76 298.44L271.03 304.48L267.17 307.6L262.28 306.6L261.11 299.37L263.28 294.73L267.7 295.25Z" 
fill="selectedSpotColor"/>
<path d="M263.46 326.79L266.28 330.22L265.76 335.87L261.27 338.19L256.23 336.54L256.38 330.84L258.52 327.11L263.46 326.79Z" 
fill="selectedSpotColor"/>
<path d="M268.3 222.79C269.84 224.37 271.87 225.75 273.94 226.99C276.03 228.22 278.22 229.33 280.46 230.33C284.95 232.34 289.65 233.93 294.44 235.18C299.23 236.43 304.11 237.32 309.02 237.83C313.94 238.35 318.87 238.53 323.75 238.14C328.63 237.74 333.47 236.85 338.07 235.31C342.66 233.77 347.04 231.59 350.73 228.61C352.59 227.14 354.23 225.43 355.67 223.58C357.06 221.73 358.25 219.61 359.29 217.46C361.31 213.13 362.44 208.44 362.4 203.71C362.39 201.35 362.1 198.99 361.56 196.67C361.01 194.35 360.25 192.07 359.22 190.02C358.18 187.96 356.81 186.09 355.19 184.36C353.55 182.62 351.77 181 349.84 179.66C347.91 178.3 345.81 177.18 343.62 176.3L340.09 174.96C338.89 174.48 337.68 173.98 336.47 173.4C335.26 172.82 334.05 172.15 332.88 171.3C332.29 170.88 331.71 170.39 331.17 169.83C330.62 169.28 330.11 168.58 329.73 167.94C328.96 166.63 328.49 165.41 327.99 164.24C327.5 163.07 327.02 161.93 326.52 160.81C322.48 151.8 317.03 143.43 309.8 136.82C306.2 133.51 302.26 130.5 298.05 128.05C293.81 125.59 289.31 123.52 284.67 121.82C280.03 120.12 275.25 118.77 270.42 117.76C265.59 116.75 260.7 116.21 255.77 116.12C250.84 116.03 245.84 116.3 240.9 116.79C235.96 117.29 231.05 118.06 226.25 119.22C216.64 121.53 207.44 125.39 199.11 130.7C190.79 135.93 183.48 142.79 178.22 151.02C172.92 159.22 169.82 168.75 169.09 178.5C168.71 183.37 168.88 188.32 169.59 193.12C169.99 195.52 170.51 197.89 171.2 200.22C171.92 202.53 172.77 204.81 173.79 207.01C175.85 211.41 178.51 215.52 181.63 219.3C183.18 221.18 184.84 223.03 186.59 224.71L187.9 225.96L189.28 227.14C190.18 227.95 191.18 228.65 192.14 229.39C194.11 230.81 196.16 232.15 198.3 233.33C200.42 234.55 202.62 235.64 204.86 236.64C209.34 238.6 214.04 240.33 218.73 241.4L218.79 241.41C219.65 241.61 220.18 242.46 219.99 243.32C219.81 244.12 219.06 244.63 218.27 244.55C215.61 244.26 213.08 243.71 210.58 242.99C208.09 242.27 205.62 241.46 203.24 240.43C198.45 238.43 193.86 235.91 189.64 232.82C188.6 232.02 187.54 231.26 186.55 230.39L185.05 229.11L183.62 227.74C181.73 225.92 180.01 224 178.35 221.99C175.03 217.98 172.17 213.55 169.94 208.8C168.83 206.42 167.92 203.95 167.14 201.45C166.39 198.93 165.83 196.37 165.4 193.78C164.63 188.59 164.46 183.38 164.86 178.18C165.63 167.79 168.97 157.52 174.65 148.74C180.28 139.92 188.08 132.63 196.84 127.13C205.55 121.58 215.23 117.53 225.26 115.11C230.28 113.9 235.37 113.1 240.48 112.58C245.59 112.07 250.69 111.8 255.86 111.89C261.02 111.99 266.22 112.56 271.28 113.62C276.33 114.67 281.3 116.07 286.14 117.85C290.98 119.63 295.7 121.78 300.2 124.4C304.72 127.03 308.86 130.19 312.69 133.72C320.4 140.77 326.19 149.7 330.4 159.09C330.93 160.27 331.43 161.46 331.91 162.62C332.4 163.77 332.86 164.92 333.38 165.78C334.27 167.35 336.2 168.56 338.33 169.6C339.4 170.11 340.52 170.59 341.66 171.04L345.21 172.39C347.7 173.39 350.09 174.66 352.29 176.21C353.39 176.98 354.45 177.81 355.45 178.71C356.45 179.6 357.38 180.51 358.3 181.49C360.13 183.44 361.78 185.68 363.02 188.13C364.26 190.59 365.1 193.14 365.71 195.73C366.32 198.33 366.65 201.02 366.66 203.71C366.71 209.1 365.41 214.46 363.15 219.28C362.56 220.47 361.97 221.66 361.29 222.8C360.67 223.95 359.86 225.09 359.07 226.18C357.41 228.32 355.52 230.27 353.42 231.94C349.24 235.31 344.42 237.69 339.45 239.36C334.47 241.03 329.3 241.97 324.12 242.4C318.93 242.82 313.72 242.62 308.6 242.08C303.47 241.53 298.39 240.55 293.41 239.22C288.43 237.88 283.54 236.19 278.83 234.04C276.47 232.97 274.16 231.77 271.92 230.39C269.69 228.99 267.51 227.49 265.55 225.42C264.83 224.66 264.86 223.45 265.62 222.72C266.38 222 267.57 222.03 268.3 222.77V222.79Z" fill="black"/>
<path d="M261.44 228.13C262.15 226.14 263.15 224.1 264.82 222.34C265.64 221.46 266.67 220.72 267.78 220.17C268.9 219.64 270.09 219.33 271.24 219.24C272.29 219.16 273.22 219.95 273.3 221C273.37 221.92 272.78 222.74 271.92 222.99L271.88 223C270.24 223.47 268.96 224.15 267.84 225.28C266.72 226.4 265.81 227.96 264.95 229.61L264.93 229.65C264.44 230.59 263.29 230.95 262.35 230.46C261.5 230.02 261.12 229.01 261.44 228.13Z" fill="black"/>
<path d="M340.25 201.61C342.2 202.1 344.56 202.76 346.53 204.33C347.4 205.02 347.55 206.29 346.86 207.16C346.19 208.01 344.97 208.17 344.1 207.54L344.08 207.52C343.46 207.07 342.74 206.71 341.93 206.43C341.12 206.14 340.25 205.94 339.25 205.72C338.11 205.47 337.38 204.34 337.63 203.19C337.88 202.05 339.01 201.32 340.16 201.58C340.18 201.58 340.2 201.59 340.21 201.59L340.25 201.61Z" fill="black"/>
<path d="M351.86 202.16C352.01 201.53 352.09 200.98 352.11 200.35C352.14 199.73 352.12 199.05 352.08 198.36C352.02 197.19 352.93 196.19 354.1 196.14C355.27 196.09 356.27 196.99 356.32 198.16C356.32 198.23 356.32 198.3 356.32 198.37C356.28 199.14 356.23 199.93 356.11 200.77C356 201.6 355.78 202.49 355.5 203.27C355.15 204.27 354.06 204.79 353.06 204.44C352.13 204.11 351.61 203.14 351.83 202.2L351.86 202.16Z" fill="black"/>
<path d="M314.26 240.69C313.96 242.32 313.29 243.72 312.48 244.94C311.67 246.17 310.71 247.24 309.67 248.19C307.55 250.07 305.21 251.47 302.58 252.5C299.96 253.49 297.28 253.91 294.67 254.15C293.36 254.27 292.06 254.33 290.77 254.36C289.46 254.38 288.25 254.41 286.85 254.32C281.38 253.98 276.41 252.07 271.78 249.84C269.46 248.7 267.22 247.45 265.05 246.1L263.43 245.07C263.22 244.92 262.7 244.62 262.99 244.76C263.13 244.79 263.14 244.74 262.99 244.79C262.69 244.86 262.15 245.16 261.59 245.48C261 245.79 260.35 246.18 259.43 246.39L259.39 246.4C258.53 246.6 257.68 246.06 257.48 245.21C257.28 244.36 257.82 243.5 258.67 243.3C258.71 243.29 258.75 243.28 258.78 243.28C259.09 243.23 259.57 243.04 260.08 242.75C260.62 242.47 261.15 242.1 262.06 241.79C262.5 241.65 263.16 241.51 263.91 241.73C264.27 241.83 264.66 242.08 264.71 242.11L265.11 242.34L266.71 243.26C268.86 244.47 271.05 245.57 273.29 246.55C277.75 248.48 282.44 249.95 287.04 250.12C291.79 250.17 296.86 249.95 301.03 248.4C303.07 247.62 305.12 246.41 306.74 244.95C308.37 243.52 309.74 241.66 310.08 239.95L310.09 239.9C310.32 238.75 311.43 238.01 312.58 238.23C313.73 238.45 314.47 239.55 314.26 240.69Z" fill="black"/>
<path d="M268.79 265.27C269.58 269.02 268.19 272.74 264.83 273.43C262.16 273.97 259.44 271.43 258.72 267.35C258.07 263.64 259.32 259.98 262.49 259.03C264.83 258.33 267.75 260.37 268.79 265.27Z" stroke="black" stroke-width="3" stroke-miterlimit="10" stroke-linecap="round" stroke-linejoin="round"/>
<path d="M271.58 298.99C272.49 302.43 272.1 306.3 268.44 307.52C265.67 308.44 262.26 307.05 261.24 303.25C260.39 300.12 261.04 295.78 264.03 294.36C266.89 293 270.53 295.05 271.58 298.99Z" stroke="black" stroke-width="3" stroke-miterlimit="10" stroke-linecap="round" stroke-linejoin="round"/>
<path d="M265.13 335.51C263.5 338.34 260.43 340.02 257.57 337.98C255.51 336.51 255.46 333.04 257.01 329.74C258.42 326.74 261.25 325.34 263.85 326.35C266.03 327.2 267.73 330.99 265.13 335.51Z" stroke="black" stroke-width="3" stroke-miterlimit="10" stroke-linecap="round" stroke-linejoin="round"/>
<path d="M212.88 242.58C212.1 243.85 211.64 245.7 211.43 247.56C211.22 249.44 211.22 251.39 211.37 253.33C211.53 255.27 211.84 257.2 212.34 259.05C212.47 259.51 212.58 259.97 212.74 260.41C212.88 260.86 213.03 261.3 213.21 261.71C213.37 262.15 213.57 262.52 213.76 262.91C213.95 263.3 214.26 263.76 214.5 264.19C216.58 267.63 218.91 270.85 221.75 273.52C224.57 276.2 227.91 278.28 231.54 279.8H231.55C232.52 280.21 232.98 281.33 232.57 282.3C232.17 283.26 231.06 283.72 230.09 283.33C226.08 281.71 222.26 279.39 219.05 276.41C215.82 273.44 213.24 269.92 211.01 266.32C210.73 265.85 210.46 265.45 210.18 264.93C209.89 264.41 209.59 263.88 209.38 263.35C209.13 262.82 208.93 262.29 208.75 261.76C208.55 261.23 208.39 260.69 208.25 260.16C207.67 258.01 207.33 255.85 207.15 253.67C206.98 251.49 206.97 249.3 207.22 247.07C207.5 244.85 207.95 242.56 209.33 240.28C209.94 239.28 211.24 238.96 212.24 239.56C213.24 240.17 213.56 241.47 212.96 242.47L212.95 242.48L212.88 242.58Z" fill="black"/>
<path d="M220.49 276.54C219.9 277.35 219.35 278.52 218.9 279.65C218.43 280.8 218.04 282.01 217.69 283.23C217.01 285.68 216.57 288.23 216.35 290.78C216.15 293.34 216.12 295.91 216.3 298.48C216.52 301.04 216.97 303.58 217.54 306.09L217.55 306.15C217.79 307.18 217.14 308.2 216.12 308.44C215.13 308.67 214.15 308.08 213.86 307.12C213.06 304.43 212.5 301.66 212.2 298.86C211.93 296.06 211.87 293.23 212.11 290.43C212.34 287.62 212.8 284.83 213.56 282.09C213.95 280.72 214.36 279.36 214.94 278.02C215.51 276.67 216.1 275.37 217.1 274C217.79 273.05 219.12 272.85 220.06 273.54C221 274.23 221.21 275.56 220.52 276.5L220.49 276.54Z" fill="black"/>
<path d="M196.38 303.87C194.41 305.57 192.74 307.85 191.39 310.29C190.04 312.74 188.97 315.38 188.25 318.09V318.1C187.98 319.12 186.93 319.72 185.92 319.45C184.92 319.18 184.31 318.16 184.56 317.16C185.3 314.11 186.4 311.17 187.86 308.38C189.33 305.6 191.13 302.94 193.61 300.68C194.48 299.89 195.82 299.96 196.61 300.82C197.4 301.69 197.33 303.03 196.47 303.82C196.46 303.83 196.45 303.84 196.44 303.85L196.38 303.87Z" fill="black"/>
<path d="M214.23 298.04C210.73 296.76 201.79 297.75 195 302.27" stroke="black" stroke-width="4.24" stroke-miterlimit="10" stroke-linecap="round" stroke-linejoin="round"/>
<path d="M168.2 296.98C170.51 295.85 172.88 295.15 175.19 294.91C184.94 293.9 193.54 297.95 194.99 302.27" stroke="black" stroke-width="4.24" stroke-miterlimit="10" stroke-linecap="round" stroke-linejoin="round"/>
<path d="M157.73 303.19C160.53 300.28 163.56 297.43 167.14 295.15L167.15 295.14C168.14 294.51 169.45 294.8 170.08 295.78C170.71 296.76 170.42 298.08 169.44 298.71C169.39 298.74 169.33 298.78 169.27 298.81C165.95 300.54 162.88 302.91 159.92 305.49C159.26 306.07 158.25 306 157.67 305.34C157.13 304.72 157.16 303.78 157.73 303.19Z" fill="black"/>
<path d="M167.88 296.2C167.27 291.25 166.13 286.54 163.02 282.39C159.84 278.14 155.74 275.03 152.61 274.55C153.88 266.79 150.58 257.38 146.54 253.73" stroke="black" stroke-width="4.24" stroke-miterlimit="10" stroke-linecap="round" stroke-linejoin="round"/>
<path d="M136.92 279.21C140.97 277.97 149.96 274.59 152.62 274.96" stroke="black" stroke-width="3.18" stroke-miterlimit="10" stroke-linecap="round" stroke-linejoin="round"/>
<path d="M212.9 365.53C216.06 367.15 219.51 368.3 223.04 369.17C226.58 370.03 230.24 370.48 233.91 370.81C241.26 371.38 248.73 371.13 256.06 370.11C259.73 369.6 263.31 368.91 266.79 367.8C270.33 366.7 273.8 365.44 277.09 363.88C280.35 362.3 283.46 360.43 286.02 358.06C287.31 356.88 288.42 355.57 289.4 354.18C290.36 352.77 291.11 351.25 291.73 349.65L291.77 349.56C292.15 348.58 293.26 348.1 294.24 348.48C295.16 348.84 295.64 349.84 295.38 350.77C294.82 352.76 293.99 354.7 292.88 356.46C291.72 358.18 290.42 359.8 288.9 361.17C285.9 363.94 282.45 366.01 278.93 367.72C275.39 369.4 271.74 370.74 268.06 371.88C264.33 373.07 260.46 373.82 256.66 374.36C249.01 375.42 241.29 375.7 233.57 375.12C229.71 374.77 225.86 374.27 222.05 373.33C218.25 372.38 214.49 371.12 210.92 369.27C209.88 368.73 209.47 367.45 210.01 366.41C210.55 365.37 211.82 364.97 212.86 365.5L212.9 365.53Z" fill="black"/>
<path d="M299.72 250.56C302.17 252.89 304.46 255.39 306.54 258.09C308.62 260.79 310.52 263.67 311.9 267.02C313.25 270.42 313.79 273.93 313.77 277.52C313.74 279.32 313.53 281.14 312.99 282.98C312.46 284.8 311.53 286.69 309.87 288.18C309 288.96 307.66 288.89 306.88 288.02C306.11 287.16 306.17 285.84 307.01 285.06L307.05 285.03C307.85 284.28 308.45 283.1 308.83 281.76C309.22 280.42 309.39 278.93 309.43 277.43C309.5 274.43 309.05 271.28 308.06 268.5C307.03 265.68 305.34 262.93 303.53 260.31C301.69 257.69 299.66 255.17 297.47 252.8L297.46 252.79C296.86 252.14 296.9 251.14 297.55 250.54C298.16 249.98 299.12 249.99 299.72 250.56Z" fill="black"/>
<path d="M258.14 250.57C256.51 252.57 255.46 255.06 254.77 257.65C254.42 258.95 254.2 260.29 254.06 261.64C253.91 262.99 253.85 264.35 253.89 265.69C253.98 271.1 255.93 276.15 259.2 280.48L259.21 280.5C259.74 281.2 259.6 282.21 258.9 282.74C258.29 283.2 257.44 283.16 256.89 282.67C254.54 280.61 252.66 277.96 251.47 275.01C250.26 272.07 249.73 268.88 249.7 265.77C249.69 262.66 250.11 259.56 251.06 256.58C252 253.61 253.48 250.7 255.81 248.4C256.44 247.78 257.44 247.79 258.06 248.42C258.63 249 258.67 249.91 258.16 250.54L258.14 250.57Z" fill="black"/>
<path d="M259.73 289.57C258.63 291.73 257.71 293.95 257.04 296.19C256.39 298.43 256.09 300.73 256.28 302.9C256.48 305.07 257.22 307.06 258.5 308.68C259.75 310.33 261.52 311.61 263.55 312.76L263.58 312.78C264.35 313.22 264.62 314.2 264.19 314.97C263.83 315.6 263.12 315.89 262.45 315.75C259.76 315.16 257.11 313.65 255.22 311.33C253.33 309.02 252.31 306.06 252.15 303.21C251.95 300.34 252.53 297.58 253.41 295.03C254.29 292.47 255.57 290.13 257 287.94C257.48 287.21 258.47 287 259.2 287.48C259.88 287.93 260.11 288.82 259.75 289.53L259.73 289.57Z" fill="black"/>
<path d="M257.65 318.72C256.4 320.14 255.35 321.77 254.41 323.45C253.49 325.14 252.72 326.92 252.17 328.74C251.06 332.37 250.77 336.22 251.79 339.41L251.8 339.45C252.16 340.56 251.54 341.76 250.43 342.12C249.36 342.46 248.21 341.9 247.81 340.87C246.93 338.61 246.75 336.21 246.93 333.96C247.12 331.69 247.69 329.53 248.43 327.48C249.18 325.42 250.15 323.48 251.29 321.63C252.43 319.79 253.78 318.07 255.34 316.52C255.96 315.9 256.97 315.9 257.59 316.53C258.18 317.13 258.2 318.07 257.66 318.7L257.65 318.72Z" fill="black"/>
<path d="M269.81 284.01C272.11 285.35 274.73 286.23 277.39 286.9C280.06 287.57 282.81 287.98 285.59 288.21C288.37 288.44 291.17 288.5 293.95 288.38C294.65 288.36 295.34 288.31 296.03 288.25C296.72 288.21 297.41 288.14 298.09 288.08C299.42 287.96 300.87 287.8 301.92 287.55L302.1 287.51C302.9 287.32 303.71 287.82 303.9 288.63C304.06 289.33 303.71 290.03 303.09 290.32C301.45 291.1 300.03 291.32 298.53 291.58C297.05 291.81 295.57 291.92 294.1 291.96C291.15 292.07 288.21 291.98 285.28 291.71C282.35 291.44 279.42 290.9 276.55 290.12C273.68 289.32 270.85 288.21 268.25 286.56C267.55 286.12 267.34 285.19 267.79 284.49C268.22 283.81 269.12 283.59 269.81 284V284.01Z" fill="black"/>
<path d="M272.68 315.01C275.25 316.2 278.19 316.84 281.12 317.34C284.07 317.82 287.07 318.02 290.07 318.07C293.07 318.11 296.07 317.92 298.99 317.51C301.89 317.08 304.8 316.41 307.08 315.14L307.28 315.03C308 314.63 308.91 314.89 309.31 315.61C309.69 316.29 309.47 317.15 308.84 317.58C308.12 318.06 307.38 318.64 306.61 318.96L305.45 319.5L304.28 319.91C303.5 320.2 302.71 320.4 301.92 320.58C301.13 320.79 300.33 320.9 299.54 321.04C296.36 321.55 293.18 321.66 290.01 321.61C286.84 321.56 283.68 321.25 280.55 320.66C277.42 320.08 274.31 319.21 271.32 317.69C270.58 317.31 270.29 316.41 270.67 315.67C271.04 314.95 271.91 314.65 272.63 314.99L272.68 315.01Z" fill="black"/>
<path d="M312.92 313.39C319.33 305.41 317.38 290.86 310.3 284.02" stroke="black" stroke-width="4.24" stroke-miterlimit="10" stroke-linecap="round" stroke-linejoin="round"/>
<path d="M253.34 346.31C256.15 348.11 259.51 349.3 262.95 350.05C266.4 350.8 269.97 351.19 273.53 351.32C277.1 351.42 280.69 351.31 284.2 350.73C287.73 350.17 291.07 349.34 294.18 347.91C294.97 347.56 295.76 347.17 296.57 346.76C297.26 346.39 297.94 345.99 298.61 345.49C299.95 344.52 301.22 343.34 302.42 342.09C303.62 340.84 304.73 339.49 305.73 338.09C306.75 336.69 307.55 335.27 308.32 333.67C309.83 330.53 310.99 327.2 311.57 323.84C312.17 320.51 312.18 317.05 310.99 314.25V314.24C310.53 313.16 311.03 311.92 312.11 311.46C313.18 311 314.41 311.49 314.88 312.55C315.75 314.53 316.15 316.61 316.26 318.63C316.37 320.66 316.2 322.65 315.88 324.58C315.19 328.45 313.89 332.09 312.22 335.55C311.41 337.25 310.39 339.04 309.24 340.59C308.1 342.17 306.87 343.65 305.53 345.04C304.18 346.43 302.76 347.76 301.13 348.93C300.33 349.52 299.43 350.07 298.5 350.55C297.67 350.96 296.82 351.38 295.93 351.78C294.15 352.57 292.26 353.18 290.37 353.62C288.48 354.04 286.59 354.32 284.71 354.51C280.94 354.84 277.19 355.01 273.43 354.88C269.67 354.72 265.92 354.29 262.21 353.47C258.52 352.6 254.82 351.45 251.41 349.33C250.57 348.8 250.31 347.69 250.83 346.85C251.36 346.01 252.47 345.75 253.31 346.27L253.32 346.28L253.34 346.31Z" fill="black"/>
<path d="M245.68 343.49C243.29 349.67 239.44 355.47 234.27 359.89C229.11 364.32 222.77 367.28 216.22 368.75C209.67 370.21 203.02 370.57 196.42 370.25C189.83 369.86 183.28 368.81 176.94 367C170.58 365.24 164.42 362.74 158.63 359.53C155.75 357.92 152.95 356.21 150.25 354.32C147.54 352.46 144.91 350.44 142.43 348.27C137.42 343.97 132.94 339.02 129.1 333.64C125.28 328.24 122.06 322.46 119.53 316.32C117.07 310.18 115.26 303.82 114.06 297.36C112.84 290.9 112.18 284.36 112.04 277.8C111.91 271.23 112.38 264.64 113.46 258.14C114.56 251.65 116.3 245.2 119.11 239.11C121.9 232.97 126.05 227.42 131.31 223.08C132.63 221.99 134.04 221.01 135.54 220.12C136.29 219.67 137.05 219.28 137.88 218.89C138.71 218.52 139.56 218.21 140.42 217.95C142.14 217.44 143.93 217.15 145.77 217.13C147.6 217.11 149.5 217.38 151.32 218.1C153.13 218.81 154.84 220.08 156.04 221.64C157.23 223.18 158.05 224.99 158.44 226.88C159.24 230.7 158.22 234.54 156.52 237.64C155.67 239.22 154.64 240.64 153.52 241.97C153.23 242.29 152.95 242.62 152.66 242.94L151.91 243.75C151.59 244.14 151.29 244.66 151.05 245.27C150.56 246.49 150.26 247.96 149.99 249.51C149.85 250.29 149.72 251.1 149.53 251.97C149.43 252.41 149.32 252.87 149.14 253.39C148.93 253.9 148.76 254.55 147.88 255.35C146.98 256.1 145.64 255.97 144.9 255.06C144.16 254.15 144.28 252.82 145.19 252.08C144.92 252.34 145.09 252.23 145.15 251.98C145.23 251.74 145.32 251.42 145.39 251.07C145.54 250.37 145.67 249.58 145.81 248.78C146.1 247.17 146.4 245.45 147.11 243.68C147.46 242.79 147.94 241.88 148.64 241.02C149.07 240.54 149.26 240.35 149.53 240.05C149.79 239.78 150.02 239.49 150.27 239.21C151.22 238.07 152.09 236.87 152.76 235.61C154.13 233.1 154.78 230.3 154.24 227.75C153.97 226.48 153.43 225.29 152.65 224.28C151.88 223.29 150.91 222.57 149.73 222.1C147.37 221.16 144.37 221.29 141.65 222.09C140.27 222.48 139.03 223.08 137.74 223.85C136.47 224.6 135.23 225.47 134.07 226.43C129.4 230.3 125.63 235.34 123.12 240.93C120.54 246.56 118.93 252.67 117.86 258.86C116.82 265.07 116.36 271.39 116.48 277.69C116.76 290.3 118.95 302.99 123.6 314.64C128.36 326.22 135.78 336.78 145.27 344.96C147.63 347.03 150.12 348.95 152.72 350.73C155.29 352.54 158 354.19 160.73 355.73C166.2 358.77 172.05 361.15 178.11 362.83C184.15 364.56 190.4 365.57 196.66 365.95C202.91 366.27 209.24 365.92 215.28 364.58C221.27 363.2 226.98 360.65 231.67 356.75C236.42 352.91 240.09 347.83 242.78 342.19C243.16 341.4 244.11 341.06 244.9 341.44C245.65 341.8 246 342.68 245.7 343.44L245.68 343.49Z" fill="black"/>
<path d="M288.08 254.38C285.25 254.44 282.48 254.06 279.79 253.46C277.11 252.81 274.48 252 271.96 250.86C269.44 249.73 267.05 248.31 264.83 246.55C264.29 246.08 263.73 245.65 263.22 245.12L262.84 244.73C262.75 244.63 262.48 244.37 262.66 244.53C262.76 244.61 262.95 244.67 263.03 244.66C263.12 244.66 263.12 244.65 263.07 244.66C262.83 244.7 262.24 245.04 261.67 245.38C261.06 245.71 260.42 246.14 259.41 246.38L259.36 246.39C258.5 246.59 257.65 246.06 257.44 245.21C257.24 244.35 257.77 243.5 258.62 243.29C258.67 243.28 258.72 243.27 258.77 243.26C259.06 243.22 259.58 242.99 260.11 242.68C260.68 242.38 261.2 241.97 262.23 241.63C262.5 241.55 262.83 241.49 263.25 241.51C263.66 241.53 264.17 241.7 264.54 241.97L265.42 242.73C265.85 243.12 266.37 243.46 266.85 243.81C268.89 245.14 271.19 246.15 273.53 247.05C275.88 247.9 278.29 248.67 280.74 249.17C283.18 249.71 285.65 250.04 288.08 250.13H288.12C289.29 250.17 290.2 251.16 290.16 252.33C290.12 253.46 289.2 254.35 288.08 254.38Z" fill="black"/>
<path d="M135.81 254.72C139.18 255.37 144.1 255.2 146.3 253.43" stroke="black" stroke-width="3.18" stroke-miterlimit="10" stroke-linecap="round" stroke-linejoin="round"/>
</svg>
