<svg width="450" height="450" viewBox="0 0 450 450" fill="none" xmlns="http://www.w3.org/2000/svg">
<path d="M450 0H0V450H450V0Z" fill="#F7F7F7"/>
<path d="M358.25 190.57C357.33 187.57 356.14 183.2 352.6 182.42C352.58 182.42 352.56 182.41 352.54 182.41C347.02 175.29 338.04 173.87 329.9 171.22C328.77 170.85 327.6 170.46 326.71 169.67C325.81 168.87 325.28 167.74 324.78 166.65C324.04 158.84 325.11 153.22 319.73 143.89C317.12 139.36 304.85 128.09 301.49 124.07C299.08 121.18 294.28 119.54 290.81 118.35C290.37 118.2 289.97 118.2 289.59 118.29C288.79 117.75 287.98 117.25 287.09 116.84C284.02 115.4 280.69 114.68 277.3 114.8C277.01 114.81 276.73 114.88 276.47 114.99C272.11 113.39 267.54 112.38 262.88 112.22C262.48 112.21 262.08 112.21 261.68 112.21C256.45 113.11 251.22 113.93 245.99 112.63C242.48 113.76 238.94 114.83 235.35 115.67C234.92 115.73 234.49 115.79 234.06 115.88C233.58 115.98 233.11 116.11 232.65 116.27C230.84 116.62 229.02 116.9 227.18 117.06C226.74 117.1 226.29 117.12 225.84 117.14C223.67 116.56 221.19 118.35 214.57 119.58C214.64 119.75 207.81 123.29 207.86 123.46C207.37 123.56 206.89 123.66 206.43 123.76C204.19 124.24 202.01 124.95 199.9 125.83C195.42 127.69 191.34 130.22 187.58 133.28C180.19 139.31 174.56 147.31 169.93 155.57C168.42 158.26 167.23 161 166.59 164.03C166.3 165.38 166.03 166.73 165.77 168.09C165.06 169.23 164.64 170.48 164.55 171.79C163.88 171.91 163.25 172.27 162.82 172.9C162.59 173.25 162.36 173.59 162.12 173.94C161.36 175.07 161.7 176.17 162.47 176.86C162.59 187.43 163.86 197.87 167.56 207.85C169.12 212.05 171.51 215.81 174.45 219.18C176.4 221.41 178.57 223.38 180.87 225.21C181.96 226.67 183.23 228 184.62 229.16C186.71 230.91 188.99 232.4 191.34 233.77C192.39 234.38 193.44 235 194.51 235.58C199.53 237.58 204.61 239.17 209.76 240.42C209.76 240.52 209.75 240.63 209.77 240.73C209.79 240.94 209.85 241.14 209.92 241.33C207.61 244.91 205.82 252.39 206.54 256.61C207.07 264.18 209.8 268.57 215.27 273.82C213.21 274.64 215.97 276.84 215.17 278.38C213.97 280.69 213.23 283.17 212.79 285.73C211.99 290.39 211.64 295.14 211.2 299.86C208.54 299.75 205.87 299.69 203.21 299.85C199.78 300.06 196.61 300.79 193.32 301.74C191.83 302.17 189.26 297.92 188.63 297.64C183.86 295.48 178.81 295.14 173.54 294.69C171.01 294.47 168.52 294.81 166.07 295.46C164.22 295.95 162.95 296 161.01 295.92C157.5 286.69 152.2 277.25 142.79 273.33C147.07 265 146.13 255.27 143.07 246.55C145.78 246.65 148.52 246.53 151.11 245.73C154.62 244.65 157.65 242.3 159.19 238.9C160.74 235.5 160.8 231.67 159.21 228.27C157.68 225 154.66 222.52 151.21 221.56C150.79 221.44 150.36 221.47 149.97 221.6C147.07 220.52 143.96 220.04 140.86 220.28C134.94 220.74 129.07 223.59 125.3 228.28C124.73 228.99 122.55 228.16 122.28 228.92C122.12 229.01 121.96 229.11 121.81 229.23C118.54 231.83 117.43 236.08 115.4 239.79C113.49 243.28 112.02 247.09 110.89 250.91C108.61 258.65 108.01 267.03 110.41 274.81C110.42 274.83 110.43 274.84 110.43 274.86C110.21 283.88 111.97 292.84 115.65 301.16C115.7 301.28 115.77 301.38 115.83 301.48C115.99 302.09 116.16 302.69 116.36 303.28C118.01 308.27 120.5 312.92 123.17 317.42C125.91 322.03 128.83 326.54 131.91 330.93C132.67 332.01 133.44 333.1 134.22 334.16C134.98 335.19 135.76 336.26 136.88 336.93C137.59 337.36 138.41 337.59 139.23 337.63C146.13 345.39 154.75 351.54 164.15 355.92C164.6 356.13 165.06 356.33 165.52 356.53C168.94 358.73 172.68 360.36 176.55 361.76C182.17 363.79 187.95 365.31 193.88 366.02C197.12 366.41 200.4 366.52 203.66 366.26C204.77 366.17 206.01 366.1 207.24 365.89C207.38 365.89 207.51 365.9 207.65 365.9C214.61 365.81 221.66 363.73 226.37 358.5C228.19 357.37 229.94 356.12 231.61 354.77C233.93 352.89 236.66 350.54 237.97 347.68C239.8 347.8 240.76 345.32 239.71 344.05C239.73 344.04 239.74 344.03 239.76 344.02C243.93 341.46 245.89 337.26 246.55 332.53C246.88 330.18 247.16 327.86 247.95 325.6C248.71 323.42 249.84 321.39 251.04 319.43C252.26 317.44 253.58 315.53 254.86 313.58C255.57 312.49 256.1 311.37 255.88 310.04C255.67 308.8 255.05 307.59 254.68 306.38C253.03 301.01 252.69 295.27 253.73 289.74C253.74 289.7 253.73 289.66 253.74 289.62C255.31 289.22 256.19 286.69 254.39 285.49C251.1 283.27 248.82 279.77 247.82 275.93C247.2 273.54 247.08 271.03 247.38 268.59C247.67 266.23 248.51 264.09 249.23 261.84C249.6 260.68 249.74 259.55 249.7 258.44C250.09 258.18 250.44 257.8 250.74 257.27C251.16 256.53 251.28 255.71 251.78 255.01C251.98 254.73 252.21 254.5 252.45 254.29C253.4 254.98 254.87 255.03 255.7 253.76C257.55 250.92 259.47 247.86 262.3 245.89C262.49 245.76 262.2 243.85 261.99 242.2C263.15 243.51 264.63 244.51 266.26 245.3C267.73 246.68 269.6 247.6 271.56 248.15C272.46 248.62 273.39 249.06 274.34 249.46C274.64 249.58 274.96 249.6 275.28 249.55C275.56 249.82 275.9 250.03 276.31 250.12C277.14 250.3 277.96 250.4 278.78 250.48C281.55 250.83 284.35 250.98 287.13 250.8C287.53 250.77 287.92 250.73 288.31 250.67C292.8 251.68 297.87 250.24 300.99 246.82C301.26 246.69 301.52 246.54 301.77 246.38C304.21 244.78 305.76 242.33 307.05 239.78C307.89 239.62 308.59 238.96 308.89 238.17C312.75 238.66 316.62 238.49 320.46 237.93C323.9 237.75 327.59 237.68 330.78 236.43C331.37 236.2 331.87 235.81 332.2 235.32C336.59 234.09 340.94 232.54 344.77 230.14C354.69 223.94 360.22 212.41 359.89 200.85C359.83 197.37 359.26 193.88 358.25 190.57Z" fill="#D2EB86"/>
<path d="M312.88 302.01C312.66 297.69 311.98 293.39 310.86 289.22C310.84 289.15 310.81 289.09 310.79 289.03C310.86 288.7 310.85 288.36 310.74 288.04C310.1 286.17 309.02 284.67 307.73 283.21C307.19 282.6 306.63 281.75 306 281.24C306.04 281.09 306.08 280.94 306.12 280.79C306.25 280.26 306.36 279.73 306.45 279.2C307.24 274.77 307.09 270.26 305.98 265.9C305.85 265.39 305.53 264.97 305.12 264.69C304.66 262.49 303.63 260.45 302.22 258.72C302.12 258.47 302.01 258.21 301.91 257.95C301.41 256.73 300.85 255.61 300.11 254.53C299.75 254 299.38 253.48 299.04 252.94C298.84 252.62 298.65 252.29 298.45 251.96C298.43 251.92 298.32 251.72 298.22 251.55C298.09 250.76 297.36 249.92 296.64 249.79C296.62 249.79 296.6 249.78 296.58 249.78C295.53 249.59 294.32 250.04 293.96 251.16C290.98 250.21 287.8 250.41 284.7 249.99C281.2 249.51 273.41 249.38 270.12 248.04C268.64 247.44 267.22 246.67 265.89 245.78C264.52 244.87 261.63 243.36 261.63 243.36C261.63 243.36 258.96 244 256.71 246.5C254.11 249.4 252.61 253.02 251.32 256.68C249.85 259.2 249.02 262.03 248.47 264.9C247.9 267.89 247.31 271.03 247.54 274.09C247.78 277.19 248.25 280.91 250.31 283.2C251.3 284.3 252.53 284.69 253.69 285.59C254.19 285.97 255.34 285.89 255.85 286.31C252.93 292.91 252.92 300.52 255.9 307.06C255.84 307.26 255.79 307.47 255.77 307.69C255.54 310.25 254.08 312.53 252.77 314.65C251.21 317.16 249.79 319.66 248.68 322.42C247.6 325.11 246.81 327.91 246.37 330.79C246.26 331.53 246.09 332.37 246 333.2C245.76 333.37 245.57 333.6 245.43 333.88C242.02 340.97 238.54 348.47 232.96 354.06C230.39 356.64 227.49 358.81 224.49 360.84C222.93 361.89 221.34 363.05 219.6 363.79C217.94 364.49 216.13 364.32 214.47 364.96C212.24 365.82 212.48 369.28 215.05 369.35C215.23 369.35 215.45 369.35 215.63 369.43C216.04 369.61 216.48 369.7 216.89 369.68C221.86 370.62 226.9 371.15 231.96 371.15C234.28 371.15 236.6 371.05 238.93 370.94C239 370.96 239.06 370.99 239.14 371C239.34 371.04 239.53 371.05 239.72 371.07V371.08C239.78 371.09 239.84 371.08 239.9 371.09C240.13 371.11 240.37 371.13 240.6 371.13C242.92 371.27 245.23 371.08 247.51 370.58C247.7 370.54 247.86 370.47 248.01 370.4C251 370.41 254 370.24 256.97 369.86C258.92 369.61 260.87 369.33 262.76 368.76C264.61 368.2 266.33 367.3 268.07 366.46C269.67 365.69 271.35 365.3 273.06 364.87C274.92 364.4 276.69 363.72 278.34 362.72C281.38 360.88 284.38 358.5 286.78 355.83C288.12 354.34 289.33 352.67 290.19 350.84C290.64 349.88 291.04 348.87 291.31 347.84C291.42 347.42 291.51 346.99 291.58 346.55C291.61 346.37 291.67 346.16 291.7 345.96C292.04 345.8 292.36 345.55 292.59 345.25C296.29 343.69 299.54 341.3 302.44 338.46C304.02 336.91 305.65 335.26 306.81 333.34C308.01 331.35 308.76 329.03 309.62 326.86C309.68 326.78 309.75 326.71 309.8 326.62C310.6 325.32 310.83 323.87 310.98 322.36C311.12 320.87 311.25 319.37 311.24 317.88C311.22 315.6 310.84 313.25 309.82 311.2C310.65 310.29 311.42 309.32 311.96 308.21C312.93 306.23 312.99 304.17 312.88 302.01Z" fill="#F9EAA7"/>
<path d="M262.94 262.73L265.03 266.27L263.98 271.8L259.82 273.81L255.61 271.86L256.34 266.27L258.6 262.73H262.94Z" fill="#C088F9"/>
<path d="M269.31 294.62L272.16 297.59L272.41 303.22L268.82 306.12L264.27 305.19L263.71 299.58L265.09 295.62L269.31 294.62Z" fill="#C088F9"/>
<path d="M260.45 325.64L264.24 328.61L264.57 334.23L259.78 337.14L253.72 336.21L252.97 330.6L254.82 326.63L260.45 325.64Z" fill="#C088F9"/>
<path d="M263.4 222.62C266.34 228.1 289.19 238.13 312.04 238.96C329.81 239.6 347.69 233.93 355.45 221.05C369.85 197.16 353.7 177.17 341.55 175.01C332.96 173.48 325.24 170.66 325.24 170.66C325.24 157.77 321.1 139.6 302.21 124.64C296.1 119.8 281.87 113.63 265.64 112.72C248.18 111.74 228.96 115.57 222.46 117.32C218.27 118.45 214.43 119.34 205.24 123.05C177.41 134.26 160.79 159.24 162.7 188.18C163.64 202.49 167.86 215.22 179.12 225.45C191.33 236.55 210.21 242.43 218.51 241.54" stroke="black" stroke-width="4" stroke-miterlimit="10" stroke-linecap="round" stroke-linejoin="round"/>
<path d="M258.6 228.41C258.6 228.41 260.44 222.62 268.06 219.66" stroke="black" stroke-width="4" stroke-miterlimit="10" stroke-linecap="round" stroke-linejoin="round"/>
<path d="M336.25 202.2C336.25 202.2 340.39 203.42 341.8 204.46" stroke="black" stroke-width="4" stroke-miterlimit="10" stroke-linecap="round" stroke-linejoin="round"/>
<path d="M349.88 199.89C349.87 199.41 350.22 197.74 350.48 197.16" stroke="black" stroke-width="4" stroke-miterlimit="10" stroke-linecap="round" stroke-linejoin="round"/>
<path d="M308.01 238.73C306.18 248.75 294.74 250.8 284.58 250.79C275.9 250.79 262.2 245.78 260.23 241.9C258.08 242.5 254.83 243.38 253.1 243.74" stroke="black" stroke-width="4" stroke-miterlimit="10" stroke-linecap="round" stroke-linejoin="round"/>
<path d="M264.98 268.93C264.42 272.2 262.41 274.8 258.81 274.72C255.91 274.65 254.14 271.8 254.59 268.16C255.01 264.84 257 261.67 260.62 261.92C263.29 262.11 265.73 264.55 264.98 268.93Z" stroke="black" stroke-width="4" stroke-miterlimit="10" stroke-linecap="round" stroke-linejoin="round"/>
<path d="M272.92 298.11C273.88 301.29 273.25 304.51 270 306.05C267.38 307.29 264.51 305.53 263.29 302.07C262.18 298.92 262.54 295.18 265.89 293.79C268.36 292.77 271.64 293.86 272.92 298.11Z" stroke="black" stroke-width="4" stroke-miterlimit="10" stroke-linecap="round" stroke-linejoin="round"/>
<path d="M263.78 333.96C262.37 336.96 259.03 338.67 255.5 337.44C252.76 336.49 252.34 333.37 253.58 329.92C254.71 326.78 257.36 324.11 260.83 325.15C263.38 325.92 266.04 329.16 263.78 333.96Z" stroke="black" stroke-width="4" stroke-miterlimit="10" stroke-linecap="round" stroke-linejoin="round"/>
<path d="M209.01 240.63C198.93 255.36 213.25 282.22 231.48 281.33" stroke="black" stroke-width="4" stroke-miterlimit="10" stroke-linecap="round" stroke-linejoin="round"/>
<path d="M215.29 275.87C213.05 280.08 208.12 290.51 212.2 305.14" stroke="black" stroke-width="4" stroke-miterlimit="10" stroke-linecap="round" stroke-linejoin="round"/>
<path d="M210.13 299.5C205.83 297.94 189.41 297.59 184.42 308.86" stroke="black" stroke-width="4" stroke-miterlimit="10" stroke-linecap="round" stroke-linejoin="round"/>
<path d="M146.57 306.3C151.45 298.7 165.08 293.39 171.68 293.44C179.9 293.5 190.41 296.99 191.87 301.32" stroke="black" stroke-width="4" stroke-miterlimit="10" stroke-linecap="round" stroke-linejoin="round"/>
<path d="M161.02 295.91C160.41 290.96 157.15 289.1 154.71 284.96C149.58 276.28 144.41 274.85 142.59 273.81" stroke="black" stroke-width="4" stroke-miterlimit="10" stroke-linecap="round" stroke-linejoin="round"/>
<path d="M129.37 275.39C131.6 276.35 135.32 276.13 138.96 274.81C143.47 273.17 144.73 269.21 145.49 263.53C146.29 257.53 145.69 250.87 141.92 246.92" stroke="black" stroke-width="4" stroke-miterlimit="10" stroke-linecap="round" stroke-linejoin="round"/>
<path d="M208.4 365.94C224.48 374.46 254.4 370.52 263.04 368.22C273.49 365.44 288.51 359.89 292.24 346.35" stroke="black" stroke-width="4" stroke-miterlimit="10" stroke-linecap="round" stroke-linejoin="round"/>
<path d="M296.13 251.15C299.25 253.71 304.95 261.73 306.75 267.08C308.66 272.72 308.91 281.59 304.94 285.14" stroke="black" stroke-width="4" stroke-miterlimit="10" stroke-linecap="round" stroke-linejoin="round"/>
<path d="M256.34 249.35C250.32 255.55 240.82 275.64 250.32 283.2" stroke="black" stroke-width="4" stroke-miterlimit="10" stroke-linecap="round" stroke-linejoin="round"/>
<path d="M254.86 287.29C249.9 298.2 252.38 309.36 261.43 313.45" stroke="black" stroke-width="4" stroke-miterlimit="10" stroke-linecap="round" stroke-linejoin="round"/>
<path d="M253.37 314.88C248.14 322.73 243.69 331.53 246.3 338.67" stroke="black" stroke-width="4" stroke-miterlimit="10" stroke-linecap="round" stroke-linejoin="round"/>
<path d="M265.52 283.82C275.94 290.27 295.03 289.14 299 287.47" stroke="black" stroke-width="4" stroke-miterlimit="10" stroke-linecap="round" stroke-linejoin="round"/>
<path d="M268.49 314.88C277.42 317.79 297.75 319.72 304.45 314.88" stroke="black" stroke-width="4" stroke-miterlimit="10" stroke-linecap="round" stroke-linejoin="round"/>
<path d="M309.41 311.92C315.82 303.94 313.87 289.39 306.79 282.55" stroke="black" stroke-width="4" stroke-miterlimit="10" stroke-linecap="round" stroke-linejoin="round"/>
<path d="M248.16 343.83C250.7 347.74 269.53 353.04 283.13 349.45C304.46 343.83 315.22 331.28 309.42 311.92" stroke="black" stroke-width="4" stroke-miterlimit="10" stroke-linecap="round" stroke-linejoin="round"/>
<path d="M240.72 341.38C237.74 348.23 230.22 361.93 210.13 365.65C193.28 368.77 172.51 361.39 159.3 353.58C139.45 341.84 129.06 329.83 121.44 316.38C111.13 298.18 108.71 279.72 108.89 264.72C109.09 248.75 113.5 239.69 119.45 232.85C129.82 220.95 139.76 219.54 145.9 220.41C152.86 221.4 160.12 224.3 160.78 232.81C161.27 239.14 157.56 245.79 147.89 246.63C142.23 247.12 138.82 246.09 136.83 244.31" stroke="black" stroke-width="4" stroke-miterlimit="10" stroke-linecap="round" stroke-linejoin="round"/>
<path d="M327.52 126.97C327.2 126.42 326.71 125.95 326.02 125.61C320.45 122.88 308.94 119.56 304.25 125.44C303.22 125.05 302.07 125.08 301.04 125.77C296.2 129.01 293.28 133.52 291.13 138.87C290.55 140.32 290.15 141.66 289.83 143.05C287.72 139 285.09 135.32 281.06 132.87C280.54 132.55 280 132.39 279.47 132.34C279.45 132.33 279.43 132.31 279.41 132.3C277.2 130.89 275 130.24 272.43 130.14C272.14 129.99 271.82 129.87 271.46 129.78C263.66 127.91 255.73 129.32 249.31 134.23C248.65 134.73 248.22 135.34 247.94 135.98C247.2 136.59 246.5 137.23 245.81 137.9C241.25 139.78 237.52 146.35 236.3 150.44C235.95 151.63 236.13 152.65 236.63 153.46C236.56 153.77 236.51 154.1 236.49 154.45C236.45 155.2 236.41 155.95 236.38 156.71C236.14 157.11 235.97 157.54 235.89 158.02C234.98 163.67 234.41 169.45 235.7 175C234.55 176.23 233.99 177.99 234.5 179.69C235.05 181.53 235.83 183.34 236.87 184.95C237.03 185.2 237.21 185.43 237.41 185.65C237.46 185.71 237.53 185.77 237.58 185.83C237.7 185.95 237.81 186.07 237.94 186.17C238.04 186.26 238.14 186.34 238.25 186.41C238.41 186.53 238.58 186.64 238.76 186.74C238.8 186.76 238.83 186.78 238.86 186.8C239.28 187.02 239.73 187.19 240.2 187.28C240.47 188.02 240.78 188.74 241.14 189.45C241.25 195.14 249.1 200.67 253.32 203.17C255.71 204.58 258.85 207.17 261.85 206.9C262.97 207.39 263.95 207.58 265.37 207.65C265.57 207.77 265.77 207.89 266 207.99C269.13 209.38 272.43 207.22 275.33 206.03C279.19 205.26 282.92 203.72 285.72 201.27C286.36 201.11 286.99 200.76 287.56 200.14C292.27 195.04 296.24 189.91 297.16 183.04C300.6 187.11 305 190.24 310.16 192C313.42 193.12 320.04 194.53 323.09 191.83C329.48 190.91 335.28 187.06 338.63 181.5C341.89 176.07 343.07 170.57 343.15 164.83C345.99 152.67 339.56 133.3 327.52 126.97ZM282.58 193.74C281.94 194.01 281.34 194.44 280.84 195.09C279.31 197.07 276.21 197.4 273.93 197.86C271.72 198.31 269.62 198.6 267.43 198.52C267.08 198.13 266.71 197.76 266.29 197.45C264.82 196.37 263.21 195.92 261.53 195.24C257.34 193.52 254.02 190.58 251.61 186.77C251.28 186.25 250.85 185.86 250.36 185.56C250.27 185.35 250.17 185.13 250.05 184.91C248.76 182.62 248.94 179.63 248.61 177.07C248.28 174.51 247.81 172 247.2 169.5C247.43 169.04 247.6 168.52 247.67 167.94C248.22 163.32 248.82 158.73 249.81 154.18C250.09 152.9 249.79 151.81 249.18 150.98C251.28 147.53 254.28 144.66 257.94 142.41C258.67 141.96 259.2 141.42 259.58 140.82C259.85 140.79 260.14 140.74 260.43 140.65C262.22 140.12 264.01 139.68 265.82 139.29C267.07 139.17 268.3 139.14 269.52 139.19C269.81 139.92 270.38 140.58 271.35 141.03C273.31 141.94 275.69 142.28 277.45 143.42C279.57 144.79 281.3 147.22 282.7 149.25C282.9 149.54 283.12 149.78 283.34 150C282.98 151.5 283.41 153.16 285.15 154.17C285.15 154.17 285.16 154.17 285.16 154.18C285.2 154.26 285.23 154.34 285.27 154.42C285.34 154.7 285.44 154.99 285.57 155.28C286.21 156.73 286.85 158.18 287.5 159.63C287.28 160.5 287.41 161.48 288.07 162.49C289.43 164.54 289.03 168 289.13 170.4C289.26 173.37 289.37 176.36 289.36 179.34C289.36 185.45 286.45 189.47 282.58 193.74ZM334.63 156.57C335.64 163.49 335.79 169.62 332.52 176C330.19 180.56 326.22 183.36 321.47 183.89C321.47 183.89 321.47 183.89 321.46 183.89C317.94 182.48 314.91 182.11 311.67 179.88C307.81 177.22 305.9 174.89 304.42 170.4C302.85 165.63 301.72 160.75 300.89 155.79C300.74 154.92 300.37 154.26 299.87 153.79C300.77 147.06 303.1 139.88 307.34 134.6C308.39 134.44 309.24 133.83 309.8 133.01C310.58 132.45 311.85 132.02 313.2 131.67C313.86 132.6 314.91 133.23 316.29 133.18C318.12 133.12 319.95 133.09 321.79 133.07C328.99 134.84 333.84 144.89 335.34 153.54C334.76 154.35 334.45 155.38 334.63 156.57Z" fill="#C088F9"/>
<path d="M289.07 168.64C291.04 186.65 281.65 198.45 270.04 198.45C258.43 198.45 247.03 184.43 247.03 168.64C247.03 152.85 256.44 140.06 268.05 140.06C279.66 140.06 289.07 152.86 289.07 168.64Z" fill="white"/>
<path d="M334.55 157.28C336.12 172.58 328.64 182.6 319.4 182.6C310.16 182.6 301.09 170.69 301.09 157.28C301.09 143.87 308.58 133 317.82 133C327.06 133 334.55 143.87 334.55 157.28Z" fill="white"/>
<path d="M162.56 181.98L182.81 178.23L222.34 174.27H228.16L229.1 177.53L226.48 180.67L169.63 187.83L158.14 193.27L154.17 198.54L152.6 203.66L149.26 205.02L145.8 202.32L147.53 193.71L153.36 186.91L162.56 181.98Z" fill="#C088F9"/>
<path d="M293.33 151.15C290.06 135.15 275.56 125.26 257.96 129.4C241.29 133.32 232.09 153.27 234.46 172.1C236.83 190.91 248.31 209.42 271.17 207.71C290.07 206.3 297.85 189.36 297.66 182.39" stroke="black" stroke-width="4" stroke-miterlimit="10" stroke-linecap="round" stroke-linejoin="round"/>
<path d="M290.06 141.63C291.3 135.25 297 124.7 310.67 122.32C325.42 119.75 339.44 130.17 343.09 151.68C346.89 174.08 336.78 191.1 320.95 193.14C307.82 194.83 300.64 188.44 297.55 184.6" stroke="black" stroke-width="4" stroke-miterlimit="10" stroke-linecap="round" stroke-linejoin="round"/>
<path d="M265.14 139.82C276.81 138.59 287.26 152.82 288.99 165.09C290.82 178.02 287.96 194.57 274.84 197.16C258.11 200.47 249.19 185.49 247.35 172.06C245.51 158.63 251.4 141.26 265.14 139.82Z" stroke="black" stroke-width="4" stroke-miterlimit="10" stroke-linecap="round" stroke-linejoin="round"/>
<path d="M313.35 132.68C324.81 130.07 332.31 142.8 334.18 153.79C336.11 165.15 335.17 180.9 322.81 183.05C312.86 184.78 303.5 173.56 301.52 160.14C299.86 148.89 302.83 135.07 313.35 132.68Z" stroke="black" stroke-width="4" stroke-miterlimit="10" stroke-linecap="round" stroke-linejoin="round"/>
<path d="M149.59 205.03C149.48 205.03 149.37 205.03 149.26 205.02C147.06 204.84 145.42 202.91 145.6 200.71C146.67 187.54 159.17 182.45 169.47 180.49C177.22 179.02 211.77 174.26 226.1 172.95C227.81 173.36 228.9 174.85 229.06 176.55C229.18 177.86 229.19 179.91 227.35 180.89C213.19 182.18 178.58 186.9 170.96 188.35C159.8 190.47 154.11 194.72 153.57 201.36C153.4 203.45 151.65 205.03 149.59 205.03Z" stroke="black" stroke-width="4" stroke-miterlimit="10" stroke-linecap="round" stroke-linejoin="round"/>
<path d="M273.82 157.78L270.04 163.5L271.93 174.23L280.45 177.53L285.24 172.96V163.36L279.75 157.67L275.3 156.6L273.82 157.78Z" fill="#272E37"/>
<path d="M320.75 150.86L319.02 156.6L321.57 164.32L328.31 166.41L332.12 161.8L329.07 150.86L325.57 148.93L323.09 149.94L320.75 150.86Z" fill="#272E37"/>
<path d="M331.41 156.59C331.99 161.49 330.72 165.78 326.64 166.36C323.25 166.84 319.9 163.99 319.17 158.57C318.51 153.65 320.12 149.5 324.37 148.96C327.77 148.54 330.81 151.54 331.41 156.59Z" stroke="black" stroke-width="4" stroke-miterlimit="10" stroke-linecap="round" stroke-linejoin="round"/>
<path d="M285.07 165.6C285.77 171.56 284.23 176.76 279.27 177.47C275.15 178.06 271.08 174.59 270.2 168.02C269.4 162.04 271.36 157 276.52 156.35C280.65 155.83 284.35 159.48 285.07 165.6Z" stroke="black" stroke-width="4" stroke-miterlimit="10" stroke-linecap="round" stroke-linejoin="round"/>
<path d="M259.44 111.46C259.71 110.28 259.56 109.19 259.63 108C259.72 106.51 259.65 105.04 259.65 103.55L259.68 97.1599C259.7 93.2199 259.71 89.2899 259.73 85.3499C259.73 84.5499 259.5 83.2999 259.74 82.5399C259.77 82.4399 259.03 83.1199 259.94 82.3099C260.15 82.1299 260.35 81.9499 260.56 81.7599C261.92 80.5699 263.26 79.3599 264.57 78.1299C269.45 73.5299 274 68.4899 277.58 62.7899C279.37 59.9399 280.94 56.8999 282.08 53.7299C282.65 52.1599 282.91 50.3799 282.2 48.8099C282.16 48.4799 282.05 48.1499 281.83 47.8399C280.86 46.4999 279.35 45.5799 277.73 45.6599C272.94 44.9999 267.87 49.2799 264.7 52.3499C262.44 54.5399 260.15 56.7699 258.16 59.2199C256.1 61.7399 254.27 64.4399 254.07 67.7599C252.65 70.6199 251.53 73.6599 250.61 76.7399C249.63 78.4499 248.93 80.3199 248.4 82.2499C247.48 85.6099 246.8 89.0499 246.37 92.4999C246.36 92.6199 246.34 92.7399 246.33 92.8499C245.9 96.7399 246.24 100.65 246.58 104.54C246.75 106.42 247.09 108.43 246.98 110.32C246.94 110.94 246.72 111.42 246.88 112.04C247.06 112.71 247.43 113.4 248.05 113.74C248.49 113.98 249.17 114.22 249.66 113.98C249.86 113.88 250.02 113.69 250.24 113.62C250.47 113.55 250.71 113.65 250.92 113.77C251.12 113.9 251.3 114.07 251.51 114.18C251.83 114.35 252.21 114.39 252.57 114.33C253.02 114.26 253.44 114.06 253.78 113.77C253.88 113.68 253.97 113.58 254.09 113.52C254.28 113.42 254.51 113.44 254.71 113.51C255.04 113.63 255.28 113.87 255.62 113.96C255.95 114.05 256.28 114.1 256.62 114.11C257.26 114.12 257.92 113.94 258.41 113.51C258.91 113.07 259.18 112.42 259.37 111.78C259.39 111.68 259.42 111.57 259.44 111.46Z" fill="#D2EB86"/>
<path d="M246.63 113.28C244.58 95.5599 248.06 73.4399 256.34 61.2099C264.62 48.9699 273.94 41.3499 281.36 46.0199C286.56 49.2899 282.81 58.5299 275.82 66.9499C268.83 75.3699 259.73 82.8599 254.93 84.1699" stroke="black" stroke-width="4" stroke-miterlimit="10" stroke-linecap="round" stroke-linejoin="round"/>
<path d="M258.6 112.56C260.02 104.43 260.01 90.05 258.6 82.49" stroke="black" stroke-width="4" stroke-miterlimit="10" stroke-linecap="round" stroke-linejoin="round"/>
<path d="M261.98 112.57C255.59 112.48 249.11 112.95 243.25 113.64" stroke="black" stroke-width="4" stroke-miterlimit="10" stroke-linecap="round" stroke-linejoin="round"/>
<path d="M221.82 117.12C221.61 116.83 221.42 116.55 221.28 116.29C220.21 114.29 219.22 112.25 218.29 110.18C216.42 106.05 214.74 101.83 212.89 97.6901C211.31 94.1601 209.58 90.6801 207.48 87.4201C207.28 87.1101 207.08 86.8101 206.87 86.5101C208.48 84.8901 209.86 82.9401 211.15 81.2401C213.61 77.9901 215.78 74.5201 217.62 70.8901C219.55 67.1001 221 63.1001 222.88 59.2901C224.71 55.5501 226.54 51.6801 226.33 47.4101C226.32 47.1501 226.26 46.9101 226.18 46.6901C226.31 45.2201 226.1 43.7801 225.4 42.4001C225.37 42.3401 225.34 42.2801 225.3 42.2001C225.19 41.9901 225.08 41.7801 224.93 41.5901C224.81 41.4201 224.69 41.2401 224.56 41.0701C223.89 40.2001 222.93 40.1101 222.08 40.4501C220.77 40.1901 219.28 40.4501 218.09 40.7901C214.35 41.8601 211.5 44.6301 209.06 47.5301C206.59 50.4601 204.38 53.6001 202.51 56.9401C200.66 60.2501 198.51 63.9901 198.95 67.8901C196.98 73.0701 196.03 78.6301 196.23 84.1901C196.23 84.2501 196.25 84.3001 196.25 84.3501C196.25 85.1201 196.27 85.9001 196.3 86.6701C196.44 89.9301 196.81 93.1801 197.38 96.3901C197.94 99.5301 198.71 102.64 199.7 105.68C200.17 107.13 200.73 109.03 201.72 110.41C202.4 112.93 203.2 115.47 204.38 117.79C205.29 119.58 205.71 121.69 206.57 123.55C207.17 124.84 208.14 125.99 209.54 126.41C210.89 126.81 212.34 126.75 213.73 126.67C216.71 126.49 220.79 125.85 222.65 123.07C223.95 121.09 223.01 118.78 221.82 117.12Z" fill="#D2EB86"/>
<path d="M207.87 125.49C199.4 112.5 191.68 85.27 197.71 68.08C206.41 43.24 217.65 38.5 222.46 39.66C227.43 40.86 228.38 46.16 225.92 53.78C221.43 67.68 209.18 86.39 203.92 87.47" stroke="black" stroke-width="4" stroke-miterlimit="10" stroke-linecap="round" stroke-linejoin="round"/>
<path d="M207.38 85.27C210.69 90.85 218.41 114.95 223.68 120.97" stroke="black" stroke-width="4" stroke-miterlimit="10" stroke-linecap="round" stroke-linejoin="round"/>
<path d="M258.6 112.57C260.02 104.44 260.01 90.06 258.6 82.5" stroke="black" stroke-width="4" stroke-miterlimit="10" stroke-linecap="round" stroke-linejoin="round"/>
</svg>
