<svg width="100%" height="100%" viewBox="0 0 450 450" fill="none" xmlns="http://www.w3.org/2000/svg" style="display: block;">
<path d="M316.49 187.44L299.69 189.96L286.18 184.27L282.05 177L284.09 160.83L290.26 159.98L311.71 163.21L327.17 172.03L326.96 179.75L316.49 187.44Z" fill="#F9F9E0"/>
<path d="M302.61 162.91L314.21 166.88L312.57 171.48L306.99 172.53L302.99 168.71L302.61 162.91Z" fill="#525963"/>
<path d="M262.08 192.1L250.8 192.86L242.94 190.16L238.22 186.27L233.18 178.13L247.81 174.66L270.56 169.63L283.34 170.76L282.07 175.98L276.29 185.54L262.08 192.1Z" fill="#F9F9E0"/>
<path d="M251.28 174.88L269.76 170.17L267.02 180.21L260.39 183.83L253.58 181.53L251.28 174.88Z" fill="#525963"/>
<path d="M304.4 144.17L292.34 136.66L282.05 129.41L288.91 124.03L296.17 124.66L308.08 134.18L315.52 148.46L304.4 144.17Z" fill="BODY_PLACEHOLDER"/>
<path d="M280.61 189.91L268.15 199.39L248 201.91L230.88 194.33L225.76 180.44L231.91 179.34L237.37 185.55L244.04 191.37L258.26 193.12L273.15 186.74L282.05 174.14L302.02 179.79L317.13 187.47L307.21 190.39L296.17 189.45L286.18 184.27L280.61 189.91Z" fill="COLOR_PLACEHOLDER"/>
<path d="M254.37 172.53L225.76 181.73L223.51 173.5L225 162.86L240.75 155.12L255.97 142.19L271.15 142.39L280.23 150.88L295.76 138.27L305.25 144.61L318.92 152.01L326.68 158.58L329.02 161.49L330.33 167.41L327.17 172.03L311.07 164.15L283.58 159.42L283.01 168.85L254.37 172.53Z" fill="COLOR_PLACEHOLDER"/>
<path d="M253.77 217.5C258.12 215.54 278.54 220.13 281.67 226.46C284.8 232.79 283.49 241.34 274.3 240.22C265.11 239.1 255.15 239.19 253.2 237.4C251.26 235.61 241.48 227.05 242.91 224.44C244.34 221.83 252.1 218.25 253.77 217.5Z" fill="BODY_PLACEHOLDER"/>
<path d="M282.5 237.84C276.86 236.74 271.36 233.11 265.69 232.34C263.18 232 259.55 232.12 256.73 233.69" stroke="black" stroke-width="4.24" stroke-miterlimit="10" stroke-linecap="round" stroke-linejoin="round"/>
<path d="M250.55 230.2C249.04 233.31 249.61 237.92 253.47 239.14" stroke="black" stroke-width="3" stroke-miterlimit="10" stroke-linecap="round" stroke-linejoin="round"/>
<path d="M280.09 129.49C285.17 124.44 292.47 123.51 297.67 125.94C303.6 128.7 314.21 139.49 317.7 151.24" stroke="black" stroke-width="3.6" stroke-miterlimit="10" stroke-linecap="round" stroke-linejoin="round"/>
<path d="M289.8 132.37C292.89 135.27 296.41 137.69 300.11 139.83C301.96 140.9 303.88 141.89 305.82 142.86L311.68 145.82C315.57 147.74 319.69 149.78 323.31 152.66C325.13 154.08 326.82 155.66 328.35 157.42C329.93 159.24 331.27 161.46 331.89 163.96C332.2 165.2 332.35 166.49 332.32 167.75C332.26 168.97 332.24 170.39 331.25 171.98C330.74 172.76 329.87 173.46 328.96 173.75C328.04 174.04 327.28 174.09 326.41 173.97C324.75 173.69 323.69 173.02 322.67 172.45C320.68 171.26 318.94 170.09 317.09 169.07C315.25 168.04 313.36 167.15 311.41 166.4C307.52 164.91 303.33 164.02 299.1 163.36C294.88 162.74 290.59 162.37 286.47 162.66H286.44C285.34 162.74 284.38 161.91 284.3 160.81C284.22 159.71 285.05 158.75 286.15 158.67C290.78 158.35 295.26 158.75 299.7 159.4C304.11 160.09 308.54 161.01 312.84 162.66C314.98 163.48 317.06 164.46 319.04 165.57C321.02 166.66 322.93 167.94 324.69 168.99C325.56 169.51 326.45 169.94 326.97 170C327.17 170.04 327.54 170 327.66 169.95C327.8 169.9 327.81 169.87 327.92 169.75C328.13 169.47 328.32 168.6 328.31 167.66C328.34 166.73 328.22 165.82 328.01 164.94C327.56 163.18 326.59 161.54 325.3 160.07C323.94 158.55 322.44 157.1 320.81 155.82C317.55 153.24 313.83 151.24 309.94 149.19L304.15 146.07C302.21 145.03 300.25 143.96 298.35 142.79C294.52 140.47 290.89 137.73 287.7 134.51C287.12 133.92 287.12 132.97 287.71 132.39C288.29 131.83 289.21 131.82 289.8 132.37Z" fill="black"/>
<path d="M279.63 152.23C280.66 150.51 281.77 149.2 282.95 147.86C284.12 146.55 285.36 145.31 286.65 144.13C287.94 142.95 289.3 141.82 290.77 140.8C292.25 139.79 293.81 138.83 295.76 138.27C296.56 138.04 297.39 138.5 297.62 139.3C297.84 140.07 297.42 140.88 296.67 141.13L296.59 141.16C295.29 141.6 293.95 142.47 292.69 143.43C291.43 144.4 290.22 145.5 289.08 146.66C287.93 147.82 286.84 149.04 285.81 150.3C284.8 151.55 283.81 152.9 283.16 154.12L283.12 154.19C282.6 155.17 281.39 155.54 280.42 155.03C279.44 154.51 279.07 153.3 279.58 152.33C279.59 152.29 279.61 152.26 279.63 152.23Z" fill="black"/>
<path d="M287.6 169.65C281.48 169.18 270.28 169.7 260.07 171.48C253.53 172.62 246.32 174.08 238.8 176.01C233.08 177.47 222.85 182.48 219.46 184.11" stroke="black" stroke-width="4" stroke-miterlimit="10" stroke-linecap="round" stroke-linejoin="round"/>
<path d="M232.66 175.52C233.79 184.11 239.08 192.25 250.47 193.38C261.86 194.51 268.54 190.67 273.15 186.74C277.76 182.81 282.16 176.39 282.73 171.19C283.48 164.35 285.04 159.63 280.24 150.88C275.31 141.89 264.48 140.15 257.25 141.68" stroke="black" stroke-width="4" stroke-miterlimit="10" stroke-linecap="round" stroke-linejoin="round"/>
<path d="M280.33 177.97C282.78 178.07 284.09 179.14 284.09 181.59C284.09 183.8 281.3 187.81 279.03 190.74C274.96 196 269.9 199.83 261.83 201.26C253.43 202.74 240.31 202.61 232.25 194.91C226.35 189.27 224.32 183.27 223.69 174.94C223.28 169.59 223.49 165.53 225 162.87C229.54 160.59 235.44 158.86 246.58 151.48C253.97 146.59 256.52 142.54 257.78 137.32" stroke="black" stroke-width="4" stroke-miterlimit="10" stroke-linecap="round" stroke-linejoin="round"/>
<path d="M286.18 184.27C290.2 186.39 297.56 191.89 309.88 190.11C318.63 188.84 323.39 183.98 325.27 181.18C327.6 177.72 327.74 173.84 327.18 172.03" stroke="black" stroke-width="4" stroke-miterlimit="10" stroke-linecap="round" stroke-linejoin="round"/>
<path d="M221.07 191.37C222.05 194.12 225.71 199.2 231.57 202.75C238.44 206.91 245.06 207.82 248.68 207.63" stroke="black" stroke-width="3" stroke-miterlimit="10" stroke-linecap="round" stroke-linejoin="round"/>
<path d="M223.75 203.34C225.58 206.09 231.17 210.27 237.62 210.86" stroke="black" stroke-width="3" stroke-miterlimit="10" stroke-linecap="round" stroke-linejoin="round"/>
<path d="M251.31 174.42C251.02 178.41 252.41 182.42 257.75 183.65C261.51 184.51 265.91 182.39 267.74 179.85C270.21 176.42 270.01 172.83 270.21 170.84" stroke="black" stroke-width="3" stroke-miterlimit="10" stroke-linecap="round" stroke-linejoin="round"/>
<path d="M302.59 161.94C301.4 165.4 301.85 171.36 305.85 172.53C309.85 173.7 314.6 172.03 315.52 166" stroke="black" stroke-width="3" stroke-miterlimit="10" stroke-linecap="round" stroke-linejoin="round"/>
<path d="M148.56 181.98L168.81 178.23L208.34 174.27H214.16L215.1 177.53L212.48 180.67L155.63 187.83L144.14 193.27L140.17 198.54L138.6 203.66L135.26 205.02L131.8 202.32L133.53 193.71L139.36 186.91L148.56 181.98Z" fill="COLOR_PLACEHOLDER"/>
<path d="M135.59 205.03C135.48 205.03 135.37 205.03 135.26 205.02C133.06 204.84 131.42 202.91 131.6 200.71C132.67 187.54 145.17 182.45 155.47 180.49C163.22 179.02 197.77 174.26 212.1 172.95C213.81 173.36 214.9 174.85 215.06 176.55C215.18 177.86 215.19 179.91 213.35 180.89C199.19 182.18 164.58 186.9 156.96 188.35C145.8 190.47 140.11 194.72 139.57 201.36C139.4 203.45 137.65 205.03 135.59 205.03Z" stroke="black" stroke-width="4" stroke-miterlimit="10" stroke-linecap="round" stroke-linejoin="round"/>
<path d="M282.25 173.5C293.43 176.39 308.77 181.24 317.14 187.95" stroke="black" stroke-width="4" stroke-miterlimit="10" stroke-linecap="round" stroke-linejoin="round"/>
<path d="M262.3 213.82C264.56 210.57 273.1 203.8 282.05 186.48" stroke="black" stroke-width="4" stroke-miterlimit="10" stroke-linecap="round" stroke-linejoin="round"/>
<path d="M288.78 185.73C293.48 193.57 296.78 197.73 298.18 198.43" stroke="black" stroke-width="4" stroke-miterlimit="10" stroke-linecap="round" stroke-linejoin="round"/>
</svg>
