<svg width="100%" height="100%" viewBox="0 0 450 450" fill="none" xmlns="http://www.w3.org/2000/svg">
<path d="M294.51 181.71L281.19 190.65L263.57 190.09L249.44 183.24L250.15 176.92L292.39 156.95L296.66 156.93L296.46 159.21L305.16 155.02L316.36 153.27H330.24L338.48 156.93L338.85 165.05L332.93 172.98L318.53 180.58L307.8 173.79L295.44 170.95L294.51 181.71Z" fill="white"/>
<path d="M301.22 171.51C303.42 168.62 303.85 165.75 303.85 165.75C303.85 165.75 307.8 164.17 311.05 165.29" stroke="#FF7087" stroke-width="2" stroke-miterlimit="10" stroke-linecap="round" stroke-linejoin="round"/>
<path d="M306.13 165.12C306.15 162.79 307.42 160.62 308.64 160.03" stroke="#FF7087" stroke-width="2" stroke-miterlimit="10" stroke-linecap="round" stroke-linejoin="round"/>
<path d="M308.64 175.6C310.76 173.45 312.66 170.73 313.44 168.76" stroke="#FF7087" stroke-width="2" stroke-miterlimit="10" stroke-linecap="round" stroke-linejoin="round"/>
<path d="M311.65 171.96C313.32 172.34 319.02 172.59 320.08 171.96" stroke="#FF7087" stroke-width="2" stroke-miterlimit="10" stroke-linecap="round" stroke-linejoin="round"/>
<path d="M249.44 183.24C253.73 182.41 256.27 180.67 257.26 179.35C260.51 180.01 263.33 181.7 265.45 182.55" stroke="#FF7087" stroke-width="2" stroke-miterlimit="10" stroke-linecap="round" stroke-linejoin="round"/>
<path d="M261.44 180.74C261.44 180.74 261.87 179.24 262.61 177.98C263.02 177.28 264.27 177 265.26 175.89" stroke="#FF7087" stroke-width="2" stroke-miterlimit="10" stroke-linecap="round" stroke-linejoin="round"/>
<path d="M262.37 188.95C264.95 185.94 267.85 185.24 270.53 184.53" stroke="#FF7087" stroke-width="2" stroke-miterlimit="10" stroke-linecap="round" stroke-linejoin="round"/>
<path d="M270.3 166.81L284.27 160.29L286.43 170.98L279.75 176.39L275.91 175.64L272.08 173.09L270.3 166.81Z" fill="#525963"/>
<path d="M320.86 152.81L327.66 153.27L333.35 154.65L331.44 162.13L327.63 165.05L322.83 163.14L320.86 159.59V152.81Z" fill="#525963"/>
<path d="M298.92 128.31L314.71 126.7L330.43 132.93L342.18 145.67L347.62 147.67L348.64 151.96L343.84 156L328.23 152.71L309.77 153.86L297.35 159.02L295.84 155.41L248.79 176.44L249.44 183.24L260.08 189L281.26 190.09L295.12 180.04L297.63 170.32L309.68 175.38L313.08 178.47L319.04 179.35L327.16 177.74L337.34 167.68L339.56 157.42L345.42 156.27L348.01 160.1L345.21 166.46L343.23 178.79L335.66 186.74L317.13 188.36L299.61 184.53L299.19 188.76L295.06 191.77L292.86 194.8L281.73 205.71L270.05 210.46L258.57 211.57L250.32 209.22L242.29 202.21L240.1 195.84L239.28 189.65L238.34 181.71L234.87 176.99L236.93 170.04L240.31 159.59L249.74 146.1L266.15 131.87L281.35 130.88L291.03 137.66L298.92 128.31Z"
fill="#C088F9"/>
<path d="M345.42 155.41C347.8 158.65 347.21 162.55 345.21 166.46C346.97 176.39 339.2 186.4 328.41 188.53C310.06 192.15 303.7 183.24 299.61 184.53" stroke="black" stroke-width="4" stroke-miterlimit="10" stroke-linecap="round" stroke-linejoin="round"/>
<path d="M291.03 140.1C292.27 133.72 296.78 128.04 303.98 126.08C311.11 124.14 324.11 127.97 329.18 132.93C335.6 139.21 340.32 141.07 342.41 146.2" stroke="black" stroke-width="4" stroke-miterlimit="10" stroke-linecap="round" stroke-linejoin="round"/>
<path d="M295.84 155.41C298.34 165.09 295.92 179.02 294.51 181.7" stroke="black" stroke-width="4" stroke-miterlimit="10" stroke-linecap="round" stroke-linejoin="round"/>
<path d="M237.59 180.29C235.14 178.78 234.68 176.82 234.49 175.03C234.3 173.24 235.71 169.38 237.5 168.29C240.46 162.57 240.53 159.76 243.26 156C245.88 152.38 249.39 146.97 252.63 143.78C262.35 134.18 267.11 130.64 275.92 130.09C282.65 129.67 290.55 134.4 292.41 144.59C293.66 144.45 297.86 144.16 298.76 148.61C299.36 151.56 298.84 155.95 291.3 156.59C287.77 156.66 266.17 170 257.84 172.5C254.36 174.95 250.59 177.49 244.76 178.43" stroke="black" stroke-width="4" stroke-miterlimit="10" stroke-linecap="round" stroke-linejoin="round"/>
<path d="M248.47 177.52C248.1 179.03 248.25 181.71 249.43 183.24C251.4 185.79 255.37 186.94 258.8 187.28C262.61 189.33 265.53 190.16 268.73 190.46C273.24 190.88 278.05 190.79 284.12 188.48C291.62 185.63 291.11 182.64 294.5 181.7C297.42 180.85 299.37 182.52 299.6 184.52C299.84 186.59 298.8 188.34 297.13 189.43" stroke="black" stroke-width="4" stroke-miterlimit="10" stroke-linecap="round" stroke-linejoin="round"/>
<path d="M162.56 181.98L182.81 178.23L222.34 174.27H228.16L229.1 177.53L226.48 180.67L169.63 187.83L158.14 193.27L154.17 198.54L152.6 203.66L149.26 205.02L145.8 202.32L147.53 193.71L153.36 186.91L162.56 181.98Z"
fill="#C088F9"/>
<path d="M149.59 205.03C149.48 205.03 149.37 205.03 149.26 205.02C147.06 204.84 145.42 202.91 145.6 200.71C146.67 187.54 159.17 182.45 169.47 180.49C177.22 179.02 211.77 174.26 226.1 172.95C227.81 173.36 228.9 174.85 229.06 176.55C229.18 177.86 229.19 179.91 227.35 180.89C213.19 182.18 178.58 186.9 170.96 188.35C159.8 190.47 154.11 194.72 153.57 201.36C153.4 203.45 151.65 205.03 149.59 205.03Z" stroke="black" stroke-width="4" stroke-miterlimit="10" stroke-linecap="round" stroke-linejoin="round"/>
<path d="M270.05 168.23C270.81 173.94 274.62 177.93 280.13 176.8C286.86 175.42 287 166.94 284.91 161.41" stroke="black" stroke-width="4" stroke-miterlimit="10" stroke-linecap="round" stroke-linejoin="round"/>
<path d="M236.42 166.61C237.82 165.83 239.26 165.38 240.68 165.09C242.1 164.8 243.52 164.68 244.89 164.64C245.72 164.62 246.41 165.27 246.43 166.1C246.45 166.87 245.89 167.51 245.16 167.63C243.91 167.82 242.71 168.09 241.57 168.47C240.44 168.85 239.4 169.36 238.56 169.98C237.67 170.64 236.42 170.46 235.75 169.57C235.08 168.68 235.27 167.43 236.16 166.76C236.23 166.71 236.3 166.66 236.37 166.62L236.42 166.61Z" fill="black"/>
<path d="M296.66 160.1C302.08 157.21 306.22 154.93 313.44 153.35C333.97 148.85 338 157.8 345.42 155.41C347.82 154.63 348.64 153.16 348.64 151.16C348.64 147.87 345.02 145.65 342.41 146.19" stroke="black" stroke-width="4" stroke-miterlimit="10" stroke-linecap="round" stroke-linejoin="round"/>
<path d="M338.96 156C339.89 160.34 339.8 163.63 338.29 166.18C336.78 168.73 329.82 179.36 319.04 179.36C310.05 179.36 309.83 175.35 304.64 172.82C301.71 171.39 298.38 170.73 296.66 170.95" stroke="black" stroke-width="4" stroke-miterlimit="10" stroke-linecap="round" stroke-linejoin="round"/>
<path d="M321.26 153.72C319.7 157 319.56 164.81 325.58 165.4C332.23 166.05 334.4 159.92 333.9 155.56" stroke="black" stroke-width="4" stroke-miterlimit="10" stroke-linecap="round" stroke-linejoin="round"/>
<path opacity="0.4" d="M311.66 139.78C316.32 138.98 321.54 139.12 324.65 139.78" stroke="black" stroke-width="3" stroke-miterlimit="10" stroke-linecap="round" stroke-linejoin="round"/>
<path opacity="0.4" d="M252.69 163.26C257.77 162.27 267.49 151.92 271.16 150.22" stroke="black" stroke-width="3" stroke-miterlimit="10" stroke-linecap="round" stroke-linejoin="round"/>
<path opacity="0.4" d="M257.86 153.97C259.6 152.71 261.72 150.27 263.09 149.59" stroke="black" stroke-width="3" stroke-miterlimit="10" stroke-linecap="round" stroke-linejoin="round"/>
<path d="M297.14 189.44C291 196.51 286.88 201.95 280.69 205.99C274.51 210.03 261.83 213.87 253.43 209.9C244.02 205.46 242.92 202.6 240.72 197.32C238.72 192.52 237.21 184.08 237.59 180.29" stroke="black" stroke-width="4" stroke-miterlimit="10" stroke-linecap="round" stroke-linejoin="round"/>
<path opacity="0.3" d="M239.28 195.33C239.66 200.4 247.6 208.32 256.97 211.4C262.31 213.16 269.66 211.31 276.41 208.44C281.89 206.11 286.53 202.32 289.36 199.51C290.16 197.65 294.81 190.65 294.81 190.65C294.81 190.65 286.16 196.34 276.43 196.34C270.23 196.34 258.32 196.34 257.31 192.16C255.8 191.13 253.78 189.68 255.89 187.77C254.77 186.98 246.89 178.59 246.33 175.89C244.37 175.63 242.02 178.95 236.19 177.58C236.19 177.59 238.42 183.71 239.28 195.33Z" fill="black"/>
<path opacity="0.4" d="M263.35 207.61C275.11 207.26 280.72 205.28 286.21 201.58" stroke="black" stroke-width="3" stroke-miterlimit="10" stroke-linecap="round" stroke-linejoin="round"/>
<path opacity="0.4" d="M271.8 201.26C291.76 199 294.94 191.34 297.14 189.44" stroke="black" stroke-width="3" stroke-miterlimit="10" stroke-linecap="round" stroke-linejoin="round"/>
<path opacity="0.4" d="M246.53 192.46C247 197.57 249.44 203.02 257.89 206.56" stroke="black" stroke-width="3" stroke-miterlimit="10" stroke-linecap="round" stroke-linejoin="round"/>
<path opacity="0.4" d="M252.69 195.76C253.86 197.55 259.28 202.45 266.15 201.45" stroke="black" stroke-width="3" stroke-miterlimit="10" stroke-linecap="round" stroke-linejoin="round"/>
<path opacity="0.3" d="M297.73 171.26C301.12 171.26 310.81 175.36 311.94 178.41C311.96 181.7 318.11 184.53 325.87 183.24C336.02 181.55 341.24 172.41 343.23 169.43L345.39 170.83L339.56 182.82L330.48 188.52L322.34 188.89L308.07 186.1L298.92 183.23L294.87 177.51L297.73 171.26Z" fill="black"/>
</svg>
