<svg width="100%" height="100%" viewBox="0 0 450 450" fill="none" xmlns="http://www.w3.org/2000/svg" style="display: block;">

<path d="M313.52 126.95C313.2 126.4 312.71 125.93 312.02 125.59C306.45 122.86 294.94 119.54 290.25 125.42C289.22 125.03 288.07 125.06 287.04 125.75C282.2 128.99 279.28 133.5 277.13 138.85C276.55 140.3 276.15 141.64 275.83 143.03C273.72 138.98 271.09 135.3 267.06 132.85C266.54 132.53 266 132.37 265.47 132.32C265.45 132.31 265.43 132.29 265.41 132.28C263.2 130.87 261 130.22 258.43 130.12C258.14 129.97 257.82 129.85 257.46 129.76C249.66 127.89 241.73 129.3 235.31 134.21C234.65 134.71 234.22 135.32 233.94 135.96C233.2 136.57 232.5 137.21 231.81 137.88C227.25 139.76 223.52 146.33 222.3 150.42C221.95 151.61 222.13 152.63 222.63 153.44C222.56 153.75 222.51 154.08 222.49 154.43C222.45 155.18 222.41 155.93 222.38 156.69C222.14 157.09 221.97 157.52 221.89 158C220.98 163.65 220.41 169.43 221.7 174.98C220.55 176.21 219.99 177.97 220.5 179.67C221.05 181.51 221.83 183.32 222.87 184.93C223.03 185.18 223.21 185.41 223.41 185.63C223.46 185.69 223.53 185.75 223.58 185.81C223.7 185.93 223.81 186.05 223.94 186.15C224.04 186.24 224.14 186.32 224.25 186.39C224.41 186.51 224.58 186.62 224.76 186.72C224.8 186.74 224.83 186.76 224.86 186.78C225.28 187 225.73 187.17 226.2 187.26C226.47 188 226.78 188.72 227.14 189.43C227.25 195.12 235.1 200.65 239.32 203.15C241.71 204.56 244.85 207.15 247.85 206.88C248.97 207.37 249.95 207.56 251.37 207.63C251.57 207.75 251.77 207.87 252 207.97C255.13 209.36 258.43 207.2 261.33 206.01C265.19 205.24 268.92 203.7 271.72 201.25C272.36 201.09 272.99 200.74 273.56 200.12C278.27 195.02 282.24 189.89 283.16 183.02C286.6 187.09 291 190.22 296.16 191.98C299.42 193.1 306.04 194.51 309.09 191.81C315.48 190.89 321.28 187.04 324.63 181.48C327.89 176.05 329.07 170.55 329.15 164.81C331.99 152.66 325.56 133.29 313.52 126.95Z" fill="COLOR_PLACEHOLDER"/>
<path d="M148.56 181.96L168.81 178.21L208.34 174.26H214.16L215.1 177.52L212.48 180.66L155.63 187.81L144.14 193.26L140.17 198.52L138.6 203.64L135.26 205L131.8 202.31L133.53 193.7L139.36 186.9L148.56 181.96Z" fill="COLOR_PLACEHOLDER"/>
<path d="M279.33 151.14C276.06 135.14 261.56 125.25 243.96 129.39C227.29 133.31 218.09 153.26 220.46 172.09C222.83 190.9 234.31 209.41 257.17 207.7C276.07 206.29 283.85 189.35 283.66 182.38" stroke="black" stroke-width="4" stroke-miterlimit="10" stroke-linecap="round" stroke-linejoin="round"/>
<path d="M276.06 141.61C277.3 135.23 283 124.68 296.67 122.3C311.42 119.73 325.44 130.15 329.09 151.66C332.89 174.06 322.78 191.08 306.95 193.12C293.82 194.81 286.64 188.42 283.55 184.58" stroke="black" stroke-width="4" stroke-miterlimit="10" stroke-linecap="round" stroke-linejoin="round"/>
<path d="M135.59 205.02C135.48 205.02 135.37 205.02 135.26 205.01C133.06 204.83 131.42 202.9 131.6 200.7C132.67 187.53 145.17 182.44 155.47 180.48C163.22 179.01 197.77 174.25 212.1 172.94C213.81 173.35 214.9 174.84 215.06 176.54C215.18 177.85 215.19 179.9 213.35 180.88C199.19 182.17 164.58 186.89 156.96 188.34C145.8 190.46 140.11 194.71 139.57 201.35C139.4 203.43 137.65 205.02 135.59 205.02Z" stroke="black" stroke-width="4" stroke-miterlimit="10" stroke-linecap="round" stroke-linejoin="round"/>
<path d="M272.93 159.45C273.63 165.61 274.06 170.18 273.47 177.02C273.11 181.11 271.47 183.7 269.04 188.07C267.96 190.01 264.25 193.1 261.89 193.75C259.09 194.52 255.62 195.12 251.17 194.61C240.71 193.42 235.78 184.64 234.65 177.75C234.13 174.59 234.01 170.5 236.05 162.16C238.1 153.82 242.94 144.49 254.05 143.18C265.16 141.87 272.76 153.09 272.93 159.45Z" fill="white"/>
<path d="M235.94 185.84C234.93 184.18 234.27 182.47 233.71 180.69C233.43 179.8 233.19 178.9 233.01 177.97C232.82 177.05 232.7 176.08 232.57 175.2C232.11 171.62 231.88 167.84 232.45 164.05C232.72 162.16 233.11 160.27 233.72 158.47C234.31 156.67 234.99 154.87 235.9 153.12C237.68 149.65 240.53 146.36 243.94 144.27C244.78 143.74 245.62 143.27 246.45 142.83L247.68 142.2C248.06 142.01 248.59 141.75 249.05 141.55C250.97 140.71 253.1 140.21 255.23 140.16C259.52 140.04 263.68 141.54 266.86 144.15C267.64 144.79 268.45 145.56 269.06 146.31C269.71 147.06 270.29 147.85 270.85 148.66C271.92 150.3 272.77 152.07 273.42 153.88C274.68 157.53 275.06 161.45 274.36 165.12C274.26 165.67 273.73 166.03 273.18 165.92C272.72 165.83 272.4 165.45 272.36 165.01V165C272.08 161.59 271.19 158.35 269.66 155.48C268.92 154.04 268.01 152.7 267 151.48C266.49 150.87 265.96 150.28 265.39 149.74C264.81 149.17 264.3 148.74 263.68 148.3C261.25 146.6 258.3 145.65 255.49 145.88C254.08 145.99 252.71 146.35 251.39 146.93C251.04 147.08 250.78 147.22 250.37 147.43L249.24 148.04C248.51 148.44 247.81 148.85 247.16 149.28C245.87 150.16 244.68 151.05 243.66 152.17C242.63 153.27 241.76 154.53 240.95 155.89C240.13 157.24 239.46 158.73 238.86 160.26C238.28 161.8 237.75 163.34 237.39 164.94C236.65 168.13 236.4 171.49 236.34 174.98C236.27 176.72 236.39 178.31 236.62 180.02C236.86 181.68 237.2 183.4 237.73 184.94L237.75 184.99C237.93 185.51 237.65 186.08 237.13 186.26C236.67 186.43 236.18 186.24 235.94 185.84Z" fill="black"/>
<path d="M252.14 142.31C253.28 142.09 254.57 141.1 255.5 139.83C256.45 138.56 257.14 136.99 257.33 135.36V135.33C257.38 134.92 257.75 134.62 258.16 134.67C258.51 134.71 258.78 134.99 258.82 135.33C259.05 137.31 258.69 139.31 257.89 141.17C257.49 142.1 256.96 143.01 256.27 143.85C255.58 144.68 254.71 145.46 253.61 146.03L253.44 146.12C252.44 146.63 251.22 146.23 250.71 145.23C250.2 144.23 250.6 143.01 251.6 142.5C251.78 142.41 251.97 142.35 252.14 142.31Z" fill="black"/>
<path d="M304.07 134.41C305.21 134.18 306.5 133.2 307.43 131.93C308.38 130.66 309.07 129.09 309.26 127.46V127.43C309.31 127.02 309.68 126.72 310.09 126.77C310.44 126.81 310.71 127.09 310.75 127.43C310.98 129.41 310.62 131.41 309.82 133.27C309.42 134.2 308.89 135.11 308.2 135.95C307.51 136.78 306.64 137.56 305.54 138.13L305.37 138.22C304.37 138.73 303.15 138.33 302.64 137.33C302.13 136.33 302.53 135.11 303.53 134.6C303.71 134.51 303.9 134.45 304.07 134.41Z" fill="black"/>
<path d="M242.56 145.29C243.51 144.61 244.26 143.18 244.58 141.63C244.91 140.08 244.89 138.36 244.38 136.81L244.37 136.78C244.24 136.38 244.46 135.96 244.85 135.83C245.19 135.72 245.55 135.86 245.73 136.15C246.77 137.85 247.27 139.82 247.32 141.85C247.34 142.87 247.24 143.91 246.97 144.96C246.69 146.01 246.23 147.08 245.46 148.05L245.34 148.2C244.64 149.08 243.37 149.22 242.49 148.53C241.61 147.83 241.47 146.56 242.16 145.68C242.28 145.52 242.42 145.39 242.56 145.29Z" fill="black"/>
<path d="M296.78 136.25C297.73 135.57 298.48 134.14 298.8 132.59C299.13 131.04 299.11 129.32 298.6 127.77L298.59 127.74C298.46 127.34 298.68 126.92 299.07 126.79C299.41 126.68 299.77 126.82 299.95 127.11C300.99 128.81 301.49 130.78 301.54 132.81C301.56 133.83 301.46 134.87 301.19 135.92C300.91 136.97 300.45 138.04 299.68 139.01L299.56 139.16C298.86 140.04 297.59 140.18 296.71 139.49C295.83 138.8 295.69 137.52 296.38 136.64C296.49 136.49 296.63 136.36 296.78 136.25Z" fill="black"/>
<path d="M241.26 190.72C241.26 190.72 239.03 192.86 237.75 193.72" stroke="black" stroke-width="4" stroke-miterlimit="10" stroke-linecap="round" stroke-linejoin="round"/>
<path d="M248.79 195.2C248.79 195.2 248.18 196.55 247.68 197.19" stroke="black" stroke-width="4" stroke-miterlimit="10" stroke-linecap="round" stroke-linejoin="round"/>
<path d="M253.04 154.43L246.45 162.83L248.03 179.73L260.85 185.94L268.86 179.43L270.07 164.52L262.26 155L255.49 152.79L253.04 154.43Z" fill="#272E37"/>
<path d="M269.53 167.99C269.87 177.33 266.82 185.21 259.03 185.68C252.56 186.07 246.68 180.17 246.14 169.86C245.65 160.48 249.32 152.9 257.42 152.54C263.9 152.26 269.18 158.39 269.53 167.99Z" stroke="black" stroke-width="4" stroke-miterlimit="10" stroke-linecap="round" stroke-linejoin="round"/>
<path d="M260.43 171.88C264.4 175.41 263.13 180.36 261 181.95C258.87 183.54 255 181.94 252.36 178.39C249.72 174.84 249.3 170.67 251.43 169.09C253.56 167.5 257.12 168.94 260.43 171.88Z" fill="#4E5D71"/>
<path d="M258.831 175.349C261.415 175.094 263.204 171.8 262.829 167.991C262.453 164.182 260.055 161.3 257.472 161.555C254.888 161.81 253.099 165.104 253.474 168.913C253.849 172.722 256.248 175.603 258.831 175.349Z" fill="black"/>
<path d="M266.165 165.553C266.569 163.471 265.55 161.523 263.891 161.202C262.232 160.88 260.56 162.308 260.157 164.39C259.754 166.472 260.772 168.421 262.431 168.742C264.09 169.063 265.762 167.636 266.165 165.553Z" fill="#F7F7F7"/>
<path d="M288.42 154.3C287.99 158.07 288.62 166.19 289.68 169.93C292.11 178.49 298.63 185.11 308.57 182.14C312.4 181 316.15 177.36 317.76 173.63C320.1 168.22 322.79 157.88 322.07 152.15C321.34 146.42 317.61 135.6 309.59 135.42C305.64 135.33 300.2 134.91 296.07 137.67C291.74 140.57 289.05 148.37 288.52 153.34C288.49 153.66 288.46 153.98 288.42 154.3Z" fill="white"/>
<path d="M315.42 176.22C316.42 175.28 317.2 173.88 317.82 172.46C318.44 171.02 318.94 169.51 319.33 167.96C320.09 164.88 320.45 161.67 320.43 158.5C320.42 156.92 320.3 155.34 320.05 153.83C319.76 152.33 319.33 150.73 318.85 149.26C317.86 146.31 316.43 143.59 314.29 141.65C312.09 139.81 309.77 138.95 307.13 138.5C306.47 138.37 305.78 138.32 305.08 138.28C304.41 138.26 303.77 138.28 303.11 138.37C301.8 138.54 300.45 138.87 299.2 139.43C298.58 139.71 297.96 140.02 297.39 140.37C296.81 140.72 296.33 141.08 295.73 141.63C294.61 142.65 293.56 143.67 292.68 144.88C290.87 147.25 289.57 150.14 288.41 153.16V153.17C288.21 153.69 287.63 153.95 287.11 153.75C286.68 153.59 286.43 153.16 286.47 152.72C286.77 149.36 287.58 145.93 289.3 142.73C290.16 141.15 291.22 139.63 292.41 138.32C292.96 137.7 293.68 136.94 294.43 136.33C295.18 135.71 295.97 135.16 296.81 134.7C298.48 133.77 300.29 133.07 302.22 132.7C303.18 132.53 304.18 132.44 305.16 132.43C306.1 132.43 307.05 132.45 308.02 132.58C309.94 132.84 311.89 133.48 313.6 134.54C315.32 135.59 316.73 137.04 317.81 138.59C320.03 141.59 321.42 144.99 322.15 148.36C322.55 150.06 322.8 151.67 323.03 153.41C323.22 155.15 323.25 156.87 323.17 158.57C322.98 161.96 322.46 165.3 321.51 168.56C321.04 170.18 320.48 171.78 319.76 173.34C319.02 174.89 318.18 176.43 316.76 177.73C316.35 178.1 315.72 178.07 315.35 177.66C314.98 177.26 315.01 176.63 315.4 176.26L315.42 176.22Z" fill="black"/>
<path d="M313.89 179.43C314.45 179.67 315.73 180.37 316.34 180.75" stroke="black" stroke-width="3" stroke-miterlimit="10" stroke-linecap="round" stroke-linejoin="round"/>
<path d="M310.67 182.2C310.86 182.32 311.27 182.67 311.48 182.86" stroke="black" stroke-width="3" stroke-miterlimit="10" stroke-linecap="round" stroke-linejoin="round"/>
<path d="M302.37 146.74L296.87 153.75L298.19 167.86L308.9 173.04L315.57 167.61L316.58 155.17L310.07 147.22L304.42 145.37L302.37 146.74Z" fill="#272E37"/>
<path d="M316.14 158.06C316.42 165.85 313.88 172.43 307.38 172.83C301.98 173.16 297.07 168.23 296.62 159.62C296.21 151.79 299.28 145.46 306.03 145.17C311.44 144.93 315.85 150.05 316.14 158.06Z" stroke="black" stroke-width="4" stroke-miterlimit="10" stroke-linecap="round" stroke-linejoin="round"/>
<path d="M308.54 161.31C311.85 164.25 310.79 168.39 309.01 169.71C307.23 171.03 304 169.7 301.8 166.74C299.59 163.78 299.25 160.3 301.03 158.98C302.81 157.65 305.78 158.85 308.54 161.31Z" fill="#4E5D71"/>
<path d="M307.211 164.214C309.365 164.002 310.857 161.25 310.544 158.067C310.23 154.885 308.229 152.477 306.075 152.69C303.92 152.902 302.428 155.654 302.741 158.836C303.055 162.019 305.056 164.426 307.211 164.214Z" fill="black"/>
<path d="M313.345 156.04C313.681 154.305 312.828 152.68 311.44 152.412C310.052 152.143 308.655 153.332 308.319 155.067C307.983 156.802 308.835 158.426 310.224 158.695C311.612 158.964 313.009 157.775 313.345 156.04Z" fill="#F7F7F7"/>
</svg>
