<svg width="450" height="450" viewBox="0 0 450 450" fill="none" xmlns="http://www.w3.org/2000/svg">
<path d="M327.52 126.95C327.2 126.4 326.71 125.93 326.02 125.59C320.45 122.86 308.94 119.54 304.25 125.42C303.22 125.03 302.07 125.06 301.04 125.75C296.2 128.99 293.28 133.5 291.13 138.85C290.55 140.3 290.15 141.64 289.83 143.03C287.72 138.98 285.09 135.3 281.06 132.85C280.54 132.53 280 132.37 279.47 132.32C279.45 132.31 279.43 132.29 279.41 132.28C277.2 130.87 275 130.22 272.43 130.12C272.14 129.97 271.82 129.85 271.46 129.76C263.66 127.89 255.73 129.3 249.31 134.21C248.65 134.71 248.22 135.32 247.94 135.96C247.2 136.57 246.5 137.21 245.81 137.88C241.25 139.76 237.52 146.33 236.3 150.42C235.95 151.61 236.13 152.63 236.63 153.44C236.56 153.75 236.51 154.08 236.49 154.43C236.45 155.18 236.41 155.93 236.38 156.69C236.14 157.09 235.97 157.52 235.89 158C234.98 163.65 234.41 169.43 235.7 174.98C234.55 176.21 233.99 177.97 234.5 179.67C235.05 181.51 235.83 183.32 236.87 184.93C237.03 185.18 237.21 185.41 237.41 185.63C237.46 185.69 237.53 185.75 237.58 185.81C237.7 185.93 237.81 186.05 237.94 186.15C238.04 186.24 238.14 186.32 238.25 186.39C238.41 186.51 238.58 186.62 238.76 186.72C238.8 186.74 238.83 186.76 238.86 186.78C239.28 187 239.73 187.17 240.2 187.26C240.47 188 240.78 188.72 241.14 189.43C241.25 195.12 249.1 200.65 253.32 203.15C255.71 204.56 258.85 207.15 261.85 206.88C262.97 207.37 263.95 207.56 265.37 207.63C265.57 207.75 265.77 207.87 266 207.97C269.13 209.36 272.43 207.2 275.33 206.01C279.19 205.24 282.92 203.7 285.72 201.25C286.36 201.09 286.99 200.74 287.56 200.12C292.27 195.02 296.24 189.89 297.16 183.02C300.6 187.09 305 190.22 310.16 191.98C313.42 193.1 320.04 194.51 323.09 191.81C329.48 190.89 335.28 187.04 338.63 181.48C341.89 176.05 343.07 170.55 343.15 164.81C345.99 152.66 339.56 133.29 327.52 126.95Z" fill="#C088F9"/>
<path d="M162.56 181.96L182.81 178.21L222.34 174.26H228.16L229.1 177.52L226.48 180.66L169.63 187.81L158.14 193.26L154.17 198.52L152.6 203.64L149.26 205L145.8 202.31L147.53 193.7L153.36 186.9L162.56 181.96Z" fill="#C088F9"/>
<path d="M293.33 151.14C290.06 135.14 275.56 125.25 257.96 129.39C241.29 133.31 232.09 153.26 234.46 172.09C236.83 190.9 248.31 209.41 271.17 207.7C290.07 206.29 297.85 189.35 297.66 182.38" stroke="black" stroke-width="4" stroke-miterlimit="10" stroke-linecap="round" stroke-linejoin="round"/>
<path d="M290.06 141.61C291.3 135.23 297 124.68 310.67 122.3C325.42 119.73 339.44 130.15 343.09 151.66C346.89 174.06 336.78 191.08 320.95 193.12C307.82 194.81 300.64 188.42 297.55 184.58" stroke="black" stroke-width="4" stroke-miterlimit="10" stroke-linecap="round" stroke-linejoin="round"/>
<path d="M149.59 205.02C149.48 205.02 149.37 205.02 149.26 205.01C147.06 204.83 145.42 202.9 145.6 200.7C146.67 187.53 159.17 182.44 169.47 180.48C177.22 179.01 211.77 174.25 226.1 172.94C227.81 173.35 228.9 174.84 229.06 176.54C229.18 177.85 229.19 179.9 227.35 180.88C213.19 182.17 178.58 186.89 170.96 188.34C159.8 190.46 154.11 194.71 153.57 201.35C153.4 203.43 151.65 205.02 149.59 205.02Z" stroke="black" stroke-width="4" stroke-miterlimit="10" stroke-linecap="round" stroke-linejoin="round"/>
<path d="M286.93 159.45C287.63 165.61 288.06 170.18 287.47 177.02C287.11 181.11 285.47 183.7 283.04 188.07C281.96 190.01 278.25 193.1 275.89 193.75C273.09 194.52 269.62 195.12 265.17 194.61C254.71 193.42 249.78 184.64 248.65 177.75C248.13 174.59 248.01 170.5 250.05 162.16C252.09 153.82 256.94 144.49 268.05 143.18C279.16 141.87 286.76 153.09 286.93 159.45Z" fill="white"/>
<path d="M249.94 185.84C248.93 184.18 248.27 182.47 247.71 180.69C247.43 179.8 247.19 178.9 247.01 177.97C246.82 177.05 246.7 176.08 246.57 175.2C246.11 171.62 245.88 167.84 246.45 164.05C246.72 162.16 247.11 160.27 247.72 158.47C248.31 156.67 248.99 154.87 249.9 153.12C251.68 149.65 254.53 146.36 257.94 144.27C258.78 143.74 259.62 143.27 260.45 142.83L261.68 142.2C262.06 142.01 262.59 141.75 263.05 141.55C264.97 140.71 267.1 140.21 269.23 140.16C273.52 140.04 277.68 141.55 280.86 144.15C281.64 144.79 282.45 145.56 283.06 146.31C283.71 147.06 284.29 147.85 284.85 148.66C285.92 150.3 286.77 152.07 287.42 153.88C288.68 157.53 289.06 161.45 288.36 165.12C288.26 165.67 287.73 166.03 287.18 165.92C286.72 165.83 286.4 165.45 286.36 165.01V165C286.08 161.59 285.19 158.35 283.66 155.48C282.92 154.04 282.01 152.7 281 151.48C280.49 150.87 279.96 150.28 279.39 149.74C278.81 149.17 278.3 148.74 277.68 148.3C275.25 146.6 272.3 145.65 269.49 145.88C268.08 145.99 266.71 146.35 265.39 146.93C265.04 147.08 264.78 147.22 264.37 147.43L263.24 148.04C262.51 148.44 261.81 148.85 261.16 149.28C259.87 150.16 258.68 151.05 257.66 152.17C256.63 153.27 255.76 154.53 254.95 155.89C254.13 157.24 253.46 158.73 252.86 160.26C252.28 161.8 251.75 163.34 251.39 164.94C250.65 168.13 250.4 171.49 250.34 174.98C250.27 176.72 250.39 178.31 250.62 180.02C250.86 181.68 251.2 183.4 251.73 184.94L251.75 184.99C251.93 185.51 251.65 186.08 251.13 186.26C250.67 186.43 250.18 186.24 249.94 185.84Z" fill="black"/>
<path d="M266.14 142.31C267.28 142.09 268.57 141.1 269.5 139.83C270.45 138.56 271.14 136.99 271.33 135.36V135.33C271.38 134.92 271.75 134.62 272.16 134.67C272.51 134.71 272.78 134.99 272.82 135.33C273.05 137.31 272.69 139.31 271.89 141.17C271.49 142.1 270.96 143.01 270.27 143.85C269.58 144.68 268.71 145.46 267.61 146.03L267.44 146.12C266.44 146.63 265.22 146.23 264.71 145.23C264.2 144.23 264.6 143.01 265.6 142.5C265.78 142.41 265.97 142.35 266.14 142.31Z" fill="black"/>
<path d="M318.07 134.41C319.21 134.18 320.5 133.2 321.43 131.93C322.38 130.66 323.07 129.09 323.26 127.46V127.43C323.31 127.02 323.68 126.72 324.09 126.77C324.44 126.81 324.71 127.09 324.75 127.43C324.98 129.41 324.62 131.41 323.82 133.27C323.42 134.2 322.89 135.11 322.2 135.95C321.51 136.78 320.64 137.56 319.54 138.13L319.37 138.22C318.37 138.73 317.15 138.33 316.64 137.33C316.13 136.33 316.53 135.11 317.53 134.6C317.71 134.51 317.9 134.45 318.07 134.41Z" fill="black"/>
<path d="M256.56 145.29C257.51 144.61 258.26 143.18 258.58 141.63C258.91 140.08 258.89 138.36 258.38 136.81L258.37 136.78C258.24 136.38 258.46 135.96 258.85 135.83C259.19 135.72 259.55 135.86 259.73 136.15C260.77 137.85 261.27 139.82 261.32 141.85C261.34 142.87 261.24 143.91 260.97 144.96C260.69 146.01 260.23 147.08 259.46 148.05L259.34 148.2C258.64 149.08 257.37 149.22 256.49 148.53C255.61 147.83 255.47 146.56 256.16 145.68C256.28 145.52 256.42 145.39 256.56 145.29Z" fill="black"/>
<path d="M310.78 136.25C311.73 135.57 312.48 134.14 312.8 132.59C313.13 131.04 313.11 129.32 312.6 127.77L312.59 127.74C312.46 127.34 312.68 126.92 313.07 126.79C313.41 126.68 313.77 126.82 313.95 127.11C314.99 128.81 315.49 130.78 315.54 132.81C315.56 133.83 315.46 134.87 315.19 135.92C314.91 136.97 314.45 138.04 313.68 139.01L313.56 139.16C312.86 140.04 311.59 140.18 310.71 139.49C309.83 138.79 309.69 137.52 310.38 136.64C310.49 136.49 310.63 136.36 310.78 136.25Z" fill="black"/>
<path d="M255.26 190.72C255.26 190.72 253.03 192.86 251.75 193.72" stroke="black" stroke-width="4" stroke-miterlimit="10" stroke-linecap="round" stroke-linejoin="round"/>
<path d="M262.79 195.2C262.79 195.2 262.18 196.55 261.68 197.19" stroke="black" stroke-width="4" stroke-miterlimit="10" stroke-linecap="round" stroke-linejoin="round"/>
<path d="M267.04 154.43L260.45 162.83L262.03 179.73L274.85 185.94L282.86 179.43L284.06 164.52L276.26 155L269.49 152.79L267.04 154.43Z" fill="#272E37"/>
<path d="M283.53 167.99C283.87 177.33 280.82 185.21 273.03 185.68C266.56 186.07 260.68 180.17 260.14 169.86C259.65 160.48 263.32 152.9 271.42 152.54C277.9 152.26 283.18 158.39 283.53 167.99Z" stroke="black" stroke-width="4" stroke-miterlimit="10" stroke-linecap="round" stroke-linejoin="round"/>
<path d="M274.43 171.88C278.4 175.41 277.13 180.36 275 181.95C272.87 183.53 269 181.94 266.36 178.39C263.72 174.84 263.3 170.67 265.43 169.09C267.56 167.5 271.12 168.94 274.43 171.88Z" fill="#4E5D71"/>
<path d="M272.878 175.317C275.461 175.062 277.251 171.768 276.875 167.959C276.5 164.15 274.101 161.269 271.518 161.524C268.935 161.778 267.145 165.072 267.52 168.881C267.896 172.69 270.294 175.572 272.878 175.317Z" fill="black"/>
<path d="M280.145 165.467C280.548 163.385 279.53 161.436 277.87 161.115C276.211 160.794 274.539 162.221 274.136 164.304C273.733 166.386 274.751 168.334 276.41 168.655C278.07 168.977 279.742 167.549 280.145 165.467Z" fill="#F7F7F7"/>
<path d="M302.42 154.3C301.99 158.07 302.62 166.19 303.68 169.93C306.11 178.49 312.63 185.11 322.57 182.14C326.4 181 330.15 177.36 331.76 173.63C334.1 168.22 336.79 157.88 336.07 152.15C335.34 146.42 331.61 135.6 323.59 135.42C319.64 135.33 314.2 134.91 310.07 137.67C305.74 140.57 303.05 148.37 302.52 153.34C302.49 153.66 302.46 153.98 302.42 154.3Z" fill="white"/>
<path d="M329.42 176.22C330.42 175.28 331.2 173.88 331.82 172.46C332.44 171.02 332.94 169.51 333.33 167.96C334.09 164.88 334.45 161.67 334.43 158.5C334.42 156.92 334.3 155.34 334.05 153.83C333.76 152.33 333.33 150.73 332.85 149.26C331.86 146.31 330.43 143.59 328.29 141.65C326.09 139.81 323.77 138.95 321.13 138.5C320.47 138.37 319.78 138.32 319.08 138.28C318.41 138.26 317.77 138.28 317.11 138.37C315.8 138.54 314.45 138.87 313.2 139.43C312.58 139.71 311.96 140.02 311.39 140.37C310.81 140.72 310.33 141.08 309.73 141.63C308.61 142.65 307.56 143.67 306.68 144.88C304.87 147.25 303.57 150.14 302.41 153.16V153.17C302.21 153.69 301.63 153.95 301.11 153.75C300.68 153.59 300.43 153.16 300.47 152.72C300.77 149.36 301.58 145.93 303.3 142.73C304.16 141.15 305.22 139.63 306.41 138.32C306.96 137.7 307.68 136.94 308.43 136.32C309.18 135.7 309.97 135.15 310.81 134.69C312.48 133.76 314.29 133.06 316.22 132.69C317.18 132.52 318.18 132.43 319.16 132.42C320.1 132.42 321.05 132.44 322.02 132.57C323.94 132.83 325.89 133.47 327.6 134.53C329.32 135.58 330.73 137.03 331.81 138.58C334.03 141.58 335.42 144.98 336.15 148.35C336.55 150.05 336.8 151.66 337.03 153.4C337.22 155.14 337.25 156.86 337.17 158.56C336.98 161.95 336.46 165.29 335.51 168.55C335.04 170.17 334.48 171.77 333.76 173.33C333.02 174.88 332.18 176.42 330.76 177.72C330.35 178.09 329.72 178.06 329.35 177.65C328.98 177.25 329.01 176.62 329.4 176.25L329.42 176.22Z" fill="black"/>
<path d="M327.89 179.43C328.45 179.67 329.73 180.37 330.34 180.75" stroke="black" stroke-width="3" stroke-miterlimit="10" stroke-linecap="round" stroke-linejoin="round"/>
<path d="M324.67 182.2C324.86 182.32 325.27 182.67 325.48 182.86" stroke="black" stroke-width="3" stroke-miterlimit="10" stroke-linecap="round" stroke-linejoin="round"/>
<path d="M316.37 146.74L310.87 153.75L312.19 167.86L322.9 173.04L329.57 167.61L330.58 155.17L324.07 147.22L318.42 145.37L316.37 146.74Z" fill="#272E37"/>
<path d="M330.14 158.06C330.42 165.85 327.88 172.43 321.38 172.83C315.98 173.16 311.07 168.23 310.62 159.62C310.21 151.79 313.28 145.46 320.03 145.17C325.44 144.93 329.85 150.05 330.14 158.06Z" stroke="black" stroke-width="4" stroke-miterlimit="10" stroke-linecap="round" stroke-linejoin="round"/>
<path d="M322.54 161.31C325.85 164.26 324.79 168.39 323.01 169.71C321.23 171.03 318 169.7 315.8 166.74C313.59 163.78 313.25 160.3 315.03 158.98C316.81 157.65 319.78 158.85 322.54 161.31Z" fill="#4E5D71"/>
<path d="M321.257 164.183C323.411 163.97 324.904 161.218 324.59 158.036C324.276 154.854 322.275 152.446 320.121 152.658C317.966 152.871 316.474 155.623 316.788 158.805C317.101 161.987 319.102 164.395 321.257 164.183Z" fill="black"/>
<path d="M327.325 155.953C327.661 154.218 326.808 152.594 325.419 152.325C324.031 152.056 322.634 153.245 322.298 154.98C321.962 156.715 322.815 158.339 324.203 158.608C325.591 158.877 326.989 157.688 327.325 155.953Z" fill="#F7F7F7"/>
</svg>
