<svg width="100%" height="100%" viewBox="0 0 450 450" fill="none" xmlns="http://www.w3.org/2000/svg" style="display: block;">
<path d="M275.07 168.64C277.04 186.65 267.65 198.45 256.04 198.45C244.43 198.45 233.03 184.43 233.03 168.64C233.03 152.86 242.44 140.06 254.05 140.06C265.66 140.06 275.07 152.86 275.07 168.64Z" fill="white"/>
<path d="M259.35 160.73L256.6 164.88L257.97 172.68L264.17 175.08L267.64 171.75V164.78L263.66 160.64L260.42 159.87L259.35 160.73Z" fill="#272E37"/>
<path d="M267.53 166.41C268.04 170.74 266.92 174.52 263.32 175.03C260.33 175.46 257.37 172.93 256.73 168.16C256.15 163.82 257.57 160.15 261.32 159.68C264.31 159.31 267 161.96 267.53 166.41Z" stroke="black" stroke-width="4" stroke-miterlimit="10" stroke-linecap="round" stroke-linejoin="round"/>
<path d="M320.55 157.28C322.12 172.58 314.64 182.6 305.4 182.6C296.16 182.6 287.09 170.69 287.09 157.28C287.09 143.87 294.58 133 303.82 133C313.06 133 320.55 143.87 320.55 157.28Z" fill="white"/>
<path d="M303.45 149.94L302.26 154.74L304.66 160.98L310.3 162.44L313.25 158.49L310.29 149.61L307.34 148.15L305.34 149.09L303.45 149.94Z" fill="#272E37"/>
<path d="M312.45 154.23C313.12 158.24 312.25 161.82 308.91 162.47C306.14 163 303.26 160.79 302.45 156.36C301.71 152.33 302.87 148.85 306.35 148.24C309.13 147.75 311.76 150.1 312.45 154.23Z" stroke="black" stroke-width="4" stroke-miterlimit="10" stroke-linecap="round" stroke-linejoin="round"/>
<path d="M313.51 126.74C313.19 126.19 312.7 125.72 312.01 125.38C306.44 122.65 294.93 119.33 290.24 125.21C289.21 124.82 288.06 124.85 287.03 125.54C282.19 128.78 279.27 133.29 277.12 138.64C276.54 140.09 276.14 141.43 275.82 142.82C273.71 138.77 271.08 135.09 267.05 132.64C266.53 132.32 265.99 132.16 265.46 132.11C265.44 132.1 265.42 132.08 265.4 132.07C263.19 130.66 260.99 130.01 258.42 129.91C258.13 129.76 257.81 129.64 257.45 129.55C249.65 127.68 241.72 129.09 235.3 134C234.64 134.5 234.21 135.11 233.93 135.75C233.19 136.36 232.49 137 231.8 137.67C227.24 139.55 223.51 146.12 222.29 150.21C221.94 151.4 222.12 152.42 222.62 153.23C222.55 153.54 222.5 153.87 222.48 154.22C222.44 154.97 222.4 155.72 222.37 156.48C222.13 156.88 221.96 157.31 221.88 157.79C220.97 163.44 220.4 169.22 221.69 174.77C220.54 176 219.98 177.76 220.49 179.46C221.04 181.3 221.82 183.11 222.86 184.72C223.02 184.97 223.2 185.2 223.4 185.42C223.45 185.48 223.52 185.54 223.57 185.6C223.69 185.72 223.8 185.84 223.93 185.94C224.03 186.03 224.13 186.11 224.24 186.18C224.4 186.3 224.57 186.41 224.75 186.51C224.79 186.53 224.82 186.55 224.85 186.57C225.27 186.79 225.72 186.96 226.19 187.05C226.46 187.79 226.77 188.51 227.13 189.22C227.24 194.91 235.09 200.44 239.31 202.94C241.7 204.35 244.84 206.94 247.84 206.67C248.96 207.16 249.94 207.35 251.36 207.42C251.56 207.54 251.76 207.66 251.99 207.76C255.12 209.15 258.42 206.99 261.32 205.8C265.18 205.03 268.91 203.49 271.71 201.04C272.35 200.88 272.98 200.53 273.55 199.91C278.26 194.81 282.23 189.68 283.15 182.81C286.59 186.88 290.99 190.01 296.15 191.77C299.41 192.89 306.03 194.3 309.08 191.6C315.47 190.68 321.27 186.83 324.62 181.27C327.88 175.84 329.06 170.34 329.14 164.6C331.98 152.45 325.55 133.08 313.51 126.74ZM268.58 193.52C267.94 193.79 267.34 194.22 266.84 194.87C265.31 196.85 262.21 197.18 259.93 197.64C257.72 198.09 255.62 198.38 253.43 198.3C253.08 197.91 252.71 197.54 252.29 197.23C250.82 196.15 249.21 195.7 247.53 195.02C243.34 193.3 240.02 190.36 237.61 186.55C237.28 186.03 236.85 185.64 236.36 185.34C236.27 185.13 236.17 184.91 236.05 184.69C234.76 182.4 234.94 179.41 234.61 176.85C234.28 174.29 233.81 171.78 233.2 169.28C233.43 168.82 233.6 168.3 233.67 167.72C233.94 165.42 234.23 163.13 234.57 160.84C234.79 159.35 234.72 156.06 236.14 155.15C236.9 154.66 237.86 154.62 238.76 154.68C243.83 155.02 248.27 158.25 253.26 159.24C256.49 159.88 259.82 159.56 263.1 159.78C265.01 159.9 266.9 160.21 268.78 160.59C270.06 160.85 271.95 160.89 273.13 161.51C275.89 162.95 275.04 167.65 275.15 170.18C275.28 173.15 275.39 176.14 275.38 179.12C275.35 185.23 272.45 189.25 268.58 193.52ZM313.11 143.94C313.89 143.6 314.75 143.42 315.59 143.58C316.61 143.77 317.46 144.45 318.26 145.1C319.47 146.08 319.83 147.36 320.26 148.81C320.49 149.59 320.7 150.38 320.88 151.18C320.96 151.52 321.5 153.06 321.31 153.33C320.74 154.14 320.44 155.17 320.61 156.36C321.62 163.28 321.77 169.41 318.5 175.79C316.17 180.35 312.2 183.15 307.44 183.68C303.92 182.27 300.89 181.9 297.65 179.67C293.79 177.01 291.88 174.68 290.4 170.19C289.86 168.54 289.36 166.87 288.92 165.19C288.46 163.44 287.54 161.75 288.83 160.29C289.31 159.75 289.79 159.2 290.28 158.66C290.95 157.91 291.64 156.92 292.43 156.31C293.44 155.54 294.89 155.07 296.02 154.5C298.4 153.31 300.78 152.12 303.16 150.94C304.21 150.42 305.26 149.89 306.24 149.25C308.75 147.6 310.31 145.17 313.11 143.94Z" fill="COLOR_PLACEHOLDER"/>
<path d="M148.56 181.98L168.81 178.23L208.34 174.27H214.16L215.1 177.53L212.48 180.67L155.63 187.83L144.14 193.27L140.17 198.54L138.6 203.66L135.26 205.02L131.8 202.32L133.53 193.71L139.36 186.91L148.56 181.98Z" fill="COLOR_PLACEHOLDER"/>
<path d="M279.33 151.15C276.06 135.15 261.56 125.26 243.96 129.4C227.29 133.32 218.09 153.27 220.46 172.1C222.83 190.91 234.31 209.42 257.17 207.71C276.07 206.3 283.85 189.36 283.66 182.39" stroke="black" stroke-width="4" stroke-miterlimit="10" stroke-linecap="round" stroke-linejoin="round"/>
<path d="M276.06 141.63C277.3 135.25 283 124.7 296.67 122.32C311.42 119.75 325.44 130.17 329.09 151.68C332.89 174.08 322.78 191.1 306.95 193.14C293.82 194.83 286.64 188.44 283.55 184.6" stroke="black" stroke-width="4" stroke-miterlimit="10" stroke-linecap="round" stroke-linejoin="round"/>
<path opacity="0.2" d="M251.14 139.82C262.81 138.59 273.26 152.82 274.99 165.09C275.35 167.62 275.53 170.29 275.48 172.97C275.3 183.97 271.39 195.08 260.83 197.17C244.1 200.48 235.18 185.5 233.34 172.07C231.51 158.64 237.4 141.26 251.14 139.82Z" stroke="black" stroke-width="4" stroke-miterlimit="10" stroke-linecap="round" stroke-linejoin="round"/>
<path opacity="0.2" d="M299.35 132.68C310.81 130.07 318.31 142.8 320.18 153.79C322.11 165.15 321.17 180.9 308.81 183.05C298.86 184.78 289.5 173.56 287.52 160.14C285.86 148.89 288.83 135.07 299.35 132.68Z" stroke="black" stroke-width="4" stroke-miterlimit="10" stroke-linecap="round" stroke-linejoin="round"/>
<path d="M135.59 205.03C135.48 205.03 135.37 205.03 135.26 205.02C133.06 204.84 131.42 202.91 131.6 200.71C132.67 187.54 145.17 182.45 155.47 180.49C163.22 179.02 197.77 174.26 212.1 172.95C213.81 173.36 214.9 174.85 215.06 176.55C215.18 177.86 215.19 179.91 213.35 180.89C199.19 182.18 164.58 186.9 156.96 188.35C145.8 190.47 140.11 194.72 139.57 201.36C139.4 203.45 137.65 205.03 135.59 205.03Z" stroke="black" stroke-width="4" stroke-miterlimit="10" stroke-linecap="round" stroke-linejoin="round"/>
<path d="M274.13 161.05C274.51 162.4 274.8 163.75 274.99 165.08C276.82 178.01 273.96 194.56 260.84 197.15C244.11 200.46 235.19 185.48 233.35 172.05C232.55 166.23 233.21 159.68 235.32 153.99" stroke="black" stroke-width="4" stroke-miterlimit="10" stroke-linecap="round" stroke-linejoin="round"/>
<path d="M315.74 141.5C317.96 145.23 319.48 149.63 320.18 153.79C322.11 165.15 321.17 180.9 308.81 183.05C298.95 184.77 289.67 173.76 287.58 160.51" stroke="black" stroke-width="4" stroke-miterlimit="10" stroke-linecap="round" stroke-linejoin="round"/>
<path d="M231.77 152.53C242.98 157.8 268.13 162 277.26 160.81" stroke="black" stroke-width="4" stroke-miterlimit="10" stroke-linecap="round" stroke-linejoin="round"/>
<path d="M286.35 161.05C294.26 157.67 309.3 148.33 316.84 140.39" stroke="black" stroke-width="4" stroke-miterlimit="10" stroke-linecap="round" stroke-linejoin="round"/>
</svg>
