<svg width="450" height="450" viewBox="0 0 450 450" fill="none" xmlns="http://www.w3.org/2000/svg">
<path d="M289.07 168.63C291.04 186.64 281.65 198.44 270.04 198.44C258.43 198.44 251.35 189.64 251.35 173.86C256.39 162.89 260.37 155.58 267.42 149.36C276.24 151.83 286.21 156.14 289.07 168.63Z" fill="white"/>
<path d="M325.81 130.28C321.23 127.74 315.88 126.58 310.66 127.05C306.73 127.4 302.86 128.67 299.63 130.95C296.41 133.22 293.86 136.52 292.74 140.3C292.32 141.74 292.04 143.72 290.7 144.6C288.39 141.2 286.8 138.04 283.42 135.44C280.15 132.92 275.93 130.95 271.71 131.66C265.13 132.76 261.81 135.17 257.08 139.88C255.42 141.54 252.9 141.65 251.04 143.08C249.92 143.94 249.85 146.46 248.72 147.3C247.58 148.15 246.62 149.21 245.67 150.26C242.05 154.26 238.31 158.48 236.94 163.7C236.38 165.85 236.24 168.1 236.11 170.32C235.91 173.75 235.46 177.25 235.39 180.67C235.34 183.38 237.46 186.17 238.38 188.71C239.58 192.03 241.1 195.31 243.52 197.94C244.14 198.62 244.81 199.24 245.52 199.83C247.86 201.79 250.82 203.73 253.83 204.43C256.5 205.04 259.21 207.12 261.99 206.87C263.11 207.36 264.09 207.55 265.51 207.62C265.71 207.74 265.91 207.86 266.14 207.96C269.27 209.35 272.57 207.19 275.47 206C279.33 205.23 283.06 203.69 285.86 201.24C286.5 201.08 287.13 200.73 287.7 200.11C292.41 195.01 296.38 189.88 297.3 183.01C300.74 187.08 305.14 190.21 310.3 191.97C313.56 193.09 320.18 194.5 323.23 191.8C329.62 190.88 335.42 187.03 338.77 181.47C342.03 176.04 343.21 170.54 343.29 164.8C344.36 160.21 344.37 154.49 342.95 149.96C341.79 146.25 338.61 142.6 336.15 139.64C333.99 137.04 331.73 134.47 329.05 132.4C328.03 131.62 326.94 130.91 325.81 130.28ZM282.71 193.72C282.07 193.99 281.47 194.42 280.97 195.07C279.44 197.05 276.34 197.38 274.06 197.84C271.85 198.29 269.75 198.58 267.56 198.5C267.21 198.11 266.84 197.74 266.42 197.43C264.95 196.35 263.34 195.9 261.66 195.22C258.45 193.91 253.91 191.1 252.43 187.76C250.71 183.87 250.92 177.99 251.34 173.84C251.51 172.2 251.79 170.55 252.5 169.07C253.69 166.63 255.93 164.9 257.54 162.71C258.83 160.96 259.69 158.94 260.82 157.08C262 155.15 263.47 153.39 265.17 151.9C265.59 151.53 266.03 151.17 266.55 150.97C267.28 150.68 268.09 150.71 268.87 150.74C272.56 150.9 276.42 151.11 279.57 153.03C281.61 154.28 283.19 156.15 284.72 157.99C285.94 159.46 287.16 160.88 288.21 162.46C289.57 164.51 289.17 167.97 289.27 170.37C289.4 173.34 289.51 176.33 289.5 179.31C289.48 185.43 286.58 189.46 282.71 193.72ZM334.75 156.55C335.76 163.47 335.91 169.6 332.64 175.98C330.31 180.54 326.34 183.34 321.58 183.87C318.06 182.46 315.03 182.09 311.79 179.86C307.93 177.2 306.02 174.87 304.54 170.38C304.04 168.87 303.1 166.91 303.11 165.3C303.12 163.97 303.77 162.4 304.03 161.08C304.74 157.42 305.45 153.76 306.16 150.1C306.4 148.88 306.64 147.63 307.24 146.54C308.72 143.82 312.13 142.63 315.21 142.87C318.29 143.11 321.15 144.53 323.91 145.93C326.54 147.27 329.18 148.63 331.48 150.47C333.75 152.28 334.36 153.86 334.75 156.55Z" fill="#C088F9"/>
<path d="M334.55 157.26C336.12 172.56 328.64 182.58 319.4 182.58C313.96 182.58 309.34 178.63 306.38 174.39C304.82 172.15 302.85 169.05 302.48 166.33C301.98 162.67 302.85 158.26 303.22 154.6C303.36 153.24 303.52 151.86 304.02 150.58C304.59 149.1 305.59 147.83 306.57 146.58C307.53 145.35 308.5 144.12 309.46 142.9C309.67 142.63 309.9 142.35 310.21 142.19C310.51 142.04 310.85 142.03 311.18 142.01C313.13 141.94 315.11 141.86 317.02 142.28C319.41 142.8 321.57 144.06 323.69 145.3C325.45 146.33 327.21 147.37 328.97 148.4C330.5 149.3 332.11 150.25 333.21 151.67C334.55 153.4 334.55 155.15 334.55 157.26Z" fill="white"/>
<path d="M162.56 181.96L182.81 178.21L222.34 174.26H228.16L229.1 177.52L226.48 180.66L169.63 187.81L158.14 193.26L154.17 198.52L152.6 203.64L149.26 205L145.8 202.31L147.53 193.7L153.36 186.9L162.56 181.96Z" fill="#C088F9"/>
<path d="M293.33 151.14C290.06 135.14 279.28 129.25 268.48 131.66C264.75 132.49 259.99 136 256.41 138.64C243.96 147.82 233.53 162.79 235.38 177.42C237.75 196.23 248.31 209.42 271.16 207.71C290.06 206.3 297.84 189.36 297.65 182.39" stroke="black" stroke-width="4" stroke-miterlimit="10" stroke-linecap="round" stroke-linejoin="round"/>
<path d="M291.53 145C295.93 132.98 302.4 127.2 312.04 126.58C319.71 126.09 326.88 129.29 331.5 133.69C336.47 138.42 340.71 142.87 343.1 151.65C349.06 173.57 336.79 191.07 320.96 193.11C307.83 194.8 300.65 188.41 297.56 184.57" stroke="black" stroke-width="4" stroke-miterlimit="10" stroke-linecap="round" stroke-linejoin="round"/>
<path d="M309.47 142.91C320.09 141.97 330.63 147.11 333.76 157.56C337.02 168.45 332.56 179.91 322.82 182.04C314.38 183.88 304.66 178.7 302.68 165.29C301.02 154.04 307.46 147.05 311.9 138.3" stroke="black" stroke-width="4" stroke-miterlimit="10" stroke-linecap="round" stroke-linejoin="round"/>
<path d="M149.59 205.02C149.48 205.02 149.37 205.02 149.26 205.01C147.06 204.83 145.42 202.9 145.6 200.7C146.67 187.53 159.17 182.44 169.47 180.48C177.22 179.01 211.77 174.25 226.1 172.94C227.81 173.35 228.9 174.84 229.06 176.54C229.18 177.85 229.19 179.9 227.35 180.88C213.19 182.17 178.58 186.89 170.96 188.34C159.8 190.46 154.11 194.71 153.57 201.35C153.4 203.43 151.65 205.02 149.59 205.02Z" stroke="black" stroke-width="4" stroke-miterlimit="10" stroke-linecap="round" stroke-linejoin="round"/>
<path d="M320.11 157.19L318.67 161.99L320.79 168.44L326.43 170.19L329.61 166.34L327.06 157.19L324.14 155.58L322.06 156.43L320.11 157.19Z" fill="#272E37"/>
<path d="M329.02 161.98C329.5 166.08 328.44 169.66 325.03 170.15C322.19 170.55 319.39 168.17 318.79 163.64C318.24 159.53 319.59 156.06 323.14 155.61C325.98 155.25 328.52 157.76 329.02 161.98Z" stroke="black" stroke-width="4" stroke-miterlimit="10" stroke-linecap="round" stroke-linejoin="round"/>
<path d="M277.67 167.29L274.05 171.06L274 179.37L279.94 183.02L284.15 180.24L285.47 173.04L282.14 168.02L278.95 166.61L277.67 167.29Z" fill="#272E37"/>
<path d="M285.04 174.71C284.75 179.27 282.88 182.96 279.06 182.81C275.89 182.68 273.31 179.52 273.56 174.47C273.78 169.88 275.94 166.37 279.9 166.59C283.07 166.77 285.34 170.01 285.04 174.71Z" stroke="black" stroke-width="4" stroke-miterlimit="10" stroke-linecap="round" stroke-linejoin="round"/>
<path d="M267.41 149.36C275.33 149.09 285.36 156.67 288.55 167.49C291.83 178.61 288.05 195.07 274.83 197.15C259.65 199.54 252.45 190.21 252.03 176.67C251.61 162.98 267.57 149.66 274.06 142.88" stroke="black" stroke-width="4" stroke-miterlimit="10" stroke-linecap="round" stroke-linejoin="round"/>
</svg>
