<svg width="100%" height="100%" viewBox="0 0 450 450" fill="none" xmlns="http://www.w3.org/2000/svg" style="display: block;">

<path d="M313.52 126.97C313.2 126.42 312.71 125.95 312.02 125.61C306.45 122.88 294.94 119.56 290.25 125.44C289.22 125.05 288.07 125.08 287.04 125.77C282.2 129.01 279.28 133.52 277.13 138.87C276.55 140.32 276.15 141.66 275.83 143.05C273.72 139 271.09 135.32 267.06 132.87C266.54 132.55 266 132.39 265.47 132.34C265.45 132.33 265.43 132.31 265.41 132.3C263.2 130.89 261 130.24 258.43 130.14C258.14 129.99 257.82 129.87 257.46 129.78C249.66 127.91 241.73 129.32 235.31 134.23C234.65 134.73 234.22 135.34 233.94 135.98C233.2 136.59 232.5 137.23 231.81 137.9C227.25 139.78 223.52 146.35 222.3 150.44C221.95 151.63 222.13 152.65 222.63 153.46C222.56 153.77 222.51 154.1 222.49 154.45C222.45 155.2 222.41 155.95 222.38 156.71C222.14 157.11 221.97 157.54 221.89 158.02C220.98 163.67 220.41 169.45 221.7 175C220.55 176.23 219.99 177.99 220.5 179.69C221.05 181.53 221.83 183.34 222.87 184.95C223.03 185.2 223.21 185.43 223.41 185.65C223.46 185.71 223.53 185.77 223.58 185.83C223.7 185.95 223.81 186.07 223.94 186.17C224.04 186.26 224.14 186.34 224.25 186.41C224.41 186.53 224.58 186.64 224.76 186.74C224.8 186.76 224.83 186.78 224.86 186.8C225.28 187.02 225.73 187.19 226.2 187.28C226.47 188.02 226.78 188.74 227.14 189.45C227.25 195.14 235.1 200.67 239.32 203.17C241.71 204.58 244.85 207.17 247.85 206.9C248.97 207.39 249.95 207.58 251.37 207.65C251.57 207.77 251.77 207.89 252 207.99C255.13 209.38 258.43 207.22 261.33 206.03C265.19 205.26 268.92 203.72 271.72 201.27C272.36 201.11 272.99 200.76 273.56 200.14C278.27 195.04 282.24 189.91 283.16 183.04C286.6 187.11 291 190.24 296.16 192C299.42 193.12 306.04 194.53 309.09 191.83C315.48 190.91 321.28 187.06 324.63 181.5C327.89 176.07 329.07 170.57 329.15 164.83C331.99 152.67 325.56 133.3 313.52 126.97ZM268.58 193.74C267.94 194.01 267.34 194.44 266.84 195.09C265.31 197.07 262.21 197.4 259.93 197.86C257.72 198.31 255.62 198.6 253.43 198.52C253.08 198.13 252.71 197.76 252.29 197.45C250.82 196.37 249.21 195.92 247.53 195.24C243.34 193.52 240.02 190.58 237.61 186.77C237.28 186.25 236.85 185.86 236.36 185.56C236.27 185.35 236.17 185.13 236.05 184.91C234.76 182.62 234.94 179.63 234.61 177.07C234.28 174.51 233.81 172 233.2 169.5C233.43 169.04 233.6 168.52 233.67 167.94C234.22 163.32 234.82 158.73 235.81 154.18C236.09 152.9 235.79 151.81 235.18 150.98C237.28 147.53 240.28 144.66 243.94 142.41C244.67 141.96 245.2 141.42 245.58 140.82C245.85 140.79 246.14 140.74 246.43 140.65C248.22 140.12 250.01 139.68 251.82 139.29C253.07 139.17 254.3 139.14 255.52 139.19C255.81 139.92 256.38 140.58 257.35 141.03C259.31 141.94 261.69 142.28 263.45 143.42C265.57 144.79 267.3 147.22 268.7 149.25C268.9 149.54 269.12 149.78 269.34 150C268.98 151.5 269.41 153.16 271.15 154.17C271.15 154.17 271.16 154.17 271.16 154.18C271.2 154.26 271.23 154.34 271.27 154.42C271.34 154.7 271.44 154.99 271.57 155.28C272.21 156.73 272.85 158.18 273.5 159.63C273.28 160.5 273.41 161.48 274.07 162.49C275.43 164.54 275.03 168 275.13 170.4C275.26 173.37 275.37 176.36 275.36 179.34C275.36 185.45 272.45 189.47 268.58 193.74ZM320.63 156.57C321.64 163.49 321.79 169.62 318.52 176C316.19 180.56 312.22 183.36 307.47 183.89C307.47 183.89 307.47 183.89 307.46 183.89C303.94 182.48 300.91 182.11 297.67 179.88C293.81 177.22 291.9 174.89 290.42 170.4C288.85 165.63 287.72 160.75 286.89 155.79C286.74 154.92 286.37 154.26 285.87 153.79C286.77 147.06 289.1 139.88 293.34 134.6C294.39 134.44 295.24 133.83 295.8 133.01C296.58 132.45 297.85 132.02 299.2 131.67C299.86 132.6 300.91 133.23 302.29 133.18C304.12 133.12 305.95 133.09 307.79 133.07C314.99 134.84 319.84 144.89 321.34 153.54C320.76 154.35 320.45 155.38 320.63 156.57Z" fill="COLOR_PLACEHOLDER"/>
<path d="M275.07 168.64C277.04 186.65 267.65 198.45 256.04 198.45C254.79 198.45 253.52 198.3 252.31 197.98C251.48 197.76 250.88 197.23 250.09 196.97C248.44 196.42 246.09 197.3 244.99 198.57C244.23 199.44 243.85 200.57 243.5 201.67C242.77 203.92 242.03 206.17 241.3 208.42C240.83 209.86 240.34 211.34 239.35 212.48C238.03 214 236.41 214.25 234.62 214.75C232.44 215.35 230.47 216.09 228.17 215.61C225.72 215.09 223.47 212.97 223.55 210.47C223.57 209.92 223.69 209.38 223.84 208.86C224.66 205.88 226.11 202.5 228.8 200.87C230.83 199.64 232.87 198.4 235.1 197.59C235.78 197.34 236.49 197.13 237.11 196.75C238.22 196.08 238.96 194.92 239.39 193.7C239.76 192.66 240.13 191.28 240.11 190.17C240.09 189.22 239.58 188.72 239.04 187.94C237.78 186.12 236.71 184.16 235.84 182.13C234.02 177.9 233.04 173.3 233.04 168.68C233.04 152.9 242.45 140.1 254.06 140.1C265.67 140.1 275.07 152.86 275.07 168.64Z" fill="white"/>
<path d="M322.68 170.68C323.84 171.94 325.52 172.71 327.23 172.78C328.62 172.84 329.99 172.45 331.26 171.9C331.62 171.75 331.98 171.58 332.36 171.51C332.8 171.43 333.25 171.49 333.69 171.55C335.06 171.74 336.49 171.95 337.62 172.73C338.21 173.14 338.69 173.68 339.14 174.25C339.64 174.88 340.11 175.55 340.37 176.31C340.77 177.5 340.6 178.8 340.42 180.05C340.36 180.5 340.29 180.97 340.07 181.37C339.7 182.06 338.96 182.44 338.26 182.79C337.46 183.19 336.65 183.59 335.77 183.77C334.14 184.1 332.47 183.61 330.91 183.06C329.24 182.48 327.6 181.82 325.99 181.1C325.23 180.76 324.47 180.4 323.69 180.08C322.8 179.72 321.86 179.41 320.9 179.42C319.51 179.43 318.21 180.08 316.92 180.6C313.26 182.1 309.31 182.6 305.38 182.6C296.14 182.6 287.07 170.69 287.07 157.28C287.07 143.87 294.56 133 303.8 133C313.04 133 320.53 143.87 320.53 157.28C320.72 159.16 320.79 161.05 320.7 162.93C320.63 164.46 321.13 165.94 321.33 167.44C321.51 168.62 321.84 169.77 322.68 170.68Z" fill="white"/>
<path d="M148.56 181.98L168.81 178.23L208.34 174.27H214.16L215.1 177.53L212.48 180.67L155.63 187.83L144.14 193.27L140.17 198.54L138.6 203.66L135.26 205.02L131.8 202.32L133.53 193.71L139.36 186.91L148.56 181.98Z" fill="COLOR_PLACEHOLDER"/>
<path d="M242.34 205.61C246.62 207.34 251.54 208.14 257.16 207.72C276.06 206.31 283.84 189.37 283.65 182.4" stroke="black" stroke-width="4" stroke-miterlimit="10" stroke-linecap="round" stroke-linejoin="round"/>
<path d="M279.33 151.15C276.06 135.15 261.56 125.26 243.96 129.4C227.29 133.32 218.09 153.27 220.46 172.1C221.7 181.95 225.44 191.71 231.99 198.53" stroke="black" stroke-width="4" stroke-miterlimit="10" stroke-linecap="round" stroke-linejoin="round"/>
<path d="M324.53 182.22C319.54 190.65 311.28 192.57 306.95 193.13C293.82 194.82 286.64 188.43 283.55 184.59" stroke="black" stroke-width="4" stroke-miterlimit="10" stroke-linecap="round" stroke-linejoin="round"/>
<path d="M276.06 141.63C277.3 135.25 283 124.7 296.67 122.32C311.42 119.75 325.44 130.17 329.09 151.68C330.36 159.18 330.07 166.08 328.53 172.01" stroke="black" stroke-width="4" stroke-miterlimit="10" stroke-linecap="round" stroke-linejoin="round"/>
<path d="M251.14 139.82C262.81 138.59 273.26 152.82 274.99 165.09C276.82 178.02 273.96 194.57 260.84 197.16C258.44 197.64 255.95 197.78 253.52 197.44C251.74 197.19 249.67 195.92 247.92 195.94C243.4 195.99 243.15 202.51 242.28 205.89C241.65 208.34 240.95 210.91 239.2 212.73C235.88 216.18 229.64 217.71 225.53 214.96C220.52 211.61 223.53 205.44 227.13 202.29C230.43 199.4 234.52 197.56 237.73 194.57C238.78 193.59 239.76 192.43 240.07 191.03C240.64 188.45 237.33 184.97 236.31 182.66C234.83 179.29 233.85 175.7 233.35 172.05C231.51 158.64 237.4 141.26 251.14 139.82Z" stroke="#42474F" stroke-width="4" stroke-miterlimit="10" stroke-linecap="round" stroke-linejoin="round"/>
<path d="M338.22 171.64C341.45 173.26 342.26 176.61 341.66 179.5C340.91 183.12 337.79 184.46 335.02 184.59C330.87 184.79 328.52 182.95 324.63 181.49C321.97 180.5 321.16 178.94 317 179.9C314.05 180.58 312.79 183.15 307.58 183.24C304.62 183.29 301.65 182.41 299.12 180.73C292.4 176.26 288.67 167.89 287.53 160.14C285.87 148.89 288.84 135.07 299.36 132.68C310.82 130.07 318.32 142.8 320.19 153.79C320.91 158.01 321.15 162.27 320.8 166.54C320.46 170.65 323.47 173.21 326.94 172.63C331.78 171.81 334.55 169.8 338.22 171.64Z" stroke="#42474F" stroke-width="4" stroke-miterlimit="10" stroke-linecap="round" stroke-linejoin="round"/>
<path d="M135.59 205.03C135.48 205.03 135.37 205.03 135.26 205.02C133.06 204.84 131.42 202.91 131.6 200.71C132.67 187.54 145.17 182.45 155.47 180.49C163.22 179.02 197.77 174.26 212.1 172.95C213.81 173.36 214.9 174.85 215.06 176.55C215.18 177.86 215.19 179.91 213.35 180.89C199.19 182.18 164.58 186.9 156.96 188.35C145.8 190.47 140.11 194.72 139.57 201.36C139.4 203.45 137.65 205.03 135.59 205.03Z" stroke="black" stroke-width="4" stroke-miterlimit="10" stroke-linecap="round" stroke-linejoin="round"/>
<path d="M240.95 174.27C238.07 163.64 242.93 149.38 251.11 148.11C259.3 146.84 267.06 155.38 268.33 166.71C269.6 178.04 268.54 187.92 259.44 190.46C254.13 191.95 244.76 188.34 240.95 174.27Z" fill="#272E37"/>
<path d="M240.95 174.27C238.07 163.64 242.93 149.38 251.11 148.11C259.3 146.84 267.06 155.38 268.33 166.71C269.6 178.04 268.54 187.92 259.44 190.46C254.13 191.95 244.76 188.34 240.95 174.27Z" stroke="black" stroke-width="4" stroke-miterlimit="10" stroke-linecap="round" stroke-linejoin="round"/>
<path d="M245.74 159.56C246.79 156.19 251.14 152.99 254.75 153.71C260.54 154.87 262.17 163.19 258.18 168.89C256.62 171.13 251.79 173.44 248.53 171.71C245.04 169.86 244.37 163.96 245.74 159.56Z" fill="white"/>
<path d="M256.14 176.19C256.67 174.5 258.85 172.89 260.67 173.25C263.58 173.83 264.39 178.01 262.39 180.87C261.61 181.99 259.18 183.16 257.54 182.28C255.79 181.36 255.45 178.4 256.14 176.19Z" fill="white"/>
<path d="M294.28 161.61C292.16 153.3 295.74 142.14 301.76 141.14C307.79 140.15 313.51 146.83 314.44 155.69C315.38 164.55 314.6 172.28 307.89 174.27C303.98 175.44 297.08 172.62 294.28 161.61Z" fill="#272E37"/>
<path d="M294.28 161.23C292.16 152.67 295.74 141.18 301.76 140.16C307.79 139.14 313.51 146.01 314.44 155.14C315.38 164.26 314.6 172.22 307.89 174.27C303.98 175.46 297.08 172.56 294.28 161.23Z" stroke="black" stroke-width="4" stroke-miterlimit="10" stroke-linecap="round" stroke-linejoin="round"/>
<path d="M297.8 150.1C298.58 147.46 301.78 144.96 304.44 145.53C308.7 146.44 309.9 152.95 306.97 157.41C305.82 159.16 302.27 160.97 299.86 159.61C297.29 158.16 296.79 153.54 297.8 150.1Z" fill="white"/>
<path d="M305.46 163.11C305.85 161.79 307.46 160.53 308.79 160.81C310.93 161.27 311.53 164.53 310.06 166.77C309.48 167.65 307.7 168.56 306.49 167.88C305.2 167.16 304.95 164.84 305.46 163.11Z" fill="white"/>
</svg>
