<svg width="100%" height="100%" viewBox="0 0 450 450" fill="none" xmlns="http://www.w3.org/2000/svg" style="display: block;">
<path d="M289.07 168.64C291.04 186.65 281.65 198.45 270.04 198.45C258.43 198.45 247.03 184.43 247.03 168.64C247.03 152.85 256.44 140.06 268.05 140.06C279.66 140.06 289.07 152.86 289.07 168.64Z" fill="white"/>
<path d="M273.35 160.73L270.6 164.88L271.97 172.68L278.17 175.08L281.64 171.75V164.78L277.66 160.64L274.42 159.87L273.35 160.73Z" fill="#272E37"/>
<path d="M281.53 166.41C282.04 170.74 280.92 174.52 277.32 175.03C274.33 175.46 271.37 172.93 270.73 168.16C270.15 163.82 271.57 160.15 275.32 159.68C278.31 159.31 281 161.96 281.53 166.41Z" stroke="black" stroke-width="4" stroke-miterlimit="10" stroke-linecap="round" stroke-linejoin="round"/>
<path d="M334.55 157.28C336.12 172.58 328.64 182.6 319.4 182.6C310.16 182.6 301.09 170.69 301.09 157.28C301.09 143.87 308.58 133 317.82 133C327.06 133 334.55 143.87 334.55 157.28Z" fill="white"/>
<path d="M317.45 149.94L316.26 154.74L318.66 160.98L324.3 162.44L327.25 158.49L324.29 149.61L321.34 148.15L319.34 149.09L317.45 149.94Z" fill="#272E37"/>
<path d="M326.45 154.23C327.12 158.24 326.25 161.82 322.91 162.47C320.14 163 317.26 160.79 316.45 156.36C315.71 152.33 316.87 148.85 320.35 148.24C323.13 147.75 325.76 150.1 326.45 154.23Z" stroke="black" stroke-width="4" stroke-miterlimit="10" stroke-linecap="round" stroke-linejoin="round"/>
<path d="M327.51 126.74C327.19 126.19 326.7 125.72 326.01 125.38C320.44 122.65 308.93 119.33 304.24 125.21C303.21 124.82 302.06 124.85 301.03 125.54C296.19 128.78 293.27 133.29 291.12 138.64C290.54 140.09 290.14 141.43 289.82 142.82C287.71 138.77 285.08 135.09 281.05 132.64C280.53 132.32 279.99 132.16 279.46 132.11C279.44 132.1 279.42 132.08 279.4 132.07C277.19 130.66 274.99 130.01 272.42 129.91C272.13 129.76 271.81 129.64 271.45 129.55C263.65 127.68 255.72 129.09 249.3 134C248.64 134.5 248.21 135.11 247.93 135.75C247.19 136.36 246.49 137 245.8 137.67C241.24 139.55 237.51 146.12 236.29 150.21C235.94 151.4 236.12 152.42 236.62 153.23C236.55 153.54 236.5 153.87 236.48 154.22C236.44 154.97 236.4 155.72 236.37 156.48C236.13 156.88 235.96 157.31 235.88 157.79C234.97 163.44 234.4 169.22 235.69 174.77C234.54 176 233.98 177.76 234.49 179.46C235.04 181.3 235.82 183.11 236.86 184.72C237.02 184.97 237.2 185.2 237.4 185.42C237.45 185.48 237.52 185.54 237.57 185.6C237.69 185.72 237.8 185.84 237.93 185.94C238.03 186.03 238.13 186.11 238.24 186.18C238.4 186.3 238.57 186.41 238.75 186.51C238.79 186.53 238.82 186.55 238.85 186.57C239.27 186.79 239.72 186.96 240.19 187.05C240.46 187.79 240.77 188.51 241.13 189.22C241.24 194.91 249.09 200.44 253.31 202.94C255.7 204.35 258.84 206.94 261.84 206.67C262.96 207.16 263.94 207.35 265.36 207.42C265.56 207.54 265.76 207.66 265.99 207.76C269.12 209.15 272.42 206.99 275.32 205.8C279.18 205.03 282.91 203.49 285.71 201.04C286.35 200.88 286.98 200.53 287.55 199.91C292.26 194.81 296.23 189.68 297.15 182.81C300.59 186.88 304.99 190.01 310.15 191.77C313.41 192.89 320.03 194.3 323.08 191.6C329.47 190.68 335.27 186.83 338.62 181.27C341.88 175.84 343.06 170.34 343.14 164.6C345.98 152.45 339.55 133.08 327.51 126.74ZM282.58 193.52C281.94 193.79 281.34 194.22 280.84 194.87C279.31 196.85 276.21 197.18 273.93 197.64C271.72 198.09 269.62 198.38 267.43 198.3C267.08 197.91 266.71 197.54 266.29 197.23C264.82 196.15 263.21 195.7 261.53 195.02C257.34 193.3 254.02 190.36 251.61 186.55C251.28 186.03 250.85 185.64 250.36 185.34C250.27 185.13 250.17 184.91 250.05 184.69C248.76 182.4 248.94 179.41 248.61 176.85C248.28 174.29 247.81 171.78 247.2 169.28C247.43 168.82 247.6 168.3 247.67 167.72C247.94 165.42 248.23 163.13 248.57 160.84C248.79 159.35 248.72 156.06 250.14 155.15C250.9 154.66 251.86 154.62 252.76 154.68C257.83 155.02 262.27 158.25 267.26 159.24C270.49 159.88 273.82 159.56 277.1 159.78C279.01 159.9 280.9 160.21 282.78 160.59C284.06 160.85 285.95 160.89 287.13 161.51C289.89 162.95 289.04 167.65 289.15 170.18C289.28 173.15 289.39 176.14 289.38 179.12C289.35 185.23 286.45 189.25 282.58 193.52ZM327.11 143.94C327.89 143.6 328.75 143.42 329.59 143.58C330.61 143.77 331.46 144.45 332.26 145.1C333.47 146.08 333.83 147.36 334.26 148.81C334.49 149.59 334.7 150.38 334.88 151.18C334.96 151.52 335.5 153.06 335.31 153.33C334.74 154.14 334.44 155.17 334.61 156.36C335.62 163.28 335.77 169.41 332.5 175.79C330.17 180.35 326.2 183.15 321.44 183.68C317.92 182.27 314.89 181.9 311.65 179.67C307.79 177.01 305.88 174.68 304.4 170.19C303.86 168.54 303.36 166.87 302.92 165.19C302.46 163.44 301.54 161.75 302.83 160.29C303.31 159.75 303.79 159.2 304.28 158.66C304.95 157.91 305.64 156.92 306.43 156.31C307.44 155.54 308.89 155.07 310.02 154.5C312.4 153.31 314.78 152.12 317.16 150.94C318.21 150.42 319.26 149.89 320.24 149.25C322.75 147.6 324.31 145.17 327.11 143.94Z" 
fill="COLOR_PLACEHOLDER"/>
<path d="M162.56 181.98L182.81 178.23L222.34 174.27H228.16L229.1 177.53L226.48 180.67L169.63 187.83L158.14 193.27L154.17 198.54L152.6 203.66L149.26 205.02L145.8 202.32L147.53 193.71L153.36 186.91L162.56 181.98Z" 
fill="COLOR_PLACEHOLDER"/>
<path d="M293.33 151.15C290.06 135.15 275.56 125.26 257.96 129.4C241.29 133.32 232.09 153.27 234.46 172.1C236.83 190.91 248.31 209.42 271.17 207.71C290.07 206.3 297.85 189.36 297.66 182.39" stroke="black" stroke-width="4" stroke-miterlimit="10" stroke-linecap="round" stroke-linejoin="round"/>
<path d="M290.06 141.63C291.3 135.25 297 124.7 310.67 122.32C325.42 119.75 339.44 130.17 343.09 151.68C346.89 174.08 336.78 191.1 320.95 193.14C307.82 194.83 300.64 188.44 297.55 184.6" stroke="black" stroke-width="4" stroke-miterlimit="10" stroke-linecap="round" stroke-linejoin="round"/>
<path opacity="0.2" d="M265.14 139.82C276.81 138.59 287.26 152.82 288.99 165.09C289.35 167.62 289.53 170.29 289.48 172.97C289.3 183.97 285.39 195.08 274.83 197.17C258.1 200.48 249.18 185.5 247.34 172.07C245.5 158.64 251.4 141.26 265.14 139.82Z" stroke="black" stroke-width="4" stroke-miterlimit="10" stroke-linecap="round" stroke-linejoin="round"/>
<path opacity="0.2" d="M313.35 132.68C324.81 130.07 332.31 142.8 334.18 153.79C336.11 165.15 335.17 180.9 322.81 183.05C312.86 184.78 303.5 173.56 301.52 160.14C299.86 148.89 302.83 135.07 313.35 132.68Z" stroke="black" stroke-width="4" stroke-miterlimit="10" stroke-linecap="round" stroke-linejoin="round"/>
<path d="M149.59 205.03C149.48 205.03 149.37 205.03 149.26 205.02C147.06 204.84 145.42 202.91 145.6 200.71C146.67 187.54 159.17 182.45 169.47 180.49C177.22 179.02 211.77 174.26 226.1 172.95C227.81 173.36 228.9 174.85 229.06 176.55C229.18 177.86 229.19 179.91 227.35 180.89C213.19 182.18 178.58 186.9 170.96 188.35C159.8 190.47 154.11 194.72 153.57 201.36C153.4 203.45 151.65 205.03 149.59 205.03Z" stroke="black" stroke-width="4" stroke-miterlimit="10" stroke-linecap="round" stroke-linejoin="round"/>
<path d="M288.13 161.05C288.51 162.4 288.8 163.75 288.99 165.08C290.82 178.01 287.96 194.56 274.84 197.15C258.11 200.46 249.19 185.48 247.35 172.05C246.55 166.23 247.21 159.68 249.32 153.99" stroke="black" stroke-width="4" stroke-miterlimit="10" stroke-linecap="round" stroke-linejoin="round"/>
<path d="M329.74 141.5C331.96 145.23 333.48 149.63 334.18 153.79C336.11 165.15 335.17 180.9 322.81 183.05C312.95 184.77 303.67 173.76 301.58 160.51" stroke="black" stroke-width="4" stroke-miterlimit="10" stroke-linecap="round" stroke-linejoin="round"/>
<path d="M245.77 152.53C256.98 157.8 282.13 162 291.26 160.81" stroke="black" stroke-width="4" stroke-miterlimit="10" stroke-linecap="round" stroke-linejoin="round"/>
<path d="M300.35 161.05C308.26 157.67 323.3 148.33 330.84 140.39" stroke="black" stroke-width="4" stroke-miterlimit="10" stroke-linecap="round" stroke-linejoin="round"/>
</svg>
