<svg width="100%" height="100%" viewBox="0 0 450 450" fill="none" xmlns="http://www.w3.org/2000/svg" style="display: block;">

<path d="M280.51 181.71L267.19 190.65L249.57 190.09L235.44 183.24L236.15 176.92L278.39 156.95L282.66 156.93L282.46 159.21L291.16 155.02L302.36 153.27H316.24L324.48 156.93L324.85 165.05L318.93 172.98L304.53 180.58L293.8 173.79L281.44 170.95L280.51 181.71Z" fill="white"/>
<path d="M287.22 171.51C289.42 168.62 289.85 165.75 289.85 165.75C289.85 165.75 293.8 164.17 297.05 165.29" stroke="#FF7087" stroke-width="2" stroke-miterlimit="10" stroke-linecap="round" stroke-linejoin="round"/>
<path d="M292.13 165.12C292.15 162.79 293.42 160.62 294.64 160.03" stroke="#FF7087" stroke-width="2" stroke-miterlimit="10" stroke-linecap="round" stroke-linejoin="round"/>
<path d="M294.64 175.6C296.76 173.45 298.66 170.73 299.44 168.76" stroke="#FF7087" stroke-width="2" stroke-miterlimit="10" stroke-linecap="round" stroke-linejoin="round"/>
<path d="M297.65 171.96C299.32 172.34 305.02 172.59 306.08 171.96" stroke="#FF7087" stroke-width="2" stroke-miterlimit="10" stroke-linecap="round" stroke-linejoin="round"/>
<path d="M235.44 183.24C239.73 182.41 242.27 180.67 243.26 179.35C246.51 180.01 249.33 181.7 251.45 182.55" stroke="#FF7087" stroke-width="2" stroke-miterlimit="10" stroke-linecap="round" stroke-linejoin="round"/>
<path d="M247.44 180.74C247.44 180.74 247.87 179.24 248.61 177.98C249.02 177.28 250.27 177 251.26 175.89" stroke="#FF7087" stroke-width="2" stroke-miterlimit="10" stroke-linecap="round" stroke-linejoin="round"/>
<path d="M248.37 188.95C250.95 185.94 253.85 185.24 256.53 184.53" stroke="#FF7087" stroke-width="2" stroke-miterlimit="10" stroke-linecap="round" stroke-linejoin="round"/>
<path d="M256.3 166.81L270.27 160.29L272.43 170.98L265.75 176.39L261.91 175.64L258.08 173.09L256.3 166.81Z" fill="#525963"/>
<path d="M306.86 152.81L313.66 153.27L319.35 154.65L317.44 162.13L313.63 165.05L308.83 163.14L306.86 159.59V152.81Z" fill="#525963"/>
<path d="M284.92 128.31L300.71 126.7L316.43 132.93L328.18 145.67L333.62 147.67L334.64 151.97L329.84 156L314.23 152.71L295.77 153.86L283.35 159.02L281.84 155.41L234.79 176.44L235.44 183.24L246.08 189L267.26 190.09L281.12 180.04L283.63 170.32L295.68 175.38L299.08 178.47L305.04 179.35L313.16 177.74L323.34 167.68L325.56 157.42L331.42 156.27L334.01 160.1L331.21 166.46L329.23 178.79L321.66 186.74L303.13 188.36L285.61 184.53L285.19 188.76L281.06 191.77L278.86 194.8L267.73 205.71L256.05 210.46L244.57 211.57L236.32 209.22L228.29 202.21L226.1 195.84L225.28 189.65L224.34 181.71L220.87 176.99L222.93 170.04L226.31 159.59L235.74 146.1L252.15 131.87L267.35 130.88L277.03 137.66L284.92 128.31Z" fill="COLOR_PLACEHOLDER"/>
<path d="M331.42 155.41C333.8 158.65 333.21 162.55 331.21 166.46C332.97 176.39 325.2 186.4 314.41 188.53C296.06 192.15 289.7 183.24 285.61 184.53" stroke="black" stroke-width="4" stroke-miterlimit="10" stroke-linecap="round" stroke-linejoin="round"/>
<path d="M277.03 140.1C278.27 133.72 282.78 128.04 289.98 126.08C297.11 124.14 310.11 127.97 315.18 132.93C321.6 139.21 326.32 141.07 328.41 146.2" stroke="black" stroke-width="4" stroke-miterlimit="10" stroke-linecap="round" stroke-linejoin="round"/>
<path d="M281.84 155.41C284.34 165.09 281.92 179.02 280.51 181.7" stroke="black" stroke-width="4" stroke-miterlimit="10" stroke-linecap="round" stroke-linejoin="round"/>
<path d="M223.59 180.29C221.14 178.78 220.68 176.82 220.49 175.03C220.3 173.24 221.71 169.38 223.5 168.29C226.46 162.57 226.53 159.76 229.26 156C231.88 152.38 235.39 146.97 238.63 143.78C248.35 134.18 253.11 130.64 261.92 130.09C268.65 129.67 276.55 134.4 278.41 144.59C279.66 144.45 283.86 144.16 284.76 148.61C285.36 151.56 284.84 155.95 277.3 156.59C273.77 156.66 252.17 170 243.84 172.5C240.36 174.95 236.59 177.49 230.76 178.43" stroke="black" stroke-width="4" stroke-miterlimit="10" stroke-linecap="round" stroke-linejoin="round"/>
<path d="M234.47 177.52C234.1 179.03 234.25 181.71 235.43 183.24C237.4 185.79 241.37 186.94 244.8 187.28C248.61 189.33 251.53 190.16 254.73 190.46C259.24 190.88 264.05 190.79 270.12 188.48C277.62 185.63 277.11 182.64 280.5 181.7C283.42 180.85 285.37 182.52 285.6 184.52C285.84 186.59 284.8 188.34 283.13 189.43" stroke="black" stroke-width="4" stroke-miterlimit="10" stroke-linecap="round" stroke-linejoin="round"/>
<path d="M148.56 181.98L168.81 178.23L208.34 174.27H214.16L215.1 177.53L212.48 180.67L155.63 187.83L144.14 193.27L140.17 198.54L138.6 203.66L135.26 205.02L131.8 202.32L133.53 193.71L139.36 186.91L148.56 181.98Z" fill="COLOR_PLACEHOLDER"/>
<path d="M135.59 205.03C135.48 205.03 135.37 205.03 135.26 205.02C133.06 204.84 131.42 202.91 131.6 200.71C132.67 187.54 145.17 182.45 155.47 180.49C163.22 179.02 197.77 174.26 212.1 172.95C213.81 173.36 214.9 174.85 215.06 176.55C215.18 177.86 215.19 179.91 213.35 180.89C199.19 182.18 164.58 186.9 156.96 188.35C145.8 190.47 140.11 194.72 139.57 201.36C139.4 203.45 137.65 205.03 135.59 205.03Z" stroke="black" stroke-width="4" stroke-miterlimit="10" stroke-linecap="round" stroke-linejoin="round"/>
<path d="M256.05 168.23C256.81 173.94 260.62 177.93 266.13 176.8C272.86 175.42 273 166.94 270.91 161.41" stroke="black" stroke-width="4" stroke-miterlimit="10" stroke-linecap="round" stroke-linejoin="round"/>
<path d="M222.42 166.61C223.82 165.83 225.26 165.38 226.68 165.09C228.1 164.8 229.52 164.68 230.89 164.64C231.72 164.62 232.41 165.27 232.43 166.1C232.45 166.87 231.89 167.51 231.16 167.63C229.91 167.82 228.71 168.09 227.57 168.47C226.44 168.85 225.4 169.36 224.56 169.98C223.67 170.64 222.42 170.46 221.75 169.57C221.09 168.68 221.27 167.43 222.16 166.76C222.23 166.71 222.3 166.66 222.37 166.62L222.42 166.61Z" fill="black"/>
<path d="M282.66 160.1C288.08 157.21 292.22 154.93 299.44 153.35C319.97 148.85 324 157.81 331.42 155.41C333.82 154.63 334.64 153.16 334.64 151.16C334.64 147.87 331.02 145.65 328.41 146.19" stroke="black" stroke-width="4" stroke-miterlimit="10" stroke-linecap="round" stroke-linejoin="round"/>
<path d="M324.96 156C325.89 160.34 325.8 163.63 324.29 166.18C322.78 168.73 315.82 179.36 305.04 179.36C296.05 179.36 295.83 175.35 290.64 172.82C287.71 171.39 284.38 170.73 282.66 170.95" stroke="black" stroke-width="4" stroke-miterlimit="10" stroke-linecap="round" stroke-linejoin="round"/>
<path d="M307.26 153.72C305.7 157 305.56 164.81 311.58 165.4C318.23 166.05 320.4 159.92 319.9 155.56" stroke="black" stroke-width="4" stroke-miterlimit="10" stroke-linecap="round" stroke-linejoin="round"/>
<path opacity="0.4" d="M297.66 139.78C302.32 138.98 307.54 139.12 310.65 139.78" stroke="black" stroke-width="3" stroke-miterlimit="10" stroke-linecap="round" stroke-linejoin="round"/>
<path opacity="0.4" d="M238.69 163.26C243.77 162.27 253.49 151.92 257.16 150.22" stroke="black" stroke-width="3" stroke-miterlimit="10" stroke-linecap="round" stroke-linejoin="round"/>
<path opacity="0.4" d="M243.86 153.97C245.6 152.71 247.72 150.27 249.09 149.59" stroke="black" stroke-width="3" stroke-miterlimit="10" stroke-linecap="round" stroke-linejoin="round"/>
<path d="M283.14 189.44C277 196.51 272.88 201.95 266.69 205.99C260.51 210.03 247.83 213.87 239.43 209.9C230.02 205.46 228.92 202.6 226.72 197.32C224.72 192.53 223.21 184.08 223.59 180.29" stroke="black" stroke-width="4" stroke-miterlimit="10" stroke-linecap="round" stroke-linejoin="round"/>
<path opacity="0.3" d="M225.28 195.33C225.66 200.4 233.6 208.32 242.97 211.4C248.31 213.16 255.66 211.31 262.41 208.44C267.89 206.11 272.53 202.32 275.36 199.51C276.16 197.65 280.81 190.65 280.81 190.65C280.81 190.65 272.16 196.34 262.43 196.34C256.23 196.34 244.32 196.34 243.31 192.16C241.8 191.13 239.78 189.68 241.89 187.77C240.77 186.98 232.89 178.59 232.33 175.89C230.37 175.63 228.02 178.95 222.19 177.58C222.19 177.59 224.42 183.71 225.28 195.33Z" fill="black"/>
<path opacity="0.4" d="M249.35 207.61C261.11 207.26 266.72 205.28 272.21 201.58" stroke="black" stroke-width="3" stroke-miterlimit="10" stroke-linecap="round" stroke-linejoin="round"/>
<path opacity="0.4" d="M257.8 201.26C277.76 199 280.94 191.34 283.14 189.44" stroke="black" stroke-width="3" stroke-miterlimit="10" stroke-linecap="round" stroke-linejoin="round"/>
<path opacity="0.4" d="M232.53 192.46C233 197.57 235.44 203.02 243.89 206.56" stroke="black" stroke-width="3" stroke-miterlimit="10" stroke-linecap="round" stroke-linejoin="round"/>
<path opacity="0.4" d="M238.69 195.76C239.86 197.55 245.28 202.45 252.15 201.45" stroke="black" stroke-width="3" stroke-miterlimit="10" stroke-linecap="round" stroke-linejoin="round"/>
<path opacity="0.3" d="M283.73 171.26C287.12 171.26 296.81 175.36 297.94 178.41C297.96 181.7 304.11 184.53 311.87 183.24C322.02 181.55 327.24 172.41 329.23 169.43L331.39 170.83L325.56 182.82L316.48 188.52L308.34 188.89L294.07 186.1L284.92 183.23L280.87 177.51L283.73 171.26Z" fill="black"/>
</svg>
