<svg width="100%" height="100%" viewBox="0 0 450 450" fill="none" xmlns="http://www.w3.org/2000/svg" style="display: block;">

<path d="M313.52 126.97C313.2 126.42 312.71 125.95 312.02 125.61C306.45 122.88 294.94 119.56 290.25 125.44C289.22 125.05 288.07 125.08 287.04 125.77C282.2 129.01 279.28 133.52 277.13 138.87C276.55 140.32 276.15 141.66 275.83 143.05C273.72 139 271.09 135.32 267.06 132.87C266.54 132.55 266 132.39 265.47 132.34C265.45 132.33 265.43 132.31 265.41 132.3C263.2 130.89 261 130.24 258.43 130.14C258.14 129.99 257.82 129.87 257.46 129.78C249.66 127.91 241.73 129.32 235.31 134.23C234.65 134.73 234.22 135.34 233.94 135.98C233.2 136.59 232.5 137.23 231.81 137.9C227.25 139.78 223.52 146.35 222.3 150.44C221.95 151.63 222.13 152.65 222.63 153.46C222.56 153.77 222.51 154.1 222.49 154.45C222.45 155.2 222.41 155.95 222.38 156.71C222.14 157.11 221.97 157.54 221.89 158.02C220.98 163.67 220.41 169.45 221.7 175C220.55 176.23 219.99 177.99 220.5 179.69C221.05 181.53 221.83 183.34 222.87 184.95C223.03 185.2 223.21 185.43 223.41 185.65C223.46 185.71 223.53 185.77 223.58 185.83C223.7 185.95 223.81 186.07 223.94 186.17C224.04 186.26 224.14 186.34 224.25 186.41C224.41 186.53 224.58 186.64 224.76 186.74C224.8 186.76 224.83 186.78 224.86 186.8C225.28 187.02 225.73 187.19 226.2 187.28C226.47 188.02 226.78 188.74 227.14 189.45C227.25 195.14 235.1 200.67 239.32 203.17C241.71 204.58 244.85 207.17 247.85 206.9C248.97 207.39 249.95 207.58 251.37 207.65C251.57 207.77 251.77 207.89 252 207.99C255.13 209.38 258.43 207.22 261.33 206.03C265.19 205.26 268.92 203.72 271.72 201.27C272.36 201.11 272.99 200.76 273.56 200.14C278.27 195.04 282.24 189.91 283.16 183.04C286.6 187.11 291 190.24 296.16 192C299.42 193.12 306.04 194.53 309.09 191.83C315.48 190.91 321.28 187.06 324.63 181.5C327.89 176.07 329.07 170.57 329.15 164.83C331.99 152.67 325.56 133.3 313.52 126.97Z" 
fill="COLOR_PLACEHOLDER"/>
<path d="M279.33 151.15C276.06 135.15 261.56 125.26 243.96 129.4C227.29 133.32 218.09 153.27 220.46 172.1C222.83 190.91 234.31 209.42 257.17 207.71C276.07 206.3 283.85 189.36 283.66 182.39" stroke="black" stroke-width="4" stroke-miterlimit="10" stroke-linecap="round" stroke-linejoin="round"/>
<path d="M276.06 141.63C277.3 135.25 283 124.7 296.67 122.32C311.42 119.75 325.44 130.17 329.09 151.68C332.89 174.08 322.78 191.1 306.95 193.14C293.82 194.83 286.64 188.44 283.55 184.6" stroke="black" stroke-width="4" stroke-miterlimit="10" stroke-linecap="round" stroke-linejoin="round"/>
<path d="M262.39 194.134C271.656 192.689 277.333 179.742 275.068 165.215C272.804 150.689 263.457 140.083 254.191 141.527C244.925 142.971 239.248 155.918 241.513 170.445C243.777 184.972 253.124 195.578 262.39 194.134Z" fill="white"/>
<path d="M270.79 165.94C272.53 177.1 270.8 187.65 262.53 187.93C257.89 188.09 251.96 185.37 249.62 176.3L259.3 167.72L247.31 163.93C246.72 155.35 248.52 148.71 256.22 147.51C263.56 146.36 269.05 154.78 270.79 165.94Z" fill="black"/>
<path d="M319.92 154.41C321.83 166.69 320.32 177.82 308.3 179C299.91 179.82 294.51 171.02 291.94 158.4C289.47 146.22 293.06 136 301.37 134.53C311.52 132.72 318 142.13 319.92 154.41Z" fill="white"/>
<path d="M316.96 155.01C318.48 164.75 316.97 173.94 309.75 174.19C305.7 174.33 300.53 171.95 298.49 164.04L306.93 156.56L296.48 153.25C295.96 145.76 297.53 139.98 304.25 138.93C310.66 137.93 315.44 145.27 316.96 155.01Z" fill="black"/>
</svg>
