<svg width="100%" height="100%" viewBox="0 0 450 450" fill="none" xmlns="http://www.w3.org/2000/svg" style="display: block;">

<path d="M313.52 126.97C313.2 126.42 312.71 125.95 312.02 125.61C306.45 122.88 294.94 119.56 290.25 125.44C289.22 125.05 288.07 125.08 287.04 125.77C282.2 129.01 279.28 133.52 277.13 138.87C276.55 140.32 276.15 141.66 275.83 143.05C273.72 139 271.09 135.32 267.06 132.87C266.54 132.55 266 132.39 265.47 132.34C265.45 132.33 265.43 132.31 265.41 132.3C263.2 130.89 261 130.24 258.43 130.14C258.14 129.99 257.82 129.87 257.46 129.78C249.66 127.91 241.73 129.32 235.31 134.23C234.65 134.73 234.22 135.34 233.94 135.98C233.2 136.59 232.5 137.23 231.81 137.9C227.25 139.78 223.52 146.35 222.3 150.44C221.95 151.63 222.13 152.65 222.63 153.46C222.56 153.77 222.51 154.1 222.49 154.45C222.45 155.2 222.41 155.95 222.38 156.71C222.14 157.11 221.97 157.54 221.89 158.02C220.98 163.67 220.41 169.45 221.7 175C220.55 176.23 219.99 177.99 220.5 179.69C221.05 181.53 221.83 183.34 222.87 184.95C223.03 185.2 223.21 185.43 223.41 185.65C223.46 185.71 223.53 185.77 223.58 185.83C223.7 185.95 223.81 186.07 223.94 186.17C224.04 186.26 224.14 186.34 224.25 186.41C224.41 186.53 224.58 186.64 224.76 186.74C224.8 186.76 224.83 186.78 224.86 186.8C225.28 187.02 225.73 187.19 226.2 187.28C226.47 188.02 226.78 188.74 227.14 189.45C227.25 195.14 235.1 200.67 239.32 203.17C241.71 204.58 244.85 207.17 247.85 206.9C248.97 207.39 249.95 207.58 251.37 207.65C251.57 207.77 251.77 207.89 252 207.99C255.13 209.38 258.43 207.22 261.33 206.03C265.19 205.26 268.92 203.72 271.72 201.27C272.36 201.11 272.99 200.76 273.56 200.14C278.27 195.04 282.24 189.91 283.16 183.04C286.6 187.11 291 190.24 296.16 192C299.42 193.12 306.04 194.53 309.09 191.83C315.48 190.91 321.28 187.06 324.63 181.5C327.89 176.07 329.07 170.57 329.15 164.83C331.99 152.68 325.56 133.31 313.52 126.97Z" fill="COLOR_PLACEHOLDER"/>
<path d="M148.56 181.98L168.81 178.23L208.34 174.28H214.16L215.1 177.54L212.48 180.68L155.63 187.83L144.14 193.28L140.17 198.54L138.6 203.67L135.26 205.03L131.8 202.33L133.53 193.72L139.36 186.92L148.56 181.98Z" fill="COLOR_PLACEHOLDER"/>
<path d="M279.33 151.16C276.06 135.16 261.56 125.27 243.96 129.41C227.29 133.33 218.09 153.28 220.46 172.11C222.83 190.92 234.31 209.43 257.17 207.72C276.07 206.31 283.85 189.37 283.66 182.4" stroke="black" stroke-width="4" stroke-miterlimit="10" stroke-linecap="round" stroke-linejoin="round"/>
<path d="M276.06 141.63C277.3 135.25 283 124.7 296.67 122.32C311.42 119.75 325.44 130.17 329.09 151.68C332.89 174.08 322.78 191.1 306.95 193.14C293.82 194.83 286.64 188.44 283.55 184.6" stroke="black" stroke-width="4" stroke-miterlimit="10" stroke-linecap="round" stroke-linejoin="round"/>
<path d="M135.59 205.04C135.48 205.04 135.37 205.04 135.26 205.03C133.06 204.85 131.42 202.92 131.6 200.72C132.67 187.55 145.17 182.46 155.47 180.5C163.22 179.03 197.77 174.27 212.1 172.96C213.81 173.37 214.9 174.86 215.06 176.56C215.18 177.87 215.19 179.92 213.35 180.9C199.19 182.19 164.58 186.91 156.96 188.36C145.8 190.48 140.11 194.73 139.57 201.37C139.4 203.46 137.65 205.04 135.59 205.04Z" stroke="black" stroke-width="4" stroke-miterlimit="10" stroke-linecap="round" stroke-linejoin="round"/>
<path d="M276.7 166.49C278.51 184.19 269.12 196.94 257.58 197.22C244.58 197.53 235.29 188.64 233.78 172.8C232.27 156.96 237.09 142.27 251.31 140.15C262.72 138.44 274.89 148.7 276.7 166.49Z" fill="#D75D5D"/>
<path d="M234.8 178.76C243.69 178.76 262.22 184.68 268.64 192.55" stroke="#972C2C" stroke-width="3" stroke-miterlimit="10" stroke-linecap="round" stroke-linejoin="round"/>
<path d="M233.52 165.18C241.99 164.48 270.51 170.76 274.38 180.76" stroke="#972C2C" stroke-width="3" stroke-miterlimit="10" stroke-linecap="round" stroke-linejoin="round"/>
<path d="M236.73 151.18C254.91 149.46 270.58 156.66 276.44 164.38" stroke="#972C2C" stroke-width="3" stroke-miterlimit="10" stroke-linecap="round" stroke-linejoin="round"/>
<path d="M248.14 140.88C248.63 143.67 248.52 150.54 247.43 158.92C246.12 168.96 243.08 181.22 239.97 188.07" stroke="#972C2C" stroke-width="3" stroke-miterlimit="10" stroke-linecap="round" stroke-linejoin="round"/>
<path d="M259.37 140.88C261.23 143.81 264.95 153.62 262.32 168.15C259.93 181.35 254.79 190.52 250.4 195.27" stroke="#972C2C" stroke-width="3" stroke-miterlimit="10" stroke-linecap="round" stroke-linejoin="round"/>
<path d="M270.36 149.17C272.02 153.06 273.75 160.19 271.81 171.85C269.85 183.64 266.09 190.07 261.58 196.34" stroke="#972C2C" stroke-width="3" stroke-miterlimit="10" stroke-linecap="round" stroke-linejoin="round"/>
<path d="M276.7 166.49C278.51 184.19 269.12 196.94 257.58 197.22C244.58 197.53 235.29 188.64 233.78 172.8C232.27 156.96 237.09 142.27 251.31 140.15C262.72 138.44 274.89 148.7 276.7 166.49Z" stroke="black" stroke-width="3" stroke-miterlimit="10" stroke-linecap="round" stroke-linejoin="round"/>
<path d="M270.118 164.214C271.854 163.363 271.605 159.297 269.563 155.131C267.521 150.966 264.459 148.279 262.723 149.129C260.987 149.98 261.236 154.047 263.278 158.212C265.32 162.378 268.383 165.065 270.118 164.214Z" fill="#FFD9D9"/>
<path d="M322.27 155.49C323.8 171.43 315.84 182.92 306.05 183.17C295.02 183.45 287.14 175.44 285.86 161.18C284.58 146.91 288.67 133.68 300.73 131.77C310.41 130.23 320.73 139.47 322.27 155.49Z" fill="#D75D5D"/>
<path d="M286.72 166.54C294.26 166.54 309.98 171.87 315.43 178.97" stroke="#972C2C" stroke-width="3" stroke-miterlimit="10" stroke-linecap="round" stroke-linejoin="round"/>
<path d="M285.64 154.31C292.82 153.68 317.02 159.33 320.31 168.34" stroke="#972C2C" stroke-width="3" stroke-miterlimit="10" stroke-linecap="round" stroke-linejoin="round"/>
<path d="M288.36 141.7C303.78 140.15 317.08 146.64 322.05 153.59" stroke="#972C2C" stroke-width="3" stroke-miterlimit="10" stroke-linecap="round" stroke-linejoin="round"/>
<path d="M298.04 132.43C298.45 134.94 298.36 141.13 297.43 148.68C296.32 157.73 293.74 168.77 291.1 174.94" stroke="#972C2C" stroke-width="3" stroke-miterlimit="10" stroke-linecap="round" stroke-linejoin="round"/>
<path d="M307.57 132.43C309.14 135.07 312.31 143.91 310.07 156.99C308.04 168.88 303.68 177.14 299.95 181.42" stroke="#972C2C" stroke-width="3" stroke-miterlimit="10" stroke-linecap="round" stroke-linejoin="round"/>
<path d="M316.89 139.89C318.29 143.39 319.77 149.82 318.12 160.32C316.46 170.94 313.27 176.73 309.44 182.38" stroke="#972C2C" stroke-width="3" stroke-miterlimit="10" stroke-linecap="round" stroke-linejoin="round"/>
<path d="M322.27 155.49C323.8 171.43 315.84 182.92 306.05 183.17C295.02 183.45 287.14 175.44 285.86 161.18C284.58 146.91 288.67 133.68 300.73 131.77C310.41 130.23 320.73 139.47 322.27 155.49Z" stroke="black" stroke-width="3" stroke-miterlimit="10" stroke-linecap="round" stroke-linejoin="round"/>
<path d="M316.739 153.565C318.249 152.884 318.097 149.279 316.399 145.512C314.702 141.746 312.101 139.245 310.59 139.926C309.08 140.607 309.231 144.212 310.929 147.978C312.627 151.745 315.228 154.246 316.739 153.565Z" fill="#FFD9D9"/>
</svg>
