<svg width="100%" height="100%" viewBox="0 0 450 450" fill="none" xmlns="http://www.w3.org/2000/svg" style="display: block;">

<path opacity="0.75" d="M242.8 197.899C244.29 204.239 239.75 210.19 224.94 212.56C212.13 214.61 202.96 214.309 201.95 206.639C201.1 200.169 211.02 193.859 219.46 192.179C232.69 189.559 241.3 191.559 242.8 197.899Z" fill="#FF88B0"/>
<path d="M212.76 206.81C215.08 203.38 220.33 199.07 223.8 197.99" stroke="#FF6197" stroke-width="4" stroke-miterlimit="10" stroke-linecap="round" stroke-linejoin="round"/>
<path d="M226.14 205.45C228.93 202.6 232.6 200.1 234.59 199.36" stroke="#FF6197" stroke-width="4" stroke-miterlimit="10" stroke-linecap="round" stroke-linejoin="round"/>
<path d="M313.52 126.969C313.2 126.419 312.71 125.95 312.02 125.61C306.45 122.88 294.94 119.559 290.25 125.439C289.22 125.049 288.07 125.08 287.04 125.77C282.2 129.01 279.28 133.52 277.13 138.87C276.55 140.32 276.15 141.66 275.83 143.05C273.72 139 271.09 135.32 267.06 132.87C266.54 132.55 266 132.39 265.47 132.34C265.45 132.33 265.43 132.31 265.41 132.3C263.2 130.89 261 130.239 258.43 130.139C258.14 129.989 257.82 129.87 257.46 129.78C249.66 127.91 241.73 129.319 235.31 134.229C234.65 134.729 234.22 135.339 233.94 135.979C233.2 136.589 232.5 137.229 231.81 137.899C227.25 139.779 223.52 146.349 222.3 150.439C221.95 151.629 222.13 152.649 222.63 153.459C222.56 153.769 222.51 154.099 222.49 154.449C222.45 155.199 222.41 155.949 222.38 156.709C222.14 157.109 221.97 157.54 221.89 158.02C220.98 163.67 220.41 169.449 221.7 174.999C220.55 176.229 219.99 177.989 220.5 179.689C221.05 181.529 221.83 183.339 222.87 184.949C223.03 185.199 223.21 185.429 223.41 185.649C223.46 185.709 223.53 185.77 223.58 185.83C223.7 185.95 223.81 186.069 223.94 186.169C224.04 186.259 224.14 186.339 224.25 186.409C224.41 186.529 224.58 186.639 224.76 186.739C224.8 186.759 224.83 186.78 224.86 186.8C225.28 187.02 225.73 187.19 226.2 187.28C226.47 188.02 226.78 188.739 227.14 189.449C227.25 195.139 235.1 200.669 239.32 203.169C241.71 204.579 244.85 207.169 247.85 206.899C248.97 207.389 249.95 207.579 251.37 207.649C251.57 207.769 251.77 207.889 252 207.989C255.13 209.379 258.43 207.22 261.33 206.03C265.19 205.26 268.92 203.72 271.72 201.27C272.36 201.11 272.99 200.759 273.56 200.139C278.27 195.039 282.24 189.91 283.16 183.04C286.6 187.11 291 190.239 296.16 191.999C299.42 193.119 306.04 194.53 309.09 191.83C315.48 190.91 321.28 187.059 324.63 181.499C327.89 176.069 329.07 170.57 329.15 164.83C331.99 152.67 325.56 133.299 313.52 126.969Z" fill="COLOR_PLACEHOLDER"/>
<path d="M148.56 181.979L168.81 178.229L208.34 174.27H214.16L215.1 177.53L212.48 180.669L155.63 187.83L144.14 193.27L140.17 198.54L138.6 203.659L135.26 205.02L131.8 202.32L133.53 193.709L139.36 186.909L148.56 181.979Z" fill="COLOR_PLACEHOLDER"/>
<path d="M279.33 151.149C276.06 135.149 261.56 125.259 243.96 129.399C227.29 133.319 218.09 153.27 220.46 172.1C222.83 190.91 234.31 209.42 257.17 207.71C276.07 206.3 283.85 189.359 283.66 182.389" stroke="black" stroke-width="4" stroke-miterlimit="10" stroke-linecap="round" stroke-linejoin="round"/>
<path d="M276.06 141.63C277.3 135.25 283 124.7 296.67 122.32C311.42 119.75 325.44 130.17 329.09 151.68C332.89 174.08 322.78 191.1 306.95 193.14C293.82 194.83 286.64 188.44 283.55 184.6" stroke="black" stroke-width="4" stroke-miterlimit="10" stroke-linecap="round" stroke-linejoin="round"/>
<path d="M135.59 205.03C135.48 205.03 135.37 205.03 135.26 205.02C133.06 204.84 131.42 202.91 131.6 200.71C132.67 187.54 145.17 182.45 155.47 180.49C163.22 179.02 197.77 174.26 212.1 172.95C213.81 173.36 214.9 174.85 215.06 176.55C215.18 177.86 215.19 179.91 213.35 180.89C199.19 182.18 164.58 186.9 156.96 188.35C145.8 190.47 140.11 194.72 139.57 201.36C139.4 203.45 137.65 205.03 135.59 205.03Z" stroke="black" stroke-width="4" stroke-miterlimit="10" stroke-linecap="round" stroke-linejoin="round"/>
<path d="M287.7 147.58L290.77 139.13L298.44 135.7L305.51 137.3L310.12 143.6L318.01 138.52L325.98 139.25L331.52 145.03L329.68 155.15L318.62 167.88L306.7 179.48L303.66 172.45L293.5 160.19L287.7 147.58Z" fill="#FF88B0"/>
<path d="M305.97 179.64C308.98 177.53 318.75 169.41 324.99 162.08" stroke="#991642" stroke-width="4" stroke-miterlimit="10" stroke-linecap="round" stroke-linejoin="round"/>
<path d="M324.33 145.52C325.07 146.11 325.51 148.469 324.9 149.919" stroke="#FFB0CA" stroke-width="4" stroke-miterlimit="10" stroke-linecap="round" stroke-linejoin="round"/>
<path d="M301.86 141.55C302.78 141.68 304.48 142.62 305.13 143.68" stroke="#FFB0CA" stroke-width="4" stroke-miterlimit="10" stroke-linecap="round" stroke-linejoin="round"/>
<path d="M325 162.07C327.08 159.63 328.77 157.27 329.68 155.25C333.61 146.69 330.16 140.42 324.39 138.64C319.31 137.07 314.17 138.96 311.22 143.88" stroke="#CC295F" stroke-width="4" stroke-miterlimit="10" stroke-linecap="round" stroke-linejoin="round"/>
<path d="M311.77 146.909C311.48 140.269 306.07 135.309 299.27 136.029C296.93 136.279 294.91 137.139 293.27 138.379C290.54 140.459 288.9 143.589 288.73 146.699" stroke="#991642" stroke-width="4" stroke-miterlimit="10" stroke-linecap="round" stroke-linejoin="round"/>
<path d="M288.73 146.7C288.4 152.89 290.22 156.52 292.9 160.41C295.31 163.9 298.54 166.71 301.71 170.91C304.34 174.39 305.84 177.4 305.97 179.64" stroke="#660324" stroke-width="4" stroke-miterlimit="10" stroke-linecap="round" stroke-linejoin="round"/>
<path d="M309.88 158.6C309.26 157.08 308.09 153.91 305.92 152.91C304.3 152.16 302.77 152.12 301.58 153.18C299.88 154.7 299.97 157.36 301.48 159.77C303.24 162.57 307.03 165.63 308.64 168.21C311.66 165.8 313.98 164.72 316.06 162.96C318.69 160.74 319.79 157.86 318.06 155.99C316.3 154.08 311.64 155.13 309.88 158.6Z" fill="#FF6197"/>
<path d="M297.5 156.67C298.82 158.84 301.92 161.94 303.15 163.82" stroke="#FFD7E5" stroke-width="4" stroke-miterlimit="10" stroke-linecap="round" stroke-linejoin="round"/>
<path d="M286.69 161.55L277.15 177.38L264.51 192.81L255.89 185.62L239.04 174.37L231.88 160.17L234.78 146.49L243.95 141.88L254.59 145.59L261.14 152.88L268.31 142.2L279.53 141.9L286.79 149.52L286.69 161.55Z" fill="#FF88B0"/>
<path d="M260.83 153.52C262.49 145.9 271.23 137.96 281.08 143.05" stroke="#CC295F" stroke-width="4" stroke-miterlimit="10" stroke-linecap="round" stroke-linejoin="round"/>
<path d="M237.41 145.29C244.31 140.1 255.77 142.69 261.78 155.51" stroke="#991642" stroke-width="4" stroke-miterlimit="10" stroke-linecap="round" stroke-linejoin="round"/>
<path d="M281.08 143.05C288.84 147.06 289.58 157.16 284.33 167.45" stroke="#CC295F" stroke-width="4" stroke-miterlimit="10" stroke-linecap="round" stroke-linejoin="round"/>
<path d="M284.33 167.45C280.99 173.99 270.56 183.75 264.82 195.06" stroke="#991642" stroke-width="4" stroke-miterlimit="10" stroke-linecap="round" stroke-linejoin="round"/>
<path d="M264.82 195.06C260.68 186.15 247 181.17 240.22 174.95C235.64 170.75 233.17 167.75 231.68 162.55C229.91 156.38 232.49 149 237.41 145.3" stroke="#660324" stroke-width="4" stroke-miterlimit="10" stroke-linecap="round" stroke-linejoin="round"/>
<path d="M275.46 148.91C277.85 149 281.9 152.3 280.72 158.25" stroke="#FFB0CA" stroke-width="4" stroke-miterlimit="10" stroke-linecap="round" stroke-linejoin="round"/>
<path d="M248.72 149.91C250.36 150.02 253.54 152.77 254.28 154.83" stroke="#FFB0CA" stroke-width="4" stroke-miterlimit="10" stroke-linecap="round" stroke-linejoin="round"/>
<path d="M261.79 165.6C260.54 163.86 258.08 160.21 255.02 159.6C252.74 159.15 250.79 159.56 249.6 161.28C247.91 163.72 248.84 167.07 251.5 169.66C254.6 172.67 260.34 175.38 263.16 178.15C266.25 174.17 268.86 172.08 270.95 169.22C273.6 165.59 274.11 161.61 271.34 159.77C268.53 157.89 262.95 160.65 261.79 165.6Z" fill="#FF6197"/>
<path d="M244.74 169.11C247.2 171.45 250.59 173.37 252.94 175.13" stroke="#FFD7E5" stroke-width="4" stroke-miterlimit="10" stroke-linecap="round" stroke-linejoin="round"/>
</svg>
