<svg width="100%" height="100%" viewBox="0 0 450 450" fill="none" xmlns="http://www.w3.org/2000/svg" style="display: block;">
<path d="M313.52 126.97C313.2 126.42 312.71 125.95 312.02 125.61C306.45 122.88 294.94 119.56 290.25 125.44C289.22 125.05 288.07 125.08 287.04 125.77C282.2 129.01 279.28 133.52 277.13 138.87C276.55 140.32 276.15 141.66 275.83 143.05C273.72 139 271.09 135.32 267.06 132.87C266.54 132.55 266 132.39 265.47 132.34C265.45 132.33 265.43 132.31 265.41 132.3C263.2 130.89 261 130.24 258.43 130.14C258.14 129.99 257.82 129.87 257.46 129.78C249.66 127.91 241.73 129.32 235.31 134.23C234.65 134.73 234.22 135.34 233.94 135.98C233.2 136.59 232.5 137.23 231.81 137.9C227.25 139.78 223.52 146.35 222.3 150.44C221.95 151.63 222.13 152.65 222.63 153.46C222.56 153.77 222.51 154.1 222.49 154.45C222.45 155.2 222.41 155.95 222.38 156.71C222.14 157.11 221.97 157.54 221.89 158.02C220.98 163.67 220.41 169.45 221.7 175C220.55 176.23 219.99 177.99 220.5 179.69C221.05 181.53 221.83 183.34 222.87 184.95C223.03 185.2 223.21 185.43 223.41 185.65C223.46 185.71 223.53 185.77 223.58 185.83C223.7 185.95 223.81 186.07 223.94 186.17C224.04 186.26 224.14 186.34 224.25 186.41C224.41 186.53 224.58 186.64 224.76 186.74C224.8 186.76 224.83 186.78 224.86 186.8C225.28 187.02 225.73 187.19 226.2 187.28C226.47 188.02 226.78 188.74 227.14 189.45C227.25 195.14 235.1 200.67 239.32 203.17C241.71 204.58 244.85 207.17 247.85 206.9C248.97 207.39 249.95 207.58 251.37 207.65C251.57 207.77 251.77 207.89 252 207.99C255.13 209.38 258.43 207.22 261.33 206.03C265.19 205.26 268.92 203.72 271.72 201.27C272.36 201.11 272.99 200.76 273.56 200.14C278.27 195.04 282.24 189.91 283.16 183.04C286.6 187.11 291 190.24 296.16 192C299.42 193.12 306.04 194.53 309.09 191.83C315.48 190.91 321.28 187.06 324.63 181.5C327.89 176.07 329.07 170.57 329.15 164.83C331.99 152.67 325.56 133.3 313.52 126.97ZM268.58 193.74C267.94 194.01 267.34 194.44 266.84 195.09C265.31 197.07 262.21 197.4 259.93 197.86C257.72 198.31 255.62 198.6 253.43 198.52C253.08 198.13 252.71 197.76 252.29 197.45C250.82 196.37 249.21 195.92 247.53 195.24C243.34 193.52 240.02 190.58 237.61 186.77C237.28 186.25 236.85 185.86 236.36 185.56C236.27 185.35 236.17 185.13 236.05 184.91C234.76 182.62 234.94 179.63 234.61 177.07C234.28 174.51 233.81 172 233.2 169.5C233.43 169.04 233.6 168.52 233.67 167.94C234.22 163.32 234.82 158.73 235.81 154.18C236.09 152.9 235.79 151.81 235.18 150.98C237.28 147.53 240.28 144.66 243.94 142.41C244.67 141.96 245.2 141.42 245.58 140.82C245.85 140.79 246.14 140.74 246.43 140.65C248.22 140.12 250.01 139.68 251.82 139.29C253.07 139.17 254.3 139.14 255.52 139.19C255.81 139.92 256.38 140.58 257.35 141.03C259.31 141.94 261.69 142.28 263.45 143.42C265.57 144.79 267.3 147.22 268.7 149.25C268.9 149.54 269.12 149.78 269.34 150C268.98 151.5 269.41 153.16 271.15 154.17C271.15 154.17 271.16 154.17 271.16 154.18C271.2 154.26 271.23 154.34 271.27 154.42C271.34 154.7 271.44 154.99 271.57 155.28C272.21 156.73 272.85 158.18 273.5 159.63C273.28 160.5 273.41 161.48 274.07 162.49C275.43 164.54 275.03 168 275.13 170.4C275.26 173.37 275.37 176.36 275.36 179.34C275.36 185.45 272.45 189.47 268.58 193.74ZM320.63 156.57C321.64 163.49 321.79 169.62 318.52 176C316.19 180.56 312.22 183.36 307.47 183.89C307.47 183.89 307.47 183.89 307.46 183.89C303.94 182.48 300.91 182.11 297.67 179.88C293.81 177.22 291.9 174.89 290.42 170.4C288.85 165.63 287.72 160.75 286.89 155.79C286.74 154.92 286.37 154.26 285.87 153.79C286.77 147.06 289.1 139.88 293.34 134.6C294.39 134.44 295.24 133.83 295.8 133.01C296.58 132.45 297.85 132.02 299.2 131.67C299.86 132.6 300.91 133.23 302.29 133.18C304.12 133.12 305.95 133.09 307.79 133.07C314.99 134.84 319.84 144.89 321.34 153.54C320.76 154.35 320.45 155.38 320.63 156.57Z" fill="COLOR_PLACEHOLDER"/>
<path d="M275.07 168.64C277.04 186.65 267.65 198.45 256.04 198.45C244.43 198.45 233.03 184.43 233.03 168.64C233.03 152.85 242.44 140.06 254.05 140.06C265.66 140.06 275.07 152.86 275.07 168.64Z" fill="white"/>
<path d="M320.55 157.28C322.12 172.58 314.64 182.6 305.4 182.6C296.16 182.6 287.09 170.69 287.09 157.28C287.09 143.87 294.58 133 303.82 133C313.06 133 320.55 143.87 320.55 157.28Z" fill="white"/>
<path d="M148.56 181.98L168.81 178.23L208.34 174.27H214.16L215.1 177.53L212.48 180.67L155.63 187.83L144.14 193.27L140.17 198.54L138.6 203.66L135.26 205.02L131.8 202.32L133.53 193.71L139.36 186.91L148.56 181.98Z" fill="COLOR_PLACEHOLDER"/>
<path d="M279.33 151.15C276.06 135.15 261.56 125.26 243.96 129.4C227.29 133.32 218.09 153.27 220.46 172.1C222.83 190.91 234.31 209.42 257.17 207.71C276.07 206.3 283.85 189.36 283.66 182.39" stroke="black" stroke-width="4" stroke-miterlimit="10" stroke-linecap="round" stroke-linejoin="round"/>
<path d="M276.06 141.63C277.3 135.25 283 124.7 296.67 122.32C311.42 119.75 325.44 130.17 329.09 151.68C332.89 174.08 322.78 191.1 306.95 193.14C293.82 194.83 286.64 188.44 283.55 184.6" stroke="black" stroke-width="4" stroke-miterlimit="10" stroke-linecap="round" stroke-linejoin="round"/>
<path d="M251.14 139.82C262.81 138.59 273.26 152.82 274.99 165.09C276.82 178.02 273.96 194.57 260.84 197.16C244.11 200.47 235.19 185.49 233.35 172.06C231.51 158.63 237.4 141.26 251.14 139.82Z" stroke="black" stroke-width="4" stroke-miterlimit="10" stroke-linecap="round" stroke-linejoin="round"/>
<path d="M299.35 132.68C310.81 130.07 318.31 142.8 320.18 153.79C322.11 165.15 321.17 180.9 308.81 183.05C298.86 184.78 289.5 173.56 287.52 160.14C285.86 148.89 288.83 135.07 299.35 132.68Z" stroke="black" stroke-width="4" stroke-miterlimit="10" stroke-linecap="round" stroke-linejoin="round"/>
<path d="M135.59 205.03C135.48 205.03 135.37 205.03 135.26 205.02C133.06 204.84 131.42 202.91 131.6 200.71C132.67 187.54 145.17 182.45 155.47 180.49C163.22 179.02 197.77 174.26 212.1 172.95C213.81 173.36 214.9 174.85 215.06 176.55C215.18 177.86 215.19 179.91 213.35 180.89C199.19 182.18 164.58 186.9 156.96 188.35C145.8 190.47 140.11 194.72 139.57 201.36C139.4 203.45 137.65 205.03 135.59 205.03Z" stroke="black" stroke-width="4" stroke-miterlimit="10" stroke-linecap="round" stroke-linejoin="round"/>
<path d="M259.82 157.78L256.04 163.5L257.93 174.23L266.45 177.53L271.24 172.96V163.36L265.75 157.67L261.3 156.6L259.82 157.78Z" fill="#272E37"/>
<path d="M306.75 150.86L305.02 156.6L307.57 164.32L314.31 166.41L318.12 161.8L315.07 150.86L311.57 148.93L309.09 149.94L306.75 150.86Z" fill="#272E37"/>
<path d="M317.41 156.59C317.99 161.49 316.72 165.78 312.64 166.36C309.25 166.84 305.9 163.99 305.17 158.57C304.51 153.65 306.12 149.5 310.37 148.96C313.77 148.54 316.81 151.54 317.41 156.59Z" stroke="black" stroke-width="4" stroke-miterlimit="10" stroke-linecap="round" stroke-linejoin="round"/>
<path d="M271.07 165.6C271.77 171.56 270.23 176.76 265.27 177.47C261.15 178.06 257.08 174.59 256.2 168.02C255.4 162.04 257.36 157 262.52 156.35C266.65 155.83 270.35 159.48 271.07 165.6Z" stroke="black" stroke-width="4" stroke-miterlimit="10" stroke-linecap="round" stroke-linejoin="round"/>
</svg>
