<svg width="450" height="450" viewBox="0 0 450 450" fill="none" xmlns="http://www.w3.org/2000/svg">
<path d="M327.52 126.97C327.2 126.42 326.71 125.95 326.02 125.61C320.45 122.88 308.94 119.56 304.25 125.44C303.22 125.05 302.07 125.08 301.04 125.77C296.2 129.01 293.28 133.52 291.13 138.87C290.55 140.32 290.15 141.66 289.83 143.05C287.72 139 285.09 135.32 281.06 132.87C280.54 132.55 280 132.39 279.47 132.34C279.45 132.33 279.43 132.31 279.41 132.3C277.2 130.89 275 130.24 272.43 130.14C272.14 129.99 271.82 129.87 271.46 129.78C263.66 127.91 255.73 129.32 249.31 134.23C248.65 134.73 248.22 135.34 247.94 135.98C247.2 136.59 246.5 137.23 245.81 137.9C241.25 139.78 237.52 146.35 236.3 150.44C235.95 151.63 236.13 152.65 236.63 153.46C236.56 153.77 236.51 154.1 236.49 154.45C236.45 155.2 236.41 155.95 236.38 156.71C236.14 157.11 235.97 157.54 235.89 158.02C234.98 163.67 234.41 169.45 235.7 175C234.55 176.23 233.99 177.99 234.5 179.69C235.05 181.53 235.83 183.34 236.87 184.95C237.03 185.2 237.21 185.43 237.41 185.65C237.46 185.71 237.53 185.77 237.58 185.83C237.7 185.95 237.81 186.07 237.94 186.17C238.04 186.26 238.14 186.34 238.25 186.41C238.41 186.53 238.58 186.64 238.76 186.74C238.8 186.76 238.83 186.78 238.86 186.8C239.28 187.02 239.73 187.19 240.2 187.28C240.47 188.02 240.78 188.74 241.14 189.45C241.25 195.14 249.1 200.67 253.32 203.17C255.71 204.58 258.85 207.17 261.85 206.9C262.97 207.39 263.95 207.58 265.37 207.65C265.57 207.77 265.77 207.89 266 207.99C269.13 209.38 272.43 207.22 275.33 206.03C279.19 205.26 282.92 203.72 285.72 201.27C286.36 201.11 286.99 200.76 287.56 200.14C292.27 195.04 296.24 189.91 297.16 183.04C300.6 187.11 305 190.24 310.16 192C313.42 193.12 320.04 194.53 323.09 191.83C329.48 190.91 335.28 187.06 338.63 181.5C341.89 176.07 343.07 170.57 343.15 164.83C345.99 152.67 339.56 133.3 327.52 126.97ZM282.58 193.74C281.94 194.01 281.34 194.44 280.84 195.09C279.31 197.07 276.21 197.4 273.93 197.86C271.72 198.31 269.62 198.6 267.43 198.52C267.08 198.13 266.71 197.76 266.29 197.45C264.82 196.37 263.21 195.92 261.53 195.24C257.34 193.52 254.02 190.58 251.61 186.77C251.28 186.25 250.85 185.86 250.36 185.56C250.27 185.35 250.17 185.13 250.05 184.91C248.76 182.62 248.94 179.63 248.61 177.07C248.28 174.51 247.81 172 247.2 169.5C247.43 169.04 247.6 168.52 247.67 167.94C248.22 163.32 248.82 158.73 249.81 154.18C250.09 152.9 249.79 151.81 249.18 150.98C251.28 147.53 254.28 144.66 257.94 142.41C258.67 141.96 259.2 141.42 259.58 140.82C259.85 140.79 260.14 140.74 260.43 140.65C262.22 140.12 264.01 139.68 265.82 139.29C267.07 139.17 268.3 139.14 269.52 139.19C269.81 139.92 270.38 140.58 271.35 141.03C273.31 141.94 275.69 142.28 277.45 143.42C279.57 144.79 281.3 147.22 282.7 149.25C282.9 149.54 283.12 149.78 283.34 150C282.98 151.5 283.41 153.16 285.15 154.17C285.15 154.17 285.16 154.17 285.16 154.18C285.2 154.26 285.23 154.34 285.27 154.42C285.34 154.7 285.44 154.99 285.57 155.28C286.21 156.73 286.85 158.18 287.5 159.63C287.28 160.5 287.41 161.48 288.07 162.49C289.43 164.54 289.03 168 289.13 170.4C289.26 173.37 289.37 176.36 289.36 179.34C289.36 185.45 286.45 189.47 282.58 193.74ZM334.63 156.57C335.64 163.49 335.79 169.62 332.52 176C330.19 180.56 326.22 183.36 321.47 183.89C321.47 183.89 321.47 183.89 321.46 183.89C317.94 182.48 314.91 182.11 311.67 179.88C307.81 177.22 305.9 174.89 304.42 170.4C302.85 165.63 301.72 160.75 300.89 155.79C300.74 154.92 300.37 154.26 299.87 153.79C300.77 147.06 303.1 139.88 307.34 134.6C308.39 134.44 309.24 133.83 309.8 133.01C310.58 132.45 311.85 132.02 313.2 131.67C313.86 132.6 314.91 133.23 316.29 133.18C318.12 133.12 319.95 133.09 321.79 133.07C328.99 134.84 333.84 144.89 335.34 153.54C334.76 154.35 334.45 155.38 334.63 156.57Z" fill="#C088F9"/>
<path d="M289.07 168.64C291.04 186.65 281.65 198.45 270.04 198.45C258.43 198.45 247.03 184.43 247.03 168.64C247.03 152.85 256.44 140.06 268.05 140.06C279.66 140.06 289.07 152.86 289.07 168.64Z" fill="white"/>
<path d="M334.55 157.28C336.12 172.58 328.64 182.6 319.4 182.6C310.16 182.6 301.09 170.69 301.09 157.28C301.09 143.87 308.58 133 317.82 133C327.06 133 334.55 143.87 334.55 157.28Z" fill="white"/>
<path d="M162.56 181.98L182.81 178.23L222.34 174.27H228.16L229.1 177.53L226.48 180.67L169.63 187.83L158.14 193.27L154.17 198.54L152.6 203.66L149.26 205.02L145.8 202.32L147.53 193.71L153.36 186.91L162.56 181.98Z" fill="#C088F9"/>
<path d="M293.33 151.15C290.06 135.15 275.56 125.26 257.96 129.4C241.29 133.32 232.09 153.27 234.46 172.1C236.83 190.91 248.31 209.42 271.17 207.71C290.07 206.3 297.85 189.36 297.66 182.39" stroke="black" stroke-width="4" stroke-miterlimit="10" stroke-linecap="round" stroke-linejoin="round"/>
<path d="M290.06 141.63C291.3 135.25 297 124.7 310.67 122.32C325.42 119.75 339.44 130.17 343.09 151.68C346.89 174.08 336.78 191.1 320.95 193.14C307.82 194.83 300.64 188.44 297.55 184.6" stroke="black" stroke-width="4" stroke-miterlimit="10" stroke-linecap="round" stroke-linejoin="round"/>
<path d="M265.14 139.82C276.81 138.59 287.26 152.82 288.99 165.09C290.82 178.02 287.96 194.57 274.84 197.16C258.11 200.47 249.19 185.49 247.35 172.06C245.51 158.63 251.4 141.26 265.14 139.82Z" stroke="black" stroke-width="4" stroke-miterlimit="10" stroke-linecap="round" stroke-linejoin="round"/>
<path d="M313.35 132.68C324.81 130.07 332.31 142.8 334.18 153.79C336.11 165.15 335.17 180.9 322.81 183.05C312.86 184.78 303.5 173.56 301.52 160.14C299.86 148.89 302.83 135.07 313.35 132.68Z" stroke="black" stroke-width="4" stroke-miterlimit="10" stroke-linecap="round" stroke-linejoin="round"/>
<path d="M149.59 205.03C149.48 205.03 149.37 205.03 149.26 205.02C147.06 204.84 145.42 202.91 145.6 200.71C146.67 187.54 159.17 182.45 169.47 180.49C177.22 179.02 211.77 174.26 226.1 172.95C227.81 173.36 228.9 174.85 229.06 176.55C229.18 177.86 229.19 179.91 227.35 180.89C213.19 182.18 178.58 186.9 170.96 188.35C159.8 190.47 154.11 194.72 153.57 201.36C153.4 203.45 151.65 205.03 149.59 205.03Z" stroke="black" stroke-width="4" stroke-miterlimit="10" stroke-linecap="round" stroke-linejoin="round"/>
<path d="M273.82 157.78L270.04 163.5L271.93 174.23L280.45 177.53L285.24 172.96V163.36L279.75 157.67L275.3 156.6L273.82 157.78Z" fill="#272E37"/>
<path d="M320.75 150.86L319.02 156.6L321.57 164.32L328.31 166.41L332.12 161.8L329.07 150.86L325.57 148.93L323.09 149.94L320.75 150.86Z" fill="#272E37"/>
<path d="M331.41 156.59C331.99 161.49 330.72 165.78 326.64 166.36C323.25 166.84 319.9 163.99 319.17 158.57C318.51 153.65 320.12 149.5 324.37 148.96C327.77 148.54 330.81 151.54 331.41 156.59Z" stroke="black" stroke-width="4" stroke-miterlimit="10" stroke-linecap="round" stroke-linejoin="round"/>
<path d="M285.07 165.6C285.77 171.56 284.23 176.76 279.27 177.47C275.15 178.06 271.08 174.59 270.2 168.02C269.4 162.04 271.36 157 276.52 156.35C280.65 155.83 284.35 159.48 285.07 165.6Z" stroke="black" stroke-width="4" stroke-miterlimit="10" stroke-linecap="round" stroke-linejoin="round"/>
</svg>
