<svg width="450" height="450" viewBox="0 0 450 450" fill="none" xmlns="http://www.w3.org/2000/svg">
<path d="M333.68 128.27L323.31 136.25L313.74 144.6C313.74 144.6 310.04 145.2 308.32 146.13C305.14 147.85 300.92 148.88 297.31 148.18C294.09 147.55 286.9 147.34 286.9 147.34L274.43 143.97L262.19 140.93L242.18 136.06L234.13 137.94C234.13 137.94 234.08 137.6 233.34 140.17C232.6 142.75 232.8 145.56 233.76 148.07C234.21 149.24 234.82 150.44 234.63 151.68C234.52 152.39 234.15 153.04 233.87 153.7C232.84 156.09 232.89 158.81 233.25 161.39C233.62 163.97 234.28 166.51 234.46 169.11C234.83 174.64 233.75 180.02 236.91 184.93C237.07 185.18 237.25 185.41 237.45 185.63C237.5 185.69 237.57 185.75 237.62 185.81C237.74 185.93 237.85 186.05 237.98 186.15C238.08 186.24 238.18 186.32 238.29 186.39C238.45 186.51 238.62 186.62 238.8 186.72C238.84 186.74 238.87 186.76 238.9 186.78C239.32 187 239.77 187.16 240.24 187.26C240.97 187.41 241.04 190.1 241.32 190.65C241.97 191.94 243.49 192.96 244.61 193.85C247.1 195.84 249.82 197.54 252.69 198.92C262.33 203.54 270.81 202.84 280.7 199.41C282.44 198.81 284.54 198.43 286.05 197.37C288.53 195.64 292.28 193.9 294.2 191.6C294.8 190.88 297.51 183.03 297.2 183.03C300.64 187.1 305.04 190.23 310.2 191.99C322.97 196.36 337.73 188.4 343.58 176.73C347.45 169.01 349.18 158.32 347.13 149.85C346.21 146.06 343.04 143.74 342.62 139.74C342.33 137.02 344.68 132.95 343.74 130.38C342.23 126.25 336.61 126.54 336.61 126.54L333.68 128.27Z" fill="#C088F9"/>
<path d="M291.44 170.27C291.74 172.97 291.85 175.74 291.63 178.45C291.44 180.74 290.13 182.81 289.28 184.95C289.03 185.58 288.76 186.23 288.29 186.72C287.89 187.14 287.36 187.41 286.84 187.66C281.11 190.45 274.77 192.23 268.41 191.84C266.25 191.71 264.11 191.32 261.98 190.94C260.18 190.62 258.36 190.29 256.7 189.53C254.92 188.72 253.4 187.44 251.9 186.19C249.3 184.01 246.64 181.76 245.02 178.78C243.48 175.94 242.99 172.67 242.62 169.46C242.22 166.02 240.08 156.32 245.55 155.38C246.19 155.27 246.84 155.4 247.48 155.52C259.41 157.85 271.33 160.19 283.26 162.52C285.14 162.89 288.87 162.98 290.41 164.14C291.86 165.23 291.44 168.49 291.44 170.27Z" fill="white"/>
<path d="M338.14 157.47C338.69 161.11 340.72 167.75 339.81 171.3C338.37 176.94 334.16 181.16 328.52 182.56C325.62 183.28 320.91 183.22 317.96 182.7C316.88 182.51 315.49 180.07 314.55 179.49C313.08 178.58 312.24 176.94 311.55 175.35C310.42 172.75 309.5 170.08 308.57 167.4C308.36 166.81 308.16 166.2 308.17 165.57C308.19 164.91 308.45 164.27 308.76 163.68C309.52 162.2 310.69 160.36 312.18 159.58C313.86 158.7 316.1 158.41 317.91 157.75C321.74 156.34 325.46 154.52 328.58 151.86C329.58 151.01 330.54 150.06 331.75 149.56C332.67 149.18 335.02 148.68 335.8 149.39C336.29 149.84 336.51 150.51 336.7 151.14C337.31 153.21 337.82 155.33 338.14 157.47Z" fill="white"/>
<path d="M162.56 181.98L182.81 178.23L222.34 174.28H228.16L229.1 177.53L226.48 180.68L169.63 187.83L158.14 193.27L154.17 198.54L152.6 203.66L149.26 205.02L145.8 202.32L147.53 193.72L153.36 186.91L162.56 181.98Z" fill="#C088F9"/>
<path d="M299.1 149.81C276.02 147.36 249.07 135.72 244.35 135.41C239.32 135.08 235.88 135.97 232.87 140.77C231.22 143.4 229.8 148.25 235.07 152.02C233 158.21 232.13 165.33 233.56 172.96C235.98 185.8 247.97 203.23 270.83 201.52C289.73 200.11 299.02 189.65 299.86 174.27" stroke="black" stroke-width="4" stroke-miterlimit="10" stroke-linecap="round" stroke-linejoin="round"/>
<path d="M299.1 149.81C306.83 148.63 313.29 145.01 321.41 137.95C325.44 134.45 330.89 127.84 336.02 126.73C339.07 126.07 342.45 127.43 343.71 130.4C344.79 132.94 344.13 136.94 342.38 138.6C344.77 142.5 345.69 145.66 346.6 151.03C350.4 173.43 341.05 190.98 320.95 193.13C307.79 194.54 300.97 188.83 297.88 184.99" stroke="black" stroke-width="4" stroke-miterlimit="10" stroke-linecap="round" stroke-linejoin="round"/>
<path d="M291.94 164.5C294.15 175.75 290.7 190.16 274.81 192.42C254.56 195.3 245.19 183.69 242.96 172C242.13 167.62 243.51 158.12 245.31 153.68" stroke="black" stroke-width="4" stroke-miterlimit="10" stroke-linecap="round" stroke-linejoin="round"/>
<path d="M335.09 147.35C344.34 162.87 339.33 180.81 325.01 182.96C311.69 184.96 306.82 174.23 308.35 161.46" stroke="black" stroke-width="4" stroke-miterlimit="10" stroke-linecap="round" stroke-linejoin="round"/>
<path d="M149.59 205.04C149.48 205.04 149.37 205.04 149.26 205.03C147.06 204.85 145.42 202.92 145.6 200.72C146.67 187.55 159.17 182.46 169.47 180.5C177.22 179.03 211.77 174.27 226.1 172.96C227.81 173.37 228.9 174.86 229.06 176.56C229.18 177.87 229.19 179.92 227.35 180.9C213.19 182.19 178.58 186.91 170.96 188.36C159.8 190.48 154.11 194.73 153.57 201.37C153.4 203.45 151.65 205.04 149.59 205.04Z" stroke="black" stroke-width="4" stroke-miterlimit="10" stroke-linecap="round" stroke-linejoin="round"/>
<path d="M244.95 152.63C255.54 157.71 286.48 163.72 290.75 163.53C292.37 163.46 295.03 162.02 296.15 159.51" stroke="black" stroke-width="4" stroke-miterlimit="10" stroke-linecap="round" stroke-linejoin="round"/>
<path d="M336.01 145.29C330.35 151.01 317.76 159.19 307.61 160.97C306.89 161.1 305.09 160.45 304.72 159.92" stroke="black" stroke-width="4" stroke-miterlimit="10" stroke-linecap="round" stroke-linejoin="round"/>
<path d="M321.66 157.51L320.9 160.05L322.02 163.45L324.99 164.37L326.68 162.34L325.33 157.51L323.79 156.66L322.69 157.11L321.66 157.51Z" fill="#272E37"/>
<path d="M320.43 159.8C320.02 162 321.58 165.21 324.94 164.15C327.58 163.31 328.01 158.06 324.79 157.05C323.07 156.5 320.9 157.29 320.43 159.8Z" stroke="black" stroke-width="4" stroke-miterlimit="10" stroke-linecap="round" stroke-linejoin="round"/>
<path d="M272.19 162.56C271.42 162.45 270.66 162.31 269.9 162.16L269.25 162.61L267.37 165.09L268.31 169.75L272.54 171.19L274.91 169.2V165.03L272.19 162.56Z" fill="#272E37"/>
<path d="M269.25 162.37C265.78 164.06 265.86 170.25 270.86 171.12C275.41 171.91 276.79 164.58 274.01 162.58C272.5 161.5 271.04 161.5 269.25 162.37Z" stroke="black" stroke-width="4" stroke-miterlimit="10" stroke-linecap="round" stroke-linejoin="round"/>
</svg>
