<svg width="100%" height="100%" viewBox="0 0 450 450" fill="none" xmlns="http://www.w3.org/2000/svg" style="display: block;">
<path d="M275.07 168.63C277.04 186.64 267.65 198.44 256.04 198.44C244.43 198.44 237.35 189.64 237.35 173.86C242.39 162.89 246.37 155.58 253.42 149.36C262.24 151.83 272.21 156.14 275.07 168.63Z" fill="white"/>
<path d="M311.81 130.28C307.23 127.74 301.88 126.58 296.66 127.05C292.73 127.4 288.86 128.67 285.63 130.95C282.41 133.22 279.86 136.52 278.74 140.3C278.32 141.74 278.04 143.72 276.7 144.6C274.39 141.2 272.8 138.04 269.42 135.44C266.15 132.92 261.93 130.95 257.71 131.66C251.13 132.76 247.81 135.17 243.08 139.88C241.42 141.54 238.9 141.65 237.04 143.08C235.92 143.94 235.85 146.46 234.72 147.3C233.58 148.15 232.62 149.21 231.67 150.26C228.05 154.26 224.31 158.48 222.94 163.7C222.38 165.85 222.24 168.1 222.11 170.32C221.91 173.75 221.46 177.25 221.39 180.67C221.34 183.38 223.46 186.17 224.38 188.71C225.58 192.03 227.1 195.31 229.52 197.94C230.14 198.62 230.81 199.24 231.52 199.83C233.86 201.79 236.82 203.73 239.83 204.43C242.5 205.04 245.21 207.12 247.99 206.87C249.11 207.36 250.09 207.55 251.51 207.62C251.71 207.74 251.91 207.86 252.14 207.96C255.27 209.35 258.57 207.19 261.47 206C265.33 205.23 269.06 203.69 271.86 201.24C272.5 201.08 273.13 200.73 273.7 200.11C278.41 195.01 282.38 189.88 283.3 183.01C286.74 187.08 291.14 190.21 296.3 191.97C299.56 193.09 306.18 194.5 309.23 191.8C315.62 190.88 321.42 187.03 324.77 181.47C328.03 176.04 329.21 170.54 329.29 164.8C330.36 160.21 330.37 154.49 328.95 149.96C327.79 146.25 324.61 142.6 322.15 139.64C319.99 137.04 317.73 134.47 315.05 132.4C314.03 131.62 312.94 130.91 311.81 130.28ZM268.71 193.72C268.07 193.99 267.47 194.42 266.97 195.07C265.44 197.05 262.34 197.38 260.06 197.84C257.85 198.29 255.75 198.58 253.56 198.5C253.21 198.11 252.84 197.74 252.42 197.43C250.95 196.35 249.34 195.9 247.66 195.22C244.45 193.91 239.91 191.1 238.43 187.76C236.71 183.87 236.92 177.99 237.34 173.84C237.51 172.2 237.79 170.55 238.5 169.07C239.69 166.63 241.93 164.9 243.54 162.71C244.83 160.96 245.69 158.94 246.82 157.08C248 155.15 249.47 153.39 251.17 151.9C251.59 151.53 252.03 151.17 252.55 150.97C253.28 150.68 254.09 150.71 254.87 150.74C258.56 150.9 262.42 151.11 265.57 153.03C267.61 154.28 269.19 156.15 270.72 157.99C271.94 159.46 273.16 160.88 274.21 162.46C275.57 164.51 275.17 167.97 275.27 170.37C275.4 173.34 275.51 176.33 275.5 179.31C275.48 185.43 272.58 189.46 268.71 193.72ZM320.75 156.55C321.76 163.47 321.91 169.6 318.64 175.98C316.31 180.54 312.34 183.34 307.58 183.87C304.06 182.46 301.03 182.09 297.79 179.86C293.93 177.2 292.02 174.87 290.54 170.38C290.04 168.87 289.1 166.91 289.11 165.3C289.12 163.97 289.77 162.4 290.03 161.08C290.74 157.42 291.45 153.76 292.16 150.1C292.4 148.88 292.64 147.63 293.24 146.54C294.72 143.82 298.13 142.63 301.21 142.87C304.29 143.11 307.15 144.53 309.91 145.93C312.54 147.27 315.18 148.63 317.48 150.47C319.75 152.28 320.36 153.86 320.75 156.55Z" fill="COLOR_PLACEHOLDER"/>
<path d="M320.55 157.26C322.12 172.56 314.64 182.58 305.4 182.58C299.96 182.58 295.34 178.63 292.38 174.39C290.82 172.15 288.85 169.05 288.48 166.33C287.98 162.67 288.85 158.26 289.22 154.6C289.36 153.24 289.52 151.86 290.02 150.58C290.59 149.1 291.59 147.83 292.57 146.58C293.53 145.35 294.5 144.12 295.46 142.9C295.67 142.63 295.9 142.35 296.21 142.19C296.51 142.04 296.85 142.03 297.18 142.01C299.13 141.94 301.11 141.86 303.02 142.28C305.41 142.8 307.57 144.06 309.69 145.3C311.45 146.33 313.21 147.37 314.97 148.4C316.5 149.3 318.11 150.25 319.21 151.67C320.55 153.4 320.55 155.15 320.55 157.26Z" fill="white"/>
<path d="M148.56 181.96L168.81 178.21L208.34 174.26H214.16L215.1 177.52L212.48 180.66L155.63 187.81L144.14 193.26L140.17 198.52L138.6 203.64L135.26 205L131.8 202.31L133.53 193.7L139.36 186.9L148.56 181.96Z" fill="COLOR_PLACEHOLDER"/>
<path d="M279.33 151.14C276.06 135.14 265.28 129.25 254.48 131.66C250.75 132.49 245.99 136 242.41 138.64C229.96 147.82 219.53 162.79 221.38 177.42C223.75 196.23 234.31 209.42 257.16 207.71C276.06 206.3 283.84 189.36 283.65 182.39" stroke="black" stroke-width="4" stroke-miterlimit="10" stroke-linecap="round" stroke-linejoin="round"/>
<path d="M277.53 145C281.93 132.98 288.4 127.2 298.04 126.58C305.71 126.09 312.88 129.29 317.5 133.69C322.47 138.42 326.71 142.87 329.1 151.65C335.06 173.57 322.79 191.07 306.96 193.11C293.83 194.8 286.65 188.41 283.56 184.57" stroke="black" stroke-width="4" stroke-miterlimit="10" stroke-linecap="round" stroke-linejoin="round"/>
<path d="M295.47 142.91C306.09 141.97 316.63 147.11 319.76 157.56C323.02 168.45 318.56 179.91 308.82 182.04C300.38 183.88 290.66 178.7 288.68 165.29C287.02 154.04 293.46 147.05 297.9 138.3" stroke="black" stroke-width="4" stroke-miterlimit="10" stroke-linecap="round" stroke-linejoin="round"/>
<path d="M135.59 205.02C135.48 205.02 135.37 205.02 135.26 205.01C133.06 204.83 131.42 202.9 131.6 200.7C132.67 187.53 145.17 182.44 155.47 180.48C163.22 179.01 197.77 174.25 212.1 172.94C213.81 173.35 214.9 174.84 215.06 176.54C215.18 177.85 215.19 179.9 213.35 180.88C199.19 182.17 164.58 186.89 156.96 188.34C145.8 190.46 140.11 194.71 139.57 201.35C139.4 203.43 137.65 205.02 135.59 205.02Z" stroke="black" stroke-width="4" stroke-miterlimit="10" stroke-linecap="round" stroke-linejoin="round"/>
<path d="M306.11 157.19L304.67 161.99L306.79 168.44L312.43 170.19L315.61 166.34L313.06 157.19L310.14 155.58L308.06 156.43L306.11 157.19Z" fill="#272E37"/>
<path d="M315.02 161.98C315.5 166.08 314.44 169.66 311.03 170.15C308.19 170.55 305.39 168.17 304.79 163.64C304.24 159.53 305.59 156.06 309.14 155.61C311.98 155.25 314.52 157.76 315.02 161.98Z" stroke="black" stroke-width="4" stroke-miterlimit="10" stroke-linecap="round" stroke-linejoin="round"/>
<path d="M263.67 167.29L260.05 171.06L260 179.37L265.94 183.02L270.15 180.24L271.47 173.04L268.14 168.02L264.95 166.61L263.67 167.29Z" fill="#272E37"/>
<path d="M271.04 174.71C270.75 179.27 268.88 182.96 265.06 182.81C261.89 182.68 259.31 179.52 259.56 174.47C259.78 169.88 261.94 166.37 265.9 166.59C269.07 166.77 271.34 170.01 271.04 174.71Z" stroke="black" stroke-width="4" stroke-miterlimit="10" stroke-linecap="round" stroke-linejoin="round"/>
<path d="M253.41 149.36C261.33 149.09 271.36 156.67 274.55 167.49C277.83 178.61 274.05 195.07 260.83 197.15C245.65 199.54 238.45 190.21 238.03 176.67C237.61 162.98 253.57 149.66 260.06 142.88" stroke="black" stroke-width="4" stroke-miterlimit="10" stroke-linecap="round" stroke-linejoin="round"/>
</svg>
