<svg width="450" height="450" viewBox="0 0 450 450" fill="none" xmlns="http://www.w3.org/2000/svg">
<path d="M327.52 126.97C327.2 126.42 326.71 125.95 326.02 125.61C320.45 122.88 308.94 119.56 304.25 125.44C303.22 125.05 302.07 125.08 301.04 125.77C296.2 129.01 293.28 133.52 291.13 138.87C290.55 140.32 290.15 141.66 289.83 143.05C287.72 139 285.09 135.32 281.06 132.87C280.54 132.55 280 132.39 279.47 132.34C279.45 132.33 279.43 132.31 279.41 132.3C277.2 130.89 275 130.24 272.43 130.14C272.14 129.99 271.82 129.87 271.46 129.78C263.66 127.91 255.73 129.32 249.31 134.23C248.65 134.73 248.22 135.34 247.94 135.98C247.2 136.59 246.5 137.23 245.81 137.9C241.25 139.78 237.52 146.35 236.3 150.44C235.95 151.63 236.13 152.65 236.63 153.46C236.56 153.77 236.51 154.1 236.49 154.45C236.45 155.2 236.41 155.95 236.38 156.71C236.14 157.11 235.97 157.54 235.89 158.02C234.98 163.67 234.41 169.45 235.7 175C234.55 176.23 233.99 177.99 234.5 179.69C235.05 181.53 235.83 183.34 236.87 184.95C237.03 185.2 237.21 185.43 237.41 185.65C237.46 185.71 237.53 185.77 237.58 185.83C237.7 185.95 237.81 186.07 237.94 186.17C238.04 186.26 238.14 186.34 238.25 186.41C238.41 186.53 238.58 186.64 238.76 186.74C238.8 186.76 238.83 186.78 238.86 186.8C239.28 187.02 239.73 187.19 240.2 187.28C240.47 188.02 240.78 188.74 241.14 189.45C241.25 195.14 249.1 200.67 253.32 203.17C255.71 204.58 258.85 207.17 261.85 206.9C262.97 207.39 263.95 207.58 265.37 207.65C265.57 207.77 265.77 207.89 266 207.99C269.13 209.38 272.43 207.22 275.33 206.03C279.19 205.26 282.92 203.72 285.72 201.27C286.36 201.11 286.99 200.76 287.56 200.14C292.27 195.04 296.24 189.91 297.16 183.04C300.6 187.11 305 190.24 310.16 192C313.42 193.12 320.04 194.53 323.09 191.83C329.48 190.91 335.28 187.06 338.63 181.5C341.89 176.07 343.07 170.57 343.15 164.83C345.99 152.68 339.56 133.31 327.52 126.97Z" fill="#C088F9"/>
<path d="M162.56 181.98L182.81 178.23L222.34 174.28H228.16L229.1 177.54L226.48 180.68L169.63 187.83L158.14 193.28L154.17 198.54L152.6 203.67L149.26 205.03L145.8 202.33L147.53 193.72L153.36 186.92L162.56 181.98Z" fill="#C088F9"/>
<path d="M293.33 151.16C290.06 135.16 275.56 125.27 257.96 129.41C241.29 133.33 232.09 153.28 234.46 172.11C236.83 190.92 248.31 209.43 271.17 207.72C290.07 206.31 297.85 189.37 297.66 182.4" stroke="black" stroke-width="4" stroke-miterlimit="10" stroke-linecap="round" stroke-linejoin="round"/>
<path d="M290.06 141.63C291.3 135.25 297 124.7 310.67 122.32C325.42 119.75 339.44 130.17 343.09 151.68C346.89 174.08 336.78 191.1 320.95 193.14C307.82 194.83 300.64 188.44 297.55 184.6" stroke="black" stroke-width="4" stroke-miterlimit="10" stroke-linecap="round" stroke-linejoin="round"/>
<path d="M149.59 205.04C149.48 205.04 149.37 205.04 149.26 205.03C147.06 204.85 145.42 202.92 145.6 200.72C146.67 187.55 159.17 182.46 169.47 180.5C177.22 179.03 211.77 174.27 226.1 172.96C227.81 173.37 228.9 174.86 229.06 176.56C229.18 177.87 229.19 179.92 227.35 180.9C213.19 182.19 178.58 186.91 170.96 188.36C159.8 190.48 154.11 194.73 153.57 201.37C153.4 203.46 151.65 205.04 149.59 205.04Z" stroke="black" stroke-width="4" stroke-miterlimit="10" stroke-linecap="round" stroke-linejoin="round"/>
<path d="M290.7 166.49C292.51 184.19 283.12 196.94 271.58 197.22C258.58 197.53 249.29 188.64 247.78 172.8C246.27 156.96 251.09 142.27 265.31 140.15C276.72 138.44 288.89 148.7 290.7 166.49Z" fill="#D75D5D"/>
<path d="M248.8 178.76C257.69 178.76 276.22 184.68 282.64 192.55" stroke="#972C2C" stroke-width="3" stroke-miterlimit="10" stroke-linecap="round" stroke-linejoin="round"/>
<path d="M247.52 165.18C255.99 164.48 284.51 170.76 288.38 180.76" stroke="#972C2C" stroke-width="3" stroke-miterlimit="10" stroke-linecap="round" stroke-linejoin="round"/>
<path d="M250.73 151.18C268.91 149.46 284.58 156.66 290.44 164.38" stroke="#972C2C" stroke-width="3" stroke-miterlimit="10" stroke-linecap="round" stroke-linejoin="round"/>
<path d="M262.14 140.88C262.63 143.67 262.52 150.54 261.43 158.92C260.12 168.96 257.08 181.22 253.97 188.07" stroke="#972C2C" stroke-width="3" stroke-miterlimit="10" stroke-linecap="round" stroke-linejoin="round"/>
<path d="M273.37 140.88C275.23 143.81 278.95 153.62 276.32 168.15C273.93 181.35 268.79 190.52 264.4 195.27" stroke="#972C2C" stroke-width="3" stroke-miterlimit="10" stroke-linecap="round" stroke-linejoin="round"/>
<path d="M284.36 149.17C286.02 153.06 287.75 160.19 285.81 171.85C283.85 183.64 280.09 190.07 275.58 196.34" stroke="#972C2C" stroke-width="3" stroke-miterlimit="10" stroke-linecap="round" stroke-linejoin="round"/>
<path d="M290.7 166.49C292.51 184.19 283.12 196.94 271.58 197.22C258.58 197.53 249.29 188.64 247.78 172.8C246.27 156.96 251.09 142.27 265.31 140.15C276.72 138.44 288.89 148.7 290.7 166.49Z" stroke="black" stroke-width="3" stroke-miterlimit="10" stroke-linecap="round" stroke-linejoin="round"/>
<path d="M284.106 164.214C285.841 163.363 285.593 159.296 283.55 155.13C281.508 150.965 278.446 148.278 276.71 149.129C274.975 149.98 275.223 154.046 277.265 158.212C279.307 162.377 282.37 165.064 284.106 164.214Z" fill="#FFD9D9"/>
<path d="M336.27 155.49C337.8 171.43 329.84 182.92 320.05 183.17C309.02 183.45 301.14 175.44 299.86 161.18C298.58 146.91 302.67 133.68 314.73 131.77C324.41 130.23 334.73 139.47 336.27 155.49Z" fill="#D75D5D"/>
<path d="M300.72 166.54C308.26 166.54 323.98 171.87 329.43 178.97" stroke="#972C2C" stroke-width="3" stroke-miterlimit="10" stroke-linecap="round" stroke-linejoin="round"/>
<path d="M299.64 154.31C306.82 153.68 331.02 159.33 334.31 168.34" stroke="#972C2C" stroke-width="3" stroke-miterlimit="10" stroke-linecap="round" stroke-linejoin="round"/>
<path d="M302.36 141.7C317.78 140.15 331.08 146.64 336.05 153.59" stroke="#972C2C" stroke-width="3" stroke-miterlimit="10" stroke-linecap="round" stroke-linejoin="round"/>
<path d="M312.04 132.43C312.45 134.94 312.36 141.13 311.43 148.68C310.32 157.73 307.74 168.77 305.1 174.94" stroke="#972C2C" stroke-width="3" stroke-miterlimit="10" stroke-linecap="round" stroke-linejoin="round"/>
<path d="M321.57 132.43C323.14 135.07 326.31 143.91 324.07 156.99C322.04 168.88 317.68 177.14 313.95 181.42" stroke="#972C2C" stroke-width="3" stroke-miterlimit="10" stroke-linecap="round" stroke-linejoin="round"/>
<path d="M330.89 139.89C332.29 143.39 333.77 149.82 332.12 160.32C330.46 170.94 327.27 176.73 323.44 182.38" stroke="#972C2C" stroke-width="3" stroke-miterlimit="10" stroke-linecap="round" stroke-linejoin="round"/>
<path d="M336.27 155.49C337.8 171.43 329.84 182.92 320.05 183.17C309.02 183.45 301.14 175.44 299.86 161.18C298.58 146.91 302.67 133.68 314.73 131.77C324.41 130.23 334.73 139.47 336.27 155.49Z" stroke="black" stroke-width="3" stroke-miterlimit="10" stroke-linecap="round" stroke-linejoin="round"/>
<path d="M330.684 153.418C332.195 152.737 332.043 149.132 330.345 145.366C328.647 141.599 326.046 139.098 324.536 139.779C323.025 140.46 323.177 144.065 324.875 147.832C326.573 151.598 329.174 154.099 330.684 153.418Z" fill="#FFD9D9"/>
</svg>
