<svg width="100%" height="100%" viewBox="0 0 450 450" fill="none" xmlns="http://www.w3.org/2000/svg">
<path opacity="0.75" d="M256.8 197.9C258.29 204.24 253.75 210.19 238.94 212.56C226.13 214.61 216.96 214.31 215.95 206.64C215.1 200.17 225.02 193.86 233.46 192.18C246.69 189.56 255.3 191.56 256.8 197.9Z" fill="#FF88B0"/>
<path d="M226.76 206.81C229.08 203.38 234.33 199.07 237.8 197.99" stroke="#FF6197" stroke-width="4" stroke-miterlimit="10" stroke-linecap="round" stroke-linejoin="round"/>
<path d="M240.14 205.45C242.93 202.6 246.6 200.1 248.59 199.36" stroke="#FF6197" stroke-width="4" stroke-miterlimit="10" stroke-linecap="round" stroke-linejoin="round"/>
<path d="M327.52 126.97C327.2 126.42 326.71 125.95 326.02 125.61C320.45 122.88 308.94 119.56 304.25 125.44C303.22 125.05 302.07 125.08 301.04 125.77C296.2 129.01 293.28 133.52 291.13 138.87C290.55 140.32 290.15 141.66 289.83 143.05C287.72 139 285.09 135.32 281.06 132.87C280.54 132.55 280 132.39 279.47 132.34C279.45 132.33 279.43 132.31 279.41 132.3C277.2 130.89 275 130.24 272.43 130.14C272.14 129.99 271.82 129.87 271.46 129.78C263.66 127.91 255.73 129.32 249.31 134.23C248.65 134.73 248.22 135.34 247.94 135.98C247.2 136.59 246.5 137.23 245.81 137.9C241.25 139.78 237.52 146.35 236.3 150.44C235.95 151.63 236.13 152.65 236.63 153.46C236.56 153.77 236.51 154.1 236.49 154.45C236.45 155.2 236.41 155.95 236.38 156.71C236.14 157.11 235.97 157.54 235.89 158.02C234.98 163.67 234.41 169.45 235.7 175C234.55 176.23 233.99 177.99 234.5 179.69C235.05 181.53 235.83 183.34 236.87 184.95C237.03 185.2 237.21 185.43 237.41 185.65C237.46 185.71 237.53 185.77 237.58 185.83C237.7 185.95 237.81 186.07 237.94 186.17C238.04 186.26 238.14 186.34 238.25 186.41C238.41 186.53 238.58 186.64 238.76 186.74C238.8 186.76 238.83 186.78 238.86 186.8C239.28 187.02 239.73 187.19 240.2 187.28C240.47 188.02 240.78 188.74 241.14 189.45C241.25 195.14 249.1 200.67 253.32 203.17C255.71 204.58 258.85 207.17 261.85 206.9C262.97 207.39 263.95 207.58 265.37 207.65C265.57 207.77 265.77 207.89 266 207.99C269.13 209.38 272.43 207.22 275.33 206.03C279.19 205.26 282.92 203.72 285.72 201.27C286.36 201.11 286.99 200.76 287.56 200.14C292.27 195.04 296.24 189.91 297.16 183.04C300.6 187.11 305 190.24 310.16 192C313.42 193.12 320.04 194.53 323.09 191.83C329.48 190.91 335.28 187.06 338.63 181.5C341.89 176.07 343.07 170.57 343.15 164.83C345.99 152.67 339.56 133.3 327.52 126.97Z" 
fill="#C088F9"/>
<path d="M162.56 181.98L182.81 178.23L222.34 174.27H228.16L229.1 177.53L226.48 180.67L169.63 187.83L158.14 193.27L154.17 198.54L152.6 203.66L149.26 205.02L145.8 202.32L147.53 193.71L153.36 186.91L162.56 181.98Z" 
fill="#C088F9"/>
<path d="M293.33 151.15C290.06 135.15 275.56 125.26 257.96 129.4C241.29 133.32 232.09 153.27 234.46 172.1C236.83 190.91 248.31 209.42 271.17 207.71C290.07 206.3 297.85 189.36 297.66 182.39" stroke="black" stroke-width="4" stroke-miterlimit="10" stroke-linecap="round" stroke-linejoin="round"/>
<path d="M290.06 141.63C291.3 135.25 297 124.7 310.67 122.32C325.42 119.75 339.44 130.17 343.09 151.68C346.89 174.08 336.78 191.1 320.95 193.14C307.82 194.83 300.64 188.44 297.55 184.6" stroke="black" stroke-width="4" stroke-miterlimit="10" stroke-linecap="round" stroke-linejoin="round"/>
<path d="M149.59 205.03C149.48 205.03 149.37 205.03 149.26 205.02C147.06 204.84 145.42 202.91 145.6 200.71C146.67 187.54 159.17 182.45 169.47 180.49C177.22 179.02 211.77 174.26 226.1 172.95C227.81 173.36 228.9 174.85 229.06 176.55C229.18 177.86 229.19 179.91 227.35 180.89C213.19 182.18 178.58 186.9 170.96 188.35C159.8 190.47 154.11 194.72 153.57 201.36C153.4 203.45 151.65 205.03 149.59 205.03Z" stroke="black" stroke-width="4" stroke-miterlimit="10" stroke-linecap="round" stroke-linejoin="round"/>
<path d="M301.7 147.58L304.77 139.13L312.44 135.7L319.51 137.3L324.12 143.6L332.01 138.52L339.98 139.25L345.52 145.03L343.68 155.15L332.62 167.88L320.7 179.48L317.66 172.45L307.5 160.19L301.7 147.58Z" fill="#FF88B0"/>
<path d="M319.97 179.64C322.98 177.53 332.75 169.41 338.99 162.08" stroke="#991642" stroke-width="4" stroke-miterlimit="10" stroke-linecap="round" stroke-linejoin="round"/>
<path d="M338.33 145.52C339.07 146.11 339.51 148.47 338.9 149.92" stroke="#FFB0CA" stroke-width="4" stroke-miterlimit="10" stroke-linecap="round" stroke-linejoin="round"/>
<path d="M315.86 141.55C316.78 141.68 318.48 142.62 319.13 143.68" stroke="#FFB0CA" stroke-width="4" stroke-miterlimit="10" stroke-linecap="round" stroke-linejoin="round"/>
<path d="M339 162.07C341.08 159.63 342.77 157.27 343.68 155.25C347.61 146.69 344.16 140.42 338.39 138.64C333.31 137.07 328.17 138.96 325.22 143.88" stroke="#CC295F" stroke-width="4" stroke-miterlimit="10" stroke-linecap="round" stroke-linejoin="round"/>
<path d="M325.77 146.91C325.48 140.27 320.07 135.31 313.27 136.03C310.93 136.28 308.91 137.14 307.27 138.38C304.54 140.46 302.9 143.59 302.73 146.7" stroke="#991642" stroke-width="4" stroke-miterlimit="10" stroke-linecap="round" stroke-linejoin="round"/>
<path d="M302.73 146.7C302.4 152.89 304.22 156.52 306.9 160.41C309.31 163.9 312.54 166.71 315.71 170.91C318.34 174.39 319.84 177.4 319.97 179.64" stroke="#660324" stroke-width="4" stroke-miterlimit="10" stroke-linecap="round" stroke-linejoin="round"/>
<path d="M323.88 158.6C323.26 157.08 322.09 153.91 319.92 152.91C318.3 152.16 316.77 152.12 315.58 153.18C313.88 154.7 313.97 157.36 315.48 159.77C317.24 162.57 321.03 165.63 322.64 168.21C325.66 165.8 327.98 164.72 330.06 162.96C332.69 160.74 333.79 157.86 332.06 155.99C330.3 154.08 325.64 155.13 323.88 158.6Z" fill="#FF6197"/>
<path d="M311.5 156.67C312.82 158.84 315.92 161.94 317.15 163.82" stroke="#FFD7E5" stroke-width="4" stroke-miterlimit="10" stroke-linecap="round" stroke-linejoin="round"/>
<path d="M300.69 161.55L291.15 177.38L278.51 192.81L269.89 185.62L253.04 174.37L245.88 160.17L248.78 146.49L257.95 141.88L268.59 145.59L275.14 152.88L282.31 142.2L293.53 141.9L300.79 149.52L300.69 161.55Z" fill="#FF88B0"/>
<path d="M274.83 153.52C276.49 145.9 285.23 137.96 295.08 143.05" stroke="#CC295F" stroke-width="4" stroke-miterlimit="10" stroke-linecap="round" stroke-linejoin="round"/>
<path d="M251.41 145.29C258.31 140.1 269.77 142.69 275.78 155.51" stroke="#991642" stroke-width="4" stroke-miterlimit="10" stroke-linecap="round" stroke-linejoin="round"/>
<path d="M295.08 143.05C302.84 147.06 303.58 157.16 298.33 167.45" stroke="#CC295F" stroke-width="4" stroke-miterlimit="10" stroke-linecap="round" stroke-linejoin="round"/>
<path d="M298.33 167.45C294.99 173.99 284.56 183.75 278.82 195.06" stroke="#991642" stroke-width="4" stroke-miterlimit="10" stroke-linecap="round" stroke-linejoin="round"/>
<path d="M278.82 195.06C274.68 186.15 261 181.17 254.22 174.95C249.64 170.75 247.17 167.75 245.68 162.55C243.91 156.38 246.49 149 251.41 145.3" stroke="#660324" stroke-width="4" stroke-miterlimit="10" stroke-linecap="round" stroke-linejoin="round"/>
<path d="M289.46 148.9C291.85 148.99 295.9 152.29 294.72 158.24" stroke="#FFB0CA" stroke-width="4" stroke-miterlimit="10" stroke-linecap="round" stroke-linejoin="round"/>
<path d="M262.72 149.91C264.36 150.02 267.54 152.77 268.28 154.83" stroke="#FFB0CA" stroke-width="4" stroke-miterlimit="10" stroke-linecap="round" stroke-linejoin="round"/>
<path d="M275.79 165.6C274.54 163.86 272.08 160.21 269.02 159.6C266.74 159.15 264.79 159.56 263.6 161.28C261.91 163.72 262.84 167.07 265.5 169.66C268.6 172.67 274.34 175.38 277.16 178.15C280.25 174.17 282.86 172.08 284.95 169.22C287.6 165.59 288.11 161.61 285.34 159.77C282.53 157.89 276.95 160.65 275.79 165.6Z" fill="#FF6197"/>
<path d="M258.74 169.11C261.2 171.45 264.59 173.37 266.94 175.13" stroke="#FFD7E5" stroke-width="4" stroke-miterlimit="10" stroke-linecap="round" stroke-linejoin="round"/>
</svg>
