<svg width="450" height="450" viewBox="0 0 450 450" fill="none" xmlns="http://www.w3.org/2000/svg">
<path d="M327.52 126.97C327.2 126.42 326.71 125.95 326.02 125.61C320.45 122.88 308.94 119.56 304.25 125.44C303.22 125.05 302.07 125.08 301.04 125.77C296.2 129.01 293.28 133.52 291.13 138.87C290.55 140.32 290.15 141.66 289.83 143.05C287.72 139 285.09 135.32 281.06 132.87C280.54 132.55 280 132.39 279.47 132.34C279.45 132.33 279.43 132.31 279.41 132.3C277.2 130.89 275 130.24 272.43 130.14C272.14 129.99 271.82 129.87 271.46 129.78C263.66 127.91 255.73 129.32 249.31 134.23C248.65 134.73 248.22 135.34 247.94 135.98C247.2 136.59 246.5 137.23 245.81 137.9C241.25 139.78 237.52 146.35 236.3 150.44C235.95 151.63 236.13 152.65 236.63 153.46C236.56 153.77 236.51 154.1 236.49 154.45C236.45 155.2 236.41 155.95 236.38 156.71C236.14 157.11 235.97 157.54 235.89 158.02C234.98 163.67 234.41 169.45 235.7 175C234.55 176.23 233.99 177.99 234.5 179.69C235.05 181.53 235.83 183.34 236.87 184.95C237.03 185.2 237.21 185.43 237.41 185.65C237.46 185.71 237.53 185.77 237.58 185.83C237.7 185.95 237.81 186.07 237.94 186.17C238.04 186.26 238.14 186.34 238.25 186.41C238.41 186.53 238.58 186.64 238.76 186.74C238.8 186.76 238.83 186.78 238.86 186.8C239.28 187.02 239.73 187.19 240.2 187.28C240.47 188.02 240.78 188.74 241.14 189.45C241.25 195.14 249.1 200.67 253.32 203.17C255.71 204.58 258.85 207.17 261.85 206.9C262.97 207.39 263.95 207.58 265.37 207.65C265.57 207.77 265.77 207.89 266 207.99C269.13 209.38 272.43 207.22 275.33 206.03C279.19 205.26 282.92 203.72 285.72 201.27C286.36 201.11 286.99 200.76 287.56 200.14C292.27 195.04 296.24 189.91 297.16 183.04C300.6 187.11 305 190.24 310.16 192C313.42 193.12 320.04 194.53 323.09 191.83C329.48 190.91 335.28 187.06 338.63 181.5C341.89 176.07 343.07 170.57 343.15 164.83C345.99 152.67 339.56 133.3 327.52 126.97ZM282.58 193.74C281.94 194.01 281.34 194.44 280.84 195.09C279.31 197.07 276.21 197.4 273.93 197.86C271.72 198.31 269.62 198.6 267.43 198.52C267.08 198.13 266.71 197.76 266.29 197.45C264.82 196.37 263.21 195.92 261.53 195.24C257.34 193.52 254.02 190.58 251.61 186.77C251.28 186.25 250.85 185.86 250.36 185.56C250.27 185.35 250.17 185.13 250.05 184.91C248.76 182.62 248.94 179.63 248.61 177.07C248.28 174.51 247.81 172 247.2 169.5C247.43 169.04 247.6 168.52 247.67 167.94C248.22 163.32 248.82 158.73 249.81 154.18C250.09 152.9 249.79 151.81 249.18 150.98C251.28 147.53 254.28 144.66 257.94 142.41C258.67 141.96 259.2 141.42 259.58 140.82C259.85 140.79 260.14 140.74 260.43 140.65C262.22 140.12 264.01 139.68 265.82 139.29C267.07 139.17 268.3 139.14 269.52 139.19C269.81 139.92 270.38 140.58 271.35 141.03C273.31 141.94 275.69 142.28 277.45 143.42C279.57 144.79 281.3 147.22 282.7 149.25C282.9 149.54 283.12 149.78 283.34 150C282.98 151.5 283.41 153.16 285.15 154.17C285.15 154.17 285.16 154.17 285.16 154.18C285.2 154.26 285.23 154.34 285.27 154.42C285.34 154.7 285.44 154.99 285.57 155.28C286.21 156.73 286.85 158.18 287.5 159.63C287.28 160.5 287.41 161.48 288.07 162.49C289.43 164.54 289.03 168 289.13 170.4C289.26 173.37 289.37 176.36 289.36 179.34C289.36 185.45 286.45 189.47 282.58 193.74ZM334.63 156.57C335.64 163.49 335.79 169.62 332.52 176C330.19 180.56 326.22 183.36 321.47 183.89C321.47 183.89 321.47 183.89 321.46 183.89C317.94 182.48 314.91 182.11 311.67 179.88C307.81 177.22 305.9 174.89 304.42 170.4C302.85 165.63 301.72 160.75 300.89 155.79C300.74 154.92 300.37 154.26 299.87 153.79C300.77 147.06 303.1 139.88 307.34 134.6C308.39 134.44 309.24 133.83 309.8 133.01C310.58 132.45 311.85 132.02 313.2 131.67C313.86 132.6 314.91 133.23 316.29 133.18C318.12 133.12 319.95 133.09 321.79 133.07C328.99 134.84 333.84 144.89 335.34 153.54C334.76 154.35 334.45 155.38 334.63 156.57Z" fill="#C088F9"/>
<path d="M289.07 168.64C291.04 186.65 281.65 198.45 270.04 198.45C268.79 198.45 267.52 198.3 266.31 197.98C265.48 197.76 264.88 197.23 264.09 196.97C262.44 196.42 260.09 197.3 258.99 198.57C258.23 199.44 257.85 200.57 257.5 201.67C256.77 203.92 256.03 206.17 255.3 208.42C254.83 209.86 254.34 211.34 253.35 212.48C252.03 214 250.41 214.25 248.62 214.75C246.44 215.35 244.47 216.09 242.17 215.61C239.72 215.09 237.47 212.97 237.55 210.47C237.57 209.92 237.69 209.38 237.84 208.86C238.66 205.88 240.11 202.5 242.8 200.87C244.83 199.64 246.87 198.4 249.1 197.59C249.78 197.34 250.49 197.13 251.11 196.75C252.22 196.08 252.96 194.92 253.39 193.7C253.76 192.66 254.13 191.28 254.11 190.17C254.09 189.22 253.58 188.72 253.04 187.94C251.78 186.12 250.71 184.16 249.84 182.13C248.02 177.9 247.04 173.3 247.04 168.68C247.04 152.9 256.45 140.1 268.06 140.1C279.67 140.1 289.07 152.86 289.07 168.64Z" fill="white"/>
<path d="M336.68 170.68C337.84 171.94 339.52 172.71 341.23 172.78C342.62 172.84 343.99 172.45 345.26 171.9C345.62 171.75 345.98 171.58 346.36 171.51C346.8 171.43 347.25 171.49 347.69 171.55C349.06 171.74 350.49 171.95 351.62 172.73C352.21 173.14 352.69 173.68 353.14 174.25C353.64 174.88 354.11 175.55 354.37 176.31C354.77 177.5 354.6 178.8 354.42 180.05C354.36 180.5 354.29 180.97 354.07 181.37C353.7 182.06 352.96 182.44 352.26 182.79C351.46 183.19 350.65 183.59 349.77 183.77C348.14 184.1 346.47 183.61 344.91 183.06C343.24 182.48 341.6 181.82 339.99 181.1C339.23 180.76 338.47 180.4 337.69 180.08C336.8 179.72 335.86 179.41 334.9 179.42C333.51 179.43 332.21 180.08 330.92 180.6C327.26 182.1 323.31 182.6 319.38 182.6C310.14 182.6 301.07 170.69 301.07 157.28C301.07 143.87 308.56 133 317.8 133C327.04 133 334.53 143.87 334.53 157.28C334.72 159.16 334.79 161.05 334.7 162.93C334.63 164.46 335.13 165.94 335.33 167.44C335.51 168.62 335.84 169.77 336.68 170.68Z" fill="white"/>
<path d="M162.56 181.98L182.81 178.23L222.34 174.27H228.16L229.1 177.53L226.48 180.67L169.63 187.83L158.14 193.27L154.17 198.54L152.6 203.66L149.26 205.02L145.8 202.32L147.53 193.71L153.36 186.91L162.56 181.98Z" fill="#C088F9"/>
<path d="M256.34 205.61C260.62 207.34 265.54 208.14 271.16 207.72C290.06 206.31 297.84 189.37 297.65 182.4" stroke="black" stroke-width="4" stroke-miterlimit="10" stroke-linecap="round" stroke-linejoin="round"/>
<path d="M293.33 151.15C290.06 135.15 275.56 125.26 257.96 129.4C241.29 133.32 232.09 153.27 234.46 172.1C235.7 181.95 239.44 191.71 245.99 198.53" stroke="black" stroke-width="4" stroke-miterlimit="10" stroke-linecap="round" stroke-linejoin="round"/>
<path d="M338.53 182.22C333.54 190.65 325.28 192.57 320.95 193.13C307.82 194.82 300.64 188.43 297.55 184.59" stroke="black" stroke-width="4" stroke-miterlimit="10" stroke-linecap="round" stroke-linejoin="round"/>
<path d="M290.06 141.63C291.3 135.25 297 124.7 310.67 122.32C325.42 119.75 339.44 130.17 343.09 151.68C344.36 159.18 344.07 166.08 342.53 172.01" stroke="black" stroke-width="4" stroke-miterlimit="10" stroke-linecap="round" stroke-linejoin="round"/>
<path d="M265.14 139.82C276.81 138.59 287.26 152.82 288.99 165.09C290.82 178.02 287.96 194.57 274.84 197.16C272.44 197.64 269.95 197.78 267.52 197.44C265.74 197.19 263.67 195.92 261.92 195.94C257.4 195.99 257.15 202.51 256.28 205.89C255.65 208.34 254.95 210.91 253.2 212.73C249.88 216.18 243.64 217.71 239.53 214.96C234.52 211.61 237.53 205.44 241.13 202.29C244.43 199.4 248.52 197.56 251.73 194.57C252.78 193.59 253.76 192.43 254.07 191.03C254.64 188.45 251.33 184.97 250.31 182.66C248.83 179.29 247.85 175.7 247.35 172.05C245.51 158.64 251.4 141.26 265.14 139.82Z" stroke="#42474F" stroke-width="4" stroke-miterlimit="10" stroke-linecap="round" stroke-linejoin="round"/>
<path d="M352.22 171.64C355.45 173.26 356.26 176.61 355.66 179.5C354.91 183.12 351.79 184.46 349.02 184.59C344.87 184.79 342.52 182.95 338.63 181.49C335.97 180.5 335.16 178.94 331 179.9C328.05 180.58 326.79 183.15 321.58 183.24C318.62 183.29 315.65 182.41 313.12 180.73C306.4 176.26 302.67 167.89 301.53 160.14C299.87 148.89 302.84 135.07 313.36 132.68C324.82 130.07 332.32 142.8 334.19 153.79C334.91 158.01 335.15 162.27 334.8 166.54C334.46 170.65 337.47 173.21 340.94 172.63C345.78 171.81 348.55 169.8 352.22 171.64Z" stroke="#42474F" stroke-width="4" stroke-miterlimit="10" stroke-linecap="round" stroke-linejoin="round"/>
<path d="M149.59 205.03C149.48 205.03 149.37 205.03 149.26 205.02C147.06 204.84 145.42 202.91 145.6 200.71C146.67 187.54 159.17 182.45 169.47 180.49C177.22 179.02 211.77 174.26 226.1 172.95C227.81 173.36 228.9 174.85 229.06 176.55C229.18 177.86 229.19 179.91 227.35 180.89C213.19 182.18 178.58 186.9 170.96 188.35C159.8 190.47 154.11 194.72 153.57 201.36C153.4 203.45 151.65 205.03 149.59 205.03Z" stroke="black" stroke-width="4" stroke-miterlimit="10" stroke-linecap="round" stroke-linejoin="round"/>
<path d="M254.95 174.27C252.07 163.64 256.93 149.38 265.11 148.11C273.3 146.84 281.06 155.38 282.33 166.71C283.6 178.04 282.54 187.92 273.44 190.46C268.13 191.95 258.76 188.34 254.95 174.27Z" fill="#272E37"/>
<path d="M254.95 174.27C252.07 163.64 256.93 149.38 265.11 148.11C273.3 146.84 281.06 155.38 282.33 166.71C283.6 178.04 282.54 187.92 273.44 190.46C268.13 191.95 258.76 188.34 254.95 174.27Z" stroke="black" stroke-width="4" stroke-miterlimit="10" stroke-linecap="round" stroke-linejoin="round"/>
<path d="M259.74 159.56C260.79 156.19 265.14 152.99 268.75 153.71C274.54 154.87 276.17 163.19 272.18 168.89C270.62 171.13 265.79 173.44 262.53 171.71C259.04 169.86 258.37 163.96 259.74 159.56Z" fill="white"/>
<path d="M270.14 176.19C270.67 174.5 272.85 172.89 274.67 173.25C277.58 173.83 278.39 178.01 276.39 180.87C275.61 181.99 273.18 183.16 271.54 182.28C269.79 181.36 269.45 178.4 270.14 176.19Z" fill="white"/>
<path d="M308.28 161.61C306.16 153.3 309.74 142.14 315.76 141.14C321.79 140.15 327.51 146.83 328.44 155.69C329.38 164.55 328.6 172.28 321.89 174.27C317.98 175.44 311.08 172.62 308.28 161.61Z" fill="#272E37"/>
<path d="M308.28 161.23C306.16 152.67 309.74 141.18 315.76 140.16C321.79 139.14 327.51 146.01 328.44 155.14C329.38 164.26 328.6 172.22 321.89 174.27C317.98 175.46 311.08 172.56 308.28 161.23Z" stroke="black" stroke-width="4" stroke-miterlimit="10" stroke-linecap="round" stroke-linejoin="round"/>
<path d="M311.8 150.1C312.58 147.46 315.78 144.96 318.44 145.53C322.7 146.44 323.9 152.95 320.97 157.41C319.82 159.16 316.27 160.97 313.86 159.61C311.29 158.16 310.79 153.54 311.8 150.1Z" fill="white"/>
<path d="M319.46 163.11C319.85 161.79 321.46 160.53 322.79 160.81C324.93 161.27 325.53 164.53 324.06 166.77C323.48 167.65 321.7 168.56 320.49 167.88C319.2 167.16 318.95 164.84 319.46 163.11Z" fill="white"/>
</svg>
