<svg width="100%" height="100%" viewBox="0 0 450 450" fill="none" xmlns="http://www.w3.org/2000/svg" style="display: block;">
<path d="M243.71 154.17L246.25 149.25L258.28 144.11L279.16 148.95L298.91 156.87L296.58 161.53L243.71 154.17Z" 
fill="COLOR_PLACEHOLDER"/>
<path d="M279.35 195.71L256.6 193.97L250.27 174.45L255.49 157.57L291.22 161L294.5 176.94L292.94 192.48L279.35 195.71Z" fill="white"/>
<path d="M240.72 155.96C250.77 154.83 288.21 159.87 298.43 161.72C298.13 159.56 298.69 156.25 295.77 154.06C283.85 148.08 257.82 143.01 249.64 146.88C243.88 148.28 240.72 155.96 240.72 155.96Z" stroke="black" stroke-width="4" stroke-miterlimit="10" stroke-linecap="round" stroke-linejoin="round"/>
<path d="M292.9 159.92C293.21 160.43 293.37 160.85 293.5 161.22C293.64 161.61 293.74 161.95 293.85 162.31C294.05 163.02 294.2 163.7 294.35 164.38C294.63 165.74 294.85 167.09 295.04 168.44C295.41 171.14 295.65 173.83 295.79 176.54C295.92 179.25 295.96 181.96 295.85 184.69C295.72 187.42 295.46 190.16 294.86 192.92C294.72 193.55 294.29 194.04 293.74 194.28L293.72 194.29C290.65 195.6 287.4 196.52 284.13 197.01C280.86 197.53 277.59 197.66 274.39 197.71L269.61 197.74C267.96 197.74 266.29 197.68 264.61 197.47C262.93 197.26 261.23 196.92 259.55 196.33C257.87 195.75 256.21 194.91 254.75 193.71C253.29 192.53 252.08 191 251.22 189.38C250.35 187.76 249.79 186.06 249.38 184.4C248.97 182.74 248.71 181.1 248.49 179.49C248.28 177.91 248.05 176.26 247.98 174.57C247.8 171.22 248.07 167.79 248.85 164.45C249.64 161.13 250.9 157.82 253.14 155.27C253.88 154.42 255.17 154.34 256.01 155.08C256.65 155.64 256.85 156.5 256.6 157.26L256.59 157.3C255.62 160.2 254.37 162.78 253.68 165.62C253 168.44 252.73 171.39 252.86 174.36C252.9 175.84 253.06 177.33 253.22 178.9C253.39 180.43 253.59 181.93 253.9 183.35C254.5 186.2 255.59 188.7 257.54 190.37C259.47 192.09 262.25 192.96 265.15 193.37C266.61 193.58 268.11 193.67 269.62 193.69C271.2 193.72 272.78 193.71 274.34 193.7C277.46 193.66 280.54 193.55 283.53 193.09C286.52 192.65 289.42 191.85 292.18 190.68L291.04 192.05C291.58 189.62 291.83 187.07 291.96 184.5C292.07 181.93 292.05 179.33 291.9 176.73C291.75 174.14 291.5 171.54 291.13 168.98C290.94 167.7 290.73 166.43 290.46 165.19C290.32 164.58 290.18 163.96 290.02 163.39C289.94 163.11 289.85 162.82 289.76 162.58C289.67 162.32 289.57 162.13 289.54 162.07L289.39 161.72C288.95 160.72 289.41 159.55 290.41 159.11C291.33 158.71 292.4 159.07 292.9 159.92Z" fill="black"/>
<path d="M286.966 173.91C287.344 167.858 284.235 162.738 280.024 162.476C275.812 162.214 272.093 166.907 271.715 172.96C271.338 179.012 274.447 184.132 278.658 184.394C282.869 184.657 286.589 179.963 286.966 173.91Z" fill="#272E37" stroke="black" stroke-width="4" stroke-miterlimit="10" stroke-linecap="round" stroke-linejoin="round"/>
<path d="M282.324 173.107C283.435 173.001 284.213 171.636 284.061 170.058C283.91 168.48 282.887 167.287 281.777 167.394C280.666 167.5 279.889 168.866 280.04 170.443C280.191 172.021 281.214 173.214 282.324 173.107Z" fill="white"/>
<path d="M296.58 161.53C295.9 162.5 292.94 164.95 292.94 164.95" stroke="black" stroke-width="4" stroke-miterlimit="10" stroke-linecap="round" stroke-linejoin="round"/>
<path d="M245.46 155.8L252.28 161.67" stroke="black" stroke-width="4" stroke-miterlimit="10" stroke-linecap="round" stroke-linejoin="round"/>
<path d="M309.84 159L310.82 149.61L328.53 138.58L338.5 137.57L343.2 143.89L309.84 159Z" 
fill="COLOR_PLACEHOLDER"/>
<path d="M337.78 182.85L320.9 185.75L315.88 175.64L312.82 156.95L336.55 147.42L339.7 157.35L343.7 170.15L337.78 182.85Z" fill="white"/>
<path d="M308.97 159.94C308.26 159.46 307.7 158.54 307.59 157.73C307.45 156.91 307.57 156.23 307.71 155.63C308.02 154.42 308.49 153.44 308.98 152.5L309.73 151.13L310.48 149.79C311.15 148.7 311.84 147.94 312.57 147.14C314.03 145.59 315.6 144.18 317.39 142.96C319.12 141.8 320.85 140.73 322.66 139.74C324.47 138.76 326.29 137.84 328.22 137.01C329.19 136.6 330.17 136.21 331.3 135.89C332.51 135.53 333.88 135.49 335.08 135.65C337.54 136 339.68 137.06 341.51 138.51C342.42 139.25 343.26 140.1 343.96 141.16C344.63 142.21 345.33 143.51 345.15 145.35V145.39C345.07 146.16 344.53 146.77 343.84 146.99C340.93 147.9 338.09 148.83 335.23 149.79C332.39 150.77 329.57 151.8 326.78 152.89C325.39 153.44 324 154 322.64 154.61L320.61 155.53C319.95 155.83 319.32 156.16 318.67 156.51C317.38 157.21 316.1 157.99 314.75 158.75C314.07 159.13 313.38 159.51 312.59 159.85C312.19 160.02 311.77 160.18 311.25 160.3C310.98 160.36 310.69 160.41 310.3 160.39C309.95 160.36 309.45 160.28 308.97 159.94ZM310.72 157.5C310.34 157.28 310.39 157.43 310.62 157.35C310.83 157.3 311.12 157.19 311.41 157.06C312.01 156.8 312.64 156.45 313.28 156.08C314.56 155.35 315.85 154.55 317.21 153.79C320 152.25 322.77 151.12 325.58 149.88C328.39 148.68 331.21 147.56 334.05 146.47L342.52 143.2L341.21 144.84C341.24 144.65 341.06 144.01 340.62 143.42C340.2 142.82 339.61 142.23 338.96 141.72C337.66 140.7 336.07 139.95 334.55 139.75C333.78 139.65 333.1 139.68 332.38 139.88C331.59 140.09 330.69 140.43 329.82 140.78C328.06 141.51 326.3 142.37 324.57 143.27C322.85 144.19 321.12 145.12 319.49 146.14C317.93 147.12 316.39 148.27 315.03 149.55C314.36 150.18 313.68 150.89 313.27 151.49L312.48 152.73C312.22 153.15 311.96 153.55 311.73 153.96C311.27 154.77 310.86 155.6 310.66 156.34C310.57 156.7 310.54 157.04 310.57 157.21C310.6 157.41 310.61 157.4 310.72 157.5Z" fill="black"/>
<path d="M319.17 156.26C318.58 158.37 318.5 160.93 318.52 163.36C318.56 165.83 318.75 168.32 319.06 170.78C319.38 173.24 319.8 175.7 320.38 178.09C320.96 180.47 321.69 182.83 322.71 184.88L321.43 183.82C321.83 183.93 322.5 183.95 323.18 183.88C323.87 183.82 324.6 183.69 325.34 183.52C326.82 183.18 328.31 182.68 329.78 182.12C332.71 180.98 335.6 179.55 338.2 177.88L337.39 178.93C337.83 177.63 338.22 176.41 338.48 175.17C338.75 173.93 338.88 172.65 338.97 171.33C339.17 168.71 339.18 165.89 339.11 163.24C338.98 160.61 338.57 157.98 337.83 155.46C337.09 152.98 336.06 150.45 334.5 148.75L334.45 148.7C333.89 148.09 333.93 147.14 334.54 146.58C335.13 146.04 336.03 146.06 336.6 146.6C337.79 147.74 338.63 149.03 339.35 150.35C340.06 151.67 340.63 153.04 341.09 154.43C342.01 157.22 342.55 160.09 342.78 163C342.96 165.89 343.07 168.63 342.96 171.56C342.89 173.01 342.74 174.49 342.43 175.98C342.14 177.47 341.69 178.89 341.25 180.23C341.1 180.68 340.81 181.04 340.45 181.27L340.44 181.28C338.98 182.24 337.47 183.06 335.94 183.82C334.41 184.58 332.84 185.26 331.24 185.87C329.63 186.48 327.99 187.01 326.26 187.41C325.39 187.61 324.5 187.77 323.55 187.86C322.6 187.94 321.6 187.97 320.4 187.67L320.37 187.66C319.79 187.51 319.35 187.11 319.12 186.61C317.96 184.05 317.29 181.48 316.74 178.91C316.2 176.33 315.84 173.75 315.6 171.16C315.36 168.57 315.24 165.97 315.29 163.35C315.32 162.04 315.38 160.72 315.53 159.4C315.68 158.07 315.89 156.74 316.34 155.34C316.59 154.55 317.44 154.12 318.23 154.37C319 154.62 319.43 155.43 319.21 156.2L319.17 156.26Z" fill="black"/>
<path d="M329.92 171.972C332.595 171.695 334.339 167.373 333.815 162.319C333.291 157.264 330.698 153.392 328.023 153.669C325.347 153.947 323.603 158.269 324.127 163.323C324.651 168.377 327.244 172.249 329.92 171.972Z" fill="#272E37" stroke="black" stroke-width="4" stroke-miterlimit="10" stroke-linecap="round" stroke-linejoin="round"/>
<path d="M329.953 163.114C330.817 163.042 331.421 161.837 331.303 160.422C331.185 159.008 330.388 157.92 329.524 157.992C328.66 158.064 328.056 159.27 328.174 160.684C328.292 162.098 329.089 163.186 329.953 163.114Z" fill="white"/>
<path d="M313.44 158.88C314.89 161.94 315.42 173.87 318.79 179.58" stroke="black" stroke-width="3" stroke-miterlimit="10" stroke-linecap="round" stroke-linejoin="round"/>
<path d="M315.33 160.14C318.44 156.23 322.39 153 332.03 149.09" stroke="black" stroke-width="3" stroke-miterlimit="10" stroke-linecap="round" stroke-linejoin="round"/>
<path d="M239.73 199.21C245.38 196.68 250.57 197.87 253.66 198.91" stroke="black" stroke-width="3" stroke-miterlimit="10" stroke-linecap="round" stroke-linejoin="round"/>
<path d="M233.75 193.23C239.4 190.7 244.17 191.89 247.68 192.93" stroke="black" stroke-width="3" stroke-miterlimit="10" stroke-linecap="round" stroke-linejoin="round"/>
<path d="M337.72 150.76C338.05 149.86 340.27 146.33 342.05 145.49" stroke="black" stroke-width="3" stroke-miterlimit="10" stroke-linecap="round" stroke-linejoin="round"/>
</svg>
