<svg width="100%" height="100%" viewBox="0 0 450 450" fill="none" xmlns="http://www.w3.org/2000/svg" style="display: block;">

<path d="M245.44 111.46C245.71 110.28 245.56 109.19 245.63 108C245.72 106.51 245.65 105.04 245.65 103.55L245.68 97.16C245.7 93.22 245.71 89.29 245.73 85.35C245.73 84.55 245.5 83.3 245.74 82.54C245.77 82.44 245.03 83.12 245.94 82.31C246.15 82.13 246.35 81.95 246.56 81.76C247.92 80.57 249.26 79.36 250.57 78.13C255.45 73.53 260 68.49 263.58 62.79C265.37 59.94 266.94 56.9 268.08 53.73C268.65 52.16 268.91 50.38 268.2 48.81C268.16 48.48 268.05 48.15 267.83 47.84C266.86 46.5 265.35 45.58 263.73 45.66C258.94 45 253.87 49.28 250.7 52.35C248.44 54.54 246.15 56.77 244.16 59.22C242.1 61.74 240.27 64.44 240.07 67.76C238.65 70.62 237.53 73.66 236.61 76.74C235.63 78.45 234.93 80.32 234.4 82.25C233.48 85.61 232.8 89.05 232.37 92.5C232.36 92.62 232.34 92.74 232.33 92.85C231.9 96.74 232.24 100.65 232.58 104.54C232.75 106.42 233.09 108.43 232.98 110.32C232.94 110.94 232.72 111.42 232.88 112.04C233.06 112.71 233.43 113.4 234.05 113.74C234.49 113.98 235.17 114.22 235.66 113.98C235.86 113.88 236.02 113.69 236.24 113.62C236.47 113.55 236.71 113.65 236.92 113.77C237.12 113.9 237.3 114.07 237.51 114.18C237.83 114.35 238.21 114.39 238.57 114.33C239.02 114.26 239.44 114.06 239.78 113.77C239.88 113.68 239.97 113.58 240.09 113.52C240.28 113.42 240.51 113.44 240.71 113.51C241.04 113.63 241.28 113.87 241.62 113.96C241.95 114.05 242.28 114.1 242.62 114.11C243.26 114.12 243.92 113.94 244.41 113.51C244.91 113.07 245.18 112.42 245.37 111.78C245.39 111.68 245.42 111.57 245.44 111.46Z" fill="COLOR_PLACEHOLDER"/>
<path d="M230.64 113.51C229.97 107.76 229.59 101.95 229.69 96.12C229.79 90.29 230.36 84.41 231.9 78.64C233.47 72.9 235.99 67.48 239.1 62.48C242.25 57.52 245.74 52.81 250.15 48.69C252.37 46.66 254.92 44.78 257.91 43.61C259.4 43.02 261.03 42.6 262.78 42.57C264.51 42.54 266.44 42.93 268.01 44.01L268.59 44.42C268.78 44.58 268.97 44.76 269.16 44.94C269.52 45.3 269.85 45.71 270.1 46.13C270.65 46.97 270.95 47.87 271.16 48.74C271.54 50.5 271.48 52.2 271.2 53.79C270.65 56.98 269.22 59.87 267.64 62.38C266.06 64.91 264.24 67.28 262.31 69.49C260.4 71.71 258.38 73.82 256.26 75.84C254.14 77.86 251.92 79.78 249.55 81.56C248.37 82.45 247.14 83.3 245.82 84.07C244.5 84.83 243.11 85.53 241.4 85.92C240.43 86.14 239.47 85.53 239.24 84.56C239.04 83.68 239.53 82.8 240.35 82.48L240.44 82.44C241.49 82.04 242.65 81.38 243.78 80.67C244.91 79.96 246.04 79.18 247.14 78.35C249.34 76.69 251.46 74.86 253.48 72.93C255.5 71 257.43 68.97 259.25 66.85C261.09 64.74 262.75 62.56 264.2 60.24C264.93 59.07 265.57 57.92 266.09 56.73C266.6 55.54 266.99 54.31 267.2 53.09C267.42 51.87 267.42 50.66 267.2 49.62C267.08 49.11 266.91 48.63 266.67 48.27C266.56 48.07 266.42 47.92 266.28 47.78L266.06 47.58L265.76 47.37C264.17 46.27 261.69 46.43 259.38 47.37C257.03 48.3 254.87 49.85 252.88 51.67C248.91 55.37 245.52 59.93 242.55 64.62C239.63 69.34 237.28 74.41 235.84 79.71C234.42 85 233.84 90.6 233.73 96.19C233.62 101.8 233.97 107.44 234.61 113.05V113.06C234.73 114.16 233.95 115.15 232.85 115.27C231.75 115.39 230.77 114.61 230.64 113.51Z" fill="black"/>
<path d="M244.6 112.56C246.02 104.43 246.01 90.05 244.6 82.49" stroke="black" stroke-width="4" stroke-miterlimit="10" stroke-linecap="round" stroke-linejoin="round"/>
<path d="M207.82 117.12C207.61 116.83 207.42 116.55 207.28 116.29C206.21 114.29 205.22 112.25 204.29 110.18C202.42 106.05 200.74 101.83 198.89 97.69C197.31 94.16 195.58 90.68 193.48 87.42C193.28 87.11 193.08 86.81 192.87 86.51C194.48 84.89 195.86 82.94 197.15 81.24C199.61 77.99 201.78 74.52 203.62 70.89C205.55 67.1 207 63.1 208.88 59.29C210.71 55.55 212.54 51.68 212.33 47.41C212.32 47.15 212.26 46.91 212.18 46.69C212.31 45.22 212.1 43.78 211.4 42.4C211.37 42.34 211.34 42.28 211.3 42.2C211.19 41.99 211.08 41.78 210.93 41.59C210.81 41.42 210.69 41.24 210.56 41.07C209.89 40.2 208.93 40.11 208.08 40.45C206.77 40.19 205.28 40.45 204.09 40.79C200.35 41.86 197.5 44.63 195.06 47.53C192.59 50.46 190.38 53.6 188.51 56.94C186.66 60.25 184.51 63.99 184.95 67.89C182.98 73.07 182.03 78.63 182.23 84.19C182.23 84.25 182.25 84.3 182.25 84.35C182.25 85.12 182.27 85.9 182.3 86.67C182.44 89.93 182.81 93.18 183.38 96.39C183.94 99.53 184.71 102.64 185.7 105.68C186.17 107.13 186.73 109.03 187.72 110.41C188.4 112.93 189.2 115.47 190.38 117.79C191.29 119.58 191.71 121.69 192.57 123.55C193.17 124.84 194.14 125.99 195.54 126.41C196.89 126.81 198.34 126.75 199.73 126.67C202.71 126.49 206.79 125.85 208.65 123.07C209.95 121.09 209.01 118.78 207.82 117.12Z" fill="COLOR_PLACEHOLDER"/>
<path d="M192.19 126.59C188.49 120.82 185.94 114.58 183.88 108.21C181.86 101.83 180.45 95.25 179.84 88.54C179.28 81.85 179.43 74.93 181.54 68.26C183.71 61.88 186.36 55.72 190.09 49.99C191.96 47.14 194.13 44.43 196.79 42.1C198.12 40.94 199.59 39.88 201.24 39.04C202.89 38.21 204.72 37.56 206.8 37.5C208.94 37.45 211.08 38.18 212.74 39.77C213.55 40.56 214.14 41.54 214.51 42.53C214.9 43.52 215.07 44.51 215.16 45.47C215.32 47.4 215.09 49.2 214.74 50.94C214.39 52.67 213.85 54.33 213.29 55.92C211.01 62.29 207.97 68.25 204.49 73.96C202.74 76.81 200.87 79.59 198.77 82.25C197.71 83.6 196.64 84.86 195.33 86.15C194.66 86.79 193.9 87.36 193.12 87.87C192.33 88.35 191.5 88.76 190.76 89.05L190.71 89.07C189.78 89.44 188.73 88.99 188.36 88.06C188.04 87.25 188.34 86.35 189.04 85.89C190.44 84.96 191.54 84.26 192.58 83.25C193.6 82.24 194.67 81.01 195.64 79.77C197.6 77.28 199.4 74.61 201.08 71.87C204.42 66.38 207.38 60.58 209.51 54.59C210.05 53.08 210.51 51.61 210.82 50.13C211.12 48.65 211.29 47.17 211.17 45.82C211.06 44.47 210.64 43.32 209.91 42.62C209.21 41.92 208.01 41.46 206.88 41.5C205.67 41.53 204.31 41.96 203.04 42.61C201.76 43.26 200.54 44.12 199.4 45.12C197.12 47.12 195.14 49.56 193.41 52.19C189.96 57.46 187.37 63.45 185.32 69.48C183.44 75.36 183.26 81.84 183.79 88.18C184.37 94.54 185.73 100.87 187.66 106.99C189.62 113.09 192.11 119.1 195.5 124.39L195.52 124.42C196.12 125.35 195.85 126.59 194.92 127.18C194.03 127.79 192.79 127.52 192.19 126.59Z" fill="black"/>
<path d="M193.38 85.27C196.69 90.85 204.41 114.95 209.68 120.97" stroke="black" stroke-width="4" stroke-miterlimit="10" stroke-linecap="round" stroke-linejoin="round"/>
<path d="M244.6 112.57C246.02 104.44 246.01 90.06 244.6 82.5" stroke="black" stroke-width="4" stroke-miterlimit="10" stroke-linecap="round" stroke-linejoin="round"/>
<path d="M247.31 114.3C243.01 113.93 238.63 113.91 233.72 114.16C232.24 114.24 230.75 114.33 229.26 114.45" stroke="black" stroke-width="4.24" stroke-miterlimit="10" stroke-linecap="round" stroke-linejoin="round"/>
</svg>
