<svg width="100%" height="100%" viewBox="0 0 450 450" fill="none" xmlns="http://www.w3.org/2000/svg" style="display: block;">

<path d="M276.4 69.13C279.57 83.23 242.71 93.2299 214.8 97.8399C186.89 102.45 148.99 105.64 145.91 92.7099C143.01 80.5699 162.21 62.87 206.8 55.36C240.18 49.72 273.5 56.25 276.4 69.13ZM163.08 89.2199C168.65 91.8999 187.59 90.14 211.81 86.15C236.03 82.16 255.55 77.56 259.96 73.24C258.22 67.43 231.29 66.5 209.94 70.03C188.58 73.54 165.96 80.4599 163.08 89.2199Z" fill="COLOR_PLACEHOLDER"/>
<path d="M206.8 55.35C162.2 62.87 143.01 80.56 145.91 92.7C149 105.63 186.9 102.44 214.8 97.83C242.71 93.22 279.56 83.22 276.4 69.12C273.5 56.25 240.18 49.72 206.8 55.35Z" stroke="#523225" stroke-width="4" stroke-miterlimit="10" stroke-linecap="round" stroke-linejoin="round"/>
<path d="M163.08 89.22C168.65 91.9 187.59 90.1401 211.81 86.1501C236.03 82.1601 255.55 77.56 259.96 73.24C258.22 67.43 231.29 66.5001 209.94 70.0301C188.58 73.5401 165.96 80.46 163.08 89.22Z" stroke="#523225" stroke-width="4" stroke-miterlimit="10" stroke-linecap="round" stroke-linejoin="round"/>
</svg>
