<svg width="100%" height="100%" viewBox="0 0 450 450" fill="none" xmlns="http://www.w3.org/2000/svg" style="display: block;">
<path d="M290.01 121.59C302.44 106.9 308.48 88.3301 311.16 74.3101C314.12 58.8501 313.25 37.6401 308.72 22.6001C305.07 42.5201 284.6 83.9701 265 114.71L290.01 121.59Z" 
fill="COLOR_PLACEHOLDER"/>
<path d="M265 114.71C284.6 83.9701 305.07 42.5201 308.72 22.6001C313.25 37.6401 314.12 58.8601 311.16 74.3101C308.48 88.3401 302.44 106.9 290.01 121.59" stroke="black" stroke-width="4" stroke-miterlimit="10" stroke-linecap="round" stroke-linejoin="round"/>
<path d="M208.63 145.81C215.21 136.99 221.01 120.29 226.75 100.58C233.37 77.84 234.33 65.58 237.04 46.17C238.28 37.27 239.5 19.44 238.97 12.71C244.9 18.16 253.82 37.82 257.38 63.33C259.92 81.49 258.22 92.5 255.05 105.55C251.26 121.14 239.92 137.17 229.66 145.5C220.91 147.48 214.03 147.19 208.63 145.81Z" 
fill="COLOR_PLACEHOLDER"/>
<path d="M222.77 140.02C225.44 140.35 231.11 141.1 236.15 139.34" stroke="black" stroke-width="3" stroke-miterlimit="10" stroke-linecap="round" stroke-linejoin="round"/>
<path d="M225 132.75C229.74 133.05 236.49 133.49 241.63 132.75" stroke="black" stroke-width="3" stroke-miterlimit="10" stroke-linecap="round" stroke-linejoin="round"/>
<path d="M231.95 125.12C235.41 125.72 240.93 125.71 243.5 125.12" stroke="black" stroke-width="3" stroke-miterlimit="10" stroke-linecap="round" stroke-linejoin="round"/>
<path d="M249.04 117.3C245.19 118.58 237.98 118.58 234.82 117.3" stroke="black" stroke-width="3" stroke-miterlimit="10" stroke-linecap="round" stroke-linejoin="round"/>
<path d="M239.31 109.7C241.74 110.33 245.42 110.88 248.56 110.25" stroke="black" stroke-width="3" stroke-miterlimit="10" stroke-linecap="round" stroke-linejoin="round"/>
<path d="M245.53 102.46C247.6 102.76 250.07 102.76 252.24 102.46" stroke="black" stroke-width="3" stroke-miterlimit="10" stroke-linecap="round" stroke-linejoin="round"/>
<path d="M245.14 93.6802C245.14 93.6802 248.55 94.5702 250.4 94.1202" stroke="black" stroke-width="3" stroke-miterlimit="10" stroke-linecap="round" stroke-linejoin="round"/>
<path d="M247.54 86.0498C248.57 86.2998 250.56 86.2698 251.66 86.0498" stroke="black" stroke-width="3" stroke-miterlimit="10" stroke-linecap="round" stroke-linejoin="round"/>
<path d="M220.48 146.91C223.97 144.86 230.35 136.29 237.21 129.07C242.89 123.1 252.94 101.88 256.31 96.8999L247.76 123.04L241.92 133.15L232.7 142.83L228.25 146.91H220.48Z" fill="black"/>
<path d="M207.83 146.02C210.83 141.39 212.96 136.08 215 130.77C217 125.42 218.8 119.97 220.5 114.46C222.19 108.96 223.82 103.4 225.39 97.8699C226.95 92.3399 228.36 86.7799 229.54 81.1699C231.93 69.9699 233.22 58.5299 234.79 47.0299C235.57 41.3699 236.1 35.6499 236.51 29.9199C236.71 27.0499 236.87 24.1899 236.97 21.3299C237.07 18.4799 237.13 15.5899 236.96 12.8799V12.6599C236.96 11.5699 237.84 10.6899 238.93 10.6899C239.46 10.6899 239.95 10.9099 240.31 11.2499C242.85 13.7199 244.5 16.4499 246.08 19.2199C247.64 21.9999 248.95 24.8599 250.15 27.7599C252.54 33.5599 254.5 39.5099 256.01 45.5599C257.54 51.6099 258.7 57.7399 259.53 63.9199C260.35 70.0999 260.81 76.3799 260.59 82.6699C260.4 88.9699 259.46 95.2299 258.11 101.31C257.77 102.83 257.42 104.34 257.05 105.85C256.63 107.38 256.25 108.95 255.71 110.44C254.73 113.47 253.48 116.37 252.13 119.22C249.39 124.89 246.13 130.27 242.38 135.3C240.47 137.79 238.54 140.27 236.33 142.52C234.16 144.8 231.85 146.97 229.28 148.86C228.61 149.35 227.67 149.21 227.18 148.54C226.73 147.92 226.82 147.07 227.37 146.55L227.39 146.53C231.75 142.47 235.66 137.84 239.19 132.95C240.97 130.51 242.62 127.99 244.21 125.42C245.74 122.82 247.22 120.19 248.5 117.47C249.78 114.76 250.96 111.99 251.87 109.16C252.38 107.75 252.71 106.32 253.11 104.89C253.47 103.41 253.81 101.92 254.14 100.44C255.44 94.5099 256.31 88.5499 256.49 82.5299C256.69 76.5199 256.23 70.4799 255.43 64.4699C254.61 58.4499 253.46 52.4799 251.96 46.5999C250.46 40.7199 248.64 34.9199 246.36 29.3299C245.22 26.5399 243.98 23.7899 242.54 21.1899C241.12 18.6099 239.49 16.0399 237.62 14.1999L240.97 12.5699C241.18 15.6299 241.12 18.5299 241.05 21.4599C240.96 24.3799 240.82 27.2899 240.64 30.1899C240.26 35.9899 239.81 41.8099 238.97 47.5999C237.38 59.0099 236.05 70.5899 233.58 82.0199C232.36 87.7299 230.92 93.3799 229.33 98.9799C227.73 104.57 226.09 110.1 224.37 115.66C222.62 121.2 220.86 126.75 218.69 132.19C217.61 134.91 216.44 137.62 215.07 140.25C213.72 142.88 212.19 145.47 210.25 147.82C209.72 148.46 208.78 148.55 208.14 148.02C207.55 147.53 207.43 146.68 207.84 146.05L207.83 146.02Z" fill="black"/>
<path d="M228.35 147.68C220.85 148.63 211.74 148.38 209.03 146.91" stroke="black" stroke-width="3" stroke-miterlimit="10" stroke-linecap="round" stroke-linejoin="round"/>
<path d="M282.94 113.64C286.12 115.23 290.21 116.65 293.73 116.83" stroke="black" stroke-width="3" stroke-miterlimit="10" stroke-linecap="round" stroke-linejoin="round"/>
<path d="M288.34 108.89C290.42 109.98 294.2 111.15 297.47 111.18" stroke="black" stroke-width="3" stroke-miterlimit="10" stroke-linecap="round" stroke-linejoin="round"/>
<path d="M292.1 103.05C294.08 103.99 296.99 104.61 299.54 104.73" stroke="black" stroke-width="3" stroke-miterlimit="10" stroke-linecap="round" stroke-linejoin="round"/>
<path d="M293.46 95.0801C294.59 95.6401 296.57 96.5901 298.17 96.7701" stroke="black" stroke-width="3" stroke-miterlimit="10" stroke-linecap="round" stroke-linejoin="round"/>
<path d="M298.17 88.48C298.91 88.85 300.2 89.46 301.25 89.59" stroke="black" stroke-width="3" stroke-miterlimit="10" stroke-linecap="round" stroke-linejoin="round"/>
<path d="M282.94 118.55C285.69 117.06 292.81 108.35 295.37 104.14L299.53 105.95L289.83 120.28L282.94 118.55Z" fill="black"/>
<path d="M292.32 122.71C286.98 120.24 280.58 117.94 273.27 116.24C269.49 115.36 265.95 114.76 262.39 114.41" stroke="black" stroke-width="4.24" stroke-miterlimit="10" stroke-linecap="round" stroke-linejoin="round"/>
</svg>
