<svg width="100%" height="100%" viewBox="0 0 450 450" fill="none" xmlns="http://www.w3.org/2000/svg" style="display: block;">
<path d="M313.75 100.41L327.88 98.6396L339.27 103.33L340.67 108.15L323.72 105.76L306.37 111.53L313.75 100.41Z" 
fill="COLOR_PLACEHOLDER"/>
<path d="M297.19 118.25C300.21 115.19 303.62 112.57 307.3 110.43C310.97 108.27 314.9 106.58 319.01 105.37C321.09 104.78 323.13 104.33 325.37 104.06C327.59 103.85 329.79 103.93 331.93 104.17C336.22 104.69 340.32 105.82 344.28 107.28L341.81 110.08C340.66 108.08 339.11 106.27 337.26 104.74C335.41 103.24 333.24 101.95 330.93 101.2C328.52 100.43 326 99.97 323.47 99.82C320.94 99.67 318.38 99.88 315.71 100.14C314.89 100.22 314.15 99.62 314.07 98.79C313.99 97.97 314.59 97.23 315.42 97.15C315.44 97.15 315.47 97.15 315.49 97.14H315.5C318.12 97.02 320.85 96.79 323.61 96.92C326.37 97.03 329.11 97.46 331.79 98.12C334.58 98.8 337.22 99.96 339.59 101.64C341.95 103.31 344.02 105.53 345.34 108.22L345.35 108.25C345.84 109.25 345.43 110.45 344.43 110.94C343.92 111.19 343.36 111.2 342.86 111.03C339.14 109.65 335.29 108.6 331.44 108.14C329.52 107.92 327.6 107.86 325.74 108.04C323.91 108.25 321.94 108.68 320.08 109.21C312.58 111.43 305.49 115.49 300.02 121.05L300.01 121.06C299.23 121.85 297.97 121.86 297.18 121.08C296.43 120.3 296.42 119.04 297.19 118.25Z" fill="black"/>
<path d="M167.64 173.38L173.25 153.21L189.13 135.37L216.45 121.42L239.36 116.38L267.64 121.69L289.48 126.13L292.85 125.31L304.27 112.19L322.28 93.8701L339.58 92.7401L332.24 86.8101L318.9 86.3501L328.14 75.5801L335.25 70.6001L344.86 56.2101L335.47 58.8201L311.01 62.2001L314.12 52.1701L316.38 37.3701L297.88 48.2001L290.54 56.4401L291.34 34.1601L283.81 39.9601L274.8 54.9501L271.31 39.8201L267.39 30.7001L256.54 42.0601L244.96 55.6201L239.57 28.3101L232.34 37.5701L226.19 48.0901L225.33 55.0501L208.35 39.9101L204.3 57.8901L195.25 43.2901L193.22 61.2701L171.55 52.5201L178.31 71.1501L177.56 83.3901L159.16 66.8901L156.01 78.2601L160.33 100.01L153.11 98.8401L142.11 96.2001L151.95 124.38L139.41 128.14L129.72 135.36L146.3 140.55L146.82 144.04L136.72 150.82L128.55 152.22L139.96 158.63L152.76 161.08L144.19 168.15L142.45 171.77L156.74 171.31L167.64 173.38Z" 
fill="COLOR_PLACEHOLDER"/>
<path d="M338.85 95.4201C338.29 94.1801 337.34 92.9201 336.26 91.8401C335.16 90.7601 333.92 89.8001 332.57 89.0501C331.23 88.3101 329.74 87.7501 328.3 87.4401C326.77 87.1901 325.06 87.0201 323.42 86.9601C320.11 86.8201 316.81 87.1001 313.66 87.9101C310.52 88.7501 307.55 90.1501 304.99 92.1401C304.34 92.6501 303.39 92.5301 302.89 91.8801C302.39 91.2401 302.5 90.3101 303.12 89.8001C305.96 87.4801 309.3 85.8001 312.8 84.7801C316.31 83.7901 319.94 83.4001 323.52 83.4601C325.32 83.4801 327.06 83.6001 328.94 83.8601C330.88 84.2101 332.67 84.8501 334.36 85.7301C336.05 86.6101 337.59 87.7401 338.98 89.0401C340.35 90.3701 341.59 91.8501 342.51 93.7301C343 94.7201 342.59 95.9201 341.59 96.4101C340.59 96.9001 339.4 96.4901 338.91 95.4901C338.9 95.4801 338.9 95.4601 338.89 95.4501L338.85 95.4201Z" fill="black"/>
<path d="M295.32 121.6L303.71 109.93C306.56 106.05 309.49 102.15 313.04 98.6499C314.82 96.9099 316.77 95.2799 318.97 93.9299C321.15 92.5699 323.64 91.5799 326.21 91.0599C328.79 90.5299 331.44 90.5199 333.98 90.8599C336.53 91.1999 338.98 91.8699 341.34 92.7099C342.38 93.0799 342.93 94.2199 342.56 95.2599C342.19 96.2999 341.05 96.85 340.01 96.48C340 96.48 340 96.4699 339.99 96.4699L339.97 96.4599C335.7 94.8699 331.19 93.9199 326.92 94.7399C322.64 95.4799 318.8 98.0099 315.47 101.17C312.13 104.35 309.2 108.09 306.31 111.87L297.72 123.39C297.22 124.05 296.28 124.19 295.62 123.7C294.96 123.21 294.82 122.29 295.3 121.62L295.32 121.6Z" fill="black"/>
<path d="M277.65 124.43C280.07 120.91 286.8 105.86 288.75 98.6396" stroke="black" stroke-width="3" stroke-miterlimit="13.2283" stroke-linecap="round" stroke-linejoin="round"/>
<path d="M150.63 141.34C145.83 140.38 136.02 134.62 127.72 135.56C133.83 127.9 146.41 123.41 153.59 124.31" stroke="black" stroke-width="4" stroke-miterlimit="13.2283" stroke-linecap="round" stroke-linejoin="round"/>
<path d="M167.45 173.33C167.45 173.33 151.51 169.77 138.68 173.33C144.43 167.58 149.11 162.44 155.93 161.06C138.68 159.34 131.49 156.6 126.46 152.47C140.29 150.41 147.26 142.57 154.81 138.95" stroke="black" stroke-width="4" stroke-miterlimit="13.2283" stroke-linecap="round" stroke-linejoin="round"/>
<path d="M167.64 175.75C169.17 152.77 184.4 133.43 208.28 124.24C217.05 120.85 225.49 117.73 236.11 117.1C247.32 116.44 260.22 117.98 275.75 123.97C279.42 125.01 284.66 126.17 288.99 126.03C293.32 125.9 295.44 123.97 296.53 122.5" stroke="black" stroke-width="4" stroke-miterlimit="13.2283" stroke-linecap="round" stroke-linejoin="round"/>
<path d="M292.69 55.3897C294.99 52.4097 296.65 50.8297 302.33 47.0997C307.49 43.7097 311.85 41.2097 317.16 36.7397C316.57 46.6497 311.92 62.6597 304.84 69.9797" stroke="black" stroke-width="4" stroke-miterlimit="13.2283" stroke-linecap="round" stroke-linejoin="round"/>
<path d="M291.34 77.7198C293.57 60.2098 289.49 41.9998 292.69 33.5298C284.5 37.1198 275.12 51.0998 273.61 59.1298" stroke="black" stroke-width="4" stroke-miterlimit="13.2283" stroke-linecap="round" stroke-linejoin="round"/>
<path d="M308.86 61.3397C312.22 60.0697 315.56 59.4897 318.85 58.9597C322.14 58.4497 325.39 58.0497 328.61 57.5697C331.82 57.0897 334.98 56.5297 338.01 55.6897C341.02 54.8397 343.92 53.6997 346.23 51.9597L346.38 51.8597C347.3 51.2597 348.53 51.5097 349.13 52.4297C349.52 53.0297 349.55 53.7597 349.27 54.3597C347.63 57.9097 345.61 61.3897 343.09 64.4297C340.6 67.4897 337.8 70.1997 334.91 72.7297C332.02 75.2597 329.04 77.6397 326.04 79.9797C323.04 82.3297 320.02 84.6097 316.99 86.8897C316.33 87.3897 315.39 87.2597 314.89 86.5997C314.4 85.9497 314.52 85.0297 315.15 84.5197L315.16 84.5097C321.08 79.8097 327.04 75.1297 332.57 70.1097C335.32 67.5897 337.92 64.9497 340.15 62.0797C342.41 59.2297 344.15 56.0597 345.62 52.7097L348.67 55.1097C345.71 57.3297 342.37 58.5797 339.09 59.5197C335.79 60.4397 332.48 61.0197 329.21 61.5097C325.93 61.9997 322.67 62.3997 319.48 62.8997C316.3 63.4097 313.13 63.9897 310.35 65.0497L310.29 65.0697C309.26 65.4597 308.1 64.9397 307.71 63.9097C307.31 62.8897 307.83 61.7297 308.86 61.3397Z" fill="black"/>
<path d="M156.48 127.74C146.96 117.48 142.28 102.67 142.28 94.0801C151.52 100.27 166.36 101.3 170.68 102.33" stroke="black" stroke-width="4" stroke-miterlimit="13.2283" stroke-linecap="round" stroke-linejoin="round"/>
<path d="M160.34 99.9998C152.58 73.0498 160.57 66.0298 160.57 66.0298C163.66 74.8798 182.19 85.9198 182.19 85.9198" stroke="black" stroke-width="4" stroke-miterlimit="13.2283" stroke-linecap="round" stroke-linejoin="round"/>
<path d="M228.61 64.2899C219.82 46.3499 236.83 32.5899 242.09 26.6099C239.34 39.0699 244.1 57.3199 245.81 59.4999" stroke="black" stroke-width="4" stroke-miterlimit="13.2283" stroke-linecap="round" stroke-linejoin="round"/>
<path d="M226.19 55.61C221.85 52.87 211.9 43.56 209.48 39.21C204.74 47.01 204.07 58.65 205.73 72" stroke="black" stroke-width="4" stroke-miterlimit="13.2283" stroke-linecap="round" stroke-linejoin="round"/>
<path d="M244.04 54.9397C252.4 44.3897 263.87 39.9797 267.33 29.4297C271.05 33.4797 275.35 56.1997 272.91 64.2897" stroke="black" stroke-width="4" stroke-miterlimit="13.2283" stroke-linecap="round" stroke-linejoin="round"/>
<path d="M218.94 119.97C216.67 110.13 213.49 100.27 207.79 85.25" stroke="black" stroke-width="3" stroke-miterlimit="13.2283" stroke-linecap="round" stroke-linejoin="round"/>
<path d="M178.43 81.2398C179.65 76.3098 176.14 58.5698 171.55 52.5098C178.31 53.2498 192.17 60.0698 197.61 66.0398" stroke="black" stroke-width="4" stroke-miterlimit="13.2283" stroke-linecap="round" stroke-linejoin="round"/>
<path d="M160.97 117.48C168.52 127.74 180.95 136.55 185.16 138.67" stroke="black" stroke-width="3" stroke-miterlimit="13.2283" stroke-linecap="round" stroke-linejoin="round"/>
<path d="M180.48 121.04C182.91 123.61 189.78 130.1 192.78 132.44" stroke="black" stroke-width="3" stroke-miterlimit="13.2283" stroke-linecap="round" stroke-linejoin="round"/>
<path d="M229.3 117.98C228.6 112.56 228.02 105.98 226.01 99.8198" stroke="black" stroke-width="3" stroke-miterlimit="13.2283" stroke-linecap="round" stroke-linejoin="round"/>
<path d="M203.44 132.55C206.71 131.35 210.67 130.2 215.58 129.93C212.01 135.19 208.37 141.86 206.41 146.28C206.41 146.28 212.59 144.85 217.34 144.49C213.19 151.55 205.65 165.76 200.8 173.33C200.88 165.4 204.21 156.57 205.77 152.43C202.21 153.2 200.78 153.41 198.23 153.7C199.51 144.89 203.44 132.55 203.44 132.55Z" fill="#FFD500" stroke="black" stroke-width="3" stroke-miterlimit="13.2283" stroke-linecap="round" stroke-linejoin="round"/>
<path d="M193.75 62.6101C192.72 55.5101 193.1 46.8501 195.73 42.3301C196.86 48.1701 202.53 53.5501 205.03 55.6201" stroke="black" stroke-width="4" stroke-miterlimit="13.2283" stroke-linecap="round" stroke-linejoin="round"/>
<path d="M256.72 117.98C256.98 114.22 257.85 96.1796 256.72 87.8896" stroke="black" stroke-width="3" stroke-miterlimit="13.2283" stroke-linecap="round" stroke-linejoin="round"/>
</svg>
