<svg width="450" height="450" viewBox="0 0 450 450" fill="none" xmlns="http://www.w3.org/2000/svg">
<path d="M246.62 113.28C250.23 95.2698 255.88 81.2298 269.6 67.5198C278.95 58.1798 294.61 55.0098 303.55 58.5998C317.41 64.1698 320.58 78.3498 321 87.6898C321.34 95.3698 309.18 98.3198 307.95 88.3198C307.14 81.7298 304.6 74.7498 298.67 73.1398C288.82 70.4798 280.88 75.6698 274.05 83.6198C268.96 89.5498 264.47 98.5398 260.39 111.3" fill="#FB7676"/>
<path d="M246.62 113.28C250.23 95.2698 255.88 81.2298 269.6 67.5198C278.95 58.1798 294.61 55.0098 303.55 58.5998C317.41 64.1698 320.58 78.3498 321 87.6898C321.34 95.3698 309.18 98.3198 307.95 88.3198C307.14 81.7298 304.6 74.7498 298.67 73.1398C288.82 70.4798 280.88 75.6698 274.05 83.6198C268.96 89.5498 264.47 98.5398 260.39 111.3" stroke="black" stroke-width="4" stroke-miterlimit="10" stroke-linecap="round" stroke-linejoin="round"/>
<path d="M261.98 112.57C255.59 112.48 249.11 112.95 243.25 113.64" stroke="black" stroke-width="4" stroke-miterlimit="10" stroke-linecap="round" stroke-linejoin="round"/>
<path d="M221.82 117.12C221.61 116.83 221.42 116.55 221.28 116.29C220.21 114.29 219.22 112.25 218.29 110.18C216.42 106.05 214.74 101.83 212.89 97.69C207.33 85.3 205.25 65.52 217.36 56.14C219.68 54.35 222.39 53.09 225.25 52.44C227.58 51.91 231.39 51.25 233.58 52.49C236.63 54.21 238.62 57.31 240.3 60.37C241.98 63.44 243.54 66.6799 246.09 69.0599C248.65 71.4499 252.55 72.8 255.71 71.32C256.31 71.04 256.88 70.6499 257.29 70.1299C257.58 69.7599 257.78 69.33 257.94 68.9C258.78 66.57 258.35 64.24 257.6 62.01C256.89 59.93 256.87 57.73 256.2 55.65C255.8 54.42 255.11 53.3 254.42 52.2C253.34 50.47 252.26 48.7399 251.17 47.0099C250.15 45.3699 249.11 43.7199 247.76 42.3499C245.12 39.6699 241.48 38.24 237.97 36.9C236.07 36.17 233.85 35.51 231.84 35.22C227.62 34.62 223.28 34.02 219.13 35C217.32 35.43 215.58 36.1499 213.93 37.0099C206.23 41.02 200.22 48.17 197.61 56.46C196.42 60.23 195.92 64.1699 195.53 68.0999C195.06 72.8199 194.76 77.6 195.36 82.33C195.65 84.57 196.27 86.68 196.44 88.93C196.63 91.43 196.95 93.9199 197.39 96.3899C197.95 99.5299 198.72 102.64 199.71 105.68C200.18 107.13 200.74 109.03 201.73 110.41C202.41 112.93 203.21 115.47 204.39 117.79C205.3 119.58 205.72 121.69 206.58 123.55C207.18 124.84 208.15 125.99 209.55 126.41C210.9 126.81 212.35 126.75 213.74 126.67C216.72 126.49 220.8 125.85 222.66 123.07C223.95 121.09 223 118.78 221.82 117.12Z" fill="#FB7676"/>
<path d="M223.68 120.98C218.41 114.96 208.71 88.5801 208.92 78.2401C209.16 66.5501 212.48 58.2601 217.47 54.9201C220.79 52.7001 226.08 50.5101 232.44 53.5801C240.13 57.3001 240.4 61.9701 244.3 69.0201C246.54 73.0801 252.97 73.2101 256.16 70.6701C258.89 68.5001 259.44 64.0401 258.59 61.0701C256.11 52.3501 248.54 42.0601 238.66 37.9601C229.5 34.1701 221.37 34.5001 214.42 37.2601C206.45 40.4401 199.81 46.8801 196.2 60.4701C190.98 80.1301 199.4 112.5 207.87 125.49" stroke="black" stroke-width="4" stroke-miterlimit="10" stroke-linecap="round" stroke-linejoin="round"/>
</svg>
