<svg width="100%" height="100%" viewBox="0 0 450 450" fill="none" xmlns="http://www.w3.org/2000/svg" style="display: block;">
<path d="M286.82 86.2698L300.39 97.9698L304.11 106.94L299.01 112.84L288.5 108.94L276.95 99.1998L264.16 94.8898L251.63 102.71L241.15 114.15L233.72 114.16L229.49 112.31L237.05 97.9698L250.58 86.2698L266.53 80.3398L286.82 86.2698Z" fill="COLOR_PLACEHOLDER"/>
<path d="M178.03 201.52L169.48 197.3L164.93 185.06L166.51 172.91L173.48 164.99H182.58L189.55 172.91L191.13 185.06L186.58 197.3L178.03 201.52Z" fill="#8A8899"/>
<path d="M173.69 173.35L176.58 173.16L181.97 179.07L181.42 188.85L178.03 192.09L175.9 190.62L176.39 181.97L173.69 173.35Z" fill="#818181"/>
<path d="M176.24 181.05C177.71 189.01 174.18 196.14 168.44 197.4C161.17 199 156.05 193.45 154.58 185.49C153.11 177.53 155.44 170.1 163.11 168.57C168.88 167.43 174.77 173.09 176.24 181.05Z" fill="#CCCCCC"/>
<path d="M220.13 233.51L203.59 230.18L192.31 222.44L184.98 211.85L180.37 200.24L185.58 198.61L191.92 214.08L205.29 224.43L221.65 229.8L220.13 233.51Z" fill="#8A8899"/>
<path d="M212.92 234.75L221.33 234.09L221.36 229.18L214.32 225.96L220.72 221.44L236 225L238.84 231.03L237.16 238.08L229.8 241.93L219.34 241.43L212.92 234.75Z" fill="#45423B"/>
<path d="M135.41 140.93L128.53 139.52L125.71 131.16L136.26 113.99L149.16 103.1L165.86 95.4497L187.08 97.8997L199.7 107.45L209.67 120.42C207.67 127.34 198.87 130.69 196.75 127.97L188.28 115.26L173.69 110.04L155.84 118.86L135.41 140.93Z" fill="COLOR_PLACEHOLDER"/>
<path d="M176.24 181.05C177.71 189.01 174.18 196.14 168.44 197.4C161.17 199 156.05 193.45 154.58 185.49C153.11 177.53 155.44 170.1 163.11 168.57C168.88 167.43 174.77 173.09 176.24 181.05Z" stroke="black" stroke-width="4" stroke-miterlimit="10" stroke-linecap="round" stroke-linejoin="round"/>
<path d="M172.86 173.17C176.75 171.04 181.57 174.33 182.3 180.92C182.99 187.08 181.22 193.3 174.59 192.31" stroke="black" stroke-width="3" stroke-miterlimit="10" stroke-linecap="round" stroke-linejoin="round"/>
<path d="M168.53 169.41C169.46 165.86 173.32 162.62 178.96 163.56C186.58 164.83 190.04 174.2 190.54 181.47C191.03 188.74 188.92 197.21 181.79 199.82C176.58 201.73 172.97 199.57 170.5 196.66" stroke="black" stroke-width="4" stroke-miterlimit="10" stroke-linecap="round" stroke-linejoin="round"/>
<path d="M185.4 197.67C186.87 205.89 192.15 214.22 198.37 219.63C205.69 226 212.56 227.51 218.61 228.43C220.25 228.68 221.89 229.81 221.62 231.72C221.31 233.82 219.43 234.34 217.43 234.08C209.53 233.06 198.64 230 190.98 222.03C185.1 215.91 180.8 208.33 179.88 200.35" stroke="black" stroke-width="3.6" stroke-miterlimit="10" stroke-linecap="round" stroke-linejoin="round"/>
<path d="M213.43 226.95C214.33 224.05 217.34 221.47 221.67 221.37C226 221.28 239.55 221.79 238.89 233.09C238.37 242.01 227.82 244.41 217.47 239.74C213.33 237.87 212.75 235.01 212.8 233.24" stroke="black" stroke-width="3.6" stroke-miterlimit="10" stroke-linecap="round" stroke-linejoin="round"/>
<path d="M228.86 114.48C231.73 102.55 246.87 82.4396 265.04 81.4996C283.21 80.5596 298.6 95.4396 301.85 99.6796C303.46 101.77 306.01 106.46 302.2 110.97C299.67 113.97 293.66 113.68 290.41 110.76C287.66 108.29 275.59 95.3996 267.05 95.1596C257.24 94.8896 248.2 105 243.26 113.99" stroke="black" stroke-width="4" stroke-miterlimit="10" stroke-linecap="round" stroke-linejoin="round"/>
<path d="M249.27 114.49C244.33 113.94 239.38 113.86 233.72 114.15C232.11 114.23 230.49 114.34 228.87 114.47" stroke="black" stroke-width="4.24" stroke-miterlimit="10" stroke-linecap="round" stroke-linejoin="round"/>
<path d="M164.037 191.381C165.777 190.919 166.662 188.563 166.013 186.118C165.364 183.674 163.427 182.066 161.687 182.528C159.947 182.99 159.062 185.347 159.711 187.791C160.36 190.236 162.297 191.843 164.037 191.381Z" fill="white"/>
<path d="M209.67 120.43C205.58 113.51 193.24 96.66 177.82 95.16C164.73 93.89 156.82 96.9 144.26 106.75C140.69 109.55 132.21 118.32 128.35 124.84C124.97 130.55 124.62 136.81 128.53 139.52C135.45 144.32 142.11 135.69 145.34 130.76C151.65 121.13 163.81 110.47 173.69 110.04C183.57 109.62 194.14 120.84 196.97 127.19" stroke="black" stroke-width="4" stroke-miterlimit="10" stroke-linecap="round" stroke-linejoin="round"/>
<path d="M253.77 217.5C258.12 215.54 278.54 220.13 281.67 226.46C284.8 232.79 283.49 241.34 274.3 240.22C265.11 239.1 255.15 239.19 253.2 237.4C251.26 235.61 241.48 227.05 242.91 224.44C244.34 221.83 252.1 218.25 253.77 217.5Z" fill="BODY_PLACEHOLDER"/>
<path d="M282.5 237.84C276.86 236.74 271.36 233.11 265.69 232.34C263.18 232 259.55 232.12 256.73 233.69" stroke="black" stroke-width="4.24" stroke-miterlimit="10" stroke-linecap="round" stroke-linejoin="round"/>
<path d="M250.55 230.2C249.04 233.31 249.61 237.92 253.47 239.14" stroke="black" stroke-width="3" stroke-miterlimit="10" stroke-linecap="round" stroke-linejoin="round"/>
</svg>
