<svg width="100%" height="100%" viewBox="0 0 450 450" fill="none" xmlns="http://www.w3.org/2000/svg" style="display: block;">
<path opacity="0.2" d="M178.61 221.59C188.49 227.4 200.5 220.28 203.55 213.56C208.63 202.36 208.09 192.62 205.64 188.99C203.19 185.36 196.98 186.07 194.32 186.6C193.66 189.43 178.61 221.59 178.61 221.59Z" 
fill="COLOR_PLACEHOLDER"/>
<path opacity="0.4" d="M179.83 219.59C185.2 220.76 188.96 220.43 193.19 216.77C196.97 213.51 202.53 201.8 203.03 196.02C203.88 186.05 199.66 187.29 198.37 185.63L191.17 186.42C190.47 188.67 174.08 218.33 179.83 219.59Z" 
fill="COLOR_PLACEHOLDER"/>
<path d="M180.77 219.17L171.74 219.35L165.18 216.98L154.5 195.78L150.22 174.28L147.74 152.33L142.6 136.89L159.26 140.54L177.6 154.54L188.11 168.15L197.75 187.35C198.64 191.15 199.15 195.38 195.76 200.25C193.71 203.2 191.87 206.59 189.9 211.03C188.02 215.26 188.11 217.47 180.77 219.17Z" 
fill="COLOR_PLACEHOLDER"/>
<path d="M197.75 187.35C193.9 176.19 187.65 166.32 180.9 159.03C172.99 150.48 152.24 133.24 142.6 136.89C149.09 147.17 147.79 159.07 150.22 174.28C152.17 186.5 154.67 192.59 156.71 199.97C158.28 205.64 162.54 213.66 167.86 217.33C173.37 221.13 179.01 220.74 183.46 219.31" stroke="black" stroke-width="4" stroke-miterlimit="10" stroke-linecap="round" stroke-linejoin="round"/>
<path d="M171.91 196.34C174.64 201.05 183.5 200.29 182 189.64C180.49 178.99 168.09 156.97 158.09 153.23C156.88 156.81 159.03 163.96 158.47 169.25" stroke="black" stroke-width="4" stroke-miterlimit="10" stroke-linecap="round" stroke-linejoin="round"/>
<path d="M179.27 180.58C174.6 181.43 170.68 184.57 169.94 187.77" stroke="black" stroke-width="4" stroke-miterlimit="10" stroke-linecap="round" stroke-linejoin="round"/>
</svg>
