<svg width="100%" height="100%" viewBox="0 0 450 450" fill="none" xmlns="http://www.w3.org/2000/svg" style="display: block;">

<path d="M237.57 112.83L243.8 111.84L271.67 120.17L276.95 122.09L277.2 109.77L273.94 88.3401L268.65 70.95H259.55L245.79 90.3601L231.7 109.77L233.68 113.12L237.57 112.83Z" fill="COLOR_PLACEHOLDER"/>
<path d="M254.48 97L257.5 85.77L263.57 78.05L267.11 86.4299L270 110.23L268.15 117.78L248.81 114.15L254.48 97Z" fill="#FF91AC"/>
<path d="M232.13 114.15C232.13 114.15 226.91 98.9401 223.47 95.2001L210.71 70.7601C204.63 67.7001 203.03 68.6701 197.59 69.7201C192.17 70.7701 185.14 82.9801 182.35 87.7101C179.42 92.6801 173.89 112.43 172.2 124.39C171.36 130.3 168.63 143.02 170.35 147.53C172.75 149.22 178.62 148.43 183.2 146.58C188.72 144.35 192.15 142.07 193 140.17C191.3 135.46 190.08 127.51 190.86 121.7C191.96 113.49 192.39 108.77 196.37 104.43C198.86 104.77 202.59 103.26 204.57 104.11C207.44 105.35 210.41 107.16 212.53 109.28C214.53 111.28 216.69 114.34 217.91 115.83C218.85 116.97 221.93 120.43 221.93 120.43C224.19 120.95 225.83 120.83 227.95 119.87C230.11 118.87 231.99 116.14 232.13 114.15Z" fill="COLOR_PLACEHOLDER"/>
<path d="M221.25 117.88C220.37 123.11 212.88 127.36 212.14 127.89C206.81 133.4 195.62 136.79 191.74 136.12L189.39 131.62L191.53 105.26L199.67 81.75L205.06 80.45L213.6 97.1599L221.25 117.88Z" fill="#FF91AC"/>
<path d="M191.26 134.52C194.05 133.98 196.76 133.31 199.38 132.4C201.99 131.47 204.52 130.31 207.02 129C209.52 127.69 211.79 126.27 213.74 124.49C215.7 122.74 217.28 120.55 218.88 118.18C219.37 117.46 220.35 117.26 221.07 117.75C221.72 118.19 221.94 119.02 221.63 119.71C220.42 122.4 218.83 125.17 216.55 127.42C214.31 129.68 211.6 131.36 208.94 132.7C206.28 134.06 203.48 135.26 200.55 136.09C197.64 136.95 194.63 137.44 191.66 137.65C190.79 137.71 190.04 137.06 189.98 136.19C189.92 135.38 190.48 134.67 191.26 134.52Z" fill="#9F4F64"/>
<path d="M233.02 115.45C228.78 105.73 220.9 88.4599 216.44 80.9699C212.48 74.3199 207.64 67.0799 201.49 67.4699C195.18 67.8799 190.07 76.09 184.14 88.59C181.67 93.81 176.69 106.94 173.62 119.93C171.97 126.94 169.67 141.11 170.34 147.52" stroke="black" stroke-width="4" stroke-miterlimit="10" stroke-linecap="round" stroke-linejoin="round"/>
<path d="M191.7 139.83C189.13 119.72 193.44 100.31 194.69 96.15C196.11 91.43 199.18 79.9802 202.48 79.0602C205.28 78.2802 207.63 82.3101 210.53 89.0001C214.06 97.1501 215.66 102.13 216.34 103.98C217.71 107.74 220.33 113.99 221.96 120.4" stroke="black" stroke-width="4" stroke-miterlimit="10" stroke-linecap="round" stroke-linejoin="round"/>
<path d="M231.29 110.74C235.18 103.4 240.05 96.5399 246.5 87.5099C256.38 73.6699 259.31 69.3199 264.78 69.7699C268.67 70.0999 270.8 74.37 273.09 84.53C275.62 95.78 277.75 113.99 278.47 122.78" stroke="black" stroke-width="4" stroke-miterlimit="10" stroke-linecap="round" stroke-linejoin="round"/>
<path d="M249.38 112.57C252.56 103.28 255.74 92.9201 257.57 87.4701C259.84 80.7101 262.66 77.45 264.13 78.15C266.75 79.39 271.43 105.92 269.07 118.88" stroke="black" stroke-width="3" stroke-miterlimit="10" stroke-linecap="round" stroke-linejoin="round"/>
<path d="M277.67 124.51C275.84 123.9 274.07 123.15 272.28 122.46C270.48 121.78 268.67 121.14 266.83 120.56C263.17 119.4 259.42 118.46 255.65 117.72C251.89 116.98 248.1 116.51 244.28 116.3C242.37 116.19 240.45 116.14 238.52 116.15C237.56 116.15 236.59 116.17 235.63 116.2C234.66 116.25 233.7 116.27 232.7 115.8L232.69 115.79C231.79 115.37 231.4 114.3 231.82 113.4C231.98 113.06 232.22 112.8 232.52 112.62C233.48 112.04 234.48 111.98 235.48 111.94C236.48 111.9 237.48 111.86 238.48 111.84C240.48 111.8 242.5 111.81 244.51 111.9C248.54 112.07 252.57 112.58 256.52 113.37C260.46 114.18 264.34 115.2 268.16 116.45C270.07 117.07 271.96 117.75 273.83 118.49C275.7 119.23 277.55 120.02 279.29 121.05C280.2 121.59 280.5 122.77 279.96 123.68C279.49 124.47 278.54 124.8 277.7 124.52L277.67 124.51Z" fill="black"/>
</svg>
