<svg width="100%" height="100%" viewBox="0 0 450 450" fill="none" xmlns="http://www.w3.org/2000/svg" style="display: block;">

<path d="M299.75 100.41L313.88 98.6399L325.27 103.33L326.67 108.15L309.72 105.76L292.37 111.53L299.75 100.41Z" fill="COLOR_PLACEHOLDER"/>
<path d="M283.19 118.25C286.21 115.19 289.62 112.57 293.3 110.43C296.97 108.27 300.9 106.58 305.01 105.37C307.09 104.78 309.13 104.33 311.37 104.06C313.59 103.85 315.79 103.93 317.93 104.17C322.22 104.69 326.32 105.82 330.28 107.28L327.81 110.08C326.66 108.08 325.11 106.27 323.26 104.74C321.41 103.24 319.24 101.95 316.93 101.2C314.52 100.43 312 99.9701 309.47 99.8201C306.94 99.6701 304.38 99.8799 301.71 100.14C300.89 100.22 300.15 99.6201 300.07 98.7901C299.99 97.9601 300.59 97.23 301.42 97.15C301.44 97.15 301.47 97.1499 301.49 97.1399H301.5C304.12 97.0199 306.85 96.79 309.61 96.92C312.37 97.03 315.11 97.4602 317.79 98.1202C320.58 98.8002 323.22 99.9599 325.59 101.64C327.95 103.31 330.02 105.53 331.34 108.22L331.35 108.25C331.84 109.25 331.43 110.45 330.43 110.94C329.92 111.19 329.36 111.2 328.86 111.03C325.14 109.65 321.29 108.6 317.44 108.14C315.52 107.92 313.6 107.86 311.74 108.04C309.91 108.25 307.94 108.68 306.08 109.21C298.58 111.43 291.49 115.49 286.02 121.05L286.01 121.06C285.23 121.85 283.97 121.86 283.18 121.08C282.43 120.3 282.42 119.04 283.19 118.25Z" fill="black"/>
<path d="M153.64 173.38L159.25 153.21L175.13 135.37L202.45 121.42L225.36 116.38L253.64 121.69L275.48 126.13L278.85 125.31L290.27 112.19L308.28 93.8701L325.58 92.74L318.24 86.8101L304.9 86.3501L314.14 75.5801L321.25 70.6001L330.86 56.21L321.47 58.8201L297.01 62.2L300.12 52.1699L302.38 37.3701L283.86 48.21L276.52 56.45L277.32 34.1699L269.79 39.97L260.78 54.96L257.29 39.8301L253.37 30.71L242.52 42.0701L230.94 55.6299L225.55 28.3201L218.32 37.5801L212.17 48.1001L211.31 55.0601L194.33 39.9199L190.28 57.8999L181.23 43.3101L179.2 61.29L157.53 52.54L164.29 71.1699L163.54 83.4099L145.14 66.9099L141.99 78.28L146.31 100.03L139.09 98.8601L128.09 96.22L137.93 124.4L125.39 128.16L115.7 135.38L132.28 140.57L132.8 144.06L122.7 150.84L114.53 152.24L125.94 158.65L138.74 161.1L130.17 168.17L128.43 171.79L142.72 171.33L153.64 173.38Z" fill="COLOR_PLACEHOLDER"/>
<path d="M324.85 95.42C324.29 94.18 323.34 92.9202 322.26 91.8402C321.16 90.7602 319.92 89.8001 318.57 89.0501C317.23 88.3101 315.74 87.74 314.3 87.44C312.77 87.19 311.06 87.0201 309.42 86.9601C306.11 86.8201 302.81 87.1 299.66 87.91C296.52 88.75 293.55 90.15 290.99 92.14H290.98C290.33 92.65 289.38 92.53 288.88 91.88C288.38 91.24 288.49 90.3101 289.11 89.8001C291.95 87.4801 295.29 85.8001 298.79 84.7801C302.3 83.7901 305.93 83.4001 309.51 83.4601C311.31 83.4801 313.05 83.6002 314.93 83.8602C316.87 84.2102 318.66 84.8501 320.35 85.7301C322.04 86.6101 323.58 87.7401 324.97 89.0401C326.34 90.3701 327.58 91.8501 328.5 93.7301C328.99 94.7201 328.58 95.92 327.58 96.41C326.59 96.9 325.39 96.4901 324.9 95.4901C324.89 95.4801 324.89 95.46 324.88 95.45L324.85 95.42Z" fill="black"/>
<path d="M281.32 121.6L289.71 109.93C292.57 106.05 295.49 102.15 299.04 98.65C300.82 96.91 302.77 95.28 304.97 93.93C307.15 92.57 309.64 91.5802 312.21 91.0502C314.79 90.5202 317.44 90.5102 319.98 90.8502C322.53 91.1902 324.98 91.8601 327.34 92.7001C328.38 93.0701 328.93 94.2101 328.56 95.2501C328.19 96.2901 327.05 96.8401 326.01 96.4701C326 96.4701 326 96.4601 325.99 96.4601L325.97 96.4501C321.7 94.8601 317.19 93.9101 312.92 94.7301C308.64 95.4701 304.8 98 301.47 101.16C298.13 104.34 295.2 108.08 292.31 111.86L283.72 123.38C283.22 124.04 282.28 124.18 281.62 123.69C280.96 123.2 280.82 122.28 281.3 121.61L281.32 121.6Z" fill="black"/>
<path d="M263.65 124.43C266.07 120.91 272.8 105.86 274.75 98.6399" stroke="black" stroke-width="3" stroke-miterlimit="13.2283" stroke-linecap="round" stroke-linejoin="round"/>
<path d="M136.63 141.34C131.83 140.38 122.02 134.62 113.72 135.56C119.83 127.9 132.41 123.41 139.59 124.31" stroke="black" stroke-width="4" stroke-miterlimit="13.2283" stroke-linecap="round" stroke-linejoin="round"/>
<path d="M153.45 173.33C153.45 173.33 137.51 169.77 124.68 173.33C130.43 167.58 135.11 162.44 141.93 161.06C124.68 159.34 117.49 156.6 112.46 152.47C126.29 150.41 133.26 142.57 140.81 138.95" stroke="black" stroke-width="4" stroke-miterlimit="13.2283" stroke-linecap="round" stroke-linejoin="round"/>
<path d="M153.64 175.75C155.17 152.77 170.4 133.43 194.28 124.24C203.05 120.85 211.49 117.73 222.11 117.1C233.32 116.44 246.22 117.98 261.75 123.97C265.42 125.01 270.66 126.17 274.99 126.03C279.32 125.9 281.44 123.97 282.53 122.5" stroke="black" stroke-width="4" stroke-miterlimit="13.2283" stroke-linecap="round" stroke-linejoin="round"/>
<path d="M278.69 55.3899C280.99 52.4099 282.65 50.8301 288.33 47.1001C293.49 43.7101 297.85 41.21 303.16 36.74C302.57 46.65 297.92 62.66 290.84 69.98" stroke="black" stroke-width="4" stroke-miterlimit="13.2283" stroke-linecap="round" stroke-linejoin="round"/>
<path d="M277.34 77.72C279.57 60.21 275.49 42 278.69 33.53C270.5 37.12 261.12 51.0999 259.61 59.1299" stroke="black" stroke-width="4" stroke-miterlimit="13.2283" stroke-linecap="round" stroke-linejoin="round"/>
<path d="M294.86 61.34C298.22 60.07 301.56 59.4899 304.85 58.9599C308.14 58.4499 311.39 58.05 314.61 57.57C317.82 57.09 320.98 56.5299 324.01 55.6899C327.02 54.8399 329.92 53.6999 332.23 51.9599L332.38 51.86C333.3 51.26 334.53 51.5099 335.13 52.4299C335.52 53.0299 335.55 53.76 335.27 54.36C333.63 57.91 331.61 61.3899 329.09 64.4299C326.6 67.4899 323.8 70.1999 320.91 72.7299C318.02 75.2599 315.04 77.6399 312.04 79.9799C309.04 82.3299 306.02 84.6098 302.99 86.8898C302.33 87.3898 301.39 87.26 300.89 86.6C300.4 85.95 300.52 85.0299 301.15 84.5199L301.16 84.5099C307.08 79.8099 313.04 75.13 318.57 70.11C321.32 67.59 323.92 64.95 326.15 62.08C328.41 59.23 330.15 56.0599 331.62 52.7099L334.67 55.11C331.71 57.33 328.37 58.5799 325.09 59.5199C321.79 60.4399 318.48 61.0199 315.21 61.5099C311.93 61.9999 308.67 62.3998 305.48 62.8998C302.3 63.4098 299.13 63.99 296.35 65.05L296.29 65.07C295.26 65.46 294.1 64.9398 293.71 63.9098C293.31 62.8898 293.83 61.73 294.86 61.34Z" fill="black"/>
<path d="M142.48 127.74C132.96 117.48 128.28 102.67 128.28 94.0801C137.52 100.27 152.36 101.3 156.68 102.33" stroke="black" stroke-width="4" stroke-miterlimit="13.2283" stroke-linecap="round" stroke-linejoin="round"/>
<path d="M146.34 100C138.58 73.05 146.57 66.03 146.57 66.03C149.66 74.88 168.19 85.9199 168.19 85.9199" stroke="black" stroke-width="4" stroke-miterlimit="13.2283" stroke-linecap="round" stroke-linejoin="round"/>
<path d="M214.61 64.29C205.82 46.35 222.83 32.5901 228.09 26.6101C225.34 39.0701 230.1 57.32 231.81 59.5" stroke="black" stroke-width="4" stroke-miterlimit="13.2283" stroke-linecap="round" stroke-linejoin="round"/>
<path d="M212.19 55.6101C207.85 52.8701 197.9 43.56 195.48 39.21C190.74 47.01 190.07 58.65 191.73 72" stroke="black" stroke-width="4" stroke-miterlimit="13.2283" stroke-linecap="round" stroke-linejoin="round"/>
<path d="M230.04 54.9399C238.4 44.3899 249.87 39.9799 253.33 29.4299C257.05 33.4799 261.35 56.2 258.91 64.29" stroke="black" stroke-width="4" stroke-miterlimit="13.2283" stroke-linecap="round" stroke-linejoin="round"/>
<path d="M204.94 119.97C202.67 110.13 199.49 100.27 193.79 85.25" stroke="black" stroke-width="3" stroke-miterlimit="13.2283" stroke-linecap="round" stroke-linejoin="round"/>
<path d="M164.43 81.24C165.65 76.31 162.14 58.57 157.55 52.51C164.31 53.25 178.17 60.07 183.61 66.04" stroke="black" stroke-width="4" stroke-miterlimit="13.2283" stroke-linecap="round" stroke-linejoin="round"/>
<path d="M146.97 117.48C154.52 127.74 166.95 136.55 171.16 138.67" stroke="black" stroke-width="3" stroke-miterlimit="13.2283" stroke-linecap="round" stroke-linejoin="round"/>
<path d="M166.48 121.04C168.91 123.61 175.78 130.1 178.78 132.44" stroke="black" stroke-width="3" stroke-miterlimit="13.2283" stroke-linecap="round" stroke-linejoin="round"/>
<path d="M215.3 117.98C214.6 112.56 214.02 105.98 212.01 99.8201" stroke="black" stroke-width="3" stroke-miterlimit="13.2283" stroke-linecap="round" stroke-linejoin="round"/>
<path d="M189.44 132.55C192.71 131.35 196.67 130.2 201.58 129.93C198.01 135.19 194.37 141.86 192.41 146.28C192.41 146.28 198.59 144.85 203.34 144.49C199.19 151.55 191.65 165.76 186.8 173.33C186.88 165.4 190.21 156.57 191.77 152.43C188.21 153.2 186.78 153.41 184.23 153.7C185.51 144.89 189.44 132.55 189.44 132.55Z" fill="#FFD500" stroke="black" stroke-width="3" stroke-miterlimit="13.2283" stroke-linecap="round" stroke-linejoin="round"/>
<path d="M179.75 62.6101C178.72 55.5101 179.1 46.8501 181.73 42.3301C182.86 48.1701 188.53 53.5501 191.03 55.6201" stroke="black" stroke-width="4" stroke-miterlimit="13.2283" stroke-linecap="round" stroke-linejoin="round"/>
<path d="M242.72 117.98C242.98 114.22 243.85 96.1799 242.72 87.8899" stroke="black" stroke-width="3" stroke-miterlimit="13.2283" stroke-linecap="round" stroke-linejoin="round"/>
</svg>
