<svg width="100%" height="100%" viewBox="0 0 450 450" fill="none" xmlns="http://www.w3.org/2000/svg" style="display: block;">

<path d="M244.4 114.85C248.47 102.1 254.97 89.5399 260.07 83.6199C266.9 75.6699 274.84 70.48 284.69 73.14C290.62 74.74 293.16 81.7299 293.97 88.32C295.2 98.33 307.36 95.3799 307.02 87.6899C306.6 78.3499 303.43 64.1699 289.57 58.5999C280.63 54.9999 264.97 58.17 255.62 67.52C241.89 81.24 236.24 95.27 232.64 113.28L244.4 114.85Z" fill="COLOR_PLACEHOLDER"/>
<path d="M232.63 113.28C236.24 95.27 241.89 81.23 255.61 67.52C264.96 58.18 280.62 55.0099 289.56 58.5999C303.42 64.1699 306.59 78.35 307.01 87.69C307.35 95.37 295.19 98.32 293.96 88.32C293.15 81.73 290.61 74.75 284.68 73.14C274.83 70.48 266.89 75.67 260.06 83.62C254.97 89.55 249.83 101.24 245.76 113.99" stroke="black" stroke-width="4" stroke-miterlimit="10" stroke-linecap="round" stroke-linejoin="round"/>
<path d="M207.82 117.12C207.61 116.83 207.42 116.55 207.28 116.29C206.21 114.29 205.22 112.25 204.29 110.18C202.42 106.05 200.74 101.83 198.89 97.69C193.33 85.3 191.25 65.52 203.36 56.14C205.68 54.35 208.39 53.09 211.25 52.44C213.58 51.91 217.39 51.25 219.58 52.49C222.63 54.21 224.62 57.31 226.3 60.37C227.98 63.43 229.54 66.68 232.09 69.06C234.64 71.44 238.55 72.8 241.71 71.32C242.31 71.04 242.88 70.65 243.29 70.13C243.58 69.76 243.78 69.33 243.94 68.9C244.78 66.57 244.35 64.24 243.6 62.01C242.89 59.93 242.87 57.73 242.2 55.65C241.8 54.42 241.11 53.3 240.42 52.2C239.34 50.47 238.26 48.74 237.17 47.01C236.15 45.37 235.11 43.7199 233.76 42.3499C231.12 39.6699 227.48 38.24 223.97 36.9C222.08 36.17 219.85 35.5099 217.84 35.2199C213.62 34.6199 209.28 34.02 205.13 35C203.32 35.43 201.58 36.15 199.93 37.01C192.23 41.02 186.22 48.17 183.61 56.46C182.42 60.23 181.92 64.1699 181.53 68.0999C181.06 72.8199 180.76 77.6 181.36 82.33C181.65 84.57 182.27 86.68 182.44 88.93C182.63 91.43 182.95 93.92 183.39 96.39C183.95 99.53 184.72 102.64 185.71 105.68C186.18 107.13 186.74 109.03 187.73 110.41C188.41 112.93 189.21 115.47 190.39 117.79C191.3 119.58 191.72 121.69 192.58 123.55C193.18 124.84 194.15 125.99 195.55 126.41C196.9 126.81 198.35 126.75 199.74 126.67C202.72 126.49 206.8 125.85 208.66 123.07C209.95 121.09 209.01 118.78 207.82 117.12Z" fill="COLOR_PLACEHOLDER"/>
<path d="M209.68 120.98C204.41 114.96 194.71 88.5799 194.92 78.2399C195.16 66.5499 198.48 58.2599 203.47 54.9199C206.79 52.6999 212.08 50.5099 218.44 53.5799C226.13 57.2999 226.4 61.97 230.3 69.02C232.54 73.08 238.97 73.2099 242.16 70.6699C244.89 68.4999 245.44 64.0399 244.59 61.0699C242.11 52.3499 234.54 42.06 224.66 37.96C215.5 34.17 207.37 34.4999 200.42 37.2599C192.45 40.4399 185.81 46.8799 182.2 60.4699C176.98 80.1299 185.4 112.51 193.87 125.49" stroke="black" stroke-width="4" stroke-miterlimit="10" stroke-linecap="round" stroke-linejoin="round"/>
<path d="M246.94 114.27C242.76 113.93 238.49 113.91 233.72 114.16C233.08 114.19 232.44 114.23 231.79 114.27" stroke="black" stroke-width="4.24" stroke-miterlimit="10" stroke-linecap="round" stroke-linejoin="round"/>
</svg>
