<svg width="100%" height="100%" viewBox="0 0 450 450" fill="none" xmlns="http://www.w3.org/2000/svg">
<path d="M315.71 96.93L329.47 97.61L333.18 104.02L326.15 102.79L309.77 106.3L315.71 96.93Z" 
fill="#C088F9"/>
<path d="M299.87 118.01C305.78 109.84 314.03 104.7 320.86 103.26C325.81 102.22 331.78 104.19 336.39 106.51C333.2 101.13 330.53 98.67 326.86 97.26C323.35 95.91 320.18 95.92 316.35 96.28" stroke="black" stroke-width="4" stroke-miterlimit="10" stroke-linecap="round" stroke-linejoin="round"/>
<path d="M162.68 176.9L168.56 154.79L185.19 135.24L213.8 119.95L237.8 114.43L267.42 120.25L290.29 125.12L293.82 124.22L305.78 109.84L324.64 89.76L339.95 89.26L338.48 85.45L321.11 81.51L330.79 69.71L338.24 64.25L348.31 48.48L338.48 51.34L317.87 55.47L321.4 42.53L321.72 26.31L318.36 18.18L299.09 39.71L291.4 48.74L292.24 24.32L281.63 31.49L274.39 41.9L275.94 25.52L270.43 6.46002L259.56 25.03L244.46 33.21L250.88 16.7L232.1 24.74L220.36 38.32L217.11 28.8L212.44 16.55L206.74 21.94L200.27 34.13L199.58 44.23L182.76 28.2L181.33 49.45L172.1 40.13L173.87 64.84L161.41 53.46L155.56 47.4L151.19 63.07L157.42 96.88L147.48 95.19L135.96 92.3L146.27 123.18L133.14 127.3L122.99 135.21L140.35 140.9L140.89 144.72L130.31 152.15L121.75 153.68L133.7 160.7L147.11 163.38L138.13 171.13L136.31 175.1L151.28 174.6L162.68 176.9Z" fill="#C088F9"/>
<path d="M232.74 115.11C243.9 113.09 259.9 117.99 275.9 122.74C279.74 123.88 285.23 125.15 289.77 125C294.3 124.86 296.53 122.74 297.67 121.13C313.68 98.61 321.92 82.07 343.9 90.54C342.28 86.85 337.31 83.08 330.81 81.93C322.39 80.44 311.7 82.55 305.54 86.59" stroke="black" stroke-width="4" stroke-miterlimit="10" stroke-linecap="round" stroke-linejoin="round"/>
<path d="M277.9 123.25C280.43 119.39 283.2 102.23 285.24 94.32" stroke="black" stroke-width="3" stroke-miterlimit="10" stroke-linecap="round" stroke-linejoin="round"/>
<path d="M144.87 141.79C136.91 141.55 129.54 133.47 120.88 135.45C127.28 127.06 140.45 122.13 147.98 123.12" stroke="black" stroke-width="4" stroke-miterlimit="10" stroke-linecap="round" stroke-linejoin="round"/>
<path d="M162.49 176.85C162.49 176.85 145.8 172.95 132.36 176.85C138.38 170.55 143.28 164.91 150.43 163.4C132.36 161.52 124.83 158.51 119.56 153.99C134.04 151.73 141.35 143.14 149.25 139.17" stroke="black" stroke-width="4" stroke-miterlimit="10" stroke-linecap="round" stroke-linejoin="round"/>
<path d="M232.74 115.11C228.25 115.9 224.64 116.73 222.46 117.31C218.27 118.44 214.43 119.33 205.24 123.04C180.23 133.12 164.28 154.31 162.68 179.5" stroke="black" stroke-width="4" stroke-miterlimit="10" stroke-linecap="round" stroke-linejoin="round"/>
<path d="M291.92 50.39C294.1 45.31 295.87 42.46 302.46 35.12C308.44 28.46 313.63 23.36 319.46 15.08C321.91 29.56 320.78 54.22 313.44 67.21" stroke="black" stroke-width="4" stroke-miterlimit="10" stroke-linecap="round" stroke-linejoin="round"/>
<path d="M265.7 65.8C263.3 79.4 266.67 102.84 260.7 118.37" stroke="black" stroke-width="3" stroke-miterlimit="10" stroke-linecap="round" stroke-linejoin="round"/>
<path d="M293.36 62.88C291.64 58.02 290.85 33.52 293.36 22.79C280.62 28.63 268.93 44.91 266.57 57.99" stroke="black" stroke-width="4" stroke-miterlimit="10" stroke-linecap="round" stroke-linejoin="round"/>
<path d="M319.09 55.23C328.41 52.06 341.4 53.28 351 45.56C345.92 57.51 338.82 65.2 317.87 82.09" stroke="black" stroke-width="4" stroke-miterlimit="10" stroke-linecap="round" stroke-linejoin="round"/>
<path d="M151 126.88C141.03 115.63 136.13 99.4 136.13 89.99C145.81 96.77 161.35 97.9 165.87 99.03" stroke="black" stroke-width="4" stroke-miterlimit="10" stroke-linecap="round" stroke-linejoin="round"/>
<path d="M156.58 97.37C145.54 57.23 156.58 45.56 156.58 45.56C160.98 58.74 187.35 75.18 187.35 75.18" stroke="black" stroke-width="4" stroke-miterlimit="10" stroke-linecap="round" stroke-linejoin="round"/>
<path d="M209.61 54.44C206.73 52.58 204.12 50.63 201.52 48.55C198.93 46.48 196.43 44.31 194.03 42.03C191.62 39.76 189.3 37.39 187.1 34.91C184.87 32.46 182.82 29.83 180.82 27.18L184.36 26.56C183.6 29.55 183.36 32.99 183.26 36.33C183.18 39.7 183.29 43.1 183.48 46.48C183.73 49.86 184.06 53.25 184.59 56.59C184.82 58.27 185.16 59.93 185.45 61.59C185.83 63.23 186.13 64.9 186.6 66.51C187.41 69.78 188.54 72.93 189.9 75.93L190.98 78.14C191.4 78.94 191.8 79.73 192.19 80.53C192.95 82.12 193.68 83.71 194.38 85.31C195.79 88.51 197.06 91.76 198.22 95.06C198.79 96.72 199.35 98.38 199.81 100.1C200.27 101.82 200.72 103.53 200.9 105.46C200.98 106.28 200.37 107.02 199.55 107.09C198.75 107.16 198.04 106.6 197.93 105.82L197.92 105.78C197.7 104.27 197.19 102.64 196.66 101.06C196.13 99.47 195.53 97.88 194.91 96.29C193.66 93.13 192.3 89.99 190.88 86.88C190.17 85.33 189.43 83.79 188.66 82.29C188.28 81.54 187.88 80.8 187.48 80.08L186.26 77.65C184.75 74.37 183.53 71 182.64 67.58C180.75 60.74 179.81 53.76 179.31 46.75C179.11 43.24 178.99 39.73 179.13 36.2C179.3 32.65 179.52 29.15 180.51 25.44C180.79 24.39 181.87 23.76 182.93 24.04C183.37 24.16 183.74 24.41 183.99 24.75L184.04 24.82C185.96 27.37 187.92 29.88 190.08 32.25C192.2 34.65 194.44 36.93 196.77 39.13C199.09 41.34 201.51 43.44 204.01 45.44C206.5 47.43 209.11 49.38 211.71 51.05L211.77 51.09C212.7 51.69 212.96 52.93 212.36 53.85C211.78 54.78 210.54 55.04 209.61 54.44Z" fill="black"/>
<path d="M219.91 52.32C218.48 26.37 244.6 18.44 253.51 13.92C244.35 27.48 241.02 51.76 241.93 55.24" stroke="black" stroke-width="4" stroke-miterlimit="10" stroke-linecap="round" stroke-linejoin="round"/>
<path d="M221.37 40.49C218.4 34.81 214.62 21.36 214.62 15.08C205.06 20.77 196.81 34.24 200.38 44.59" stroke="black" stroke-width="4" stroke-miterlimit="10" stroke-linecap="round" stroke-linejoin="round"/>
<path d="M245.26 33.16C262.24 24.49 268.42 14.7 270.04 3.40002C274.67 8.67002 277.13 29.96 274.1 40.49" stroke="black" stroke-width="4" stroke-miterlimit="10" stroke-linecap="round" stroke-linejoin="round"/>
<path d="M218.56 118.37C215.75 105.61 211.8 92.81 204.74 73.33" stroke="black" stroke-width="3" stroke-miterlimit="10" stroke-linecap="round" stroke-linejoin="round"/>
<path d="M174.22 65.8C174.81 60.34 172.68 45.09 169.51 38.32C173.87 39.21 178.15 45.38 181.87 52.06" stroke="black" stroke-width="3" stroke-miterlimit="10" stroke-linecap="round" stroke-linejoin="round"/>
<path d="M256.34 117.09C257.42 103.76 257.07 83.65 255.29 72.56" stroke="black" stroke-width="3" stroke-miterlimit="10" stroke-linecap="round" stroke-linejoin="round"/>
<path d="M155.7 115.64C163.61 126.89 176.63 136.54 181.04 138.86" stroke="black" stroke-width="3" stroke-miterlimit="10" stroke-linecap="round" stroke-linejoin="round"/>
<path d="M176.13 119.54C178.67 122.36 185.87 129.47 189.01 132.03" stroke="black" stroke-width="3" stroke-miterlimit="10" stroke-linecap="round" stroke-linejoin="round"/>
<path d="M227.26 116.18C226.53 110.24 225.92 103.03 223.81 96.28" stroke="black" stroke-width="3" stroke-miterlimit="10" stroke-linecap="round" stroke-linejoin="round"/>
<path d="M200.74 131.87C203.74 130.71 207.38 129.59 211.89 129.33C208.61 134.43 205.27 140.9 203.47 145.19C203.47 145.19 209.14 143.8 213.51 143.45C209.7 150.3 203.42 162.51 198.97 169.85C199.04 162.16 201.46 155.16 202.89 151.15C199.62 151.9 198.31 152.1 195.97 152.38C197.13 143.84 200.74 131.87 200.74 131.87Z" fill="#FFD500" stroke="black" stroke-width="3" stroke-miterlimit="10" stroke-linecap="round" stroke-linejoin="round"/>
</svg>
