<svg width="100%" height="100%" viewBox="0 0 450 450" fill="none" xmlns="http://www.w3.org/2000/svg" style="display: block;">

<path d="M276.01 121.59C288.44 106.9 294.48 88.3301 297.16 74.3101C300.12 58.8501 299.25 37.64 294.72 22.6C291.07 42.52 270.6 83.97 251 114.71L276.01 121.59Z" fill="COLOR_PLACEHOLDER"/>
<path d="M251 114.71C270.6 83.97 291.07 42.52 294.72 22.6C299.25 37.65 300.12 58.8601 297.16 74.3101C294.48 88.3401 288.44 106.9 276.01 121.59" stroke="black" stroke-width="4" stroke-miterlimit="10" stroke-linecap="round" stroke-linejoin="round"/>
<path d="M194.63 145.81C201.21 136.99 207.01 120.29 212.75 100.58C219.37 77.84 220.33 65.58 223.04 46.17C224.28 37.27 225.5 19.44 224.97 12.71C230.9 18.16 239.82 37.82 243.38 63.33C245.92 81.49 244.22 92.5 241.05 105.55C237.26 121.14 225.92 137.17 215.66 145.5C206.91 147.48 200.03 147.19 194.63 145.81Z" fill="COLOR_PLACEHOLDER"/>
<path d="M208.77 140.02C211.44 140.35 217.11 141.1 222.15 139.34" stroke="black" stroke-width="3" stroke-miterlimit="10" stroke-linecap="round" stroke-linejoin="round"/>
<path d="M211 132.75C215.74 133.05 222.49 133.49 227.63 132.75" stroke="black" stroke-width="3" stroke-miterlimit="10" stroke-linecap="round" stroke-linejoin="round"/>
<path d="M217.95 125.12C221.41 125.72 226.93 125.71 229.5 125.12" stroke="black" stroke-width="3" stroke-miterlimit="10" stroke-linecap="round" stroke-linejoin="round"/>
<path d="M235.04 117.3C231.19 118.58 223.98 118.58 220.82 117.3" stroke="black" stroke-width="3" stroke-miterlimit="10" stroke-linecap="round" stroke-linejoin="round"/>
<path d="M225.31 109.7C227.74 110.33 231.42 110.88 234.56 110.25" stroke="black" stroke-width="3" stroke-miterlimit="10" stroke-linecap="round" stroke-linejoin="round"/>
<path d="M231.53 102.46C233.6 102.76 236.07 102.76 238.24 102.46" stroke="black" stroke-width="3" stroke-miterlimit="10" stroke-linecap="round" stroke-linejoin="round"/>
<path d="M231.14 93.6801C231.14 93.6801 234.55 94.57 236.4 94.12" stroke="black" stroke-width="3" stroke-miterlimit="10" stroke-linecap="round" stroke-linejoin="round"/>
<path d="M233.54 86.05C234.57 86.3 236.56 86.27 237.66 86.05" stroke="black" stroke-width="3" stroke-miterlimit="10" stroke-linecap="round" stroke-linejoin="round"/>
<path d="M206.48 146.91C209.97 144.86 216.35 136.29 223.21 129.07C228.89 123.1 238.94 101.88 242.31 96.9L233.76 123.04L227.92 133.15L218.7 142.83L214.25 146.91H206.48Z" fill="black"/>
<path d="M193.83 146.02C196.83 141.39 198.96 136.08 201 130.77C203 125.42 204.8 119.97 206.5 114.46C208.19 108.96 209.82 103.4 211.39 97.87C212.95 92.34 214.36 86.78 215.54 81.17C217.93 69.97 219.22 58.53 220.79 47.03C221.57 41.37 222.1 35.65 222.51 29.92C222.71 27.05 222.87 24.19 222.97 21.33C223.07 18.48 223.13 15.59 222.96 12.88V12.66C222.96 11.57 223.84 10.6899 224.93 10.6899C225.46 10.6899 225.95 10.91 226.31 11.25C228.85 13.72 230.5 16.45 232.08 19.22C233.64 22 234.95 24.86 236.15 27.76C238.54 33.56 240.5 39.5101 242.01 45.5601C243.54 51.6101 244.7 57.74 245.53 63.92C246.35 70.1 246.81 76.38 246.59 82.67C246.4 88.97 245.46 95.2301 244.11 101.31C243.77 102.83 243.42 104.34 243.05 105.85C242.63 107.38 242.25 108.95 241.71 110.44C240.73 113.47 239.48 116.37 238.13 119.22C235.39 124.89 232.13 130.27 228.38 135.3C226.47 137.79 224.54 140.27 222.33 142.52C220.16 144.8 217.85 146.97 215.28 148.86C214.61 149.35 213.67 149.21 213.18 148.54C212.73 147.92 212.82 147.07 213.37 146.55L213.39 146.53C217.75 142.47 221.66 137.84 225.19 132.95C226.97 130.51 228.62 127.99 230.21 125.42C231.74 122.82 233.22 120.19 234.5 117.47C235.78 114.76 236.96 111.99 237.87 109.16C238.38 107.75 238.71 106.32 239.11 104.89C239.47 103.41 239.81 101.92 240.14 100.44C241.44 94.5099 242.31 88.55 242.49 82.53C242.69 76.52 242.23 70.48 241.43 64.47C240.61 58.45 239.46 52.48 237.96 46.6C236.46 40.72 234.64 34.92 232.36 29.33C231.22 26.54 229.98 23.7899 228.54 21.1899C227.12 18.6099 225.49 16.04 223.62 14.2L226.97 12.5699C227.18 15.6299 227.12 18.53 227.05 21.46C226.96 24.38 226.82 27.2899 226.64 30.1899C226.26 35.9899 225.81 41.81 224.97 47.6C223.38 59.01 222.05 70.59 219.58 82.02C218.36 87.73 216.92 93.38 215.33 98.98C213.73 104.57 212.09 110.1 210.37 115.66C208.62 121.2 206.86 126.75 204.69 132.19C203.61 134.91 202.44 137.62 201.07 140.25C199.72 142.88 198.19 145.47 196.25 147.82C195.72 148.46 194.78 148.55 194.14 148.02C193.55 147.53 193.43 146.68 193.84 146.05L193.83 146.02Z" fill="black"/>
<path d="M214.35 147.68C206.85 148.63 197.74 148.38 195.03 146.91" stroke="black" stroke-width="3" stroke-miterlimit="10" stroke-linecap="round" stroke-linejoin="round"/>
<path d="M268.94 113.64C272.12 115.23 276.21 116.65 279.73 116.83" stroke="black" stroke-width="3" stroke-miterlimit="10" stroke-linecap="round" stroke-linejoin="round"/>
<path d="M274.34 108.89C276.42 109.98 280.2 111.15 283.47 111.18" stroke="black" stroke-width="3" stroke-miterlimit="10" stroke-linecap="round" stroke-linejoin="round"/>
<path d="M278.1 103.05C280.08 103.99 282.99 104.61 285.54 104.73" stroke="black" stroke-width="3" stroke-miterlimit="10" stroke-linecap="round" stroke-linejoin="round"/>
<path d="M279.46 95.08C280.59 95.64 282.57 96.59 284.17 96.77" stroke="black" stroke-width="3" stroke-miterlimit="10" stroke-linecap="round" stroke-linejoin="round"/>
<path d="M284.17 88.48C284.91 88.85 286.2 89.46 287.25 89.59" stroke="black" stroke-width="3" stroke-miterlimit="10" stroke-linecap="round" stroke-linejoin="round"/>
<path d="M268.94 118.55C271.69 117.06 278.81 108.35 281.37 104.14L285.53 105.95L275.83 120.28L268.94 118.55Z" fill="black"/>
<path d="M278.32 122.71C272.98 120.24 266.58 117.94 259.27 116.24C255.49 115.36 251.95 114.76 248.39 114.41" stroke="black" stroke-width="4.24" stroke-miterlimit="10" stroke-linecap="round" stroke-linejoin="round"/>
</svg>
