<svg width="450" height="450" viewBox="0 0 450 450" fill="none" xmlns="http://www.w3.org/2000/svg">
<path d="M290.4 69.1298C293.57 83.2298 256.71 93.2298 228.8 97.8398C200.89 102.45 162.99 105.64 159.91 92.7098C157.01 80.5698 176.21 62.8698 220.8 55.3598C254.18 49.7198 287.51 56.2498 290.4 69.1298ZM177.09 89.2198C182.66 91.8998 201.6 90.1398 225.82 86.1498C250.04 82.1498 269.56 77.5598 273.97 73.2398C272.23 67.4298 245.3 66.4998 223.95 70.0298C202.58 73.5398 179.96 80.4598 177.09 89.2198Z" fill="#F9EAA7"/>
<path d="M220.8 55.3499C176.2 62.8699 157.01 80.5599 159.91 92.6999C163 105.63 200.9 102.44 228.8 97.8299C256.7 93.2199 293.56 83.2199 290.4 69.1199C287.51 56.2499 254.18 49.7199 220.8 55.3499Z" stroke="#523225" stroke-width="4" stroke-miterlimit="10" stroke-linecap="round" stroke-linejoin="round"/>
<path d="M177.09 89.2198C182.66 91.8998 201.6 90.1398 225.82 86.1498C250.04 82.1498 269.56 77.5598 273.97 73.2398C272.23 67.4298 245.3 66.4998 223.95 70.0298C202.58 73.5398 179.96 80.4598 177.09 89.2198Z" stroke="#523225" stroke-width="4" stroke-miterlimit="10" stroke-linecap="round" stroke-linejoin="round"/>
</svg>
