<svg width="450" height="450" viewBox="0 0 450 450" fill="none" xmlns="http://www.w3.org/2000/svg">
<path d="M221.67 121.24C220.52 117.89 215.42 113.79 213.69 108.25C211.96 102.72 212.11 96.73 213.39 91.78C216.01 81.7 219.54 79.3 221.1 69.35C222.7 59.11 219.82 52.4 216.86 47.26C216.58 60.95 208.42 65.87 202.96 71.88C193 82.84 183.68 91.1701 180.29 109.94C178.03 122.45 181.28 134.36 190.6 141.28C198.22 146.94 208.69 143.67 214.18 139.15C221.39 133.24 223.22 125.76 221.67 121.24Z" fill="#FB7676"/>
<path d="M179.91 122.16C184.25 127.88 194.31 128.78 201.76 127.03C210.8 124.91 215.46 118.14 215.46 112.06" stroke="black" stroke-width="3" stroke-miterlimit="10" stroke-linecap="round" stroke-linejoin="round"/>
<path d="M183.04 99.75C183.51 105.37 190.38 109.24 198.19 108.49C205.14 107.82 211.42 104.24 212.42 99.75" stroke="black" stroke-width="3" stroke-miterlimit="10" stroke-linecap="round" stroke-linejoin="round"/>
<path d="M196.92 78.8C194.71 84.16 208.36 92.82 215.04 85.86" stroke="black" stroke-width="3" stroke-miterlimit="10" stroke-linecap="round" stroke-linejoin="round"/>
<path d="M221.67 121.24C220.52 117.89 215.42 113.79 213.69 108.25C211.96 102.72 212.11 96.73 213.39 91.78C216.01 81.7 219.54 79.3 221.1 69.35C222.7 59.11 219.82 52.4 216.86 47.26C216.58 60.95 208.98 66.43 202.96 71.88C193.28 80.65 183.68 91.1701 180.29 109.94C178.03 122.45 181.28 134.36 190.6 141.28C198.22 146.94 208.69 143.67 214.18 139.15C221.39 133.24 223.22 125.76 221.67 121.24Z" stroke="black" stroke-width="4" stroke-miterlimit="10" stroke-linecap="round" stroke-linejoin="round"/>
<path d="M252.39 112.78C253.74 107.12 255.77 99.16 252.24 89.41C250.25 83.92 249.13 67.79 249.13 67.79C249.13 67.79 249.93 56.4301 254.12 49.8101C255.48 58.1801 256.57 62.2001 259.76 68.1901C263.38 74.9901 268.18 78.92 272.83 83.63C280.55 91.46 284.22 103.53 282.57 115.57" fill="#FB7676"/>
<path d="M286.8 116.88C280.64 114.77 273.37 113.15 265.65 112.71C259.77 112.38 253.7 112.59 247.97 113.09" stroke="black" stroke-width="4" stroke-miterlimit="10" stroke-linecap="round" stroke-linejoin="round"/>
<path d="M252.39 112.78C253.74 107.12 255.77 99.16 252.24 89.41C250.25 83.92 248.88 77.71 249.17 69.62C249.39 63.36 249.94 56.4301 254.13 49.8101C255.49 58.1801 256.58 62.2001 259.77 68.1901C263.39 74.9901 268.19 78.92 272.84 83.63C280.56 91.46 284.23 103.53 282.58 115.57" stroke="black" stroke-width="4" stroke-miterlimit="10" stroke-linecap="round" stroke-linejoin="round"/>
<path d="M249.16 79.0602C250.49 80.4602 254.85 81.1701 257.93 80.0101C261.21 78.7701 263.14 75.5202 262.37 73.1802" stroke="black" stroke-width="3" stroke-miterlimit="10" stroke-linecap="round" stroke-linejoin="round"/>
<path d="M253.98 96.9102C255.95 99.6002 263.16 100.75 268.33 98.7101C275.35 95.9401 277.23 89.5301 275.64 86.8901" stroke="black" stroke-width="3" stroke-miterlimit="10" stroke-linecap="round" stroke-linejoin="round"/>
</svg>
