<svg width="100%" height="100%" viewBox="0 0 450 450" fill="none" xmlns="http://www.w3.org/2000/svg">
<path d="M190.53 93.29L175.24 99.87L163.07 115.61L149.48 137.88L136.84 151.25L126.77 153.9L143.19 157.36H154.46L147 168.13L138.81 172.95L151.69 181.43L165.64 184.57L172.14 179.54L174.76 183.63L184.5 184.15L198.08 174.26L204.67 189.64L213.78 195.63L231.16 197.61L221.54 184.43L217.42 174.75L216.26 160.72L222.34 160.62L232.27 157.7L242.58 145.47L251.01 124.15L253.07 126.55L253.09 140.22L275.12 137.62L275.52 116.76L282.06 120.74L286.56 125.31L289.21 136.03L289.59 141.18H311.65L312.13 144.55L323.96 142.97L331.35 137.62L331.14 130.1L338.48 135.58L354.57 131.87L345.22 117.01L338.05 105.98L329.12 96.2L338.05 92.01L340.72 85.8L341.68 79.82L339.99 74.03L336.76 77.7L325.28 80.47L303.66 77.7L283.71 69.23L255.47 67.37L228.68 73.13L210.08 82.16L199.94 92.67L190.53 93.29Z"
fill="#C088F9"/>
<path d="M216.8 152.7C218.35 135.58 224.6 122.3 229.87 113.93" stroke="black" stroke-width="3" stroke-miterlimit="10" stroke-linecap="round" stroke-linejoin="round"/>
<path d="M199.94 92.67C209.87 80.94 229.87 69.23 252.97 67.54C265.87 66.59 274.71 67.33 287.31 71.41C300.37 75.64 308.4 79.56 316.31 80.24C326.16 81.09 337.45 80.38 339.99 74.03C342.53 82.92 336.93 98.85 327.75 97.01" stroke="black" stroke-width="4" stroke-miterlimit="10" stroke-linecap="round" stroke-linejoin="round"/>
<path d="M354.57 131.87C349.91 134.83 344.76 135.12 337.72 134.48C334.05 131.88 332.34 128.77 328.96 127.79" stroke="black" stroke-width="3" stroke-miterlimit="10" stroke-linecap="round" stroke-linejoin="round"/>
<path d="M321.05 91.45C323.46 92.21 325.48 93.28 327.47 94.46C329.44 95.65 331.31 96.97 333.08 98.4C336.61 101.28 339.82 104.59 342.43 108.38C343.11 109.31 343.67 110.32 344.27 111.3C344.8 112.32 345.38 113.36 345.82 114.34L348.67 120.27C350.59 124.18 352.6 127.93 355.61 130.78C356.21 131.35 356.24 132.3 355.67 132.9C355.1 133.5 354.16 133.53 353.56 132.97L353.55 132.96C351.84 131.38 350.35 129.54 349.09 127.62C347.84 125.7 346.77 123.72 345.75 121.74L342.77 115.83C342.28 114.82 341.77 113.95 341.27 113.02C340.7 112.14 340.18 111.23 339.54 110.39C337.1 106.97 334.07 103.95 330.74 101.33C329.07 100.02 327.31 98.84 325.5 97.78C323.7 96.74 321.78 95.8 319.97 95.27L319.89 95.25C318.83 94.94 318.22 93.83 318.53 92.77C318.84 91.71 319.95 91.1 321.01 91.41C321.02 91.44 321.04 91.44 321.05 91.45Z" fill="black"/>
<path d="M253.09 140.22C253.76 132.6 252.96 123.66 251.69 120.34" stroke="black" stroke-width="3" stroke-miterlimit="10" stroke-linecap="round" stroke-linejoin="round"/>
<path d="M273.35 106.36C275.51 112.69 276.81 130.82 275.12 137.62C269.47 139.67 256.3 138.71 253.09 140.21" stroke="black" stroke-width="4" stroke-miterlimit="10" stroke-linecap="round" stroke-linejoin="round"/>
<path d="M332.95 137.11C331.89 139.4 330.08 140.82 328.31 141.98C326.51 143.13 324.61 143.99 322.67 144.7C320.73 145.41 318.74 145.96 316.7 146.35C315.68 146.54 314.64 146.69 313.57 146.77C312.49 146.84 311.4 146.87 310.12 146.63L309.87 146.57C308.94 146.34 308.38 145.4 308.61 144.48C308.66 144.28 308.74 144.1 308.85 143.94C309.15 143.5 309.4 143.06 309.6 142.59C309.8 142.12 309.96 141.53 310.2 140.83L311.85 142.69C308.14 143.25 304.4 143.61 300.64 143.76C298.76 143.84 296.87 143.86 294.97 143.8C294.02 143.76 293.06 143.72 292.08 143.62C291.09 143.52 290.14 143.42 288.99 143.1C288.05 142.84 287.46 141.92 287.6 140.97L287.61 140.93C287.91 138.8 287.74 136.55 287.13 134.35C286.54 132.15 285.59 129.99 284.41 127.96C283.24 125.92 281.82 123.99 280.25 122.23C279.46 121.35 278.63 120.52 277.75 119.78C277.31 119.42 276.87 119.06 276.42 118.79C276.02 118.51 275.46 118.29 275.42 118.28L275.24 118.25C274.42 118.13 273.86 117.36 273.99 116.55C274.11 115.76 274.82 115.21 275.61 115.28C276.21 115.34 276.67 115.49 277.02 115.65C277.4 115.81 277.71 115.99 278.03 116.17C278.65 116.53 279.19 116.94 279.72 117.35C280.77 118.18 281.72 119.07 282.63 120.01C284.43 121.89 286.03 123.93 287.41 126.15C288.79 128.36 289.95 130.75 290.73 133.32C291.52 135.88 291.87 138.66 291.57 141.46L290.19 139.29C290.81 139.5 291.7 139.66 292.54 139.78C293.4 139.91 294.29 139.99 295.18 140.06C296.96 140.2 298.77 140.26 300.59 140.26C304.22 140.28 307.86 140.09 311.48 139.71H311.52C312.34 139.62 313.08 140.22 313.17 141.05C313.19 141.23 313.17 141.41 313.13 141.57C313.06 142.1 313.02 142.76 312.88 143.51C312.74 144.25 312.5 144.99 312.23 145.67L310.96 142.97C311.61 143.12 312.51 143.16 313.39 143.12C314.28 143.08 315.21 142.98 316.12 142.84C317.96 142.56 319.8 142.11 321.58 141.52C323.36 140.94 325.09 140.21 326.65 139.28C328.19 138.37 329.59 137.2 330.23 135.89L330.26 135.83C330.62 135.09 331.52 134.78 332.27 135.14C332.99 135.49 333.29 136.37 332.95 137.11Z" fill="black"/>
<path d="M311.38 99.35C317.6 104.1 330.93 128.4 331.59 136.49" stroke="black" stroke-width="3" stroke-miterlimit="10" stroke-linecap="round" stroke-linejoin="round"/>
<path d="M211.38 157.79C218.44 155.07 228.18 131.51 229.87 124.57" stroke="black" stroke-width="3" stroke-miterlimit="10" stroke-linecap="round" stroke-linejoin="round"/>
<path d="M251.97 112.69C252.56 121.09 242.93 145.61 238.42 150.97C235.92 153.94 231.03 159.11 224.94 159.91C219.33 160.65 214.88 159.83 211.39 157.79" stroke="black" stroke-width="3" stroke-miterlimit="10" stroke-linecap="round" stroke-linejoin="round"/>
<path d="M216.26 160.72C215.25 182.92 225.44 192.59 234.09 196.92C226.14 199.6 213.42 196.07 207.56 191.53C202.59 187.68 200.36 182.97 198.64 176.63C195.06 163.45 198.06 143.2 212.37 124.57" stroke="black" stroke-width="4" stroke-miterlimit="10" stroke-linecap="round" stroke-linejoin="round"/>
<path d="M202.77 94.5C196.56 92.81 187.72 91.86 177.5 98.88C165.36 107.21 160.61 121.56 155.15 129.66C149.69 137.75 140.09 153.94 124.47 153C131.06 155.82 145.93 159.78 155.15 155.45" stroke="black" stroke-width="4" stroke-miterlimit="10" stroke-linecap="round" stroke-linejoin="round"/>
<path d="M160.04 144.34C159.1 148.29 150.82 170.31 137.64 172.95C142.16 177.09 157.17 185.71 165.64 184.58C170.09 182.67 173.35 178.39 174.77 175.81" stroke="black" stroke-width="4" stroke-miterlimit="10" stroke-linecap="round" stroke-linejoin="round"/>
<path d="M178.91 168.67C174.95 174.76 174.11 176.59 173.46 181.71C175.84 182.65 179.94 182.7 184.7 181.18C190.85 179.22 194.99 176.31 197.59 171.09" stroke="black" stroke-width="4" stroke-miterlimit="10" stroke-linecap="round" stroke-linejoin="round"/>
<path d="M211.38 90.69C213.5 89 221.76 84.55 227.9 84.2" stroke="black" stroke-width="3" stroke-miterlimit="10" stroke-linecap="round" stroke-linejoin="round"/>
<path d="M179.05 109.23C185.36 104.24 195.61 100.29 202.01 102.17" stroke="black" stroke-width="3" stroke-miterlimit="10" stroke-linecap="round" stroke-linejoin="round"/>
<path d="M197.26 109.96C194.5 110.24 191.58 111.86 187.33 114.78C183.51 117.4 179.33 121.69 176.88 126.45" stroke="black" stroke-width="3" stroke-miterlimit="10" stroke-linecap="round" stroke-linejoin="round"/>
<path d="M214.06 96.35C217.45 95.63 222.25 95.84 225.21 97.11" stroke="black" stroke-width="3" stroke-miterlimit="10" stroke-linecap="round" stroke-linejoin="round"/>
<path d="M293.63 115.96C297.97 120.2 300.69 130.01 302.33 141.59" stroke="black" stroke-width="3" stroke-miterlimit="10" stroke-linecap="round" stroke-linejoin="round"/>
<path d="M184.13 157.79C185.82 152.43 189.4 138.5 195.8 131.91" stroke="black" stroke-width="3" stroke-miterlimit="10" stroke-linecap="round" stroke-linejoin="round"/>
<path d="M258.93 139.12C259.68 135.79 259.42 125.32 258.48 119.3" stroke="black" stroke-width="3" stroke-miterlimit="10" stroke-linecap="round" stroke-linejoin="round"/>
<path d="M317.91 105.53C319.36 105.85 320.58 106.44 321.7 107.09C322.27 107.41 322.78 107.79 323.32 108.13L324.83 109.27C326.78 110.84 328.55 112.55 330.23 114.35C333.56 117.96 336.55 121.85 339.03 126.14C339.44 126.86 339.2 127.78 338.48 128.19C337.76 128.6 336.85 128.36 336.43 127.64L336.42 127.62C334.1 123.6 331.2 119.83 328.03 116.39C326.44 114.67 324.75 113.05 322.95 111.61C321.18 110.19 319.18 108.9 317.36 108.47L317.24 108.44C316.43 108.25 315.94 107.44 316.13 106.64C316.32 105.85 317.11 105.36 317.91 105.53Z" fill="black"/>
<path d="M305.91 121.8C309.72 126.51 311.38 136.92 311.66 141.18" stroke="black" stroke-width="3" stroke-miterlimit="10" stroke-linecap="round" stroke-linejoin="round"/>
<path d="M143.4 177.08C149.4 175.11 160.42 169.54 164.93 157.36" stroke="black" stroke-width="3" stroke-miterlimit="10" stroke-linecap="round" stroke-linejoin="round"/>
</svg>
