<svg width="100%" height="100%" viewBox="0 0 450 450" fill="none" xmlns="http://www.w3.org/2000/svg" style="display: block;">
<path d="M253.77 217.5C258.12 215.54 278.54 220.13 281.67 226.46C284.8 232.79 283.49 241.34 274.3 240.22C265.11 239.1 255.15 239.19 253.2 237.4C251.26 235.61 241.48 227.05 242.91 224.44C244.34 221.83 252.1 218.25 253.77 217.5Z" fill="BODY_PLACEHOLDER"/>
<path d="M213.61 64.4896L200.74 79.3796L196.46 72.6296L190.81 80.6796L181.05 69.7496L172.07 85.0896L164.63 70.2496L156.81 84.4796L152 75.1496L145.4 81.6396L139.18 80.7596L136.76 88.0596L124.94 81.5996L134.63 75.6396L128.43 71.6796L143.47 63.1396L133.86 60.3396L161.18 43.7496L172.83 42.4296L179.73 44.0596L196.68 34.4996L223.49 33.8496L258.07 41.1096L280.5 43.0596L274.91 51.1696L282.6 61.5296L283.4 68.1796L265.34 60.0096L260.74 70.3996L256.03 63.3796L244.24 58.0096L245.18 71.3996L235.49 66.5196L227.81 58.2296L217.88 70.5096L213.61 64.4896Z" fill="#45423B"/>
<path d="M153.08 176.34C156.43 177.77 163.24 174.28 167.76 171.33C175.04 166.57 182.86 157.72 190.61 156.68C198.36 155.64 201.74 156.28 204.98 152.18C208.23 148.08 218.5 127.84 226.49 125.33C234.47 122.82 240.89 116.55 249.78 118.2C251.95 118.6 258.07 118.88 262.63 120.79C265.32 121.92 280 128.22 282.51 126.94L276.07 84.96L272.61 63.85L265.35 60.01L260.76 70.4L257.42 65.41L244.99 58.5L244.26 70.95L227.89 59.26L221.77 68.03L215.04 69.19L212.78 64.38L206.52 75.61L199.95 78.99L195.94 73.76L190.81 80.69L181.04 70.88L172.07 85.1L163.25 72.93L156.8 84.49L152.03 73.81L144.25 81.77L139.44 81.8L138.22 92.85L147.24 138.35L153.08 176.34Z" fill="BODY_PLACEHOLDER"/>
<path d="M119.29 125.25L115.08 113.21L116.14 105.78L126.27 103L130.49 108.56L145.94 105.26L150.73 108.09L151.1 115.47L133.99 120.16L130.1 126.54L124.8 128.4L119.29 125.25Z" fill="COLOR_PLACEHOLDER"/>
<path d="M137.85 88.0596C138.86 94.1196 141.03 101.25 141.76 106.16" stroke="black" stroke-width="4" stroke-miterlimit="13.2283" stroke-linecap="round" stroke-linejoin="round"/>
<path d="M144.56 116.75C146.78 126.52 149 136.32 150.95 146.19C151.92 151.13 152.82 156.08 153.6 161.08C154.36 166.08 155.04 171.1 155.22 176.29C155.26 177.48 154.33 178.47 153.15 178.52C151.97 178.57 150.97 177.63 150.93 176.45V176.44V176.4C150.78 171.58 150.13 166.63 149.4 161.73C148.65 156.82 147.78 151.9 146.83 147C144.95 137.19 142.81 127.42 140.66 117.62C140.42 116.54 141.1 115.47 142.18 115.24C143.26 115 144.32 115.67 144.56 116.75Z" fill="black"/>
<path d="M282.02 126.58C281.11 125.07 280.67 123.75 280.23 122.4C279.81 121.06 279.45 119.75 279.13 118.43C278.49 115.8 277.97 113.17 277.49 110.55C276.54 105.3 275.78 100.05 275.1 94.7899C274.76 92.1599 274.45 89.5299 274.15 86.8899C273.86 84.3099 273.47 81.7499 273.01 79.1799C272.08 74.0699 270.93 68.9199 269.45 64.0199L269.44 63.9799C269.12 62.9199 269.72 61.8099 270.77 61.4899C271.83 61.1699 272.94 61.7699 273.26 62.8199C274.84 68.0199 275.99 73.1999 276.95 78.4699C277.42 81.0999 277.82 83.7599 278.12 86.4299C278.43 89.0399 278.76 91.6399 279.12 94.2499C279.83 99.4499 280.62 104.65 281.6 109.78C282.08 112.35 282.63 114.89 283.27 117.38C283.59 118.62 283.94 119.85 284.36 121.02C284.76 122.17 285.25 123.34 285.76 124.06L285.8 124.12C286.51 125.14 286.27 126.54 285.25 127.26C284.23 127.98 282.83 127.73 282.11 126.71C282.07 126.67 282.04 126.63 282.02 126.58Z" fill="black"/>
<path d="M243.66 56.3996C244.13 61.5796 243.66 69.6996 246.66 72.1196C239.22 70.6996 229.29 62.8596 227.51 55.8296C225.07 63.4696 220.6 69.3196 216.69 71.1896C215.83 68.2196 213.91 63.6596 212.59 61.9096C210.44 68.5196 205.59 77.0296 202.17 78.9596C198.83 78.9096 196.06 74.3096 196.35 70.7896C192.94 76.2196 191.63 79.3896 192.67 81.5996C187.44 79.2896 181.76 74.6296 183.06 67.4696C180.04 70.6796 173.51 78.4396 174.3 85.3996C168.71 84.5996 162.88 72.5096 164.95 64.9596" stroke="black" stroke-width="4" stroke-miterlimit="13.2283" stroke-linecap="round" stroke-linejoin="round"/>
<path d="M264.62 57.3096C265.46 63.0796 263.94 68.0696 260.74 70.4096C260.19 68.5596 257.85 65.0696 254.61 63.3296C250.77 61.2696 246.51 59.7296 244.23 58.0096" stroke="black" stroke-width="4" stroke-miterlimit="13.2283" stroke-linecap="round" stroke-linejoin="round"/>
<path d="M164.63 70.25C160.39 76.29 158.25 79.31 158.04 85.46C153.34 82.41 152.94 75.23 154.6 70.23" stroke="black" stroke-width="4" stroke-miterlimit="13.2283" stroke-linecap="round" stroke-linejoin="round"/>
<path d="M154.07 72.2498C149.92 74.9198 149.22 77.8798 145.4 81.6398C144.06 82.0398 141.36 81.4198 139.18 80.7498C138.34 84.6198 138.13 86.5898 137.86 88.0498C131.25 88.0598 125.32 83.6498 123.97 81.0798C128.36 80.3298 134.06 76.0098 135.02 74.6198C131.77 74.3898 128.2 72.7498 127.48 69.7898C133.86 70.4098 140.82 65.8898 143.47 63.1298C137.39 63.5898 135.18 61.7598 133.86 60.3398C139.57 58.9698 156.28 45.0898 162.54 43.2298C168.8 41.3698 176.14 42.5098 179.72 44.0598" stroke="black" stroke-width="4" stroke-miterlimit="13.2283" stroke-linecap="round" stroke-linejoin="round"/>
<path d="M179.73 44.0598C185.14 36.8398 200.73 34.8098 209 34.0898C217.27 33.3798 224.7 34.2598 235.46 35.9698C246.22 37.6698 253.38 40.4698 261.29 41.6798C269.2 42.8898 277.99 42.6798 281.6 41.4798C278.41 45.7498 278.08 48.8298 273.81 52.0998C279.73 55.8698 283.9 62.1298 284.89 67.8398C278.89 67.5798 267.26 61.7998 264.91 58.4798" stroke="black" stroke-width="4" stroke-miterlimit="13.2283" stroke-linecap="round" stroke-linejoin="round"/>
<g style="mix-blend-mode:multiply">
<path d="M117.99 104.65C121.39 105.7 125.02 108.25 126.82 114.63C128.62 121.01 128.69 127.2 124.8 128.41" stroke="#696969" stroke-width="3" stroke-miterlimit="13.2283" stroke-linecap="round" stroke-linejoin="round"/>
</g>
<path d="M124.8 128.4C121.74 129.35 117.46 124.14 115.67 117.77C113.87 111.39 114.25 106.12 117.99 104.65" stroke="black" stroke-width="4" stroke-miterlimit="13.2283" stroke-linecap="round" stroke-linejoin="round"/>
<path d="M124.8 128.4C124.8 128.4 129.3 127.61 130.1 126.54C132.54 123.29 133.92 119.14 132.12 112.76C130.32 106.38 126.41 102.07 123.29 102.78C122.47 102.97 120.11 102.96 117.99 104.64" stroke="black" stroke-width="4" stroke-miterlimit="13.2283" stroke-linecap="round" stroke-linejoin="round"/>
<path d="M130.49 108.56C134.39 107.39 144.28 106.02 148.77 104.46" stroke="black" stroke-width="4" stroke-miterlimit="13.2283" stroke-linecap="round" stroke-linejoin="round"/>
<path d="M133.45 118.94C136.03 118.88 145.96 116.23 151.09 115.47" stroke="black" stroke-width="4" stroke-miterlimit="13.2283" stroke-linecap="round" stroke-linejoin="round"/>
<path d="M145.8 102.38C150.15 103.36 153.78 112.9 149.75 118.2" stroke="black" stroke-width="4" stroke-miterlimit="13.2283" stroke-linecap="round" stroke-linejoin="round"/>
<path d="M195 107.11C196.47 114.76 201.62 127.19 201.64 130.25" stroke="black" stroke-width="4" stroke-miterlimit="13.2283" stroke-linecap="round" stroke-linejoin="round"/>
<path d="M207.19 99.8699C212.73 99.9999 267.09 91.4899 275.75 88.9399L207.19 99.8699Z" fill="#E00F0D"/>
<path d="M207.19 99.8699C212.73 99.9999 267.09 91.4899 275.75 88.9399" stroke="black" stroke-width="3" stroke-miterlimit="13.2283" stroke-linecap="round" stroke-linejoin="round"/>
<path d="M214.61 92.3199C215.17 96.3899 216.04 102.32 216.19 105.28C218.4 106.83 220.22 105.66 221.35 105.07C222.05 100.15 220.12 93.0099 219.47 90.9199C218.07 90.7199 215.77 91.5299 214.61 92.3199Z" fill="#CCC5AB" stroke="black" stroke-width="3" stroke-miterlimit="13.2283" stroke-linecap="round" stroke-linejoin="round"/>
<path d="M229.11 89.0097C229.93 91.7597 231.85 99.8097 231.93 103.24C234.37 104.16 236.27 103.29 237.56 102.76C237.54 97.9097 235.68 89.4097 234.61 86.9197C232.7 86.8097 230.16 88.0897 229.11 89.0097Z" fill="#CCC5AB" stroke="black" stroke-width="3" stroke-miterlimit="13.2283" stroke-linecap="round" stroke-linejoin="round"/>
<path d="M245.85 85.93C246.76 89.29 248.25 96.44 248.06 100.41C249.83 100.66 252.8 99.92 253.56 99.27C253.75 93.93 251.89 87.14 250.98 84.82C249.22 84.57 247.18 85.26 245.85 85.93Z" fill="#CCC5AB" stroke="black" stroke-width="3" stroke-miterlimit="13.2283" stroke-linecap="round" stroke-linejoin="round"/>
<path d="M261.58 85.0298C262.55 87.9198 263.44 95.6598 262.97 98.6298C264.82 99.2898 267.52 99.1498 268.14 98.6998C269 92.6398 267.97 86.5498 267.14 84.3498C266.01 83.7698 262.61 84.1298 261.58 85.0298Z" fill="#CCC5AB" stroke="black" stroke-width="3" stroke-miterlimit="13.2283" stroke-linecap="round" stroke-linejoin="round"/>
<path d="M274.5 83.0997C276.24 86.4097 276.02 92.8897 274.86 95.3697C276.21 96.3497 278.91 96.3597 279.65 95.4597C282.11 91.8197 281.36 84.8597 279.74 82.5397C278.53 82.2697 276.24 82.6397 274.5 83.0997Z" fill="#CCC5AB" stroke="black" stroke-width="3" stroke-miterlimit="13.2283" stroke-linecap="round" stroke-linejoin="round"/>
<path d="M151.1 123.75C152.94 123.47 153.78 123 155.06 122.18" stroke="black" stroke-width="3" stroke-miterlimit="13.2283" stroke-linecap="round" stroke-linejoin="round"/>
<path d="M153.08 129.98C154.4 129.78 155.01 129.44 155.92 128.85" stroke="black" stroke-width="3" stroke-miterlimit="13.2283" stroke-linecap="round" stroke-linejoin="round"/>
<path d="M155.05 136.5C156.37 136.3 156.98 135.96 157.89 135.37" stroke="black" stroke-width="3" stroke-miterlimit="13.2283" stroke-linecap="round" stroke-linejoin="round"/>
<path d="M200.18 136.06C200.92 135.99 202.4 135.21 203.1 135.05" stroke="black" stroke-width="3" stroke-miterlimit="13.2283" stroke-linecap="round" stroke-linejoin="round"/>
<path d="M199.83 141.61C200.77 141.47 202.58 140.4 203.45 140.15" stroke="black" stroke-width="3" stroke-miterlimit="13.2283" stroke-linecap="round" stroke-linejoin="round"/>
<path d="M200.74 148.8C201.21 148.73 202.11 148.2 202.55 148.07" stroke="black" stroke-width="3" stroke-miterlimit="13.2283" stroke-linecap="round" stroke-linejoin="round"/>
<path d="M282.5 237.84C276.86 236.74 271.36 233.11 265.69 232.34C263.18 232 259.55 232.12 256.73 233.69" stroke="black" stroke-width="4.24" stroke-miterlimit="10" stroke-linecap="round" stroke-linejoin="round"/>
<path d="M250.55 230.2C249.04 233.31 249.61 237.92 253.47 239.14" stroke="black" stroke-width="3" stroke-miterlimit="10" stroke-linecap="round" stroke-linejoin="round"/>
</svg>
