<svg width="450" height="450" viewBox="0 0 450 450" fill="none" xmlns="http://www.w3.org/2000/svg">
<path d="M190.53 93.3L175.24 99.87L163.08 115.61L149.48 137.89L136.84 151.26L126.78 153.91L143.19 157.37H154.46L147 168.14L138.82 172.95L151.7 181.44L165.64 184.58L172.15 179.55L174.76 183.63L184.51 184.16L198.09 174.27L204.67 189.64L213.78 195.64L231.16 197.62L221.54 184.44L217.43 174.76L216.26 160.73L222.34 160.63L232.27 157.71L242.58 145.47L251.01 124.16L253.07 126.56L252.64 135.59L274.67 132.99L275.52 116.77L283 118.84L287.63 123.3L291.14 129.45L313.99 126.49L321.17 127.05L320.37 120.79L328.78 125.06L340.6 134.49L349.12 136.12L354.11 134.49L345.22 117.02L338.05 105.99L329.12 96.2001L338.05 92.01L340.72 85.8L341.69 79.8301L339.99 74.04L336.76 77.71L325.29 80.48L303.66 77.71L283.71 69.24L255.48 67.38L228.68 73.14L210.08 82.17L199.94 92.67L190.53 93.3Z" fill="#1CA88E" stroke="#A8A8A8" stroke-miterlimit="10"/>
<path d="M216.81 152.71C218.36 135.59 224.61 122.31 229.88 113.94" stroke="black" stroke-width="3" stroke-miterlimit="10" stroke-linecap="round" stroke-linejoin="round"/>
<path d="M199.94 92.67C209.87 80.94 229.87 69.23 252.97 67.54C265.87 66.59 274.71 67.33 287.31 71.41C300.37 75.64 308.4 79.56 316.31 80.24C326.16 81.09 337.45 80.38 339.99 74.03C342.53 82.92 336.93 98.85 327.75 97.01" stroke="black" stroke-width="4" stroke-miterlimit="10" stroke-linecap="round" stroke-linejoin="round"/>
<path d="M355.25 134.49C350.59 137.45 345.26 136 338.86 132.99C331.68 129.61 331.54 124.57 320.37 120.78" stroke="black" stroke-width="3" stroke-miterlimit="10" stroke-linecap="round" stroke-linejoin="round"/>
<path d="M320.51 93.38C326.02 94.93 337.74 102.9 343.82 114.13C351.57 128.45 349.32 130.8 355.25 134.49" stroke="black" stroke-width="4" stroke-miterlimit="10" stroke-linecap="round" stroke-linejoin="round"/>
<path d="M252.64 135.59C253.31 127.97 252.96 123.66 251.69 120.35" stroke="black" stroke-width="3" stroke-miterlimit="10" stroke-linecap="round" stroke-linejoin="round"/>
<path d="M273.36 106.37C275.52 112.7 276.37 126.19 274.68 133C269.03 135.05 255.86 134.09 252.65 135.59" stroke="black" stroke-width="3" stroke-miterlimit="10" stroke-linecap="round" stroke-linejoin="round"/>
<path d="M311.38 99.36C317.6 104.11 320.51 118.96 321.17 127.06C309.92 124.59 295.52 130.83 291.15 129.46C288.19 119.3 278.73 116.97 275.53 116.78" stroke="black" stroke-width="3" stroke-miterlimit="10" stroke-linecap="round" stroke-linejoin="round"/>
<path d="M211.38 157.8C218.44 155.08 228.18 131.52 229.87 124.58" stroke="black" stroke-width="3" stroke-miterlimit="10" stroke-linecap="round" stroke-linejoin="round"/>
<path d="M251.97 112.7C252.56 121.1 242.93 145.62 238.42 150.98C235.92 153.95 231.03 159.12 224.94 159.92C219.33 160.66 214.88 159.84 211.39 157.8" stroke="black" stroke-width="3" stroke-miterlimit="10" stroke-linecap="round" stroke-linejoin="round"/>
<path d="M216.26 160.73C215.25 182.93 225.44 192.6 234.09 196.93C226.14 199.61 213.42 196.08 207.56 191.54C202.59 187.69 200.36 182.98 198.64 176.64C195.06 163.46 198.06 143.21 212.37 124.58" stroke="black" stroke-width="4" stroke-miterlimit="10" stroke-linecap="round" stroke-linejoin="round"/>
<path d="M202.77 94.51C196.56 92.82 187.72 91.87 177.5 98.89C165.36 107.22 160.61 121.57 155.15 129.67C149.69 137.76 140.09 153.95 124.47 153.01C131.06 155.83 145.93 159.79 155.15 155.46" stroke="black" stroke-width="4" stroke-miterlimit="10" stroke-linecap="round" stroke-linejoin="round"/>
<path d="M160.04 144.34C159.1 148.29 150.82 170.31 137.64 172.95C142.16 177.09 157.17 185.71 165.64 184.58C170.09 182.67 173.35 178.39 174.77 175.81" stroke="black" stroke-width="4" stroke-miterlimit="10" stroke-linecap="round" stroke-linejoin="round"/>
<path d="M178.91 168.68C174.95 174.77 174.11 176.6 173.46 181.72C175.84 182.66 179.94 182.71 184.7 181.19C190.85 179.23 194.99 176.32 197.59 171.1" stroke="black" stroke-width="4" stroke-miterlimit="10" stroke-linecap="round" stroke-linejoin="round"/>
<path d="M211.38 90.7001C213.5 89.0101 221.76 84.56 227.9 84.21" stroke="black" stroke-width="3" stroke-miterlimit="10" stroke-linecap="round" stroke-linejoin="round"/>
<path d="M179.05 109.24C185.36 104.25 195.61 100.3 202.01 102.18" stroke="black" stroke-width="3" stroke-miterlimit="10" stroke-linecap="round" stroke-linejoin="round"/>
<path d="M197.27 109.97C194.51 110.25 191.59 111.87 187.34 114.79C183.52 117.41 179.34 121.7 176.89 126.46" stroke="black" stroke-width="3" stroke-miterlimit="10" stroke-linecap="round" stroke-linejoin="round"/>
<path d="M214.06 96.36C217.45 95.64 222.25 95.85 225.21 97.12" stroke="black" stroke-width="3" stroke-miterlimit="10" stroke-linecap="round" stroke-linejoin="round"/>
<path d="M291.3 106.37C295.64 110.61 299.94 117.32 302.6 127.97" stroke="black" stroke-width="3" stroke-miterlimit="10" stroke-linecap="round" stroke-linejoin="round"/>
<path d="M184.13 157.8C185.82 152.44 189.4 138.51 195.8 131.92" stroke="black" stroke-width="3" stroke-miterlimit="10" stroke-linecap="round" stroke-linejoin="round"/>
<path d="M258.49 134.49C259.24 131.16 259.43 125.33 258.49 119.31" stroke="black" stroke-width="3" stroke-miterlimit="10" stroke-linecap="round" stroke-linejoin="round"/>
<path d="M316.6 107.01C322.2 108.06 328.63 112.86 332.12 117.94" stroke="black" stroke-width="3" stroke-miterlimit="10" stroke-linecap="round" stroke-linejoin="round"/>
<path d="M309.22 126.9C308.51 124.3 307.38 116.91 303.57 112.2" stroke="black" stroke-width="3" stroke-miterlimit="10" stroke-linecap="round" stroke-linejoin="round"/>
<path d="M143.4 177.09C149.4 175.12 160.42 169.55 164.93 157.37" stroke="black" stroke-width="3" stroke-miterlimit="10" stroke-linecap="round" stroke-linejoin="round"/>
</svg>
