<svg width="100%" height="100%" viewBox="0 0 450 450" fill="none" xmlns="http://www.w3.org/2000/svg" style="display: block;">

<path d="M176.53 93.29L161.24 99.8701L149.07 115.61L135.48 137.88L122.84 151.25L112.77 153.9L129.19 157.36H140.46L133 168.13L124.81 172.95L137.69 181.43L151.64 184.57L158.14 179.54L160.76 183.63L170.5 184.15L184.08 174.26L190.67 189.64L199.78 195.63L217.16 197.61L207.54 184.43L203.42 174.75L202.26 160.72L208.34 160.62L218.27 157.7L228.58 145.47L237.01 124.15L239.07 126.55L239.09 140.22L261.12 137.62L261.52 116.76L268.06 120.74L272.56 125.31L275.21 136.03L275.59 141.18H297.65L298.13 144.55L309.96 142.97L317.35 137.62L317.14 130.1L324.48 135.58L340.57 131.87L331.22 117.01L324.05 105.98L315.12 96.2L324.05 92.01L326.72 85.8L327.68 79.8201L325.99 74.03L322.76 77.7L311.28 80.47L289.66 77.7L269.71 69.23L241.47 67.3701L214.68 73.1299L196.08 82.1599L185.94 92.6699L176.53 93.29Z" fill="COLOR_PLACEHOLDER"/>
<path d="M202.8 152.7C204.35 135.58 210.6 122.3 215.87 113.93" stroke="black" stroke-width="3" stroke-miterlimit="10" stroke-linecap="round" stroke-linejoin="round"/>
<path d="M185.94 92.6699C195.87 80.9399 215.87 69.23 238.97 67.54C251.87 66.59 260.71 67.3299 273.31 71.4099C286.37 75.6399 294.4 79.56 302.31 80.24C312.16 81.09 323.45 80.38 325.99 74.03C328.53 82.92 322.93 98.85 313.75 97.01" stroke="black" stroke-width="4" stroke-miterlimit="10" stroke-linecap="round" stroke-linejoin="round"/>
<path d="M340.57 131.87C335.91 134.83 330.76 135.12 323.72 134.48C320.05 131.88 318.34 128.77 314.96 127.79" stroke="black" stroke-width="3" stroke-miterlimit="10" stroke-linecap="round" stroke-linejoin="round"/>
<path d="M307.05 91.4499C309.46 92.2099 311.48 93.2799 313.47 94.4599C315.44 95.6499 317.31 96.9698 319.08 98.3998C322.61 101.28 325.82 104.59 328.43 108.38C329.11 109.31 329.67 110.32 330.27 111.3C330.8 112.32 331.38 113.36 331.82 114.34L334.67 120.27C336.59 124.18 338.6 127.93 341.61 130.78C342.21 131.35 342.24 132.3 341.67 132.9C341.1 133.5 340.16 133.53 339.56 132.97L339.55 132.96C337.84 131.38 336.35 129.54 335.09 127.62C333.84 125.7 332.77 123.72 331.75 121.74L328.77 115.83C328.28 114.82 327.77 113.95 327.27 113.02C326.7 112.14 326.18 111.23 325.54 110.39C323.1 106.97 320.07 103.95 316.74 101.33C315.07 100.02 313.31 98.84 311.5 97.78C309.7 96.74 307.78 95.7999 305.97 95.2699L305.89 95.2499C304.83 94.9399 304.22 93.8299 304.53 92.7699C304.84 91.7099 305.95 91.0998 307.01 91.4098C307.02 91.4398 307.04 91.4399 307.05 91.4499Z" fill="black"/>
<path d="M239.09 140.22C239.76 132.6 238.96 123.66 237.69 120.34" stroke="black" stroke-width="3" stroke-miterlimit="10" stroke-linecap="round" stroke-linejoin="round"/>
<path d="M259.35 106.36C261.51 112.69 262.81 130.82 261.12 137.62C255.47 139.67 242.3 138.71 239.09 140.21" stroke="black" stroke-width="4" stroke-miterlimit="10" stroke-linecap="round" stroke-linejoin="round"/>
<path d="M318.95 137.11C317.89 139.4 316.08 140.82 314.31 141.98C312.51 143.13 310.61 143.99 308.67 144.7C306.73 145.41 304.74 145.96 302.7 146.35C301.68 146.54 300.64 146.69 299.57 146.77C298.49 146.84 297.4 146.87 296.12 146.63L295.87 146.57C294.94 146.34 294.38 145.4 294.61 144.48C294.66 144.28 294.74 144.1 294.85 143.94C295.15 143.5 295.4 143.06 295.6 142.59C295.8 142.12 295.96 141.53 296.2 140.83L297.85 142.69C294.14 143.25 290.4 143.61 286.64 143.76C284.76 143.84 282.87 143.86 280.97 143.8C280.02 143.76 279.06 143.72 278.08 143.62C277.09 143.52 276.14 143.42 274.99 143.1C274.05 142.84 273.46 141.92 273.6 140.97L273.61 140.93C273.91 138.8 273.74 136.55 273.13 134.35C272.54 132.15 271.59 129.99 270.41 127.96C269.24 125.92 267.82 123.99 266.25 122.23C265.46 121.35 264.63 120.52 263.75 119.78C263.31 119.42 262.87 119.06 262.42 118.79C262.02 118.51 261.46 118.29 261.42 118.28L261.24 118.25C260.42 118.13 259.86 117.36 259.99 116.55C260.11 115.76 260.82 115.21 261.61 115.28C262.21 115.34 262.67 115.49 263.02 115.65C263.4 115.81 263.71 115.99 264.03 116.17C264.65 116.53 265.19 116.94 265.72 117.35C266.77 118.18 267.72 119.07 268.63 120.01C270.43 121.89 272.03 123.93 273.41 126.15C274.79 128.36 275.95 130.75 276.73 133.32C277.52 135.88 277.87 138.66 277.57 141.46L276.19 139.29C276.81 139.5 277.7 139.66 278.54 139.78C279.4 139.91 280.29 139.99 281.18 140.06C282.96 140.2 284.77 140.26 286.59 140.26C290.22 140.28 293.86 140.09 297.48 139.71H297.52C298.34 139.62 299.08 140.22 299.17 141.05C299.19 141.23 299.17 141.41 299.13 141.57C299.06 142.1 299.02 142.76 298.88 143.51C298.74 144.25 298.5 144.99 298.23 145.67L296.96 142.97C297.61 143.12 298.51 143.16 299.39 143.12C300.28 143.08 301.21 142.98 302.12 142.84C303.96 142.56 305.8 142.11 307.58 141.52C309.36 140.94 311.09 140.21 312.65 139.28C314.19 138.37 315.59 137.2 316.23 135.89L316.26 135.83C316.62 135.09 317.52 134.78 318.27 135.14C318.99 135.49 319.29 136.37 318.95 137.11Z" fill="black"/>
<path d="M297.38 99.3501C303.6 104.1 316.93 128.4 317.59 136.49" stroke="black" stroke-width="3" stroke-miterlimit="10" stroke-linecap="round" stroke-linejoin="round"/>
<path d="M197.38 157.79C204.44 155.07 214.18 131.51 215.87 124.57" stroke="black" stroke-width="3" stroke-miterlimit="10" stroke-linecap="round" stroke-linejoin="round"/>
<path d="M237.97 112.69C238.56 121.09 228.93 145.61 224.42 150.97C221.92 153.94 217.03 159.11 210.94 159.91C205.33 160.65 200.88 159.83 197.39 157.79" stroke="black" stroke-width="3" stroke-miterlimit="10" stroke-linecap="round" stroke-linejoin="round"/>
<path d="M202.26 160.72C201.25 182.92 211.44 192.59 220.09 196.92C212.14 199.6 199.42 196.07 193.56 191.53C188.59 187.69 186.36 182.97 184.64 176.63C181.06 163.45 184.06 143.2 198.37 124.57" stroke="black" stroke-width="4" stroke-miterlimit="10" stroke-linecap="round" stroke-linejoin="round"/>
<path d="M188.77 94.4999C182.56 92.8099 173.72 91.8598 163.5 98.8798C151.36 107.21 146.61 121.56 141.15 129.66C135.69 137.75 126.09 153.94 110.47 153C117.06 155.82 131.93 159.78 141.15 155.45" stroke="black" stroke-width="4" stroke-miterlimit="10" stroke-linecap="round" stroke-linejoin="round"/>
<path d="M146.04 144.34C145.1 148.29 136.82 170.31 123.64 172.95C128.16 177.09 143.17 185.71 151.64 184.58C156.09 182.67 159.35 178.39 160.77 175.81" stroke="black" stroke-width="4" stroke-miterlimit="10" stroke-linecap="round" stroke-linejoin="round"/>
<path d="M164.91 168.67C160.95 174.76 160.11 176.59 159.46 181.71C161.84 182.65 165.94 182.7 170.7 181.18C176.85 179.22 180.99 176.31 183.59 171.09" stroke="black" stroke-width="4" stroke-miterlimit="10" stroke-linecap="round" stroke-linejoin="round"/>
<path d="M197.38 90.6899C199.5 88.9999 207.76 84.55 213.9 84.2" stroke="black" stroke-width="3" stroke-miterlimit="10" stroke-linecap="round" stroke-linejoin="round"/>
<path d="M165.05 109.23C171.36 104.24 181.61 100.29 188.01 102.17" stroke="black" stroke-width="3" stroke-miterlimit="10" stroke-linecap="round" stroke-linejoin="round"/>
<path d="M183.26 109.96C180.5 110.24 177.58 111.86 173.33 114.78C169.51 117.4 165.33 121.69 162.88 126.45" stroke="black" stroke-width="3" stroke-miterlimit="10" stroke-linecap="round" stroke-linejoin="round"/>
<path d="M200.06 96.35C203.45 95.63 208.25 95.84 211.21 97.11" stroke="black" stroke-width="3" stroke-miterlimit="10" stroke-linecap="round" stroke-linejoin="round"/>
<path d="M279.63 115.96C283.97 120.2 286.69 130.01 288.33 141.59" stroke="black" stroke-width="3" stroke-miterlimit="10" stroke-linecap="round" stroke-linejoin="round"/>
<path d="M170.13 157.79C171.82 152.43 175.4 138.5 181.8 131.91" stroke="black" stroke-width="3" stroke-miterlimit="10" stroke-linecap="round" stroke-linejoin="round"/>
<path d="M244.93 139.12C245.68 135.79 245.42 125.32 244.48 119.3" stroke="black" stroke-width="3" stroke-miterlimit="10" stroke-linecap="round" stroke-linejoin="round"/>
<path d="M303.91 105.53C305.36 105.85 306.58 106.44 307.7 107.09C308.27 107.41 308.78 107.79 309.32 108.13L310.83 109.27C312.78 110.84 314.55 112.55 316.23 114.35C319.56 117.96 322.55 121.85 325.03 126.14C325.44 126.86 325.2 127.78 324.48 128.19C323.76 128.6 322.85 128.36 322.43 127.64L322.42 127.62C320.1 123.6 317.2 119.83 314.03 116.39C312.44 114.67 310.75 113.05 308.95 111.61C307.18 110.19 305.18 108.9 303.36 108.47L303.24 108.44C302.43 108.25 301.94 107.44 302.13 106.64C302.32 105.85 303.11 105.35 303.91 105.53Z" fill="black"/>
<path d="M291.91 121.8C295.72 126.51 297.38 136.92 297.66 141.18" stroke="black" stroke-width="3" stroke-miterlimit="10" stroke-linecap="round" stroke-linejoin="round"/>
<path d="M129.4 177.08C135.4 175.11 146.42 169.54 150.93 157.36" stroke="black" stroke-width="3" stroke-miterlimit="10" stroke-linecap="round" stroke-linejoin="round"/>
</svg>
