<svg width="100%" height="100%" viewBox="0 0 450 450" fill="none" xmlns="http://www.w3.org/2000/svg" style="display: block;">
<path d="M251.57 112.83L257.8 111.84L285.67 120.17L290.95 122.09L291.2 109.77L287.94 88.3402L282.65 70.9502H273.55L259.79 90.3602L245.7 109.77L247.68 113.12L251.57 112.83Z" 
fill="COLOR_PLACEHOLDER"/>
<path d="M268.48 97.0003L271.5 85.7703L277.57 78.0503L281.11 86.4303L284 110.23L282.15 117.78L262.81 114.15L268.48 97.0003Z" fill="#FF91AC"/>
<path d="M246.13 114.15C246.13 114.15 240.91 98.9401 237.47 95.2001L224.71 70.7601C218.63 67.7001 217.03 68.6701 211.59 69.7201C206.17 70.7701 199.14 82.9801 196.35 87.7101C193.42 92.6801 187.89 112.43 186.2 124.39C185.36 130.3 182.63 143.02 184.35 147.53C186.75 149.22 192.62 148.43 197.2 146.58C202.72 144.35 206.15 142.07 207 140.17C205.3 135.46 204.08 127.51 204.86 121.7C205.96 113.49 206.39 108.77 210.37 104.43C212.86 104.77 216.59 103.26 218.57 104.11C221.44 105.35 224.41 107.16 226.53 109.28C228.53 111.28 230.69 114.34 231.91 115.83C232.85 116.97 235.93 120.43 235.93 120.43C238.19 120.95 239.83 120.82 241.95 119.87C244.11 118.87 245.99 116.14 246.13 114.15Z" 
fill="COLOR_PLACEHOLDER"/>
<path d="M235.25 117.88C234.37 123.11 226.88 127.36 226.14 127.89C220.81 133.4 209.62 136.79 205.74 136.12L203.39 131.62L205.53 105.26L213.67 81.7502L219.06 80.4502L227.6 97.1602L235.25 117.88Z" fill="#FF91AC"/>
<path d="M205.26 134.52C208.05 133.98 210.76 133.31 213.38 132.4C215.99 131.47 218.52 130.31 221.02 129C223.52 127.69 225.79 126.27 227.74 124.49C229.7 122.74 231.28 120.55 232.88 118.18C233.37 117.46 234.35 117.26 235.07 117.75C235.72 118.19 235.94 119.02 235.63 119.71C234.42 122.4 232.83 125.17 230.55 127.42C228.31 129.68 225.6 131.36 222.94 132.7C220.28 134.06 217.48 135.26 214.55 136.09C211.64 136.95 208.63 137.44 205.66 137.65C204.79 137.71 204.04 137.06 203.98 136.19C203.92 135.38 204.48 134.67 205.26 134.52Z" fill="#9F4F64"/>
<path d="M247.02 115.45C242.78 105.73 234.9 88.4602 230.44 80.9702C226.48 74.3202 221.64 67.0802 215.49 67.4702C209.18 67.8802 204.07 76.0902 198.14 88.5902C195.67 93.8102 190.69 106.94 187.62 119.93C185.97 126.94 183.67 141.11 184.34 147.52" stroke="black" stroke-width="4" stroke-miterlimit="10" stroke-linecap="round" stroke-linejoin="round"/>
<path d="M205.7 139.83C203.13 119.72 207.44 100.31 208.69 96.1504C210.11 91.4304 213.18 79.9804 216.48 79.0604C219.28 78.2804 221.63 82.3104 224.53 89.0004C228.06 97.1504 229.66 102.13 230.34 103.98C231.71 107.74 234.33 113.99 235.96 120.4" stroke="black" stroke-width="4" stroke-miterlimit="10" stroke-linecap="round" stroke-linejoin="round"/>
<path d="M245.29 110.74C249.18 103.4 254.05 96.5399 260.5 87.5099C270.38 73.6699 273.31 69.3199 278.78 69.7699C282.67 70.0999 284.8 74.3699 287.09 84.5299C289.62 95.7799 291.75 113.99 292.47 122.78" stroke="black" stroke-width="4" stroke-miterlimit="10" stroke-linecap="round" stroke-linejoin="round"/>
<path d="M263.38 112.57C266.56 103.28 269.74 92.9203 271.57 87.4703C273.84 80.7103 276.66 77.4503 278.13 78.1503C280.75 79.3903 285.43 105.92 283.07 118.88" stroke="black" stroke-width="3" stroke-miterlimit="10" stroke-linecap="round" stroke-linejoin="round"/>
<path d="M291.67 124.51C289.84 123.9 288.07 123.15 286.28 122.46C284.48 121.78 282.67 121.14 280.83 120.56C277.17 119.4 273.42 118.46 269.65 117.72C265.89 116.98 262.1 116.51 258.28 116.3C256.37 116.19 254.45 116.14 252.52 116.15C251.56 116.15 250.59 116.17 249.63 116.2C248.66 116.25 247.7 116.27 246.7 115.8L246.69 115.79C245.79 115.37 245.4 114.3 245.82 113.4C245.98 113.06 246.22 112.8 246.52 112.62C247.48 112.04 248.48 111.98 249.48 111.94C250.48 111.9 251.48 111.86 252.48 111.84C254.48 111.8 256.5 111.81 258.51 111.9C262.54 112.07 266.57 112.58 270.52 113.37C274.46 114.18 278.34 115.2 282.16 116.45C284.07 117.07 285.96 117.75 287.83 118.49C289.7 119.23 291.55 120.02 293.29 121.05C294.2 121.59 294.5 122.77 293.96 123.68C293.49 124.47 292.54 124.8 291.7 124.52L291.67 124.51Z" fill="black"/>
</svg>
