<svg width="450" height="450" viewBox="0 0 450 450" fill="none" xmlns="http://www.w3.org/2000/svg">
<path d="M251.57 112.82L257.8 111.83L287.22 116.25L290.54 117.03L293.15 105.87L291.32 82.38L284.75 69.77L272.68 71.78L257.32 86.3201L249.81 99.73L245.69 109.76L247.67 113.12L251.57 112.82Z" fill="#C088F9"/>
<path d="M260.71 106.55L273.04 83.54L281.26 79.21L284.74 89.27L285.74 107.39L282.44 115.53L266.55 112.77L259.58 112.56L258.8 110.18L260.71 106.55Z" fill="#FF91AC"/>
<path d="M246.89 114.31C246.89 114.31 240.91 98.94 237.47 95.19L224.71 70.75C218.63 67.69 217.03 68.6599 211.59 69.7099C206.17 70.7599 199.14 82.9701 196.35 87.7001C193.42 92.6701 187.89 112.42 186.2 124.38C185.36 130.29 183.64 139.63 185.36 144.14C187.01 146.61 191.01 148.02 196.75 147.37C202.67 146.69 206.07 142.47 206.1 139.82C204.4 135.11 204.09 127.51 204.86 121.7C205.96 113.49 206.39 108.77 210.37 104.43C212.86 104.77 216.59 103.26 218.57 104.11C221.44 105.35 224.41 107.16 226.53 109.28C228.53 111.28 230.69 114.34 231.91 115.83C232.85 116.97 233.4 120.43 234.74 121.21C236.76 122.4 239.67 121.43 241.79 120.47C243.95 119.48 246.89 114.31 246.89 114.31Z" fill="#C088F9"/>
<path d="M232.43 117.05C231.55 122.28 226.87 127.35 226.14 127.89C220.81 133.4 209.62 136.79 205.74 136.12L203.39 131.62L205.53 105.26L213.67 81.75L219.06 80.4501L227.6 97.16L232.43 117.05Z" fill="#FF91AC"/>
<path d="M204.76 136C209.11 136.67 215.23 134.17 221.25 130.63C228.66 126.27 233.04 121.33 233.36 118.3" stroke="#9F4F64" stroke-width="3" stroke-miterlimit="10" stroke-linecap="round" stroke-linejoin="round"/>
<path d="M205.69 139.83C203.12 119.72 206.95 98.39 208.2 94.22C209.62 89.5 212.96 80.1101 216.36 79.7701C218.41 79.5601 221.43 83.94 224.65 90.6C228.52 98.59 229.56 102.52 230.23 104.37C231.6 108.13 232.81 113.84 233.66 120.5C235.27 121.97 238.22 121.97 241.81 120.45C245.17 119.03 246.85 117.1 247.03 115.45C247.22 113.7 244.98 110.31 244.09 108.51C239.88 99.9601 234.48 88.8501 230.02 81.3701C226.06 74.7201 221.66 67.08 215.51 67.47C209.2 67.88 202.29 75.1901 196.37 87.6901C193.9 92.9101 187.62 110.47 186.3 119.92C185.48 125.83 184.04 135.91 185.24 143.21" stroke="black" stroke-width="4" stroke-miterlimit="10" stroke-linecap="round" stroke-linejoin="round"/>
<path d="M245.29 110.74C249.18 101.31 254.5 90.25 260.71 82.98C272.29 69.43 280.59 68.69 284.76 69.77C292.15 71.7 294.58 97.5401 291.25 118.56" stroke="black" stroke-width="4" stroke-miterlimit="10" stroke-linecap="round" stroke-linejoin="round"/>
<path d="M257.32 112.56C261.83 105.94 265.48 94.2799 270.95 87.2099C275.39 81.4699 279.25 78.7399 281.26 79.2099C285.26 80.1299 286.64 102.93 283.6 115.89" stroke="black" stroke-width="3" stroke-miterlimit="10" stroke-linecap="round" stroke-linejoin="round"/>
<path d="M296.47 121C289.13 117.13 277.96 113.41 265.64 112.71C259.27 112.35 252.66 112.63 246.52 113.22" stroke="black" stroke-width="4" stroke-miterlimit="10" stroke-linecap="round" stroke-linejoin="round"/>
</svg>
