<svg width="100%" height="100%" viewBox="0 0 450 450" fill="none" xmlns="http://www.w3.org/2000/svg" style="display: block;">
<path d="M259.44 111.46C259.71 110.28 259.56 109.19 259.63 108C259.72 106.51 259.65 105.04 259.65 103.55L259.68 97.1599C259.7 93.2199 259.71 89.2899 259.73 85.3499C259.73 84.5499 259.5 83.2999 259.74 82.5399C259.77 82.4399 259.03 83.1199 259.94 82.3099C260.15 82.1299 260.35 81.9499 260.56 81.7599C261.92 80.5699 263.26 79.3599 264.57 78.1299C269.45 73.5299 274 68.4899 277.58 62.7899C279.37 59.9399 280.94 56.8999 282.08 53.7299C282.65 52.1599 282.91 50.3799 282.2 48.8099C282.16 48.4799 282.05 48.1499 281.83 47.8399C280.86 46.4999 279.35 45.5799 277.73 45.6599C272.94 44.9999 267.87 49.2799 264.7 52.3499C262.44 54.5399 260.15 56.7699 258.16 59.2199C256.1 61.7399 254.27 64.4399 254.07 67.7599C252.65 70.6199 251.53 73.6599 250.61 76.7399C249.63 78.4499 248.93 80.3199 248.4 82.2499C247.48 85.6099 246.8 89.0499 246.37 92.4999C246.36 92.6199 246.34 92.7399 246.33 92.8499C245.9 96.7399 246.24 100.65 246.58 104.54C246.75 106.42 247.09 108.43 246.98 110.32C246.94 110.94 246.72 111.42 246.88 112.04C247.06 112.71 247.43 113.4 248.05 113.74C248.49 113.98 249.17 114.22 249.66 113.98C249.86 113.88 250.02 113.69 250.24 113.62C250.47 113.55 250.71 113.65 250.92 113.77C251.12 113.9 251.3 114.07 251.51 114.18C251.83 114.35 252.21 114.39 252.57 114.33C253.02 114.26 253.44 114.06 253.78 113.77C253.88 113.68 253.97 113.58 254.09 113.52C254.28 113.42 254.51 113.44 254.71 113.51C255.04 113.63 255.28 113.87 255.62 113.96C255.95 114.05 256.28 114.1 256.62 114.11C257.26 114.12 257.92 113.94 258.41 113.51C258.91 113.07 259.18 112.42 259.37 111.78C259.39 111.68 259.42 111.57 259.44 111.46Z" 
fill="COLOR_PLACEHOLDER"/>
<path d="M244.64 113.51C243.97 107.76 243.59 101.95 243.69 96.12C243.79 90.29 244.36 84.41 245.9 78.64C247.47 72.9 249.99 67.48 253.1 62.48C256.25 57.52 259.74 52.81 264.15 48.69C266.37 46.66 268.92 44.78 271.91 43.61C273.4 43.02 275.03 42.6 276.78 42.57C278.51 42.54 280.44 42.93 282.01 44.01L282.59 44.42C282.78 44.58 282.97 44.76 283.16 44.94C283.52 45.3 283.85 45.71 284.1 46.13C284.65 46.97 284.95 47.87 285.16 48.74C285.54 50.5 285.48 52.2 285.2 53.79C284.65 56.98 283.22 59.87 281.64 62.38C280.06 64.91 278.24 67.28 276.31 69.49C274.4 71.71 272.38 73.82 270.26 75.84C268.14 77.86 265.92 79.78 263.55 81.56C262.37 82.45 261.14 83.3 259.82 84.07C258.5 84.83 257.11 85.53 255.4 85.92C254.43 86.14 253.47 85.53 253.24 84.56C253.04 83.68 253.53 82.8 254.35 82.48L254.44 82.44C255.49 82.04 256.65 81.38 257.78 80.67C258.91 79.96 260.04 79.18 261.14 78.35C263.34 76.69 265.46 74.86 267.48 72.93C269.5 71 271.43 68.97 273.25 66.85C275.09 64.74 276.75 62.56 278.2 60.24C278.93 59.07 279.57 57.92 280.09 56.73C280.6 55.54 280.99 54.31 281.2 53.09C281.42 51.87 281.42 50.66 281.2 49.62C281.08 49.11 280.91 48.63 280.67 48.27C280.56 48.07 280.42 47.92 280.28 47.78L280.06 47.58L279.76 47.37C278.17 46.27 275.69 46.43 273.38 47.37C271.03 48.3 268.87 49.85 266.88 51.67C262.91 55.37 259.52 59.93 256.55 64.62C253.63 69.34 251.28 74.41 249.84 79.71C248.42 85 247.84 90.6 247.73 96.19C247.62 101.8 247.97 107.44 248.61 113.05V113.06C248.73 114.16 247.95 115.15 246.85 115.27C245.75 115.39 244.77 114.61 244.64 113.51Z" fill="black"/>
<path d="M258.6 112.56C260.02 104.43 260.01 90.0497 258.6 82.4897" stroke="black" stroke-width="4" stroke-miterlimit="10" stroke-linecap="round" stroke-linejoin="round"/>
<path d="M221.82 117.12C221.61 116.83 221.42 116.55 221.28 116.29C220.21 114.29 219.22 112.25 218.29 110.18C216.42 106.05 214.74 101.83 212.89 97.6901C211.31 94.1601 209.58 90.6801 207.48 87.4201C207.28 87.1101 207.08 86.8101 206.87 86.5101C208.48 84.8901 209.86 82.9401 211.15 81.2401C213.61 77.9901 215.78 74.5201 217.62 70.8901C219.55 67.1001 221 63.1001 222.88 59.2901C224.71 55.5501 226.54 51.6801 226.33 47.4101C226.32 47.1501 226.26 46.9101 226.18 46.6901C226.31 45.2201 226.1 43.7801 225.4 42.4001C225.37 42.3401 225.34 42.2801 225.3 42.2001C225.19 41.9901 225.08 41.7801 224.93 41.5901C224.81 41.4201 224.69 41.2401 224.56 41.0701C223.89 40.2001 222.93 40.1101 222.08 40.4501C220.77 40.1901 219.28 40.4501 218.09 40.7901C214.35 41.8601 211.5 44.6301 209.06 47.5301C206.59 50.4601 204.38 53.6001 202.51 56.9401C200.66 60.2501 198.51 63.9901 198.95 67.8901C196.98 73.0701 196.03 78.6301 196.23 84.1901C196.23 84.2501 196.25 84.3001 196.25 84.3501C196.25 85.1201 196.27 85.9001 196.3 86.6701C196.44 89.9301 196.81 93.1801 197.38 96.3901C197.94 99.5301 198.71 102.64 199.7 105.68C200.17 107.13 200.73 109.03 201.72 110.41C202.4 112.93 203.2 115.47 204.38 117.79C205.29 119.58 205.71 121.69 206.57 123.55C207.17 124.84 208.14 125.99 209.54 126.41C210.89 126.81 212.34 126.75 213.73 126.67C216.71 126.49 220.79 125.85 222.65 123.07C223.95 121.09 223.01 118.78 221.82 117.12Z" 
fill="COLOR_PLACEHOLDER"/>
<path d="M206.19 126.59C202.49 120.82 199.94 114.58 197.88 108.21C195.86 101.83 194.45 95.25 193.84 88.54C193.28 81.85 193.43 74.93 195.54 68.26C197.71 61.88 200.36 55.72 204.09 49.99C205.96 47.14 208.13 44.43 210.79 42.1C212.12 40.94 213.59 39.88 215.24 39.04C216.89 38.21 218.72 37.56 220.8 37.5C222.94 37.45 225.08 38.18 226.74 39.77C227.55 40.56 228.14 41.54 228.51 42.53C228.9 43.52 229.07 44.51 229.16 45.47C229.32 47.4 229.09 49.2 228.74 50.94C228.39 52.67 227.85 54.33 227.29 55.92C225.01 62.29 221.97 68.25 218.49 73.96C216.74 76.81 214.87 79.59 212.77 82.25C211.71 83.6 210.64 84.86 209.33 86.15C208.66 86.79 207.9 87.36 207.12 87.87C206.33 88.35 205.5 88.76 204.76 89.05L204.71 89.07C203.78 89.44 202.73 88.99 202.36 88.06C202.04 87.25 202.34 86.35 203.04 85.89C204.44 84.96 205.54 84.26 206.58 83.25C207.6 82.24 208.67 81 209.63 79.77C211.59 77.28 213.39 74.61 215.07 71.87C218.41 66.38 221.37 60.58 223.5 54.59C224.04 53.08 224.5 51.61 224.81 50.13C225.11 48.65 225.28 47.17 225.16 45.82C225.05 44.47 224.63 43.32 223.9 42.62C223.2 41.92 222 41.46 220.87 41.5C219.66 41.53 218.3 41.96 217.03 42.61C215.75 43.26 214.53 44.12 213.39 45.12C211.11 47.12 209.13 49.56 207.4 52.19C203.95 57.46 201.36 63.45 199.31 69.48C197.43 75.36 197.25 81.84 197.78 88.18C198.36 94.54 199.72 100.87 201.65 106.99C203.61 113.09 206.1 119.1 209.49 124.39L209.51 124.42C210.11 125.35 209.84 126.59 208.91 127.18C208.03 127.79 206.79 127.52 206.19 126.59Z" fill="black"/>
<path d="M207.38 85.27C210.69 90.85 218.41 114.95 223.68 120.97" stroke="black" stroke-width="4" stroke-miterlimit="10" stroke-linecap="round" stroke-linejoin="round"/>
<path d="M258.6 112.57C260.02 104.44 260.01 90.06 258.6 82.5" stroke="black" stroke-width="4" stroke-miterlimit="10" stroke-linecap="round" stroke-linejoin="round"/>
<path d="M261.31 114.3C257.01 113.93 252.63 113.91 247.72 114.16C246.24 114.24 244.75 114.33 243.26 114.45" stroke="black" stroke-width="4.24" stroke-miterlimit="10" stroke-linecap="round" stroke-linejoin="round"/>
</svg>
