<svg width="1440" height="126" viewBox="0 0 1440 126" fill="none" xmlns="http://www.w3.org/2000/svg">
<path d="M1020 79.0275C1003.43 61.6786 981.713 53 960 53C938.286 53.0003 916.566 61.6788 900 79.0278C883.433 96.3768 861.713 105.055 840 105.055C818.286 105.055 796.566 96.3767 780 79.0278C763.433 61.6788 741.713 53.0003 720 53.0003C698.286 53.0003 676.566 61.6788 660 79.0277C643.433 96.3767 621.713 105.055 600 105.055C578.286 105.055 556.566 96.3767 540 79.0277C523.433 61.6787 501.713 53.0002 480 53.0002C458.286 53.0002 436.566 61.6787 420 79.0277C403.433 96.3767 381.713 105.055 360 105.055C338.286 105.055 316.566 96.3766 300 79.0277C283.433 61.6787 261.713 53.0002 240 53.0002C218.286 53.0001 196.566 61.6787 180 79.0277C163.433 96.3766 141.713 105.055 120 105.055C98.2868 105.055 76.5667 96.3766 60 79.0276C43.4334 61.6786 21.7134 53.0001 4.80525e-05 53.0001L0 126L1440 126V53.0001C1418.29 53.0001 1396.57 61.6786 1380 79.0276C1363.43 96.3766 1341.71 105.055 1320 105.055C1298.29 105.055 1276.57 96.3766 1260 79.0276C1243.43 61.6786 1221.71 53.0001 1200 53.0001C1178.29 53.0001 1156.57 61.6786 1140 79.0276C1123.43 96.3766 1101.71 105.055 1080 105.055C1058.29 105.055 1036.57 96.3765 1020 79.0275Z" fill="#537CE6"/>
<path d="M1020 47.3131C1003.43 30.7467 981.713 22.4597 960 22.4597C938.286 22.4599 916.566 30.747 900 47.3134C883.433 63.8797 861.713 72.1668 840 72.1668C818.286 72.1668 796.566 63.8797 780 47.3133C763.433 30.7469 741.713 22.4599 720 22.4599C698.286 22.4599 676.566 30.7469 660 47.3133C643.433 63.8797 621.713 72.1667 600 72.1667C578.286 72.1667 556.566 63.8797 540 47.3133C523.433 30.7469 501.713 22.4599 480 22.4598C458.286 22.4598 436.566 30.7469 420 47.3133C403.433 63.8797 381.713 72.1667 360 72.1667C338.286 72.1667 316.566 63.8796 300 47.3132C283.433 30.7468 261.713 22.4598 240 22.4598C218.286 22.4598 196.566 30.7469 180 47.3132C163.433 63.8796 141.713 72.1667 120 72.1667C98.2867 72.1666 76.5666 63.8796 60 47.3132C43.4333 30.7468 21.7133 22.4598 0 22.4598V0H1440V22.4598C1418.29 22.4598 1396.57 30.7468 1380 47.3132C1363.43 63.8795 1341.71 72.1666 1320 72.1666C1298.29 72.1666 1276.57 63.8795 1260 47.3132C1243.43 30.7468 1221.71 22.4597 1200 22.4597C1178.29 22.4597 1156.57 30.7468 1140 47.3131C1123.43 63.8795 1101.71 72.1666 1080 72.1666C1058.29 72.1666 1036.57 63.8795 1020 47.3131Z" fill="#1CAA90"/>
<path d="M1440 11.1933L1437.35 10.62L1434.68 10.48L1432.03 10.84L1429.39 11.1333L1426.76 11.48L1424.11 11.7L1421.48 12.0533L1418.97 13.0667L1416.28 13.1267L1413.56 13.1867L1411.19 14.6733L1408.53 15.0133L1406.18 16.36L1403.29 16.0933L1400.99 17.5667L1398.38 18.1933L1396.31 20.1467L1393.84 21.0867L1391.35 21.9933L1388.65 22.5467L1386.51 24.2L1384.06 25.26L1381.66 26.44L1379.83 28.52L1377.79 30.2267L1375.18 31.1267L1373.07 32.7467L1370.78 34.1267L1369.33 36.5533L1367 37.9067L1365.03 39.6867L1363.17 41.5733L1361.06 43.2133L1359.47 45.4467L1357.38 47.1667L1355.23 48.8067L1353.13 50.5133L1350.75 51.82L1348.35 53.0533L1346.01 54.4L1343.36 55.06L1341.21 56.9067L1338.53 57.44L1335.75 57.5L1333.24 58.4333L1330.63 59.02L1328.07 59.96L1325.41 60.4933L1322.69 60.3533L1320 60.0667L1317.33 59.9267L1314.62 60.18L1311.91 60.12L1309.29 59.4667L1306.59 59.1733L1303.93 58.6133L1301.67 56.82L1299.2 55.84L1296.68 54.96L1293.86 54.6533L1291.85 52.7L1289.58 51.2867L1286.78 50.6533L1284.89 48.6467L1282.53 47.2867L1281.19 44.7333L1278.95 43.2L1276.92 41.4867L1275.27 39.3533L1272.66 38.2933L1270.74 36.4667L1268.68 34.8067L1266.83 32.88L1265.07 30.7667L1262.37 30L1260.11 28.62L1257.91 27.1333L1255.61 25.8333L1253.31 24.5133L1251.02 23.18L1248.69 21.9133L1246.61 20.0867L1244.05 19.2867L1241.45 18.6L1239.21 17.04L1236.63 16.3133L1233.89 16.1533L1231.41 15.1867L1228.73 14.92L1226.27 13.8733L1223.63 13.5267L1221.01 13.1533L1218.43 12.5733L1215.93 11.3733L1213.25 11.36L1210.61 11.0933L1208 10.3533L1205.29 11.2667L1202.65 11.0667L1200 10.0933L1197.33 10.0467L1194.67 10.1667L1192.07 11.2667L1189.4 11.2067L1186.71 11.0133L1184.15 11.9133L1181.57 12.62L1178.95 12.94L1176.23 12.8733L1173.65 13.54L1171.21 14.7467L1168.55 15.0467L1166.09 16.0667L1163.63 17.0667L1160.79 17.02L1158.36 18.14L1155.89 19.14L1153.41 20.1467L1151.29 21.8733L1148.71 22.66L1146.83 24.7733L1144.34 25.74L1141.92 26.8667L1140.03 28.8267L1137.52 29.8333L1134.99 30.8533L1133.36 33.12L1131.38 34.8867L1129.34 36.5667L1127.33 38.28L1124.65 39.2667L1123.1 41.5L1121.19 43.34L1118.98 44.9133L1116.91 46.6133L1115.15 48.7067L1112.95 50.2667L1110.81 51.9067L1108.32 52.9933L1105.66 53.6867L1103.71 55.8467L1100.87 56.04L1098.7 57.94L1095.92 58.1L1093.41 59.18L1090.62 58.9333L1088.06 59.9133L1085.4 60.4133L1082.71 60.7267L1080 60.5667L1077.33 59.9867L1074.57 60.6867L1071.99 59.5667L1069.25 59.6733L1066.8 58.2533L1063.99 58.4067L1061.55 57.2L1058.87 56.7L1056.4 55.6067L1053.8 54.7667L1051.56 53.2133L1049.19 51.9133L1047.24 49.98L1045.09 48.3933L1043.19 46.4867L1041.14 44.78L1039.16 42.9933L1037.09 41.3067L1035 39.6467L1033.24 37.6333L1030.69 36.54L1028.64 34.86L1026.95 32.72L1024.45 31.64L1022.27 30.14L1020.2 28.4667L1017.99 27L1015.62 25.8067L1013.28 24.5667L1010.99 23.24L1008.48 22.3467L1006.21 20.96L1004.15 19.0533L1001.49 18.5133L998.94 17.76L996.647 16.2667L994.087 15.5133L991.26 15.7067L988.96 14.08L986.36 13.5067L983.753 12.98L981.153 12.4133L978.553 11.8467L975.813 12.2133L973.307 10.9067L970.56 11.6067L967.913 11.5267L965.3 10.9667L962.667 10.1L960 11.1867V11.0133L957.333 10.1133L954.68 10.5267L952.087 11.56L949.387 11.06L946.68 10.78L944.12 11.7333L941.513 12.2333L938.96 13.0133L936.253 13L933.66 13.6067L930.993 13.9067L928.627 15.3267L926.14 16.2467L923.653 17.1533L921.113 17.9067L918.367 18.16L915.833 19.0133L913.84 21.08L911.333 21.9667L909.153 23.52L906.787 24.6933L903.987 25.1267L901.667 26.4533L899.333 27.7467L897.133 29.26L895.627 31.7467L893.42 33.2067L890.687 34.0133L888.66 35.7467L886.66 37.5133L884.713 39.3333L882.807 41.1933L881.22 43.3733L879.253 45.2133L877.06 46.7867L874.893 48.3667L872.767 49.9933L870.647 51.6533L868.08 52.5733L866.067 54.5133L863.533 55.4467L861.147 56.7333L858.547 57.4867L855.873 57.9467L853.407 59.16L850.68 59.2667L848.127 60.3933L845.407 60.4733L842.667 59.7733L840 60.2133L837.293 60.72L834.587 60.5333L832.04 59.2L829.193 59.9467L826.52 59.4533L823.987 58.44L821.407 57.6133L819.173 55.92L816.373 55.6667L814.167 54.0333L811.56 53.22L809.147 51.9867L807.227 50L804.873 48.6733L802.647 47.14L801.193 44.7267L798.52 43.6333L797.327 41.0533L795.073 39.5733L792.6 38.36L791.007 36.1533L788.78 34.68L786.74 32.9933L784.893 31.0133L782.493 29.8067L780.22 28.4467L778.4 26.3333L775.533 25.96L773.693 23.8067L770.827 23.5533L768.927 21.4267L766.293 20.7733L763.933 19.5467L761.527 18.42L758.893 17.8733L756.293 17.2933L753.787 16.4667L751.38 15.2867L748.813 14.64L746.393 13.3667L743.633 13.5267L741.093 12.72L738.547 11.8933L735.913 11.5067L733.213 11.6933L730.593 11.2867L727.973 10.68L725.333 10.1667L722.667 10.1133L720 10.4267L717.327 10.02L714.693 10.8467L712.027 10.68L709.413 11.3267L706.8 11.7733L704.08 11.44L701.52 12.3L698.913 12.7867L696.307 13.2733L693.707 13.7867L690.993 13.92L688.727 15.66L686.173 16.3533L683.333 16.2267L681.047 17.72L678.607 18.7667L676.113 19.6733L673.673 20.7067L671.133 21.5533L668.847 22.9333L666.433 24.0533L664.293 25.66L662.053 27.08L659.38 27.82L657.527 29.84L655.113 31.0267L652.993 32.6333L651.367 34.8733L649.233 36.44L647.133 38.0533L644.967 39.6067L643.167 41.5733L641.413 43.5667L638.993 44.9267L637.18 46.9267L634.747 48.1733L632.973 50.2867L630.307 51.1133L628.207 52.8L626.027 54.4267L623.58 55.5667L620.873 56.04L618.307 56.7667L615.92 58.1067L613.26 58.5267L610.707 59.4333L608.133 60.4333L605.413 60.5467L602.68 60.1133L600 60.22L597.307 60.36L594.627 60.14L591.94 59.8933L589.313 59.3267L586.607 59.0867L584.2 57.6667L581.673 56.82L578.927 56.54L576.587 55.18L574.06 54.2533L571.353 53.58L569.013 52.2067L567.327 49.8533L564.747 48.8333L562.827 46.92L560.773 45.1867L559.107 43.0533L557.193 41.1933L555.22 39.4067L552.867 38.0533L550.653 36.5733L549.307 34.02L547.06 32.56L544.34 31.7933L542.713 29.4867L540.627 27.8067L538.347 26.42L535.84 25.42L533.633 23.9267L531.267 22.7L528.527 22.2467L526.227 20.92L523.88 19.6733L521.28 19.0467L518.853 17.98L516.327 17.1933L514.153 15.32L511.527 14.7933L508.88 14.3733L506.253 13.94L503.773 12.9L501.173 12.32L498.527 11.9933L495.8 12.3133L493.28 11.1L490.6 11.1867L487.92 11.4867L485.327 10.3667L482.673 10L480 11.1933L477.347 10.62L474.68 10.48L472.033 10.84L469.393 11.1333L466.76 11.48L464.113 11.7L461.48 12.0533L458.967 13.0667L456.28 13.1267L453.56 13.1867L451.193 14.6733L448.533 15.0133L446.18 16.36L443.287 16.0933L440.987 17.5667L438.38 18.1933L436.313 20.1467L433.84 21.0867L431.347 21.9933L428.647 22.5467L426.513 24.2L424.06 25.26L421.66 26.44L419.827 28.52L417.787 30.2267L415.18 31.1267L413.073 32.7467L410.78 34.1267L409.327 36.5533L407 37.9067L405.033 39.6867L403.167 41.5733L401.06 43.2133L399.467 45.4467L397.38 47.1667L395.227 48.8067L393.127 50.5133L390.747 51.82L388.347 53.0533L386.013 54.4L383.36 55.06L381.213 56.9067L378.527 57.44L375.753 57.5L373.24 58.4333L370.633 59.02L368.067 59.96L365.407 60.4933L362.693 60.3533L360 60.0667L357.327 59.9267L354.62 60.18L351.913 60.12L349.287 59.4667L346.587 59.1733L343.933 58.6133L341.673 56.82L339.2 55.84L336.68 54.96L333.86 54.6533L331.847 52.7L329.58 51.2867L326.78 50.6533L324.893 48.6467L322.527 47.2867L321.187 44.7333L318.953 43.2L316.92 41.4867L315.267 39.3533L312.66 38.2933L310.74 36.4667L308.68 34.8067L306.827 32.88L305.073 30.7667L302.367 30L300.107 28.62L297.913 27.1333L295.607 25.8333L293.307 24.5133L291.02 23.18L288.693 21.9133L286.607 20.0867L284.047 19.2867L281.453 18.6L279.207 17.04L276.633 16.3133L273.887 16.1533L271.413 15.1867L268.733 14.92L266.273 13.8733L263.633 13.5267L261.013 13.1533L258.433 12.5733L255.933 11.3733L253.253 11.36L250.607 11.0933L248 10.3533L245.287 11.2667L242.647 11.0667L240 10.0933L237.333 10.0467L234.667 10.1667L232.067 11.2667L229.4 11.2067L226.707 11.0133L224.147 11.9133L221.573 12.62L218.947 12.94L216.227 12.8733L213.647 13.54L211.213 14.7467L208.547 15.0467L206.087 16.0667L203.627 17.0667L200.787 17.02L198.36 18.14L195.887 19.14L193.413 20.1467L191.287 21.8733L188.707 22.66L186.833 24.7733L184.34 25.74L181.92 26.8667L180.027 28.8267L177.52 29.8333L174.987 30.8533L173.36 33.12L171.38 34.8867L169.34 36.5667L167.327 38.28L164.653 39.2667L163.1 41.5L161.187 43.34L158.98 44.9133L156.913 46.6133L155.153 48.7067L152.953 50.2667L150.807 51.9067L148.32 52.9933L145.66 53.6867L143.707 55.8467L140.873 56.04L138.7 57.94L135.92 58.1L133.413 59.18L130.62 58.9333L128.06 59.9133L125.4 60.4133L122.707 60.7267L120 60.5667L117.327 59.9867L114.573 60.6867L111.987 59.5667L109.247 59.6733L106.8 58.2533L103.993 58.4067L101.547 57.2L98.8667 56.7L96.4 55.6067L93.8 54.7667L91.56 53.2133L89.1933 51.9133L87.24 49.98L85.0867 48.3933L83.1933 46.4867L81.14 44.78L79.16 42.9933L77.0867 41.3067L75 39.6467L73.24 37.6333L70.6867 36.54L68.64 34.86L66.9467 32.72L64.4467 31.64L62.2733 30.14L60.2 28.4667L57.9933 27L55.62 25.8067L53.28 24.5667L50.9867 23.24L48.48 22.3467L46.2133 20.96L44.1467 19.0533L41.4933 18.5133L38.94 17.76L36.6467 16.2667L34.0867 15.5133L31.26 15.7067L28.96 14.08L26.36 13.5067L23.7533 12.98L21.1533 12.4133L18.5533 11.8467L15.8133 12.2133L13.3067 10.9067L10.56 11.6067L7.91333 11.5267L5.3 10.9667L2.66667 10.1L0 11.1867V64.1933L2.66 64.66L5.32667 64.6867L8.12 63.9333L10.74 64.7L13.34 65.44L15.8467 66.48L18.4267 67.1733L20.9667 68.0467L23.5 68.9267L25.66 70.6133L28.2467 71.44L30.7667 72.4667L32.5333 74.66L34.84 76.0133L37.0667 77.5133L38.7533 79.64L40.6867 81.4667L42.9933 82.92L45.3467 84.28L46.8133 86.62L48.74 88.46L50.6933 90.2867L53.5467 90.9333L55.24 93.1L57.22 94.9133L59.3933 96.4667L62.18 97.0267L64.52 98.2533L66.7067 99.7667L68.8333 101.42L71.2133 102.587L73.8933 103.127L76.3 104.213L78.4533 105.947L81.08 106.507L83.6867 107.067L85.96 108.633L88.5933 109.113L91.06 110.153L93.6733 110.653L96.2 111.54L98.7733 112.293L101.6 111.533L104.193 112.067L106.747 112.953L109.387 113.253L112.047 113.32L114.687 113.587L117.34 113.767L120 113.26L122.647 113.213L125.3 113.427L127.94 113.167L130.633 113.487L133.207 112.547L135.807 112.053L138.4 111.54L141.24 112.333L143.607 110.633L146.307 110.567L148.793 109.6L151.307 108.753L153.953 108.353L156.66 108.06L159.107 107L161.573 105.993L164.147 105.253L166.2 103.313L169.02 103.06L171.147 101.367L173.727 100.553L175.973 99.1067L178.113 97.5L180.04 95.5933L182.247 94.1267L185.04 93.4933L186.467 90.9533L189.053 89.9667L190.86 87.98L193.273 86.72L195.047 84.7067L197.167 83.0867L199.093 81.2467L200.48 78.8L202.773 77.32L204.573 75.2333L207.093 74.1133L209.36 72.66L211.767 71.46L213.833 69.6067L216.56 69.0733L218.967 67.86L221.6 67.26L224.073 66.18L226.627 65.3067L229.313 64.98L231.98 64.68L234.58 63.68L237.313 64.0333L240 63.58L242.7 63.76L245.38 64.1067L248.107 64.06L250.587 65.5533L253.32 65.54L255.84 66.5L258.373 67.34L260.887 68.2467L263.633 68.6267L265.72 70.5L268.553 70.8867L270.74 72.5067L273.113 73.8133L275.193 75.5467L277.073 77.5L279.413 78.92L281.093 81.06L283.453 82.4333L285.053 84.6L287.36 85.9867L288.94 88.22L291.34 89.4733L293.333 91.2133L295.287 93.0333L297.48 94.5333L299.447 96.38L301.913 97.46L303.993 99.1733L306.3 100.507L309.147 100.807L310.973 103.087L313.74 103.453L316.027 104.853L318.767 105.16L320.793 107.273L323.673 107.113L325.9 108.833L328.667 108.847L331.247 109.453L333.653 110.733L336.407 110.573L338.813 112.06L341.5 112.133L344.167 112.233L346.76 112.88L349.42 112.907L352.013 113.787L354.72 112.887L357.36 113.087L360 113.633L362.653 113.593L365.307 113.48L367.927 112.94L370.667 113.807L373.28 113.173L375.947 113.053L378.453 111.873L381.213 112.193L383.84 111.713L386.447 111.153L388.733 109.373L391.587 109.72L393.967 108.4L396.613 107.927L399.113 107.013L401.667 106.233L403.96 104.813L406.4 103.753L408.467 101.927L411.407 101.867L413.433 100.02L415.527 98.34L417.787 96.9667L420.227 95.88L422.633 94.7L424.893 93.2933L427.007 91.6733L429.3 90.28L431.027 88.18L432.967 86.3667L434.913 84.56L437.08 82.9933L439.047 81.2L440.993 79.3667L442.627 77.1467L444.993 75.7933L447.367 74.5067L449.513 72.9133L451.9 71.7L453.767 69.4667L456.313 68.5133L458.88 67.64L461.427 66.7467L463.893 65.54L466.627 65.3067L469.3 64.9133L471.98 64.6533L474.587 63.7533L477.34 64.6333L480 63.3733L482.707 63.6L485.367 64.2333L488.087 64.1867L490.607 65.4467L493.433 65.0533L495.987 65.98L498.433 67.16L501.027 67.8867L503.413 69.1267L505.827 70.2933L508.487 71.0133L510.673 72.6133L512.66 74.4667L515.087 75.6933L516.773 77.8667L519.46 78.8733L521.433 80.72L523.433 82.4533L524.7 84.9867L527.347 86L528.667 88.5533L531.313 89.5067L533 91.66L535.073 93.3333L537.72 94.18L539.4 96.4533L542.167 97.0533L544.34 98.5667L546.227 100.64L548.853 101.367L551.073 102.887L553.613 103.74L555.887 105.173L558.507 105.807L561.1 106.447L563.58 107.38L565.86 108.947L568.407 109.76L571.2 109.613L573.68 110.627L576.227 111.433L578.967 111.253L581.46 112.38L584.06 113.007L586.733 113.087L589.393 113.22L592.013 113.813L594.68 113.753L597.34 113.92L600 113.873L602.667 114.293L605.32 113.873L607.92 112.82L610.66 113.773L613.253 112.987L615.88 112.587L618.527 112.313L621.027 111.227L623.78 111.453L626.453 111.173L628.933 110.127L631.38 109.013L633.987 108.46L636.5 107.607L638.8 106.167L641.62 106.113L643.953 104.793L646.48 103.927L648.46 101.92L651.407 101.873L653.733 100.567L655.56 98.4L658.073 97.4333L660.62 96.4867L662.647 94.72L664.46 92.68L666.58 91.1L669.273 90.2467L671.007 88.1533L672.667 86.02L674.607 84.2267L677.033 82.9467L679.267 81.42L680.753 79.1L682.433 76.9133L684.867 75.6267L687.193 74.26L689.027 72.1333L691.447 70.8867L694.013 69.96L696.22 68.2933L699.18 68.4133L701.467 66.8533L704.073 66.18L706.587 65.14L709.327 65.0667L711.92 64.2267L714.58 63.66L717.293 63.6267L720 63.5533L722.713 63.46L725.327 64.7067L727.987 64.9133L730.8 64.4L733.387 65.2533L735.84 66.48L738.567 66.76L740.82 68.42L743.433 69.08L746.073 69.7933L748.647 70.72L750.36 73.1133L752.573 74.5933L755.26 75.46L757.22 77.3267L759.007 79.36L761.22 80.9333L763.18 82.72L765.1 84.5467L767.253 86.1133L768.807 88.38L771.027 89.8733L773.373 91.1667L775.213 93.14L777.12 95.0667L779.673 96.0333L781.747 97.7333L783.96 99.2267L786.58 99.9933L788.98 101.133L791.167 102.687L793.56 103.847L795.967 104.993L798.427 106L800.86 107.087L803.587 107.367L805.9 108.827L808.593 109.113L811.273 109.34L813.727 110.44L816.347 110.867L819.007 111.067L821.6 111.553L824.06 113.013L826.753 112.9L829.44 112.72L832.04 113.433L834.667 114.093L837.333 114.02L840 113.087L842.64 113.113L845.287 113.08L847.98 113.707L850.587 112.96L853.3 113.38L855.82 112.16L858.4 111.54L861.113 111.693L863.78 111.447L866.4 110.973L869.027 110.467L871.46 109.293L873.973 108.42L876.693 108.16L878.993 106.693L881.267 105.233L883.96 104.813L886.207 103.333L888.54 102.087L891.36 101.787L893.36 99.88L895.907 98.9933L897.88 97.1133L900.653 96.54L902.167 94.0133L905.08 93.5533L906.793 91.3867L909.207 90.16L910.94 88.08L912.82 86.2L915.173 84.8467L916.933 82.84L919.12 81.2733L920.8 79.1533L922.48 76.9733L925.153 76.0067L927.14 74.1867L929.527 72.9333L931.513 71.0067L933.827 69.5933L936.4 68.7067L938.78 67.38L941.567 67.1533L944.213 66.6667L946.7 65.62L949.347 65.1933L952.04 65.1L954.593 63.8467L957.307 63.9067L960 64.04V64.1933L962.66 64.66L965.327 64.6867L968.12 63.9333L970.74 64.7L973.34 65.44L975.847 66.48L978.427 67.1733L980.967 68.0467L983.5 68.9267L985.66 70.6133L988.247 71.44L990.767 72.4667L992.533 74.66L994.84 76.0133L997.067 77.5133L998.753 79.64L1000.69 81.4667L1002.99 82.92L1005.35 84.28L1006.81 86.62L1008.74 88.46L1010.69 90.2867L1013.55 90.9333L1015.24 93.1L1017.22 94.9133L1019.39 96.4667L1022.18 97.0267L1024.52 98.2533L1026.71 99.7667L1028.83 101.42L1031.21 102.587L1033.89 103.127L1036.3 104.213L1038.45 105.947L1041.08 106.507L1043.69 107.067L1045.96 108.633L1048.59 109.113L1051.06 110.153L1053.67 110.653L1056.2 111.54L1058.77 112.293L1061.6 111.533L1064.19 112.067L1066.75 112.953L1069.39 113.253L1072.05 113.32L1074.69 113.587L1077.34 113.767L1080 113.26L1082.65 113.213L1085.3 113.427L1087.94 113.167L1090.63 113.487L1093.21 112.547L1095.81 112.053L1098.4 111.54L1101.24 112.333L1103.61 110.633L1106.31 110.567L1108.79 109.6L1111.31 108.753L1113.95 108.353L1116.66 108.06L1119.11 107L1121.57 105.993L1124.15 105.253L1126.2 103.313L1129.02 103.06L1131.15 101.367L1133.73 100.553L1135.97 99.1067L1138.11 97.5L1140.04 95.5933L1142.25 94.1267L1145.04 93.4933L1146.47 90.9533L1149.05 89.9667L1150.86 87.98L1153.27 86.72L1155.05 84.7067L1157.17 83.0867L1159.09 81.2467L1160.48 78.8L1162.77 77.32L1164.57 75.2333L1167.09 74.1133L1169.36 72.66L1171.77 71.46L1173.83 69.6067L1176.56 69.0733L1178.97 67.86L1181.6 67.26L1184.07 66.18L1186.63 65.3067L1189.31 64.98L1191.98 64.68L1194.58 63.68L1197.31 64.0333L1200 63.58L1202.7 63.76L1205.38 64.1067L1208.11 64.06L1210.59 65.5533L1213.32 65.54L1215.84 66.5L1218.37 67.34L1220.89 68.2467L1223.63 68.6267L1225.72 70.5L1228.55 70.8867L1230.74 72.5067L1233.11 73.8133L1235.19 75.5467L1237.07 77.5L1239.41 78.92L1241.09 81.06L1243.45 82.4333L1245.05 84.6L1247.36 85.9867L1248.94 88.22L1251.34 89.4733L1253.33 91.2133L1255.29 93.0333L1257.48 94.5333L1259.45 96.38L1261.91 97.46L1263.99 99.1733L1266.3 100.507L1269.15 100.807L1270.97 103.087L1273.74 103.453L1276.03 104.853L1278.77 105.16L1280.79 107.273L1283.67 107.113L1285.9 108.833L1288.67 108.847L1291.25 109.453L1293.65 110.733L1296.41 110.573L1298.81 112.06L1301.5 112.133L1304.17 112.233L1306.76 112.88L1309.42 112.907L1312.01 113.787L1314.72 112.887L1317.36 113.087L1320 113.633L1322.65 113.593L1325.31 113.48L1327.93 112.94L1330.67 113.807L1333.28 113.173L1335.95 113.053L1338.45 111.873L1341.21 112.193L1343.84 111.713L1346.45 111.153L1348.73 109.373L1351.59 109.72L1353.97 108.4L1356.61 107.927L1359.11 107.013L1361.67 106.233L1363.96 104.813L1366.4 103.753L1368.47 101.927L1371.41 101.867L1373.43 100.02L1375.53 98.34L1377.79 96.9667L1380.23 95.88L1382.63 94.7L1384.89 93.2933L1387.01 91.6733L1389.3 90.28L1391.03 88.18L1392.97 86.3667L1394.91 84.56L1397.08 82.9933L1399.05 81.2L1400.99 79.3667L1402.63 77.1467L1404.99 75.7933L1407.37 74.5067L1409.51 72.9133L1411.9 71.7L1413.77 69.4667L1416.31 68.5133L1418.88 67.64L1421.43 66.7467L1423.89 65.54L1426.63 65.3067L1429.3 64.9133L1431.98 64.6533L1434.59 63.7533L1437.34 64.6333L1440 63.3733V11.1933Z" fill="#FBECA9"/>
</svg>
