<svg width="1600" height="40" viewBox="0 0 1600 40" fill="none" xmlns="http://www.w3.org/2000/svg">
<path d="M1600 40V0C1587.94 0 1575.87 4.76 1566.67 14.26C1557.46 23.77 1545.4 28.52 1533.34 28.52C1521.28 28.52 1509.21 23.76 1500.01 14.26C1490.79 4.76 1478.73 0 1466.67 0C1454.61 0 1442.54 4.76 1433.34 14.26C1424.13 23.77 1412.07 28.52 1400.01 28.52C1387.95 28.52 1375.88 23.76 1366.68 14.26C1357.46 4.76 1345.4 0 1333.33 0C1321.27 0 1309.2 4.76 1300 14.26C1290.8 23.77 1278.73 28.52 1266.67 28.52C1254.61 28.52 1242.54 23.76 1233.34 14.26C1224.13 4.76 1212.06 0 1200 0C1187.94 0 1175.87 4.76 1166.67 14.26C1157.47 23.77 1145.4 28.52 1133.34 28.52C1121.28 28.52 1109.21 23.76 1100.01 14.26C1090.8 4.76 1078.73 0 1066.67 0C1054.61 0 1042.54 4.76 1033.34 14.26C1024.14 23.77 1012.07 28.52 1000.01 28.52C987.95 28.52 975.88 23.76 966.68 14.26C957.46 4.76 945.4 0 933.33 0C921.27 0 909.2 4.76 900 14.26C890.8 23.77 878.73 28.52 866.67 28.52C854.61 28.52 842.54 23.76 833.34 14.26C824.13 4.76 812.06 0 800 0C787.94 0 775.87 4.76 766.67 14.26C757.47 23.76 745.4 28.52 733.34 28.52C721.28 28.52 709.21 23.77 700 14.26C690.79 4.76 678.73 0 666.67 0C654.61 0 642.54 4.76 633.34 14.26C624.13 23.77 612.07 28.52 600.01 28.52C587.95 28.52 575.88 23.76 566.68 14.26C557.46 4.76 545.4 0 533.33 0C521.27 0 509.2 4.76 500 14.26C490.8 23.77 478.73 28.52 466.67 28.52C454.61 28.52 442.54 23.76 433.34 14.26C424.13 4.76 412.06 0 400 0C387.94 0 375.87 4.76 366.67 14.26C357.47 23.77 345.4 28.52 333.34 28.52C321.28 28.52 309.21 23.76 300.01 14.26C290.8 4.76 278.73 0 266.67 0C254.61 0 242.54 4.76 233.34 14.26C224.14 23.77 212.07 28.52 200.01 28.52C187.95 28.52 175.88 23.76 166.68 14.26C157.46 4.76 145.4 0 133.33 0C121.27 0 109.2 4.76 100 14.26C90.8 23.77 78.73 28.52 66.67 28.52C54.61 28.52 42.54 23.76 33.34 14.26C24.13 4.76 12.06 0 0 0V40H1600Z" 
fill="white"/>
</svg>
