<svg width="100%" height="100%" viewBox="0 0 2160 120" fill="none" xmlns="http://www.w3.org/2000/svg">
<path d="M2160 0V120H0V0C23.37 0 45.34 9.1 61.87 25.63C93.54 57.3 135.65 74.75 180.44 74.75C225.23 74.75 267.34 57.31 299.01 25.63C315.54 9.1 337.51 0 360.88 0C384.25 0 406.22 9.1 422.75 25.63C454.42 57.3 496.53 74.75 541.32 74.75C586.11 74.75 628.22 57.31 659.89 25.63C676.42 9.1 698.39 0 721.76 0C745.13 0 767.1 9.1 783.63 25.63C815.3 57.3 857.41 74.74 902.2 74.74C946.99 74.74 989.1 57.3 1020.77 25.62C1037.3 9.1 1059.27 0 1082.64 0C1106.01 0 1127.98 9.1 1144.51 25.63C1176.18 57.3 1218.29 74.75 1263.08 74.75C1307.87 74.75 1349.98 57.31 1381.65 25.64C1398.18 9.1 1420.15 0 1443.52 0C1466.89 0 1488.86 9.1 1505.39 25.63C1537.06 57.3 1579.17 74.75 1623.96 74.75C1668.75 74.75 1710.86 57.31 1742.53 25.63C1759.06 9.1 1781.03 0 1804.4 0C1827.77 0 1849.74 9.1 1866.27 25.63C1897.94 57.3 1940.05 74.75 1984.84 74.75C2029.63 74.75 2071.74 57.31 2103.41 25.63C2118.69 10.36 2138.62 1.44 2160 0.18V0Z" 
fill="#1B68AE"/>
</svg>
