<svg width="100%" height="100%" viewBox="0 0 2160 120" fill="none" xmlns="http://www.w3.org/2000/svg">
<path d="M0 45.26V0H2160V45.35C2117.19 46.66 2077.13 63.95 2046.7 94.37C2030.17 110.9 2008.2 120 1984.83 120C1961.46 120 1939.49 110.9 1922.96 94.37C1891.29 62.7 1849.18 45.25 1804.39 45.25C1759.6 45.25 1717.49 62.69 1685.82 94.37C1669.29 110.9 1647.32 120 1623.95 120C1600.58 120 1578.61 110.9 1562.08 94.37C1530.41 62.7 1488.3 45.25 1443.51 45.25C1398.72 45.25 1356.61 62.69 1324.94 94.37C1308.41 110.9 1286.44 120 1263.07 120C1239.7 120 1217.73 110.9 1201.2 94.37C1169.53 62.7 1127.42 45.25 1082.63 45.25C1037.84 45.25 995.73 62.69 964.06 94.37C947.54 110.9 925.57 120 902.2 120C878.83 120 856.86 110.9 840.33 94.37C808.66 62.7 766.55 45.25 721.76 45.25C676.97 45.25 634.86 62.69 603.19 94.37C586.66 110.9 564.69 120 541.32 120C517.95 120 495.98 110.9 479.45 94.37C447.78 62.7 405.67 45.25 360.88 45.25C316.09 45.25 273.98 62.69 242.31 94.37C225.78 110.9 203.81 120 180.44 120C157.07 120 135.1 110.9 118.57 94.37C86.9 62.7 44.79 45.26 0 45.26Z"
fill="#1B68AE"/>
</svg>
