<svg id="layer_1" data-name="layer_2" xmlns="http://www.w3.org/2000/svg" viewBox="0 0 1920 96">

<defs>
<style>.cls-1{fill:#36a;}.cls-2{fill:#fff;}</style>
</defs>
<rect class="cls-1" width="1920" height="96"/>
<path class="cls-2" d="M1360,34.2279a110.6045,110.6045,0,0,0-160,0,110.9918,110.9918,0,0,1-80,34.228,110.9881,110.9881,0,0,1-80-34.228,110.6048,110.6048,0,0,0-160,0,110.9922,110.9922,0,0,1-80,34.228,110.9877,110.9877,0,0,1-80-34.228,110.6049,110.6049,0,0,0-160,0,110.992,110.992,0,0,1-80,34.228,110.9881,110.9881,0,0,1-80-34.228,110.6047,110.6047,0,0,0-160,0,110.9924,110.9924,0,0,1-80,34.228A110.9919,110.9919,0,0,1,80,34.2281,110.99,110.99,0,0,0,0,0L0,96H1920V0a111.0049,111.0049,0,0,0-80,34.2279,111.0053,111.0053,0,0,1-80,34.2279,111.0053,111.0053,0,0,1-80-34.2279,110.6047,110.6047,0,0,0-160,0,111.0053,111.0053,0,0,1-80,34.2279A111.0052,111.0052,0,0,1,1360,34.2279Z"/>
</svg>