<?xml version="1.0" encoding="utf-8"?>
<!-- Generator: Adobe Illustrator 25.0.1, SVG Export Plug-In . SVG Version: 6.00 Build 0)  -->
<svg version="1.1" id="圖層_1" xmlns="http://www.w3.org/2000/svg" xmlns:xlink="http://www.w3.org/1999/xlink" x="0px" y="0px"
	 viewBox="0 0 2160 120" style="enable-background:new 0 0 2160 120;" xml:space="preserve">
<style type="text/css">
	.st0{fill:#FF06FF;}
	.st1{fill:#3366AA;}
	.st2{fill:#FFFFFF;}
	.st3{fill:none;stroke:#FFFFFF;stroke-width:32;stroke-miterlimit:10;}
	.st4{fill:#1B68AE;}
</style>
<rect x="-1075.3" y="1211" class="st0" width="132.9" height="18.8"/>
<rect x="-1075.3" y="1229.9" class="st0" width="132.9" height="18.8"/>
<rect x="-1951" y="-793.8" class="st1" width="266.7" height="266.7"/>
<path class="st2" d="M-1372.3,537.9c-9.2-9.5-21.3-14.3-33.3-14.3c-12.1,0-24.1,4.8-33.3,14.3c-9.2,9.5-21.3,14.3-33.3,14.3
	c-12.1,0-24.1-4.8-33.3-14.3c-9.2-9.5-21.3-14.3-33.3-14.3c-12.1,0-24.1,4.8-33.3,14.3c-9.2,9.5-21.3,14.3-33.3,14.3
	c-12.1,0-24.1-4.8-33.3-14.3c-9.2-9.5-21.3-14.3-33.3-14.3c-12.1,0-24.1,4.8-33.3,14.3c-9.2,9.5-21.3,14.3-33.3,14.3
	c-12.1,0-24.1-4.8-33.3-14.3c-9.2-9.5-21.3-14.3-33.3-14.3c-12.1,0-24.1,4.8-33.3,14.3c-9.2,9.5-21.3,14.3-33.3,14.3
	c-12.1,0-24.1-4.8-33.3-14.3c-9.2-9.5-21.3-14.3-33.3-14.3v40h800v-40c-12.1,0-24.1,4.8-33.3,14.3c-9.2,9.5-21.3,14.3-33.3,14.3
	c-12.1,0-24.1-4.8-33.3-14.3s-21.3-14.3-33.3-14.3c-12.1,0-24.1,4.8-33.3,14.3c-9.2,9.5-21.3,14.3-33.3,14.3
	C-1351.1,552.1-1363.1,547.4-1372.3,537.9z"/>
<path class="st2" d="M-572.3,537.9c-9.2-9.5-21.3-14.3-33.3-14.3c-12.1,0-24.1,4.8-33.3,14.3c-9.2,9.5-21.3,14.3-33.3,14.3
	c-12.1,0-24.1-4.8-33.3-14.3c-9.2-9.5-21.3-14.3-33.3-14.3c-12.1,0-24.1,4.8-33.3,14.3c-9.2,9.5-21.3,14.3-33.3,14.3
	c-12.1,0-24.1-4.8-33.3-14.3c-9.2-9.5-21.3-14.3-33.3-14.3c-12.1,0-24.1,4.8-33.3,14.3c-9.2,9.5-21.3,14.3-33.3,14.3
	c-12.1,0-24.1-4.8-33.3-14.3c-9.2-9.5-21.3-14.3-33.3-14.3c-12.1,0-24.1,4.8-33.3,14.3c-9.2,9.5-21.3,14.3-33.3,14.3
	s-24.1-4.8-33.3-14.3s-21.3-14.3-33.3-14.3v40h800v-40c-12.1,0-24.1,4.8-33.3,14.3s-21.3,14.3-33.3,14.3s-24.1-4.8-33.3-14.3
	c-9.2-9.5-21.3-14.3-33.3-14.3s-24.1,4.8-33.3,14.3c-9.2,9.5-21.3,14.3-33.3,14.3S-563.1,547.4-572.3,537.9z"/>
<path class="st2" d="M-339,803.9v-40c-12.1,0-24.1,4.8-33.3,14.3c-9.2,9.5-21.3,14.3-33.3,14.3c-12.1,0-24.1-4.8-33.3-14.3
	c-9.2-9.5-21.3-14.3-33.3-14.3s-24.1,4.8-33.3,14.3c-9.2,9.5-21.3,14.3-33.3,14.3s-24.1-4.8-33.3-14.3c-9.2-9.5-21.3-14.3-33.3-14.3
	c-12.1,0-24.1,4.8-33.3,14.3c-9.2,9.5-21.3,14.3-33.3,14.3c-12.1,0-24.1-4.8-33.3-14.3c-9.2-9.5-21.3-14.3-33.3-14.3
	c-12.1,0-24.1,4.8-33.3,14.3c-9.2,9.5-21.3,14.3-33.3,14.3c-12.1,0-24.1-4.8-33.3-14.3c-9.2-9.5-21.3-14.3-33.3-14.3
	c-12.1,0-24.1,4.8-33.3,14.3c-9.2,9.5-21.3,14.3-33.3,14.3c-12.1,0-24.1-4.8-33.3-14.3c-9.2-9.5-21.3-14.3-33.3-14.3
	c-12.1,0-24.1,4.8-33.3,14.3c-9.2,9.5-21.3,14.3-33.3,14.3c-12.1,0-24.1-4.8-33.3-14.3c-9.2-9.5-21.3-14.3-33.3-14.3
	c-12.1,0-24.1,4.8-33.3,14.3c-9.2,9.5-21.3,14.3-33.3,14.3c-12.1,0-24.1-4.8-33.3-14.3c-9.2-9.5-21.3-14.3-33.3-14.3
	c-12.1,0-24.1,4.8-33.3,14.3c-9.2,9.5-21.3,14.3-33.3,14.3c-12.1,0-24.1-4.8-33.3-14.3c-9.2-9.5-21.3-14.3-33.3-14.3
	c-12.1,0-24.1,4.8-33.3,14.3c-9.2,9.5-21.3,14.3-33.3,14.3c-12.1,0-24.1-4.8-33.3-14.3c-9.2-9.5-21.3-14.3-33.3-14.3
	c-12.1,0-24.1,4.8-33.3,14.3c-9.2,9.5-21.3,14.3-33.3,14.3c-12.1,0-24.1-4.8-33.3-14.3c-9.2-9.5-21.3-14.3-33.3-14.3
	c-12.1,0-24.1,4.8-33.3,14.3c-9.2,9.5-21.3,14.3-33.3,14.3c-12.1,0-24.1-4.8-33.3-14.3c-9.2-9.5-21.3-14.3-33.3-14.3
	c-12.1,0-24.1,4.8-33.3,14.3c-9.2,9.5-21.3,14.3-33.3,14.3c-12.1,0-24.1-4.8-33.3-14.3c-9.2-9.5-21.3-14.3-33.3-14.3v40H-339z"/>
<path class="st2" d="M-1939,1082.3v40h1600v-40"/>
<path class="st3" d="M-339,1215.6c-12.1,0-24.1,4.8-33.3,14.3s-21.3,14.3-33.3,14.3c-12.1,0-24.1-4.8-33.3-14.3
	c-9.2-9.5-21.3-14.3-33.3-14.3s-24.1,4.8-33.3,14.3c-9.2,9.5-21.3,14.3-33.3,14.3s-24.1-4.8-33.3-14.3c-9.2-9.5-21.3-14.3-33.3-14.3
	c-12.1,0-24.1,4.8-33.3,14.3c-9.2,9.5-21.3,14.3-33.3,14.3c-12.1,0-24.1-4.8-33.3-14.3c-9.2-9.5-21.3-14.3-33.3-14.3
	c-12.1,0-24.1,4.8-33.3,14.3c-9.2,9.5-21.3,14.3-33.3,14.3c-12.1,0-24.1-4.8-33.3-14.3c-9.2-9.5-21.3-14.3-33.3-14.3
	c-12.1,0-24.1,4.8-33.3,14.3c-9.2,9.5-21.3,14.3-33.3,14.3c-12.1,0-24.1-4.8-33.3-14.3c-9.2-9.5-21.3-14.3-33.3-14.3
	c-12.1,0-24.1,4.8-33.3,14.3c-9.2,9.5-21.3,14.3-33.3,14.3c-12.1,0-24.1-4.8-33.3-14.3c-9.2-9.5-21.3-14.3-33.3-14.3
	c-12.1,0-24.1,4.8-33.3,14.3c-9.2,9.5-21.3,14.3-33.3,14.3c-12.1,0-24.1-4.8-33.3-14.3c-9.2-9.5-21.3-14.3-33.3-14.3
	c-12.1,0-24.1,4.8-33.3,14.3c-9.2,9.5-21.3,14.3-33.3,14.3c-12.1,0-24.1-4.8-33.3-14.3c-9.2-9.5-21.3-14.3-33.3-14.3
	c-12.1,0-24.1,4.8-33.3,14.3c-9.2,9.5-21.3,14.3-33.3,14.3c-12.1,0-24.1-4.8-33.3-14.3c-9.2-9.5-21.3-14.3-33.3-14.3
	c-12.1,0-24.1,4.8-33.3,14.3c-9.2,9.5-21.3,14.3-33.3,14.3c-12.1,0-24.1-4.8-33.3-14.3c-9.2-9.5-21.3-14.3-33.3-14.3
	c-12.1,0-24.1,4.8-33.3,14.3c-9.2,9.5-21.3,14.3-33.3,14.3c-12.1,0-24.1-4.8-33.3-14.3c-9.2-9.5-21.3-14.3-33.3-14.3
	c-12.1,0-24.1,4.8-33.3,14.3c-9.2,9.5-21.3,14.3-33.3,14.3c-12.1,0-24.1-4.8-33.3-14.3c-9.2-9.5-21.3-14.3-33.3-14.3"/>
<path class="st3" d="M-339,1637c-12.1,0-24.1,4.8-33.3,14.3s-21.3,14.3-33.3,14.3c-12.1,0-24.1-4.8-33.3-14.3
	c-9.2-9.5-21.3-14.3-33.3-14.3s-24.1,4.8-33.3,14.3c-9.2,9.5-21.3,14.3-33.3,14.3s-24.1-4.8-33.3-14.3c-9.2-9.5-21.3-14.3-33.3-14.3
	c-12.1,0-24.1,4.8-33.3,14.3c-9.2,9.5-21.3,14.3-33.3,14.3c-12.1,0-24.1-4.8-33.3-14.3c-9.2-9.5-21.3-14.3-33.3-14.3
	c-12.1,0-24.1,4.8-33.3,14.3c-9.2,9.5-21.3,14.3-33.3,14.3c-12.1,0-24.1-4.8-33.3-14.3c-9.2-9.5-21.3-14.3-33.3-14.3
	c-12.1,0-24.1,4.8-33.3,14.3c-9.2,9.5-21.3,14.3-33.3,14.3c-12.1,0-24.1-4.8-33.3-14.3c-9.2-9.5-21.3-14.3-33.3-14.3
	c-12.1,0-24.1,4.8-33.3,14.3c-9.2,9.5-21.3,14.3-33.3,14.3c-12.1,0-24.1-4.8-33.3-14.3c-9.2-9.5-21.3-14.3-33.3-14.3
	c-12.1,0-24.1,4.8-33.3,14.3c-9.2,9.5-21.3,14.3-33.3,14.3c-12.1,0-24.1-4.8-33.3-14.3c-9.2-9.5-21.3-14.3-33.3-14.3
	c-12.1,0-24.1,4.8-33.3,14.3c-9.2,9.5-21.3,14.3-33.3,14.3c-12.1,0-24.1-4.8-33.3-14.3c-9.2-9.5-21.3-14.3-33.3-14.3
	c-12.1,0-24.1,4.8-33.3,14.3c-9.2,9.5-21.3,14.3-33.3,14.3c-12.1,0-24.1-4.8-33.3-14.3c-9.2-9.5-21.3-14.3-33.3-14.3
	c-12.1,0-24.1,4.8-33.3,14.3c-9.2,9.5-21.3,14.3-33.3,14.3c-12.1,0-24.1-4.8-33.3-14.3c-9.2-9.5-21.3-14.3-33.3-14.3
	c-12.1,0-24.1,4.8-33.3,14.3c-9.2,9.5-21.3,14.3-33.3,14.3c-12.1,0-24.1-4.8-33.3-14.3c-9.2-9.5-21.3-14.3-33.3-14.3
	c-12.1,0-24.1,4.8-33.3,14.3c-9.2,9.5-21.3,14.3-33.3,14.3c-12.1,0-24.1-4.8-33.3-14.3c-9.2-9.5-21.3-14.3-33.3-14.3"/>
<path class="st4" d="M2160,0v120H0V0c23.4,0,45.3,9.1,61.9,25.6c31.7,31.7,73.8,49.1,118.6,49.1c44.8,0,86.9-17.4,118.6-49.1
	C315.5,9.1,337.5,0,360.9,0c23.4,0,45.3,9.1,61.9,25.6c31.7,31.7,73.8,49.1,118.6,49.1c44.8,0,86.9-17.4,118.6-49.1
	C676.4,9.1,698.4,0,721.8,0c23.4,0,45.3,9.1,61.9,25.6c31.7,31.7,73.8,49.1,118.6,49.1c44.8,0,86.9-17.4,118.6-49.1
	C1037.3,9.1,1059.3,0,1082.6,0c23.4,0,45.3,9.1,61.9,25.6c31.7,31.7,73.8,49.1,118.6,49.1c44.8,0,86.9-17.4,118.6-49.1
	C1398.2,9.1,1420.1,0,1443.5,0c23.4,0,45.3,9.1,61.9,25.6c31.7,31.7,73.8,49.1,118.6,49.1c44.8,0,86.9-17.4,118.6-49.1
	C1759.1,9.1,1781,0,1804.4,0c23.4,0,45.3,9.1,61.9,25.6c31.7,31.7,73.8,49.1,118.6,49.1c44.8,0,86.9-17.4,118.6-49.1
	c15.3-15.3,35.2-24.2,56.6-25.5V0z"/>
<path class="st4" d="M0,420.9v-45.3h2160V421c-42.8,1.3-82.9,18.6-113.3,49c-16.5,16.5-38.5,25.6-61.9,25.6
	c-23.4,0-45.3-9.1-61.9-25.6c-31.7-31.7-73.8-49.1-118.6-49.1c-44.8,0-86.9,17.4-118.6,49.1c-16.5,16.5-38.5,25.6-61.9,25.6
	c-23.4,0-45.3-9.1-61.9-25.6c-31.7-31.7-73.8-49.1-118.6-49.1c-44.8,0-86.9,17.4-118.6,49.1c-16.5,16.5-38.5,25.6-61.9,25.6
	c-23.4,0-45.3-9.1-61.9-25.6c-31.7-31.7-73.8-49.1-118.6-49.1c-44.8,0-86.9,17.4-118.6,49.1c-16.5,16.5-38.5,25.6-61.9,25.6
	c-23.4,0-45.3-9.1-61.9-25.6c-31.7-31.7-73.8-49.1-118.6-49.1c-44.8,0-86.9,17.4-118.6,49.1c-16.5,16.5-38.5,25.6-61.9,25.6
	c-23.4,0-45.3-9.1-61.9-25.6c-31.7-31.7-73.8-49.1-118.6-49.1c-44.8,0-86.9,17.4-118.6,49.1c-16.5,16.5-38.5,25.6-61.9,25.6
	c-23.4,0-45.3-9.1-61.9-25.6C86.9,438.3,44.8,420.9,0,420.9z"/>
</svg>
