<svg width="91" height="86" viewBox="0 0 91 86" fill="none" xmlns="http://www.w3.org/2000/svg">
<g clip-path="url(#clip0_738_693)">
<path d="M47.4543 85.9462C45.4693 85.9462 43.5098 85.4241 41.7907 84.4392L10.0046 66.2097C7.0515 64.5167 5.21752 61.359 5.21752 57.9731V50.417C4.90264 49.6667 4.73881 48.853 4.73881 48.0266C4.73881 45.9807 4.91753 43.9876 5.27497 42.0579C5.1771 42.0642 5.0771 42.0684 4.9771 42.0684C4.73669 42.0684 4.49414 42.0473 4.25798 42.0071C3.1644 41.8148 2.2155 41.2146 1.57935 40.3142C0.945334 39.4138 0.700662 38.3211 0.894272 37.2368C1.38149 34.4913 2.86441 32.3185 5.06859 31.118C6.38344 30.4015 7.90466 30.0401 9.59396 30.0401C9.85565 30.0401 10.1237 30.0486 10.3961 30.0676C13.3215 26.0032 16.9065 23.116 19.8255 21.2181C19.8191 20.8101 19.8212 20.4043 19.8319 20.0006C19.8915 17.3016 20.3042 14.8478 21.0999 12.5123C21.5829 11.1025 22.2041 9.77941 22.9488 8.57679C23.77 7.2537 24.7509 6.04896 25.8657 4.9964L26.1168 4.77025C26.3083 4.59905 26.5104 4.41728 26.7274 4.23763L26.7955 4.18056L26.8614 4.12984C27.1018 3.94384 27.338 3.76208 27.5763 3.58031L27.6848 3.49788L27.8018 3.41968C28.0529 3.25059 28.3082 3.08362 28.5635 2.91665L28.789 2.77081L29.6571 2.28469C30.9677 1.58298 32.7506 0.767146 34.9335 0.68049C35.1037 0.674149 35.276 0.669922 35.4483 0.669922C40.5545 0.669922 42.3204 3.99457 42.8417 5.42334C43.0119 5.88833 43.1332 6.36388 43.2076 6.85C45.2693 4.98372 47.7181 3.55495 50.3946 2.66936C51.7669 2.21706 53.6392 1.695 55.954 1.695C56.0731 1.695 56.1944 1.69712 56.3157 1.69923C60.4815 1.79857 63.5814 4.60751 63.8537 8.52818C63.8941 9.09884 63.8643 9.67585 63.7622 10.2888C63.4665 12.0853 62.4835 13.7318 60.8772 15.15C63.8729 15.9215 66.7749 16.9381 69.4918 18.1724C70.9471 18.2591 72.3449 18.5909 73.6512 19.1658C75.115 19.8083 76.432 20.7341 77.5681 21.9198C78.3298 22.7145 79 23.617 79.5659 24.6082C86.5082 30.7566 90.1762 38.8431 90.1762 48.0245C90.1762 48.853 90.0123 49.6667 89.6975 50.4149V57.971C89.6975 61.359 87.8635 64.5146 84.9104 66.2075L53.1243 84.4371C51.3988 85.4262 49.4393 85.9462 47.4543 85.9462Z" fill="white"/>
<path d="M47.4544 83.4112C45.9161 83.4112 44.3992 83.0075 43.0673 82.2424L11.2812 64.0129C9.11533 62.7701 7.7707 60.4557 7.7707 57.9723V49.835C7.46007 49.3003 7.29199 48.681 7.29199 48.0258C7.29199 33.9727 16.3278 26.2159 22.434 22.5826C22.3787 21.7435 22.3617 20.896 22.3829 20.0611C22.4361 17.6178 22.8063 15.4092 23.5169 13.321C23.9361 12.0951 24.4765 10.9453 25.1211 9.90331C25.8254 8.76621 26.6658 7.73267 27.6211 6.83229L27.8274 6.64629C28.004 6.48778 28.1806 6.32926 28.3636 6.17708L28.3976 6.1496L28.4317 6.12213C28.6593 5.9467 28.887 5.76916 29.1167 5.59585L29.1721 5.55358L29.2295 5.51553C29.4699 5.35279 29.7125 5.19427 29.9571 5.03575L30.1125 4.9343L30.8614 4.5137C31.9294 3.94092 33.3677 3.27726 35.0272 3.20963C35.1655 3.20329 35.3038 3.20117 35.4399 3.20117C38.8058 3.20117 40.0142 5.13298 40.4334 6.28487C40.9844 7.79185 40.7674 9.56091 39.7908 11.5434C38.8164 13.5239 36.9314 15.8636 34.674 17.6178C36.4314 17.1677 38.2228 16.802 40.0164 16.5315C40.6355 14.2932 41.861 12.0422 43.5269 10.1379C45.5672 7.80876 48.2182 6.05661 51.1926 5.07591C52.3819 4.68279 53.9967 4.2326 55.9477 4.2326C56.0456 4.2326 56.1456 4.23471 56.2456 4.23682C59.088 4.30446 61.1199 6.10099 61.3007 8.70491C61.3262 9.07902 61.305 9.46369 61.2369 9.88217C60.839 12.2938 58.5561 13.9487 56.7094 14.9125C55.5562 15.5148 54.3095 15.9841 53.0946 16.2842C59.5837 17.0282 66.0346 19.0107 71.411 21.9739C77.464 25.3091 87.6168 33.1294 87.6168 48.0258C87.6168 48.681 87.4466 49.3024 87.1381 49.835V57.9723C87.1381 60.4557 85.7934 62.7722 83.6276 64.0129L51.8436 82.2424C50.5096 83.0075 48.9926 83.4112 47.4544 83.4112Z" fill="#282E36"/>
<path d="M70.1725 24.1913C63.1749 20.334 54.6943 18.4931 47.4541 18.4931C47.3286 18.4931 47.1988 18.4973 47.0733 18.4994C47.3329 17.5398 47.9116 16.2231 49.0562 14.9148C49.2817 14.6569 49.5434 14.3885 49.8392 14.118C52.9944 14.323 58.3197 11.8755 58.7176 9.47023C58.7495 9.2779 58.7686 9.08133 58.7537 8.87843C58.6622 7.57224 57.6942 6.80713 56.1857 6.7712C54.6113 6.73316 53.239 7.07344 51.9987 7.48347C48.8945 8.50856 46.7882 10.2818 45.4542 11.8036C43.316 14.2448 42.3756 16.8846 42.1671 18.8059C38.0247 19.2793 33.71 20.3044 29.6463 21.9023C29.6059 21.3358 29.5846 20.7694 29.591 20.2093C29.6016 19.4082 29.6654 18.6157 29.7824 17.8463C29.8037 17.7068 29.8292 17.5694 29.8548 17.4321C34.0546 16.0836 39.0821 10.0198 38.0353 7.15376C37.5864 5.92154 36.3928 5.69751 35.1312 5.74823C34.0716 5.7905 33.0419 6.23224 32.0738 6.75006L31.7143 6.95085L31.5356 7.05231L31.4462 7.10303L31.359 7.1601C31.1271 7.31016 30.8952 7.46234 30.6675 7.61663C30.4462 7.7836 30.225 7.95269 30.0058 8.12389C29.7931 8.30143 29.5867 8.48953 29.3803 8.67553C28.5718 9.43853 27.8697 10.3093 27.2974 11.2351C26.723 12.1608 26.2762 13.1415 25.9379 14.1349C25.2613 16.1238 24.9805 18.1464 24.9379 20.1269C24.9124 21.1181 24.9464 22.103 25.0358 23.0816C25.0635 23.3839 25.0954 23.6861 25.1337 23.9862C25.0039 24.056 24.8699 24.1215 24.7401 24.1934C17.0638 28.4247 9.84912 36.1181 9.84912 48.0281C9.84912 48.3895 10.0172 48.7277 10.3278 48.9116V57.9767C10.3278 59.5619 11.1789 61.0287 12.5618 61.8213L44.3457 80.0508C45.3074 80.6025 46.3818 80.8793 47.4563 80.8793C48.5307 80.8793 49.6051 80.6025 50.5668 80.0508L82.3507 61.8213C83.7337 61.0287 84.5847 59.5619 84.5847 57.9767V48.9116C84.8975 48.7298 85.0634 48.3895 85.0634 48.0281C85.0634 36.116 77.8488 28.4205 70.1725 24.1913Z" fill="#282E36"/>
<mask id="mask0_738_693" style="mask-type:luminance" maskUnits="userSpaceOnUse" x="10" y="44" width="75" height="37">
<path d="M47.4538 66.2426L10.3232 44.9463V57.9722C10.3232 59.5574 11.1743 61.0242 12.5572 61.8168L44.3412 80.0464C46.2666 81.1497 48.6389 81.1497 50.5643 80.0464L82.3483 61.8168C83.7312 61.0242 84.5823 59.5574 84.5823 57.9722V44.9463L47.4538 66.2426Z" fill="white"/>
</mask>
<g mask="url(#mask0_738_693)">
<path d="M47.4536 66.2426V81.8323L84.5842 60.536V44.9463L47.4536 66.2426Z" fill="white"/>
</g>
<mask id="mask1_738_693" style="mask-type:luminance" maskUnits="userSpaceOnUse" x="10" y="44" width="75" height="37">
<path d="M47.4538 66.2426L10.3232 44.9463V57.9722C10.3232 59.5574 11.1743 61.0242 12.5572 61.8168L44.3412 80.0464C46.2666 81.1497 48.6389 81.1497 50.5643 80.0464L82.3483 61.8168C83.7312 61.0242 84.5823 59.5574 84.5823 57.9722V44.9463L47.4538 66.2426Z" fill="white"/>
</mask>
<g mask="url(#mask1_738_693)">
<path d="M10.3232 44.9463V60.536L47.4538 81.8323V66.2426L10.3232 44.9463Z" fill="white"/>
</g>
<path d="M70.1723 24.1909C63.1747 20.3336 54.6942 18.4927 47.454 18.4927C40.2138 18.4927 31.7333 20.3357 24.7357 24.1909C17.0594 28.4222 9.84473 36.1156 9.84473 48.0256C9.84473 48.3891 10.0149 48.7315 10.3319 48.9133L44.9562 68.7724C45.7285 69.2163 46.5923 69.4382 47.454 69.4382C48.3157 69.4382 49.1795 69.2163 49.9518 68.7724L84.5761 48.9133C84.8931 48.7315 85.0633 48.3891 85.0633 48.0256C85.0633 36.1156 77.8486 28.4201 70.1723 24.1909Z" fill="white"/>
<path d="M81.7295 50.6867C81.7295 55.5606 75.0532 59.2952 69.2215 59.2952C63.3898 59.2952 54.4858 58.1455 54.4858 53.2716C54.4858 48.3977 63.9749 40.2646 69.8066 40.2646C75.6383 40.2646 81.7295 45.8128 81.7295 50.6867Z" fill="white"/>
<path d="M68.2276 60.7684C67.6425 62.51 63.2023 63.9853 59.7428 62.2015C56.4599 60.5064 49.6176 52.4685 51.8707 49.5454C53.7579 47.0979 57.4557 45.7156 63.3937 47.4931C68.5829 49.0445 69.3999 57.2768 68.2276 60.7684Z" fill="white"/>
<path d="M29.8548 17.4296C34.0546 16.0812 39.0821 10.0173 38.0353 7.15132C37.5864 5.9191 36.3928 5.69506 35.1312 5.74579C34.0716 5.78806 33.0419 6.2298 32.0738 6.74762L31.7143 6.94841L31.5356 7.04986L31.4462 7.10059L31.359 7.15766C31.1271 7.30772 30.8952 7.4599 30.6675 7.61419C30.4462 7.78116 30.225 7.95024 30.0058 8.12144C29.7931 8.29898 29.5867 8.48709 29.3803 8.67309C28.5718 9.43609 27.8697 10.3069 27.2974 11.2326C26.723 12.1605 26.2762 13.1391 25.9379 14.1324C25.2613 16.1213 24.9805 18.144 24.9379 20.1244C24.9124 21.1157 24.9464 22.1006 25.0358 23.0792C25.123 24.0578 25.2613 25.03 25.4528 26.0086C25.4571 26.034 25.4656 26.0699 25.472 26.0953C25.7719 27.3718 27.0549 28.1644 28.3378 27.8664C29.6229 27.5684 30.4207 26.2939 30.1207 25.0194L30.1186 25.0131C29.9356 24.2374 29.8037 23.4322 29.7122 22.6269C29.625 21.8195 29.5846 21.01 29.5931 20.209C29.6037 19.4079 29.6676 18.6153 29.7846 17.846C29.8037 17.7044 29.8292 17.567 29.8548 17.4296Z" fill="white"/>
<path d="M58.7536 8.87821C58.6621 7.57202 57.694 6.80691 56.1856 6.77098C54.6112 6.73293 53.2389 7.07322 51.9985 7.48325C48.8943 8.50833 46.788 10.2816 45.454 11.8034C42.9946 14.6123 42.1201 17.6812 42.1201 19.6194C42.1201 20.9298 43.1882 21.9908 44.5073 21.9908C45.8264 21.9908 46.8944 20.9298 46.8944 19.6194C46.8944 18.8458 47.3455 16.8696 49.0582 14.9146C49.2837 14.6567 49.5454 14.3883 49.8411 14.1177C52.9963 14.3228 58.3217 11.8753 58.7195 9.47001C58.7493 9.27767 58.7685 9.08111 58.7536 8.87821Z" fill="white"/>
<path d="M68.9087 41.8435C64.5472 41.8435 61.1643 38.5696 60.292 33.5033C59.8431 30.8973 60.192 28.3927 61.2728 26.4461C62.4941 24.248 64.528 22.8488 67.1556 22.4028C67.6854 22.312 68.213 22.2676 68.7257 22.2676C73.0873 22.2676 76.4701 25.5415 77.3425 30.6077C77.7914 33.2138 77.4425 35.7183 76.3616 37.6649C75.1404 39.8631 73.1064 41.2622 70.4789 41.7082C69.9491 41.797 69.4215 41.8435 68.9087 41.8435Z" fill="white"/>
<path d="M68.726 23.8465C72.5152 23.8465 75.081 26.8477 75.7725 30.872C76.5427 35.3422 74.7108 39.3833 70.211 40.1484C69.7621 40.2245 69.3281 40.2605 68.9089 40.2605C65.1197 40.2605 62.5538 37.2592 61.8624 33.235C61.0922 28.7648 62.924 24.7236 67.4239 23.9585C67.8707 23.8845 68.3068 23.8465 68.726 23.8465ZM68.726 20.6846C68.1238 20.6846 67.5047 20.7374 66.8877 20.8431C63.8112 21.3651 61.322 23.0835 59.8795 25.6811C59.2284 26.852 58.805 28.1708 58.6178 29.5996C58.4433 30.9354 58.4795 32.3388 58.7242 33.7697C59.1816 36.4307 60.288 38.7366 61.9198 40.4401C62.8219 41.3828 63.8666 42.1162 65.0197 42.6234C66.2303 43.1561 67.5388 43.4245 68.9089 43.4245C69.511 43.4245 70.1302 43.3716 70.7472 43.266C73.8236 42.7439 76.3129 41.0256 77.7554 38.428C78.4065 37.2571 78.8298 35.9382 79.0171 34.5094C79.1915 33.1737 79.1554 31.7703 78.9107 30.3394C78.4533 27.6784 77.3469 25.3725 75.7151 23.6689C74.813 22.7263 73.7683 21.9929 72.6152 21.4856C71.4025 20.9551 70.094 20.6846 68.726 20.6846Z" fill="#282E36"/>
<path d="M4.977 39.5312C4.88552 39.5312 4.7919 39.5228 4.69829 39.5059C3.83236 39.3537 3.25579 38.5336 3.40685 37.6755C3.85577 35.1477 5.22593 33.9218 6.29398 33.3406C7.67265 32.5902 9.41301 32.3895 11.4661 32.7445C12.4512 32.9157 13.2746 33.1799 13.7065 33.3321L42.0395 33.1609C42.0437 33.1609 42.0459 33.1609 42.0501 33.1609C42.9246 33.1609 43.6352 33.8626 43.6416 34.7313C43.6458 35.6042 42.9394 36.3165 42.0608 36.3207L13.4341 36.494C13.2214 36.494 13.0108 36.4539 12.815 36.3735C11.9448 36.0206 9.3428 35.2808 7.82371 36.1136C7.14926 36.4835 6.73226 37.1725 6.54503 38.2229C6.40674 38.9923 5.73442 39.5312 4.977 39.5312Z" fill="#282E36"/>
<path d="M50.054 46.9944C45.2095 46.9944 41.4522 43.3463 40.4799 37.6989C39.9778 34.7885 40.365 31.9901 41.5692 29.8216C42.9224 27.3825 45.1797 25.8333 48.0988 25.3366C48.6881 25.2372 49.2753 25.1865 49.8455 25.1865C54.69 25.1865 58.4473 28.8345 59.4197 34.482C59.9218 37.3924 59.5345 40.1908 58.3303 42.3593C56.9772 44.7984 54.7198 46.3476 51.8008 46.8443C51.2114 46.9436 50.6242 46.9944 50.054 46.9944Z" fill="white"/>
<path d="M49.8479 26.7698C54.152 26.7698 57.0646 30.179 57.8518 34.7507C58.7263 39.8296 56.6455 44.4181 51.5329 45.2868C51.0244 45.3735 50.5308 45.4157 50.0543 45.4157C45.7502 45.4157 42.8375 42.0065 42.0503 37.4349C41.1758 32.356 43.2566 27.7674 48.3692 26.8987C48.8777 26.81 49.3713 26.7698 49.8479 26.7698ZM49.8479 23.6079C49.1883 23.6079 48.5096 23.6671 47.8309 23.7812C46.1204 24.0729 44.5821 24.6879 43.2651 25.6137C41.9886 26.5098 40.9503 27.6681 40.178 29.0609C39.4653 30.3439 38.9993 31.7895 38.7951 33.3599C38.6015 34.8331 38.6419 36.3844 38.9142 37.9675C39.4206 40.9054 40.6354 43.448 42.4311 45.3206C43.4183 46.3499 44.5566 47.151 45.814 47.7047C47.1352 48.2839 48.5628 48.5776 50.0564 48.5776C50.7159 48.5776 51.3946 48.5185 52.0712 48.4043C53.7818 48.1127 55.32 47.4976 56.637 46.5719C57.9135 45.6757 58.9518 44.5175 59.7241 43.1246C60.4369 41.8417 60.9028 40.396 61.107 38.8256C61.3007 37.3525 61.2602 35.8011 60.9879 34.218C60.4815 31.2802 59.2667 28.7375 57.4731 26.867C56.4859 25.8377 55.3477 25.0367 54.0903 24.4829C52.769 23.9017 51.3414 23.6079 49.8479 23.6079Z" fill="#282E36"/>
<path d="M54.1237 41.0731C56.7529 40.6263 58.4573 37.784 57.9305 34.7245C57.4037 31.6651 54.8453 29.5471 52.2161 29.9938C49.5869 30.4406 47.8826 33.2829 48.4094 36.3424C48.9362 39.4018 51.4946 41.5198 54.1237 41.0731Z" fill="#282E36"/>
<path d="M72.0508 35.9279C74.336 35.7184 75.9854 33.3624 75.7349 30.6657C75.4844 27.969 73.4288 25.9527 71.1436 26.1622C68.8584 26.3717 67.209 28.7276 67.4595 31.4244C67.71 34.1211 69.7656 36.1374 72.0508 35.9279Z" fill="#282E36"/>
<path d="M64.6385 49.1163C64.2811 49.1163 63.9236 48.9979 63.6258 48.7549L62.5918 47.9073C61.9152 47.3514 61.8195 46.356 62.379 45.6817C62.9386 45.0096 63.9407 44.9145 64.6194 45.4704L65.6534 46.3179C66.3299 46.8738 66.4257 47.8693 65.8661 48.5435C65.5512 48.9197 65.0959 49.1163 64.6385 49.1163Z" fill="#282E36"/>
<path d="M49.3818 57.4397C49.069 57.4397 48.752 57.3488 48.4754 57.1565C47.7542 56.6577 47.5755 55.6728 48.0776 54.9563L50.5753 51.3865C51.0775 50.67 52.0689 50.4924 52.7902 50.9912C53.5114 51.49 53.6901 52.4749 53.188 53.1914L50.6902 56.7613C50.3796 57.203 49.8839 57.4397 49.3818 57.4397Z" fill="#282E36"/>
<path d="M68.2979 61.4996C67.3596 61.4996 66.4065 61.4447 65.4448 61.3348C57.8834 60.464 52.3644 57.0865 49.939 54.4551C49.3454 53.8126 49.388 52.8107 50.0369 52.2211C50.6837 51.6314 51.69 51.6736 52.2857 52.3183C54.5048 54.7235 59.5493 57.4733 65.8129 58.194C68.7085 58.528 71.6106 58.2659 73.9871 57.4564C76.4232 56.6279 78.2422 55.2625 79.2465 53.5082C80.3932 51.5067 80.2464 49.7376 79.9209 48.6068C79.5422 47.2901 78.6933 46.0917 77.704 45.4766C76.9593 45.0138 76.7317 44.0394 77.1976 43.2976C77.6635 42.5578 78.6444 42.3317 79.3911 42.7945C81.0464 43.8217 82.3868 45.669 82.9825 47.7382C83.474 49.4523 83.7059 52.1154 82.0123 55.0723C80.6166 57.5071 78.1997 59.3649 75.019 60.4471C72.9658 61.1446 70.6829 61.4996 68.2979 61.4996Z" fill="#282E36"/>
</g>
<defs>
<clipPath id="clip0_738_693">
<rect width="89.3415" height="85.2805" fill="white" transform="translate(0.830078 0.666992)"/>
</clipPath>
</defs>
</svg>
