<svg width="90" height="86" viewBox="0 0 90 86" fill="none" xmlns="http://www.w3.org/2000/svg">
<g clip-path="url(#clip0_2152_15891)">
<path d="M76.7001 25.54C76.2001 24.59 75.6001 23.74 74.8901 23C73.9901 22.06 72.9401 21.32 71.7901 20.82C70.6201 20.31 69.3601 20.04 68.0401 20.03C63.2301 17.78 57.7701 16.25 52.2701 15.62C53.4801 15.32 54.7301 14.85 55.8801 14.25C57.7301 13.29 60.0101 11.63 60.4101 9.22004C60.4801 8.80004 60.5001 8.42004 60.4701 8.04004C60.2901 5.44004 58.2601 3.64004 55.4101 3.57004C55.3101 3.57004 55.2101 3.57004 55.1101 3.57004C53.1601 3.57004 51.5401 4.02004 50.3501 4.41004C47.3801 5.39004 44.7201 7.14004 42.6801 9.47004C41.0101 11.37 39.7901 13.63 39.1701 15.86C37.3801 16.13 35.5901 16.5 33.8301 16.95C36.0901 15.2 37.9701 12.86 38.9501 10.88C39.9301 8.90004 40.1401 7.13004 39.5901 5.62004C39.1701 4.47004 37.9601 2.54004 34.6001 2.54004C34.4601 2.54004 34.3301 2.54004 34.1901 2.55004C32.5301 2.62004 31.0901 3.28004 30.0201 3.85004L29.2701 4.27004L29.1101 4.37004C28.8701 4.53004 28.6201 4.69004 28.3801 4.85004L28.3201 4.89004L28.2601 4.93004C28.0301 5.10004 27.8001 5.28004 27.5701 5.46004L27.5401 5.49004L27.5101 5.52004C27.3501 5.66004 27.1701 5.82004 27.0001 5.98004L26.7901 6.17004C25.8301 7.07004 24.9901 8.10004 24.2901 9.24004C23.6501 10.28 23.1001 11.43 22.6901 12.66C21.9801 14.75 21.6101 16.96 21.5601 19.4C21.5401 20.23 21.5601 21.08 21.6101 21.92C18.2301 23.93 13.9601 27.21 10.8101 32.12C10.7501 32.11 10.7001 32.1 10.6401 32.09C8.59009 31.74 6.85009 31.94 5.47009 32.69C4.40009 33.27 3.03009 34.5 2.58009 37.02C2.43009 37.86 3.00009 38.68 3.87009 38.84C3.96009 38.86 4.06009 38.87 4.15009 38.87C4.91009 38.87 5.58009 38.33 5.72009 37.56C5.91009 36.51 6.32009 35.82 7.00009 35.45C7.61009 35.12 8.39009 35.04 9.17009 35.09C7.54009 38.51 6.47009 42.56 6.47009 47.37C6.47009 48.03 6.64009 48.64 6.95009 49.18V57.32C6.95009 59.8 8.29009 62.12 10.4601 63.36L42.2501 81.59C43.5801 82.36 45.1001 82.76 46.6401 82.76C48.1801 82.76 49.7001 82.36 51.0301 81.59L82.8001 63.34C84.9701 62.1 86.3101 59.78 86.3101 57.3V49.16C86.6201 48.63 86.7901 48.01 86.7901 47.35C86.7901 36.89 81.7801 29.92 76.7001 25.54ZM74.3501 28.03C73.5401 26.39 72.0001 25.34 70.3201 25.5C68.0301 25.71 66.3901 28.07 66.6401 30.76C66.8901 33.46 68.9501 35.47 71.2301 35.26C73.5101 35.05 75.1501 32.71 74.9101 30.02C74.9201 30.08 74.9401 30.14 74.9501 30.2C75.7201 34.67 73.8901 38.71 69.3901 39.48C68.9401 39.56 68.5101 39.59 68.0901 39.59C64.3001 39.59 61.7401 36.59 61.0401 32.56C60.2701 28.09 62.1001 24.05 66.6001 23.28C67.0501 23.21 67.4801 23.17 67.9001 23.17C68.2101 23.17 68.5001 23.2 68.7901 23.23C70.6901 23.48 72.2401 24.53 73.3301 26.08C73.7301 26.67 74.0701 27.32 74.3501 28.03ZM41.2301 32.49C41.8501 29.31 43.9401 26.84 47.5401 26.23C48.0501 26.14 48.5401 26.1 49.0201 26.1C52.8701 26.1 55.6001 28.83 56.7001 32.67C55.7501 30.39 53.6001 28.95 51.3901 29.33C48.7601 29.78 47.0601 32.62 47.5801 35.68C48.1101 38.74 50.6701 40.86 53.2901 40.41C55.5201 40.03 57.0701 37.92 57.1701 35.42C57.4901 39.95 55.3601 43.84 50.7001 44.63C50.1901 44.72 49.7001 44.76 49.2201 44.76C44.9201 44.76 42.0001 41.35 41.2201 36.78C41.1601 36.41 41.1101 36.03 41.0801 35.67C40.9801 34.55 41.0301 33.49 41.2301 32.49ZM23.9101 23.52C24.0401 23.45 24.1801 23.39 24.3201 23.32C24.2801 23.02 24.2401 22.72 24.2101 22.41C24.1201 21.43 24.0901 20.45 24.1101 19.46C24.1501 17.48 24.4301 15.46 25.1101 13.47C25.4501 12.48 25.9001 11.5 26.4701 10.57C27.0401 9.64004 27.7401 8.77004 28.5501 8.01004C28.7601 7.82004 28.9601 7.64004 29.1801 7.46004C29.4001 7.29004 29.6201 7.12004 29.8401 6.95004C30.0701 6.80004 30.3001 6.64004 30.5301 6.49004L30.6201 6.43004L30.7101 6.38004L30.8901 6.28004L31.2501 6.08004C32.2201 5.56004 33.2501 5.12004 34.3101 5.08004C35.5701 5.03004 36.7701 5.25004 37.2101 6.49004C38.2601 9.36004 33.2301 15.42 29.0301 16.77C29.0001 16.91 28.9801 17.04 28.9601 17.19C28.8401 17.96 28.7801 18.75 28.7701 19.55C28.7601 20.11 28.7901 20.68 28.8301 21.25C32.8901 19.65 37.2001 18.62 41.3401 18.15C41.5501 16.23 42.4901 13.59 44.6301 11.14C45.9601 9.62004 48.0701 7.84004 51.1701 6.82004C52.4101 6.41004 53.7801 6.07004 55.3601 6.11004C56.8701 6.15004 57.8401 6.91004 57.9301 8.22004C57.9401 8.42004 57.9301 8.62004 57.9001 8.81004C57.5001 11.22 52.1801 13.66 49.0201 13.46C48.7201 13.73 48.4601 14 48.2401 14.26C47.0901 15.57 46.5201 16.89 46.2601 17.85C46.3801 17.85 46.5101 17.84 46.6401 17.84C51.9901 17.84 58.0101 18.85 63.6101 20.93C61.6701 21.77 60.1001 23.17 59.0701 25.03C58.5801 25.91 58.2201 26.87 57.9901 27.89C57.5901 27.29 57.1501 26.72 56.6601 26.21C55.6701 25.18 54.5301 24.38 53.2801 23.83C51.9601 23.25 50.5301 22.95 49.0401 22.95C48.3801 22.95 47.7001 23.01 47.0201 23.12C45.3101 23.41 43.7701 24.03 42.4501 24.95C41.1701 25.85 40.1401 27 39.3601 28.4C38.6801 29.63 38.2201 31.02 38.0101 32.52L13.5301 32.67C16.2901 28.67 20.0401 25.65 23.9101 23.52ZM83.7501 48.24V57.3C83.7501 58.89 82.9001 60.35 81.5201 61.14L49.7301 79.38C47.8001 80.48 45.4301 80.48 43.5101 79.38L11.7301 61.15C10.3501 60.36 9.50009 58.89 9.50009 57.31V48.24C9.19009 48.06 9.02009 47.72 9.02009 47.36C9.02009 42.86 10.0501 38.96 11.7501 35.62C11.8301 35.65 11.9201 35.68 11.9901 35.71C12.1901 35.79 12.4001 35.83 12.6101 35.83L37.9001 35.68C37.9401 36.22 37.9901 36.76 38.0901 37.31C38.6001 40.25 39.8101 42.79 41.6101 44.66C42.6001 45.69 43.7401 46.49 44.9901 47.04C46.3101 47.62 47.7401 47.91 49.2301 47.91C49.8901 47.91 50.5701 47.85 51.2401 47.74C51.7001 47.66 52.1501 47.55 52.5801 47.43C53.5101 47.16 54.3701 46.78 55.1701 46.3C55.3801 46.17 55.6001 46.05 55.8101 45.91C57.0901 45.01 58.1201 43.86 58.9001 42.46C59.5301 41.32 59.9601 40.05 60.1901 38.68C60.4701 39.06 60.7701 39.43 61.0901 39.77C61.7201 40.43 62.4301 40.99 63.2001 41.44C63.5201 41.63 63.8501 41.81 64.1901 41.96C65.4001 42.49 66.7101 42.76 68.0801 42.76C68.6801 42.76 69.3001 42.71 69.9201 42.6C71.4801 42.34 72.8901 41.76 74.0901 40.92C75.2501 40.11 76.2201 39.04 76.9301 37.76C77.5801 36.59 78.0001 35.27 78.1901 33.84C78.3201 32.83 78.3301 31.77 78.2201 30.7C81.7801 34.92 84.2301 40.42 84.2301 47.36C84.2301 47.72 84.0701 48.06 83.7501 48.24Z" fill="#292E35"/>
<path d="M61.7601 47.2398L62.7901 48.0898C63.0901 48.3298 63.4501 48.4498 63.8001 48.4498C64.1501 48.4498 64.4901 48.3298 64.7801 48.1098C64.8701 48.0398 64.9501 47.9598 65.0301 47.8698C65.5901 47.1998 65.4901 46.1998 64.8201 45.6398L63.7901 44.7898C63.1101 44.2298 62.1101 44.3298 61.5501 44.9998C61.2001 45.4198 61.1101 45.9798 61.2601 46.4698C61.3401 46.7698 61.5101 47.0298 61.7601 47.2398Z" fill="#292E35"/>
<path d="M76.4999 42.4602C76.4599 42.5102 76.4099 42.5602 76.3699 42.6202C75.8999 43.3602 76.1299 44.3402 76.8799 44.8002C77.6599 45.2902 78.3399 46.1402 78.7899 47.1202C78.9099 47.3802 79.0199 47.6502 79.0999 47.9302C79.3099 48.6702 79.4399 49.6802 79.1899 50.8502C79.0599 51.4702 78.8199 52.1302 78.4299 52.8302C77.4299 54.5802 75.6099 55.9502 73.1699 56.7802C71.5799 57.3202 69.7499 57.5902 67.8499 57.6302C67.6799 57.6302 67.5199 57.6502 67.3499 57.6502C66.5699 57.6502 65.7899 57.6102 64.9999 57.5202C63.8499 57.3902 62.7499 57.1902 61.6999 56.9302C58.5299 56.1702 55.8099 54.9202 53.8299 53.5902C53.2999 53.2302 52.8099 52.8702 52.3899 52.5102C52.8899 51.7902 52.7099 50.8202 51.9899 50.3202C51.5799 50.0402 51.0899 49.9802 50.6399 50.1102C50.2999 50.2102 49.9899 50.4102 49.7699 50.7202L48.9999 51.7802L48.9799 51.8102L47.2499 54.2902C46.7499 55.0102 46.9299 55.9902 47.6499 56.4902C47.9299 56.6802 48.2399 56.7702 48.5599 56.7702C49.0599 56.7702 49.5599 56.5302 49.8699 56.0902L50.5499 55.1102C51.5899 55.9602 52.9099 56.8402 54.4799 57.6402C55.5199 58.1702 56.6499 58.6702 57.8999 59.1102C59.3499 59.6202 60.9299 60.0502 62.6299 60.3602C63.2799 60.4802 63.9399 60.5802 64.6299 60.6602C65.4099 60.7502 66.1799 60.7902 66.9399 60.8102C67.1199 60.8102 67.3099 60.8302 67.4899 60.8302C69.8799 60.8302 72.1599 60.4802 74.2099 59.7802C77.3899 58.7002 79.8099 56.8402 81.1999 54.4102C82.3599 52.3902 82.6099 50.5102 82.4999 48.9802C82.4499 48.2702 82.3299 47.6202 82.1699 47.0802C82.0199 46.5502 81.8199 46.0402 81.5699 45.5502C80.8599 44.1202 79.8099 42.9002 78.5799 42.1402C77.8799 41.7002 76.9999 41.8602 76.4999 42.4602Z" fill="#292E35"/>
<path d="M78.7399 23.94C78.1699 22.95 77.4999 22.05 76.7399 21.25C75.5999 20.06 74.2899 19.14 72.8199 18.5C71.5099 17.93 70.1199 17.59 68.6599 17.51C65.9399 16.28 63.0399 15.26 60.0499 14.49C61.6599 13.07 62.6399 11.43 62.9399 9.63C63.0399 9.02 63.0699 8.44 63.0299 7.87C62.7599 3.95 59.6599 1.14 55.4899 1.04C55.3699 1.04 55.2499 1.04 55.1299 1.04C52.8199 1.04 50.9399 1.56 49.5699 2.01C46.8899 2.9 44.4399 4.32 42.3799 6.19C42.3099 5.7 42.1799 5.23 42.0099 4.76C41.4899 3.32 39.7199 0 34.6199 0C34.4499 0 34.2799 0 34.1099 0.01C31.9299 0.1 30.1399 0.91 28.8299 1.61L27.9599 2.1L27.7299 2.25C27.4699 2.42 27.2199 2.58 26.9699 2.75L26.8499 2.83L26.7399 2.91C26.4999 3.09 26.2699 3.27 26.0299 3.46L25.9599 3.51L25.8999 3.57C25.6799 3.75 25.4799 3.93 25.2899 4.1L25.0399 4.33C23.9299 5.38 22.9399 6.59 22.1199 7.91C21.3799 9.11 20.7499 10.44 20.2699 11.85C19.4699 14.19 19.0599 16.64 18.9999 19.34C18.9899 19.74 18.9899 20.15 18.9899 20.56C16.0699 22.46 12.4899 25.35 9.55987 29.41C9.28987 29.39 9.01987 29.38 8.75987 29.38C7.06987 29.38 5.54987 29.74 4.22987 30.46C2.02987 31.66 0.539874 33.83 0.0598745 36.58C-0.130126 37.66 0.109874 38.76 0.749874 39.66C1.38987 40.56 2.33987 41.16 3.42987 41.35C3.66987 41.39 3.90987 41.41 4.14987 41.41C4.24987 41.41 4.34987 41.41 4.44987 41.4C4.08987 43.33 3.90987 45.32 3.90987 47.37C3.90987 48.2 4.06987 49.01 4.38987 49.76V57.32C4.38987 60.71 6.21987 63.86 9.17987 65.56L40.9699 83.79C42.6899 84.77 44.6499 85.3 46.6299 85.3C48.6199 85.3 50.5699 84.78 52.2999 83.79L84.0899 65.56C87.0399 63.87 88.8799 60.71 88.8799 57.32V49.76C89.1899 49.01 89.3599 48.2 89.3599 47.37C89.3499 38.17 85.6799 30.09 78.7399 23.94ZM86.3099 49.17V57.31C86.3099 59.79 84.9699 62.11 82.7999 63.35L51.0099 81.57C49.6799 82.34 48.1599 82.74 46.6199 82.74C45.0799 82.74 43.5599 82.34 42.2299 81.57L10.4499 63.34C8.27987 62.1 6.93987 59.78 6.93987 57.3V49.16C6.62987 48.63 6.45987 48.01 6.45987 47.35C6.45987 42.55 7.52987 38.49 9.15987 35.07C8.37987 35.02 7.59987 35.1 6.98987 35.43C6.31987 35.8 5.89987 36.49 5.70987 37.54C5.56987 38.31 4.89987 38.85 4.13987 38.85C4.04987 38.85 3.94987 38.84 3.85987 38.82C2.99987 38.68 2.42987 37.86 2.57987 37.01C3.02987 34.48 4.39987 33.26 5.46987 32.68C6.84987 31.93 8.58987 31.73 10.6399 32.08C10.6999 32.09 10.7499 32.1 10.8099 32.11C13.9599 27.21 18.2299 23.92 21.6099 21.91C21.5499 21.07 21.5399 20.22 21.5599 19.39C21.6099 16.95 21.9799 14.74 22.6899 12.65C23.1099 11.42 23.6499 10.27 24.2899 9.23C24.9899 8.09 25.8299 7.06 26.7899 6.16L26.9999 5.98C27.1799 5.82 27.3499 5.66 27.5399 5.51L27.5699 5.48L27.5999 5.45C27.8299 5.27 28.0599 5.1 28.2899 4.92L28.3499 4.88L28.4099 4.84C28.6499 4.68 28.8899 4.52 29.1399 4.36L29.2999 4.26L30.0499 3.84C31.1199 3.27 32.5599 2.6 34.2199 2.54C34.3599 2.53 34.4999 2.53 34.6299 2.53C37.9999 2.53 39.1999 4.46 39.6199 5.61C40.1699 7.12 39.9499 8.89 38.9799 10.87C38.0099 12.85 36.1199 15.19 33.8599 16.94C35.6199 16.49 37.4099 16.12 39.1999 15.85C39.8199 13.61 41.0399 11.36 42.7099 9.46C44.7499 7.13 47.3999 5.38 50.3799 4.4C51.5699 4.01 53.1799 3.56 55.1399 3.56C55.2399 3.56 55.3399 3.56 55.4399 3.56C58.2799 3.63 60.3099 5.42 60.4999 8.03C60.5299 8.4 60.4999 8.79 60.4399 9.21C60.0399 11.62 57.7599 13.28 55.9099 14.24C54.7599 14.84 53.5099 15.31 52.2999 15.61C57.7999 16.24 63.2599 17.77 68.0699 20.02C69.3899 20.04 70.6499 20.3 71.8199 20.81C72.9699 21.32 74.0199 22.05 74.9199 22.99C75.6299 23.73 76.2299 24.59 76.7299 25.53C81.8099 29.91 86.8199 36.88 86.8199 47.34C86.7899 48.01 86.6199 48.63 86.3099 49.17Z" fill="white"/>
<path d="M78.1898 33.8402C77.9998 35.2702 77.5798 36.5902 76.9298 37.7602C76.2198 39.0402 75.2498 40.1002 74.0898 40.9202C72.8898 41.7602 71.4798 42.3402 69.9198 42.6002C69.2998 42.7102 68.6798 42.7602 68.0798 42.7602C66.7098 42.7602 65.3998 42.4902 64.1898 41.9602C63.8498 41.8102 63.5198 41.6302 63.1998 41.4402C62.4398 40.9902 61.7298 40.4402 61.0898 39.7702C60.7698 39.4302 60.4698 39.0602 60.1898 38.6802C59.9598 40.0502 59.5298 41.3202 58.8998 42.4602C58.1298 43.8502 57.0898 45.0102 55.8098 45.9102C55.6098 46.0502 55.3898 46.1702 55.1698 46.3002C54.3698 46.7802 53.5098 47.1602 52.5798 47.4302C52.1398 47.5602 51.6998 47.6602 51.2398 47.7402C50.5598 47.8502 49.8798 47.9102 49.2298 47.9102C47.7398 47.9102 46.3098 47.6202 44.9898 47.0402C43.7298 46.4902 42.5898 45.6902 41.6098 44.6602C39.8098 42.7902 38.5998 40.2402 38.0898 37.3102C37.9998 36.7602 37.9398 36.2202 37.8998 35.6802L12.5998 35.8202C12.3898 35.8202 12.1798 35.7802 11.9798 35.7002C11.9198 35.6702 11.8198 35.6402 11.7398 35.6102C10.0398 38.9502 9.00977 42.8502 9.00977 47.3502C9.00977 47.7102 9.17977 48.0502 9.48977 48.2302V57.3002C9.48977 58.8902 10.3398 60.3502 11.7198 61.1402L43.4998 79.3702C45.4298 80.4702 47.7998 80.4702 49.7198 79.3702L81.4998 61.1402C82.8798 60.3502 83.7298 58.8802 83.7298 57.3002V48.2402C84.0398 48.0602 84.2098 47.7202 84.2098 47.3602C84.2098 40.4202 81.7598 34.9302 78.1998 30.7002C78.3298 31.7702 78.3198 32.8302 78.1898 33.8402ZM63.7898 44.8002L64.8198 45.6502C65.4998 46.2102 65.5898 47.2002 65.0298 47.8802C64.9598 47.9702 64.8698 48.0502 64.7798 48.1202C64.4998 48.3402 64.1498 48.4602 63.7998 48.4602C63.4398 48.4602 63.0898 48.3402 62.7898 48.1002L61.7598 47.2502C61.5098 47.0402 61.3398 46.7802 61.2498 46.4902C61.0998 46.0002 61.1898 45.4502 61.5398 45.0202C62.1098 44.3402 63.1098 44.2402 63.7898 44.8002ZM81.5598 45.5402C81.7998 46.0302 81.9998 46.5402 82.1598 47.0702C82.3198 47.6102 82.4398 48.2602 82.4898 48.9702C82.5998 50.5102 82.3498 52.3802 81.1898 54.4002C79.7898 56.8302 77.3798 58.6902 74.1998 59.7702C72.1498 60.4702 69.8598 60.8202 67.4798 60.8202C67.2998 60.8202 67.1198 60.8102 66.9298 60.8002C66.1698 60.7802 65.3998 60.7402 64.6198 60.6502C63.9298 60.5702 63.2698 60.4702 62.6198 60.3502C60.9198 60.0402 59.3398 59.6102 57.8898 59.1002C56.6498 58.6602 55.5098 58.1602 54.4698 57.6302C52.9098 56.8302 51.5898 55.9602 50.5398 55.1002L49.8598 56.0802C49.5498 56.5202 49.0498 56.7602 48.5498 56.7602C48.2398 56.7602 47.9198 56.6702 47.6398 56.4802C46.9198 55.9802 46.7398 55.0002 47.2398 54.2802L48.9698 51.8002C48.9798 51.7902 48.9798 51.7802 48.9898 51.7702L49.7298 50.7102C49.9498 50.4002 50.2598 50.2002 50.5998 50.1002C51.0398 49.9702 51.5398 50.0302 51.9498 50.3102C52.6698 50.8102 52.8498 51.7902 52.3498 52.5002C52.7698 52.8602 53.2598 53.2302 53.7898 53.5802C55.7798 54.9102 58.4898 56.1602 61.6598 56.9202C62.7098 57.1702 63.8198 57.3702 64.9598 57.5102C65.7498 57.6002 66.5298 57.6402 67.3098 57.6402C67.4798 57.6402 67.6398 57.6202 67.8098 57.6202C69.7098 57.5802 71.5398 57.3102 73.1298 56.7702C75.5698 55.9402 77.3898 54.5802 78.3898 52.8202C78.7898 52.1302 79.0198 51.4602 79.1498 50.8402C79.3998 49.6702 79.2698 48.6502 79.0598 47.9202C78.9798 47.6402 78.8698 47.3702 78.7498 47.1102C78.3098 46.1302 77.6198 45.2702 76.8398 44.7902C76.0998 44.3302 75.8698 43.3502 76.3298 42.6102C76.3698 42.5502 76.4098 42.5002 76.4598 42.4502C76.9598 41.8502 77.8398 41.6902 78.5298 42.1102C79.7898 42.8902 80.8498 44.1102 81.5598 45.5402Z" fill="white"/>
<path d="M39.35 28.3902C40.12 27.0002 41.16 25.8402 42.44 24.9402C43.76 24.0102 45.3 23.4002 47.01 23.1102C47.69 23.0002 48.37 22.9402 49.03 22.9402C50.52 22.9402 51.95 23.2302 53.27 23.8202C54.53 24.3702 55.67 25.1702 56.65 26.2002C57.14 26.7102 57.58 27.2702 57.98 27.8802C58.21 26.8502 58.57 25.8902 59.06 25.0202C60.09 23.1602 61.67 21.7602 63.6 20.9202C58 18.8402 51.98 17.8302 46.63 17.8302C46.51 17.8302 46.38 17.8402 46.25 17.8402C46.51 16.8802 47.08 15.5602 48.23 14.2502C48.46 13.9902 48.72 13.7202 49.01 13.4502C52.17 13.6502 57.49 11.2102 57.89 8.80022C57.92 8.61022 57.94 8.41022 57.92 8.21022C57.83 6.90022 56.86 6.14022 55.35 6.10022C53.78 6.06022 52.4 6.40022 51.16 6.81022C48.06 7.84022 45.95 9.61022 44.62 11.1302C42.48 13.5702 41.54 16.2102 41.33 18.1402C37.19 18.6102 32.88 19.6402 28.82 21.2402C28.78 20.6702 28.75 20.1002 28.76 19.5402C28.77 18.7402 28.83 17.9502 28.95 17.1802C28.97 17.0402 28.99 16.9002 29.02 16.7602C33.22 15.4102 38.25 9.35022 37.2 6.48022C36.75 5.25022 35.56 5.02022 34.3 5.07022C33.24 5.11022 32.21 5.55022 31.24 6.07022L30.88 6.27022L30.7 6.37022L30.61 6.42022L30.52 6.48022C30.29 6.63022 30.06 6.78022 29.83 6.94022C29.61 7.11022 29.39 7.28022 29.17 7.45022C28.96 7.63022 28.76 7.82022 28.55 8.00022C27.74 8.76022 27.04 9.63022 26.47 10.5602C25.9 11.4902 25.45 12.4702 25.11 13.4602C24.43 15.4502 24.15 17.4702 24.11 19.4502C24.08 20.4402 24.12 21.4302 24.21 22.4002C24.24 22.7002 24.28 23.0102 24.32 23.3102C24.19 23.3802 24.05 23.4402 23.91 23.5102C20.04 25.6402 16.29 28.6602 13.52 32.6502L38 32.5102C38.21 31.0102 38.66 29.6202 39.35 28.3902Z" fill="white"/>
<path d="M61.0297 32.5702C61.7197 36.5902 64.2897 39.6002 68.0797 39.6002C68.4997 39.6002 68.9297 39.5602 69.3797 39.4902C73.8797 38.7202 75.7097 34.6802 74.9397 30.2102C74.9297 30.1502 74.9097 30.0902 74.8997 30.0302C75.1397 32.7202 73.4897 35.0602 71.2197 35.2702C68.9297 35.4802 66.8797 33.4602 66.6297 30.7702C66.3797 28.0702 68.0297 25.7202 70.3097 25.5102C71.9897 25.3602 73.5397 26.4102 74.3397 28.0402C74.0697 27.3302 73.7197 26.6902 73.3197 26.1102C72.2297 24.5602 70.6897 23.5102 68.7797 23.2602C68.4897 23.2202 68.1997 23.2002 67.8897 23.2002C67.4697 23.2002 67.0297 23.2402 66.5897 23.3102C62.0897 24.0502 60.2597 28.0902 61.0297 32.5702Z" fill="white"/>
<path d="M51.39 29.3198C53.6 28.9398 55.75 30.3798 56.7 32.6598C55.6 28.8198 52.87 26.0898 49.02 26.0898C48.54 26.0898 48.05 26.1298 47.54 26.2198C43.93 26.8298 41.84 29.2998 41.23 32.4798C41.04 33.4798 40.99 34.5398 41.08 35.6398C41.11 36.0098 41.16 36.3798 41.22 36.7498C42.01 41.3198 44.92 44.7298 49.22 44.7298C49.7 44.7298 50.19 44.6898 50.7 44.5998C55.36 43.8098 57.49 39.9198 57.17 35.3898C57.07 37.8898 55.52 39.9998 53.29 40.3798C50.66 40.8298 48.1 38.7098 47.58 35.6498C47.05 32.6098 48.76 29.7698 51.39 29.3198Z" fill="white"/>
</g>
<defs>
<clipPath id="clip0_2152_15891">
<rect width="89.35" height="85.28" fill="white"/>
</clipPath>
</defs>
</svg>
