<svg width="393" height="22" viewBox="0 0 393 22" fill="none" xmlns="http://www.w3.org/2000/svg">
<path d="M5.81836e-08 20.5009C8.88889 20.5009 17.7805 17.1108 24.5625 10.3337C31.3445 3.55663 40.2361 0.166507 49.125 0.166508C58.0139 0.166509 66.9055 3.55663 73.6875 10.3337C80.4695 17.1108 89.3611 20.5009 98.25 20.5009C107.139 20.5009 116.03 17.1108 122.812 10.3337C129.594 3.55663 138.486 0.166516 147.375 0.166517C156.264 0.166518 165.156 3.55664 171.937 10.3337C178.719 17.1108 187.611 20.5009 196.5 20.5009C205.389 20.5009 214.281 17.1108 221.062 10.3337C227.844 3.55664 236.736 0.166525 245.625 0.166525C254.514 0.166526 263.406 3.55665 270.187 10.3338C276.969 17.1109 285.861 20.501 294.75 20.501C303.639 20.501 312.531 17.1109 319.312 10.3338C326.094 3.55665 334.986 0.166533 343.875 0.166534C352.764 0.166535 361.656 3.55666 368.437 10.3338C375.219 17.1109 384.111 20.501 393 20.501L393 21.1665L0 21.1665L5.81836e-08 20.5009Z" fill="#282E36"/>
</svg>
