<svg width="1440" height="73" viewBox="0 0 1440 73" fill="none" xmlns="http://www.w3.org/2000/svg">
<path d="M420 24.8535C436.567 41.4199 458.287 49.707 480 49.707C501.714 49.7068 523.434 41.4197 540 24.8533C556.567 8.28693 578.287 -0.000105851 600 -0.000103953C621.714 -0.000102054 643.434 8.28696 660 24.8534C676.567 41.4197 698.287 49.7068 720 49.7068C741.714 49.7068 763.434 41.4198 780 24.8534C796.567 8.28702 818.287 -2.38343e-05 840 -2.19361e-05C861.714 -2.00378e-05 883.434 8.28701 900 24.8534C916.567 41.4198 938.287 49.7069 960 49.7069C981.714 49.7069 1003.43 41.4198 1020 24.8534C1036.57 8.28706 1058.29 2.76647e-05 1080 2.9563e-05C1101.71 3.14612e-05 1123.43 8.28711 1140 24.8535C1156.57 41.4199 1178.29 49.7069 1200 49.7069C1221.71 49.7069 1243.43 41.4199 1260 24.8535C1276.57 8.28713 1298.29 7.91638e-05 1320 8.1062e-05C1341.71 0.000113478 1363.43 8.28715 1380 24.8535C1396.57 41.4199 1418.29 49.707 1440 49.707L1440 72.1667L0 72.1666L1.9635e-06 49.7068C21.7136 49.7069 43.4336 41.4198 60.0002 24.8535C76.5669 8.28708 98.2869 3.52916e-05 120 3.71898e-05C141.714 3.90881e-05 163.434 8.28709 180 24.8535C196.567 41.4198 218.287 49.7069 240 49.7069C261.714 49.7069 283.434 41.4199 300 24.8535C316.567 8.28712 338.287 8.67906e-05 360 8.86889e-05C381.713 9.05871e-05 403.433 8.28716 420 24.8535Z" fill="#282E36"/>
</svg>
