<svg width="94" height="123" viewBox="0 0 94 123" fill="none" xmlns="http://www.w3.org/2000/svg">
<g clip-path="url(#clip0_1635_12722)">
<path d="M80.5606 32.5371C80.444 32.3372 80.2655 32.1663 80.0141 32.0427C77.9845 31.0503 73.7904 29.8435 72.0814 31.9809C71.7061 31.8392 71.2871 31.8501 70.9118 32.1009C69.1482 33.2787 68.0842 34.9181 67.3007 36.8629C67.0894 37.39 66.9436 37.8772 66.827 38.3824C66.0582 36.9102 65.0999 35.5725 63.6314 34.6818C63.4419 34.5655 63.2451 34.5074 63.052 34.4892C63.0447 34.4855 63.0374 34.4783 63.0302 34.4746C62.2249 33.9621 61.4232 33.7258 60.4868 33.6894C60.3811 33.6349 60.2645 33.5913 60.1333 33.5586C57.2911 32.8788 54.4016 33.3914 52.0622 35.1762C51.8217 35.358 51.665 35.5797 51.563 35.8124C51.2934 36.0341 51.0383 36.2668 50.7869 36.5103C49.1253 37.1937 47.7661 39.582 47.3216 41.0688C47.194 41.5014 47.2596 41.8722 47.4418 42.1666C47.4163 42.2793 47.3981 42.3993 47.3908 42.5265C47.3762 42.7992 47.3617 43.0718 47.3507 43.3481C47.2633 43.4935 47.2013 43.6498 47.1722 43.8243C46.8406 45.8781 46.6329 47.9793 47.103 49.9968C46.6839 50.4439 46.4799 51.0837 46.6657 51.7017C46.8661 52.3705 47.1503 53.0285 47.5293 53.6138C47.5876 53.7046 47.6532 53.7882 47.726 53.8682C47.7443 53.89 47.7698 53.9118 47.788 53.9336C47.8317 53.9773 47.8718 54.0209 47.9192 54.0572C47.9556 54.09 47.992 54.119 48.0321 54.1445C48.0904 54.1881 48.1524 54.2281 48.218 54.2644C48.2325 54.2717 48.2435 54.279 48.2544 54.2863C48.4074 54.3662 48.5714 54.428 48.7427 54.4607C48.8411 54.7297 48.954 54.9915 49.0852 55.2496C49.1253 57.318 51.9857 59.3282 53.5234 60.237C54.3943 60.7496 55.5384 61.6911 56.6316 61.5929C57.0397 61.771 57.3968 61.8401 57.9142 61.8656C57.9871 61.9092 58.06 61.9528 58.1438 61.9892C59.2843 62.4944 60.4868 61.7092 61.5435 61.2767C62.95 60.9968 64.3091 60.4369 65.3294 59.5463C65.5626 59.4882 65.7922 59.3609 65.9999 59.1356C67.7161 57.2816 69.1627 55.4168 69.498 52.9194C70.7514 54.3989 72.3547 55.5368 74.235 56.1765C75.4228 56.5837 77.8351 57.0962 78.9464 56.1147C81.2748 55.7803 83.3883 54.3808 84.609 52.3596C85.7968 50.3857 86.2268 48.3864 86.256 46.2998C87.2872 41.8831 84.9442 34.8418 80.5606 32.5371ZM64.1853 56.8091C63.952 56.9072 63.7334 57.0635 63.5512 57.2998C62.9937 58.0196 61.8641 58.1395 61.0333 58.3067C60.228 58.4703 59.4628 58.5757 58.6648 58.5467C58.5373 58.4049 58.4025 58.2704 58.2494 58.1577C57.7138 57.7651 57.1271 57.6015 56.515 57.3543C54.9882 56.7291 53.7785 55.6603 52.9003 54.2754C52.78 54.0863 52.6234 53.9446 52.4448 53.8355C52.412 53.7592 52.3756 53.6792 52.3319 53.5992C51.8618 52.7668 51.9274 51.6798 51.8071 50.7492C51.6869 49.8186 51.5156 48.9062 51.2934 47.9974C51.3772 47.8302 51.4391 47.6412 51.4646 47.4303C51.665 45.7509 51.8837 44.0824 52.2444 42.4284C52.3464 41.9631 52.2371 41.5668 52.0148 41.2651C52.78 40.011 53.8732 38.9677 55.2068 38.1498C55.4728 37.9862 55.666 37.7899 55.8044 37.5718C55.9028 37.5609 56.0085 37.5427 56.1142 37.51C56.7664 37.3173 57.4187 37.1574 58.0782 37.0156C58.5337 36.972 58.9819 36.9611 59.4264 36.9793C59.5321 37.2446 59.7398 37.4846 60.0932 37.6481C60.8074 37.9789 61.6747 38.1025 62.316 38.5169C63.0885 39.015 63.7188 39.8983 64.229 40.6362C64.3019 40.7417 64.382 40.8289 64.4622 40.9089C64.331 41.4541 64.4877 42.0576 65.1217 42.4247C65.1217 42.4247 65.1254 42.4247 65.1254 42.4284C65.1399 42.4575 65.1509 42.4865 65.1654 42.5156C65.191 42.6174 65.2274 42.7228 65.2748 42.8282C65.508 43.3553 65.7412 43.8824 65.978 44.4095C65.8979 44.7258 65.9452 45.082 66.1857 45.4492C66.6813 46.1944 66.5355 47.4522 66.572 48.3246C66.6193 49.4042 66.6594 50.4911 66.6558 51.5744C66.6521 53.7955 65.5954 55.2568 64.1853 56.8091ZM83.1478 43.2972C83.5158 45.8127 83.5705 48.0411 82.3789 50.3603C81.5299 52.0179 80.0833 53.0358 78.3525 53.2284C78.3525 53.2284 78.3525 53.2284 78.3488 53.2284C77.0662 52.7159 75.9621 52.5814 74.7815 51.7707C73.375 50.8038 72.679 49.9568 72.1397 48.3246C71.5677 46.5906 71.1559 44.8167 70.8535 43.0136C70.7988 42.6974 70.664 42.4575 70.4818 42.2866C70.8097 39.8401 71.6588 37.2301 73.2037 35.3107C73.5863 35.2526 73.8961 35.0308 74.1001 34.7327C74.3843 34.5292 74.8471 34.3729 75.339 34.2456C75.5795 34.5837 75.9621 34.8127 76.465 34.7945C77.1318 34.7727 77.7986 34.7618 78.4691 34.7546C81.0926 35.398 82.8599 39.0513 83.4065 42.1957C83.1951 42.4938 83.0858 42.8646 83.1478 43.2972Z" fill="#537CE6"/>
<path d="M91.7586 55.6786C91.4234 54.588 90.9898 52.9994 89.6998 52.7159C89.6926 52.7159 89.6853 52.7123 89.678 52.7123C88.9674 51.7962 88.0674 51.0219 87.0398 50.4657C86.6026 50.2294 86.0524 50.3603 85.7936 50.7929C85.1778 51.8144 84.4163 52.7195 83.5964 53.5847C82.8166 54.4062 82.0186 55.4023 81.0202 55.9621C80.0765 56.4892 78.8594 56.9181 77.7772 57.0054C77.3545 57.0381 76.9391 57.0199 76.5274 56.9727C76.4946 56.9363 76.4581 56.9 76.4181 56.8672C75.58 56.1693 74.4759 55.8821 73.4228 56.2529C73.3099 56.2929 73.2042 56.3511 73.1131 56.4238C73.0184 56.0748 72.7414 55.7912 72.2714 55.8021C72.2313 55.8021 72.1949 55.8058 72.1548 55.8058C71.9544 55.5986 71.7612 55.3768 71.5718 55.166C71.4187 54.9951 71.2037 54.9152 70.9778 54.9079C70.5078 54.2136 69.4073 54.468 69.3162 55.395C69.1814 56.7509 68.0227 57.8415 67.1226 58.7539C66.0331 59.8626 64.8562 60.815 63.5043 61.582C63.4424 61.5857 63.3768 61.5966 63.3075 61.6148C57.3207 63.2615 50.0622 60.3715 47.865 54.3408C47.1836 52.4687 46.9977 50.4403 46.1852 48.6154C46.3273 48.4664 46.4184 48.2701 46.4184 48.0265C46.4184 47.8484 46.3491 47.6558 46.2362 47.4958C46.3783 46.5725 46.5204 45.6491 46.6625 44.7294C46.8338 43.6062 47.0087 42.5229 47.384 41.4469C48.0581 39.5166 48.9326 37.7209 50.1241 36.0705C50.1861 36.0305 50.2444 35.9796 50.299 35.9178C50.6816 35.4852 51.0679 35.0563 51.4833 34.6601C51.5999 34.6492 51.7165 34.6128 51.8295 34.5474C52.059 34.4165 52.2813 34.2711 52.4963 34.1184C52.755 34.0021 53.0064 33.8712 53.2506 33.7295C53.5785 33.8894 53.9939 33.8494 54.3 33.5695C54.9741 32.9624 56.0235 32.9624 56.8798 32.9297C58.0859 32.8825 59.3175 32.8788 60.5091 33.1042C61.6022 33.3078 62.6334 33.6858 63.5845 34.2638C64.3788 34.7473 65.3044 35.398 65.6615 36.2995C66.0222 37.2083 67.2283 37.0629 67.4178 36.285C67.4433 36.2304 67.4615 36.1759 67.4761 36.1141C67.815 34.511 68.8389 33.206 70.311 32.4862C70.9523 32.1736 70.8503 31.2576 70.311 30.9158C69.3308 30.2979 68.2777 29.8071 67.1809 29.4327C67.0206 29.3782 66.8749 29.3782 66.7364 29.4109C66.4449 29.2146 66.1497 29.0328 65.8254 28.8838C64.7068 28.3603 63.4934 28.0986 62.2581 28.1422C62.1524 28.1459 62.0504 28.1713 61.9557 28.2113C60.367 27.6297 58.7017 27.2625 57.0037 27.2044C56.2932 27.1789 55.5899 27.2262 54.8866 27.317C55.364 27.0699 55.7247 26.6918 55.8231 26.0956C55.9288 25.4631 55.8705 24.7906 55.8705 24.1508L55.8814 21.828C55.8887 20.3957 55.8923 18.9671 55.8996 17.5348C55.8996 17.244 55.8158 16.7896 55.9033 16.5134C55.9142 16.477 55.6446 16.7242 55.9761 16.4297C56.0527 16.3643 56.1255 16.2989 56.2021 16.2298C56.6976 15.7972 57.1859 15.3574 57.6632 14.9102C59.4414 13.2381 61.0994 11.406 62.4039 9.33392C63.0561 8.2979 63.6282 7.19281 64.0436 6.04046C64.2513 5.46974 64.346 4.82269 64.0873 4.25197C64.0727 4.13201 64.0327 4.01205 63.9525 3.89936C63.599 3.41224 63.0488 3.07781 62.4585 3.10689C60.7131 2.86697 58.8657 4.42282 57.7106 5.53881C56.8871 6.33491 56.0527 7.14555 55.3275 8.03617C54.5769 8.95223 53.9101 9.93372 53.8372 11.1406C53.3198 12.1802 52.9117 13.2853 52.5764 14.405C52.2193 15.0266 51.9643 15.7064 51.7712 16.4079C51.4359 17.6293 51.1881 18.8798 51.0315 20.134C50.7363 22.5114 51.261 24.8488 51.2683 27.2189C49.8509 27.6769 48.4225 28.1204 46.9722 28.4585C46.8155 28.4803 46.6589 28.5021 46.5022 28.5348C46.3273 28.5712 46.156 28.6184 45.9884 28.6766C45.3289 28.8038 44.6657 28.9056 43.9952 28.9638C43.3648 29.0183 42.698 28.9892 42.064 29.0946C40.7996 26.8263 39.8959 24.3835 38.8319 22.017C38.2562 20.7338 37.6258 19.4687 36.8606 18.2837C36.7877 18.171 36.7148 18.0619 36.6383 17.9529C37.225 17.364 37.7278 16.6551 38.1979 16.0371C39.0942 14.8557 39.885 13.5943 40.5554 12.2748C41.2587 10.897 41.787 9.44297 42.4721 8.05798C43.1389 6.69843 43.8057 5.29162 43.7292 3.73941C43.7256 3.64489 43.7037 3.55765 43.6746 3.47768C43.7219 2.94331 43.6454 2.41985 43.3903 1.91819C43.3794 1.89638 43.3685 1.87457 43.3575 1.85276C43.3575 1.84913 43.3539 1.84913 43.3539 1.84549C43.3138 1.76915 43.2737 1.69282 43.2264 1.62011C43.2227 1.62011 43.2227 1.62375 43.2191 1.62375C43.1753 1.56195 43.1316 1.49652 43.0843 1.43472C42.8401 1.11846 42.4903 1.08574 42.1806 1.20934C41.7032 1.11482 41.1603 1.20934 40.7267 1.33293C39.3639 1.7219 38.3254 2.72884 37.4363 3.78303C36.5363 4.84813 35.731 5.98957 35.0496 7.20371C34.3755 8.40695 33.5921 9.7665 33.7524 11.1842C33.0346 13.0672 32.6884 15.0884 32.7613 17.1095C32.7613 17.1313 32.7686 17.1495 32.7686 17.1677C32.7686 17.4476 32.7758 17.7311 32.7868 18.011C32.8378 19.1961 32.9726 20.3775 33.1803 21.5444C33.3844 22.6859 33.6649 23.8164 34.0257 24.9215C34.1969 25.4486 34.401 26.1393 34.7617 26.6409C35.0095 27.557 35.301 28.4803 35.731 29.3237C35.9678 29.7853 36.2994 30.1815 36.5873 30.6105C36.7258 30.8177 36.8824 31.054 36.9553 31.3012C36.7768 31.3375 36.6019 31.3739 36.4342 31.4102C35.618 31.5847 34.8237 31.8428 34.0548 32.1627C32.4224 32.8388 30.9357 33.7585 29.5656 34.8709C26.8728 37.0629 24.8213 39.971 23.1343 42.9737C22.584 43.9515 22.1504 44.9476 21.9172 46.049C21.8115 46.5398 21.7132 47.0305 21.6184 47.5249C21.3597 47.9393 21.2067 48.3937 21.1739 48.8699C20.9297 48.9135 20.7002 49.0444 20.5435 49.2734C20.4597 49.4006 20.3759 49.5242 20.2884 49.6515C20.0115 50.0622 20.1354 50.4621 20.4159 50.7129C20.4196 50.8838 20.4196 51.0546 20.4232 51.2218C20.4269 51.8326 20.999 52.2251 21.5747 52.0979C24.6902 51.4036 27.8457 50.9201 31.0049 50.4657C32.5426 50.244 34.0803 50.0222 35.6217 49.8041C36.3759 49.6951 37.1302 49.5824 37.8918 49.5497C38.657 49.517 39.4258 49.5678 40.191 49.5351C41.6012 49.477 43.0114 49.277 44.4179 49.0916C44.4361 49.1571 44.458 49.2189 44.4871 49.2807C44.7203 49.7532 44.724 50.2949 44.724 50.8074C44.724 51.2 44.713 51.589 44.6985 51.9816C44.5746 52.0216 44.4616 52.0906 44.3742 52.1961C43.9806 52.6723 43.3721 52.6177 42.8 52.6541C42.0275 52.7014 41.255 52.7522 40.4826 52.8068C38.9376 52.9158 37.3926 53.0467 35.8512 53.1957C32.7394 53.4938 29.5802 53.7737 26.5084 54.3663C24.8323 54.6898 23.2253 55.315 21.531 55.555C21.0318 55.624 20.7913 56.2456 20.8933 56.6746C21.3233 58.434 21.6403 60.277 22.2743 61.9783C22.8427 63.505 23.7136 64.8719 24.7849 66.0969C25.4955 66.9075 26.2862 67.6237 27.1242 68.2889C27.5214 68.8196 27.9842 69.3031 28.4907 69.7248C29.2522 70.361 30.083 70.9026 30.9393 71.4006C31.3219 71.6224 31.7045 71.8477 32.0944 72.0586C39.1562 74.8576 46.5204 75.5192 54.4239 75.0103C54.8793 74.7595 55.3603 74.5923 55.8923 74.4978C56.1328 74.4541 56.366 74.4069 56.5956 74.3451C56.6102 74.3669 56.6284 74.3887 56.643 74.4069C57.0729 74.9122 57.6341 75.2866 58.2463 75.5847C58.7819 76.0863 59.4633 76.4208 60.1775 76.6207C60.5054 76.7915 60.8443 76.9515 61.1905 77.0969C61.2998 77.1405 61.4164 77.1478 61.533 77.1296C61.635 77.2278 61.7589 77.3041 61.9083 77.3368C62.2107 77.4023 62.5095 77.4386 62.8083 77.4677C63.8177 77.5949 64.838 77.6494 65.8509 77.584C65.9967 77.5731 66.1388 77.5586 66.2809 77.5368C67.917 77.9039 69.7644 77.3804 70.9013 76.1372C70.9997 76.09 71.0944 76.0354 71.1855 75.9773C72.0746 75.3956 72.6394 74.505 73.1095 73.5781C73.4155 73.5199 73.6706 73.28 73.7799 72.9928C75.1864 73.1709 76.5966 73.1091 77.9958 72.9056C79.2493 72.8401 80.5939 72.8147 81.7563 72.3603C81.9713 72.2767 82.1535 72.1349 82.2737 71.9568C83.8733 71.5097 85.4584 70.9462 86.854 70.0738C90.4687 67.82 92.4837 63.6286 92.3635 59.4264C92.3343 58.1505 92.1266 56.8818 91.7586 55.6786Z" fill="#FFA53A"/>
<path d="M37.5715 72.9455C37.586 72.9528 37.6043 72.9637 37.6188 72.9746C37.648 72.9891 37.6698 73.0037 37.6844 73.0146C37.699 73.0764 37.6771 73.1563 37.6735 73.2181C37.6589 73.4508 37.6298 73.6762 37.6553 73.9125C37.6626 73.9888 37.6844 74.0615 37.7099 74.1306C36.8682 75.432 36.216 78.1511 36.4783 79.6851C36.6714 82.4369 37.6662 84.0327 39.6594 85.9412C38.9087 86.2393 39.9144 87.039 39.6229 87.5988C39.1857 88.4386 38.916 89.3401 38.7557 90.2707C38.4642 91.9647 38.3367 93.6914 38.1763 95.4071C37.2071 95.3672 36.2342 95.3454 35.2649 95.4035C34.0151 95.4799 32.86 95.7452 31.6612 96.0906C31.1182 96.2469 30.1818 94.7019 29.9522 94.6002C28.2141 93.815 26.374 93.6914 24.4536 93.5278C23.5318 93.4478 22.6244 93.5714 21.7317 93.8077C21.0576 93.9858 20.5948 94.004 19.8879 93.9749C18.6089 90.6197 16.6777 87.1881 13.2489 85.7631C14.8084 82.735 14.4659 79.198 13.3509 76.0281C14.3384 76.0645 15.3368 76.0208 16.2805 75.73C17.5595 75.3374 18.6636 74.4832 19.2247 73.2472C19.7895 72.0113 19.8114 70.619 19.232 69.3831C18.6745 68.1944 17.5741 67.2928 16.317 66.9439C16.1639 66.9002 16.0072 66.9111 15.8651 66.9584C14.8084 66.5658 13.6752 66.3913 12.5456 66.4786C10.3884 66.6458 8.24951 67.6818 6.87578 69.3867C6.66809 69.6448 5.87373 69.3431 5.77535 69.6193C5.71704 69.6521 5.65874 69.6884 5.60409 69.732C4.41255 70.6772 4.00809 72.2221 3.26839 73.5708C2.57241 74.8394 2.03677 76.2244 1.62502 77.6131C0.794223 80.4267 0.575593 83.4729 1.45011 86.3011C1.45376 86.3083 1.4574 86.312 1.4574 86.3193C1.37724 89.5982 2.01855 92.8553 3.35948 95.8797C3.3777 95.9233 3.40321 95.9597 3.42507 95.996C3.48337 96.2178 3.54532 96.4359 3.6182 96.6504C4.21943 98.4643 5.12674 100.155 6.09965 101.79C7.09806 103.466 8.16206 105.106 9.28436 106.702C9.56129 107.094 9.84187 107.49 10.1261 107.876C10.403 108.25 10.6872 108.639 11.0953 108.883C11.3541 109.039 11.6529 109.123 11.9516 109.137C14.4659 111.958 17.6069 114.194 21.0321 115.786C21.1961 115.862 21.3637 115.935 21.5313 116.008C22.7775 116.807 24.1403 117.4 25.5504 117.909C27.5983 118.647 29.7044 119.199 31.8652 119.457C33.0458 119.599 34.241 119.639 35.4289 119.545C35.8333 119.512 36.2852 119.486 36.7334 119.41C36.7844 119.41 36.8318 119.414 36.8828 119.414C39.4189 119.381 41.9878 118.625 43.704 116.724C44.3672 116.313 45.0049 115.859 45.6134 115.368C46.4588 114.684 47.4535 113.83 47.9199 112.787C47.9236 112.787 47.9272 112.787 47.9309 112.787C48.5977 112.83 48.9475 111.929 48.5649 111.467C48.5722 111.464 48.5758 111.46 48.5831 111.456C50.1026 110.526 50.8168 108.999 51.0573 107.28C51.1775 106.425 51.2796 105.582 51.5674 104.76C51.8444 103.968 52.2561 103.23 52.6934 102.518C53.1379 101.794 53.6189 101.1 54.0853 100.391C54.344 99.9947 54.5372 99.5876 54.457 99.1041C54.3805 98.6533 54.1546 98.2135 54.0197 97.7736C53.4185 95.8216 53.2946 93.735 53.6736 91.7247C53.6772 91.7102 53.6736 91.6957 53.6772 91.6811C54.2493 91.5357 54.57 90.616 53.9141 90.1798C52.7152 89.3728 51.8844 88.1005 51.5201 86.7046C51.2941 85.8358 51.2504 84.9234 51.3597 84.0364C51.4654 83.1785 51.7715 82.4006 52.0338 81.5826C52.1687 81.161 52.2197 80.7502 52.2051 80.3467C52.3472 80.2522 52.4747 80.114 52.5841 79.9214C52.7371 79.6524 52.7808 79.3543 52.963 79.0998C53.0359 78.998 53.1197 78.9144 53.2072 78.8381C53.5533 79.0889 54.089 79.1071 54.3914 78.6454C55.0655 77.613 55.7651 76.5007 56.7963 75.7846C56.9129 75.701 56.5121 73.6289 56.6324 73.5635C49.7091 74.007 43.7696 75.4211 37.5715 72.9455Z" fill="#FFA53A"/>
<path d="M75.2228 96.1887C75.1427 94.6183 74.8949 93.0552 74.4868 91.5394C74.4795 91.5139 74.4686 91.4921 74.4613 91.4703C74.4868 91.3503 74.4831 91.2267 74.4431 91.1104C74.2099 90.4306 73.8163 89.8854 73.3463 89.3546C73.1495 89.1329 72.9454 88.8239 72.7159 88.6385C72.7305 88.584 72.745 88.5295 72.7596 88.4749C72.807 88.2823 72.8471 88.0896 72.8799 87.8969C73.1677 86.2866 73.1131 84.6471 72.7086 83.0622C72.6612 82.8768 72.5446 82.7241 72.3952 82.6223C72.2276 81.8226 71.8559 81.081 71.3385 80.4521C71.3021 80.3613 71.262 80.2667 71.2256 80.1722C71.0434 79.7287 70.8393 79.3216 70.5697 78.929C70.4385 78.7363 70.3037 78.5473 70.1798 78.351C70.1069 78.2347 70.0377 78.1147 69.9648 77.9948C69.9575 77.9802 69.9174 77.9075 69.881 77.8457C69.8336 77.5585 69.5676 77.2532 69.3053 77.2059C69.298 77.2059 69.2907 77.2023 69.2834 77.2023C68.9008 77.1332 68.4599 77.2968 68.3287 77.704C67.2428 77.3586 66.0841 77.4313 64.9545 77.2786C63.6792 77.1042 60.8406 77.0569 59.6418 76.5698C59.1025 76.3517 58.5851 76.0718 58.1005 75.7482C57.6013 75.4174 56.5482 74.8685 56.5482 74.8685C56.5482 74.8685 55.5753 75.1012 54.7554 76.01C53.808 77.0642 53.2614 78.3801 52.7914 79.7106C52.2557 80.6266 51.9533 81.6554 51.7529 82.6987C51.5452 83.7856 51.3302 84.927 51.414 86.0394C51.5015 87.1663 51.9023 88.1623 52.6529 88.9948C53.0137 89.3946 53.4363 89.7291 53.859 90.0562C54.0412 90.1944 54.2562 90.3289 54.4457 90.4815C53.3817 92.8807 53.378 95.6471 54.4639 98.0245C54.442 98.0972 54.4238 98.1735 54.4165 98.2535C54.3327 99.1841 53.8007 100.013 53.3234 100.784C52.755 101.696 52.2375 102.605 51.8331 103.608C51.4395 104.586 51.1517 105.604 50.9913 106.651C50.9513 106.92 50.8893 107.225 50.8565 107.527C50.7691 107.589 50.6998 107.672 50.6488 107.774C49.4063 110.351 48.1382 113.078 46.105 115.11C45.1685 116.048 44.1118 116.836 43.0186 117.574C42.4502 117.956 41.8708 118.378 41.2368 118.647C40.6319 118.901 39.9724 118.839 39.3675 119.072C38.5549 119.385 38.6424 120.642 39.5788 120.668C39.6444 120.668 39.7246 120.668 39.7902 120.697C39.9396 120.762 40.0999 120.795 40.2493 120.788C42.0603 121.13 43.8968 121.322 45.7406 121.322C46.5859 121.322 47.4313 121.286 48.2803 121.246C48.3058 121.253 48.3277 121.264 48.3568 121.268C48.4297 121.282 48.499 121.286 48.5682 121.293V121.297C48.59 121.3 48.6119 121.297 48.6338 121.3C48.7176 121.308 48.805 121.315 48.8888 121.315C49.7342 121.366 50.5759 121.297 51.4067 121.115C51.476 121.1 51.5343 121.075 51.5889 121.05C52.6784 121.053 53.7716 120.991 54.8538 120.853C55.5643 120.762 56.2749 120.661 56.9599 120.453C57.634 120.25 58.2608 119.923 58.8948 119.617C59.4778 119.337 60.09 119.196 60.7131 119.039C61.3908 118.868 62.0358 118.621 62.637 118.258C63.7448 117.589 64.8379 116.724 65.7124 115.753C66.2007 115.212 66.6416 114.604 66.955 113.939C67.119 113.59 67.2647 113.223 67.3631 112.849C67.4032 112.696 67.436 112.54 67.4615 112.38C67.4724 112.314 67.4943 112.238 67.5052 112.165C67.6291 112.107 67.7457 112.016 67.8295 111.907C69.1777 111.34 70.362 110.471 71.4187 109.439C71.9944 108.875 72.5883 108.276 73.011 107.578C73.4483 106.854 73.7216 106.011 74.035 105.222C74.0568 105.193 74.0823 105.168 74.1005 105.135C74.392 104.662 74.4759 104.135 74.5305 103.586C74.5815 103.045 74.6289 102.499 74.6253 101.958C74.618 101.129 74.4795 100.275 74.1078 99.5294C74.4103 99.1987 74.6908 98.846 74.8876 98.4425C75.2411 97.7228 75.2629 96.9739 75.2228 96.1887Z" fill="#FBECA9"/>
<path d="M58.9563 62.658C50.6337 62.658 46.7348 55.4423 45.9259 49.0371C45.0696 42.2684 48.247 34.3111 55.0428 32.7152C58.3077 31.9482 61.4997 32.4208 64.0394 34.0384C66.4954 35.6052 68.1934 38.1425 68.8165 41.1852C68.8966 41.5778 68.6416 41.9631 68.248 42.0431C67.8545 42.123 67.4683 41.8686 67.3881 41.476C66.8452 38.8259 65.3767 36.6194 63.256 35.2635C61.0551 33.8567 58.2566 33.4568 55.3817 34.133C50.6702 35.2381 46.3887 41.047 47.3761 48.8554C48.6005 58.5321 54.6893 61.5602 59.9729 61.1676C66.4298 60.6878 69.0132 54.9224 68.9513 52.7086C68.9404 52.3087 69.2574 51.9743 69.6618 51.9634C69.6691 51.9634 69.6764 51.9634 69.6837 51.9634C70.0772 51.9634 70.4015 52.276 70.4125 52.6723C70.4854 55.3696 67.6177 62.0582 60.0858 62.6217C59.696 62.6435 59.3206 62.658 58.9563 62.658Z" fill="black"/>
<path d="M76.622 57.4161C72.5409 57.4161 70.1761 55.3041 69.072 53.9409C68.8206 53.6283 68.8679 53.1703 69.1813 52.9195C69.4947 52.6686 69.9538 52.7159 70.2052 53.0285C71.2583 54.3299 73.6778 56.431 78.0723 55.8676C80.2622 55.584 82.1461 54.4535 83.5271 52.5959C85.5166 49.9132 86.2417 45.9181 85.5166 41.6396C84.8534 37.7463 83.1481 34.6564 80.7104 32.937C78.8885 31.6538 76.7605 31.1776 74.5487 31.5629C68.8497 32.5553 67.7347 37.4519 67.629 38.0044C67.5525 38.397 67.1699 38.6551 66.7727 38.5788C66.3792 38.5024 66.1205 38.1207 66.197 37.7245C66.7727 34.7691 69.2433 31.0067 74.2973 30.127C76.899 29.6763 79.4059 30.2324 81.5485 31.7447C84.3069 33.6895 86.2235 37.1138 86.9523 41.3924C87.7576 46.129 86.9559 50.4112 84.6968 53.4538C83.0753 55.6385 80.8489 56.969 78.2581 57.3034C77.686 57.3834 77.1394 57.4161 76.622 57.4161Z" fill="black"/>
<path d="M57.8307 37.2083C62.083 36.7612 65.8908 41.934 66.5212 46.3944C67.188 51.0946 66.1459 57.1108 61.3652 58.0523C55.269 59.2555 52.0187 53.8101 51.3483 48.9281C50.6778 44.0497 52.8204 37.7354 57.8307 37.2083Z" fill="white"/>
<path d="M59.6818 58.9502C58.0348 58.9502 56.5299 58.4703 55.1926 57.5179C52.835 55.8385 51.1261 52.665 50.6269 49.0298C50.1422 45.5037 51.0605 41.6614 52.9589 39.244C54.2197 37.6373 55.8776 36.6848 57.7542 36.4885C62.3236 36.0087 66.5322 41.2688 67.2427 46.2926C67.6253 48.9899 67.4176 51.7526 66.6743 53.8719C65.7196 56.5946 63.9341 58.2886 61.5073 58.7648C60.8806 58.8884 60.2721 58.9502 59.6818 58.9502ZM57.9072 37.9317C56.4133 38.088 55.1343 38.8296 54.1067 40.1382C52.4378 42.2648 51.6362 45.6746 52.0698 48.8299C52.5144 52.0761 53.9974 54.8824 56.0379 56.3329C57.5173 57.3871 59.2627 57.7251 61.2231 57.3362C63.4313 56.9 66.882 54.1263 65.7998 46.4925C65.0601 41.2833 60.9535 37.6082 57.9072 37.9317Z" fill="black"/>
<path d="M75.3983 34.6128C79.5741 33.664 82.307 38.2916 82.9884 42.2866C83.6917 46.4162 83.3492 52.1415 78.8454 52.9231C75.2198 53.552 71.8091 49.4733 71.0877 44.5949C70.4828 40.5054 71.565 35.4816 75.3983 34.6128Z" fill="white"/>
<path d="M78.0981 53.7155C76.932 53.7155 75.7624 53.312 74.6765 52.5305C72.4975 50.9565 70.8432 47.9575 70.3622 44.704C69.6735 40.0437 71.1274 34.8382 75.234 33.9039C76.7499 33.5586 78.1819 33.8276 79.4937 34.7037C81.9387 36.3359 83.2723 39.6293 83.7023 42.1667C84.5549 47.1686 83.7569 52.8068 78.9653 53.6428C78.6774 53.6901 78.3896 53.7155 78.0981 53.7155ZM76.4766 35.2162C76.1741 35.2162 75.868 35.2526 75.5583 35.3216C72.3153 36.0559 71.2149 40.4908 71.8052 44.4895C72.2315 47.3722 73.6599 50.0004 75.5292 51.3491C76.5604 52.0906 77.6608 52.3887 78.7139 52.207C83.5383 51.3672 82.518 43.897 82.263 42.4102C81.7856 39.5966 80.3791 37.0447 78.6811 35.9142C77.9924 35.4489 77.2527 35.2162 76.4766 35.2162Z" fill="black"/>
<path d="M75.9294 74.0179C75.5868 74.0179 75.2407 74.0106 74.8909 73.9997C66.1967 73.6835 57.7721 69.9465 56.5514 67.6746C56.362 67.322 56.4931 66.8785 56.8502 66.6894C57.2037 66.5004 57.6482 66.6313 57.8377 66.9875C58.6175 68.4416 66.2841 72.2331 74.9455 72.5457C81.8542 72.7892 87.6661 70.4373 90.1148 66.3877C93.4854 60.8077 91.7108 56.3292 90.7926 54.6607C89.5281 52.3633 87.4621 50.7929 85.6584 50.7529C85.2576 50.742 84.9369 50.4112 84.9478 50.0113C84.9588 49.6115 85.294 49.2807 85.6948 49.3025C88.0378 49.357 90.5448 51.1855 92.0752 53.9627C94.2761 57.9542 94.0174 62.7562 91.3683 67.1402C88.7666 71.4261 82.9146 74.0179 75.9294 74.0179Z" fill="black"/>
<path d="M55.4475 70.1574C55.3746 70.1574 55.2981 70.1465 55.2216 70.121C54.8426 69.9974 54.6313 69.5939 54.7515 69.2122C54.7843 69.1141 55.5605 66.7621 58.6286 65.5734C59.0039 65.428 59.4266 65.6134 59.5723 65.9878C59.7181 66.3623 59.5322 66.7839 59.1569 66.9293C56.7666 67.8563 56.1653 69.5866 56.1398 69.6593C56.0378 69.9647 55.7499 70.1574 55.4475 70.1574Z" fill="black"/>
<path d="M85.7644 61.4548C85.615 61.4548 85.4656 61.4075 85.3344 61.313C85.0502 61.1058 84.1137 60.7714 83.5343 60.6041C83.1481 60.4915 82.9295 60.0843 83.0424 59.699C83.1554 59.3137 83.5635 59.0956 83.9461 59.2082C84.2194 59.2882 85.6077 59.7099 86.1943 60.1388C86.5186 60.3751 86.5879 60.8332 86.351 61.1567C86.2089 61.353 85.9866 61.4548 85.7644 61.4548Z" fill="black"/>
<path d="M88.7085 59.8044C88.315 59.8044 87.9907 59.4809 87.9797 59.0847C87.9725 58.7902 88.1255 58.0814 88.264 57.776C88.4279 57.4089 88.8616 57.2489 89.2259 57.4125C89.594 57.5761 89.7579 58.0087 89.5903 58.3722C89.5429 58.4849 89.4409 58.932 89.4373 59.0665C89.4482 59.4664 89.1276 59.7935 88.7267 59.8008C88.7194 59.8044 88.7158 59.8044 88.7085 59.8044Z" fill="black"/>
<path d="M64.9179 78.2965C64.9143 78.2965 64.9143 78.2965 64.9143 78.2965C62.0065 78.2965 57.295 76.7915 55.7573 75.1666C54.9885 75.3775 54.114 75.6065 53.5856 75.7155C53.1921 75.7955 52.8058 75.5411 52.7257 75.1485C52.6455 74.7559 52.9006 74.3705 53.2941 74.2906C53.7605 74.196 54.6642 73.9634 55.8412 73.6362C56.1764 73.5453 56.5298 73.698 56.6865 74.007C57.1894 74.9921 61.7223 76.8424 64.9107 76.8424H64.9143C69.6404 76.8424 72.2712 75.5665 72.7303 73.0546C72.8032 72.6584 73.1822 72.3966 73.5793 72.4693C73.9765 72.542 74.2389 72.9201 74.166 73.3163C73.5611 76.6207 70.4493 78.2965 64.9179 78.2965Z" fill="black"/>
<path d="M71.3383 32.439C71.1379 32.439 70.9411 32.359 70.7953 32.199C68.9698 30.1743 63.4567 28.4112 57.9727 28.1059C51.8474 27.7605 44.7747 29.1528 42.5192 29.938C42.1402 30.0688 41.7248 29.8689 41.59 29.4908C41.4588 29.1128 41.6592 28.6984 42.0382 28.5639C44.4613 27.7169 51.647 26.2919 58.0528 26.6518C63.9777 26.9862 69.7933 28.9092 71.8776 31.2248C72.1472 31.5229 72.1217 31.9846 71.8229 32.2536C71.6844 32.3772 71.5095 32.439 71.3383 32.439Z" fill="black"/>
<path d="M40.1507 74.9667C36.4741 74.9667 30.1229 72.6365 25.9944 68.8923C22.1502 65.4099 20.1752 60.9495 19.7744 54.8534C19.042 43.7225 25.4697 33.9112 35.7708 30.4396C36.1535 30.3088 36.5652 30.516 36.6964 30.894C36.8239 31.2757 36.6199 31.6865 36.2409 31.8137C26.5738 35.0708 20.5433 44.2896 21.2319 54.7516C21.6073 60.4479 23.4328 64.5956 26.9783 67.8091C29.8496 70.4118 36.6417 73.9125 40.7629 73.4726C41.1637 73.4363 41.5208 73.7198 41.5645 74.1197C41.6083 74.5196 41.3168 74.8758 40.9159 74.9194C40.6754 74.9558 40.4204 74.9667 40.1507 74.9667Z" fill="black"/>
<path d="M65.0926 46.5834C65.3477 48.75 64.7865 50.6402 62.9792 50.8983C61.4779 51.1128 59.9949 49.8514 59.6742 47.4631C59.3827 45.2893 60.0969 43.4572 61.9771 43.2209C63.482 43.0282 64.8302 44.355 65.0926 46.5834Z" fill="#282E36"/>
<path d="M62.6585 51.6435C61.9807 51.6435 61.3103 51.4145 60.7382 50.9819C59.7871 50.2658 59.1568 49.048 58.9563 47.554C58.745 45.9872 59.0183 44.6168 59.7288 43.7007C60.2499 43.0246 61.0005 42.6065 61.8896 42.4938C62.6949 42.3921 63.4747 42.6138 64.1415 43.1336C65.0525 43.8461 65.6501 45.0385 65.8213 46.4925C66.1602 49.3607 65.1144 51.3236 63.0885 51.6108C62.9427 51.6363 62.8006 51.6435 62.6585 51.6435ZM62.2613 43.9261C62.1957 43.9261 62.1338 43.9297 62.0682 43.937C61.558 44.0024 61.1681 44.2133 60.8803 44.5877C60.4175 45.1875 60.2426 46.1981 60.3993 47.3613C60.5487 48.4664 60.9787 49.3425 61.6163 49.826C62.0026 50.1168 62.4398 50.2404 62.8771 50.1749C64.5678 49.935 64.484 47.6412 64.3674 46.667C64.2435 45.6164 63.8318 44.744 63.2378 44.2823C62.9354 44.0461 62.6075 43.9261 62.2613 43.9261Z" fill="black"/>
<path d="M57.7722 84.1636C57.5682 85.3523 56.8358 86.2975 55.524 86.2684C54.4673 86.243 53.8223 85.2069 53.9863 83.8837C54.1393 82.6769 54.8645 81.5245 56.1835 81.6154C57.1564 81.6845 58.0455 82.5714 57.7722 84.1636Z" fill="#537CE6"/>
<path d="M55.5822 86.9954C55.5567 86.9954 55.5312 86.9954 55.5093 86.9954C54.8789 86.9809 54.3032 86.7119 53.8915 86.2357C53.374 85.6359 53.1445 84.7453 53.2647 83.7928C53.4979 81.9498 54.6931 80.7829 56.2345 80.892C56.9158 80.9392 57.5499 81.2773 57.9726 81.8153C58.326 82.2624 58.7013 83.0585 58.49 84.2909C58.2021 85.963 57.0907 86.9954 55.5822 86.9954ZM56.0413 82.3351C54.9482 82.3351 54.7295 83.8001 54.7077 83.971C54.6384 84.509 54.7478 84.9997 54.9919 85.2833C55.1377 85.4505 55.3162 85.5341 55.5385 85.5414C55.5531 85.5414 55.564 85.5414 55.5786 85.5414C56.6353 85.5414 56.9523 84.6035 57.0507 84.04C57.1454 83.4802 57.0689 83.0186 56.8248 82.7096C56.6535 82.4915 56.4057 82.3606 56.1288 82.3424C56.1033 82.3388 56.0705 82.3351 56.0413 82.3351Z" fill="black"/>
<path d="M60.6658 94.771C61.0156 95.927 60.786 97.0975 59.6018 97.6573C58.6471 98.1081 57.6013 97.4683 57.1568 96.2106C56.7523 95.0655 56.8835 93.7059 58.1042 93.2006C59.0006 92.8299 60.1957 93.2261 60.6658 94.771Z" fill="#537CE6"/>
<path d="M58.9751 98.5261C58.6909 98.5261 58.403 98.468 58.1297 98.3553C57.3973 98.0499 56.7924 97.3556 56.4718 96.4505C55.8523 94.6983 56.3952 93.1206 57.8273 92.5281C58.4577 92.2664 59.1755 92.2846 59.7949 92.5754C60.3124 92.8189 61.0047 93.3606 61.3691 94.5565C61.8719 96.2142 61.3181 97.6501 59.9188 98.3117C59.6128 98.4571 59.2921 98.5261 58.9751 98.5261ZM58.7528 93.7968C58.6289 93.7968 58.5014 93.8222 58.3811 93.8731C57.2953 94.3239 57.7835 95.7998 57.8418 95.967C58.024 96.4759 58.3374 96.8685 58.6872 97.0139C58.8913 97.0975 59.088 97.0939 59.2885 96.9994C60.2723 96.5341 60.1375 95.5344 59.9662 94.9818C59.8022 94.4366 59.5253 94.0621 59.1646 93.8913C59.037 93.8295 58.8949 93.7968 58.7528 93.7968Z" fill="black"/>
<path d="M57.3316 107.803C56.8178 108.894 55.6008 109.515 54.3145 109.068C53.3161 108.723 53.163 107.589 53.6149 106.334C54.0266 105.193 54.9922 104.222 56.2567 104.601C57.1895 104.88 58.1551 106.058 57.3316 107.803Z" fill="#537CE6"/>
<path d="M55.1528 109.941C54.7957 109.941 54.4349 109.882 54.0742 109.755C53.5313 109.566 53.1195 109.203 52.879 108.701C52.5474 108.003 52.562 107.101 52.93 106.087C53.5604 104.339 54.9815 103.463 56.4646 103.906C57.1897 104.124 57.8128 104.677 58.1298 105.386C58.3849 105.956 58.5671 106.891 57.9913 108.116C57.4484 109.268 56.348 109.941 55.1528 109.941ZM55.7176 105.248C54.8139 105.248 54.3548 106.429 54.3038 106.582C54.0815 107.192 54.0451 107.752 54.1981 108.076C54.271 108.228 54.3803 108.323 54.5552 108.385C55.5572 108.734 56.3552 108.17 56.6723 107.498C56.9419 106.923 56.9856 106.4 56.7998 105.982C56.6249 105.597 56.2969 105.378 56.0455 105.302C55.9326 105.262 55.8196 105.248 55.7176 105.248Z" fill="black"/>
<path d="M81.975 43.3045C82.1863 45.0857 81.7236 46.6452 80.2369 46.856C79.0016 47.0305 77.7809 45.9945 77.5149 44.0242C77.2744 42.2357 77.8611 40.7271 79.4097 40.5308C80.6523 40.3782 81.76 41.4687 81.975 43.3045Z" fill="#282E36"/>
<path d="M79.9709 47.6012C79.3842 47.6012 78.8048 47.4049 78.3129 47.0305C77.504 46.4198 76.9647 45.3874 76.7934 44.1224C76.6149 42.7955 76.8517 41.6359 77.453 40.8544C77.9048 40.2691 78.5498 39.9092 79.3186 39.8111C80.0182 39.7238 80.6923 39.9165 81.2681 40.3636C82.0442 40.9707 82.5543 41.9849 82.7001 43.2172C82.9879 45.6564 82.0843 47.325 80.3389 47.5758C80.2186 47.594 80.0947 47.6012 79.9709 47.6012ZM79.6429 41.247C79.5955 41.247 79.5482 41.2506 79.5008 41.2542C79.1145 41.3015 78.823 41.4614 78.6081 41.7414C78.2473 42.2067 78.1125 43.0027 78.2364 43.9297C78.353 44.8058 78.6919 45.4965 79.1911 45.8709C79.4826 46.089 79.8069 46.1799 80.1348 46.1363C81.4175 45.9545 81.3446 44.1551 81.2535 43.3881C81.1551 42.5556 80.8344 41.8722 80.3717 41.5087C80.1458 41.3342 79.9016 41.247 79.6429 41.247Z" fill="black"/>
<path d="M45.2526 89.4055C42.0825 89.4055 38.9634 87.3153 37.0358 83.8801C35.0135 80.274 34.9114 76.1845 36.7771 73.469C37.003 73.1382 37.4585 73.0546 37.7901 73.28C38.1217 73.5054 38.2091 73.9597 37.9795 74.2905C36.4236 76.5553 36.5548 80.045 38.3075 83.1712C39.6594 85.585 42.2683 88.1151 45.5296 87.9478C45.9304 87.9369 46.2729 88.2387 46.2948 88.6385C46.3166 89.0384 46.0033 89.3801 45.6025 89.4019C45.4858 89.4055 45.3692 89.4055 45.2526 89.4055Z" fill="black"/>
<path d="M15.7264 60.9168C15.6863 60.9168 15.6462 60.9168 15.6061 60.9132C14.8045 60.8478 14.2069 60.1462 14.2725 59.3465C14.6624 54.5589 19.2172 52.7087 22.9703 51.9962C25.7943 51.4618 38.3838 49.7315 43.6054 49.2552C44.2285 49.4043 44.6257 49.9459 44.684 50.5639C44.7277 51.0401 44.7313 51.7853 44.0609 52.1416C38.9012 52.6105 26.2899 54.3263 23.5133 54.8534C19.4467 55.6241 17.3734 57.169 17.1766 59.5827C17.1147 60.3389 16.477 60.9168 15.7264 60.9168Z" fill="#537CE6"/>
<path d="M15.7261 61.6439C15.6678 61.6439 15.6095 61.6402 15.5476 61.6366C14.3451 61.5384 13.4451 60.4842 13.5435 59.2846C13.8824 55.1333 17.0926 52.3669 22.8316 51.28C25.6665 50.742 38.2997 49.008 43.5359 48.5318C43.6161 48.5246 43.6962 48.5318 43.7727 48.55C44.6728 48.7645 45.3141 49.5315 45.4052 50.4948C45.5109 51.6035 45.172 52.3742 44.3995 52.7813C44.3157 52.825 44.2209 52.854 44.1226 52.8649C38.992 53.3302 26.3188 55.0606 23.6442 55.5659C19.9457 56.2675 18.0655 57.5979 17.8979 59.6372C17.8104 60.7605 16.8557 61.6439 15.7261 61.6439ZM43.5286 49.9932C38.2414 50.4839 25.8924 52.1815 23.1049 52.7086C19.5995 53.3702 15.3508 55.0715 14.9974 59.401C14.9646 59.8008 15.2634 60.1534 15.6642 60.1862C15.6824 60.1862 15.7043 60.1898 15.7261 60.1898C16.1015 60.1898 16.4221 59.8953 16.4513 59.5209C16.6772 56.7364 18.9437 54.977 23.3782 54.1373C26.1147 53.6174 38.4309 51.9343 43.8165 51.4327C43.9112 51.3418 44.006 51.1455 43.9586 50.6293C43.9331 50.3967 43.8092 50.1059 43.5286 49.9932Z" fill="black"/>
<path d="M38.5368 98.0572C38.2162 98.0572 37.9247 97.8464 37.8336 97.5265C36.7441 93.6223 37.1412 89.8599 39.0178 86.3484C39.2073 85.9921 39.6482 85.8576 40.0053 86.0503C40.3624 86.2393 40.4936 86.6792 40.3041 87.0354C38.6097 90.2053 38.249 93.6078 39.2364 97.1375C39.3458 97.5228 39.1162 97.9263 38.7299 98.0318C38.668 98.0463 38.6024 98.0572 38.5368 98.0572Z" fill="black"/>
<path d="M28.4173 99.4095C28.3189 99.4095 28.2169 99.3877 28.1221 99.3477C27.7541 99.1841 27.5865 98.7552 27.7505 98.388C29.7582 93.8623 36.2442 93.9495 38.0334 94.5966C38.4123 94.7347 38.6091 95.1491 38.4706 95.5272C38.3322 95.9052 37.9131 96.0979 37.5378 95.9634C36.1094 95.4472 30.6837 95.3781 29.0877 98.9769C28.9639 99.2459 28.6979 99.4095 28.4173 99.4095Z" fill="black"/>
<path d="M14.6222 98.4752C14.4873 98.4752 14.3525 98.4389 14.2286 98.3589C13.8897 98.1408 13.7914 97.6937 14.01 97.3556C15.9558 94.3312 21.1373 92.3464 23.7427 92.3464C23.7536 92.3464 23.7645 92.3464 23.7791 92.3464C26.6104 92.3646 31.1032 93.5714 31.8211 95.7053C31.9486 96.0869 31.7445 96.4977 31.3619 96.6249C30.9793 96.7522 30.5676 96.5486 30.44 96.1669C30.0939 95.1418 26.8837 93.8222 23.7682 93.8004C23.7572 93.8004 23.75 93.8004 23.739 93.8004C21.4799 93.8004 16.8376 95.6507 15.2343 98.1408C15.0995 98.3589 14.8626 98.4752 14.6222 98.4752Z" fill="black"/>
<path d="M19.8872 94.6983C19.5229 94.6983 19.2095 94.4293 19.1658 94.0586C19.0455 93.0771 18.5791 92.5027 17.9852 91.772C17.6609 91.3722 17.2928 90.9178 16.9612 90.3616C15.4745 87.8497 14.0024 87.1481 13.2154 86.7737C13.055 86.6974 12.9166 86.6319 12.8109 86.5701C12.4611 86.3702 12.3409 85.9267 12.5413 85.5777C12.7417 85.2288 13.1862 85.1088 13.536 85.3087C13.6198 85.356 13.7219 85.4032 13.8458 85.4614C14.7093 85.8722 16.5058 86.7301 18.2184 89.6237C18.4916 90.089 18.8123 90.4816 19.1184 90.8596C19.767 91.663 20.4411 92.4882 20.6124 93.8841C20.6597 94.2839 20.3755 94.6438 19.9783 94.6947C19.9492 94.6947 19.9164 94.6983 19.8872 94.6983Z" fill="black"/>
<path d="M9.60826 87.4498C9.02525 87.4498 8.49689 87.3589 8.07056 87.1772C7.70253 87.0172 7.53127 86.5919 7.68796 86.2211C7.84829 85.854 8.27462 85.6831 8.64629 85.8394C9.17829 86.0684 10.3006 86.0866 11.6051 85.6141C12.7347 85.2033 13.2157 84.3163 13.5108 82.0989C13.8315 79.7106 13.427 77.7294 12.4067 76.6607C12.1298 76.3698 12.1407 75.9082 12.4322 75.6319C12.7237 75.3556 13.1829 75.3665 13.4634 75.6574C15.2817 77.5585 15.1797 80.6303 14.9574 82.2915C14.7096 84.1491 14.2651 86.1957 12.1043 86.9809C11.248 87.2935 10.3808 87.4498 9.60826 87.4498Z" fill="black"/>
<path d="M47.2961 122.053C43.5757 122.053 39.6477 121.569 36.8091 120.068C36.452 119.879 36.3172 119.439 36.5067 119.087C36.6961 118.73 37.1371 118.596 37.4905 118.785C43.102 121.751 53.8149 120.366 56.8721 119.556C62.7314 118.003 66.0436 115.568 66.9983 112.114C67.104 111.729 67.5048 111.496 67.8947 111.605C68.2809 111.711 68.5105 112.114 68.4048 112.5C67.3007 116.495 63.6496 119.261 57.2474 120.959C55.4765 121.428 51.5229 122.053 47.2961 122.053Z" fill="black"/>
<path d="M72.333 90.7833C72.1326 90.7833 71.9322 90.7033 71.7901 90.5397C71.5205 90.2416 71.546 89.78 71.8484 89.5146C72.9561 88.5222 72.978 85.7195 72.3039 83.7238C71.6626 81.8299 69.6403 79.0672 68.6601 78.2638C68.3503 78.0093 68.303 77.5513 68.558 77.2423C68.8131 76.9333 69.2722 76.8861 69.5819 77.1405C70.8427 78.1729 72.9816 81.1974 73.6813 83.2585C74.3408 85.2069 74.6906 88.9257 72.8177 90.5979C72.6829 90.7215 72.508 90.7833 72.333 90.7833Z" fill="black"/>
<path d="M52.4265 90.078C52.2662 90.078 52.1059 90.0272 51.9747 89.9181C50.9289 89.0856 50.3495 87.8751 50.2475 86.3157C50.0216 82.7968 52.3828 78.3001 54.099 76.5371C54.3796 76.2499 54.8424 76.2426 55.1302 76.5225C55.4181 76.8025 55.4254 77.2641 55.1448 77.5513C53.578 79.158 51.5119 83.2367 51.7014 86.2248C51.7743 87.3553 52.1714 88.2169 52.882 88.7803C53.1954 89.0311 53.25 89.4892 52.9986 89.8018C52.8565 89.9835 52.6415 90.078 52.4265 90.078Z" fill="black"/>
<path d="M56.4753 101.074C56.3732 101.074 56.2712 101.053 56.1765 101.009C54.6388 100.315 53.5092 99.1077 52.908 97.5155C52.1391 95.4762 52.3249 92.9316 53.4181 90.536C53.5857 90.1725 54.0157 90.0089 54.3837 90.1762C54.7517 90.3434 54.9121 90.7723 54.7445 91.1395C53.8116 93.1861 53.6404 95.3272 54.2708 97.0066C54.7335 98.2317 55.5971 99.1586 56.7741 99.6894C57.1421 99.853 57.3024 100.286 57.1385 100.653C57.0182 100.918 56.7522 101.074 56.4753 101.074Z" fill="black"/>
<path d="M50.9625 110.246C50.6637 110.246 50.3868 110.064 50.2775 109.77C49.1624 106.72 51.1083 103.197 52.9338 100.467C53.1561 100.133 53.6079 100.042 53.9432 100.267C54.2784 100.489 54.3695 100.94 54.1472 101.274C52.6423 103.528 50.7475 106.807 51.6475 109.272C51.786 109.65 51.5929 110.068 51.2139 110.206C51.1301 110.231 51.0463 110.246 50.9625 110.246Z" fill="black"/>
<path d="M66.0331 92.1064C63.3038 92.1064 59.9479 91.6557 57.583 90.1943C57.2405 89.9835 57.1348 89.5364 57.3461 89.1947C57.5575 88.853 58.0057 88.7475 58.3482 88.9584C61.7953 91.0886 68.5182 90.805 69.8809 90.2343C70.2526 90.078 70.6789 90.2525 70.8356 90.6233C70.9923 90.9941 70.8174 91.4194 70.4457 91.5757C69.7935 91.8483 68.0882 92.1064 66.0331 92.1064Z" fill="black"/>
<path d="M66.7836 102.659C63.843 102.659 60.6547 102.154 58.8255 101.558C58.4429 101.434 58.2352 101.024 58.3591 100.642C58.4829 100.26 58.8947 100.049 59.2773 100.177C64.0653 101.736 70.238 101.354 71.7283 100.278C72.0526 100.042 72.5117 100.115 72.7449 100.442C72.9818 100.769 72.9089 101.223 72.5809 101.456C71.3675 102.329 69.1557 102.659 66.7836 102.659Z" fill="black"/>
<path d="M73.9619 100.518C73.8016 100.518 73.6413 100.467 73.5064 100.358C73.1931 100.107 73.142 99.6494 73.3935 99.3368C75.5506 96.6577 74.7053 91.7647 72.5007 89.6382C72.2129 89.3582 72.2019 88.9002 72.4825 88.6094C72.7631 88.3222 73.2259 88.315 73.5137 88.5912C76.5235 91.4921 77.0191 97.1557 74.5303 100.246C74.3846 100.427 74.1733 100.518 73.9619 100.518Z" fill="black"/>
<path d="M60.706 114.59C56.388 114.59 51.9316 113.169 51.0316 111.787C50.813 111.449 50.9077 111.002 51.2466 110.78C51.5818 110.562 52.0336 110.657 52.2559 110.991C52.8827 111.951 59.3359 114.008 64.2004 112.729C68.5147 111.595 71.4152 109.744 72.829 107.229C73.955 105.222 74.1043 102.79 73.2663 99.9984C73.1497 99.6131 73.3683 99.2096 73.7545 99.0932C74.1408 98.9769 74.5453 99.195 74.6619 99.5803C75.6165 102.765 75.4307 105.575 74.1007 107.938C72.4865 110.809 69.2799 112.896 64.5721 114.132C63.366 114.455 62.0433 114.59 60.706 114.59Z" fill="black"/>
<path d="M34.7471 120.315C29.0627 120.315 22.8901 117.923 18.8928 115.564C12.3302 111.693 8.12523 107.567 4.83485 101.776C1.65014 96.1669 0.079643 89.7254 0.170739 82.6296C0.236328 77.4095 1.47888 73.6944 4.19718 70.5754C8.40216 65.7588 12.4505 65.5225 14.4874 65.8097C17.0891 66.1769 20.2519 67.3728 20.5325 70.9789C20.7365 73.618 19.1588 76.4353 15.1724 76.7842C13.0663 76.9696 11.5687 76.6316 10.5921 75.7555C10.2933 75.4865 10.2678 75.0285 10.5375 74.7304C10.8071 74.4323 11.2662 74.4068 11.565 74.6759C12.2136 75.2575 13.3833 75.4792 15.0412 75.3374C18.2405 75.0575 19.2134 72.8764 19.075 71.0952C18.9073 68.9396 17.3368 67.6818 14.2797 67.2529C12.5343 67.0057 9.04348 67.2347 5.29397 71.5314C3.62509 73.4435 1.70115 76.4316 1.62463 82.6478C1.54082 89.4855 3.04572 95.6798 6.1029 101.06C9.25846 106.618 13.3068 110.58 19.6361 114.314C24.18 116.993 31.6207 119.726 37.6549 118.61C42.6724 117.683 46.2434 114.859 48.2657 110.213C48.426 109.846 48.856 109.675 49.2241 109.835C49.5921 109.995 49.7633 110.424 49.603 110.791C47.3766 115.906 43.4449 119.018 37.9209 120.039C36.8897 120.228 35.8293 120.315 34.7471 120.315Z" fill="black"/>
<path d="M36.9624 32.748C36.7256 32.748 36.4923 32.6316 36.3502 32.4172C34.6886 29.8762 33.2165 26.0956 32.4149 22.3078C31.7554 19.1888 31.2452 14.6776 32.5679 10.9079C35.9348 1.31838 40.3621 -0.390148 42.4464 0.107869C43.2735 0.307802 43.9112 0.776738 44.3011 1.46378C44.9132 2.55433 44.8914 4.13562 44.2319 6.16768C42.6031 11.1951 38.0701 18.4109 35.6688 18.9053C35.2753 18.9889 34.8891 18.7344 34.8089 18.3382C34.7287 17.942 34.9802 17.5603 35.3773 17.4803C36.7474 17.2004 41.1237 11.0461 42.8472 5.72055C43.361 4.13562 43.4266 2.87422 43.033 2.17264C42.8436 1.8382 42.5411 1.62373 42.1075 1.51831C41.4407 1.35836 40.2236 1.65645 38.7952 2.96874C37.5199 4.13926 35.6433 6.553 33.9489 11.3841C31.7882 17.5348 34.7214 27.2516 37.5746 31.6174C37.7932 31.9555 37.6985 32.4062 37.3632 32.6244C37.2357 32.7116 37.0972 32.748 36.9624 32.748Z" fill="black"/>
<path d="M42.7231 31.1085C42.519 31.1085 42.3186 31.0249 42.1729 30.8613C40.9048 29.4145 39.389 25.5867 38.0517 22.206C37.2974 20.3012 36.5869 18.5018 36.1533 17.7747C35.9492 17.4294 36.0622 16.9823 36.4083 16.7787C36.7545 16.5751 37.2027 16.6878 37.4067 17.0331C37.8987 17.8583 38.5983 19.625 39.4072 21.6716C40.6352 24.7797 42.1656 28.6438 43.2697 29.9016C43.5357 30.2033 43.5029 30.6614 43.2004 30.9267C43.0656 31.0467 42.8944 31.1085 42.7231 31.1085Z" fill="black"/>
<path d="M51.0858 28.3094C50.7215 28.3094 50.4045 28.0368 50.3644 27.666C49.5445 20.6138 51.0494 12.6274 54.0228 8.24699C57.7286 2.78699 61.3177 0.751297 64.1308 2.51798C64.7794 2.92512 65.1875 3.554 65.315 4.3392C65.7049 6.78202 63.3291 9.95915 62.287 11.2096C59.6379 14.394 56.2091 17.1858 54.307 17.7093C53.9171 17.8147 53.5163 17.5893 53.4106 17.2004C53.3049 16.8114 53.5309 16.4116 53.9208 16.3061C55.3127 15.9244 58.4792 13.5143 61.1647 10.2827C63.0376 8.02888 64.0761 5.84052 63.8757 4.57185C63.8174 4.19743 63.6498 3.93933 63.3546 3.75394C60.4942 1.9618 56.7192 6.8729 55.2289 9.06854C52.4778 13.1217 51.0421 20.8755 51.811 27.5061C51.8583 27.9059 51.5705 28.2658 51.1697 28.3131C51.1405 28.3094 51.1114 28.3094 51.0858 28.3094Z" fill="black"/>
<path d="M55.4476 28.0477C55.4075 28.0477 55.3638 28.044 55.3201 28.0368C54.9229 27.9677 54.6569 27.5897 54.7261 27.1971C55.2217 24.3616 55.2217 19.1743 54.7261 16.5242C54.6533 16.128 54.912 15.7499 55.3092 15.6772C55.7063 15.6009 56.0853 15.8626 56.1582 16.2589C56.6865 19.0907 56.6865 24.4234 56.1582 27.4479C56.1035 27.8005 55.7974 28.0477 55.4476 28.0477Z" fill="black"/>
</g>
<defs>
<clipPath id="clip0_1635_12722">
<rect width="93.3879" height="122.018" fill="white" transform="translate(0.163086 0.0351562)"/>
</clipPath>
</defs>
</svg>
