<svg width="94" height="123" viewBox="0 0 94 123" fill="none" xmlns="http://www.w3.org/2000/svg">
<path d="M80.394 32.5067C80.2774 32.3068 80.0989 32.1359 79.8474 32.0123C77.8178 31.0199 73.6238 29.8131 71.9148 31.9505C71.5395 31.8088 71.1205 31.8197 70.7451 32.0705C68.9815 33.2483 67.9175 34.8877 67.1341 36.8325C66.9228 37.3596 66.777 37.8468 66.6604 38.352C65.8916 36.8798 64.9332 35.5421 63.4648 34.6515C63.2753 34.5351 63.0785 34.477 62.8854 34.4588C62.8781 34.4552 62.8708 34.4479 62.8635 34.4442C62.0582 33.9317 61.2566 33.6954 60.3201 33.6591C60.2145 33.6045 60.0979 33.5609 59.9667 33.5282C57.1245 32.8484 54.2349 33.361 51.8956 35.1458C51.6551 35.3276 51.4984 35.5493 51.3964 35.782C51.1267 36.0037 50.8717 36.2364 50.6202 36.4799C48.9587 37.1633 47.5995 39.5516 47.155 41.0384C47.0274 41.471 47.093 41.8418 47.2752 42.1362C47.2497 42.2489 47.2315 42.3689 47.2242 42.4961C47.2096 42.7688 47.195 43.0414 47.1841 43.3177C47.0967 43.4631 47.0347 43.6194 47.0056 43.7939C46.674 45.8477 46.4663 47.9489 46.9363 49.9664C46.5173 50.4135 46.3132 51.0533 46.4991 51.6713C46.6995 52.3401 46.9837 52.9981 47.3627 53.5834C47.421 53.6742 47.4865 53.7578 47.5594 53.8378C47.5776 53.8596 47.6031 53.8814 47.6214 53.9033C47.6651 53.9469 47.7052 53.9905 47.7525 54.0268C47.789 54.0596 47.8254 54.0886 47.8655 54.1141C47.9238 54.1577 47.9858 54.1977 48.0513 54.234C48.0659 54.2413 48.0768 54.2486 48.0878 54.2559C48.2408 54.3358 48.4048 54.3976 48.5761 54.4303C48.6744 54.6994 48.7874 54.9611 48.9186 55.2192C48.9587 57.2876 51.8191 59.2978 53.3568 60.2066C54.2276 60.7192 55.3718 61.6607 56.465 61.5625C56.8731 61.7406 57.2302 61.8097 57.7476 61.8352C57.8205 61.8788 57.8933 61.9224 57.9771 61.9588C59.1177 62.464 60.3201 61.6789 61.3768 61.2463C62.7834 60.9664 64.1425 60.4066 65.1628 59.5159C65.396 59.4578 65.6256 59.3305 65.8333 59.1052C67.5495 57.2512 68.9961 55.3864 69.3313 52.889C70.5848 54.3685 72.1881 55.5064 74.0683 56.1461C75.2562 56.5533 77.6684 57.0658 78.7798 56.0843C81.1082 55.7499 83.2216 54.3504 84.4423 52.3292C85.6302 50.3553 86.0602 48.356 86.0893 46.2694C87.1205 41.8527 84.7776 34.8114 80.394 32.5067ZM64.0186 56.7787C63.7854 56.8768 63.5668 57.0331 63.3846 57.2694C62.8271 57.9892 61.6975 58.1091 60.8667 58.2763C60.0614 58.4399 59.2962 58.5453 58.4982 58.5163C58.3707 58.3745 58.2359 58.24 58.0828 58.1273C57.5472 57.7347 56.9605 57.5711 56.3484 57.3239C54.8216 56.6987 53.6118 55.63 52.7337 54.245C52.6134 54.0559 52.4567 53.9142 52.2782 53.8051C52.2454 53.7288 52.209 53.6488 52.1652 53.5688C51.6952 52.7364 51.7608 51.6494 51.6405 50.7188C51.5203 49.7882 51.349 48.8758 51.1267 47.967C51.2105 47.7998 51.2725 47.6108 51.298 47.4C51.4984 45.7205 51.717 44.052 52.0778 42.398C52.1798 41.9327 52.0705 41.5364 51.8482 41.2347C52.6134 39.9806 53.7066 38.9373 55.0402 38.1194C55.3062 37.9558 55.4993 37.7595 55.6378 37.5414C55.7362 37.5305 55.8419 37.5123 55.9475 37.4796C56.5998 37.2869 57.252 37.127 57.9116 36.9852C58.367 36.9416 58.8152 36.9307 59.2598 36.9489C59.3654 37.2142 59.5731 37.4542 59.9266 37.6177C60.6408 37.9485 61.508 38.0721 62.1493 38.4865C62.9218 38.9846 63.5522 39.8679 64.0624 40.6058C64.1352 40.7113 64.2154 40.7985 64.2956 40.8785C64.1644 41.4238 64.3211 42.0272 64.9551 42.3943C64.9551 42.3943 64.9587 42.3943 64.9587 42.398C64.9733 42.4271 64.9842 42.4561 64.9988 42.4852C65.0243 42.587 65.0608 42.6924 65.1081 42.7978C65.3413 43.3249 65.5745 43.852 65.8114 44.3791C65.7312 44.6954 65.7786 45.0516 66.0191 45.4188C66.5147 46.164 66.3689 47.4218 66.4053 48.2942C66.4527 49.3738 66.4928 50.4608 66.4891 51.544C66.4855 53.7651 65.4288 55.2264 64.0186 56.7787ZM82.9811 43.2668C83.3492 45.7823 83.4038 48.0107 82.2123 50.3299C81.3633 51.9875 79.9167 53.0054 78.1859 53.198C78.1859 53.198 78.1859 53.198 78.1822 53.198C76.8996 52.6855 75.7955 52.551 74.6149 51.7403C73.2084 50.7734 72.5124 49.9264 71.9731 48.2942C71.401 46.5602 70.9893 44.7863 70.6868 42.9832C70.6322 42.667 70.4974 42.4271 70.3152 42.2562C70.6431 39.8097 71.4921 37.1997 73.0371 35.2803C73.4197 35.2222 73.7295 35.0004 73.9335 34.7023C74.2177 34.4988 74.6805 34.3425 75.1724 34.2152C75.4129 34.5533 75.7955 34.7823 76.2984 34.7641C76.9652 34.7423 77.632 34.7314 78.3025 34.7242C80.926 35.3676 82.6933 39.0209 83.2399 42.1653C83.0285 42.4634 82.9192 42.8342 82.9811 43.2668Z" fill="#537CE6"/>
<path d="M91.5916 55.6484C91.2564 54.5579 90.8228 52.9693 89.5328 52.6857C89.5256 52.6857 89.5183 52.6821 89.511 52.6821C88.8004 51.766 87.9004 50.9918 86.8728 50.4356C86.4356 50.1993 85.8854 50.3302 85.6267 50.7627C85.0108 51.7842 84.2493 52.6894 83.4294 53.5545C82.6496 54.3761 81.8516 55.3721 80.8532 55.9319C79.9095 56.459 78.6924 56.888 77.6102 56.9752C77.1875 57.0079 76.7721 56.9898 76.3604 56.9425C76.3276 56.9062 76.2912 56.8698 76.2511 56.8371C75.413 56.1391 74.3089 55.852 73.2558 56.2227C73.1429 56.2627 73.0372 56.3209 72.9461 56.3936C72.8514 56.0446 72.5744 55.7611 72.1044 55.772C72.0643 55.772 72.0279 55.7756 71.9878 55.7756C71.7874 55.5684 71.5942 55.3467 71.4048 55.1358C71.2517 54.965 71.0367 54.885 70.8108 54.8777C70.3408 54.1834 69.2403 54.4379 69.1492 55.3649C69.0144 56.7208 67.8557 57.8113 66.9556 58.7237C65.8661 59.8325 64.6892 60.7849 63.3373 61.5519C63.2754 61.5555 63.2098 61.5664 63.1405 61.5846C57.1537 63.2313 49.8952 60.3414 47.698 54.3107C47.0166 52.4386 46.8307 50.4101 46.0182 48.5853C46.1603 48.4362 46.2514 48.2399 46.2514 47.9964C46.2514 47.8183 46.1821 47.6256 46.0692 47.4657C46.2113 46.5423 46.3534 45.619 46.4955 44.6993C46.6668 43.576 46.8417 42.4928 47.217 41.4167C47.8911 39.4865 48.7656 37.6907 49.9572 36.0404C50.0191 36.0004 50.0774 35.9495 50.1321 35.8877C50.5147 35.4551 50.9009 35.0261 51.3163 34.6299C51.4329 34.619 51.5495 34.5827 51.6625 34.5172C51.892 34.3864 52.1143 34.2409 52.3293 34.0883C52.588 33.9719 52.8394 33.8411 53.0836 33.6993C53.4115 33.8593 53.8269 33.8193 54.133 33.5394C54.8071 32.9323 55.8565 32.9323 56.7128 32.8996C57.9189 32.8523 59.1505 32.8487 60.3421 33.0741C61.4352 33.2776 62.4664 33.6557 63.4175 34.2337C64.2118 34.7172 65.1374 35.3678 65.4945 36.2694C65.8552 37.1782 67.0613 37.0328 67.2508 36.2548C67.2763 36.2003 67.2945 36.1458 67.3091 36.084C67.648 34.4809 68.6719 33.1758 70.144 32.4561C70.7853 32.1435 70.6833 31.2274 70.144 30.8857C69.1638 30.2677 68.1107 29.777 67.0139 29.4026C66.8536 29.348 66.7079 29.348 66.5694 29.3807C66.2779 29.1844 65.9827 29.0027 65.6584 28.8536C64.5398 28.3302 63.3264 28.0685 62.0911 28.1121C61.9855 28.1157 61.8834 28.1412 61.7887 28.1811C60.2 27.5995 58.5347 27.2324 56.8367 27.1742C56.1262 27.1488 55.4229 27.196 54.7196 27.2869C55.197 27.0397 55.5577 26.6616 55.6561 26.0655C55.7618 25.433 55.7035 24.7605 55.7035 24.1207L55.7144 21.7978C55.7217 20.3656 55.7253 18.9369 55.7326 17.5047C55.7326 17.2139 55.6488 16.7595 55.7363 16.4832C55.7472 16.4469 55.4776 16.694 55.8091 16.3996C55.8857 16.3342 55.9585 16.2687 56.0351 16.1997C56.5306 15.7671 57.0189 15.3272 57.4962 14.8801C59.2744 13.2079 60.9324 11.3758 62.2369 9.30377C62.8891 8.26775 63.4612 7.16266 63.8766 6.01031C64.0843 5.43959 64.179 4.79253 63.9203 4.22181C63.9058 4.10185 63.8657 3.98189 63.7855 3.8692C63.4321 3.38209 62.8818 3.04766 62.2915 3.07674C60.5461 2.83682 58.6987 4.39267 57.5436 5.50866C56.7201 6.30476 55.8857 7.1154 55.1605 8.00601C54.4099 8.92207 53.7431 9.90357 53.6702 11.1104C53.1528 12.1501 52.7447 13.2552 52.4095 14.3748C52.0524 14.9964 51.7973 15.6762 51.6042 16.3778C51.2689 17.5992 51.0212 18.8497 50.8645 20.1038C50.5693 22.4812 51.094 24.8186 51.1013 27.1887C49.6839 27.6468 48.2555 28.0903 46.8052 28.4283C46.6485 28.4501 46.4919 28.472 46.3352 28.5047C46.1603 28.541 45.989 28.5883 45.8214 28.6464C45.1619 28.7737 44.4987 28.8755 43.8282 28.9336C43.1978 28.9881 42.531 28.9591 41.897 29.0645C40.6326 26.7961 39.7289 24.3533 38.6649 21.9868C38.0892 20.7036 37.4588 19.4386 36.6936 18.2535C36.6207 18.1408 36.5478 18.0318 36.4713 17.9227C37.058 17.3338 37.5608 16.625 38.0309 16.007C38.9273 14.8256 39.718 13.5642 40.3884 12.2446C41.0917 10.8669 41.6201 9.41282 42.3051 8.02783C42.9719 6.66828 43.6387 5.26147 43.5622 3.70926C43.5586 3.61474 43.5367 3.5275 43.5076 3.44753C43.5549 2.91316 43.4784 2.3897 43.2233 1.88804C43.2124 1.86623 43.2015 1.84442 43.1905 1.82261C43.1905 1.81898 43.1869 1.81898 43.1869 1.81534C43.1468 1.739 43.1067 1.66266 43.0594 1.58996C43.0557 1.58996 43.0557 1.5936 43.0521 1.5936C43.0084 1.5318 42.9646 1.46637 42.9173 1.40457C42.6731 1.08831 42.3233 1.05559 42.0136 1.17919C41.5362 1.08467 40.9933 1.17919 40.5597 1.30278C39.1969 1.69174 38.1584 2.69868 37.2693 3.75288C36.3693 4.81798 35.564 5.95942 34.8826 7.17356C34.2085 8.3768 33.4251 9.73635 33.5854 11.1541C32.8676 13.0371 32.5214 15.0582 32.5943 17.0794C32.5943 17.1012 32.6016 17.1194 32.6016 17.1375C32.6016 17.4174 32.6088 17.701 32.6198 17.9809C32.6708 19.166 32.8056 20.3474 33.0133 21.5143C33.2174 22.6557 33.4979 23.7862 33.8587 24.8913C34.0299 25.4184 34.234 26.1091 34.5947 26.6108C34.8425 27.5268 35.134 28.4501 35.564 29.2935C35.8008 29.7552 36.1324 30.1514 36.4203 30.5803C36.5588 30.7875 36.7154 31.0238 36.7883 31.271C36.6098 31.3074 36.4349 31.3437 36.2673 31.3801C35.451 31.5546 34.6567 31.8127 33.8878 32.1326C32.2554 32.8087 30.7687 33.7284 29.3986 34.8408C26.7058 37.0328 24.6544 39.9409 22.9673 42.9435C22.417 43.9214 21.9834 44.9174 21.7502 46.0189C21.6445 46.5096 21.5462 47.0004 21.4514 47.4947C21.1927 47.9091 21.0397 48.3635 21.0069 48.8397C20.7627 48.8834 20.5332 49.0142 20.3765 49.2432C20.2927 49.3705 20.2089 49.4941 20.1214 49.6213C19.8445 50.0321 19.9684 50.4319 20.249 50.6828C20.2526 50.8536 20.2526 51.0245 20.2562 51.1917C20.2599 51.8024 20.832 52.195 21.4077 52.0678C24.5232 51.3735 27.6787 50.89 30.8379 50.4356C32.3756 50.2138 33.9133 49.9921 35.4547 49.774C36.209 49.6649 36.9632 49.5522 37.7248 49.5195C38.49 49.4868 39.2588 49.5377 40.0241 49.505C41.4342 49.4468 42.8444 49.2469 44.2509 49.0615C44.2691 49.1269 44.291 49.1887 44.3201 49.2505C44.5533 49.7231 44.557 50.2647 44.557 50.7773C44.557 51.1699 44.5461 51.5588 44.5315 51.9514C44.4076 51.9914 44.2946 52.0605 44.2072 52.1659C43.8136 52.6421 43.2051 52.5876 42.633 52.6239C41.8605 52.6712 41.0881 52.7221 40.3156 52.7766C38.7706 52.8857 37.2256 53.0165 35.6842 53.1656C32.5724 53.4637 29.4132 53.7436 26.3415 54.3361C24.6653 54.6596 23.0584 55.2849 21.364 55.5248C20.8648 55.5939 20.6243 56.2155 20.7263 56.6444C21.1563 58.4038 21.4733 60.2469 22.1073 61.9481C22.6758 63.4749 23.5466 64.8417 24.6179 66.0668C25.3285 66.8774 26.1192 67.5935 26.9573 68.2588C27.3544 68.7895 27.8172 69.273 28.3237 69.6946C29.0853 70.3308 29.9161 70.8724 30.7724 71.3705C31.155 71.5922 31.5376 71.8176 31.9274 72.0284C38.9892 74.8275 46.3534 75.4891 54.2569 74.9802C54.7124 74.7293 55.1933 74.5621 55.7253 74.4676C55.9658 74.424 56.199 74.3767 56.4286 74.3149C56.4432 74.3367 56.4614 74.3586 56.476 74.3767C56.9059 74.882 57.4671 75.2564 58.0793 75.5545C58.6149 76.0562 59.2963 76.3906 60.0105 76.5905C60.3384 76.7614 60.6773 76.9213 61.0235 77.0667C61.1328 77.1104 61.2494 77.1176 61.366 77.0995C61.468 77.1976 61.5919 77.2739 61.7413 77.3067C62.0438 77.3721 62.3425 77.4084 62.6413 77.4375C63.6507 77.5648 64.671 77.6193 65.6839 77.5539C65.8297 77.543 65.9718 77.5284 66.1139 77.5066C67.75 77.8738 69.5974 77.3503 70.7343 76.1071C70.8327 76.0598 70.9274 76.0053 71.0185 75.9471C71.9076 75.3655 72.4724 74.4749 72.9425 73.5479C73.2485 73.4898 73.5036 73.2498 73.6129 72.9627C75.0194 73.1408 76.4296 73.079 77.8288 72.8754C79.0823 72.81 80.4269 72.7845 81.5893 72.3301C81.8043 72.2465 81.9865 72.1048 82.1067 71.9266C83.7064 71.4795 85.2914 70.9161 86.687 70.0436C90.3017 67.7898 92.3167 63.5985 92.1965 59.3962C92.1673 58.1203 91.9596 56.8516 91.5916 55.6484Z" fill="#FD7676"/>
<path d="M37.4041 72.9147C37.4187 72.922 37.4369 72.9329 37.4515 72.9438C37.4806 72.9584 37.5025 72.9729 37.5171 72.9838C37.5316 73.0456 37.5098 73.1256 37.5061 73.1874C37.4916 73.42 37.4624 73.6454 37.4879 73.8817C37.4952 73.958 37.5171 74.0307 37.5426 74.0998C36.7008 75.4012 36.0486 78.1203 36.3109 79.6543C36.5041 82.4061 37.4988 84.002 39.492 85.9104C38.7414 86.2085 39.7471 87.0083 39.4556 87.5681C39.0183 88.4078 38.7487 89.3093 38.5883 90.2399C38.2968 91.9339 38.1693 93.6606 38.009 95.3764C37.0397 95.3364 36.0668 95.3146 35.0976 95.3728C33.8477 95.4491 32.6926 95.7145 31.4938 96.0598C30.9509 96.2161 30.0144 94.6712 29.7848 94.5694C28.0467 93.7842 26.2066 93.6606 24.2863 93.497C23.3644 93.417 22.4571 93.5406 21.5643 93.7769C20.8902 93.955 20.4275 93.9732 19.7206 93.9441C18.4416 90.5889 16.5103 87.1573 13.0815 85.7323C14.6411 82.7042 14.2985 79.1672 13.1835 75.9974C14.171 76.0337 15.1694 75.9901 16.1132 75.6993C17.3922 75.3067 18.4962 74.4524 19.0574 73.2165C19.6222 71.9805 19.644 70.5882 19.0647 69.3523C18.5072 68.1636 17.4067 67.2621 16.1496 66.9131C15.9966 66.8695 15.8399 66.8804 15.6978 66.9276C14.6411 66.535 13.5078 66.3606 12.3782 66.4478C10.2211 66.615 8.08215 67.651 6.70843 69.3559C6.50073 69.614 5.70637 69.3123 5.60799 69.5886C5.54969 69.6213 5.49139 69.6576 5.43673 69.7013C4.24519 70.6464 3.84073 72.1913 3.10103 73.54C2.40506 74.8087 1.86941 76.1937 1.45766 77.5823C0.626865 80.3959 0.408234 83.4422 1.28275 86.2703C1.2864 86.2776 1.29004 86.2812 1.29004 86.2885C1.20988 89.5674 1.85119 92.8245 3.19212 95.849C3.21034 95.8926 3.23585 95.9289 3.25771 95.9653C3.31602 96.187 3.37796 96.4051 3.45084 96.6196C4.05207 98.4336 4.95939 100.124 5.93229 101.76C6.9307 103.436 7.9947 105.075 9.117 106.671C9.39393 107.063 9.67451 107.46 9.95873 107.845C10.2357 108.219 10.5199 108.608 10.928 108.852C11.1867 109.008 11.4855 109.092 11.7843 109.106C14.2985 111.927 17.4395 114.163 20.8647 115.755C21.0287 115.831 21.1963 115.904 21.3639 115.977C22.6101 116.777 23.9729 117.369 25.3831 117.878C27.4309 118.616 29.5371 119.168 31.6979 119.427C32.8785 119.568 34.0736 119.608 35.2615 119.514C35.666 119.481 36.1178 119.456 36.566 119.379C36.617 119.379 36.6644 119.383 36.7154 119.383C39.2515 119.35 41.8204 118.594 43.5367 116.693C44.1999 116.282 44.8375 115.828 45.446 115.337C46.2914 114.654 47.2862 113.799 47.7526 112.756C47.7562 112.756 47.7599 112.756 47.7635 112.756C48.4303 112.8 48.7802 111.898 48.3976 111.437C48.4048 111.433 48.4085 111.429 48.4158 111.426C49.9353 110.495 50.6494 108.968 50.8899 107.249C51.0102 106.395 51.1122 105.551 51.4001 104.73C51.677 103.937 52.0888 103.199 52.526 102.487C52.9706 101.763 53.4516 101.069 53.918 100.36C54.1767 99.964 54.3698 99.5568 54.2896 99.0733C54.2131 98.6226 53.9872 98.1827 53.8524 97.7429C53.2511 95.7908 53.1273 93.7042 53.5062 91.694C53.5099 91.6794 53.5062 91.6649 53.5099 91.6504C54.0819 91.5049 54.4026 90.5852 53.7467 90.149C52.5479 89.342 51.7171 88.0697 51.3527 86.6738C51.1268 85.805 51.0831 84.8926 51.1924 84.0056C51.298 83.1477 51.6041 82.3698 51.8665 81.5519C52.0013 81.1302 52.0523 80.7194 52.0377 80.3159C52.1799 80.2214 52.3074 80.0833 52.4167 79.8906C52.5697 79.6216 52.6135 79.3235 52.7957 79.0691C52.8685 78.9673 52.9523 78.8837 53.0398 78.8073C53.386 79.0582 53.9216 79.0763 54.224 78.6147C54.8982 77.5823 55.5978 76.4699 56.629 75.7538C56.7456 75.6702 56.3448 73.5982 56.465 73.5327C49.5417 73.9762 43.6023 75.3903 37.4041 72.9147Z" fill="#FD7676"/>
<path d="M75.0559 96.1581C74.9757 94.5877 74.7279 93.0246 74.3198 91.5087C74.3125 91.4833 74.3016 91.4615 74.2943 91.4397C74.3198 91.3197 74.3162 91.1961 74.2761 91.0798C74.0429 90.4 73.6493 89.8547 73.1793 89.324C72.9825 89.1023 72.7785 88.7933 72.5489 88.6079C72.5635 88.5533 72.578 88.4988 72.5926 88.4443C72.64 88.2516 72.6801 88.059 72.7129 87.8663C73.0007 86.2559 72.9461 84.6165 72.5416 83.0315C72.4942 82.8461 72.3776 82.6935 72.2282 82.5917C72.0606 81.7919 71.6889 81.0504 71.1715 80.4215C71.1351 80.3306 71.095 80.2361 71.0586 80.1416C70.8764 79.6981 70.6723 79.291 70.4027 78.8984C70.2715 78.7057 70.1367 78.5167 70.0128 78.3204C69.9399 78.204 69.8707 78.0841 69.7978 77.9641C69.7905 77.9496 69.7504 77.8769 69.714 77.8151C69.6666 77.5279 69.4006 77.2226 69.1383 77.1753C69.131 77.1753 69.1237 77.1717 69.1164 77.1717C68.7338 77.1026 68.2929 77.2662 68.1617 77.6733C67.0759 77.328 65.9171 77.4007 64.7875 77.248C63.5122 77.0735 60.6736 77.0263 59.4748 76.5391C58.9355 76.321 58.4181 76.0411 57.9335 75.7176C57.4343 75.3868 56.3812 74.8379 56.3812 74.8379C56.3812 74.8379 55.4083 75.0705 54.5884 75.9793C53.641 77.0335 53.0945 78.3495 52.6244 79.6799C52.0888 80.596 51.7863 81.6247 51.5859 82.668C51.3782 83.7549 51.1632 84.8964 51.247 86.0087C51.3345 87.1356 51.7353 88.1317 52.4859 88.9641C52.8467 89.364 53.2694 89.6984 53.692 90.0256C53.8742 90.1637 54.0892 90.2982 54.2787 90.4509C53.2147 92.8501 53.2111 95.6165 54.2969 97.9938C54.2751 98.0666 54.2568 98.1429 54.2495 98.2229C54.1657 99.1535 53.6337 99.9823 53.1564 100.753C52.588 101.665 52.0705 102.574 51.6661 103.577C51.2725 104.555 50.9847 105.573 50.8243 106.62C50.7843 106.889 50.7223 107.194 50.6895 107.496C50.6021 107.558 50.5328 107.642 50.4818 107.743C49.2393 110.321 47.9712 113.047 45.938 115.079C45.0015 116.017 43.9448 116.806 42.8516 117.544C42.2832 117.925 41.7038 118.347 41.0698 118.616C40.4649 118.871 39.8054 118.809 39.2005 119.041C38.3879 119.354 38.4754 120.612 39.4119 120.637C39.4774 120.637 39.5576 120.637 39.6232 120.666C39.7726 120.732 39.9329 120.764 40.0823 120.757C41.8933 121.099 43.7298 121.292 45.5736 121.292C46.4189 121.292 47.2643 121.255 48.1133 121.215C48.1388 121.223 48.1607 121.233 48.1898 121.237C48.2627 121.252 48.332 121.255 48.4012 121.263V121.266C48.4231 121.27 48.4449 121.266 48.4668 121.27C48.5506 121.277 48.638 121.284 48.7219 121.284C49.5672 121.335 50.4089 121.266 51.2397 121.084C51.309 121.07 51.3673 121.044 51.4219 121.019C52.5114 121.023 53.6046 120.961 54.6868 120.823C55.3974 120.732 56.1079 120.63 56.7929 120.423C57.4671 120.219 58.0938 119.892 58.7278 119.587C59.3108 119.307 59.923 119.165 60.5461 119.009C61.2238 118.838 61.8688 118.591 62.47 118.227C63.5778 117.558 64.6709 116.693 65.5454 115.723C66.0337 115.181 66.4746 114.574 66.788 113.909C66.952 113.56 67.0977 113.192 67.1961 112.818C67.2362 112.665 67.269 112.509 67.2945 112.349C67.3054 112.284 67.3273 112.207 67.3382 112.135C67.4621 112.076 67.5787 111.986 67.6625 111.877C69.0107 111.309 70.195 110.441 71.2517 109.408C71.8274 108.845 72.4214 108.245 72.844 107.547C73.2813 106.824 73.5546 105.98 73.868 105.191C73.8898 105.162 73.9153 105.137 73.9335 105.104C74.2251 104.632 74.3089 104.105 74.3635 103.556C74.4145 103.014 74.4619 102.469 74.4583 101.927C74.451 101.098 74.3125 100.244 73.9408 99.4988C74.2433 99.168 74.5239 98.8154 74.7206 98.4119C75.0741 97.6921 75.0959 96.9433 75.0559 96.1581Z" fill="#FBECA9"/>
<path d="M58.7898 62.6278C50.4672 62.6278 46.5683 55.412 45.7594 49.0068C44.9031 42.2382 48.0805 34.2808 54.8763 32.685C58.1412 31.918 61.3332 32.3905 63.8729 34.0082C66.3289 35.5749 68.0269 38.1123 68.65 41.1549C68.7301 41.5475 68.4751 41.9328 68.0815 42.0128C67.688 42.0928 67.3018 41.8383 67.2216 41.4457C66.6787 38.7957 65.2102 36.5891 63.0895 35.2332C60.8886 33.8264 58.0901 33.4265 55.2151 34.1027C50.5037 35.2078 46.2222 41.0168 47.2096 48.8251C48.434 58.5019 54.5228 61.53 59.8064 61.1374C66.2633 60.6575 68.8467 54.8922 68.7848 52.6783C68.7739 52.2785 69.0909 51.944 69.4953 51.9331C69.5026 51.9331 69.5099 51.9331 69.5172 51.9331C69.9107 51.9331 70.235 52.2458 70.246 52.642C70.3188 55.3393 67.4512 62.028 59.9193 62.5914C59.5295 62.6132 59.1541 62.6278 58.7898 62.6278Z" fill="black"/>
<path d="M76.455 57.3854C72.3739 57.3854 70.0091 55.2734 68.905 53.9102C68.6536 53.5975 68.7009 53.1395 69.0143 52.8887C69.3277 52.6379 69.7868 52.6851 70.0382 52.9977C71.0913 54.2991 73.5108 56.4003 77.9053 55.8368C80.0952 55.5533 81.9791 54.4227 83.3601 52.5652C85.3496 49.8824 86.0748 45.8874 85.3496 41.6088C84.6865 37.7155 82.9811 34.6257 80.5434 32.9062C78.7215 31.623 76.5935 31.1468 74.3817 31.5321C68.6827 32.5245 67.5677 37.4211 67.462 37.9736C67.3855 38.3662 67.0029 38.6243 66.6057 38.548C66.2122 38.4717 65.9535 38.09 66.03 37.6937C66.6057 34.7383 69.0763 30.976 74.1303 30.0962C76.732 29.6455 79.2389 30.2017 81.3815 31.7139C84.1399 33.6587 86.0565 37.083 86.7853 41.3616C87.5906 46.0982 86.7889 50.3804 84.5298 53.4231C82.9083 55.6078 80.6819 56.9383 78.0911 57.2727C77.519 57.3527 76.9725 57.3854 76.455 57.3854Z" fill="black"/>
<path d="M57.6638 37.1785C61.9161 36.7313 65.7239 41.9042 66.3543 46.3645C67.0212 51.0648 65.979 57.081 61.1983 58.0225C55.1022 59.2257 51.8519 53.7802 51.1814 48.8982C50.5109 44.0198 52.6535 37.7056 57.6638 37.1785Z" fill="white"/>
<path d="M59.5149 58.9199C57.8679 58.9199 56.363 58.4401 55.0257 57.4877C52.6681 55.8082 50.9592 52.6347 50.46 48.9996C49.9754 45.4735 50.8936 41.6311 52.792 39.2137C54.0528 37.607 55.7108 36.6546 57.5873 36.4583C62.1567 35.9784 66.3653 41.2385 67.0759 46.2623C67.4585 48.9596 67.2508 51.7223 66.5074 53.8416C65.5527 56.5643 63.7673 58.2583 61.3405 58.7345C60.7137 58.8581 60.1052 58.9199 59.5149 58.9199ZM57.7404 37.9014C56.2464 38.0577 54.9674 38.7993 53.9398 40.108C52.271 42.2345 51.4693 45.6443 51.9029 48.7996C52.3475 52.0458 53.8305 54.8522 55.8711 56.3026C57.3505 57.3568 59.0959 57.6949 61.0563 57.3059C63.2644 56.8697 66.7151 54.0961 65.6329 46.4622C64.8932 41.253 60.7866 37.5779 57.7404 37.9014Z" fill="black"/>
<path d="M75.2307 34.5822C79.4065 33.6334 82.1394 38.261 82.8208 42.256C83.5241 46.3856 83.1816 52.111 78.6778 52.8925C75.0522 53.5214 71.6415 49.4428 70.9201 44.5644C70.3152 40.4748 71.3974 35.451 75.2307 34.5822Z" fill="white"/>
<path d="M77.9308 53.6849C76.7648 53.6849 75.5951 53.2814 74.5093 52.4998C72.3303 50.9258 70.676 47.9268 70.195 44.6734C69.5063 40.0131 70.9602 34.8075 75.0668 33.8733C76.5826 33.528 78.0146 33.797 79.3264 34.673C81.7714 36.3052 83.1051 39.5987 83.535 42.136C84.3877 47.138 83.5897 52.7761 78.7981 53.6122C78.5102 53.6595 78.2223 53.6849 77.9308 53.6849ZM76.3093 35.1856C76.0069 35.1856 75.7008 35.2219 75.3911 35.291C72.1481 36.0253 71.0476 40.4602 71.6379 44.4589C72.0643 47.3416 73.4926 49.9698 75.3619 51.3184C76.3931 52.06 77.4936 52.3581 78.5466 52.1763C83.3711 51.3366 82.3508 43.8663 82.0957 42.3796C81.6184 39.566 80.2119 37.0141 78.5138 35.8835C77.8252 35.4182 77.0855 35.1856 76.3093 35.1856Z" fill="black"/>
<path d="M75.7627 73.9879C75.4202 73.9879 75.074 73.9807 74.7242 73.9698C66.03 73.6535 57.6055 69.9166 56.3848 67.6446C56.1953 67.292 56.3265 66.8485 56.6836 66.6595C57.0371 66.4704 57.4816 66.6013 57.6711 66.9575C58.4509 68.4116 66.1175 72.2031 74.7789 72.5157C81.6876 72.7593 87.4995 70.4073 89.9482 66.3578C93.3187 60.7778 91.5442 56.2993 90.6259 54.6307C89.3615 52.3333 87.2955 50.7629 85.4918 50.7229C85.091 50.712 84.7703 50.3812 84.7812 49.9814C84.7922 49.5815 85.1274 49.2507 85.5282 49.2725C87.8712 49.327 90.3782 51.1555 91.9086 53.9328C94.1094 57.9242 93.8507 62.7262 91.2017 67.1102C88.6 71.3961 82.748 73.9879 75.7627 73.9879Z" fill="black"/>
<path d="M55.2808 70.1267C55.2079 70.1267 55.1314 70.1158 55.0548 70.0903C54.6759 69.9667 54.4645 69.5632 54.5848 69.1815C54.6176 69.0834 55.3937 66.7314 58.4618 65.5427C58.8371 65.3973 59.2598 65.5827 59.4056 65.9571C59.5513 66.3316 59.3655 66.7532 58.9902 66.8986C56.5998 67.8256 55.9986 69.5559 55.9731 69.6286C55.8711 69.934 55.5832 70.1267 55.2808 70.1267Z" fill="black"/>
<path d="M85.5975 61.4246C85.4481 61.4246 85.2987 61.3774 85.1675 61.2829C84.8833 61.0757 83.9468 60.7412 83.3675 60.574C82.9812 60.4613 82.7626 60.0542 82.8756 59.6688C82.9885 59.2835 83.3966 59.0654 83.7792 59.1781C84.0525 59.2581 85.4408 59.6797 86.0275 60.1087C86.3518 60.345 86.421 60.803 86.1842 61.1265C86.042 61.3228 85.8198 61.4246 85.5975 61.4246Z" fill="black"/>
<path d="M88.5416 59.7743C88.1481 59.7743 87.8238 59.4508 87.8129 59.0546C87.8056 58.7601 87.9586 58.0513 88.0971 57.7459C88.2611 57.3788 88.6947 57.2188 89.0591 57.3824C89.4271 57.546 89.5911 57.9786 89.4234 58.3421C89.3761 58.4548 89.2741 58.9019 89.2704 59.0364C89.2813 59.4363 88.9607 59.7634 88.5599 59.7707C88.5526 59.7744 88.5489 59.7743 88.5416 59.7743Z" fill="black"/>
<path d="M64.7511 78.266C64.7474 78.266 64.7474 78.266 64.7474 78.266C61.8396 78.266 57.1282 76.7611 55.5905 75.1362C54.8216 75.347 53.9471 75.576 53.4187 75.6851C53.0252 75.7651 52.639 75.5106 52.5588 75.118C52.4786 74.7254 52.7337 74.3401 53.1272 74.2601C53.5936 74.1656 54.4973 73.9329 55.6743 73.6058C56.0095 73.5149 56.363 73.6676 56.5196 73.9766C57.0225 74.9617 61.5554 76.812 64.7438 76.812H64.7474C69.4735 76.812 72.1043 75.536 72.5635 73.0241C72.6363 72.6279 73.0153 72.3662 73.4125 72.4389C73.8096 72.5116 74.072 72.8896 73.9991 73.2859C73.3942 76.5902 70.2824 78.266 64.7511 78.266Z" fill="black"/>
<path d="M71.1715 32.4087C70.9711 32.4087 70.7743 32.3288 70.6286 32.1688C68.803 30.144 63.2899 28.381 57.8059 28.0756C51.6806 27.7303 44.608 29.1226 42.3524 29.9078C41.9735 30.0386 41.5581 29.8387 41.4233 29.4606C41.2921 29.0826 41.4925 28.6682 41.8714 28.5337C44.2946 27.6867 51.4802 26.2617 57.8861 26.6216C63.811 26.956 69.6265 28.879 71.7108 31.1946C71.9805 31.4927 71.9549 31.9544 71.6562 32.2234C71.5177 32.347 71.3428 32.4087 71.1715 32.4087Z" fill="black"/>
<path d="M39.9839 74.9365C36.3072 74.9365 29.956 72.6063 25.8276 68.8621C21.9833 65.3796 20.0084 60.9193 19.6075 54.8231C18.8751 43.6923 25.3029 33.881 35.604 30.4094C35.9866 30.2786 36.3983 30.4858 36.5295 30.8638C36.657 31.2455 36.453 31.6563 36.074 31.7835C26.4069 35.0406 20.3764 44.2594 21.0651 54.7214C21.4404 60.4177 23.2659 64.5654 26.8114 67.7788C29.6827 70.3816 36.4749 73.8823 40.596 73.4424C40.9969 73.4061 41.3539 73.6896 41.3977 74.0895C41.4414 74.4893 41.1499 74.8456 40.7491 74.8892C40.5086 74.9256 40.2535 74.9365 39.9839 74.9365Z" fill="black"/>
<path d="M64.926 46.5529C65.181 48.7194 64.6199 50.6097 62.8125 50.8678C61.3113 51.0823 59.8283 49.8209 59.5076 47.4326C59.2161 45.2588 59.9303 43.4266 61.8105 43.1904C63.3154 42.9977 64.6636 44.3245 64.926 46.5529Z" fill="#282E36"/>
<path d="M62.4918 51.6133C61.8141 51.6133 61.1436 51.3842 60.5716 50.9517C59.6205 50.2355 58.9901 49.0178 58.7897 47.5237C58.5784 45.957 58.8517 44.5865 59.5622 43.6704C60.0833 42.9943 60.8339 42.5763 61.723 42.4636C62.5283 42.3618 63.3081 42.5835 63.9749 43.1034C64.8859 43.8158 65.4834 45.0082 65.6547 46.4622C65.9936 49.3304 64.9478 51.2934 62.9218 51.5805C62.7761 51.606 62.634 51.6133 62.4918 51.6133ZM62.0947 43.8958C62.0291 43.8958 61.9671 43.8995 61.9015 43.9067C61.3914 43.9722 61.0015 44.183 60.7137 44.5574C60.2509 45.1572 60.076 46.1678 60.2327 47.331C60.3821 48.4361 60.812 49.3122 61.4497 49.7957C61.836 50.0865 62.2732 50.2101 62.7105 50.1447C64.4012 49.9047 64.3174 47.611 64.2008 46.6367C64.0769 45.5862 63.6652 44.7137 63.0712 44.2521C62.7688 44.0158 62.4408 43.8958 62.0947 43.8958Z" fill="black"/>
<path d="M57.6055 84.1334C57.4014 85.3221 56.669 86.2672 55.3572 86.2381C54.3005 86.2127 53.6556 85.1767 53.8195 83.8535C53.9726 82.6466 54.6977 81.4942 56.0168 81.5851C56.9897 81.6542 57.8788 82.5412 57.6055 84.1334Z" fill="#537CE6"/>
<path d="M55.4156 86.965C55.3901 86.965 55.3646 86.965 55.3427 86.965C54.7123 86.9504 54.1366 86.6814 53.7248 86.2052C53.2074 85.6054 52.9778 84.7148 53.0981 83.7624C53.3313 81.9194 54.5265 80.7525 56.0678 80.8615C56.7492 80.9088 57.3832 81.2469 57.8059 81.7849C58.1594 82.232 58.5347 83.0281 58.3234 84.2604C58.0355 85.9326 56.9241 86.965 55.4156 86.965ZM55.8747 82.3047C54.7816 82.3047 54.5629 83.7697 54.5411 83.9405C54.4718 84.4785 54.5811 84.9693 54.8253 85.2528C54.971 85.42 55.1496 85.5036 55.3719 85.5109C55.3864 85.5109 55.3974 85.5109 55.4119 85.5109C56.4686 85.5109 56.7857 84.573 56.884 84.0096C56.9788 83.4498 56.9023 82.9881 56.6581 82.6791C56.4869 82.461 56.2391 82.3301 55.9622 82.312C55.9366 82.3083 55.9039 82.3047 55.8747 82.3047Z" fill="black"/>
<path d="M60.4987 94.7409C60.8485 95.8969 60.6189 97.0674 59.4347 97.6272C58.48 98.078 57.4342 97.4382 56.9897 96.1804C56.5852 95.0353 56.7164 93.6758 57.9371 93.1705C58.8334 92.7997 60.0286 93.1959 60.4987 94.7409Z" fill="#537CE6"/>
<path d="M58.808 98.4958C58.5237 98.4958 58.2359 98.4376 57.9626 98.3249C57.2302 98.0196 56.6253 97.3253 56.3047 96.4201C55.6852 94.668 56.2281 93.0903 57.6602 92.4978C58.2905 92.236 59.0084 92.2542 59.6278 92.545C60.1453 92.7886 60.8376 93.3302 61.202 94.5262C61.7048 96.1838 61.151 97.6197 59.7517 98.2813C59.4456 98.4267 59.125 98.4958 58.808 98.4958ZM58.5857 93.7664C58.4618 93.7664 58.3343 93.7919 58.214 93.8428C57.1282 94.2936 57.6164 95.7694 57.6747 95.9366C57.8569 96.4456 58.1703 96.8382 58.5201 96.9836C58.7242 97.0672 58.9209 97.0635 59.1213 96.969C60.1052 96.5037 59.9704 95.5041 59.7991 94.9515C59.6351 94.4062 59.3582 94.0318 58.9974 93.861C58.8699 93.7992 58.7278 93.7664 58.5857 93.7664Z" fill="black"/>
<path d="M57.1646 107.773C56.6508 108.863 55.4338 109.485 54.1475 109.038C53.1491 108.693 52.996 107.558 53.4479 106.304C53.8596 105.163 54.8253 104.192 56.0897 104.57C57.0225 104.85 57.9881 106.028 57.1646 107.773Z" fill="#537CE6"/>
<path d="M54.9855 109.91C54.6285 109.91 54.2677 109.852 53.907 109.725C53.364 109.536 52.9523 109.172 52.7118 108.67C52.3802 107.973 52.3948 107.071 52.7628 106.057C53.3932 104.308 54.8143 103.432 56.2973 103.876C57.0224 104.094 57.6455 104.646 57.9626 105.355C58.2176 105.926 58.3998 106.86 57.8241 108.085C57.2812 109.238 56.1807 109.91 54.9855 109.91ZM55.5503 105.217C54.6467 105.217 54.1875 106.399 54.1365 106.551C53.9143 107.162 53.8778 107.722 54.0309 108.045C54.1037 108.198 54.2131 108.292 54.388 108.354C55.39 108.703 56.188 108.14 56.505 107.467C56.7747 106.893 56.8184 106.369 56.6326 105.951C56.4577 105.566 56.1297 105.348 55.8783 105.272C55.7653 105.232 55.6524 105.217 55.5503 105.217Z" fill="black"/>
<path d="M81.8079 43.2741C82.0192 45.0554 81.5564 46.6148 80.0698 46.8257C78.8345 47.0002 77.6138 45.9641 77.3478 43.9939C77.1073 42.2054 77.694 40.6968 79.2426 40.5005C80.4852 40.3478 81.5929 41.4384 81.8079 43.2741Z" fill="#282E36"/>
<path d="M79.8037 47.5704C79.2171 47.5704 78.6377 47.3741 78.1458 46.9997C77.3369 46.389 76.7976 45.3566 76.6263 44.0916C76.4478 42.7647 76.6846 41.6051 77.2858 40.8235C77.7377 40.2383 78.3826 39.8784 79.1515 39.7803C79.8511 39.693 80.5252 39.8857 81.1009 40.3328C81.8771 40.9399 82.3872 41.9541 82.533 43.1864C82.8208 45.6256 81.9172 47.2941 80.1718 47.545C80.0515 47.5631 79.9276 47.5704 79.8037 47.5704ZM79.4758 41.2161C79.4284 41.2161 79.3811 41.2198 79.3337 41.2234C78.9474 41.2707 78.6559 41.4306 78.4409 41.7105C78.0802 42.1758 77.9454 42.9719 78.0693 43.8989C78.1859 44.775 78.5248 45.4656 79.024 45.8401C79.3155 46.0582 79.6398 46.1491 79.9677 46.1054C81.2503 45.9237 81.1775 44.1243 81.0864 43.3573C80.988 42.5248 80.6673 41.8414 80.2046 41.4779C79.9786 41.3034 79.7345 41.2161 79.4758 41.2161Z" fill="black"/>
<path d="M45.0853 89.3751C41.9151 89.3751 38.796 87.2849 36.8684 83.8496C34.8461 80.2436 34.7441 76.154 36.6097 73.4385C36.8356 73.1077 37.2911 73.0241 37.6227 73.2495C37.9543 73.4749 38.0418 73.9293 37.8122 74.2601C36.2563 76.5248 36.3875 80.0145 38.1401 83.1408C39.492 85.5545 42.101 88.0846 45.3622 87.9174C45.763 87.9065 46.1056 88.2082 46.1274 88.6081C46.1493 89.0079 45.8359 89.3496 45.4351 89.3714C45.3185 89.3751 45.2019 89.3751 45.0853 89.3751Z" fill="black"/>
<path d="M15.5593 60.8872C15.5192 60.8872 15.4791 60.8872 15.439 60.8835C14.6374 60.8181 14.0398 60.1165 14.1054 59.3168C14.4953 54.5293 19.0501 52.679 22.8032 51.9665C25.6272 51.4321 38.2166 49.7018 43.4383 49.2256C44.0614 49.3746 44.4585 49.9163 44.5168 50.5342C44.5606 51.0105 44.5642 51.7557 43.8937 52.1119C38.7341 52.5808 26.1228 54.2966 23.3462 54.8237C19.2796 55.5944 17.2063 57.1393 17.0095 59.5531C16.9476 60.3092 16.3099 60.8872 15.5593 60.8872Z" fill="#537CE6"/>
<path d="M15.5593 61.6138C15.501 61.6138 15.4427 61.6102 15.3807 61.6066C14.1783 61.5084 13.2782 60.4542 13.3766 59.2546C13.7155 55.1033 16.9257 52.3369 22.6648 51.25C25.4997 50.712 38.1328 48.978 43.369 48.5018C43.4492 48.4945 43.5294 48.5018 43.6059 48.52C44.5059 48.7345 45.1472 49.5015 45.2383 50.4648C45.344 51.5735 45.0051 52.3442 44.2326 52.7513C44.1488 52.7949 44.0541 52.824 43.9557 52.8349C38.8252 53.3002 26.1519 55.0306 23.4773 55.5358C19.7788 56.2374 17.8986 57.5679 17.731 59.6072C17.6435 60.7305 16.6889 61.6138 15.5593 61.6138ZM43.3617 49.9631C38.0745 50.4539 25.7256 52.1515 22.938 52.6786C19.4327 53.3402 15.184 55.0415 14.8305 59.3709C14.7977 59.7708 15.0965 60.1234 15.4973 60.1561C15.5156 60.1561 15.5374 60.1598 15.5593 60.1598C15.9346 60.1598 16.2552 59.8653 16.2844 59.4909C16.5103 56.7064 18.7768 54.9469 23.2113 54.1072C25.9479 53.5874 38.264 51.9043 43.6496 51.4027C43.7443 51.3118 43.8391 51.1155 43.7917 50.5993C43.7662 50.3666 43.6423 50.0758 43.3617 49.9631Z" fill="black"/>
<path d="M38.3697 98.0266C38.0491 98.0266 37.7575 97.8157 37.6664 97.4958C36.5769 93.5917 36.9741 89.8293 38.8507 86.3177C39.0402 85.9615 39.4811 85.827 39.8382 86.0196C40.1953 86.2087 40.3265 86.6485 40.137 87.0048C38.4426 90.1746 38.0818 93.5771 39.0693 97.1069C39.1786 97.4922 38.9491 97.8957 38.5628 98.0011C38.5009 98.0157 38.4353 98.0266 38.3697 98.0266Z" fill="black"/>
<path d="M28.2508 99.3791C28.1524 99.3791 28.0504 99.3573 27.9556 99.3173C27.5876 99.1537 27.42 98.7248 27.584 98.3576C29.5917 93.8319 36.0777 93.9191 37.8669 94.5662C38.2458 94.7043 38.4426 95.1187 38.3041 95.4968C38.1656 95.8748 37.7466 96.0675 37.3713 95.933C35.9429 95.4168 30.5172 95.3477 28.9212 98.9465C28.7974 99.2155 28.5314 99.3791 28.2508 99.3791Z" fill="black"/>
<path d="M14.4552 98.4453C14.3203 98.4453 14.1855 98.4089 14.0616 98.329C13.7228 98.1108 13.6244 97.6637 13.843 97.3257C15.7888 94.3012 20.9703 92.3164 23.5757 92.3164C23.5866 92.3164 23.5975 92.3164 23.6121 92.3164C26.4434 92.3346 30.9362 93.5415 31.6541 95.6753C31.7816 96.057 31.5775 96.4678 31.1949 96.595C30.8123 96.7222 30.4006 96.5187 30.273 96.137C29.9269 95.1118 26.7167 93.7923 23.6012 93.7705C23.5903 93.7705 23.583 93.7705 23.572 93.7705C21.3129 93.7705 16.6706 95.6208 15.0673 98.1108C14.9325 98.329 14.6957 98.4453 14.4552 98.4453Z" fill="black"/>
<path d="M19.7205 94.668C19.3561 94.668 19.0427 94.3989 18.999 94.0282C18.8788 93.0467 18.4123 92.4723 17.8184 91.7416C17.4941 91.3418 17.1261 90.8874 16.7945 90.3312C15.3078 87.8193 13.8357 87.1177 13.0486 86.7433C12.8883 86.667 12.7498 86.6015 12.6442 86.5397C12.2943 86.3398 12.1741 85.8963 12.3745 85.5473C12.5749 85.1984 13.0195 85.0784 13.3693 85.2783C13.4531 85.3256 13.5551 85.3728 13.679 85.431C14.5426 85.8418 16.339 86.6997 18.0516 89.5933C18.3249 90.0586 18.6456 90.4512 18.9516 90.8292C19.6002 91.6326 20.2743 92.4578 20.4456 93.8537C20.493 94.2535 20.2088 94.6134 19.8116 94.6643C19.7824 94.6643 19.7496 94.668 19.7205 94.668Z" fill="black"/>
<path d="M9.44127 87.4194C8.85825 87.4194 8.3299 87.3285 7.90357 87.1468C7.53554 86.9868 7.36428 86.5615 7.52097 86.1907C7.6813 85.8236 8.10762 85.6527 8.4793 85.809C9.0113 86.0381 10.1336 86.0562 11.4381 85.5837C12.5677 85.1729 13.0487 84.2859 13.3438 82.0685C13.6645 79.6802 13.26 77.699 12.2397 76.6303C11.9628 76.3395 11.9737 75.8778 12.2652 75.6015C12.5567 75.3252 13.0159 75.3362 13.2964 75.627C15.1147 77.5282 15.0127 80.5999 14.7904 82.2611C14.5426 84.1187 14.0981 86.1653 11.9373 86.9505C11.081 87.2631 10.2138 87.4194 9.44127 87.4194Z" fill="black"/>
<path d="M47.1294 122.022C43.4091 122.022 39.481 121.539 36.6425 120.037C36.2854 119.848 36.1506 119.409 36.34 119.056C36.5295 118.7 36.9704 118.565 37.3239 118.754C42.9354 121.721 53.6483 120.336 56.7054 119.525C62.5647 117.973 65.877 115.537 66.8317 112.084C66.9373 111.698 67.3382 111.466 67.728 111.575C68.1143 111.68 68.3438 112.084 68.2382 112.469C67.1341 116.464 63.483 119.23 57.0808 120.928C55.3099 121.397 51.3563 122.022 47.1294 122.022Z" fill="black"/>
<path d="M72.1663 90.7531C71.9659 90.7531 71.7655 90.6732 71.6234 90.5096C71.3537 90.2115 71.3792 89.7498 71.6817 89.4845C72.7894 88.4921 72.8113 85.6894 72.1371 83.6936C71.4958 81.7997 69.4735 79.037 68.4933 78.2336C68.1836 77.9792 68.1362 77.5211 68.3913 77.2122C68.6464 76.9032 69.1055 76.8559 69.4152 77.1104C70.676 78.1428 72.8149 81.1672 73.5145 83.2283C74.1741 85.1768 74.5239 88.8956 72.6509 90.5677C72.5161 90.6913 72.3412 90.7531 72.1663 90.7531Z" fill="black"/>
<path d="M52.26 90.0481C52.0997 90.0481 51.9394 89.9972 51.8082 89.8881C50.7624 89.0557 50.183 87.8452 50.081 86.2857C49.8551 82.7669 52.2163 78.2702 53.9325 76.5071C54.2131 76.2199 54.6759 76.2127 54.9637 76.4926C55.2516 76.7725 55.2589 77.2341 54.9783 77.5213C53.4115 79.1281 51.3454 83.2067 51.5349 86.1948C51.6078 87.3253 52.0049 88.1869 52.7155 88.7503C53.0289 89.0012 53.0835 89.4592 52.8321 89.7718C52.69 89.9536 52.475 90.0481 52.26 90.0481Z" fill="black"/>
<path d="M56.3083 101.044C56.2063 101.044 56.1042 101.022 56.0095 100.979C54.4718 100.284 53.3422 99.0774 52.741 97.4852C51.9721 95.4458 52.158 92.9012 53.2511 90.5056C53.4187 90.1421 53.8487 89.9785 54.2167 90.1458C54.5848 90.313 54.7451 90.7419 54.5775 91.1091C53.6446 93.1557 53.4734 95.2968 54.1038 96.9762C54.5665 98.2013 55.4301 99.1282 56.6071 99.659C56.9751 99.8226 57.1354 100.255 56.9715 100.622C56.8512 100.888 56.5852 101.044 56.3083 101.044Z" fill="black"/>
<path d="M50.7951 110.216C50.4963 110.216 50.2194 110.034 50.1101 109.74C48.9951 106.69 50.9409 103.167 52.7665 100.437C52.9887 100.103 53.4406 100.012 53.7758 100.237C54.111 100.459 54.2021 100.91 53.9798 101.244C52.4749 103.498 50.5801 106.777 51.4802 109.242C51.6186 109.62 51.4255 110.038 51.0466 110.176C50.9628 110.201 50.8789 110.216 50.7951 110.216Z" fill="black"/>
<path d="M65.8661 92.076C63.1368 92.076 59.7809 91.6252 57.416 90.1639C57.0735 89.953 56.9678 89.5059 57.1792 89.1642C57.3905 88.8225 57.8387 88.7171 58.1812 88.9279C61.6283 91.0581 68.3512 90.7746 69.714 90.2039C70.0856 90.0476 70.512 90.222 70.6686 90.5928C70.8253 90.9636 70.6504 91.3889 70.2787 91.5452C69.6265 91.8179 67.9212 92.076 65.8661 92.076Z" fill="black"/>
<path d="M66.6167 102.629C63.6762 102.629 60.4878 102.124 58.6586 101.528C58.276 101.404 58.0683 100.993 58.1922 100.612C58.3161 100.23 58.7278 100.019 59.1104 100.146C63.8984 101.706 70.0711 101.324 71.5614 100.248C71.8857 100.012 72.3448 100.085 72.578 100.412C72.8149 100.739 72.742 101.193 72.4141 101.426C71.2007 102.298 68.9889 102.629 66.6167 102.629Z" fill="black"/>
<path d="M73.795 100.488C73.6347 100.488 73.4744 100.437 73.3396 100.328C73.0262 100.077 72.9752 99.6189 73.2266 99.3062C75.3838 96.6271 74.5384 91.7342 72.3339 89.6076C72.046 89.3277 72.0351 88.8697 72.3156 88.5789C72.5962 88.2917 73.059 88.2844 73.3469 88.5607C76.3567 91.4616 76.8522 97.1251 74.3635 100.215C74.2177 100.397 74.0064 100.488 73.795 100.488Z" fill="black"/>
<path d="M60.5387 114.559C56.2208 114.559 51.7644 113.138 50.8643 111.757C50.6457 111.418 50.7405 110.971 51.0793 110.75C51.4146 110.531 51.8664 110.626 52.0887 110.96C52.7154 111.92 59.1686 113.978 64.0332 112.698C68.3475 111.564 71.248 109.714 72.6618 107.198C73.7877 105.191 73.9371 102.759 73.099 99.9677C72.9824 99.5824 73.2011 99.1789 73.5873 99.0625C73.9736 98.9462 74.378 99.1643 74.4946 99.5496C75.4493 102.734 75.2635 105.544 73.9335 107.907C72.3193 110.779 69.1127 112.865 64.4048 114.101C63.1987 114.425 61.876 114.559 60.5387 114.559Z" fill="black"/>
<path d="M34.5801 120.285C28.8957 120.285 22.7231 117.893 18.7258 115.534C12.1632 111.662 7.95824 107.536 4.66786 101.746C1.48314 96.1366 -0.0873492 89.6951 0.0037467 82.5993C0.0693357 77.3792 1.31188 73.6641 4.03018 70.5451C8.23517 65.7285 12.2835 65.4922 14.3204 65.7794C16.9221 66.1466 20.0849 67.3425 20.3655 70.9486C20.5696 73.5877 18.9918 76.405 15.0054 76.754C12.8993 76.9394 11.4017 76.6013 10.4251 75.7252C10.1263 75.4562 10.1008 74.9982 10.3705 74.7001C10.6401 74.402 11.0992 74.3766 11.398 74.6456C12.0466 75.2272 13.2163 75.4489 14.8742 75.3072C18.0735 75.0273 19.0464 72.8462 18.908 71.0649C18.7403 68.9093 17.1699 67.6515 14.1127 67.2226C12.3673 66.9754 8.87649 67.2044 5.12698 71.5012C3.4581 73.4133 1.53416 76.4014 1.45764 82.6175C1.37383 89.4552 2.87873 95.6495 5.93591 101.03C9.09147 106.588 13.1398 110.55 19.4691 114.283C24.013 116.962 31.4537 119.696 37.4879 118.58C42.5054 117.653 46.0764 114.829 48.0987 110.183C48.2591 109.816 48.689 109.645 49.0571 109.805C49.4251 109.965 49.5963 110.394 49.436 110.761C47.2096 115.876 43.2779 118.987 37.7539 120.009C36.7227 120.198 35.6623 120.285 34.5801 120.285Z" fill="black"/>
<path d="M36.7955 32.7176C36.5587 32.7176 36.3255 32.6013 36.1834 32.3868C34.5218 29.8458 33.0497 26.0653 32.248 22.2774C31.5885 19.1585 31.0784 14.6472 32.4011 10.8776C35.768 1.28804 40.1952 -0.420482 42.2795 0.0775343C43.1067 0.277468 43.7443 0.746403 44.1342 1.43345C44.7464 2.524 44.7245 4.10529 44.065 6.13734C42.4362 11.1648 37.9033 18.3806 35.502 18.8749C35.1084 18.9585 34.7222 18.7041 34.642 18.3079C34.5619 17.9116 34.8133 17.5299 35.2105 17.45C36.5805 17.17 40.9568 11.0157 42.6803 5.69022C43.1941 4.10529 43.2597 2.84389 42.8662 2.1423C42.6767 1.80787 42.3742 1.5934 41.9406 1.48798C41.2738 1.32803 40.0568 1.62611 38.6284 2.9384C37.353 4.10892 35.4765 6.52267 33.7821 11.3538C31.6213 17.5045 34.5546 27.2213 37.4077 31.5871C37.6263 31.9252 37.5316 32.3759 37.1964 32.594C37.0688 32.6813 36.9304 32.7176 36.7955 32.7176Z" fill="black"/>
<path d="M42.5565 31.0785C42.3524 31.0785 42.152 30.9949 42.0062 30.8313C40.7382 29.3845 39.2224 25.5567 37.8851 22.176C37.1308 20.2712 36.4202 18.4718 35.9866 17.7448C35.7826 17.3994 35.8955 16.9523 36.2417 16.7487C36.5879 16.5451 37.0361 16.6578 37.2401 17.0032C37.732 17.8284 38.4316 19.595 39.2406 21.6416C40.4685 24.7497 41.999 28.6139 43.103 29.8716C43.369 30.1734 43.3362 30.6314 43.0338 30.8968C42.899 31.0167 42.7277 31.0785 42.5565 31.0785Z" fill="black"/>
<path d="M50.9191 28.2791C50.5547 28.2791 50.2377 28.0065 50.1976 27.6357C49.3778 20.5835 50.8827 12.597 53.856 8.21666C57.5618 2.75665 61.151 0.720963 63.964 2.48765C64.6126 2.89479 65.0207 3.52367 65.1483 4.30886C65.5382 6.75169 63.1624 9.92882 62.1203 11.1793C59.4712 14.3637 56.0423 17.1555 54.1402 17.679C53.7504 17.7844 53.3495 17.559 53.2439 17.1701C53.1382 16.7811 53.3641 16.3812 53.754 16.2758C55.1459 15.8941 58.3124 13.484 60.9979 10.2523C62.8709 7.99855 63.9094 5.81018 63.709 4.54151C63.6507 4.16709 63.483 3.909 63.1879 3.7236C60.3275 1.93147 56.5525 6.84257 55.0621 9.0382C52.311 13.0914 50.8754 20.8452 51.6442 27.4757C51.6916 27.8756 51.4037 28.2355 51.0029 28.2827C50.9738 28.2791 50.9446 28.2791 50.9191 28.2791Z" fill="black"/>
<path d="M55.2808 28.0175C55.2407 28.0175 55.1969 28.0138 55.1532 28.0066C54.756 27.9375 54.49 27.5594 54.5593 27.1668C55.0548 24.3314 55.0548 19.144 54.5593 16.494C54.4864 16.0978 54.7451 15.7197 55.1423 15.647C55.5395 15.5707 55.9184 15.8324 55.9913 16.2287C56.5197 19.0604 56.5197 24.3932 55.9913 27.4177C55.9366 27.7703 55.6306 28.0175 55.2808 28.0175Z" fill="black"/>
</svg>
