<svg width="94" height="123" viewBox="0 0 94 123" fill="none" xmlns="http://www.w3.org/2000/svg">
<g clip-path="url(#clip0_2410_19348)">
<path d="M80.3976 32.5018C80.281 32.3019 80.1024 32.131 79.851 32.0074C77.8214 31.015 73.6273 29.8082 71.9184 31.9456C71.543 31.8039 71.124 31.8148 70.7487 32.0656C68.9851 33.2434 67.9211 34.8829 67.1376 36.8277C66.9263 37.3548 66.7806 37.8419 66.6639 38.3472C65.8951 36.8749 64.9368 35.5372 63.4683 34.6466C63.2788 34.5302 63.0821 34.4721 62.8889 34.4539C62.8816 34.4503 62.8744 34.443 62.8671 34.4394C62.0618 33.9268 61.2601 33.6905 60.3237 33.6542C60.218 33.5996 60.1014 33.556 59.9702 33.5233C57.128 32.8435 54.2385 33.3561 51.8991 35.1409C51.6586 35.3227 51.5019 35.5445 51.3999 35.7771C51.1303 35.9988 50.8752 36.2315 50.6238 36.4751C48.9622 37.1585 47.603 39.5468 47.1585 41.0335C47.031 41.4661 47.0966 41.8369 47.2787 42.1314C47.2532 42.244 47.235 42.364 47.2277 42.4912C47.2132 42.7639 47.1986 43.0365 47.1876 43.3128C47.1002 43.4582 47.0382 43.6145 47.0091 43.789C46.6775 45.8429 46.4698 47.944 46.9399 49.9615C46.5208 50.4086 46.3168 51.0484 46.5026 51.6664C46.703 52.3353 46.9872 52.9932 47.3662 53.5785C47.4245 53.6694 47.4901 53.753 47.563 53.8329C47.5812 53.8547 47.6067 53.8766 47.6249 53.8984C47.6686 53.942 47.7087 53.9856 47.7561 54.022C47.7925 54.0547 47.829 54.0838 47.869 54.1092C47.9273 54.1528 47.9893 54.1928 48.0549 54.2292C48.0695 54.2364 48.0804 54.2437 48.0913 54.251C48.2444 54.331 48.4083 54.3927 48.5796 54.4255C48.678 54.6945 48.7909 54.9562 48.9221 55.2143C48.9622 57.2827 51.8226 59.2929 53.3603 60.2017C54.2312 60.7143 55.3753 61.6558 56.4685 61.5576C56.8766 61.7358 57.2337 61.8048 57.7511 61.8303C57.824 61.8739 57.8969 61.9175 57.9807 61.9539C59.1212 62.4592 60.3237 61.674 61.3804 61.2414C62.7869 60.9615 64.1461 60.4017 65.1663 59.5111C65.3995 59.4529 65.6291 59.3257 65.8368 59.1003C67.553 57.2463 68.9996 55.3815 69.3349 52.8842C70.5884 54.3637 72.1916 55.5015 74.0719 56.1413C75.2598 56.5484 77.672 57.061 78.7833 56.0795C81.1118 55.745 83.2252 54.3455 84.4459 52.3243C85.6338 50.3505 86.0637 48.3511 86.0929 46.2645C87.1241 41.8478 84.7811 34.8065 80.3976 32.5018ZM64.0222 56.7738C63.789 56.8719 63.5703 57.0282 63.3881 57.2645C62.8306 57.9843 61.701 58.1042 60.8703 58.2715C60.065 58.435 59.2998 58.5405 58.5018 58.5114C58.3742 58.3696 58.2394 58.2351 58.0864 58.1224C57.5507 57.7298 56.9641 57.5662 56.3519 57.319C54.8251 56.6938 53.6154 55.6251 52.7372 54.2401C52.617 54.051 52.4603 53.9093 52.2817 53.8002C52.2489 53.7239 52.2125 53.6439 52.1688 53.5639C51.6987 52.7315 51.7643 51.6446 51.6441 50.714C51.5238 49.7834 51.3526 48.8709 51.1303 47.9622C51.2141 47.7949 51.276 47.6059 51.3015 47.3951C51.5019 45.7156 51.7206 44.0471 52.0813 42.3931C52.1833 41.9278 52.074 41.5316 51.8518 41.2298C52.617 39.9757 53.7101 38.9324 55.0438 38.1145C55.3098 37.9509 55.5029 37.7546 55.6413 37.5365C55.7397 37.5256 55.8454 37.5074 55.9511 37.4747C56.6033 37.2821 57.2556 37.1221 57.9151 36.9803C58.3706 36.9367 58.8188 36.9258 59.2633 36.944C59.369 37.2094 59.5767 37.4493 59.9301 37.6129C60.6443 37.9437 61.5116 38.0673 62.1529 38.4817C62.9254 38.9797 63.5558 39.863 64.0659 40.601C64.1388 40.7064 64.2189 40.7936 64.2991 40.8736C64.1679 41.4189 64.3246 42.0223 64.9586 42.3895C64.9586 42.3895 64.9623 42.3895 64.9623 42.3931C64.9769 42.4222 64.9878 42.4513 65.0024 42.4803C65.0279 42.5821 65.0643 42.6875 65.1117 42.793C65.3449 43.3201 65.5781 43.8472 65.8149 44.3743C65.7348 44.6905 65.7821 45.0468 66.0226 45.4139C66.5182 46.1591 66.3724 47.4169 66.4089 48.2893C66.4563 49.369 66.4963 50.4559 66.4927 51.5391C66.489 53.7602 65.4323 55.2216 64.0222 56.7738ZM82.9847 43.2619C83.3527 45.7774 83.4074 48.0058 82.2158 50.325C81.3668 51.9826 79.9202 53.0005 78.1894 53.1931C78.1894 53.1931 78.1894 53.1931 78.1858 53.1931C76.9031 52.6806 75.799 52.5461 74.6184 51.7355C73.2119 50.7685 72.5159 49.9215 71.9767 48.2893C71.4046 46.5553 70.9928 44.7814 70.6904 42.9784C70.6357 42.6621 70.5009 42.4222 70.3187 42.2513C70.6467 39.8049 71.4957 37.1948 73.0407 35.2755C73.4233 35.2173 73.733 34.9955 73.937 34.6975C74.2213 34.4939 74.684 34.3376 75.1759 34.2103C75.4164 34.5484 75.799 34.7774 76.3019 34.7593C76.9687 34.7374 77.6355 34.7265 78.306 34.7193C80.9296 35.3627 82.6968 39.016 83.2434 42.1604C83.0321 42.4585 82.9227 42.8293 82.9847 43.2619Z" fill="#FD7676"/>
<path d="M91.5952 55.6435C91.2599 54.553 90.8263 52.9644 89.5364 52.6809C89.5291 52.6809 89.5218 52.6772 89.5145 52.6772C88.804 51.7612 87.9039 50.9869 86.8764 50.4307C86.4391 50.1944 85.8889 50.3253 85.6302 50.7579C85.0144 51.7793 84.2528 52.6845 83.433 53.5497C82.6532 54.3712 81.8552 55.3672 80.8568 55.9271C79.913 56.4542 78.696 56.8831 77.6138 56.9703C77.1911 57.0031 76.7757 56.9849 76.3639 56.9376C76.3311 56.9013 76.2947 56.8649 76.2546 56.8322C75.4165 56.1343 74.3124 55.8471 73.2594 56.2179C73.1464 56.2579 73.0407 56.316 72.9496 56.3887C72.8549 56.0397 72.578 55.7562 72.1079 55.7671C72.0678 55.7671 72.0314 55.7707 71.9913 55.7707C71.7909 55.5635 71.5978 55.3418 71.4083 55.131C71.2553 54.9601 71.0403 54.8801 70.8144 54.8729C70.3443 54.1785 69.2439 54.433 69.1528 55.36C69.0179 56.7159 67.8592 57.8064 66.9592 58.7189C65.8697 59.8276 64.6927 60.78 63.3409 61.547C63.2789 61.5506 63.2133 61.5615 63.1441 61.5797C57.1573 63.2265 49.8987 60.3365 47.7015 54.3058C47.0201 52.4337 46.8343 50.4053 46.0217 48.5804C46.1638 48.4314 46.2549 48.2351 46.2549 47.9915C46.2549 47.8134 46.1857 47.6207 46.0727 47.4608C46.2148 46.5374 46.3569 45.6141 46.499 44.6944C46.6703 43.5712 46.8452 42.4879 47.2205 41.4119C47.8946 39.4816 48.7692 37.6858 49.9607 36.0355C50.0226 35.9955 50.0809 35.9446 50.1356 35.8828C50.5182 35.4502 50.9044 35.0213 51.3198 34.625C51.4364 34.6141 51.553 34.5778 51.666 34.5123C51.8956 34.3815 52.1178 34.2361 52.3328 34.0834C52.5915 33.9671 52.843 33.8362 53.0871 33.6944C53.415 33.8544 53.8304 33.8144 54.1365 33.5345C54.8106 32.9274 55.8601 32.9274 56.7164 32.8947C57.9225 32.8474 59.1541 32.8438 60.3456 33.0692C61.4388 33.2727 62.47 33.6508 63.421 34.2288C64.2154 34.7123 65.1409 35.363 65.498 36.2645C65.8587 37.1733 67.0649 37.0279 67.2543 36.2499C67.2798 36.1954 67.2981 36.1409 67.3126 36.0791C67.6515 34.476 68.6754 33.171 70.1475 32.4512C70.7889 32.1386 70.6868 31.2225 70.1475 30.8808C69.1673 30.2628 68.1143 29.7721 67.0175 29.3977C66.8572 29.3431 66.7114 29.3431 66.5729 29.3759C66.2814 29.1796 65.9863 28.9978 65.662 28.8488C64.5433 28.3253 63.3299 28.0636 62.0947 28.1072C61.989 28.1108 61.887 28.1363 61.7922 28.1763C60.2035 27.5946 58.5383 27.2275 56.8403 27.1693C56.1297 27.1439 55.4264 27.1911 54.7232 27.282C55.2005 27.0348 55.5613 26.6568 55.6596 26.0606C55.7653 25.4281 55.707 24.7556 55.707 24.1158L55.718 21.7929C55.7252 20.3607 55.7289 18.9321 55.7362 17.4998C55.7362 17.209 55.6524 16.7546 55.7398 16.4783C55.7507 16.442 55.4811 16.6892 55.8127 16.3947C55.8892 16.3293 55.9621 16.2638 56.0386 16.1948C56.5342 15.7622 57.0224 15.3223 57.4998 14.8752C59.278 13.203 60.9359 11.3709 62.2404 9.29888C62.8927 8.26286 63.4647 7.15777 63.8801 6.00543C64.0878 5.43471 64.1826 4.78765 63.9239 4.21693C63.9093 4.09697 63.8692 3.97701 63.789 3.86432C63.4356 3.37721 62.8854 3.04278 62.2951 3.07186C60.5497 2.83194 58.7022 4.38778 57.5472 5.50378C56.7236 6.29988 55.8892 7.11052 55.1641 8.00113C54.4135 8.91719 53.7466 9.89868 53.6738 11.1056C53.1563 12.1452 52.7482 13.2503 52.413 14.3699C52.0559 14.9915 51.8008 15.6713 51.6077 16.3729C51.2725 17.5943 51.0247 18.8448 50.868 20.0989C50.5729 22.4763 51.0976 24.8137 51.1049 27.1839C49.6874 27.6419 48.259 28.0854 46.8088 28.4234C46.6521 28.4453 46.4954 28.4671 46.3387 28.4998C46.1638 28.5361 45.9926 28.5834 45.8249 28.6416C45.1654 28.7688 44.5022 28.8706 43.8318 28.9287C43.2014 28.9833 42.5346 28.9542 41.9005 29.0596C40.6361 26.7913 39.7324 24.3484 38.6684 21.9819C38.0927 20.6987 37.4623 19.4337 36.6971 18.2486C36.6242 18.136 36.5514 18.0269 36.4749 17.9178C37.0615 17.3289 37.5644 16.6201 38.0344 16.0021C38.9308 14.8207 39.7215 13.5593 40.392 12.2397C41.0952 10.862 41.6236 9.40794 42.3086 8.02294C42.9755 6.66339 43.6423 5.25659 43.5658 3.70437C43.5621 3.60986 43.5403 3.52262 43.5111 3.44264C43.5585 2.90828 43.4819 2.38481 43.2269 1.88316C43.2159 1.86135 43.205 1.83954 43.1941 1.81773C43.1941 1.81409 43.1904 1.81409 43.1904 1.81046C43.1504 1.73412 43.1103 1.65778 43.0629 1.58508C43.0593 1.58508 43.0593 1.58871 43.0556 1.58871C43.0119 1.52692 42.9682 1.46148 42.9208 1.39968C42.6767 1.08343 42.3269 1.05071 42.0171 1.1743C41.5398 1.07979 40.9969 1.1743 40.5632 1.2979C39.2004 1.68686 38.1619 2.6938 37.2729 3.748C36.3728 4.8131 35.5675 5.95454 34.8861 7.16868C34.212 8.37192 33.4286 9.73147 33.5889 11.1492C32.8711 13.0322 32.5249 15.0533 32.5978 17.0745C32.5978 17.0963 32.6051 17.1145 32.6051 17.1326C32.6051 17.4126 32.6124 17.6961 32.6233 17.976C32.6743 19.1611 32.8092 20.3425 33.0169 21.5094C33.2209 22.6508 33.5015 23.7814 33.8622 24.8864C34.0335 25.4135 34.2375 26.1042 34.5983 26.6059C34.8461 27.5219 35.1376 28.4453 35.5675 29.2886C35.8044 29.7503 36.136 30.1465 36.4238 30.5755C36.5623 30.7827 36.719 31.019 36.7919 31.2661C36.6133 31.3025 36.4384 31.3388 36.2708 31.3752C35.4546 31.5497 34.6602 31.8078 33.8914 32.1277C32.2589 32.8038 30.7723 33.7235 29.4022 34.8359C26.7094 37.0279 24.6579 39.936 22.9708 42.9386C22.4206 43.9165 21.987 44.9125 21.7538 46.014C21.6481 46.5047 21.5497 46.9955 21.455 47.4899C21.1963 47.9043 21.0432 48.3587 21.0104 48.8349C20.7663 48.8785 20.5367 49.0093 20.38 49.2384C20.2962 49.3656 20.2124 49.4892 20.125 49.6164C19.848 50.0272 19.9719 50.4271 20.2525 50.6779C20.2561 50.8487 20.2561 51.0196 20.2598 51.1868C20.2634 51.7975 20.8355 52.1901 21.4112 52.0629C24.5267 51.3686 27.6823 50.8851 30.8415 50.4307C32.3792 50.209 33.9169 49.9872 35.4582 49.7691C36.2125 49.66 36.9668 49.5474 37.7283 49.5146C38.4935 49.4819 39.2624 49.5328 40.0276 49.5001C41.4378 49.4419 42.8479 49.242 44.2544 49.0566C44.2727 49.122 44.2945 49.1838 44.3237 49.2456C44.5569 49.7182 44.5605 50.2598 44.5605 50.7724C44.5605 51.165 44.5496 51.554 44.535 51.9466C44.4111 51.9865 44.2982 52.0556 44.2107 52.161C43.8172 52.6372 43.2087 52.5827 42.6366 52.6191C41.8641 52.6663 41.0916 52.7172 40.3191 52.7717C38.7741 52.8808 37.2291 53.0117 35.6878 53.1607C32.5759 53.4588 29.4167 53.7387 26.345 54.3312C24.6688 54.6548 23.0619 55.28 21.3675 55.5199C20.8683 55.589 20.6278 56.2106 20.7298 56.6395C21.1598 58.399 21.4768 60.242 22.1109 61.9432C22.6793 63.47 23.5502 64.8368 24.6215 66.0619C25.332 66.8725 26.1227 67.5886 26.9608 68.2539C27.358 68.7846 27.8207 69.2681 28.3272 69.6898C29.0888 70.3259 29.9196 70.8676 30.7759 71.3656C31.1585 71.5873 31.5411 71.8127 31.931 72.0235C38.9927 74.8226 46.3569 75.4842 54.2604 74.9753C54.7159 74.7245 55.1969 74.5572 55.7289 74.4627C55.9694 74.4191 56.2026 74.3718 56.4321 74.31C56.4467 74.3319 56.4649 74.3537 56.4795 74.3718C56.9095 74.8771 57.4706 75.2516 58.0828 75.5496C58.6184 76.0513 59.2998 76.3857 60.014 76.5857C60.342 76.7565 60.6809 76.9165 61.027 77.0619C61.1363 77.1055 61.2529 77.1128 61.3695 77.0946C61.4716 77.1927 61.5955 77.2691 61.7449 77.3018C62.0473 77.3672 62.3461 77.4036 62.6449 77.4326C63.6542 77.5599 64.6745 77.6144 65.6875 77.549C65.8332 77.5381 65.9753 77.5235 66.1175 77.5017C67.7535 77.8689 69.601 77.3454 70.7378 76.1022C70.8362 76.0549 70.931 76.0004 71.0221 75.9422C71.9112 75.3606 72.4759 74.47 72.946 73.543C73.2521 73.4849 73.5072 73.2449 73.6165 72.9578C75.023 73.1359 76.4332 73.0741 77.8324 72.8705C79.0859 72.8051 80.4304 72.7797 81.5928 72.3253C81.8078 72.2416 81.99 72.0999 82.1102 71.9218C83.7099 71.4746 85.295 70.9112 86.6906 70.0387C90.3052 67.7849 92.3203 63.5936 92.2 59.3914C92.1709 58.1154 91.9632 56.8468 91.5952 55.6435Z" fill="#A1D4E5"/>
<path d="M37.4076 72.9099C37.4222 72.9171 37.4404 72.928 37.455 72.9389C37.4842 72.9535 37.506 72.968 37.5206 72.9789C37.5352 73.0407 37.5133 73.1207 37.5097 73.1825C37.4951 73.4152 37.4659 73.6405 37.4914 73.8768C37.4987 73.9532 37.5206 74.0259 37.5461 74.0949C36.7044 75.3963 36.0521 78.1154 36.3145 79.6494C36.5076 82.4013 37.5024 83.9971 39.4956 85.9056C38.7449 86.2036 39.7506 87.0034 39.4591 87.5632C39.0219 88.4029 38.7522 89.3044 38.5919 90.235C38.3004 91.929 38.1728 93.6557 38.0125 95.3715C37.0433 95.3315 36.0704 95.3097 35.1011 95.3679C33.8513 95.4442 32.6962 95.7096 31.4973 96.0549C30.9544 96.2112 30.0179 94.6663 29.7884 94.5645C28.0503 93.7793 26.2101 93.6557 24.2898 93.4921C23.3679 93.4122 22.4606 93.5357 21.5679 93.772C20.8938 93.9502 20.431 93.9683 19.7241 93.9393C18.4451 90.584 16.5139 87.1524 13.085 85.7274C14.6446 82.6993 14.3021 79.1623 13.1871 75.9925C14.1745 76.0288 15.173 75.9852 16.1167 75.6944C17.3957 75.3018 18.4998 74.4475 19.0609 73.2116C19.6257 71.9756 19.6476 70.5834 19.0682 69.3474C18.5107 68.1587 17.4103 67.2572 16.1531 66.9082C16.0001 66.8646 15.8434 66.8755 15.7013 66.9228C14.6446 66.5302 13.5114 66.3557 12.3818 66.4429C10.2246 66.6101 8.08569 67.6462 6.71197 69.351C6.50427 69.6091 5.70991 69.3074 5.61153 69.5837C5.55323 69.6164 5.49493 69.6528 5.44027 69.6964C4.24873 70.6415 3.84427 72.1865 3.10457 73.5351C2.4086 74.8038 1.87295 76.1888 1.4612 77.5774C0.630405 80.391 0.411774 83.4373 1.28629 86.2654C1.28994 86.2727 1.29358 86.2763 1.29358 86.2836C1.21342 89.5625 1.85473 92.8196 3.19567 95.8441C3.21388 95.8877 3.23939 95.9241 3.26125 95.9604C3.31956 96.1822 3.3815 96.4003 3.45438 96.6147C4.05561 98.4287 4.96293 100.119 5.93583 101.755C6.93424 103.431 7.99824 105.07 9.12054 106.666C9.39747 107.059 9.67805 107.455 9.96227 107.84C10.2392 108.215 10.5234 108.603 10.9315 108.847C11.1902 109.003 11.489 109.087 11.7878 109.102C14.3021 111.922 17.4431 114.158 20.8683 115.75C21.0322 115.827 21.1999 115.899 21.3675 115.972C22.6137 116.772 23.9765 117.364 25.3866 117.873C27.4345 118.611 29.5406 119.164 31.7014 119.422C32.882 119.563 34.0772 119.603 35.2651 119.509C35.6695 119.476 36.1214 119.451 36.5696 119.374C36.6206 119.374 36.6679 119.378 36.719 119.378C39.2551 119.345 41.824 118.589 43.5402 116.688C44.2034 116.277 44.8411 115.823 45.4496 115.332C46.295 114.649 47.2897 113.794 47.7561 112.751C47.7598 112.751 47.7634 112.751 47.7671 112.751C48.4339 112.795 48.7837 111.893 48.4011 111.432C48.4084 111.428 48.412 111.424 48.4193 111.421C49.9388 110.49 50.653 108.963 50.8935 107.244C51.0137 106.39 51.1158 105.546 51.4036 104.725C51.6805 103.932 52.0923 103.194 52.5296 102.482C52.9741 101.758 53.4551 101.064 53.9215 100.355C54.1802 99.9591 54.3733 99.5519 54.2932 99.0685C54.2167 98.6177 53.9907 98.1778 53.8559 97.738C53.2547 95.7859 53.1308 93.6993 53.5098 91.6891C53.5134 91.6745 53.5097 91.66 53.5134 91.6455C54.0855 91.5001 54.4061 90.5804 53.7502 90.1441C52.5514 89.3371 51.7206 88.0648 51.3562 86.6689C51.1303 85.8001 51.0866 84.8877 51.1959 84.0007C51.3016 83.1428 51.6077 82.3649 51.87 81.547C52.0048 81.1253 52.0559 80.7145 52.0413 80.311C52.1834 80.2165 52.3109 80.0784 52.4202 79.8857C52.5733 79.6167 52.617 79.3186 52.7992 79.0642C52.8721 78.9624 52.9559 78.8788 53.0433 78.8025C53.3895 79.0533 53.9251 79.0715 54.2276 78.6098C54.9017 77.5774 55.6013 76.465 56.6325 75.7489C56.7491 75.6653 56.3483 73.5933 56.4685 73.5278C49.5453 73.9713 43.6058 75.3854 37.4076 72.9099Z" fill="#A1D4E5"/>
<path d="M75.0594 96.1532C74.9792 94.5828 74.7314 93.0197 74.3233 91.5038C74.316 91.4784 74.3051 91.4566 74.2978 91.4348C74.3233 91.3148 74.3197 91.1912 74.2796 91.0749C74.0464 90.3951 73.6529 89.8498 73.1828 89.3191C72.986 89.0974 72.782 88.7884 72.5524 88.603C72.567 88.5485 72.5816 88.4939 72.5962 88.4394C72.6435 88.2467 72.6836 88.0541 72.7164 87.8614C73.0043 86.251 72.9496 84.6116 72.5451 83.0267C72.4978 82.8413 72.3812 82.6886 72.2318 82.5868C72.0642 81.7871 71.6925 81.0455 71.1751 80.4166C71.1386 80.3257 71.0985 80.2312 71.0621 80.1367C70.8799 79.6932 70.6759 79.2861 70.4062 78.8935C70.275 78.7008 70.1402 78.5118 70.0163 78.3155C69.9434 78.1992 69.8742 78.0792 69.8013 77.9592C69.794 77.9447 69.754 77.872 69.7175 77.8102C69.6702 77.523 69.4042 77.2177 69.1418 77.1704C69.1345 77.1704 69.1272 77.1668 69.1199 77.1668C68.7373 77.0977 68.2964 77.2613 68.1653 77.6684C67.0794 77.3231 65.9206 77.3958 64.7911 77.2431C63.5157 77.0686 60.6772 77.0214 59.4783 76.5343C58.9391 76.3161 58.4216 76.0362 57.937 75.7127C57.4378 75.3819 56.3847 74.833 56.3847 74.833C56.3847 74.833 55.4118 75.0657 54.592 75.9744C53.6446 77.0286 53.098 78.3446 52.6279 79.675C52.0923 80.5911 51.7899 81.6198 51.5894 82.6631C51.3817 83.75 51.1668 84.8915 51.2506 86.0038C51.338 87.1307 51.7388 88.1268 52.4895 88.9592C52.8502 89.3591 53.2729 89.6935 53.6956 90.0207C53.8778 90.1588 54.0928 90.2933 54.2822 90.446C53.2182 92.8452 53.2146 95.6116 54.3005 97.989C54.2786 98.0617 54.2604 98.138 54.2531 98.218C54.1693 99.1486 53.6373 99.9774 53.1599 100.748C52.5915 101.66 52.0741 102.569 51.6696 103.573C51.2761 104.55 50.9882 105.568 50.8279 106.615C50.7878 106.884 50.7259 107.19 50.6931 107.491C50.6056 107.553 50.5364 107.637 50.4854 107.738C49.2428 110.316 47.9748 113.042 45.9415 115.074C45.005 116.012 43.9483 116.801 42.8552 117.539C42.2867 117.921 41.7074 118.342 41.0733 118.611C40.4685 118.866 39.8089 118.804 39.204 119.037C38.3915 119.349 38.4789 120.607 39.4154 120.632C39.481 120.632 39.5611 120.632 39.6267 120.661C39.7761 120.727 39.9365 120.76 40.0859 120.752C41.8968 121.094 43.7333 121.287 45.5771 121.287C46.4225 121.287 47.2679 121.25 48.1169 121.21C48.1424 121.218 48.1642 121.229 48.1934 121.232C48.2663 121.247 48.3355 121.25 48.4047 121.258V121.261C48.4266 121.265 48.4485 121.261 48.4703 121.265C48.5541 121.272 48.6416 121.279 48.7254 121.279C49.5708 121.33 50.4125 121.261 51.2433 121.079C51.3125 121.065 51.3708 121.04 51.4255 121.014C52.515 121.018 53.6081 120.956 54.6903 120.818C55.4009 120.727 56.1114 120.625 56.7965 120.418C57.4706 120.214 58.0973 119.887 58.7314 119.582C59.3144 119.302 59.9265 119.16 60.5496 119.004C61.2274 118.833 61.8723 118.586 62.4736 118.222C63.5813 117.553 64.6745 116.688 65.549 115.718C66.0373 115.176 66.4782 114.569 66.7915 113.904C66.9555 113.555 67.1013 113.188 67.1996 112.813C67.2397 112.66 67.2725 112.504 67.298 112.344C67.309 112.279 67.3308 112.202 67.3417 112.13C67.4656 112.072 67.5822 111.981 67.666 111.872C69.0143 111.305 70.1985 110.436 71.2552 109.403C71.831 108.84 72.4249 108.24 72.8476 107.542C73.2848 106.819 73.5581 105.975 73.8715 105.187C73.8934 105.157 73.9189 105.132 73.9371 105.099C74.2286 104.627 74.3124 104.1 74.3671 103.551C74.4181 103.009 74.4654 102.464 74.4618 101.922C74.4545 101.093 74.316 100.239 73.9444 99.4939C74.2468 99.1631 74.5274 98.8105 74.7242 98.407C75.0776 97.6872 75.0995 96.9384 75.0594 96.1532Z" fill="#D6EF8A"/>
<path d="M58.7933 62.6229C50.4708 62.6229 46.5719 55.4071 45.7629 49.002C44.9066 42.2333 48.0841 34.2759 54.8798 32.6801C58.1447 31.9131 61.3367 32.3856 63.8764 34.0033C66.3324 35.57 68.0304 38.1074 68.6535 41.15C68.7337 41.5426 68.4786 41.9279 68.0851 42.0079C67.6915 42.0879 67.3053 41.8334 67.2251 41.4408C66.6822 38.7908 65.2137 36.5843 63.093 35.2283C60.8921 33.8215 58.0937 33.4217 55.2187 34.0978C50.5072 35.2029 46.2257 41.0119 47.2132 48.8202C48.4375 58.497 54.5264 61.5251 59.8099 61.1325C66.2668 60.6526 68.8503 54.8873 68.7883 52.6735C68.7774 52.2736 69.0944 51.9392 69.4989 51.9283C69.5062 51.9283 69.5135 51.9283 69.5207 51.9283C69.9143 51.9283 70.2386 52.2409 70.2495 52.6371C70.3224 55.3344 67.4547 62.0231 59.9229 62.5865C59.533 62.6083 59.1577 62.6229 58.7933 62.6229Z" fill="black"/>
<path d="M76.4586 57.3805C72.3775 57.3805 70.0126 55.2685 68.9085 53.9053C68.6571 53.5927 68.7045 53.1346 69.0179 52.8838C69.3312 52.633 69.7904 52.6802 70.0418 52.9929C71.0948 54.2942 73.5143 56.3954 77.9088 55.8319C80.0988 55.5484 81.9826 54.4178 83.3636 52.5603C85.3532 49.8775 86.0783 45.8825 85.3532 41.6039C84.69 37.7107 82.9847 34.6208 80.547 32.9013C78.725 31.6181 76.597 31.1419 74.3852 31.5273C68.6863 32.5197 67.5713 37.4162 67.4656 37.9688C67.3891 38.3614 67.0065 38.6194 66.6093 38.5431C66.2157 38.4668 65.957 38.0851 66.0336 37.6888C66.6093 34.7335 69.0798 30.9711 74.1338 30.0914C76.7355 29.6406 79.2425 30.1968 81.385 31.709C84.1434 33.6538 86.0601 37.0781 86.7888 41.3567C87.5941 46.0933 86.7925 50.3755 84.5333 53.4182C82.9118 55.6029 80.6854 56.9334 78.0947 57.2678C77.5226 57.3478 76.976 57.3805 76.4586 57.3805Z" fill="black"/>
<path d="M57.6673 37.1736C61.9197 36.7265 65.7275 41.8993 66.3579 46.3596C67.0247 51.0599 65.9826 57.0761 61.2018 58.0176C55.1057 59.2208 51.8554 53.7753 51.1849 48.8933C50.5145 44.0149 52.6571 37.7007 57.6673 37.1736Z" fill="white"/>
<path d="M59.5185 58.915C57.8714 58.915 56.3665 58.4352 55.0293 57.4828C52.6717 55.8033 50.9627 52.6298 50.4635 48.9947C49.9789 45.4686 50.8971 41.6262 52.7956 39.2088C54.0563 37.6021 55.7143 36.6497 57.5909 36.4534C62.1602 35.9735 66.3689 41.2336 67.0794 46.2574C67.462 48.9547 67.2543 51.7174 66.511 53.8367C65.5563 56.5594 63.7708 58.2534 61.344 58.7296C60.7173 58.8532 60.1088 58.915 59.5185 58.915ZM57.7439 37.8965C56.2499 38.0529 54.9709 38.7944 53.9434 40.1031C52.2745 42.2297 51.4729 45.6394 51.9065 48.7947C52.351 52.0409 53.8341 54.8473 55.8746 56.2977C57.354 57.3519 59.0994 57.69 61.0598 57.301C63.268 56.8648 66.7187 54.0912 65.6365 46.4573C64.8968 41.2482 60.7902 37.573 57.7439 37.8965Z" fill="black"/>
<path d="M75.2342 34.5773C79.4101 33.6286 82.143 38.2561 82.8244 42.2512C83.5276 46.3807 83.1851 52.1061 78.6813 52.8876C75.0557 53.5165 71.6451 49.4379 70.9236 44.5595C70.3187 40.4699 71.4009 35.4461 75.2342 34.5773Z" fill="white"/>
<path d="M77.9344 53.68C76.7683 53.68 75.5987 53.2765 74.5128 52.495C72.3338 50.9209 70.6795 47.9219 70.1985 44.6685C69.5098 40.0082 70.9637 34.8026 75.0703 33.8684C76.5862 33.5231 78.0182 33.7921 79.33 34.6681C81.775 36.3003 83.1086 39.5938 83.5386 42.1311C84.3912 47.1331 83.5932 52.7712 78.8016 53.6073C78.5137 53.6546 78.2259 53.68 77.9344 53.68ZM76.3129 35.1807C76.0104 35.1807 75.7043 35.2171 75.3946 35.2861C72.1516 36.0204 71.0512 40.4553 71.6415 44.454C72.0678 47.3367 73.4962 49.9649 75.3655 51.3135C76.3967 52.0551 77.4971 52.3532 78.5502 52.1714C83.3746 51.3317 82.3543 43.8615 82.0993 42.3747C81.6219 39.5611 80.2154 37.0092 78.5174 35.8787C77.8287 35.4134 77.089 35.1807 76.3129 35.1807Z" fill="black"/>
<path d="M75.7663 73.9831C75.4237 73.9831 75.0776 73.9758 74.7278 73.9649C66.0336 73.6486 57.609 69.9117 56.3884 67.6397C56.1989 67.2871 56.3301 66.8436 56.6871 66.6546C57.0406 66.4656 57.4851 66.5964 57.6746 66.9527C58.4544 68.4067 66.121 72.1982 74.7824 72.5108C81.6911 72.7544 87.5031 70.4024 89.9517 66.3529C93.3223 60.7729 91.5477 56.2944 90.6295 54.6258C89.3651 52.3284 87.299 50.758 85.4953 50.7181C85.0945 50.7071 84.7738 50.3763 84.7848 49.9765C84.7957 49.5766 85.1309 49.2458 85.5317 49.2676C87.8747 49.3221 90.3817 51.1506 91.9121 53.9279C94.113 57.9193 93.8543 62.7213 91.2052 67.1053C88.6035 71.3912 82.7515 73.9831 75.7663 73.9831Z" fill="black"/>
<path d="M55.2843 70.1218C55.2114 70.1218 55.1349 70.1109 55.0584 70.0854C54.6794 69.9618 54.4681 69.5583 54.5883 69.1766C54.6211 69.0785 55.3973 66.7265 58.4654 65.5378C58.8407 65.3924 59.2634 65.5778 59.4091 65.9522C59.5549 66.3267 59.369 66.7484 58.9937 66.8938C56.6034 67.8207 56.0021 69.5511 55.9766 69.6238C55.8746 69.9291 55.5867 70.1218 55.2843 70.1218Z" fill="black"/>
<path d="M85.601 61.4197C85.4516 61.4197 85.3022 61.3725 85.1711 61.278C84.8868 61.0708 83.9504 60.7363 83.371 60.5691C82.9848 60.4564 82.7661 60.0493 82.8791 59.664C82.9921 59.2786 83.4002 59.0605 83.7828 59.1732C84.056 59.2532 85.4444 59.6749 86.031 60.1038C86.3553 60.3401 86.4245 60.7981 86.1877 61.1217C86.0456 61.318 85.8233 61.4197 85.601 61.4197Z" fill="black"/>
<path d="M88.5452 59.7695C88.1516 59.7695 87.8273 59.4459 87.8164 59.0497C87.8091 58.7553 87.9622 58.0464 88.1006 57.741C88.2646 57.3739 88.6982 57.2139 89.0626 57.3775C89.4306 57.5411 89.5946 57.9737 89.427 58.3372C89.3796 58.4499 89.2776 58.897 89.2739 59.0315C89.2849 59.4314 88.9642 59.7586 88.5634 59.7658C88.5561 59.7695 88.5525 59.7695 88.5452 59.7695Z" fill="black"/>
<path d="M64.7546 78.2612C64.751 78.2612 64.751 78.2612 64.751 78.2612C61.8432 78.2612 57.1317 76.7562 55.594 75.1313C54.8252 75.3421 53.9506 75.5711 53.4223 75.6802C53.0288 75.7602 52.6425 75.5057 52.5623 75.1131C52.4822 74.7205 52.7372 74.3352 53.1308 74.2552C53.5972 74.1607 54.5009 73.9281 55.6778 73.6009C56.0131 73.51 56.3665 73.6627 56.5232 73.9717C57.026 74.9568 61.559 76.8071 64.7473 76.8071H64.751C69.477 76.8071 72.1079 75.5312 72.567 73.0193C72.6399 72.623 73.0188 72.3613 73.416 72.434C73.8132 72.5067 74.0755 72.8848 74.0027 73.281C73.3978 76.5854 70.286 78.2612 64.7546 78.2612Z" fill="black"/>
<path d="M71.1751 32.4039C70.9747 32.4039 70.7779 32.3239 70.6321 32.1639C68.8066 30.1392 63.2934 28.3761 57.8095 28.0708C51.6842 27.7254 44.6115 29.1177 42.356 29.9029C41.977 30.0337 41.5616 29.8338 41.4268 29.4558C41.2956 29.0777 41.496 28.6633 41.875 28.5288C44.2981 27.6818 51.4838 26.2568 57.8896 26.6167C63.8145 26.9511 69.6301 28.8741 71.7143 31.1897C71.984 31.4878 71.9585 31.9495 71.6597 32.2185C71.5212 32.3421 71.3463 32.4039 71.1751 32.4039Z" fill="black"/>
<path d="M39.9874 74.9316C36.3108 74.9316 29.9596 72.6015 25.8311 68.8572C21.9869 65.3748 20.0119 60.9144 19.6111 54.8183C18.8787 43.6874 25.3064 33.8761 35.6075 30.4045C35.9901 30.2737 36.4019 30.4809 36.5331 30.8589C36.6606 31.2406 36.4565 31.6514 36.0776 31.7786C26.4105 35.0357 20.3799 44.2545 21.0686 54.7165C21.4439 60.4128 23.2695 64.5605 26.8149 67.774C29.6863 70.3767 36.4784 73.8774 40.5996 73.4375C41.0004 73.4012 41.3575 73.6847 41.4012 74.0846C41.4449 74.4845 41.1534 74.8407 40.7526 74.8843C40.5121 74.9207 40.257 74.9316 39.9874 74.9316Z" fill="black"/>
<path d="M64.9295 46.548C65.1846 48.7146 64.6234 50.6048 62.8161 50.8629C61.3148 51.0774 59.8318 49.816 59.5111 47.4277C59.2196 45.2539 59.9338 43.4218 61.814 43.1855C63.3189 42.9928 64.6672 44.3196 64.9295 46.548Z" fill="#282E36"/>
<path d="M62.4954 51.6084C61.8176 51.6084 61.1472 51.3794 60.5751 50.9468C59.6241 50.2307 58.9937 49.0129 58.7933 47.5188C58.5819 45.9521 58.8552 44.5816 59.5657 43.6656C60.0868 42.9894 60.8374 42.5714 61.7265 42.4587C62.5318 42.3569 63.3116 42.5786 63.9784 43.0985C64.8894 43.811 65.487 45.0033 65.6582 46.4574C65.9971 49.3255 64.9513 51.2885 62.9254 51.5757C62.7796 51.6011 62.6375 51.6084 62.4954 51.6084ZM62.0982 43.8909C62.0326 43.8909 61.9707 43.8946 61.9051 43.9018C61.395 43.9673 61.0051 44.1781 60.7172 44.5525C60.2544 45.1523 60.0795 46.1629 60.2362 47.3262C60.3856 48.4313 60.8156 49.3073 61.4533 49.7908C61.8395 50.0816 62.2768 50.2052 62.714 50.1398C64.4048 49.8999 64.321 47.6061 64.2044 46.6318C64.0805 45.5813 63.6687 44.7088 63.0748 44.2472C62.7723 44.0109 62.4444 43.8909 62.0982 43.8909Z" fill="black"/>
<path d="M57.609 84.1285C57.405 85.3172 56.6726 86.2623 55.3608 86.2332C54.3041 86.2078 53.6591 85.1718 53.8231 83.8486C53.9761 82.6417 54.7013 81.4894 56.0203 81.5802C56.9932 81.6493 57.8823 82.5363 57.609 84.1285Z" fill="#FD7676"/>
<path d="M55.4191 86.9601C55.3936 86.9601 55.3681 86.9601 55.3462 86.9601C54.7159 86.9455 54.1401 86.6765 53.7284 86.2003C53.211 85.6005 52.9814 84.7099 53.1016 83.7575C53.3348 81.9145 54.53 80.7476 56.0714 80.8566C56.7528 80.9039 57.3868 81.242 57.8095 81.78C58.1629 82.2271 58.5382 83.0232 58.3269 84.2555C58.039 85.9277 56.9277 86.9601 55.4191 86.9601ZM55.8782 82.2998C54.7851 82.2998 54.5665 83.7648 54.5446 83.9356C54.4754 84.4736 54.5847 84.9644 54.8288 85.2479C54.9746 85.4151 55.1531 85.4987 55.3754 85.506C55.39 85.506 55.4009 85.506 55.4155 85.506C56.4722 85.506 56.7892 84.5681 56.8876 84.0047C56.9823 83.4449 56.9058 82.9832 56.6617 82.6742C56.4904 82.4561 56.2426 82.3253 55.9657 82.3071C55.9402 82.3034 55.9074 82.2998 55.8782 82.2998Z" fill="black"/>
<path d="M60.5022 94.736C60.852 95.892 60.6225 97.0625 59.4382 97.6223C58.4835 98.0731 57.4378 97.4333 56.9932 96.1755C56.5887 95.0304 56.7199 93.6709 57.9406 93.1656C58.837 92.7948 60.0322 93.191 60.5022 94.736Z" fill="#FD7676"/>
<path d="M58.8115 98.4909C58.5273 98.4909 58.2394 98.4327 57.9661 98.3201C57.2337 98.0147 56.6288 97.3204 56.3082 96.4152C55.6887 94.6631 56.2317 93.0854 57.6637 92.4929C58.2941 92.2312 59.0119 92.2493 59.6314 92.5402C60.1488 92.7837 60.8411 93.3253 61.2055 94.5213C61.7084 96.1789 61.1545 97.6148 59.7553 98.2764C59.4492 98.4218 59.1285 98.4909 58.8115 98.4909ZM58.5892 93.7616C58.4653 93.7616 58.3378 93.787 58.2176 93.8379C57.1317 94.2887 57.62 95.7645 57.6783 95.9318C57.8605 96.4407 58.1738 96.8333 58.5236 96.9787C58.7277 97.0623 58.9245 97.0586 59.1249 96.9641C60.1087 96.4988 59.9739 95.4992 59.8026 94.9466C59.6387 94.4014 59.3617 94.0269 59.001 93.8561C58.8735 93.7943 58.7313 93.7616 58.5892 93.7616Z" fill="black"/>
<path d="M57.1681 107.768C56.6544 108.859 55.4373 109.48 54.151 109.033C53.1526 108.688 52.9996 107.554 53.4514 106.299C53.8632 105.158 54.8288 104.187 56.0932 104.565C57.026 104.845 57.9916 106.023 57.1681 107.768Z" fill="#FD7676"/>
<path d="M54.9891 109.905C54.632 109.905 54.2712 109.847 53.9105 109.72C53.3676 109.531 52.9558 109.167 52.7153 108.666C52.3837 107.968 52.3983 107.066 52.7663 106.052C53.3967 104.303 54.8178 103.427 56.3009 103.871C57.026 104.089 57.6491 104.641 57.9661 105.35C58.2212 105.921 58.4034 106.855 57.8276 108.08C57.2847 109.233 56.1843 109.905 54.9891 109.905ZM55.5539 105.212C54.6502 105.212 54.1911 106.394 54.1401 106.546C53.9178 107.157 53.8814 107.717 54.0344 108.04C54.1073 108.193 54.2166 108.288 54.3915 108.349C55.3936 108.698 56.1916 108.135 56.5086 107.462C56.7782 106.888 56.8219 106.365 56.6361 105.947C56.4612 105.561 56.1333 105.343 55.8818 105.267C55.7689 105.227 55.6559 105.212 55.5539 105.212Z" fill="black"/>
<path d="M81.8114 43.2692C82.0228 45.0505 81.56 46.61 80.0733 46.8208C78.838 46.9953 77.6174 45.9593 77.3514 43.989C77.1109 42.2005 77.6975 40.6919 79.2461 40.4956C80.4887 40.3429 81.5964 41.4335 81.8114 43.2692Z" fill="#282E36"/>
<path d="M79.8073 47.5655C79.2206 47.5655 78.6412 47.3692 78.1493 46.9948C77.3404 46.3841 76.8011 45.3517 76.6299 44.0867C76.4513 42.7598 76.6882 41.6002 77.2894 40.8187C77.7412 40.2334 78.3862 39.8735 79.155 39.7754C79.8546 39.6881 80.5288 39.8808 81.1045 40.3279C81.8806 40.935 82.3908 41.9492 82.5365 43.1815C82.8244 45.6207 81.9207 47.2892 80.1753 47.5401C80.0551 47.5582 79.9312 47.5655 79.8073 47.5655ZM79.4793 41.2113C79.432 41.2113 79.3846 41.2149 79.3372 41.2185C78.951 41.2658 78.6595 41.4257 78.4445 41.7056C78.0837 42.1709 77.9489 42.967 78.0728 43.894C78.1894 44.7701 78.5283 45.4608 79.0275 45.8352C79.319 46.0533 79.6433 46.1442 79.9713 46.1006C81.2539 45.9188 81.181 44.1194 81.0899 43.3524C80.9915 42.5199 80.6709 41.8365 80.2081 41.473C79.9822 41.2985 79.738 41.2113 79.4793 41.2113Z" fill="black"/>
<path d="M45.0888 89.3702C41.9187 89.3702 38.7996 87.28 36.872 83.8448C34.8496 80.2387 34.7476 76.1491 36.6133 73.4337C36.8392 73.1029 37.2947 73.0193 37.6263 73.2446C37.9578 73.47 38.0453 73.9244 37.8157 74.2552C36.2598 76.5199 36.391 80.0097 38.1437 83.1359C39.4955 85.5496 42.1045 88.0797 45.3658 87.9125C45.7666 87.9016 46.1091 88.2033 46.131 88.6032C46.1528 89.0031 45.8395 89.3448 45.4386 89.3666C45.322 89.3702 45.2054 89.3702 45.0888 89.3702Z" fill="black"/>
<path d="M15.5628 60.8823C15.5227 60.8823 15.4827 60.8823 15.4426 60.8787C14.6409 60.8132 14.0433 60.1116 14.1089 59.3119C14.4988 54.5244 19.0536 52.6741 22.8068 51.9616C25.6307 51.4272 38.2202 49.6969 43.4418 49.2207C44.0649 49.3697 44.4621 49.9114 44.5204 50.5294C44.5641 51.0056 44.5678 51.7508 43.8973 52.107C38.7376 52.576 26.1263 54.2918 23.3497 54.8189C19.2832 55.5895 17.2098 57.1344 17.0131 59.5482C16.9511 60.3043 16.3134 60.8823 15.5628 60.8823Z" fill="#FD7676"/>
<path d="M15.5628 61.6089C15.5045 61.6089 15.4462 61.6053 15.3843 61.6017C14.1818 61.5035 13.2818 60.4493 13.3802 59.2497C13.719 55.0984 16.9293 52.332 22.6683 51.2451C25.5032 50.7071 38.1364 48.9731 43.3726 48.4969C43.4527 48.4897 43.5329 48.4969 43.6094 48.5151C44.5094 48.7296 45.1508 49.4966 45.2419 50.4599C45.3475 51.5686 45.0086 52.3393 44.2362 52.7464C44.1523 52.79 44.0576 52.8191 43.9592 52.83C38.8287 53.2953 26.1554 55.0257 23.4809 55.531C19.7824 56.2325 17.9022 57.563 17.7345 59.6023C17.6471 60.7256 16.6924 61.6089 15.5628 61.6089ZM43.3653 49.9583C38.0781 50.449 25.7291 52.1466 22.9416 52.6737C19.4362 53.3353 15.1875 55.0366 14.834 59.366C14.8013 59.7659 15.1 60.1185 15.5009 60.1512C15.5191 60.1512 15.541 60.1549 15.5628 60.1549C15.9381 60.1549 16.2588 59.8604 16.2879 59.486C16.5139 56.7015 18.7803 54.9421 23.2149 54.1023C25.9514 53.5825 38.2676 51.8994 43.6531 51.3978C43.7479 51.3069 43.8426 51.1106 43.7953 50.5944C43.7697 50.3618 43.6459 50.0709 43.3653 49.9583Z" fill="black"/>
<path d="M38.3732 98.0217C38.0526 98.0217 37.7611 97.8108 37.67 97.491C36.5805 93.5868 36.9777 89.8244 38.8542 86.3128C39.0437 85.9566 39.4846 85.8221 39.8417 86.0148C40.1988 86.2038 40.33 86.6436 40.1405 86.9999C38.4461 90.1697 38.0854 93.5722 39.0729 97.102C39.1822 97.4873 38.9526 97.8908 38.5664 97.9962C38.5044 98.0108 38.4388 98.0217 38.3732 98.0217Z" fill="black"/>
<path d="M28.2543 99.3742C28.1559 99.3742 28.0539 99.3524 27.9592 99.3124C27.5911 99.1488 27.4235 98.7199 27.5875 98.3527C29.5952 93.827 36.0813 93.9142 37.8704 94.5613C38.2494 94.6994 38.4461 95.1138 38.3077 95.4919C38.1692 95.8699 37.7501 96.0626 37.3748 95.9281C35.9465 95.4119 30.5208 95.3428 28.9248 98.9416C28.8009 99.2106 28.5349 99.3742 28.2543 99.3742Z" fill="black"/>
<path d="M14.4587 98.4404C14.3239 98.4404 14.1891 98.404 14.0652 98.3241C13.7263 98.106 13.6279 97.6588 13.8465 97.3208C15.7923 94.2963 20.9739 92.3115 23.5792 92.3115C23.5902 92.3115 23.6011 92.3115 23.6157 92.3115C26.4469 92.3297 30.9398 93.5366 31.6576 95.6704C31.7851 96.0521 31.5811 96.4629 31.1985 96.5901C30.8159 96.7173 30.4041 96.5138 30.2766 96.1321C29.9304 95.107 26.7202 93.7874 23.6047 93.7656C23.5938 93.7656 23.5865 93.7656 23.5756 93.7656C21.3164 93.7656 16.6742 95.6159 15.0709 98.106C14.936 98.3241 14.6992 98.4404 14.4587 98.4404Z" fill="black"/>
<path d="M19.724 94.6631C19.3596 94.6631 19.0463 94.3941 19.0025 94.0233C18.8823 93.0418 18.4159 92.4674 17.8219 91.7368C17.4976 91.3369 17.1296 90.8825 16.798 90.3263C15.3113 87.8144 13.8392 87.1128 13.0522 86.7384C12.8918 86.6621 12.7534 86.5967 12.6477 86.5349C12.2979 86.3349 12.1776 85.8914 12.3781 85.5425C12.5785 85.1935 13.023 85.0735 13.3728 85.2735C13.4566 85.3207 13.5587 85.368 13.6825 85.4261C14.5461 85.8369 16.3425 86.6948 18.0551 89.5884C18.3284 90.0537 18.6491 90.4463 18.9552 90.8243C19.6038 91.6277 20.2779 92.4529 20.4491 93.8488C20.4965 94.2487 20.2123 94.6085 19.8151 94.6594C19.786 94.6594 19.7532 94.6631 19.724 94.6631Z" fill="black"/>
<path d="M9.44481 87.4145C8.86179 87.4145 8.33344 87.3237 7.90711 87.1419C7.53908 86.982 7.36782 86.5566 7.52451 86.1858C7.68484 85.8187 8.11116 85.6478 8.48284 85.8042C9.01484 86.0332 10.1371 86.0513 11.4416 85.5788C12.5712 85.168 13.0522 84.281 13.3474 82.0636C13.668 79.6753 13.2635 77.6941 12.2433 76.6254C11.9663 76.3346 11.9773 75.8729 12.2688 75.5966C12.5603 75.3204 13.0194 75.3313 13.3 75.6221C15.1183 77.5233 15.0162 80.595 14.794 82.2562C14.5462 84.1138 14.1016 86.1604 11.9408 86.9456C11.0845 87.2582 10.2173 87.4145 9.44481 87.4145Z" fill="black"/>
<path d="M47.133 122.017C43.4126 122.017 39.4846 121.534 36.646 120.033C36.2889 119.844 36.1541 119.404 36.3436 119.051C36.5331 118.695 36.974 118.56 37.3274 118.749C42.9389 121.716 53.6518 120.331 56.709 119.52C62.5683 117.968 65.8805 115.532 66.8352 112.079C66.9409 111.693 67.3417 111.461 67.7316 111.57C68.1178 111.675 68.3474 112.079 68.2417 112.464C67.1376 116.459 63.4865 119.226 57.0843 120.923C55.3134 121.392 51.3598 122.017 47.133 122.017Z" fill="black"/>
<path d="M72.1698 90.7482C71.9694 90.7482 71.769 90.6683 71.6269 90.5047C71.3573 90.2066 71.3828 89.7449 71.6852 89.4796C72.7929 88.4872 72.8148 85.6845 72.1407 83.6888C71.4994 81.7948 69.477 79.0321 68.4969 78.2288C68.1871 77.9743 68.1398 77.5163 68.3948 77.2073C68.6499 76.8983 69.109 76.851 69.4187 77.1055C70.6795 78.1379 72.8184 81.1623 73.5181 83.2235C74.1776 85.1719 74.5274 88.8907 72.6545 90.5629C72.5196 90.6864 72.3447 90.7482 72.1698 90.7482Z" fill="black"/>
<path d="M52.2635 90.0432C52.1032 90.0432 51.9429 89.9923 51.8117 89.8832C50.7659 89.0508 50.1866 87.8403 50.0845 86.2808C49.8586 82.762 52.2198 78.2653 53.9361 76.5022C54.2166 76.2151 54.6794 76.2078 54.9673 76.4877C55.2551 76.7676 55.2624 77.2293 54.9818 77.5164C53.415 79.1232 51.3489 83.2018 51.5384 86.1899C51.6113 87.3205 52.0085 88.182 52.719 88.7454C53.0324 88.9963 53.0871 89.4543 52.8356 89.7669C52.6935 89.9487 52.4785 90.0432 52.2635 90.0432Z" fill="black"/>
<path d="M56.3118 101.039C56.2098 101.039 56.1078 101.017 56.013 100.974C54.4753 100.279 53.3457 99.0725 52.7445 97.4803C51.9757 95.4409 52.1615 92.8963 53.2546 90.5008C53.4223 90.1372 53.8522 89.9737 54.2203 90.1409C54.5883 90.3081 54.7486 90.737 54.581 91.1042C53.6482 93.1508 53.4769 95.2919 54.1073 96.9713C54.5701 98.1964 55.4337 99.1234 56.6106 99.6541C56.9786 99.8177 57.139 100.25 56.975 100.617C56.8548 100.883 56.5888 101.039 56.3118 101.039Z" fill="black"/>
<path d="M50.7987 110.211C50.4999 110.211 50.2229 110.029 50.1136 109.735C48.9986 106.685 50.9444 103.162 52.77 100.432C52.9923 100.098 53.4441 100.007 53.7793 100.232C54.1146 100.454 54.2057 100.905 53.9834 101.239C52.4785 103.493 50.5837 106.772 51.4837 109.237C51.6222 109.615 51.4291 110.033 51.0501 110.171C50.9663 110.196 50.8825 110.211 50.7987 110.211Z" fill="black"/>
<path d="M65.8696 92.0711C63.1404 92.0711 59.7844 91.6203 57.4195 90.159C57.077 89.9482 56.9714 89.501 57.1827 89.1593C57.394 88.8176 57.8422 88.7122 58.1848 88.923C61.6318 91.0532 68.3547 90.7697 69.7175 90.199C70.0892 90.0427 70.5155 90.2172 70.6722 90.5879C70.8289 90.9587 70.654 91.384 70.2823 91.5404C69.63 91.813 67.9247 92.0711 65.8696 92.0711Z" fill="black"/>
<path d="M66.6203 102.624C63.6797 102.624 60.4913 102.119 58.6621 101.523C58.2795 101.399 58.0718 100.989 58.1957 100.607C58.3196 100.225 58.7314 100.014 59.114 100.142C63.902 101.701 70.0746 101.319 71.565 100.243C71.8893 100.007 72.3484 100.08 72.5816 100.407C72.8184 100.734 72.7456 101.189 72.4176 101.421C71.2042 102.294 68.9924 102.624 66.6203 102.624Z" fill="black"/>
<path d="M73.7986 100.483C73.6383 100.483 73.4779 100.432 73.3431 100.323C73.0297 100.072 72.9787 99.614 73.2301 99.3014C75.3873 96.6223 74.5419 91.7293 72.3374 89.6028C72.0495 89.3228 72.0386 88.8648 72.3192 88.574C72.5998 88.2868 73.0625 88.2796 73.3504 88.5558C76.3602 91.4567 76.8558 97.1203 74.367 100.21C74.2213 100.392 74.0099 100.483 73.7986 100.483Z" fill="black"/>
<path d="M60.5423 114.554C56.2243 114.554 51.7679 113.133 50.8679 111.752C50.6493 111.414 50.744 110.966 51.0829 110.745C51.4181 110.527 51.8699 110.621 52.0922 110.956C52.719 111.915 59.1722 113.973 64.0367 112.693C68.351 111.559 71.2515 109.709 72.6653 107.193C73.7913 105.187 73.9407 102.755 73.1026 99.9628C72.986 99.5775 73.2046 99.174 73.5908 99.0577C73.9771 98.9413 74.3816 99.1594 74.4982 99.5448C75.4528 102.729 75.267 105.539 73.937 107.902C72.3228 110.774 69.1162 112.86 64.4084 114.096C63.2023 114.42 61.8796 114.554 60.5423 114.554Z" fill="black"/>
<path d="M34.5836 120.28C28.8993 120.28 22.7266 117.888 18.7293 115.529C12.1668 111.658 7.96178 107.532 4.6714 101.741C1.48668 96.1318 -0.0838092 89.6903 0.00728673 82.5944C0.0728758 77.3743 1.31542 73.6592 4.03372 70.5402C8.23871 65.7237 12.287 65.4874 14.3239 65.7745C16.9256 66.1417 20.0885 67.3377 20.369 70.9437C20.5731 73.5829 18.9953 76.4001 15.009 76.7491C12.9028 76.9345 11.4052 76.5964 10.4287 75.7203C10.1299 75.4513 10.1044 74.9933 10.374 74.6952C10.6436 74.3971 11.1028 74.3717 11.4016 74.6407C12.0502 75.2223 13.2198 75.4441 14.8778 75.3023C18.0771 75.0224 19.05 72.8413 18.9115 71.0601C18.7439 68.9044 17.1734 67.6467 14.1162 67.2177C12.3708 66.9705 8.88003 67.1995 5.13052 71.4963C3.46164 73.4084 1.5377 76.3965 1.46118 82.6126C1.37737 89.4503 2.88227 95.6446 5.93945 101.025C9.09501 106.583 13.1433 110.545 19.4727 114.278C24.0165 116.958 31.4572 119.691 37.4914 118.575C42.509 117.648 46.0799 114.824 48.1023 110.178C48.2626 109.811 48.6926 109.64 49.0606 109.8C49.4286 109.96 49.5999 110.389 49.4396 110.756C47.2132 115.871 43.2815 118.982 37.7574 120.004C36.7262 120.193 35.6659 120.28 34.5836 120.28Z" fill="black"/>
<path d="M36.7991 32.7127C36.5622 32.7127 36.329 32.5964 36.1869 32.3819C34.5253 29.841 33.0532 26.0604 32.2516 22.2726C31.592 19.1536 31.0819 14.6424 32.4046 10.8727C35.7715 1.28316 40.1988 -0.425365 42.283 0.0726515C43.1102 0.272585 43.7479 0.741521 44.1378 1.42857C44.7499 2.51911 44.7281 4.10041 44.0685 6.13246C42.4397 11.1599 37.9068 18.3757 35.5055 18.8701C35.112 18.9537 34.7257 18.6992 34.6456 18.303C34.5654 17.9067 34.8168 17.525 35.214 17.4451C36.5841 17.1652 40.9603 11.0108 42.6839 5.68534C43.1976 4.10041 43.2632 2.83901 42.8697 2.13742C42.6802 1.80299 42.3778 1.58851 41.9442 1.48309C41.2773 1.32315 40.0603 1.62123 38.6319 2.93352C37.3566 4.10404 35.48 6.51779 33.7856 11.3489C31.6248 17.4996 34.5581 27.2164 37.4112 31.5822C37.6299 31.9203 37.5351 32.371 37.1999 32.5891C37.0724 32.6764 36.9339 32.7127 36.7991 32.7127Z" fill="black"/>
<path d="M42.56 31.0736C42.356 31.0736 42.1555 30.99 42.0098 30.8264C40.7417 29.3796 39.2259 25.5518 37.8886 22.1711C37.1343 20.2663 36.4238 18.4669 35.9902 17.7399C35.7861 17.3945 35.8991 16.9474 36.2452 16.7438C36.5914 16.5403 37.0396 16.653 37.2436 16.9983C37.7356 17.8235 38.4352 19.5902 39.2441 21.6368C40.4721 24.7448 42.0025 28.609 43.1066 29.8668C43.3726 30.1685 43.3398 30.6265 43.0373 30.8919C42.9025 31.0118 42.7313 31.0736 42.56 31.0736Z" fill="black"/>
<path d="M50.9226 28.2742C50.5583 28.2742 50.2412 28.0016 50.2012 27.6308C49.3813 20.5786 50.8862 12.5921 53.8596 8.21178C57.5654 2.75177 61.1545 0.71608 63.9676 2.48277C64.6162 2.8899 65.0243 3.51879 65.1518 4.30398C65.5417 6.74681 63.1659 9.92394 62.1238 11.1744C59.4747 14.3588 56.0459 17.1506 54.1438 17.6741C53.7539 17.7795 53.3531 17.5541 53.2474 17.1652C53.1417 16.7762 53.3677 16.3763 53.7575 16.2709C55.1495 15.8892 58.316 13.4791 61.0015 10.2475C62.8744 7.99367 63.9129 5.8053 63.7125 4.53663C63.6542 4.16221 63.4866 3.90411 63.1914 3.71872C60.331 1.92659 56.556 6.83769 55.0657 9.03332C52.3146 13.0865 50.8789 20.8403 51.6478 27.4708C51.6951 27.8707 51.4073 28.2306 51.0064 28.2779C50.9773 28.2742 50.9481 28.2742 50.9226 28.2742Z" fill="black"/>
<path d="M55.2843 28.0126C55.2442 28.0126 55.2005 28.009 55.1568 28.0017C54.7596 27.9326 54.4936 27.5546 54.5628 27.162C55.0584 24.3265 55.0584 19.1392 54.5628 16.4891C54.4899 16.0929 54.7487 15.7148 55.1458 15.6421C55.543 15.5658 55.922 15.8275 55.9948 16.2238C56.5232 19.0556 56.5232 24.3883 55.9948 27.4128C55.9402 27.7654 55.6341 28.0126 55.2843 28.0126Z" fill="black"/>
</g>
<defs>
<clipPath id="clip0_2410_19348">
<rect width="93.3879" height="122.018" fill="white"/>
</clipPath>
</defs>
</svg>
