<svg width="100%" height="100%" viewBox="0 0 450 450" fill="none" xmlns="http://www.w3.org/2000/svg" style="display: block;">
<path d="M251.56 399.8L246.32 396.09L248.36 393.66L250.25 391.84L251.28 386.34L247.01 380.16L241.46 379.59L237.73 387.7L227.57 387.53L222.78 385.7V378.9L214.97 377.84L209.7 381.03L208.63 384.59L210.45 392.42L208.97 399.16L205.21 412L211.68 425.6L225.42 432.66L242.23 443.32L263.16 445.45L283.09 438.85L288.63 428.12L289.65 416.7L281.63 402.96L267 399.34L251.56 399.8Z" fill="#DB584C"/>
<path d="M206.63 411.55C208.97 417.5 214.17 421.13 220.25 423.23C225.93 425.2 231.65 428.16 236.46 433.1C237.72 434.39 242.86 436.84 248.9 438.16C254.22 439.32 260.23 439.61 264.91 437.45C270.42 434.91 272.96 431.94 279.35 429.98C283.25 428.78 286.84 430.12 286.84 432.21C284.75 436.85 266.43 444.09 266.43 444.09L244.74 443.69L228.34 434.26L216.18 428.05L208.99 422.65L206.63 411.55Z" fill="#E0DCD5"/>
<path d="M325.79 377.42L317.41 373.28L305.74 377.79L297.34 374.29L298.9 365.58L287.41 365.03L287.01 369.77L281.86 371.97L265.93 371.51L263.4 374.29L265.07 378.57L267.06 381.18L265.65 387.7L265.3 398.59L273.87 399.89L279.82 402.55L298.49 408.37L315.71 407.42L327.11 402.57L332.28 395.37L333.04 388L325.79 377.42Z" fill="#DB584C"/>
<path d="M292.08 379.77L296.95 375.29L303.87 378.93L301.12 385.7L295.22 384.15L292.08 379.77Z" fill="#E0DCD5"/>
<path d="M338.18 325.32L334.07 335.97L327.48 339.42L315.45 340.02L310.98 338.91L315.14 321.34L311.87 313.5L316.26 306.16L315.3 294.73L327.71 288.01L331.02 289.49L331.33 295.76L338 310.97L338.18 325.32Z" fill="#F9F9F9"/>
<path d="M303.62 257.36L310.26 268.55L319.07 279.76L324.12 290.25L316.35 292.24L311.29 283.09L311.01 271.66L301.2 254.23L303.62 257.36Z" 
fill="BODY_PLACEHOLDER"/>
<path d="M287.41 368.82L279.34 371.74H269.41L269.94 367.85L287.01 361.11L287.41 368.82Z" 
fill="BODY_PLACEHOLDER"/>
<path d="M238.91 387.7L231.16 387.92L222.89 387.4V360.54C223.18 353.58 231.03 352.08 233.93 353.67L238.35 359.39L238.91 387.7Z" 
fill="BODY_PLACEHOLDER"/>
<path d="M303.62 257.36C314.12 271.59 320.07 281.57 325 288.72" stroke="black" stroke-width="3" stroke-miterlimit="10" stroke-linecap="round" stroke-linejoin="round"/>
<path d="M325.95 314.05C325.64 313.89 325 313.62 324.19 314.34C324.51 315.8 325.6 321.36 324.45 325.53C323.9 327.53 322.49 329.4 319.35 329.97C316.75 330.44 315.34 329.06 314.2 327.81" stroke="black" stroke-width="3" stroke-miterlimit="10" stroke-linecap="round" stroke-linejoin="round"/>
<path d="M314.6 291.28C316.45 290.29 318.34 289.36 320.33 288.57C322.32 287.79 324.41 287.12 326.68 286.86C327.82 286.75 329.02 286.71 330.32 287.02C330.96 287.18 331.63 287.43 332.26 287.86C332.9 288.3 333.38 288.83 333.77 289.43C334.54 290.61 334.85 292.16 334.49 293.59C334.15 295.03 333.24 296.11 332.31 296.9L332.5 294.82C334.42 297.1 336.01 299.66 337.22 302.37C338.43 305.08 339.31 307.92 339.9 310.79C340.48 313.67 340.82 316.59 340.94 319.52C340.98 322.76 340.29 325.67 339.37 328.53C338.89 329.95 338.33 331.35 337.66 332.72C337.33 333.38 336.93 334.12 336.46 334.8C336 335.48 335.49 336.12 334.93 336.7C333.81 337.87 332.56 338.87 331.19 339.68C329.82 340.49 328.37 341.17 326.67 341.56C326.23 341.65 325.78 341.72 325.27 341.74C324.79 341.75 324.38 341.75 323.9 341.69C322.98 341.58 321.93 341.33 320.97 340.65C320 339.99 319.31 338.96 318.99 338.01C318.81 337.53 318.71 337.07 318.63 336.61C318.6 336.39 318.57 336.16 318.55 335.95C318.54 335.71 318.51 335.58 318.52 335.25C318.53 334.07 318.94 333.06 319.34 332.34C319.75 331.6 320.16 331 320.54 330.43C321.3 329.3 321.93 328.28 322.42 327.14L322.44 327.09C322.77 326.32 323.65 325.97 324.42 326.29C325.07 326.57 325.42 327.24 325.32 327.91C325.07 329.5 324.44 331.04 323.74 332.32C323.04 333.6 322.42 334.78 322.52 335.21C322.51 335.24 322.54 335.45 322.55 335.56L322.6 335.95C322.65 336.19 322.7 336.42 322.78 336.6C322.93 336.98 323.09 337.16 323.3 337.3C323.5 337.45 323.87 337.55 324.34 337.6C324.56 337.62 324.86 337.62 325.09 337.61C325.29 337.6 325.54 337.55 325.79 337.5C326.84 337.25 328 336.74 329.04 336.1C330.1 335.47 331.07 334.68 331.9 333.8C332.33 333.37 332.7 332.9 333.04 332.42C333.38 331.94 333.66 331.44 333.97 330.85C334.56 329.69 335.07 328.47 335.51 327.21C336.36 324.72 336.98 322.04 336.96 319.62C336.92 316.9 336.67 314.18 336.2 311.51C335.24 306.18 333.38 301.01 330.18 296.7C329.7 296.05 329.8 295.16 330.37 294.62C331.59 293.51 331.81 292.27 331.07 291.21C330.68 290.68 330.3 290.45 329.58 290.3C328.88 290.16 328.02 290.19 327.14 290.32C325.36 290.59 323.56 291.23 321.8 292.02C320.03 292.81 318.3 293.75 316.6 294.76C315.65 295.33 314.42 295.01 313.86 294.07C313.29 293.12 313.61 291.89 314.55 291.33C314.55 291.31 314.58 291.29 314.6 291.28Z" fill="black"/>
<path d="M321.54 338.48C318.51 340.03 314.02 340.23 310.98 338.91" stroke="black" stroke-width="4" stroke-miterlimit="10" stroke-linecap="round" stroke-linejoin="round"/>
<path d="M239.84 359.17C240.21 361.4 240.43 363.58 240.63 365.77C240.83 367.96 240.98 370.14 241.11 372.33C241.24 374.52 241.34 376.71 241.4 378.9C241.46 381.1 241.51 383.29 241.44 385.55C241.41 386.65 240.49 387.52 239.38 387.49C238.27 387.46 237.41 386.54 237.44 385.43C237.44 385.41 237.44 385.38 237.44 385.36V385.33C237.58 383.25 237.62 381.08 237.64 378.93C237.66 376.78 237.64 374.61 237.6 372.46C237.55 370.3 237.48 368.14 237.38 365.99C237.27 363.84 237.13 361.69 236.87 359.61V359.58C236.77 358.76 237.35 358.01 238.17 357.91C238.98 357.82 239.71 358.38 239.84 359.17Z" fill="black"/>
<path d="M224.69 357.38L224.82 357.97C224.86 358.18 224.89 358.36 224.9 358.51L225 359.45C225.04 360.05 225.09 360.66 225.1 361.25C225.15 362.44 225.18 363.61 225.2 364.79C225.24 367.14 225.23 369.48 225.21 371.81C225.19 374.14 225.15 376.48 225.08 378.82C225.01 381.16 224.94 383.49 224.77 385.89C224.69 386.99 223.74 387.82 222.64 387.75C221.54 387.67 220.71 386.72 220.78 385.62C220.78 385.6 220.78 385.58 220.79 385.56V385.53C221.03 383.29 221.19 380.97 221.34 378.66C221.49 376.35 221.61 374.04 221.72 371.72C221.83 369.41 221.91 367.09 221.96 364.79C221.98 363.64 222 362.49 221.99 361.35C221.99 360.77 221.96 360.22 221.95 359.66L221.9 358.87C221.89 358.72 221.88 358.62 221.86 358.54L221.83 358.27L221.78 357.9C221.68 357.09 222.25 356.35 223.07 356.25C223.82 356.13 224.53 356.64 224.69 357.38Z" fill="black"/>
<path d="M234.95 403.83L240.52 399.16L246.51 397.65L250.58 401.61L244.34 408.34L242.02 410.22L234.95 403.83Z" fill="#E0DCD5"/>
<path d="M267.62 397.65C282.4 395.09 292.51 400.84 299.1 402.72C305.69 404.6 315.3 402.67 318.44 401.12C321.97 399.38 322.91 395.94 326.82 393.68C330.02 391.83 332.51 393.24 332.28 395.36C331.06 398.09 323.04 403.77 323.04 403.77L311.1 407.57L295.95 405.54L287 402.64L279.81 402.54L267.62 397.65Z" fill="#E0DCD5"/>
<path d="M218.24 382.15C219.49 383.47 221.41 384.44 223.38 385.14C225.38 385.83 227.49 386.27 229.62 386.45C231.8 386.65 233.95 386.65 235.95 386.3C237.96 385.94 239.69 385.13 241.25 383.76L241.26 383.75C241.88 383.2 242.84 383.26 243.38 383.89C243.87 384.45 243.87 385.27 243.42 385.83C242.62 386.83 241.6 387.74 240.45 388.45C239.3 389.15 238.04 389.64 236.77 389.97C234.23 390.63 231.7 390.63 229.27 390.44C226.79 390.23 224.33 389.67 222 388.69C219.7 387.7 217.39 386.32 215.81 383.93C215.35 383.24 215.54 382.31 216.23 381.85C216.85 381.44 217.66 381.55 218.15 382.07L218.24 382.15Z" fill="black"/>
<path d="M239.28 378.83C240.64 378.23 242.11 377.91 243.61 377.88C245.1 377.85 246.65 378.15 248.05 378.87C249.45 379.57 250.67 380.69 251.5 382.01C252.33 383.33 252.82 384.77 253.03 386.3C253.43 389.37 252.41 392.46 250.56 394.8C248.73 397.15 246.05 398.9 243 399.46C241.91 399.66 240.87 398.94 240.67 397.85C240.47 396.76 241.19 395.72 242.28 395.52C242.3 395.52 242.32 395.51 242.34 395.51H242.36C244.36 395.21 246.29 394.08 247.64 392.45C249.01 390.83 249.76 388.71 249.56 386.68C249.47 385.68 249.14 384.64 248.64 383.78C248.14 382.92 247.43 382.23 246.56 381.75C244.83 380.77 242.46 380.79 240.49 381.58L240.46 381.59C239.69 381.9 238.82 381.52 238.51 380.75C238.19 380.01 238.55 379.16 239.28 378.83Z" fill="black"/>
<path d="M221.98 380.17C219.9 379.09 217.47 378.95 215.28 379.66C213.11 380.37 211.16 381.89 210.51 383.76C209.68 385.87 209.85 388.15 210.87 390.21C211.91 392.29 213.78 394.09 215.85 395.69L215.89 395.72C216.55 396.23 216.67 397.17 216.16 397.83C215.69 398.43 214.86 398.58 214.22 398.21C212.94 397.47 211.69 396.66 210.55 395.63C209.42 394.6 208.38 393.4 207.56 392C206.73 390.6 206.21 388.97 206.06 387.29C205.9 385.61 206.18 383.9 206.76 382.35C207.36 380.68 208.52 379.24 209.82 378.2C211.14 377.17 212.64 376.42 214.23 376.02C215.81 375.62 217.47 375.51 219.09 375.77C220.7 376.05 222.27 376.67 223.57 377.63C224.24 378.12 224.38 379.07 223.88 379.73C223.43 380.33 222.62 380.51 221.98 380.17Z" fill="black"/>
<path d="M246.32 396.09C247.71 397.42 249.75 398.7 251.59 401.24C254.79 398.53 272.48 395.84 282.06 404.21C291.64 412.58 291.3 426.51 285.8 433.74C280.27 441.02 269.1 444.08 262.87 444.55C252.42 445.33 245.94 444.21 237.46 440.6C232.63 438.55 230.38 435.53 225.43 432.65C218.52 428.63 213.44 428.46 208.68 420.75C205.47 415.55 205.36 410.9 206.29 406.43C207.43 400.9 209.22 398.71 210.63 393.9" stroke="black" stroke-width="4" stroke-miterlimit="10" stroke-linecap="round" stroke-linejoin="round"/>
<path d="M290.15 368.74C284.85 371.96 271.32 372.04 268 371.47" stroke="black" stroke-width="3" stroke-miterlimit="10" stroke-linecap="round" stroke-linejoin="round"/>
<path d="M287.01 369.77C287.16 366.71 287.45 363.03 287.82 359.73" stroke="black" stroke-width="3" stroke-miterlimit="10" stroke-linecap="round" stroke-linejoin="round"/>
<path d="M287.11 362.68C289.12 361.89 291.38 361.44 293.75 361.83C294.93 362.02 296.13 362.45 297.2 363.2C298.27 363.94 299.18 365.03 299.69 366.27C300.12 367.38 300.37 368.5 300.4 369.75C300.43 370.98 300.13 372.28 299.55 373.36C298.37 375.56 296.5 376.86 294.71 377.82C293.98 378.21 293.07 377.94 292.68 377.21C292.32 376.54 292.52 375.72 293.12 375.29L293.16 375.26C294.57 374.23 295.79 373.05 296.29 371.79C296.53 371.16 296.66 370.55 296.59 369.88C296.54 369.23 296.32 368.47 296.02 367.83C295.58 366.82 294.51 366.12 293.09 365.9C291.69 365.66 290.08 365.92 288.54 366.43L288.48 366.45C287.43 366.79 286.3 366.22 285.96 365.17C285.61 364.15 286.13 363.06 287.11 362.68Z" fill="black"/>
<path d="M269.41 379.86C266.33 379.51 263.63 378.36 263.3 375.7C263.04 373.6 264.58 371.77 266.78 371.31" stroke="black" stroke-width="3" stroke-miterlimit="10" stroke-linecap="round" stroke-linejoin="round"/>
<path d="M266.35 381.18C265.3 384.78 263.96 391.24 265.3 398.59" stroke="black" stroke-width="4" stroke-miterlimit="10" stroke-linecap="round" stroke-linejoin="round"/>
<path d="M298.35 375.42C300.23 377.01 301.98 377.46 304.1 377.36C307.7 376.18 314.63 372.57 321.69 375.01C327.44 377 331.99 382.63 333.03 388.01C334.25 394.35 331.71 400.09 323.04 404.53C317.68 407.28 308.44 408.59 304.18 408.28C296.7 407.73 294.38 406.91 289.32 404.92C286.29 403.72 283.47 402.95 281.85 402.98" stroke="black" stroke-width="4" stroke-miterlimit="10" stroke-linecap="round" stroke-linejoin="round"/>
<path d="M263.07 244.77C263.09 244.77 263.1 244.77 263.1 244.77C263.1 244.76 263.09 244.76 263.07 244.77Z" fill="black"/>
<path d="M315.3 313.7C321.03 305.37 319.87 291.56 312.8 283.6C312.87 283.39 312.94 283.19 313 282.99C313.53 281.15 313.75 279.33 313.78 277.53C313.79 273.94 313.26 270.43 311.91 267.03C310.54 263.68 308.63 260.81 306.55 258.1C305.1 256.21 303.54 254.43 301.9 252.73C302.13 252.65 302.37 252.59 302.6 252.5C305.23 251.47 307.57 250.08 309.69 248.19C310.73 247.24 311.68 246.17 312.5 244.94C313.31 243.72 313.98 242.32 314.28 240.69C314.49 239.55 313.75 238.45 312.61 238.22C311.46 237.99 310.35 238.74 310.12 239.89L310.11 239.94C309.77 241.65 308.4 243.51 306.77 244.94C305.14 246.4 303.1 247.61 301.06 248.39C300.62 248.55 300.16 248.7 299.69 248.83V255.37C301.04 256.97 302.34 258.61 303.54 260.31C305.35 262.93 307.03 265.68 308.07 268.5C309.06 271.28 309.51 274.43 309.44 277.43C309.4 278.93 309.23 280.42 308.84 281.76C308.46 283.1 307.86 284.28 307.06 285.03L307.02 285.06C306.18 285.85 306.12 287.16 306.89 288.02C307.67 288.89 309.01 288.96 309.88 288.18C310.11 287.97 310.32 287.76 310.53 287.53C315.23 294.01 316.57 305.47 311.28 312.05C311.25 312.09 311.22 312.14 311.19 312.19C311.17 312.22 311.15 312.25 311.13 312.28C311.08 312.37 311.03 312.46 310.99 312.55C310.98 312.58 310.96 312.61 310.95 312.65C310.92 312.74 310.89 312.84 310.87 312.93C310.86 312.97 310.85 313.01 310.85 313.05C310.84 313.14 310.83 313.23 310.82 313.32C310.82 313.37 310.82 313.42 310.82 313.47C310.82 313.56 310.83 313.64 310.85 313.72C310.86 313.77 310.87 313.83 310.88 313.88C310.9 313.96 310.93 314.04 310.96 314.12C310.97 314.15 310.98 314.18 310.99 314.21V314.22C312.19 317.02 312.18 320.48 311.57 323.81C310.99 327.17 309.83 330.5 308.32 333.64C307.55 335.25 306.75 336.66 305.73 338.06C304.73 339.46 303.62 340.81 302.42 342.06C302.38 342.1 302.33 342.15 302.29 342.19L305.31 345.21C305.38 345.14 305.44 345.08 305.51 345.01C306.85 343.62 308.08 342.13 309.22 340.56C310.36 339 311.38 337.22 312.2 335.52C313.87 332.07 315.17 328.42 315.86 324.55C316.19 322.62 316.36 320.63 316.24 318.6C316.15 316.99 315.86 315.32 315.3 313.7Z" fill="black"/>
<path d="M288.81 354.95C287.97 356.06 287.04 357.11 286 358.07C283.44 360.44 280.34 362.31 277.07 363.89C273.78 365.45 270.31 366.71 266.77 367.81C265.1 368.34 263.4 368.77 261.69 369.14V373.51C263.83 373.08 265.96 372.56 268.05 371.9C271.72 370.75 275.37 369.42 278.92 367.74C282.44 366.02 285.89 363.96 288.89 361.19C290.4 359.82 291.71 358.2 292.87 356.48C293.18 355.99 293.46 355.48 293.72 354.96H288.81V354.95Z" fill="black"/>
<path opacity="0.4" d="M275.74 404.23C281.04 408.99 280.29 412.35 278.39 413.37C276.71 414.27 272.67 412.09 270.41 409.95C266.83 406.57 264.3 403.24 265.67 401.9C267.62 399.99 273.43 402.15 275.74 404.23Z" fill="white"/>
<path opacity="0.4" d="M323.58 381.1C326.58 384.42 325.89 386.47 324.63 386.99C323.52 387.44 321.14 385.81 319.87 384.32C317.86 381.97 316.91 380.04 317.86 379.3C319.21 378.24 322.27 379.65 323.58 381.1Z" fill="white"/>
<path d="M208.97 399.16C209.95 400.16 215.21 403.08 216.16 403.38" stroke="black" stroke-width="3" stroke-miterlimit="10" stroke-linecap="round" stroke-linejoin="round"/>
<path d="M212.87 407.23C213.85 408.23 215.21 409.14 216.17 409.44" stroke="black" stroke-width="3" stroke-miterlimit="10" stroke-linecap="round" stroke-linejoin="round"/>
<path d="M267.11 384.26C268.55 384.62 270.74 384.95 272.01 384.85" stroke="black" stroke-width="3" stroke-miterlimit="10" stroke-linecap="round" stroke-linejoin="round"/>
<path d="M271.11 389.21C272.38 389.34 274.01 389.29 274.76 389.14" stroke="black" stroke-width="3" stroke-miterlimit="10" stroke-linecap="round" stroke-linejoin="round"/>
<path d="M242.81 399.53C241.32 399.91 239.75 400.64 238.38 401.54C237.69 401.99 237.01 402.48 236.46 403.03C235.9 403.55 235.46 404.24 235.4 404.62L235.13 403.33C235.27 403.51 235.58 403.81 235.88 404.08L236.85 404.94C237.52 405.53 238.2 406.13 238.86 406.77C240.19 408.04 241.44 409.42 242.56 410.92L240.72 410.45C242.48 409.66 243.86 407.3 245.62 405.2C246.5 404.13 247.48 403.1 248.56 402.18C249.65 401.26 250.84 400.46 252.09 399.79C252.82 399.4 253.73 399.67 254.12 400.4C254.51 401.13 254.24 402.04 253.51 402.43H253.5C252.43 403.01 251.42 403.69 250.49 404.47C249.56 405.25 248.72 406.14 247.92 407.11C247.12 408.08 246.37 409.13 245.48 410.22C244.6 411.29 243.5 412.46 241.97 413.18C241.32 413.49 240.55 413.28 240.14 412.72V412.71C239.14 411.37 238.01 410.12 236.78 408.94C236.16 408.35 235.52 407.78 234.86 407.2L233.84 406.3C233.49 405.97 233.15 405.68 232.73 405.16L232.7 405.12C232.41 404.76 232.34 404.28 232.47 403.87C232.94 402.53 233.65 401.77 234.31 400.99C235 400.25 235.71 399.58 236.46 398.96C237.98 397.75 239.55 396.66 241.41 395.77L241.44 395.76C242.44 395.28 243.64 395.71 244.12 396.71C244.6 397.71 244.17 398.91 243.17 399.39C243.06 399.45 242.93 399.5 242.81 399.53Z" fill="black"/>
<path d="M304.1 377.36C303.01 380.79 302.6 385.06 301.41 386.01C296.99 387.07 291.53 383 291.57 380.52C291.13 378.97 293.91 376.54 293.91 376.54" stroke="black" stroke-width="3" stroke-miterlimit="10" stroke-linecap="round" stroke-linejoin="round"/>
<path d="M232.05 269.16C232.83 264.08 233.68 257.38 230.5 253.77C225.7 248.33 220.79 250.48 218.8 252.26L213.24 275.49L214.06 294.39L216.34 309.22L229.26 305.22L236.08 303.97L230.42 286.2L232.05 269.16Z" 
fill="BODY_PLACEHOLDER"/>
<path d="M217.49 357.76L210.94 350.8L209.97 336.52L215.02 321.26L214.21 314.48L217.94 308.76L233.3 303.88L241.59 305.1L244.06 310.47L251.91 316.2L255.93 321.4L258.75 330.8L260.57 349.57L258.07 355.17L250.97 353.75L252.9 362.75L246.5 367L238.92 362.6L233.56 363.99L226.28 359.49L217.49 357.76Z" fill="#F9F9F9"/>
<path d="M221.47 253.11C221.37 253.16 221.01 253.44 220.74 253.85C220.45 254.25 220.18 254.73 219.93 255.24C219.43 256.25 219 257.36 218.63 258.49C217.88 260.76 217.32 263.13 216.86 265.51C216.41 267.9 216.07 270.31 215.86 272.72C215.66 275.18 215.49 277.64 215.36 280.1C215.11 285.01 215.06 289.92 215.41 294.77C215.75 299.62 216.51 304.42 217.89 308.98L217.9 309C218.22 310.06 217.62 311.17 216.56 311.49C215.5 311.81 214.39 311.21 214.07 310.15C214.07 310.14 214.06 310.12 214.06 310.11C212.66 305.13 211.97 300.04 211.72 294.98C211.46 289.92 211.61 284.87 211.97 279.88C212.15 277.38 212.37 274.89 212.62 272.41C212.87 269.88 213.25 267.37 213.75 264.89C214.26 262.4 214.87 259.94 215.71 257.5C216.13 256.28 216.6 255.07 217.22 253.86C217.53 253.26 217.87 252.66 218.32 252.05C218.77 251.46 219.3 250.81 220.33 250.33C221.08 249.98 221.97 250.31 222.32 251.06C222.67 251.81 222.34 252.7 221.59 253.05L221.47 253.11Z" fill="black"/>
<path d="M233.19 269.98C232.87 275.54 233.18 281.15 233.99 286.66C234.82 292.16 236.14 297.63 238.29 302.61L238.3 302.64C238.74 303.65 238.27 304.83 237.26 305.27C236.25 305.71 235.07 305.24 234.63 304.23C234.62 304.21 234.61 304.19 234.61 304.17C232.41 298.62 231.23 292.89 230.52 287.13C229.84 281.37 229.69 275.55 230.2 269.76C230.27 268.93 231 268.32 231.82 268.4C232.63 268.46 233.24 269.16 233.19 269.98Z" fill="black"/>
<path d="M241.05 310.46C241.4 309.98 241.6 309.37 241.63 308.77C241.64 308.47 241.6 308.17 241.52 307.91C241.48 307.78 241.44 307.66 241.38 307.56C241.33 307.45 241.28 307.38 241.17 307.23C240.79 306.71 240.43 306.45 239.84 306.23C239.25 306.02 238.45 305.92 237.6 305.84C234.23 305.5 230.68 306.12 227.25 306.99C223.83 307.91 220.52 309.32 217.63 311.2C217.29 311.44 216.87 311.7 216.63 311.9C216.37 312.12 216.13 312.35 215.94 312.6C215.56 313.1 215.32 313.65 215.25 314.26C215.09 315.46 215.73 316.88 216.77 317.65L216.78 317.66C217.48 318.13 217.66 319.08 217.19 319.78C214.94 323.11 213.52 327.11 212.56 331.14C212.09 333.17 211.75 335.23 211.56 337.28C211.37 339.35 211.38 341.33 211.65 343.35C212.17 347.34 213.69 351.15 216.27 354.09C216.58 354.46 216.94 354.8 217.27 355.16L218.4 356.25C219.15 356.96 219.9 357.61 220.63 358.08C222.1 359.06 223.41 359.18 225.17 358.67C226.23 358.37 227.34 358.98 227.64 360.04C227.94 361.1 227.33 362.21 226.27 362.51L226.25 362.52C225.04 362.85 223.66 363.03 222.25 362.83C220.83 362.64 219.51 362.01 218.47 361.3C217.41 360.58 216.56 359.78 215.76 359L214.59 357.83C214.2 357.39 213.78 356.98 213.41 356.52C210.36 352.9 208.68 348.31 208.18 343.78C207.91 341.53 207.95 339.17 208.2 336.96C208.44 334.73 208.85 332.54 209.39 330.38C210.5 326.08 212.07 321.84 214.72 318.06L215.14 320.19C213.04 318.94 211.73 316.58 211.81 314.05C211.84 312.79 212.31 311.53 213.03 310.52C213.39 310.01 213.8 309.56 214.24 309.17C214.71 308.76 215.07 308.52 215.49 308.2C218.74 305.81 222.42 304.29 226.18 303.2C228.07 302.66 229.99 302.26 231.97 302.06C233.92 301.84 235.99 301.8 237.99 302.04C238.99 302.17 240.05 302.34 241.21 302.83C242.37 303.29 243.51 304.28 244.13 305.34C244.28 305.58 244.47 305.91 244.59 306.24C244.72 306.57 244.8 306.89 244.86 307.22C244.98 307.87 244.98 308.52 244.9 309.15C244.73 310.4 244.18 311.6 243.27 312.51C242.69 313.1 241.74 313.1 241.15 312.52C240.62 311.99 240.56 311.16 240.99 310.57L241.05 310.46Z" fill="black"/>
<path d="M242.17 311.46C244.68 311.65 248.08 312.93 252.22 317.52C255.32 320.96 257.9 327.38 257.74 332.49C257.41 343.38 261.26 348.02 260.33 351.73C259.31 355.81 253.47 355.77 249.78 352.19" stroke="black" stroke-width="3" stroke-miterlimit="10" stroke-linecap="round" stroke-linejoin="round"/>
<path d="M249.34 340.98C249.28 341.12 249.07 341.63 248.96 342.1C248.84 342.59 248.76 343.12 248.72 343.64C248.67 344.17 248.65 344.7 248.67 345.22C248.69 345.72 248.76 346.3 248.87 346.62C249.17 347.54 249.62 348.68 250.11 349.75C250.59 350.84 251.09 351.95 251.61 353.06C252.11 354.18 252.62 355.3 253.12 356.48C253.37 357.08 253.61 357.65 253.84 358.42C254.06 359.2 254.18 359.86 254.23 360.64C254.35 362.14 254.1 363.91 253.12 365.38C252.17 366.86 250.7 367.8 249.34 368.34C248.72 368.6 247.79 368.88 246.95 368.91C246.11 368.96 245.32 368.85 244.56 368.68C243.07 368.31 241.74 367.63 240.59 366.78C239.43 365.93 238.43 364.91 237.6 363.77C236.76 362.62 236.16 361.38 235.64 360.16C234.62 357.71 234.05 355.22 233.52 352.8C233.26 351.59 233.01 350.39 232.73 349.25C232.59 348.68 232.44 348.12 232.27 347.61C232.11 347.09 231.89 346.66 231.74 346.41L231.6 346.17C231.17 345.47 231.4 344.55 232.1 344.13C232.75 343.74 233.58 343.9 234.04 344.48C234.63 345.22 234.94 345.91 235.18 346.54C235.44 347.19 235.63 347.81 235.81 348.42C236.16 349.65 236.46 350.85 236.77 352.03C237.39 354.38 238.03 356.68 238.94 358.76C239.41 359.78 239.92 360.77 240.55 361.58C241.19 362.41 241.95 363.14 242.79 363.72C243.62 364.31 244.55 364.72 245.45 364.94C245.89 365.03 246.33 365.09 246.72 365.06C247.11 365.03 247.37 364.95 247.89 364.75C249.72 363.98 250.46 362.85 250.31 360.95C250.24 359.95 249.97 359.19 249.47 358.04C249 356.96 248.49 355.85 247.98 354.73C247.48 353.61 246.97 352.47 246.49 351.3C246.03 350.11 245.54 348.96 245.22 347.5C245.05 346.62 245.05 345.97 245.06 345.24C245.08 344.53 245.16 343.83 245.29 343.14C245.43 342.45 245.62 341.78 245.88 341.1C246.16 340.41 246.42 339.75 247.16 338.96C247.71 338.37 248.64 338.34 249.23 338.89C249.7 339.33 249.81 340 249.56 340.55L249.34 340.98Z" fill="black"/>
<path d="M221.57 343.49C222.14 345.01 222.22 346.4 222.43 347.64C222.6 348.89 222.84 350.04 223.21 351.16C223.56 352.28 224.02 353.35 224.59 354.42C225.16 355.49 225.82 356.54 226.5 357.53C227.17 358.49 227.97 359.46 228.64 359.95C229.46 360.54 230.48 361 231.47 361.27C233.48 361.83 235.74 361.61 237.87 360.85L237.9 360.84C238.94 360.47 240.08 361.01 240.46 362.05C240.82 363.07 240.31 364.18 239.32 364.58C237.95 365.13 236.49 365.51 234.98 365.67C233.46 365.8 231.89 365.69 230.39 365.27C228.87 364.86 227.5 364.18 226.21 363.23C224.81 362.11 224.02 360.97 223.2 359.8C222.41 358.63 221.75 357.43 221.14 356.17C220.53 354.91 220.01 353.55 219.66 352.16C219.31 350.77 219.14 349.34 219.06 347.99C218.98 346.65 218.97 345.4 218.74 344.42L218.72 344.35C218.53 343.54 219.03 342.74 219.84 342.55C220.56 342.38 221.31 342.79 221.57 343.49Z" fill="black"/>
</svg>
