<svg width="100%" height="100%" viewBox="0 0 450 450" fill="none" xmlns="http://www.w3.org/2000/svg" style="display: block;">
<path d="M184.23 244.35L171.04 248.23L140.67 191.13L117.5 187.17L97.69 207.5L93.5 247.37L95.76 313.39L124.28 353.15L165.06 343.88L199.88 318.19L208.7 278.21L204.37 243.53L194.39 241.07L184.23 244.35Z" fill="BACKGROUND_PLACEHOLDER"/>
<path d="M235.01 377.29L204.04 371.56L183.25 362.34L165.23 360.42L158.3 366.69L157.59 376.99L168.42 398.91L177.78 411.31L176.04 415.29L171.29 419.14L164.15 415.63L156.94 410.84L149.44 404.92L140.97 396.96L131.23 382.26L127.56 360.41L134.58 338.19L150.42 327.72L173.55 325.11L195.13 316.93L202.53 302.27L199.13 270.59L201.18 242.63L246.82 243.89L264.83 251L282.35 252.33L289.88 251L301.88 263.35L317.29 255.26L332.74 258.87L341.48 269.91L341.88 284.74L334.54 297.96L324.09 299.9L319.75 297.6L321.8 284.74H314.65L304.32 293.68L307.43 317.07L298.11 345.73L277.94 364.55L258.86 372.62L235.01 377.29Z" fill="BODY_PLACEHOLDER"/>
<path d="M216.56 259.84C213.78 267.2 215.35 283.68 220.61 293.2C228.78 308.02 242.5 311.34 253.79 307.59" stroke="black" stroke-width="4" stroke-miterlimit="13.2283" stroke-linecap="round" stroke-linejoin="round"/>
<path d="M280.7 283.4C285.22 290.24 287.25 311.46 274.4 314.71C267.94 316.35 260.7 315.04 257.02 309.52C252.21 302.29 251.93 289.21 249.77 287.14" stroke="black" stroke-width="4" stroke-miterlimit="13.2283" stroke-linecap="round" stroke-linejoin="round"/>
<path d="M236.56 256.97C237.03 259.7 238.72 269.3 244.56 270.62C250.4 271.94 255.76 266 262.63 265.91C269.5 265.82 274.08 270.34 279.36 273.09C282.77 274.87 291.52 274.98 291.52 280.48C291.52 285.07 285.38 287.18 281.99 285.91" stroke="black" stroke-width="4" stroke-miterlimit="13.2283" stroke-linecap="round" stroke-linejoin="round"/>
<path d="M288.39 250.78C291.21 252.12 298.17 257.44 301.87 263.34" stroke="black" stroke-width="4" stroke-miterlimit="13.2283" stroke-linecap="round" stroke-linejoin="round"/>
<path d="M324.35 279.71C321.89 283.47 316.24 286.47 313.22 284.02C311.16 282.35 311.55 279.41 312.69 277.18C314.61 273.43 318.14 271.45 319.23 269.14" stroke="black" stroke-width="4" stroke-miterlimit="13.2283" stroke-linecap="round" stroke-linejoin="round"/>
<path d="M301.17 266.53C304.77 261.87 308.1 257.25 314.65 255.87C324.36 253.82 333.08 256.67 339.04 265.19C342.05 269.49 342.85 273.81 342.25 278.86C341.2 287.7 337.4 296.51 331.5 299.01C327.46 300.73 322.06 300.2 320.26 295.86C318.46 291.52 321.8 285.52 322.04 282.28" stroke="black" stroke-width="4" stroke-miterlimit="13.2283" stroke-linecap="round" stroke-linejoin="round"/>
<path d="M201.18 242.63C196.25 256.73 201.48 276.84 202.47 293.94C202.91 301.63 202.98 305.27 199.1 311C194.8 317.35 188.05 320.79 180.99 322.73C170.58 325.59 152.82 322.82 140.46 333.4C134.08 338.86 124.65 352.04 128.41 373.49C130.56 385.76 140.62 397.16 144.88 400.97C153.29 408.5 162.46 415.29 166.9 416.97C170.33 418.27 173.87 418.74 175.65 416.66C178.44 413.41 175.17 407.84 172.9 404.8C168.66 399.13 162.63 392.24 158.92 381.86C155.92 373.45 156.94 367.25 160.22 363.68C168.97 354.16 186.51 363.58 194.99 367.6C205.58 372.62 218.42 376.09 238.05 375.79C260.99 375.44 276.21 368.56 291.04 353.53C304.97 339.41 308.91 318.09 305.7 297.72C302.8 279.37 289.49 260.83 282.34 252.33" stroke="black" stroke-width="4" stroke-miterlimit="13.2283" stroke-linecap="round" stroke-linejoin="round"/>
<path d="M314.65 284.74C314.16 285.89 310.98 290.23 305.18 293.43" stroke="black" stroke-width="4" stroke-miterlimit="13.2283" stroke-linecap="round" stroke-linejoin="round"/>
<path d="M196.54 243.01C199.04 243.73 201.57 244.28 204.23 244.57C205.02 244.66 205.77 244.14 205.95 243.34C206.15 242.48 205.61 241.63 204.75 241.43L204.69 241.42C201.34 240.65 197.99 239.55 194.72 238.27L192.26 241.64C193.67 242.14 195.1 242.59 196.54 243.01Z" fill="black"/>
<path d="M292.75 244.94C291.12 246.4 289.08 247.61 287.04 248.39C282.87 249.94 277.8 250.16 273.05 250.11C268.45 249.95 263.76 248.47 259.3 246.54C257.07 245.56 254.87 244.46 252.72 243.25L251.12 242.33L250.72 242.1C250.67 242.07 250.28 241.82 249.92 241.72C249.17 241.5 248.51 241.64 248.07 241.78C247.17 242.09 246.63 242.46 246.09 242.74C245.58 243.03 245.1 243.22 244.79 243.27C244.75 243.28 244.71 243.28 244.68 243.29C243.82 243.49 243.29 244.34 243.49 245.2C243.69 246.06 244.54 246.59 245.4 246.39L245.44 246.38C246.36 246.17 247.01 245.78 247.6 245.47C248.16 245.15 248.7 244.85 249 244.78C249 244.78 249 244.78 249.01 244.78C249.13 244.86 249.33 244.98 249.44 245.06L251.06 246.09C253.23 247.44 255.47 248.7 257.79 249.83C262.42 252.07 267.4 253.98 272.86 254.31C274.26 254.4 275.48 254.37 276.78 254.35C278.07 254.32 279.37 254.26 280.68 254.14C283.29 253.9 285.97 253.48 288.59 252.49C291.22 251.46 293.56 250.07 295.68 248.18C296.08 247.81 296.47 247.42 296.84 247.01L292.75 244.94ZM249.07 244.77C249.09 244.77 249.1 244.77 249.1 244.77C249.1 244.76 249.09 244.76 249.07 244.77Z" fill="black"/>
</svg>
