<svg width="100%" height="100%" viewBox="0 0 450 450" fill="none" xmlns="http://www.w3.org/2000/svg" style="display: block;">
<path d="M288.77 371.23L298.66 375.05L283.97 389.4L260.36 373.53L263.22 366.57L271.97 361.3L279.54 350.94L292.75 339.75L300.12 326.79L304.93 331.14L308.01 347.77L302.19 364.88L288.77 371.23Z" 
fill="BODY_PLACEHOLDER"/>
<path d="M281.35 387.64C280.35 379.19 291.78 373.28 295.55 373.85C301.87 375.79 308.94 377.87 308.94 377.87L313.6 382.91L311.48 386.67L309.27 391L304.56 393.82L298.91 395.28L281.35 387.64Z" 
fill="#F9F9F9"/>
<path d="M199.34 387.82L198.45 378.53L205.91 370.57L202.47 353.15L201.45 337.59L221.75 315.35L236.65 324.98L246.89 326.96L252 333.27H255.97L261.77 345.13L263.22 361.3L257.73 373.28L246.11 384.21L256.89 385.87L248.14 407.24L209.92 395.75L199.34 387.82Z" fill="BODY_PLACEHOLDER"/>
<path d="M245.83 406.53C245.05 400.53 249.39 387.19 254.11 385.78H264.26L272.74 388.17L274.67 391.51L273.56 394.29L275.9 397.08L276.18 401.6L272.93 403.86L269.02 408.19L255.78 408.42L245.83 406.53Z" 
fill="#F9F9F9"/>
<path d="M315.89 299.66L312.34 283.47L297.89 267.02L297.24 284.68L299.3 290.23L296.3 301.16L314.34 307.6L315.89 299.66Z" fill="BODY_PLACEHOLDER"/>
<path d="M296.9 299.53L293.96 305.29L288.85 312.25L291.09 317.46L294.45 319.52L297.88 321.46L306.4 322.91L310.92 319.86L312.6 309.5C312.6 309.5 314.18 306.2 313.65 304.93C313.76 301.87 310.65 299.11 307.68 298.07C303.11 296.47 299.26 297.53 296.9 299.53Z" 
fill="#F9F9F9"/>
<path d="M238.34 324.98L223.66 318.1L211.5 302.27L208.14 287.05L212.51 259.99L235.01 258.9L239.06 272.47L248.09 298.51L260.02 301.51L269.24 309.24L238.34 324.98Z" 
fill="BODY_PLACEHOLDER"/>
<path d="M274.25 323.66L269.24 328.31L265.08 332.26L255.97 333.28L251.14 330.97L246.89 326.96L241.39 325.94L235.01 323.42C232.98 320.71 234.54 312.73 240.15 307.14C245.11 302.2 253.73 299.33 258.6 300.87L265.8 304.81L271.3 312.33L274.25 323.66Z" fill="#F9F9F9"/>
<path d="M214.26 260.96C212.59 263.98 211.45 267.37 210.69 270.84C209.93 274.32 209.54 277.91 209.45 281.51C209.36 285.1 209.56 288.72 210.15 292.21C210.46 293.96 210.84 295.63 211.47 297.2C212.11 298.88 212.85 300.5 213.66 302.06C215.28 305.21 217.36 308.07 219.78 310.64C222.22 313.2 224.99 315.48 227.94 317.55C230.86 319.62 233.9 321.33 237.22 322.37C238.87 322.92 240.65 323.34 242.49 323.93C244.32 324.5 246.19 325.24 247.88 326.25C248.59 326.68 248.83 327.6 248.4 328.32C248.02 328.95 247.26 329.2 246.6 328.96C244.93 328.37 243.28 327.9 241.52 327.52C239.77 327.13 237.92 326.77 236.03 326.2C234.15 325.63 232.3 324.87 230.55 323.97C228.8 323.07 227.16 322.03 225.57 320.94C222.46 318.74 219.46 316.3 216.79 313.46C214.14 310.62 211.84 307.4 210.07 303.93C209.18 302.2 208.39 300.43 207.72 298.64C206.97 296.76 206.53 294.79 206.19 292.89C205.54 289.06 205.33 285.23 205.43 281.41C205.53 277.59 205.94 273.76 206.76 269.99C207.59 266.23 208.82 262.49 210.74 259.01C211.27 258.04 212.49 257.69 213.46 258.23C214.43 258.77 214.78 259.98 214.24 260.95L214.26 260.96Z" fill="black"/>
<path d="M247.25 327.61C250.16 329.35 250.51 332.27 253.8 333.05C256.59 333.71 258.89 332.89 259.73 331.38C261.14 328.84 259.87 326.02 258.72 323.94" stroke="black" stroke-width="3" stroke-miterlimit="10" stroke-linecap="round" stroke-linejoin="round"/>
<path d="M259.41 331.83C261.03 332.74 266.85 333.25 268.7 329.72C270.82 325.67 268.04 320.73 266.3 319.51" stroke="black" stroke-width="3" stroke-miterlimit="10" stroke-linecap="round" stroke-linejoin="round"/>
<path d="M239.34 294.73C242.53 294.73 245.89 296.99 249.89 298.1C254.48 299.37 258.24 300.56 260.02 301.5C264.11 303.66 267.29 306.33 270.68 311.16C271.95 313.6 274.3 317.15 274.26 321.29C274.23 324.06 273.55 326.94 269.39 327.6" stroke="black" stroke-width="3" stroke-miterlimit="10" stroke-linecap="round" stroke-linejoin="round"/>
<path d="M236.45 258.48C238.54 264.75 241.13 270.93 243.64 277.15C244.94 280.24 246.13 283.46 247.31 286.56C248.47 289.71 249.76 292.77 250.64 296.3C250.91 297.37 250.25 298.46 249.18 298.72C248.12 298.99 247.04 298.35 246.76 297.29L246.75 297.27C246.36 295.78 245.78 294.25 245.21 292.7L243.45 288C242.29 284.81 241.19 281.71 240 278.56C237.66 272.26 235.29 265.93 233.55 259.32C233.34 258.52 233.82 257.7 234.62 257.49C235.39 257.29 236.18 257.72 236.42 258.46L236.45 258.48Z" fill="black"/>
<path d="M297.88 321.46C297.81 322.25 297.71 323.05 297.56 323.84C296.98 327.2 295.82 330.53 294.31 333.67C293.54 335.28 292.74 336.69 291.72 338.09C290.72 339.49 289.61 340.84 288.41 342.09C287.21 343.34 285.94 344.52 284.6 345.49C283.93 345.99 283.25 346.39 282.56 346.76C281.75 347.17 280.96 347.56 280.17 347.91C277.07 349.34 273.72 350.17 270.19 350.73C267.96 351.1 265.69 351.26 263.42 351.32L263.38 354.91C265.81 354.87 268.24 354.74 270.68 354.52C272.33 354.35 273.98 354.1 275.64 353.76C275.55 353.9 275.47 354.05 275.37 354.19C274.39 355.58 273.28 356.89 271.99 358.07C269.43 360.44 266.33 362.31 263.06 363.89C262.43 364.19 261.8 364.46 261.16 364.74L262.5 368.81C263.31 368.47 264.11 368.11 264.9 367.73C268.42 366.01 271.87 363.95 274.87 361.18C276.38 359.81 277.69 358.19 278.85 356.47C279.69 355.13 280.37 353.69 280.89 352.2C281.22 352.07 281.56 351.93 281.89 351.79C282.78 351.4 283.63 350.98 284.46 350.56C285.39 350.08 286.29 349.53 287.09 348.94C288.72 347.76 290.15 346.44 291.49 345.05C292.83 343.66 294.06 342.17 295.2 340.6C296.34 339.04 297.36 337.26 298.18 335.56C299.85 332.1 301.15 328.46 301.84 324.59C301.99 323.7 302.1 322.8 302.17 321.88L297.88 321.46Z" fill="black"/>
<path d="M298.99 282.99C299.52 281.15 299.74 279.33 299.77 277.53C299.78 273.94 299.25 270.43 297.9 267.03C296.53 263.68 294.62 260.81 292.54 258.1C292.43 257.95 292.3 257.81 292.18 257.67L288.51 258.96C288.85 259.41 289.2 259.85 289.53 260.31C291.34 262.93 293.02 265.68 294.06 268.5C295.05 271.28 295.5 274.43 295.43 277.43C295.39 278.93 295.22 280.42 294.83 281.76C294.45 283.1 293.85 284.28 293.05 285.03L293.01 285.06C292.17 285.85 292.11 287.16 292.88 288.02C293.66 288.89 295 288.96 295.87 288.18C296.1 287.97 296.31 287.76 296.52 287.53C297.68 289.13 298.61 291.04 299.3 293.09L300.04 285.15C299.65 284.61 299.23 284.09 298.79 283.59C298.86 283.4 298.93 283.19 298.99 282.99Z" fill="black"/>
<path d="M249.07 244.77C249.09 244.77 249.1 244.77 249.1 244.77C249.1 244.76 249.09 244.76 249.07 244.77Z" fill="black"/>
<path d="M298.95 286.32C300.64 294.79 295.88 300.48 294.75 304.71C291.03 307.34 287.48 311.17 289.25 315.47C290.2 317.78 292.99 318.53 294.64 317.07C293.8 319.39 294.83 321.33 297.02 322.03C299.21 322.74 303.49 322.76 304.43 318.1" stroke="black" stroke-width="3" stroke-miterlimit="10" stroke-linecap="round" stroke-linejoin="round"/>
<path d="M303.34 321.31C305.73 323.33 309.56 322.27 310.92 319.86C313 316.15 311.72 311.94 312.6 309.5C313.87 305.98 317.42 300.87 315.18 290.81C312.93 280.69 303.97 271.6 293.97 263.93" stroke="black" stroke-width="3" stroke-miterlimit="10" stroke-linecap="round" stroke-linejoin="round"/>
<path d="M257.24 332.46C261.28 338.42 264.46 345.25 265.33 352.71C265.75 356.41 265.63 360.22 264.7 363.93C263.77 367.62 262.02 371.13 259.69 374.11C257.36 377.12 254.47 379.55 251.45 381.65C248.4 383.75 245.04 385.39 241.58 386.63C234.63 389.13 227.18 389.8 219.98 389.2C219.15 389.13 218.54 388.41 218.61 387.58C218.68 386.78 219.36 386.18 220.15 386.2H220.17C227.05 386.41 233.98 385.6 240.29 383.13C243.44 381.91 246.44 380.32 249.17 378.35C251.91 376.39 254.47 374.18 256.44 371.56C258.48 369 259.99 366.06 260.82 362.9C261.66 359.76 261.9 356.39 261.61 353.07C261.03 346.4 258.27 339.96 254.72 334.06V334.05C254.29 333.34 254.52 332.42 255.23 331.99C255.9 331.6 256.79 331.81 257.24 332.46Z" fill="black"/>
<path d="M201.45 337.59C202.2 342.01 201.32 349.47 203.86 361C205.51 368.5 209.26 375.05 211.71 378.15" stroke="black" stroke-width="4" stroke-miterlimit="10" stroke-linecap="round" stroke-linejoin="round"/>
<path d="M207.78 370.86C205.86 372.31 204.02 373.67 202.64 375.24C201.27 376.81 200.37 378.57 200.1 380.59C199.93 381.57 199.93 382.68 199.99 383.67C200.07 384.49 200.38 385.39 200.85 386.24C201.79 387.97 203.32 389.53 205.05 390.81C206.81 392.08 208.76 393.1 210.87 393.86C213.09 394.67 215.34 395.47 217.59 396.24C222.09 397.78 226.62 399.25 231.17 400.65C235.72 402.04 240.29 403.33 244.88 404.43L248.33 405.2C249.48 405.41 250.63 405.67 251.78 405.85C254.1 406.24 256.29 406.47 258.68 406.58C261.03 406.69 263.38 406.77 265.63 406.67C266.75 406.61 267.86 406.5 268.79 406.26C269.25 406.14 269.67 405.99 269.95 405.82C270.23 405.64 270.35 405.52 270.46 405.32C270.57 405.14 270.68 404.69 270.68 404.43C270.69 404.15 270.63 403.92 270.48 403.66C270.2 403.13 269.42 402.55 268.51 402.13C266.67 401.26 264.37 400.81 262.18 400.64H262.15C261.32 400.58 260.71 399.85 260.77 399.03C260.83 398.25 261.48 397.66 262.25 397.65C263.54 397.63 264.81 397.73 266.08 397.94C267.35 398.15 268.63 398.44 269.91 398.97C271.16 399.52 272.53 400.24 273.54 401.76C274.03 402.51 274.35 403.46 274.36 404.38C274.37 405.31 274.24 406.07 273.84 406.97C273.45 407.87 272.68 408.62 271.95 409.07C271.21 409.53 270.49 409.79 269.8 409.98C268.42 410.36 267.14 410.49 265.87 410.59C263.35 410.77 260.91 410.71 258.48 410.6C256.1 410.51 253.52 410.26 251.12 409.86C249.9 409.68 248.71 409.42 247.51 409.2L243.95 408.42C239.23 407.32 234.58 406.03 229.97 404.65C225.36 403.27 220.78 401.79 216.24 400.22C213.96 399.44 211.7 398.64 209.43 397.8C207.04 396.93 204.71 395.73 202.59 394.19C200.5 392.62 198.54 390.73 197.2 388.23C196.54 386.99 196.02 385.59 195.88 384.02C195.8 382.62 195.81 381.33 196.05 379.94C196.43 377.2 197.82 374.53 199.62 372.54C201.43 370.53 203.5 369.07 205.4 367.65C206.28 366.99 207.54 367.17 208.2 368.05C208.84 368.94 208.67 370.2 207.78 370.86Z" fill="black"/>
<path d="M272.46 405.07C275 404.03 277.41 402.28 276.88 398.93C276.36 395.61 274.38 394.47 271.97 393.62C269.17 392.63 265.61 392.66 262.69 393" stroke="black" stroke-width="3" stroke-miterlimit="10" stroke-linecap="round" stroke-linejoin="round"/>
<path d="M242.67 384.21C245.97 385.03 252.55 385.87 256.88 385.87C261.21 385.87 268.16 384.9 271.52 387.19C274.33 389.1 275.57 391.94 274.14 394.6" stroke="black" stroke-width="3" stroke-miterlimit="10" stroke-linecap="round" stroke-linejoin="round"/>
<path d="M301.8 323.48C303.38 324.95 304.35 326.49 305.28 328.08C306.19 329.68 306.91 331.34 307.54 333.03C308.78 336.42 309.56 339.95 309.86 343.54C310.17 347.13 309.95 350.76 309.23 354.29C308.48 358 306.69 361.43 304.2 364.21C301.72 367.02 298.48 369.08 295.02 370.34C291.49 371.55 287.99 371.99 284.44 372.19C277.35 372.54 270.14 371.09 263.79 367.91C263.05 367.54 262.75 366.64 263.11 365.9C263.47 365.17 264.36 364.87 265.1 365.21C271.05 368.04 277.71 369.2 284.26 368.79C287.52 368.57 290.87 368.06 293.79 367C296.73 365.87 299.4 364.11 301.42 361.75C303.45 359.42 304.88 356.55 305.44 353.54C306.04 350.36 306.15 347.1 305.87 343.88C305.58 340.66 304.87 337.46 303.74 334.43C303.18 332.92 302.51 331.45 301.74 330.06C300.99 328.7 300.07 327.32 299.14 326.46L299.07 326.4C298.26 325.65 298.22 324.38 298.98 323.57C299.73 322.77 300.99 322.73 301.8 323.48Z" fill="black"/>
<path d="M259.77 370.94C261.74 372.72 263.97 374.4 266.25 375.98C268.53 377.57 270.84 379.13 273.2 380.63C277.93 383.59 282.69 386.54 287.61 389.14C290.06 390.43 292.53 391.73 295.01 392.77C296.17 393.25 297.36 393.59 298.49 393.7C299.61 393.8 300.67 393.62 301.28 393.19C301.59 392.98 301.81 392.74 301.97 392.41C302.09 392.09 302.17 391.75 302.12 391.35C302.01 390.54 301.45 389.57 300.64 388.78C298.99 387.17 296.55 386.2 294.07 385.99H294.04C293.21 385.92 292.6 385.19 292.67 384.37C292.74 383.59 293.4 383 294.17 383C297.3 383.01 300.51 384.01 303.04 386.2C304.27 387.32 305.39 388.8 305.76 390.79C305.93 391.79 305.81 392.88 305.43 393.88C305.04 394.85 304.33 395.73 303.48 396.33C301.75 397.54 299.84 397.68 298.18 397.58C296.5 397.44 294.95 397 293.51 396.42C290.78 395.31 288.24 394.01 285.73 392.63C283.22 391.26 280.76 389.83 278.34 388.35C275.9 386.89 273.52 385.33 271.17 383.74C268.82 382.14 266.49 380.5 264.22 378.77C261.96 377.01 259.73 375.23 257.66 373.07C257.09 372.47 257.11 371.52 257.71 370.95C258.28 370.4 259.17 370.4 259.75 370.92L259.77 370.94Z" fill="black"/>
<path d="M303.71 393.12C308.75 393.87 310.76 391.26 310.91 388.32C311.15 383.84 306.2 381.59 302.67 381.59" stroke="black" stroke-width="3" stroke-miterlimit="10" stroke-linecap="round" stroke-linejoin="round"/>
<path d="M285.69 370.57C292.37 373.25 297.18 374.72 300.12 375.42C305.22 376.64 309.64 376.12 312.45 380.76C314.35 383.89 312.72 386.9 310.92 387.79" stroke="black" stroke-width="3" stroke-miterlimit="10" stroke-linecap="round" stroke-linejoin="round"/>
</svg>
