<svg width="450" height="450" viewBox="0 0 450 450" fill="none" xmlns="http://www.w3.org/2000/svg">
<path d="M361.96 249.12L354.97 246.37L352.21 241.58L345.01 241.08L335.2 247.92L330.89 253.75L332.36 262.76L339.02 266.27L344.87 271.35L349.55 268.57L354.97 268.04L357.7 262.39L362.99 256.88L361.96 249.12Z" fill="#F7F7F7"/>
<path d="M198.06 243.36L196.81 250.79L200.43 256.27L198.06 265.42L201.16 274.25L213.22 283.72L229.08 289.97L227.57 320.19L223.38 346.35L242.05 354.51L265.52 356.72L267.71 345.78L266.94 321.19L264.19 292.51L280.55 293.3L304.45 288.01L315.86 278.27L315.67 264.29L318.97 257.38L314.63 248.54L306.25 243.25L296.65 249.79L278.82 250.46L260.22 241.89L246.29 245.66L230.3 245.07L215.29 241.58L206.87 240.44L198.06 243.36Z" fill="#DEB681"/>
<path d="M215.29 241.58C213.22 241.45 210.81 241.07 208.2 240.44C201.89 240.44 198.4 242.76 197.3 246.96C196.52 249.97 196.33 253.28 199.34 255.54C202.65 258.02 208.25 259.6 214.4 259.49" stroke="black" stroke-width="4" stroke-miterlimit="10" stroke-linecap="round" stroke-linejoin="round"/>
<path d="M200.43 256.27C198.03 259.49 196.29 268.05 201.16 274.25C206.37 280.88 214.89 285.29 222.83 287.29C238.85 291.33 249.45 292.51 276.18 292.51C289.92 292.51 302.3 289.24 308.01 285.01C317.59 277.92 318.49 268.71 315.67 264.29C318.4 262.45 319.07 257.4 317.22 253C315.24 248.28 311.65 244.35 306.24 243.25C302.24 249.39 292.97 250.79 284.57 250.79C275.89 250.79 262.19 245.78 260.22 241.9C258.07 242.5 251.69 244.76 243.36 245.1C230.67 245.61 224.09 245.1 215.28 241.58" stroke="black" stroke-width="4" stroke-miterlimit="10" stroke-linecap="round" stroke-linejoin="round"/>
<path d="M255.74 253.73C261.71 257.14 288.4 259.5 296.64 249.79" stroke="black" stroke-width="4" stroke-miterlimit="10" stroke-linecap="round" stroke-linejoin="round"/>
<path d="M206.05 258.55C207.14 261.44 207.55 267.39 212.96 270.69C220.43 275.25 230.03 276.34 240.72 274.72" stroke="black" stroke-width="4" stroke-miterlimit="10" stroke-linecap="round" stroke-linejoin="round"/>
<path d="M229.03 288.76C229.74 302.55 226.9 333.53 223.38 346.34C226.89 352.32 255.07 358.55 265.51 356.71C268.21 346.36 266.68 299.56 264.18 292.51" stroke="black" stroke-width="4" stroke-miterlimit="10" stroke-linecap="round" stroke-linejoin="round"/>
<path d="M354.58 247.21C358.28 246.79 363.01 249.61 363.15 254.76C363.29 259.91 359.76 262.52 356.8 262.45C357.13 263.61 357.1 265.87 355.64 267.07C354.1 268.34 351.25 268.21 349.96 267.74C349.4 269.22 347.77 271.27 343.89 270.85C341.36 270.57 339.03 268.51 339.03 266.26C336.87 266.2 331.78 264.76 330.97 259.13C329.97 252.14 334.2 247.43 338.17 247.91C339.79 243.39 345.65 240.22 350.1 241.27C354.55 242.32 354.83 246.35 354.48 248.68" stroke="#707991" stroke-width="4" stroke-miterlimit="10" stroke-linecap="round" stroke-linejoin="round"/>
</svg>
