<svg width="450" height="450" viewBox="0 0 450 450" fill="none" xmlns="http://www.w3.org/2000/svg">
<path d="M346.35 379.74L349.82 383.74L346.09 390.09L340.81 391.79L333.8 396.56L322.3 392.33L315.19 398.18L306.39 397.01L298.96 392.96L280.5 392.3L272.22 386.05L277.84 362.77L288.73 360.89L302.85 358L303.84 366.25L316.44 374.35L332.45 380.37L346.35 379.74Z" fill="#EDD1B7"/>
<path d="M342.06 389.35C343.01 389.69 344.07 389.46 344.86 388.82C345.25 388.51 345.54 388.1 345.67 387.74C345.8 387.37 345.76 387.11 345.66 386.91L345.6 386.57C345.48 385.87 345.77 385.19 346.29 384.77C346.78 384.38 347.1 383.83 347.13 383.53C347.14 383.38 347.14 383.3 347.09 383.18C347.09 383.16 346.97 382.94 346.89 382.83C346.81 382.69 346.71 382.56 346.6 382.44C346.18 381.94 345.64 381.56 345.04 381.36C344.74 381.25 344.43 381.19 344.1 381.17C343.94 381.15 343.77 381.16 343.6 381.16C343.4 381.18 343.32 381.18 343.02 381.22C338.92 381.71 334.9 381.74 330.92 381.75C329.82 381.75 328.92 380.86 328.92 379.75C328.92 378.65 329.81 377.75 330.92 377.75H330.93C334.86 377.74 338.78 377.7 342.54 377.25C342.73 377.22 343.14 377.19 343.44 377.17C343.77 377.17 344.09 377.16 344.43 377.19C345.09 377.24 345.76 377.37 346.39 377.6C347.67 378.05 348.8 378.85 349.66 379.86C349.88 380.11 350.08 380.38 350.26 380.66C350.45 380.96 350.59 381.18 350.78 381.61C351.13 382.4 351.23 383.34 351.1 384.16C350.81 385.83 349.88 386.99 348.86 387.86L349.49 385.72C349.86 387 349.61 388.38 349.06 389.38C348.51 390.4 347.73 391.17 346.84 391.72C345.95 392.27 344.94 392.61 343.89 392.69C342.84 392.77 341.76 392.55 340.84 392.09C340.1 391.72 339.8 390.82 340.17 390.08C340.51 389.39 341.31 389.08 342.02 389.34L342.06 389.35Z" fill="black"/>
<path d="M343.2 391.68C342.74 392.52 342.17 393.46 341.42 394.28C340.68 395.11 339.78 395.82 338.85 396.37C337.9 396.92 337 397.31 335.95 397.64C334.83 397.98 333.73 398.1 332.68 398.09C330.56 398.07 328.54 397.6 326.64 396.79C324.75 395.96 322.94 394.75 321.55 392.95L324.95 392.61C324.09 394.34 323.08 395.88 321.66 397.31C320.95 398.01 320.12 398.68 319.11 399.18C318.03 399.71 317.05 399.91 316.05 400.07C314.04 400.32 312.07 400.1 310.23 399.61C308.39 399.09 306.66 398.37 305.02 397.28L304.42 396.85C304.28 396.76 304.16 396.66 304.02 396.57C303.74 396.39 303.45 396.23 303.14 396.09C302.52 395.8 301.83 395.56 301.1 395.38C299.64 395 298.04 394.82 296.43 394.7C294.81 394.59 293.17 394.56 291.51 394.57C290.68 394.59 289.85 394.59 289.05 394.64C288.22 394.68 287.34 394.73 286.46 394.74C284.69 394.78 282.88 394.71 281.03 394.41C280.1 394.25 279.17 394.03 278.23 393.71C277.31 393.38 276.33 392.91 275.53 392.37C273.88 391.28 272.42 389.81 271.43 388C270.93 387.1 270.55 386.11 270.34 385.06C270.24 384.54 270.17 384 270.16 383.45C270.13 382.91 270.2 382.31 270.26 381.87C270.79 378.08 272.31 374.84 273.58 371.75C274.86 368.68 276.05 365.62 275.86 362.89V362.88C275.8 362 276.32 361.21 277.1 360.9C279.19 360.05 281.41 359.43 283.68 359.13C284.81 358.98 285.96 358.91 287.06 358.89L288.64 358.87C288.79 358.86 288.63 358.88 288.72 358.86C288.75 358.86 288.83 358.83 288.9 358.82C289.07 358.77 289.26 358.7 289.48 358.62C291.25 357.9 293.34 356.85 295.67 356.32C296.84 356.05 298.11 355.9 299.42 356.01C300.73 356.12 302.08 356.53 303.25 357.2C303.9 357.58 304.26 358.27 304.25 358.98V359C304.21 360.67 303.88 362.58 304.1 363.16C304.19 363.48 304.45 363.9 304.9 364.4L305.25 364.77C305.37 364.88 305.44 364.96 305.58 365.08C305.82 365.3 306.12 365.53 306.41 365.75C308.83 367.57 311.54 369.25 314.24 370.82C316.96 372.38 319.75 373.83 322.59 375.08C325.42 376.3 328.37 377.4 331.15 377.73L331.21 377.74C332.31 377.87 333.09 378.87 332.96 379.97C332.83 381.07 331.83 381.85 330.73 381.71H330.72C327.12 381.26 324.03 380.04 320.99 378.75C317.97 377.43 315.07 375.92 312.24 374.3C309.41 372.66 306.67 370.97 303.97 368.94C303.63 368.68 303.29 368.42 302.94 368.1C302.77 367.96 302.56 367.76 302.39 367.59L301.91 367.09C301.29 366.4 300.59 365.49 300.23 364.27C299.89 363.02 300.01 361.99 300.07 361.18C300.14 360.36 300.2 359.62 300.23 358.88L301.23 360.68C299.93 359.91 298.32 359.82 296.55 360.24C295.67 360.44 294.77 360.76 293.85 361.12C292.92 361.49 292.01 361.92 290.92 362.36C290.65 362.47 290.34 362.58 290.01 362.68C289.82 362.73 289.65 362.78 289.42 362.82C289.26 362.86 288.83 362.89 288.72 362.89L287.14 362.91C286.13 362.92 285.17 362.99 284.21 363.12C282.3 363.37 280.43 363.9 278.61 364.63L279.85 362.64C279.99 364.68 279.62 366.6 279.11 368.35C278.59 370.11 277.93 371.74 277.27 373.32C275.96 376.46 274.62 379.47 274.22 382.43C273.79 384.91 275.38 387.53 277.73 389.05C279.95 390.55 283.19 390.82 286.39 390.77C287.2 390.75 288.01 390.71 288.87 390.67C289.76 390.62 290.62 390.62 291.48 390.6C293.21 390.59 294.95 390.61 296.72 390.74C298.48 390.87 300.27 391.06 302.1 391.53C303.01 391.76 303.94 392.06 304.85 392.49C305.31 392.7 305.76 392.95 306.19 393.22C306.41 393.35 306.62 393.51 306.83 393.66L307.27 393.97C309.67 395.52 312.85 396.47 315.54 396.12C316.2 396.02 316.9 395.85 317.34 395.62C317.85 395.37 318.37 394.97 318.86 394.48C319.84 393.51 320.72 392.19 321.36 390.89C321.85 389.89 323.06 389.48 324.05 389.97C324.33 390.11 324.57 390.31 324.76 390.55C325.59 391.62 326.84 392.52 328.25 393.13C329.66 393.73 331.23 394.09 332.72 394.1C333.47 394.12 334.18 394.01 334.79 393.83C335.47 393.62 336.23 393.29 336.84 392.93C338.11 392.18 338.92 391.24 339.72 389.76C340.24 388.79 341.45 388.42 342.43 388.94C343.41 389.46 343.77 390.67 343.25 391.65C343.25 391.65 343.25 391.66 343.24 391.66L343.2 391.68Z" fill="black"/>
<path d="M330.02 383.81C334.25 384.89 337.93 382.87 339.92 384.24C342.8 386.22 341.9 387.57 341.45 390.72" stroke="black" stroke-width="3" stroke-miterlimit="10" stroke-linecap="round" stroke-linejoin="round"/>
<path d="M336.29 340.57L328.29 341.62L326.17 338.55L328.81 330.27L323.73 331.75L319.3 327.07L323.12 316.17L326.3 304.06L327.16 299.82L326.17 294.22L337.78 289.36L346.31 293.94L354.18 304.86L355.11 326.08L347.51 332.21L342.36 338.08L336.29 340.57Z" fill="#EDD1B7"/>
<path d="M330.31 327.25C328.52 329.85 326.64 331.86 322.45 330.84C318.28 329.82 319.63 323.64 321.46 319.55C323.3 315.46 324.59 314.19 325.07 310.23C325.55 306.28 325.79 299.92 325.79 296.21C328.71 291.89 335.01 289.14 339.91 289.24C344.62 289.99 353 299.22 354.17 304.86C355.34 310.51 356.38 321.71 355.53 324.53C355.11 325.94 353.88 328.39 351.55 329.39C350.05 331.3 348.36 332.95 347.16 333.38C345.18 336.77 340.67 341.57 336.29 340.58C334.03 342.56 329.48 343.89 327.54 340.71C325.56 337.47 327.54 334.29 328.81 331.86C330.08 329.43 331.21 323.92 331.07 320.39" stroke="black" stroke-width="4" stroke-miterlimit="10" stroke-linecap="round" stroke-linejoin="round"/>
<path d="M354.18 304.86C355.35 310.51 355.93 321.61 355.54 324.53C355.26 326.65 353.89 328.39 351.56 329.39" stroke="black" stroke-width="4" stroke-miterlimit="10" stroke-linecap="round" stroke-linejoin="round"/>
<path d="M336.74 339.79C338.96 338 341.38 333.46 341.8 329.39" stroke="black" stroke-width="3" stroke-miterlimit="10" stroke-linecap="round" stroke-linejoin="round"/>
<path d="M347.16 333.37C348.2 329.89 349.14 326.78 349.04 323.58" stroke="black" stroke-width="3" stroke-miterlimit="10" stroke-linecap="round" stroke-linejoin="round"/>
<path d="M231.75 426.42L221.35 418.57L205.9 411.25L192.73 406.48L190.32 397.6L202.6 381.47L206.03 369.6L224.79 371.16L236.83 367.37L244.27 368.92L249.37 382.69L259.05 396.51L275.36 403.89L294.92 408.04L301.02 412.05L299.86 422.03L291.69 426.24L285.79 426.22L269.3 432.34L258.65 433.83L251.28 427.9L231.75 426.42Z" fill="#EDD1B7"/>
<path d="M251.28 427.9C252.07 430.62 254.99 433.23 258.66 433.84C260.88 434.21 264.37 434.52 265.83 432.29C270.08 432.9 274.46 431.6 276.4 427.9C281.61 429.81 283.66 427.74 285.5 424.94C294.32 428.68 299.92 423.8 300.93 418.59C301.37 416.32 300.9 411.28 299 409.47C297.14 408.44 293.11 407.36 289.1 407.37C285.59 407.38 280.34 405.74 275.38 403.9C267.97 401.16 260.65 397.26 255.67 390.84C250.68 384.42 245.95 369.05 239.68 367.62C233.41 366.19 229.23 371.81 222.29 370.96C214.9 370.05 209.82 366.64 206.05 369.62C202.28 372.6 204.17 376.28 201.42 380.85C198.49 385.73 194.86 387.24 191.43 394.75C190.11 397.64 188.64 404.21 192.45 407.77C196.26 411.33 205.03 410.34 211.03 412.35C217.03 414.36 224.62 425.2 234.93 427.41C245.24 429.62 251.32 428.31 254.1 426.93" stroke="black" stroke-width="4" stroke-miterlimit="10" stroke-linecap="round" stroke-linejoin="round"/>
<path d="M265.59 431.91C268.38 428.27 267.43 424.49 263.79 421.7" stroke="black" stroke-width="3" stroke-miterlimit="10" stroke-linecap="round" stroke-linejoin="round"/>
<path d="M270.99 415.6C274.7 417.44 278.16 423.98 276.4 427.9" stroke="black" stroke-width="3" stroke-miterlimit="10" stroke-linecap="round" stroke-linejoin="round"/>
<path d="M285.49 424.93C287.14 422 286.43 416.89 281.28 415.29" stroke="black" stroke-width="3" stroke-miterlimit="10" stroke-linecap="round" stroke-linejoin="round"/>
<path d="M280.88 345.19L277.99 351.55L270.88 352.36L270.66 358.15L262.8 360.06L255.29 360.65L249.69 358.7L241.09 358.84L234.24 351.58L230.76 345.59L228.18 330.21L232.8 316.03L236.06 306.51L248.2 300.99L262.38 304.6L272.67 316.19L276.29 323.24L280.63 330.52L280.88 345.19Z" fill="#EDD1B7"/>
<path d="M271.61 351.52C276.23 352.94 280.7 350.25 280.62 346.53C280.58 344.67 279.63 342.25 279.35 339.8C279.07 337.35 279.47 334.85 279.47 332.17C279.47 326.79 274.9 324.24 273.07 318.11C271.24 311.98 261.11 300.8 253.3 301C245.49 301.2 236.4 302.86 235.56 307.91C234.72 313.02 228.01 325.52 228.16 330.22C228.31 334.92 228.46 344.16 232.18 347.43C234.71 354.13 239.93 358.9 242.61 359.5C245.29 360.1 249.31 360.39 251.4 359.5" stroke="black" stroke-width="4" stroke-miterlimit="10" stroke-linecap="round" stroke-linejoin="round"/>
<path d="M244.27 346.23C244.55 354.2 250.75 358.97 256.64 361.2C260.1 362.51 262.81 361.36 264.49 360.05" stroke="black" stroke-width="4" stroke-miterlimit="10" stroke-linecap="round" stroke-linejoin="round"/>
<path d="M254.4 346.68C254.57 348.37 256.44 352.66 259.43 355.69C262.42 358.72 266.52 360.48 269.29 359.09C274.82 356.31 270.44 349.72 269.29 346.23C268.56 344.01 267.23 340.07 267.22 337.03C267.22 335.29 268.05 333.84 268.66 333.17" stroke="black" stroke-width="4" stroke-miterlimit="10" stroke-linecap="round" stroke-linejoin="round"/>
</svg>
