<svg width="100%" height="100%" viewBox="0 0 450 450" fill="none" xmlns="http://www.w3.org/2000/svg" style="display: block;">
<path d="M323.19 384.42L315.07 379.81L303.16 383.65L294.97 379.67L297.02 371.06L285.59 369.85L284.91 374.56L279.65 376.46L271.3 370.4L263.33 371.81L261.09 377.72L262.51 382.09L264.35 384.81L262.56 391.23L261.59 402.09L270.07 403.88L275.85 406.87L294.16 413.76L311.41 413.8L323.07 409.61L328.65 402.72L329.82 395.4L323.19 384.42Z" fill="#4D4D4D"/>
<path d="M289.41 384.84L294.53 380.64L301.23 384.67L295.53 389.99L292.29 389.38L289.41 384.84Z" fill="#E0DCD5"/>
<path d="M284.83 376.05L277.78 377.51L269.72 377.05L270.28 371.79L285.5 363.32L284.83 376.05Z" fill="BODY_PLACEHOLDER"/>
<path d="M263.96 401.28C278.86 399.57 286.19 405.87 292.95 406.99C300.79 408.29 309.13 408.23 312.35 406.87C315.97 405.33 319.25 402.75 323.29 400.72C326.59 399.06 329 400.61 328.64 402.71C327.26 405.36 318.94 410.57 318.94 410.57L306.8 413.67L291.79 410.78L283.02 407.37L275.85 406.85L263.96 401.28Z" fill="#E0DCD5"/>
<path d="M288 375.7C282.52 378.61 271.64 378.05 267.74 376.08" stroke="black" stroke-width="3" stroke-miterlimit="10" stroke-linecap="round" stroke-linejoin="round"/>
<path d="M284.78 376.86C285.1 373.81 286.26 365.12 287.29 361.27" stroke="black" stroke-width="3" stroke-miterlimit="10" stroke-linecap="round" stroke-linejoin="round"/>
<path d="M286.01 366.93C288.1 366.4 290.39 366.3 292.64 367.02C293.76 367.37 294.85 367.97 295.79 368.82C296.73 369.66 297.49 370.81 297.86 372.05C298.17 373.11 298.36 374.28 298.27 375.5C298.19 376.71 297.8 377.96 297.15 378.97C295.84 381.04 293.94 382.2 292.12 383.04C291.37 383.39 290.47 383.06 290.12 382.31C289.8 381.62 290.05 380.82 290.66 380.42L290.7 380.4C292.14 379.47 293.42 378.38 294 377.18C294.59 376 294.57 374.71 294.04 373.26C293.68 372.18 292.7 371.38 291.37 370.95C290.04 370.52 288.46 370.54 286.92 370.83L286.87 370.84C285.79 371.05 284.74 370.34 284.53 369.25C284.34 368.2 285 367.19 286.01 366.93Z" fill="black"/>
<path d="M270.22 376.03L271.3 370.4" stroke="black" stroke-width="3" stroke-miterlimit="10" stroke-linecap="round" stroke-linejoin="round"/>
<path d="M266.77 383.62C263.72 383.09 261.09 381.79 260.91 379.11C260.77 377 261.14 371.9 267 370.15" stroke="black" stroke-width="3" stroke-miterlimit="10" stroke-linecap="round" stroke-linejoin="round"/>
<path d="M263.33 384.02C262.07 387.56 260.78 392.68 261.7 400.1" stroke="black" stroke-width="3" stroke-miterlimit="10" stroke-linecap="round" stroke-linejoin="round"/>
<path d="M295.92 380.85C297.71 382.55 299.43 383.09 301.55 383.11C305.21 382.13 312.34 378.93 319.25 381.77C324.88 384.08 329.1 389.97 329.83 395.4C330.69 401.8 327.82 407.38 318.91 411.32C313.4 413.75 304.1 414.54 299.87 413.98C292.43 413 290.16 412.05 285.23 409.77C282.27 408.4 279.51 407.47 277.88 407.4" stroke="black" stroke-width="4" stroke-miterlimit="10" stroke-linecap="round" stroke-linejoin="round"/>
<path d="M288.81 354.95C287.97 356.06 287.04 357.11 286 358.07C283.44 360.44 280.34 362.31 277.07 363.89C273.78 365.45 270.31 366.71 266.77 367.81C265.1 368.34 263.4 368.77 261.69 369.14V373.51C263.83 373.08 265.96 372.56 268.05 371.9C271.72 370.75 275.37 369.42 278.92 367.74C282.44 366.02 285.89 363.96 288.89 361.19C290.4 359.82 291.71 358.2 292.87 356.48C293.18 355.99 293.46 355.48 293.72 354.96H288.81V354.95Z" fill="black"/>
<path opacity="0.4" d="M320.78 387.97C323.58 391.46 322.78 393.47 321.49 393.91C320.35 394.3 318.08 392.53 316.89 390.97C315.02 388.51 314.18 386.53 315.17 385.84C316.57 384.86 319.56 386.45 320.78 387.97Z" fill="white"/>
<path d="M264.22 387.88C265.63 388.32 267.8 388.77 269.08 388.76" stroke="black" stroke-width="3" stroke-miterlimit="10" stroke-linecap="round" stroke-linejoin="round"/>
<path d="M301.55 383.11C300.26 386.47 296.78 389.1 295.53 389.98C291.05 390.78 288.67 388.02 288.86 385.54C288.51 383.97 291.42 381.7 291.42 381.7" stroke="black" stroke-width="3" stroke-miterlimit="10" stroke-linecap="round" stroke-linejoin="round"/>
<path d="M248.56 397.8L243.32 394.09L245.36 391.66L247.25 389.84L248.28 384.34L244.01 378.16L238.46 377.59L234.73 385.7L224.57 385.53L219.78 383.7V376.9L211.97 375.84L206.7 379.03L205.63 382.59L207.45 390.42L205.97 397.16L202.21 410L208.68 423.6L222.42 430.66L239.23 441.32L260.16 443.45L280.09 436.85L285.63 426.12L286.65 414.7L278.63 400.96L264 397.34L248.56 397.8Z" fill="#666666"/>
<path d="M203.63 409.55C205.97 415.5 211.17 419.13 217.25 421.23C222.93 423.2 228.65 426.16 233.46 431.1C234.72 432.39 239.86 434.84 245.9 436.16C251.22 437.32 257.23 437.61 261.91 435.45C267.42 432.91 269.96 429.94 276.35 427.98C280.25 426.78 283.84 428.12 283.84 430.21C281.75 434.85 263.43 442.09 263.43 442.09L241.74 441.69L225.34 432.26L213.18 426.05L205.99 420.65L203.63 409.55Z" fill="#E0DCD5"/>
<path d="M338.18 325.32L334.07 335.97L327.48 339.42L315.45 340.02L310.98 338.91L315.14 321.34L311.87 313.5L316.26 306.16L315.3 294.73L327.71 288.01L331.02 289.49L331.33 295.76L338 310.97L338.18 325.32Z" fill="#F9F9F9"/>
<path d="M303.62 257.36L310.26 268.55L319.07 279.76L324.12 290.25L316.35 292.24L311.29 283.09L311.01 271.66L301.2 254.23L303.62 257.36Z" fill="BODY_PLACEHOLDER"/>
<path d="M235.88 384.06L228.17 385.91L219.78 383.69L219.89 358.53C220.18 351.57 228.03 350.07 230.93 351.66L235.35 357.38L235.88 384.06Z" fill="BODY_PLACEHOLDER"/>
<path d="M303.62 257.36C314.12 271.59 320.07 281.57 325 288.72" stroke="black" stroke-width="3" stroke-miterlimit="10" stroke-linecap="round" stroke-linejoin="round"/>
<path d="M325.95 314.05C325.64 313.89 325 313.62 324.19 314.34C324.51 315.8 325.6 321.36 324.45 325.53C323.9 327.53 322.49 329.4 319.35 329.97C316.75 330.44 315.34 329.06 314.2 327.81" stroke="black" stroke-width="3" stroke-miterlimit="10" stroke-linecap="round" stroke-linejoin="round"/>
<path d="M314.6 291.28C316.45 290.29 318.34 289.36 320.33 288.57C322.32 287.79 324.41 287.12 326.68 286.86C327.82 286.75 329.02 286.71 330.32 287.02C330.96 287.18 331.63 287.43 332.26 287.86C332.9 288.3 333.38 288.83 333.77 289.43C334.54 290.61 334.85 292.16 334.49 293.59C334.15 295.03 333.24 296.11 332.31 296.9L332.5 294.82C334.42 297.1 336.01 299.66 337.22 302.37C338.43 305.08 339.31 307.92 339.9 310.79C340.48 313.67 340.82 316.59 340.94 319.52C340.98 322.76 340.29 325.67 339.37 328.53C338.89 329.95 338.33 331.35 337.66 332.72C337.33 333.38 336.93 334.12 336.46 334.8C336 335.48 335.49 336.12 334.93 336.7C333.81 337.87 332.56 338.87 331.19 339.68C329.82 340.49 328.37 341.17 326.67 341.56C326.23 341.65 325.78 341.72 325.27 341.74C324.79 341.75 324.38 341.75 323.9 341.69C322.98 341.58 321.93 341.33 320.97 340.65C320 339.99 319.31 338.96 318.99 338.01C318.81 337.53 318.71 337.07 318.63 336.61C318.6 336.39 318.57 336.16 318.55 335.95C318.54 335.71 318.51 335.58 318.52 335.25C318.53 334.07 318.94 333.06 319.34 332.34C319.75 331.6 320.16 331 320.54 330.43C321.3 329.3 321.93 328.28 322.42 327.14L322.44 327.09C322.77 326.32 323.65 325.97 324.42 326.29C325.07 326.57 325.42 327.24 325.32 327.91C325.07 329.5 324.44 331.04 323.74 332.32C323.04 333.6 322.42 334.78 322.52 335.21C322.51 335.24 322.54 335.45 322.55 335.56L322.6 335.95C322.65 336.19 322.7 336.42 322.78 336.6C322.93 336.98 323.09 337.16 323.3 337.3C323.5 337.45 323.87 337.55 324.34 337.6C324.56 337.62 324.86 337.62 325.09 337.61C325.29 337.6 325.54 337.55 325.79 337.5C326.84 337.25 328 336.74 329.04 336.1C330.1 335.47 331.07 334.68 331.9 333.8C332.33 333.37 332.7 332.9 333.04 332.42C333.38 331.94 333.66 331.44 333.97 330.85C334.56 329.69 335.07 328.47 335.51 327.21C336.36 324.72 336.98 322.04 336.96 319.62C336.92 316.9 336.67 314.18 336.2 311.51C335.24 306.18 333.38 301.01 330.18 296.7C329.7 296.05 329.8 295.16 330.37 294.62C331.59 293.51 331.81 292.27 331.07 291.21C330.68 290.68 330.3 290.45 329.58 290.3C328.88 290.16 328.02 290.19 327.14 290.32C325.36 290.59 323.56 291.23 321.8 292.02C320.03 292.81 318.3 293.75 316.6 294.76C315.65 295.33 314.42 295.01 313.86 294.07C313.29 293.12 313.61 291.89 314.55 291.33C314.55 291.31 314.58 291.29 314.6 291.28Z" fill="black"/>
<path d="M321.54 338.48C318.51 340.03 314.02 340.23 310.98 338.91" stroke="black" stroke-width="4" stroke-miterlimit="10" stroke-linecap="round" stroke-linejoin="round"/>
<path d="M236.84 357.17C237.21 359.4 237.43 361.58 237.63 363.77C237.83 365.96 237.98 368.14 238.11 370.33C238.24 372.52 238.34 374.71 238.4 376.9C238.46 379.1 238.51 381.29 238.44 383.55C238.41 384.65 237.49 385.52 236.38 385.49C235.27 385.46 234.41 384.54 234.44 383.43C234.44 383.41 234.44 383.38 234.44 383.36V383.33C234.58 381.25 234.62 379.08 234.64 376.93C234.66 374.78 234.64 372.61 234.6 370.46C234.55 368.3 234.48 366.14 234.38 363.99C234.27 361.84 234.13 359.69 233.87 357.61V357.58C233.77 356.76 234.35 356.01 235.17 355.91C235.98 355.82 236.71 356.38 236.84 357.17Z" fill="black"/>
<path d="M221.69 355.38C221.77 355.73 221.88 356.16 221.9 356.44L222.01 357.34C222.05 357.91 222.12 358.5 222.14 359.06C222.21 360.2 222.26 361.32 222.3 362.45C222.38 364.7 222.41 366.94 222.43 369.18C222.44 371.42 222.44 373.66 222.41 375.91C222.37 378.16 222.33 380.39 222.17 382.71C222.1 383.81 221.14 384.65 220.04 384.57C218.94 384.5 218.1 383.54 218.18 382.44C218.18 382.42 218.18 382.4 218.19 382.37V382.33C218.41 380.21 218.54 377.98 218.66 375.78C218.78 373.57 218.86 371.35 218.93 369.14C219 366.92 219.05 364.71 219.05 362.5C219.05 361.4 219.05 360.29 219.02 359.21C219.01 358.66 218.98 358.13 218.96 357.59L218.9 356.83C218.88 356.55 218.84 356.45 218.82 356.25L218.79 355.82C218.73 355.01 219.33 354.3 220.14 354.23C220.88 354.18 221.53 354.68 221.69 355.38Z" fill="black"/>
<path d="M231.95 401.83L237.52 397.16L243.51 395.65L247.58 399.61L241.34 406.34L239.02 408.22L231.95 401.83Z" fill="#E0DCD5"/>
<path d="M216.03 380.01C216.7 380.4 217.58 380.79 218.52 381.05C219.45 381.34 220.44 381.56 221.44 381.76C223.44 382.14 225.49 382.38 227.55 382.49C229.64 382.61 231.71 382.64 233.71 382.51C235.72 382.39 237.56 381.89 239.82 381.42C240.63 381.25 241.43 381.77 241.6 382.58C241.75 383.3 241.35 384.01 240.69 384.28L240.63 384.3C239.68 384.68 238.66 385.09 237.55 385.46C236.44 385.81 235.28 386.07 234.14 386.24C231.83 386.59 229.56 386.58 227.33 386.48C225.07 386.36 222.81 386.05 220.59 385.46C219.48 385.17 218.38 384.8 217.28 384.33C216.2 383.83 215.1 383.27 214.08 382.31C213.48 381.74 213.46 380.79 214.03 380.19C214.52 379.68 215.29 379.59 215.87 379.93L216.03 380.01Z" fill="black"/>
<path d="M236.62 376.73C239.24 376.27 242.09 376.03 244.98 377.19C246.4 377.78 247.74 378.84 248.59 380.2C249.45 381.56 249.88 383.02 250.04 384.52C250.34 387.55 249.3 390.57 247.48 392.87C245.67 395.19 243 396.91 239.98 397.45H239.97C238.88 397.65 237.84 396.92 237.65 395.84C237.45 394.75 238.18 393.71 239.26 393.52C239.28 393.52 239.31 393.51 239.33 393.51C241.3 393.23 243.21 392.12 244.55 390.52C245.9 388.92 246.67 386.84 246.54 384.82C246.47 383.82 246.19 382.79 245.72 382C245.25 381.2 244.56 380.59 243.66 380.17C241.85 379.34 239.43 379.33 237.12 379.69H237.1C236.28 379.82 235.52 379.26 235.39 378.44C235.27 377.63 235.82 376.88 236.62 376.73Z" fill="black"/>
<path d="M219.45 378.36C218.16 378.19 216.88 378.05 215.62 378.06C214.37 378.03 213.13 378.13 211.99 378.39C210.85 378.65 209.82 379.06 209.05 379.66C208.26 380.27 207.76 380.95 207.43 381.99C206.69 384.08 206.88 386.31 207.92 388.33C208.98 390.36 210.82 392.13 212.85 393.7L212.88 393.72C213.54 394.23 213.66 395.17 213.15 395.83C212.69 396.43 211.86 396.58 211.22 396.22C208.71 394.81 206.29 392.9 204.64 390.15C203.81 388.79 203.26 387.2 203.08 385.55C202.9 383.9 203.1 382.21 203.64 380.68C204.11 379.11 205.28 377.45 206.7 376.46C208.14 375.45 209.74 374.9 211.28 374.67C214.38 374.2 217.33 374.62 220.09 375.44C220.89 375.68 221.34 376.51 221.1 377.31C220.89 378.03 220.19 378.47 219.47 378.37L219.45 378.36Z" fill="black"/>
<path d="M243.32 394.09C244.71 395.42 246.75 396.7 248.59 399.24C251.79 396.53 269.48 393.84 279.06 402.21C288.64 410.58 288.3 424.51 282.8 431.74C277.27 439.02 266.1 442.08 259.87 442.55C249.42 443.33 242.94 442.21 234.46 438.6C229.63 436.55 227.38 433.53 222.43 430.65C215.52 426.63 210.44 426.46 205.68 418.75C202.47 413.55 202.36 408.9 203.29 404.43C204.43 398.9 206.22 396.71 207.63 391.9" stroke="black" stroke-width="4" stroke-miterlimit="10" stroke-linecap="round" stroke-linejoin="round"/>
<path d="M263.07 244.77C263.09 244.77 263.1 244.77 263.1 244.77C263.1 244.76 263.09 244.76 263.07 244.77Z" fill="black"/>
<path d="M315.3 313.7C321.03 305.37 319.87 291.56 312.8 283.6C312.87 283.39 312.94 283.19 313 282.99C313.53 281.15 313.75 279.33 313.78 277.53C313.79 273.94 313.26 270.43 311.91 267.03C310.54 263.68 308.63 260.81 306.55 258.1C305.1 256.21 303.54 254.43 301.9 252.73C302.13 252.65 302.37 252.59 302.6 252.5C305.23 251.47 307.57 250.08 309.69 248.19C310.73 247.24 311.68 246.17 312.5 244.94C313.31 243.72 313.98 242.32 314.28 240.69C314.49 239.55 313.75 238.45 312.61 238.22C311.46 237.99 310.35 238.74 310.12 239.89L310.11 239.94C309.77 241.65 308.4 243.51 306.77 244.94C305.14 246.4 303.1 247.61 301.06 248.39C300.62 248.55 300.16 248.7 299.69 248.83V255.37C301.04 256.97 302.34 258.61 303.54 260.31C305.35 262.93 307.03 265.68 308.07 268.5C309.06 271.28 309.51 274.43 309.44 277.43C309.4 278.93 309.23 280.42 308.84 281.76C308.46 283.1 307.86 284.28 307.06 285.03L307.02 285.06C306.18 285.85 306.12 287.16 306.89 288.02C307.67 288.89 309.01 288.96 309.88 288.18C310.11 287.97 310.32 287.76 310.53 287.53C315.23 294.01 316.57 305.47 311.28 312.05C311.25 312.09 311.22 312.14 311.19 312.19C311.17 312.22 311.15 312.25 311.13 312.28C311.08 312.37 311.03 312.46 310.99 312.55C310.98 312.58 310.96 312.61 310.95 312.65C310.92 312.74 310.89 312.84 310.87 312.93C310.86 312.97 310.85 313.01 310.85 313.05C310.84 313.14 310.83 313.23 310.82 313.32C310.82 313.37 310.82 313.42 310.82 313.47C310.82 313.56 310.83 313.64 310.85 313.72C310.86 313.77 310.87 313.83 310.88 313.88C310.9 313.96 310.93 314.04 310.96 314.12C310.97 314.15 310.98 314.18 310.99 314.21V314.22C312.19 317.02 312.18 320.48 311.57 323.81C310.99 327.17 309.83 330.5 308.32 333.64C307.55 335.25 306.75 336.66 305.73 338.06C304.73 339.46 303.62 340.81 302.42 342.06C302.38 342.1 302.33 342.15 302.29 342.19L305.31 345.21C305.38 345.14 305.44 345.08 305.51 345.01C306.85 343.62 308.08 342.13 309.22 340.56C310.36 339 311.38 337.22 312.2 335.52C313.87 332.07 315.17 328.42 315.86 324.55C316.19 322.62 316.36 320.63 316.24 318.6C316.15 316.99 315.86 315.32 315.3 313.7Z" fill="black"/>
<path opacity="0.4" d="M275.27 404.07C280.95 408.36 280.5 411.77 278.69 412.95C277.09 413.99 272.89 412.16 270.45 410.22C266.6 407.15 263.79 404.05 265.04 402.61C266.82 400.54 272.78 402.19 275.27 404.07Z" fill="white"/>
<path d="M205.97 397.16C206.95 398.16 212.21 401.08 213.16 401.38" stroke="black" stroke-width="3" stroke-miterlimit="10" stroke-linecap="round" stroke-linejoin="round"/>
<path d="M209.87 405.23C210.85 406.23 212.21 407.14 213.17 407.44" stroke="black" stroke-width="3" stroke-miterlimit="10" stroke-linecap="round" stroke-linejoin="round"/>
<path d="M239.81 397.53C238.32 397.91 236.75 398.64 235.38 399.54C234.69 399.99 234.01 400.48 233.46 401.03C232.9 401.55 232.46 402.24 232.4 402.62L232.13 401.33C232.27 401.51 232.58 401.81 232.88 402.08L233.85 402.94C234.52 403.53 235.2 404.13 235.86 404.77C237.19 406.04 238.44 407.42 239.56 408.92L237.72 408.45C239.48 407.66 240.86 405.3 242.62 403.2C243.5 402.13 244.48 401.1 245.56 400.18C246.65 399.26 247.84 398.46 249.09 397.79C249.82 397.4 250.73 397.67 251.12 398.4C251.51 399.13 251.24 400.04 250.51 400.43H250.5C249.43 401.01 248.42 401.69 247.49 402.47C246.56 403.25 245.72 404.14 244.92 405.11C244.12 406.08 243.37 407.13 242.48 408.22C241.6 409.29 240.5 410.46 238.97 411.18C238.32 411.49 237.55 411.28 237.14 410.72V410.71C236.14 409.37 235.01 408.12 233.78 406.94C233.16 406.35 232.52 405.78 231.86 405.2L230.84 404.3C230.49 403.97 230.15 403.68 229.73 403.16L229.7 403.12C229.41 402.76 229.34 402.28 229.47 401.87C229.94 400.53 230.65 399.77 231.31 398.99C232 398.25 232.71 397.58 233.46 396.96C234.98 395.75 236.55 394.66 238.41 393.77L238.44 393.76C239.44 393.28 240.64 393.71 241.12 394.71C241.6 395.71 241.17 396.91 240.17 397.39C240.06 397.45 239.93 397.5 239.81 397.53Z" fill="black"/>
<path d="M232.05 269.16C232.83 264.08 233.68 257.38 230.5 253.77C225.7 248.33 220.79 250.48 218.8 252.26L213.24 275.49L214.06 294.39L216.34 309.22L229.26 305.22L236.08 303.97L230.42 286.2L232.05 269.16Z" fill="BODY_PLACEHOLDER"/>
<path d="M217.49 357.76L210.94 350.8L209.97 336.52L215.02 321.26L214.21 314.48L217.94 308.76L233.3 303.88L241.59 305.1L244.06 310.47L251.91 316.2L255.93 321.4L258.75 330.8L260.57 349.57L258.07 355.17L250.97 353.75L252.9 362.75L246.5 367L238.92 362.6L233.56 363.99L226.28 359.49L217.49 357.76Z" fill="#F9F9F9"/>
<path d="M221.47 253.11C221.37 253.16 221.01 253.44 220.74 253.85C220.45 254.25 220.18 254.73 219.93 255.24C219.43 256.25 219 257.36 218.63 258.49C217.88 260.76 217.32 263.13 216.86 265.51C216.41 267.9 216.07 270.31 215.86 272.72C215.66 275.18 215.49 277.64 215.36 280.1C215.11 285.01 215.06 289.92 215.41 294.77C215.75 299.62 216.51 304.42 217.89 308.98L217.9 309C218.22 310.06 217.62 311.17 216.56 311.49C215.5 311.81 214.39 311.21 214.07 310.15C214.07 310.14 214.06 310.12 214.06 310.11C212.66 305.13 211.97 300.04 211.72 294.98C211.46 289.92 211.61 284.87 211.97 279.88C212.15 277.38 212.37 274.89 212.62 272.41C212.87 269.88 213.25 267.37 213.75 264.89C214.26 262.4 214.87 259.94 215.71 257.5C216.13 256.28 216.6 255.07 217.22 253.86C217.53 253.26 217.87 252.66 218.32 252.05C218.77 251.46 219.3 250.81 220.33 250.33C221.08 249.98 221.97 250.31 222.32 251.06C222.67 251.81 222.34 252.7 221.59 253.05L221.47 253.11Z" fill="black"/>
<path d="M233.19 269.98C232.87 275.54 233.18 281.15 233.99 286.66C234.82 292.16 236.14 297.63 238.29 302.61L238.3 302.64C238.74 303.65 238.27 304.83 237.26 305.27C236.25 305.71 235.07 305.24 234.63 304.23C234.62 304.21 234.61 304.19 234.61 304.17C232.41 298.62 231.23 292.89 230.52 287.13C229.84 281.37 229.69 275.55 230.2 269.76C230.27 268.93 231 268.32 231.82 268.4C232.63 268.46 233.24 269.16 233.19 269.98Z" fill="black"/>
<path d="M241.05 310.46C241.4 309.98 241.6 309.37 241.63 308.77C241.64 308.47 241.6 308.17 241.52 307.91C241.48 307.78 241.44 307.66 241.38 307.56C241.33 307.45 241.28 307.38 241.17 307.23C240.79 306.71 240.43 306.45 239.84 306.23C239.25 306.02 238.45 305.92 237.6 305.84C234.23 305.5 230.68 306.12 227.25 306.99C223.83 307.91 220.52 309.32 217.63 311.2C217.29 311.44 216.87 311.7 216.63 311.9C216.37 312.12 216.13 312.35 215.94 312.6C215.56 313.1 215.32 313.65 215.25 314.26C215.09 315.46 215.73 316.88 216.77 317.65L216.78 317.66C217.48 318.13 217.66 319.08 217.19 319.78C214.94 323.11 213.52 327.11 212.56 331.14C212.09 333.17 211.75 335.23 211.56 337.28C211.37 339.35 211.38 341.33 211.65 343.35C212.17 347.34 213.69 351.15 216.27 354.09C216.58 354.46 216.94 354.8 217.27 355.16L218.4 356.25C219.15 356.96 219.9 357.61 220.63 358.08C222.1 359.06 223.41 359.18 225.17 358.67C226.23 358.37 227.34 358.98 227.64 360.04C227.94 361.1 227.33 362.21 226.27 362.51L226.25 362.52C225.04 362.85 223.66 363.03 222.25 362.83C220.83 362.64 219.51 362.01 218.47 361.3C217.41 360.58 216.56 359.78 215.76 359L214.59 357.83C214.2 357.39 213.78 356.98 213.41 356.52C210.36 352.9 208.68 348.31 208.18 343.78C207.91 341.53 207.95 339.17 208.2 336.96C208.44 334.73 208.85 332.54 209.39 330.38C210.5 326.08 212.07 321.84 214.72 318.06L215.14 320.19C213.04 318.94 211.73 316.58 211.81 314.05C211.84 312.79 212.31 311.53 213.03 310.52C213.39 310.01 213.8 309.56 214.24 309.17C214.71 308.76 215.07 308.52 215.49 308.2C218.74 305.81 222.42 304.29 226.18 303.2C228.07 302.66 229.99 302.26 231.97 302.06C233.92 301.84 235.99 301.8 237.99 302.04C238.99 302.17 240.05 302.34 241.21 302.83C242.37 303.29 243.51 304.28 244.13 305.34C244.28 305.58 244.47 305.91 244.59 306.24C244.72 306.57 244.8 306.89 244.86 307.22C244.98 307.87 244.98 308.52 244.9 309.15C244.73 310.4 244.18 311.6 243.27 312.51C242.69 313.1 241.74 313.1 241.15 312.52C240.62 311.99 240.56 311.16 240.99 310.57L241.05 310.46Z" fill="black"/>
<path d="M242.17 311.46C244.68 311.65 248.08 312.93 252.22 317.52C255.32 320.96 257.9 327.38 257.74 332.49C257.41 343.38 261.26 348.02 260.33 351.73C259.31 355.81 253.47 355.77 249.78 352.19" stroke="black" stroke-width="3" stroke-miterlimit="10" stroke-linecap="round" stroke-linejoin="round"/>
<path d="M249.34 340.98C249.28 341.12 249.07 341.63 248.96 342.1C248.84 342.59 248.76 343.12 248.72 343.64C248.67 344.17 248.65 344.7 248.67 345.22C248.69 345.72 248.76 346.3 248.87 346.62C249.17 347.54 249.62 348.68 250.11 349.75C250.59 350.84 251.09 351.95 251.61 353.06C252.11 354.18 252.62 355.3 253.12 356.48C253.37 357.08 253.61 357.65 253.84 358.42C254.06 359.2 254.18 359.86 254.23 360.64C254.35 362.14 254.1 363.91 253.12 365.38C252.17 366.86 250.7 367.8 249.34 368.34C248.72 368.6 247.79 368.88 246.95 368.91C246.11 368.96 245.32 368.85 244.56 368.68C243.07 368.31 241.74 367.63 240.59 366.78C239.43 365.93 238.43 364.91 237.6 363.77C236.76 362.62 236.16 361.38 235.64 360.16C234.62 357.71 234.05 355.22 233.52 352.8C233.26 351.59 233.01 350.39 232.73 349.25C232.59 348.68 232.44 348.12 232.27 347.61C232.11 347.09 231.89 346.66 231.74 346.41L231.6 346.17C231.17 345.47 231.4 344.55 232.1 344.13C232.75 343.74 233.58 343.9 234.04 344.48C234.63 345.22 234.94 345.91 235.18 346.54C235.44 347.19 235.63 347.81 235.81 348.42C236.16 349.65 236.46 350.85 236.77 352.03C237.39 354.38 238.03 356.68 238.94 358.76C239.41 359.78 239.92 360.77 240.55 361.58C241.19 362.41 241.95 363.14 242.79 363.72C243.62 364.31 244.55 364.72 245.45 364.94C245.89 365.03 246.33 365.09 246.72 365.06C247.11 365.03 247.37 364.95 247.89 364.75C249.72 363.98 250.46 362.85 250.31 360.95C250.24 359.95 249.97 359.19 249.47 358.04C249 356.96 248.49 355.85 247.98 354.73C247.48 353.61 246.97 352.47 246.49 351.3C246.03 350.11 245.54 348.96 245.22 347.5C245.05 346.62 245.05 345.97 245.06 345.24C245.08 344.53 245.16 343.83 245.29 343.14C245.43 342.45 245.62 341.78 245.88 341.1C246.16 340.41 246.42 339.75 247.16 338.96C247.71 338.37 248.64 338.34 249.23 338.89C249.7 339.33 249.81 340 249.56 340.55L249.34 340.98Z" fill="black"/>
<path d="M221.57 343.49C222.14 345.01 222.22 346.4 222.43 347.64C222.6 348.89 222.84 350.04 223.21 351.16C223.56 352.28 224.02 353.35 224.59 354.42C225.16 355.49 225.82 356.54 226.5 357.53C227.17 358.49 227.97 359.46 228.64 359.95C229.46 360.54 230.48 361 231.47 361.27C233.48 361.83 235.74 361.61 237.87 360.85L237.9 360.84C238.94 360.47 240.08 361.01 240.46 362.05C240.82 363.07 240.31 364.18 239.32 364.58C237.95 365.13 236.49 365.51 234.98 365.67C233.46 365.8 231.89 365.69 230.39 365.27C228.87 364.86 227.5 364.18 226.21 363.23C224.81 362.11 224.02 360.97 223.2 359.8C222.41 358.63 221.75 357.43 221.14 356.17C220.53 354.91 220.01 353.55 219.66 352.16C219.31 350.77 219.14 349.34 219.06 347.99C218.98 346.65 218.97 345.4 218.74 344.42L218.72 344.35C218.53 343.54 219.03 342.74 219.84 342.55C220.56 342.38 221.31 342.79 221.57 343.49Z" fill="black"/>
</svg>
