<svg width="100%" height="100%" viewBox="0 0 450 450" fill="none" xmlns="http://www.w3.org/2000/svg" style="display: block;">
<path d="M332.34 379.74L335.81 383.74L332.09 390.09L326.81 391.79L319.8 396.56L308.29 392.33L301.18 398.18L292.38 397.01L284.95 392.96L266.5 392.3L258.22 386.05L263.83 362.77L274.73 360.89L288.85 358L289.84 366.25L302.44 374.35L318.45 380.37L332.34 379.74Z" fill="#EDD1B7"/>
<path d="M328.06 389.35C329.01 389.69 330.07 389.46 330.86 388.82C331.25 388.51 331.54 388.1 331.67 387.74C331.8 387.37 331.76 387.11 331.66 386.91L331.6 386.57C331.48 385.87 331.77 385.19 332.29 384.77C332.78 384.38 333.1 383.83 333.13 383.53C333.14 383.38 333.14 383.3 333.09 383.18C333.09 383.16 332.97 382.94 332.89 382.83C332.81 382.69 332.71 382.56 332.6 382.44C332.18 381.94 331.64 381.56 331.04 381.36C330.74 381.25 330.43 381.19 330.1 381.16C329.94 381.14 329.77 381.15 329.6 381.15C329.4 381.17 329.32 381.17 329.02 381.21C324.92 381.7 320.9 381.73 316.92 381.74C315.82 381.74 314.92 380.85 314.92 379.74C314.92 378.64 315.81 377.74 316.92 377.74H316.93C320.86 377.73 324.78 377.69 328.54 377.24C328.73 377.21 329.14 377.18 329.44 377.16C329.77 377.16 330.09 377.15 330.43 377.18C331.09 377.23 331.76 377.36 332.39 377.59C333.67 378.04 334.8 378.84 335.66 379.85C335.88 380.1 336.08 380.37 336.26 380.65C336.45 380.95 336.59 381.17 336.78 381.6C337.13 382.39 337.23 383.33 337.1 384.15C336.81 385.82 335.88 386.98 334.86 387.85L335.49 385.71C335.86 386.99 335.61 388.37 335.06 389.37C334.51 390.39 333.73 391.16 332.84 391.71C331.95 392.26 330.94 392.6 329.89 392.68C328.84 392.76 327.76 392.54 326.84 392.08C326.1 391.71 325.8 390.81 326.17 390.07C326.51 389.38 327.31 389.07 328.02 389.33L328.06 389.35Z" fill="black"/>
<path d="M329.2 391.68C328.74 392.52 328.17 393.46 327.42 394.28C326.68 395.11 325.78 395.82 324.85 396.37C323.9 396.92 323 397.31 321.95 397.64C320.83 397.98 319.73 398.1 318.68 398.09C316.56 398.07 314.54 397.6 312.64 396.79C310.75 395.96 308.94 394.75 307.55 392.95L310.95 392.61C310.09 394.34 309.08 395.88 307.66 397.31C306.95 398.01 306.12 398.68 305.11 399.18C304.03 399.71 303.05 399.91 302.05 400.07C300.04 400.32 298.07 400.1 296.23 399.61C294.39 399.09 292.66 398.37 291.02 397.28L290.42 396.86C290.28 396.77 290.16 396.67 290.02 396.58C289.74 396.4 289.45 396.24 289.14 396.1C288.52 395.81 287.83 395.57 287.1 395.39C285.64 395.01 284.04 394.83 282.44 394.71C280.82 394.6 279.18 394.57 277.52 394.58C276.69 394.6 275.86 394.6 275.06 394.65C274.23 394.69 273.35 394.74 272.47 394.75C270.7 394.79 268.89 394.72 267.04 394.42C266.11 394.26 265.18 394.04 264.24 393.72C263.32 393.39 262.34 392.92 261.54 392.38C259.89 391.29 258.43 389.82 257.43 388.01C256.93 387.11 256.55 386.12 256.34 385.07C256.24 384.55 256.17 384.01 256.16 383.46C256.13 382.92 256.2 382.32 256.26 381.88C256.79 378.09 258.31 374.85 259.58 371.76C260.86 368.69 262.05 365.63 261.86 362.9V362.89C261.8 362.01 262.32 361.22 263.1 360.91C265.19 360.06 267.41 359.44 269.68 359.14C270.81 358.99 271.96 358.92 273.06 358.9L274.64 358.88C274.79 358.87 274.63 358.89 274.72 358.87C274.75 358.87 274.83 358.84 274.9 358.83C275.07 358.78 275.26 358.71 275.48 358.63C277.25 357.91 279.34 356.86 281.67 356.33C282.84 356.06 284.11 355.91 285.42 356.02C286.73 356.13 288.08 356.54 289.25 357.21C289.9 357.59 290.26 358.28 290.25 358.99V359.01C290.21 360.68 289.88 362.59 290.1 363.17C290.19 363.49 290.45 363.91 290.9 364.41L291.25 364.78C291.37 364.89 291.44 364.97 291.58 365.09C291.82 365.31 292.12 365.54 292.41 365.76C294.83 367.58 297.54 369.26 300.24 370.83C302.96 372.39 305.75 373.84 308.59 375.09C311.42 376.31 314.37 377.41 317.15 377.74L317.21 377.75C318.31 377.88 319.09 378.88 318.95 379.98C318.82 381.08 317.82 381.86 316.72 381.72H316.71C313.11 381.27 310.02 380.05 306.98 378.76C303.96 377.44 301.06 375.93 298.23 374.31C295.4 372.67 292.66 370.98 289.96 368.95C289.62 368.69 289.28 368.43 288.93 368.11C288.76 367.97 288.55 367.77 288.38 367.6L287.9 367.1C287.28 366.41 286.58 365.5 286.22 364.28C285.88 363.03 286 362 286.06 361.19C286.13 360.37 286.19 359.63 286.22 358.89L287.22 360.69C285.92 359.92 284.31 359.83 282.54 360.25C281.66 360.45 280.76 360.76 279.84 361.13C278.91 361.5 278 361.93 276.91 362.37C276.64 362.48 276.33 362.59 276 362.69C275.81 362.74 275.64 362.79 275.41 362.83C275.25 362.87 274.82 362.9 274.71 362.9L273.13 362.92C272.12 362.94 271.16 363 270.2 363.13C268.29 363.38 266.42 363.91 264.6 364.64L265.84 362.65C265.98 364.69 265.61 366.61 265.1 368.36C264.58 370.12 263.92 371.75 263.26 373.33C261.95 376.47 260.61 379.48 260.21 382.44C259.78 384.92 261.37 387.54 263.72 389.06C265.94 390.56 269.18 390.83 272.38 390.78C273.19 390.76 274.01 390.72 274.86 390.68C275.75 390.63 276.61 390.63 277.47 390.61C279.2 390.6 280.94 390.62 282.71 390.74C284.47 390.87 286.26 391.06 288.09 391.53C289 391.76 289.93 392.06 290.84 392.49C291.3 392.7 291.75 392.95 292.18 393.22C292.4 393.35 292.61 393.51 292.82 393.66L293.26 393.97C295.66 395.52 298.84 396.47 301.53 396.12C302.19 396.02 302.89 395.85 303.33 395.62C303.84 395.37 304.36 394.97 304.85 394.48C305.83 393.51 306.71 392.19 307.35 390.89C307.84 389.89 309.05 389.48 310.04 389.97C310.32 390.11 310.56 390.31 310.75 390.55C311.58 391.62 312.83 392.51 314.24 393.13C315.65 393.73 317.22 394.09 318.71 394.1C319.46 394.12 320.17 394.01 320.78 393.83C321.46 393.62 322.22 393.29 322.83 392.93C324.1 392.18 324.91 391.24 325.71 389.76C326.23 388.79 327.44 388.42 328.42 388.94C329.4 389.46 329.76 390.67 329.24 391.65C329.24 391.65 329.24 391.66 329.23 391.66L329.2 391.68Z" fill="black"/>
<path d="M316.02 383.81C320.25 384.89 323.93 382.87 325.92 384.24C328.8 386.22 327.9 387.57 327.45 390.72" stroke="black" stroke-width="3" stroke-miterlimit="10" stroke-linecap="round" stroke-linejoin="round"/>
<path d="M322.29 340.57L314.29 341.62L312.17 338.55L314.8 330.27L309.72 331.75L305.3 327.07L309.11 316.17L312.3 304.06L313.15 299.82L312.17 294.22L323.77 289.36L332.31 293.94L340.17 304.86L341.1 326.08L333.5 332.21L328.36 338.08L322.29 340.57Z" fill="#EDD1B7"/>
<path d="M316.31 327.25C314.52 329.85 312.64 331.86 308.45 330.84C304.28 329.82 305.63 323.64 307.46 319.55C309.3 315.46 310.59 314.19 311.07 310.23C311.55 306.28 311.79 299.92 311.79 296.21C314.71 291.89 321.01 289.14 325.91 289.24C330.62 289.99 339 299.22 340.17 304.86C341.34 310.5 342.38 321.71 341.53 324.53C341.11 325.94 339.88 328.39 337.55 329.39C336.05 331.3 334.36 332.95 333.16 333.38C331.18 336.77 326.67 341.57 322.29 340.58C320.03 342.56 315.48 343.89 313.54 340.71C311.56 337.47 313.54 334.29 314.81 331.86C316.08 329.43 317.21 323.92 317.07 320.39" stroke="black" stroke-width="4" stroke-miterlimit="10" stroke-linecap="round" stroke-linejoin="round"/>
<path d="M340.17 304.86C341.34 310.51 341.92 321.61 341.53 324.53C341.25 326.65 339.88 328.39 337.55 329.39" stroke="black" stroke-width="4" stroke-miterlimit="10" stroke-linecap="round" stroke-linejoin="round"/>
<path d="M322.74 339.79C324.96 338 327.38 333.46 327.8 329.39" stroke="black" stroke-width="3" stroke-miterlimit="10" stroke-linecap="round" stroke-linejoin="round"/>
<path d="M333.16 333.37C334.2 329.89 335.14 326.78 335.04 323.58" stroke="black" stroke-width="3" stroke-miterlimit="10" stroke-linecap="round" stroke-linejoin="round"/>
<path d="M217.75 426.42L207.34 418.57L191.9 411.24L178.72 406.48L176.32 397.6L188.59 381.47L192.02 369.6L210.78 371.16L222.83 367.37L230.27 368.92L235.37 382.69L245.05 396.51L261.36 403.89L280.91 408.04L287.02 412.05L285.86 422.03L277.69 426.24L271.79 426.22L255.3 432.34L244.65 433.83L237.27 427.9L217.75 426.42Z" fill="#EDD1B7"/>
<path d="M237.27 427.9C238.06 430.62 240.98 433.23 244.65 433.84C246.87 434.21 250.36 434.52 251.82 432.29C256.07 432.9 260.45 431.6 262.39 427.9C267.6 429.81 269.65 427.74 271.49 424.94C280.31 428.68 285.91 423.8 286.92 418.59C287.36 416.32 286.89 411.28 284.99 409.47C283.13 408.44 279.1 407.36 275.09 407.37C271.58 407.38 266.33 405.74 261.37 403.9C253.96 401.16 246.64 397.25 241.66 390.84C236.68 384.43 231.94 369.05 225.67 367.62C219.4 366.19 215.22 371.81 208.28 370.96C200.89 370.05 195.81 366.64 192.04 369.62C188.27 372.6 190.16 376.28 187.41 380.85C184.48 385.73 180.85 387.24 177.42 394.75C176.1 397.64 174.63 404.21 178.44 407.77C182.25 411.33 191.02 410.34 197.02 412.35C203.02 414.36 210.61 425.2 220.92 427.41C231.23 429.62 237.31 428.31 240.09 426.93" stroke="black" stroke-width="4" stroke-miterlimit="10" stroke-linecap="round" stroke-linejoin="round"/>
<path d="M251.59 431.91C254.38 428.27 253.43 424.49 249.79 421.7" stroke="black" stroke-width="3" stroke-miterlimit="10" stroke-linecap="round" stroke-linejoin="round"/>
<path d="M256.98 415.6C260.69 417.44 264.15 423.98 262.39 427.9" stroke="black" stroke-width="3" stroke-miterlimit="10" stroke-linecap="round" stroke-linejoin="round"/>
<path d="M271.49 424.93C273.14 422 272.43 416.89 267.28 415.29" stroke="black" stroke-width="3" stroke-miterlimit="10" stroke-linecap="round" stroke-linejoin="round"/>
<path d="M266.87 345.19L263.99 351.55L256.88 352.36L256.66 358.15L248.79 360.06L241.28 360.65L235.68 358.7L227.09 358.84L220.23 351.58L216.76 345.59L214.18 330.21L218.8 316.03L222.05 306.51L234.19 300.99L248.37 304.6L258.67 316.19L262.28 323.24L266.62 330.52L266.87 345.19Z" fill="#EDD1B7"/>
<path d="M257.61 351.52C262.23 352.94 266.7 350.25 266.62 346.53C266.58 344.67 265.63 342.25 265.35 339.8C265.07 337.35 265.47 334.85 265.47 332.17C265.47 326.79 260.9 324.24 259.07 318.11C257.24 311.98 247.11 300.8 239.3 301C231.49 301.2 222.4 302.86 221.56 307.91C220.72 313.02 214.01 325.52 214.16 330.22C214.31 334.92 214.46 344.16 218.18 347.43C220.71 354.13 225.93 358.9 228.61 359.5C231.29 360.1 235.31 360.39 237.4 359.5" stroke="black" stroke-width="4" stroke-miterlimit="10" stroke-linecap="round" stroke-linejoin="round"/>
<path d="M230.27 346.23C230.55 354.2 236.75 358.97 242.64 361.2C246.1 362.51 248.81 361.36 250.49 360.05" stroke="black" stroke-width="4" stroke-miterlimit="10" stroke-linecap="round" stroke-linejoin="round"/>
<path d="M240.4 346.68C240.57 348.37 242.44 352.66 245.43 355.69C248.42 358.72 252.52 360.48 255.29 359.09C260.82 356.31 256.44 349.72 255.29 346.23C254.56 344.01 253.23 340.07 253.22 337.03C253.22 335.29 254.05 333.84 254.66 333.17" stroke="black" stroke-width="4" stroke-miterlimit="10" stroke-linecap="round" stroke-linejoin="round"/>
</svg>
