<svg width="450" height="450" viewBox="0 0 450 450" fill="none" xmlns="http://www.w3.org/2000/svg">
<path d="M181.2 303.31C181.15 297.48 183.21 293.17 188.55 292.58C191.5 292.25 195.41 294.55 196.25 299.28C196.89 302.91 194.13 307.83 192.08 310.58L189.22 314.69L181.41 314.17C181.41 314.17 181.23 307.06 181.2 303.31Z" fill="white"/>
<path d="M189.11 295.55C190.44 295.55 192.74 296.71 193.29 299.81C193.7 302.1 191.7 306.07 189.67 308.79C189.65 308.82 189.63 308.84 189.61 308.87L187.72 311.58L184.34 311.36C184.29 308.96 184.21 305.5 184.19 303.28C184.12 296.08 187.57 295.7 188.87 295.56C188.95 295.55 189.03 295.55 189.11 295.55ZM189.11 292.55C188.92 292.55 188.73 292.56 188.55 292.58C183.21 293.17 181.15 297.48 181.2 303.31C181.23 307.06 181.41 314.17 181.41 314.17L189.22 314.69L192.08 310.58C194.13 307.83 196.9 302.91 196.25 299.28C195.46 294.85 191.98 292.55 189.11 292.55Z" fill="#FFA6C8"/>
<path d="M179.63 333.45C176.72 337.57 168.48 338.9 165.25 333.4C160.68 325.63 168.1 320.35 173.35 318.53C173.46 318.49 173.58 318.45 173.69 318.42C173.75 318.4 173.8 318.38 173.86 318.37C178.57 316.92 182.57 316.58 182.57 316.58L187.63 320.89C187.63 320.88 180.83 331.75 179.63 333.45Z" fill="white"/>
<path d="M200.02 307.68C205.06 307 212.33 309.58 211.72 315.9C210.82 325.28 199.8 324.9 193.15 322.32C191.78 321.79 190.43 321.2 189.12 320.54C188.92 320.44 187.71 320.01 187.65 319.77L186.06 313.38C186.06 313.38 194.81 308.38 200.02 307.68Z" fill="white"/>
<path d="M181.2 303.31C181.15 297.48 183.21 293.17 188.55 292.58C191.5 292.25 195.41 294.55 196.25 299.28C196.89 302.91 194.13 307.83 192.08 310.58L189.22 314.69L181.41 314.17C181.41 314.17 181.23 307.06 181.2 303.31Z" stroke="#7A40D1" stroke-width="3" stroke-miterlimit="10" stroke-linecap="round" stroke-linejoin="round"/>
<path d="M168.24 316.08C165.84 314.73 163.96 312.33 163.42 309.75C162.65 306.02 165.81 302.11 169.37 301.33C173.23 300.48 177.09 302.43 179.75 304.99C183.16 308.27 186.06 311.91 186.06 311.91L182.41 317.18C182.41 317.18 172.89 318.69 168.24 316.08Z" fill="white"/>
<path d="M171.25 304.13C173.34 304.13 175.68 305.23 177.67 307.15C179.48 308.9 181.16 310.77 182.29 312.08L180.7 314.37C179.67 314.48 178.11 314.61 176.41 314.61C173.41 314.61 171.03 314.2 169.7 313.46C168.01 312.51 166.7 310.82 166.35 309.14C165.92 307.08 168.04 304.69 170.01 304.25C170.42 304.18 170.83 304.13 171.25 304.13ZM171.25 301.13C170.63 301.13 170.01 301.19 169.38 301.33C165.81 302.12 162.66 306.03 163.43 309.75C163.96 312.33 165.84 314.73 168.25 316.08C170.41 317.29 173.61 317.61 176.42 317.61C179.68 317.61 182.42 317.18 182.42 317.18L186.07 311.91C186.07 311.91 183.17 308.28 179.76 304.99C177.53 302.85 174.46 301.13 171.25 301.13Z" fill="#FFA6C8"/>
<path d="M181.63 319.71L183.72 321.48C181.43 325.13 177.95 330.63 177.19 331.71C176.22 333.08 174.09 334.04 172.01 334.04C170.69 334.04 168.89 333.66 167.84 331.87C166.81 330.12 166.57 328.57 167.11 327.13C168.07 324.54 171.43 322.37 174.33 321.37C174.43 321.34 174.52 321.3 174.6 321.28L174.75 321.23C177.59 320.35 180.18 319.91 181.63 319.71ZM182.57 316.57C182.57 316.57 178.57 316.91 173.86 318.36C173.8 318.38 173.75 318.4 173.69 318.41C173.58 318.45 173.46 318.48 173.35 318.52C168.1 320.33 160.68 325.62 165.25 333.39C166.76 335.96 169.36 337.04 172.01 337.04C175.02 337.04 178.08 335.64 179.63 333.44C180.83 331.74 187.63 320.87 187.63 320.87L182.57 316.57Z" fill="#FFA6C8"/>
<path d="M168.24 316.08C165.84 314.73 163.96 312.33 163.42 309.75C162.65 306.02 165.81 302.11 169.37 301.33C173.23 300.48 177.09 302.43 179.75 304.99C183.16 308.27 186.06 311.91 186.06 311.91L182.41 317.18C182.41 317.18 172.89 318.69 168.24 316.08Z" stroke="#7A40D1" stroke-width="3" stroke-miterlimit="10" stroke-linecap="round" stroke-linejoin="round"/>
<path d="M179.63 333.45C176.72 337.57 168.48 338.9 165.25 333.4C160.68 325.63 168.1 320.35 173.35 318.53C173.46 318.49 173.58 318.45 173.69 318.42C173.75 318.4 173.8 318.38 173.86 318.37C178.57 316.92 182.57 316.58 182.57 316.58L187.63 320.89C187.63 320.88 180.83 331.75 179.63 333.45Z" stroke="#7A40D1" stroke-width="3" stroke-miterlimit="10" stroke-linecap="round" stroke-linejoin="round"/>
<path d="M201.65 310.57C204.14 310.57 206.63 311.47 207.85 312.82C208.56 313.6 208.84 314.49 208.73 315.62C208.6 316.93 208.22 320.91 201.39 320.91C199.09 320.91 196.49 320.41 194.24 319.54C192.94 319.03 191.67 318.47 190.46 317.87C190.41 317.85 190.34 317.81 190.24 317.77C190.08 317.1 189.85 316.19 189.54 314.92C192.58 313.34 197.44 311.06 200.42 310.66C200.81 310.6 201.22 310.57 201.65 310.57ZM201.65 307.57C201.09 307.57 200.54 307.61 200.02 307.68C194.82 308.39 186.07 313.39 186.07 313.39L187.66 319.78C187.72 320.02 188.93 320.45 189.13 320.55C190.44 321.2 191.79 321.8 193.16 322.33C195.56 323.26 198.54 323.91 201.4 323.91C206.45 323.91 211.15 321.9 211.73 315.91C212.26 310.23 206.48 307.57 201.65 307.57Z" fill="#FFA6C8"/>
<path d="M200.02 307.68C205.06 307 212.33 309.58 211.72 315.9C210.82 325.28 199.8 324.9 193.15 322.32C191.78 321.79 190.43 321.2 189.12 320.54C188.92 320.44 187.71 320.01 187.65 319.77L186.06 313.38C186.06 313.38 194.81 308.38 200.02 307.68Z" stroke="#7A40D1" stroke-width="3" stroke-miterlimit="10" stroke-linecap="round" stroke-linejoin="round"/>
<path d="M199.71 329.07C201.68 333.57 201.18 341.07 195.09 342.3C186.05 344.12 183.66 334.35 183.53 327.4C183.45 323.33 183.86 318.96 183.86 318.96L190.68 317.7C190.68 317.7 197.68 324.42 199.71 329.07Z" fill="white"/>
<path d="M189.68 320.93C191.94 323.24 195.73 327.45 196.97 330.27C197.84 332.25 198.14 335.35 197.05 337.45C196.5 338.51 195.69 339.11 194.5 339.35C193.96 339.46 193.45 339.51 192.98 339.51C191.67 339.51 189.76 339.15 188.27 336.04C187.22 333.85 186.6 330.75 186.53 327.33C186.49 325.25 186.59 323.05 186.68 321.47C187.66 321.31 188.79 321.1 189.68 320.93ZM190.68 317.7L183.86 318.96C183.86 318.96 183.45 323.34 183.53 327.4C183.65 333.77 185.67 342.52 192.98 342.52C193.64 342.52 194.35 342.45 195.09 342.3C201.19 341.07 201.69 333.57 199.71 329.07C197.68 324.42 190.68 317.7 190.68 317.7Z" fill="#FFA6C8"/>
<path d="M199.71 329.07C201.68 333.57 201.18 341.07 195.09 342.3C186.05 344.12 183.66 334.35 183.53 327.4C183.45 323.33 183.86 318.96 183.86 318.96L190.68 317.7C190.68 317.7 197.68 324.42 199.71 329.07Z" stroke="#7A40D1" stroke-width="3" stroke-miterlimit="10" stroke-linecap="round" stroke-linejoin="round"/>
<path d="M192.4 330.7C190.48 327.53 189.2 323.72 188.54 319.81" stroke="#7A40D1" stroke-width="3" stroke-miterlimit="10" stroke-linecap="round" stroke-linejoin="round"/>
<path d="M200.95 315.22C199.14 314.67 193.86 315.04 192.19 316.09" stroke="#7A40D1" stroke-width="3" stroke-miterlimit="10" stroke-linecap="round" stroke-linejoin="round"/>
<path d="M186.83 309.43C188.47 307.6 190.08 302.44 189.63 300.68" stroke="#7A40D1" stroke-width="3" stroke-miterlimit="10" stroke-linecap="round" stroke-linejoin="round"/>
<path d="M180.5 313.22C178.57 311.84 175.75 310.32 172.62 308.24" stroke="#7A40D1" stroke-width="3" stroke-miterlimit="10" stroke-linecap="round" stroke-linejoin="round"/>
<path d="M179.81 320.64C178.02 322.9 176.22 325.16 174.43 327.42" stroke="#7A40D1" stroke-width="3" stroke-miterlimit="10" stroke-linecap="round" stroke-linejoin="round"/>
<path d="M185.05 311.68C182.35 311.6 179.83 313.14 180.05 316.52C180.49 323.47 192.12 324.23 191.17 316.77C190.76 313.53 187.81 311.76 185.05 311.68Z" fill="#FFF1CF" stroke="#FFA661" stroke-width="3" stroke-miterlimit="10" stroke-linecap="round" stroke-linejoin="round"/>
<path d="M221.32 149.18C221.41 142.38 219.03 137.34 212.81 136.62C209.37 136.22 204.79 138.89 203.79 144.4C203.02 148.63 206.22 154.38 208.6 157.6L211.91 162.41L221.02 161.85C221.02 161.84 221.26 153.54 221.32 149.18Z" fill="white"/>
<path d="M212.13 139.58C212.25 139.58 212.36 139.59 212.47 139.6C214.1 139.79 218.45 140.29 218.33 149.13C218.29 151.87 218.18 156.2 218.1 159.01L213.42 159.3L211.07 155.89C211.05 155.86 211.03 155.84 211.01 155.81C208.59 152.54 206.23 147.74 206.74 144.93C207.45 141.04 210.42 139.58 212.13 139.58ZM212.13 136.58C208.79 136.58 204.73 139.25 203.8 144.4C203.03 148.63 206.23 154.38 208.61 157.6L211.92 162.41L221.03 161.85C221.03 161.85 221.27 153.55 221.33 149.18C221.42 142.38 219.04 137.34 212.82 136.62C212.59 136.59 212.36 136.58 212.13 136.58Z" fill="#FFA6C8"/>
<path d="M223 184.33C226.37 189.15 235.97 190.74 239.77 184.34C245.14 175.3 236.51 169.1 230.4 166.96C230.27 166.91 230.13 166.87 230 166.83C229.94 166.81 229.87 166.79 229.8 166.77C224.31 165.06 219.65 164.64 219.65 164.64L213.72 169.63C213.73 169.63 221.6 182.34 223 184.33Z" fill="white"/>
<path d="M199.35 154.17C193.47 153.35 184.99 156.32 185.66 163.7C186.67 174.65 199.52 174.26 207.28 171.29C208.88 170.68 210.45 169.99 211.99 169.24C212.22 169.12 213.63 168.63 213.7 168.35L215.59 160.9C215.59 160.9 205.42 155.02 199.35 154.17Z" fill="white"/>
<path d="M221.32 149.18C221.41 142.38 219.03 137.34 212.81 136.62C209.37 136.22 204.79 138.89 203.79 144.4C203.02 148.63 206.22 154.38 208.6 157.6L211.91 162.41L221.02 161.85C221.02 161.84 221.26 153.54 221.32 149.18Z" stroke="#7A40D1" stroke-width="3" stroke-miterlimit="10" stroke-linecap="round" stroke-linejoin="round"/>
<path d="M236.37 164.13C239.18 162.57 241.38 159.78 242.02 156.78C242.94 152.44 239.27 147.86 235.12 146.93C230.63 145.92 226.11 148.18 223 151.15C219.01 154.96 215.61 159.19 215.61 159.19L219.84 165.35C219.84 165.34 230.93 167.15 236.37 164.13Z" fill="white"/>
<path d="M232.89 149.68C233.42 149.68 233.95 149.74 234.46 149.85C237.02 150.43 239.66 153.45 239.09 156.16C238.65 158.25 237.01 160.35 234.92 161.51C233.33 162.39 230.52 162.88 227.02 162.88C224.82 162.88 222.79 162.69 221.56 162.55L219.37 159.37C220.69 157.84 222.79 155.5 225.07 153.32C227.49 151.01 230.34 149.68 232.89 149.68ZM232.89 146.68C229.17 146.68 225.59 148.66 223 151.14C219.01 154.95 215.61 159.18 215.61 159.18L219.84 165.34C219.84 165.34 223.14 165.88 227.02 165.88C230.26 165.88 233.9 165.51 236.37 164.13C239.18 162.57 241.38 159.78 242.02 156.78C242.94 152.44 239.27 147.86 235.12 146.93C234.37 146.76 233.63 146.68 232.89 146.68Z" fill="#FFA6C8"/>
<path d="M220.59 167.77C222.24 168 225.41 168.54 228.89 169.63L228.99 169.66L229.07 169.69C229.19 169.73 229.3 169.77 229.41 169.8C232.65 170.94 236.88 173.47 238.11 176.86C238.78 178.7 238.48 180.64 237.19 182.81C235.84 185.08 233.58 185.56 231.92 185.56C229.33 185.56 226.67 184.35 225.45 182.61C224.53 181.3 220.29 174.52 217.64 170.25L220.59 167.77ZM219.65 164.63L213.72 169.62C213.72 169.62 221.6 182.34 222.99 184.32C224.8 186.9 228.39 188.55 231.91 188.55C234.97 188.55 237.99 187.3 239.76 184.33C245.13 175.29 236.5 169.09 230.39 166.95C230.26 166.9 230.12 166.86 229.99 166.82C229.93 166.8 229.86 166.78 229.8 166.76C224.31 165.05 219.65 164.63 219.65 164.63Z" fill="#FFA6C8"/>
<path d="M236.37 164.13C239.18 162.57 241.38 159.78 242.02 156.78C242.94 152.44 239.27 147.86 235.12 146.93C230.63 145.92 226.11 148.18 223 151.15C219.01 154.96 215.61 159.19 215.61 159.19L219.84 165.35C219.84 165.34 230.93 167.15 236.37 164.13Z" stroke="#7A40D1" stroke-width="3" stroke-miterlimit="10" stroke-linecap="round" stroke-linejoin="round"/>
<path d="M223 184.33C226.37 189.15 235.97 190.74 239.77 184.34C245.14 175.3 236.51 169.1 230.4 166.96C230.27 166.91 230.13 166.87 230 166.83C229.94 166.81 229.87 166.79 229.8 166.77C224.31 165.06 219.65 164.64 219.65 164.64L213.72 169.63C213.73 169.63 221.6 182.34 223 184.33Z" stroke="#7A40D1" stroke-width="3" stroke-miterlimit="10" stroke-linecap="round" stroke-linejoin="round"/>
<path d="M197.38 157.03C197.92 157.03 198.44 157.07 198.94 157.13C202.6 157.64 208.58 160.51 212.12 162.39C211.65 164.25 211.34 165.49 211.13 166.33C210.92 166.42 210.75 166.49 210.67 166.53C209.25 167.23 207.75 167.88 206.22 168.47C203.57 169.49 200.49 170.07 197.78 170.07C192.14 170.07 189.07 167.83 188.66 163.41C188.53 161.97 188.91 160.78 189.82 159.78C191.35 158.12 194.31 157.03 197.38 157.03ZM197.38 154.03C191.76 154.03 185.06 157.1 185.67 163.69C186.32 170.72 191.84 173.08 197.77 173.08C201.08 173.08 204.51 172.35 207.29 171.28C208.89 170.67 210.46 169.98 212 169.23C212.23 169.11 213.64 168.62 213.71 168.34L215.6 160.89C215.6 160.89 205.43 155.01 199.36 154.16C198.72 154.08 198.06 154.03 197.38 154.03Z" fill="#FFA6C8"/>
<path d="M199.35 154.17C193.47 153.35 184.99 156.32 185.66 163.7C186.67 174.65 199.52 174.26 207.28 171.29C208.88 170.68 210.45 169.99 211.99 169.24C212.22 169.12 213.63 168.63 213.7 168.35L215.59 160.9C215.59 160.9 205.42 155.02 199.35 154.17Z" stroke="#7A40D1" stroke-width="3" stroke-miterlimit="10" stroke-linecap="round" stroke-linejoin="round"/>
<path d="M199.59 179.12C197.27 184.36 197.81 193.11 204.91 194.58C215.45 196.76 218.28 185.37 218.47 177.26C218.58 172.52 218.13 167.41 218.13 167.41L210.18 165.9C210.18 165.9 201.99 173.71 199.59 179.12Z" fill="white"/>
<path d="M211.18 169.14L215.32 169.93C215.43 171.8 215.55 174.56 215.49 177.19C215.43 179.64 214.77 191.85 207.44 191.85C206.85 191.85 206.21 191.78 205.53 191.64C204 191.32 202.92 190.51 202.22 189.15C200.89 186.55 201.27 182.75 202.34 180.34C203.86 176.9 208.53 171.8 211.18 169.14ZM210.19 165.9C210.19 165.9 201.99 173.71 199.59 179.12C197.27 184.36 197.81 193.11 204.91 194.58C205.8 194.76 206.64 194.85 207.42 194.85C215.9 194.85 218.29 184.68 218.47 177.26C218.58 172.52 218.13 167.41 218.13 167.41L210.19 165.9Z" fill="#FFA6C8"/>
<path d="M199.59 179.12C197.27 184.36 197.81 193.11 204.91 194.58C215.45 196.76 218.28 185.37 218.47 177.26C218.58 172.52 218.13 167.41 218.13 167.41L210.18 165.9C210.18 165.9 201.99 173.71 199.59 179.12Z" stroke="#7A40D1" stroke-width="3" stroke-miterlimit="10" stroke-linecap="round" stroke-linejoin="round"/>
<path d="M208.11 181.06C210.37 177.37 211.88 172.93 212.67 168.38" stroke="#7A40D1" stroke-width="3" stroke-miterlimit="10" stroke-linecap="round" stroke-linejoin="round"/>
<path d="M198.22 162.96C200.33 162.33 206.49 162.79 208.43 164.02" stroke="#7A40D1" stroke-width="3" stroke-miterlimit="10" stroke-linecap="round" stroke-linejoin="round"/>
<path d="M214.72 156.28C212.81 154.14 210.97 148.12 211.5 146.06" stroke="#7A40D1" stroke-width="3" stroke-miterlimit="10" stroke-linecap="round" stroke-linejoin="round"/>
<path d="M222.09 160.73C224.35 159.13 227.64 157.37 231.31 154.97" stroke="#7A40D1" stroke-width="3" stroke-miterlimit="10" stroke-linecap="round" stroke-linejoin="round"/>
<path d="M222.85 169.39C224.93 172.03 227.01 174.68 229.09 177.32" stroke="#7A40D1" stroke-width="3" stroke-miterlimit="10" stroke-linecap="round" stroke-linejoin="round"/>
<path d="M216.79 158.91C219.94 158.83 222.87 160.64 222.6 164.58C222.05 172.68 208.48 173.51 209.63 164.82C210.12 161.05 213.57 158.99 216.79 158.91Z" fill="#FFF1CF" stroke="#FFA661" stroke-width="3" stroke-miterlimit="10" stroke-linecap="round" stroke-linejoin="round"/>
<path d="M337.8 251.61C338.87 246.25 341.59 242.69 346.61 243.17C349.39 243.44 352.53 246.3 352.4 250.81C352.29 254.27 348.81 258.25 346.4 260.38L342.99 263.6L335.92 261.62C335.9 261.62 337.11 255.05 337.8 251.61Z" fill="white"/>
<path d="M345.72 246.12C345.91 246.12 346.11 246.13 346.32 246.15C347.44 246.26 349.49 247.7 349.39 250.71C349.33 252.5 347.24 255.62 344.4 258.13C344.38 258.15 344.35 258.17 344.33 258.2L342.15 260.26L339.35 259.48C339.76 257.27 340.34 254.2 340.74 252.2C341.95 246.12 344.79 246.12 345.72 246.12ZM345.72 243.12C341.27 243.12 338.8 246.57 337.8 251.61C337.11 255.06 335.91 261.62 335.91 261.62L342.98 263.6L346.39 260.38C348.8 258.25 352.29 254.27 352.39 250.81C352.53 246.31 349.38 243.44 346.6 243.17C346.3 243.13 346.01 243.12 345.72 243.12Z" fill="#FFA6C8"/>
<path d="M330.56 278.98C327.09 282.2 319.28 281.84 317.36 276.17C314.66 268.16 322.49 264.73 327.66 264.08C327.77 264.07 327.88 264.05 328 264.04C328.05 264.03 328.11 264.03 328.16 264.02C332.77 263.6 336.5 264.05 336.5 264.05L340.32 268.98C340.33 268.97 331.99 277.65 330.56 278.98Z" fill="white"/>
<path d="M354.24 259.23C359 259.57 365.18 263.34 363.4 269.03C360.77 277.47 350.72 275 345.12 271.36C343.96 270.61 342.84 269.81 341.76 268.95C341.6 268.82 340.57 268.19 340.56 267.96L340.33 261.78C340.33 261.78 349.32 258.88 354.24 259.23Z" fill="white"/>
<path d="M337.8 251.61C338.87 246.25 341.59 242.69 346.61 243.17C349.39 243.44 352.53 246.3 352.4 250.81C352.29 254.27 348.81 258.25 346.4 260.38L342.99 263.6L335.92 261.62C335.9 261.62 337.11 255.05 337.8 251.61Z" stroke="#7A40D1" stroke-width="3" stroke-miterlimit="10" stroke-linecap="round" stroke-linejoin="round"/>
<path d="M323.44 260.84C321.49 259.14 320.23 256.58 320.23 254.11C320.24 250.54 323.89 247.56 327.32 247.52C331.02 247.48 334.2 250.02 336.14 252.88C338.64 256.55 340.6 260.45 340.6 260.45L336.23 264.58C336.24 264.57 327.21 264.13 323.44 260.84Z" fill="white"/>
<path d="M327.41 250.52C330.66 250.52 333.02 253.62 333.67 254.57C334.96 256.46 336.11 258.44 336.89 259.84L335.15 261.49C331.96 261.18 327.33 260.25 325.42 258.58C324.09 257.42 323.24 255.67 323.24 254.11C323.25 252.23 325.55 250.53 327.36 250.51L327.41 250.52ZM327.41 247.52C327.38 247.52 327.35 247.52 327.32 247.52C323.89 247.56 320.24 250.54 320.23 254.11C320.22 256.58 321.49 259.14 323.44 260.84C327.21 264.13 336.24 264.57 336.24 264.57L340.61 260.44C340.61 260.44 338.64 256.54 336.15 252.87C334.22 250.04 331.08 247.52 327.41 247.52Z" fill="#FFA6C8"/>
<path d="M332.21 266.83C333.32 266.83 334.26 266.87 334.95 266.92L336.38 268.76C333.57 271.67 329.43 275.95 328.53 276.78C327.71 277.54 326.3 278.01 324.84 278.01C323.98 278.01 321.1 277.81 320.22 275.2C319.63 273.46 319.7 272.04 320.44 270.86C321.78 268.72 325.23 267.4 328.04 267.04C328.13 267.03 328.23 267.02 328.3 267.01L328.44 267C329.65 266.89 330.92 266.83 332.21 266.83ZM332.21 263.83C331.01 263.83 329.63 263.88 328.17 264.01C328.12 264.02 328.06 264.02 328.01 264.03C327.9 264.04 327.79 264.05 327.67 264.07C322.5 264.72 314.67 268.15 317.37 276.16C318.5 279.51 321.69 281.01 324.83 281.01C327 281.01 329.15 280.29 330.57 278.97C332 277.64 340.34 268.96 340.34 268.96L336.52 264.03C336.51 264.05 334.77 263.83 332.21 263.83Z" fill="#FFA6C8"/>
<path d="M323.44 260.84C321.49 259.14 320.23 256.58 320.23 254.11C320.24 250.54 323.89 247.56 327.32 247.52C331.02 247.48 334.2 250.02 336.14 252.88C338.64 256.55 340.6 260.45 340.6 260.45L336.23 264.58C336.24 264.57 327.21 264.13 323.44 260.84Z" stroke="#7A40D1" stroke-width="3" stroke-miterlimit="10" stroke-linecap="round" stroke-linejoin="round"/>
<path d="M330.56 278.98C327.09 282.2 319.28 281.84 317.36 276.17C314.66 268.16 322.49 264.73 327.66 264.08C327.77 264.07 327.88 264.05 328 264.04C328.05 264.03 328.11 264.03 328.16 264.02C332.77 263.6 336.5 264.05 336.5 264.05L340.32 268.98C340.33 268.97 331.99 277.65 330.56 278.98Z" stroke="#7A40D1" stroke-width="3" stroke-miterlimit="10" stroke-linecap="round" stroke-linejoin="round"/>
<path d="M353.36 262.2C353.59 262.2 353.81 262.21 354.02 262.22C356.46 262.39 359.03 263.7 360.14 265.32C360.74 266.19 360.86 267.09 360.54 268.13C359.77 270.61 358.19 271.72 355.44 271.72C352.82 271.72 349.49 270.62 346.76 268.84C345.67 268.13 344.61 267.37 343.63 266.6C343.6 266.58 343.57 266.55 343.52 266.52C343.5 265.95 343.47 265.14 343.43 264C346.24 263.22 350.53 262.2 353.36 262.2ZM353.36 259.2C348.33 259.2 340.33 261.79 340.33 261.79L340.56 267.97C340.57 268.2 341.59 268.83 341.76 268.96C342.84 269.81 343.96 270.61 345.12 271.37C347.94 273.2 351.88 274.74 355.44 274.74C358.96 274.74 362.1 273.24 363.41 269.04C365.19 263.35 359.01 259.58 354.25 259.24C353.96 259.21 353.66 259.2 353.36 259.2Z" fill="#FFA6C8"/>
<path d="M354.24 259.23C359 259.57 365.18 263.34 363.4 269.03C360.77 277.47 350.72 275 345.12 271.36C343.96 270.61 342.84 269.81 341.76 268.95C341.6 268.82 340.57 268.19 340.56 267.96L340.33 261.78C340.33 261.78 349.32 258.88 354.24 259.23Z" stroke="#7A40D1" stroke-width="3" stroke-miterlimit="10" stroke-linecap="round" stroke-linejoin="round"/>
<path d="M349.85 278.82C350.8 283.33 348.89 290.13 343.06 290.08C334.41 290.02 334.09 280.58 335.31 274.17C336.02 270.42 337.24 266.48 337.24 266.48L343.74 266.63C343.74 266.63 348.87 274.16 349.85 278.82Z" fill="white"/>
<path d="M339.47 269.54L342.09 269.6C343.72 272.15 346.32 276.65 346.91 279.43C347.38 281.69 346.85 284.4 345.65 285.88C344.98 286.7 344.18 287.08 343.08 287.08C340.83 287.06 339.88 286.22 339.37 285.59C337.78 283.66 337.35 279.5 338.26 274.73C338.6 272.88 339.09 270.96 339.47 269.54ZM337.23 266.49C337.23 266.49 336.01 270.43 335.3 274.18C334.09 280.59 334.4 290.02 343.05 290.09C343.07 290.09 343.09 290.09 343.1 290.09C348.89 290.09 350.78 283.33 349.84 278.83C348.86 274.17 343.73 266.65 343.73 266.65L337.23 266.49Z" fill="#FFA6C8"/>
<path d="M349.85 278.82C350.8 283.33 348.89 290.13 343.06 290.08C334.41 290.02 334.09 280.58 335.31 274.17C336.02 270.42 337.24 266.48 337.24 266.48L343.74 266.63C343.74 266.63 348.87 274.16 349.85 278.82Z" stroke="#7A40D1" stroke-width="3" stroke-miterlimit="10" stroke-linecap="round" stroke-linejoin="round"/>
<path d="M342.82 278.91C341.66 275.63 341.22 271.88 341.37 268.17" stroke="#7A40D1" stroke-width="3" stroke-miterlimit="10" stroke-linecap="round" stroke-linejoin="round"/>
<path d="M353.64 266.34C352.08 265.49 347.16 264.81 345.43 265.46" stroke="#7A40D1" stroke-width="3" stroke-miterlimit="10" stroke-linecap="round" stroke-linejoin="round"/>
<path d="M341.79 258.3C343.65 256.93 346.11 252.51 346.05 250.81" stroke="#7A40D1" stroke-width="3" stroke-miterlimit="10" stroke-linecap="round" stroke-linejoin="round"/>
<path d="M335.25 260.57C333.75 258.93 331.45 256.99 328.97 254.49" stroke="#7A40D1" stroke-width="3" stroke-miterlimit="10" stroke-linecap="round" stroke-linejoin="round"/>
<path d="M333.19 267.25C331.11 268.98 329.03 270.71 326.95 272.44" stroke="#7A40D1" stroke-width="3" stroke-miterlimit="10" stroke-linecap="round" stroke-linejoin="round"/>
<path d="M339.72 260.03C337.26 259.44 334.65 260.37 334.2 263.52C333.27 269.99 343.8 272.92 344.37 265.89C344.61 262.83 342.24 260.63 339.72 260.03Z" fill="#FFF1CF" stroke="#FFA661" stroke-width="3" stroke-miterlimit="10" stroke-linecap="round" stroke-linejoin="round"/>
</svg>
