<svg width="100%" height="100%" viewBox="0 0 450 450" fill="none" xmlns="http://www.w3.org/2000/svg" style="display: block;">
<path d="M357.5 253.65C352.99 254 349.93 250 347.54 246.73C344.69 242.83 342.05 238.76 339.33 234.77C341.9 231.32 343.42 226.97 337.28 226.49C335.15 226.32 334.04 226.81 332.13 225.57C330.64 224.6 329.57 223.54 327.87 222.86C325.84 222.05 324.11 221.74 322.46 220.18C320.86 218.66 319.62 216.75 318.09 215.16C312.94 209.8 306.7 206.54 299.19 208.35C294.11 209.57 289.24 211.43 284.09 212.43C278.86 213.44 273.56 213.98 268.24 214.09C267.86 213.94 267.44 213.9 266.98 214.01C266.85 214.04 266.72 214.08 266.59 214.11C266.4 214.11 266.21 214.12 266.03 214.12C265.32 214.12 264.75 214.37 264.31 214.75C260.83 215.83 257.6 217.31 254.44 219.27C253.96 219.52 253.5 219.8 253.05 220.11C250.29 222.03 248.13 224.91 245.87 227.35C239.25 234.5 232.63 239.04 223.68 242.92C220.74 244.19 222.75 248.73 225.69 247.49C226.15 248.7 227.46 249.73 229.06 249.26C228.9 249.31 227.39 255.42 227.19 256.18C226.57 258.53 226.11 260.89 225.96 263.32C225.68 267.91 226.26 272.49 227.21 276.97C228.24 281.86 230.07 286.64 230.57 291.63C230.79 293.79 230.6 295.99 230.97 298.13C231.11 298.94 231.73 300.31 231.97 301.35C230.61 303.22 232.86 306.3 235.04 305.04C235.65 304.69 236.08 304.26 236.39 303.79C237.68 302.15 238.97 300.51 240.25 298.87C241.8 300.69 243.04 302.65 243.96 304.72C244.5 309.4 245.04 314.08 245.58 318.77C245.67 319.59 246.08 320.14 246.62 320.47C246.35 324.56 246.27 328.65 248.08 332.32C251.06 338.35 256.75 342.47 263.27 343.59C263.67 347.06 263.91 351.24 265.81 353.95C266.01 354.24 266.24 354.49 266.48 354.73C266.51 354.8 266.53 354.87 266.56 354.94C268.63 359.46 271.9 362.66 276.44 364.68C277.05 364.95 277.71 364.9 278.29 364.64C280.43 368.62 283.15 372 286.54 374.82C286.63 375.38 286.92 375.92 287.44 376.37C288.54 377.31 289.21 377.57 290.27 377.61C290.35 378.21 290.65 378.78 291.22 379.15C294.43 381.26 297.69 382.48 301.51 382.94C301.73 382.97 301.93 382.95 302.14 382.92C302.49 383.31 302.96 383.6 303.57 383.68C304.99 383.86 306.13 383.8 307.3 383.44C310.05 383.13 312.73 382.52 315.35 381.53C319.9 379.81 322.46 377.1 327.6 378.06C334.72 379.38 341.27 377.89 348.21 375.8C350.3 375.17 350 371.87 348.12 371.2C345.76 370.36 343.88 369.16 342.28 367.48C343.04 366.92 343.79 366.36 344.55 365.8C344.62 365.78 344.69 365.76 344.77 365.73C348.25 364.26 353.56 361.28 353.85 356.96C353.95 355.51 353.36 354.11 352.44 353.02C352.18 352.72 351.6 352.33 350.89 351.91C352.03 350.97 352.31 349.16 350.85 348.04C348.22 346.02 346.07 343.66 344.52 340.71C343.58 338.93 341.71 335.25 341.92 332.9C341.93 332.9 341.93 332.91 341.94 332.91C341.94 333.85 342.42 334.76 343.45 335.15C347.77 336.79 352.35 333.26 351.46 328.61C351.35 328.03 351.09 327.58 350.74 327.25C350.83 326.11 350.53 325 349.76 324.18C349.68 323.75 349.58 323.32 349.47 322.89C348.74 320.05 348.15 317.64 348.23 314.9C348.35 314.73 348.45 314.53 348.54 314.31C350.27 309.49 351.48 304.59 352.19 299.59C353.84 291.88 354.3 283.96 352.22 276.24C351.54 273.71 350.59 271.29 349.64 268.85C349.1 267.47 348.53 266.09 348.08 264.67C347.99 264.35 347.91 264.03 347.82 263.71C348.57 263.62 349.28 263.25 349.72 262.6C350.18 261.92 350.33 261.1 350.18 260.34C351.62 260.48 353.23 260.78 354.38 260.61C356.42 260.31 358.02 259.54 359.46 258.06C361.15 256.3 360.11 253.45 357.5 253.65Z" fill="#DDDDDD"/>
<path d="M360.15 253.56C357.18 253.56 355.27 253.3 353.12 251.13C351.66 249.66 350.56 248.48 348.92 247.24C346.2 245.18 345.52 243.23 344.25 240.14C343.57 238.49 340.17 232.72 342.22 231.2C344.23 229.71 343.18 227.16 341.37 226.42C340.83 225.85 340.04 225.5 339.03 225.65C328.07 227.29 320.58 215.01 312.04 210.23C307.88 207.9 303.2 206.57 298.45 207.69C295.51 208.38 293.03 210.13 290.2 211.1C286.56 212.35 282.63 212.12 278.86 212.05C273.07 211.94 267.51 212.42 261.98 214.29C256.69 216.08 253.84 218.61 250.47 222.9C246.9 227.43 241.27 230.26 236.81 233.83C232.07 237.64 227.7 241.85 223.57 246.31C222.24 247.75 223.34 249.9 224.8 250.62C226.18 251.29 227.56 251.96 228.94 252.64C227.52 260.41 227.15 268.32 227.94 276.21C228.4 280.78 229.27 285.3 230.51 289.72C231.74 294.13 233.57 298.27 232.64 302.91C231.92 306.48 237.54 307.13 238.26 303.58C238.54 302.18 238.63 300.76 238.58 299.33C238.77 299.62 238.97 299.91 239.14 300.22C240.65 302.88 241.12 305.95 241.79 308.9C243.08 314.6 244.38 320.3 245.67 326C246.56 329.91 246.99 334.45 249.97 337.4C253.44 340.83 258.75 343.04 262.91 345.51C264.82 346.64 266.83 345.36 267.37 343.78C268.46 343.54 269.54 343.2 270.61 342.85C271.23 342.64 271.66 342.3 271.94 341.89C277.62 340.26 281.89 336.29 285.93 332.01C288.43 329.37 283.85 326.04 281.38 328.65C278.05 332.17 274.35 335.74 269.43 336.7C268.58 336.87 267.98 337.32 267.61 337.9C265.75 338.45 264.14 338.6 262.2 337.88C260.44 337.23 258.73 336.39 257 335.65C256.86 335.59 256.72 335.56 256.58 335.52C255.48 334.73 254.49 333.88 253.73 332.92C251.96 330.7 251.68 327.03 251.06 324.26C250.45 321.56 249.83 318.86 249.22 316.16C248.09 311.19 247.24 306.04 245.71 301.17C244.46 297.22 241.73 294.32 239.52 290.9C238.8 289.78 237.75 289.56 236.81 289.86C235.74 286.11 234.48 282.38 233.96 278.77C232.59 269.3 233.1 259.79 235.12 250.45C235.63 248.08 233.33 247.02 231.49 247.6L230.55 247.14C234.04 243.59 237.73 240.26 241.66 237.2C245.62 234.11 250.25 231.6 253.66 227.87C255.35 226.02 256.49 223.61 258.51 222.08C261.04 220.17 264.69 219.17 267.71 218.5C273.75 217.17 279.79 218.07 285.89 217.61C291.56 217.19 296.2 213.25 301.68 212.95C307.35 212.64 312.43 216.96 316.46 220.46C322.21 225.46 328.28 230.83 335.9 231.37C335.76 232.29 335.78 233.25 335.97 234.23C336.81 238.67 339.26 243.87 341.34 247.87C342.19 249.5 343 250.35 344.54 251.36C346.62 252.72 347.89 253.92 349.61 255.67C352.39 258.51 355.59 259.16 359.47 259.17C363.08 259.18 363.79 253.56 360.15 253.56Z" fill="white"/>
<path d="M308.7 287.8C312.98 282.29 315.15 275.65 314.69 268.52C314.46 264.92 308.8 264.7 309.04 268.33C309.47 274.97 307.48 281.07 302.88 285.95C301.93 286.96 301.52 288.91 302.75 289.95C316.75 301.83 307.9 322.52 306.52 337.62C306.19 341.25 311.84 341.42 312.17 337.81C313.65 321.67 321.69 301.1 308.7 287.8Z" fill="white"/>
<path d="M317.72 374.74C306.66 377.04 293.01 378.72 286.96 366.68C285.02 362.81 284.9 360.09 280.64 358.22C278.5 357.29 276.05 356.75 274.14 355.34C270.56 352.69 270.27 348.75 270.24 344.61C270.21 341.01 264.6 340.31 264.62 343.94C264.67 350.74 265.6 356.85 271.88 360.56C274.03 361.83 278.21 362.31 279.8 364.03C281.36 365.73 281.84 369.31 283.14 371.35C291.19 383.86 305.7 383 318.57 380.33C322.11 379.6 321.29 374 317.72 374.74Z" fill="white"/>
<path d="M349.39 368.9C340.43 370.18 339.64 357.4 338.41 351.61C336.81 344.09 332.42 337.74 330.31 330.42C329.32 326.97 323.71 327.77 324.72 331.27C326.21 336.44 328.69 341.07 330.76 346.01C332.9 351.12 333.23 356.5 334.66 361.78C335.88 366.3 338.54 370.63 342.36 372.92C340.13 373.36 337.69 373.28 335.56 373.22C331.43 373.12 326.84 372.94 323.27 370.62C319.78 368.36 317.93 364.53 315.42 361.35C312.89 358.14 307.31 355.07 307.59 350.52C307.82 346.9 302.2 346.21 301.97 349.85C301.58 356.12 305.79 359.11 309.65 363.28C313.69 367.64 315.94 373.17 321.42 376.08C326.42 378.74 332.45 378.93 337.99 378.86C343.43 378.78 348.58 377.86 352.08 373.36C353.61 371.41 351.76 368.56 349.39 368.9Z" fill="white"/>
<path d="M350.59 259.89C348.1 258.87 345.84 258.59 343.16 258.86C341.56 259.02 340.67 260.61 340.79 262.08C340.94 264.02 341.35 265.67 341.95 267.51C342.35 268.72 343.24 269.2 344.18 269.2C345.22 272.42 346.62 275.51 347.36 278.87C348.33 283.29 348.78 287.82 348.73 292.34C348.64 300.22 345.98 307.81 345.97 315.62C345.97 323.06 349.05 331.63 344.31 338.25C342.19 341.21 346.74 344.57 348.86 341.61C351.87 337.41 352.71 332.59 352.52 327.49C352.39 323.92 351.71 320.39 351.6 316.82C351.49 312.96 352.38 309.29 353.06 305.52C354.21 299.21 354.64 292.79 354.15 286.39C353.89 282.99 353.36 279.62 352.54 276.31C352.03 274.25 350.44 265.92 348.49 265.14C351.89 266.49 353.96 261.26 350.59 259.89Z" fill="white"/>
<path d="M341.57 277.36C340.79 273.82 335.19 274.64 335.98 278.21C339.32 293.31 337.48 310.22 324.04 319.86C321.08 321.98 324.64 326.38 327.59 324.26C342.57 313.52 345.32 294.32 341.57 277.36Z" fill="white"/>
<path d="M311.3 256.09C310.28 254.66 308.77 253.72 307.16 253.08C305.6 252.46 299.46 251.77 300.42 249.48C301.47 246.95 298.14 244.29 296.02 246.23C295.76 246.47 295.48 246.91 295.2 247.41L295.17 247.39C295.14 247.45 295.13 247.51 295.1 247.57C294.57 248.53 294.06 249.62 293.76 249.8C293.71 249.83 289.54 248.25 289.59 249.46C289.42 245.99 284.68 246.75 283.98 249.55C283.8 250.27 283.39 250.91 282.84 251.49C282.12 250.52 280.95 249.79 279.22 249.54C276.74 249.18 274.66 250.58 273.56 252.76C271.42 257.02 271.95 261.45 266.12 262.77C262.59 263.57 263.41 269.17 266.97 268.36C270.01 267.67 272.67 266.43 274.79 264.07C275.79 262.96 276.62 261.69 277.21 260.31C277.9 260.71 278.75 260.81 279.64 260.41C280.4 260.07 281.05 259.58 281.62 259.02C283.77 257.5 285.84 256.29 287.4 254.5C289.19 255.16 291.36 255.34 293.04 255.56C294.45 255.74 295.7 255.76 296.87 254.97C297.68 255.74 298.67 256.37 299.78 256.82C302.8 258.03 306.1 257.6 307.33 261.11C308.57 264.67 308.77 269.08 309.4 272.8C310.01 276.38 315.61 275.55 314.99 271.95C314.17 267.13 314.24 260.18 311.3 256.09Z" fill="white"/>
<path d="M338.76 235.27C341.43 233.9 344.12 230.46 342.83 226.17C338.61 227.93 326.92 223.61 322.49 218.68C318.06 213.75 314.98 209.25 304.74 208.19C294.49 207.13 293.49 211.06 283.48 212.58C273.92 214.03 270.91 211.07 258.26 215.27C248.51 218.51 246.18 225.91 241.19 230.98C236.2 236.06 231.68 240.19 227.34 241.16C225.72 241.53 223.92 242.1 222.84 243.45C222.02 244.49 221.67 245.93 222.06 247.19C223.65 252.32 231.67 248.76 234.46 247.15" stroke="#454545" stroke-width="4" stroke-miterlimit="10" stroke-linecap="round" stroke-linejoin="round"/>
<path d="M340.64 233.93C348.37 241.65 349.13 255.15 362.94 252.26C362.39 254.42 362.35 259.28 358.65 261.12C353.29 263.77 348.56 262.42 348.56 262.42" stroke="#454545" stroke-width="4" stroke-miterlimit="10" stroke-linecap="round" stroke-linejoin="round"/>
<path d="M348.56 262.42C354.76 277.85 356.99 287.8 354.43 299.67C353.2 305.34 348.96 314.39 349.87 321.4C350.77 328.41 354.46 330.17 354.46 330.17" stroke="#454545" stroke-width="4" stroke-miterlimit="10" stroke-linecap="round" stroke-linejoin="round"/>
<path d="M343.3 329.83C344.51 337.84 346.65 341.94 351.7 347.98C354.69 351.55 357.7 359.18 349.61 363.92" stroke="#454545" stroke-width="4" stroke-miterlimit="10" stroke-linecap="round" stroke-linejoin="round"/>
<path d="M339.52 361.35C342.77 368.76 350.34 373.59 358.85 370.59" stroke="#454545" stroke-width="4" stroke-miterlimit="10" stroke-linecap="round" stroke-linejoin="round"/>
<path d="M353.52 371.49C345.66 382.19 329.21 384.15 315.91 371.75" stroke="#454545" stroke-width="4" stroke-miterlimit="10" stroke-linecap="round" stroke-linejoin="round"/>
<path d="M263.6 350.42C265.11 360.44 272.83 363.74 278.7 365.75C280.76 374.94 288.42 379.19 294.22 381.76C301.65 385.05 315.29 385.27 319.85 380.12" stroke="#454545" stroke-width="4" stroke-miterlimit="10" stroke-linecap="round" stroke-linejoin="round"/>
<path d="M264.58 238.38C264.58 238.38 271.13 239.02 275.64 232.49C278.99 235.61 287.9 231.49 290 228.4C291.87 231.34 298.28 231.9 302.38 227.99C302.38 227.99 304.26 231.21 307.89 231.94C312.84 232.94 315.8 230.1 315.8 230.1C315.8 230.1 317.67 232.43 320.24 235.99C324.99 242.58 323.47 247.45 321.66 248.9C319.85 250.35 314.27 252.27 313.15 244.85C312.15 238.24 306.67 236.92 302.81 238.94C300.22 235.57 294.11 235.37 290.42 238.49C286.1 236.1 281.82 239.5 280.36 242.91C278.5 241.82 269.67 243.15 266.81 248.29C265 251.54 262.69 254.85 259.79 257.21C257.35 259.19 252.42 260.79 250.99 256.61C250.14 254.14 252.48 251.6 254.25 250.18C261.73 244.22 263.36 242.3 264.58 238.38Z" fill="#A34949" stroke="black" stroke-width="3.5" stroke-miterlimit="10" stroke-linecap="round" stroke-linejoin="round"/>
<path d="M275.64 232.47C279.04 228.86 277.01 224.65 277.01 224.65" stroke="black" stroke-width="3.5" stroke-miterlimit="10" stroke-linecap="round" stroke-linejoin="round"/>
<path d="M289.95 228.4C292.35 225.45 291.3 220.67 291.3 220.67" stroke="black" stroke-width="3.5" stroke-miterlimit="10" stroke-linecap="round" stroke-linejoin="round"/>
<path d="M302.42 228.01C303.69 225.27 303.74 222.46 303.39 220.91" stroke="black" stroke-width="3.5" stroke-miterlimit="10" stroke-linecap="round" stroke-linejoin="round"/>
<path d="M271.66 260C271.95 260.42 272.24 260.83 272.53 261.25" stroke="black" stroke-width="3.5" stroke-miterlimit="10" stroke-linecap="round" stroke-linejoin="round"/>
<path d="M276.46 256.74C276.67 257.1 276.88 257.47 277.1 257.83" stroke="black" stroke-width="3.5" stroke-miterlimit="10" stroke-linecap="round" stroke-linejoin="round"/>
<path d="M281.77 253.77C281.95 254.29 282.12 254.81 282.3 255.33" stroke="black" stroke-width="3.5" stroke-miterlimit="10" stroke-linecap="round" stroke-linejoin="round"/>
<path d="M287.54 251.98C287.68 252.6 287.83 253.22 287.97 253.84" stroke="black" stroke-width="3.5" stroke-miterlimit="10" stroke-linecap="round" stroke-linejoin="round"/>
<path d="M294.5 250.96C294.41 251.55 294.32 252.15 294.23 252.74" stroke="black" stroke-width="3.5" stroke-miterlimit="10" stroke-linecap="round" stroke-linejoin="round"/>
<path d="M301.06 251.74C300.84 252.49 300.63 253.24 300.41 253.99" stroke="black" stroke-width="3.5" stroke-miterlimit="10" stroke-linecap="round" stroke-linejoin="round"/>
<path d="M280.96 242.25C281.39 243 281.83 243.76 282.26 244.51" stroke="black" stroke-width="3.5" stroke-miterlimit="10" stroke-linecap="round" stroke-linejoin="round"/>
<path d="M291.2 238.44C291.91 239.29 292.32 240.38 292.36 241.49" stroke="black" stroke-width="3.5" stroke-miterlimit="10" stroke-linecap="round" stroke-linejoin="round"/>
<path d="M303.18 239.43C303.31 240.44 303.44 241.45 303.57 242.46" stroke="black" stroke-width="3.5" stroke-miterlimit="10" stroke-linecap="round" stroke-linejoin="round"/>
<path d="M315.81 230.1C319.25 227.28 319.3 224.77 319.3 224.77" stroke="black" stroke-width="3.5" stroke-miterlimit="10" stroke-linecap="round" stroke-linejoin="round"/>
<path d="M264.58 238.38C265.19 236.42 264.89 233 264.89 233" stroke="black" stroke-width="4" stroke-miterlimit="10" stroke-linecap="round" stroke-linejoin="round"/>
<path d="M270.27 270.64C271 271.02 271.73 271.41 272.46 271.79" stroke="black" stroke-width="3.5" stroke-miterlimit="10" stroke-linecap="round" stroke-linejoin="round"/>
<path d="M272.45 276.43C272.71 276.58 272.96 276.72 273.22 276.87" stroke="black" stroke-width="3.5" stroke-miterlimit="10" stroke-linecap="round" stroke-linejoin="round"/>
<path d="M274.7 281.44C278.93 286.8 280.64 294.08 279.22 300.77" stroke="#454545" stroke-width="3.5" stroke-miterlimit="10" stroke-linecap="round" stroke-linejoin="round"/>
<path d="M327.41 258.44C330.47 256.28 331.89 252.05 330.76 248.48" stroke="#454545" stroke-width="3.5" stroke-miterlimit="10" stroke-linecap="round" stroke-linejoin="round"/>
<path d="M321.62 237.62C324.65 238.19 327.92 235.88 328.4 232.83" stroke="black" stroke-width="3.5" stroke-miterlimit="10" stroke-linecap="round" stroke-linejoin="round"/>
<path d="M251.63 269.9C249.12 280.84 249.52 288 250.12 290.34C250.83 293.17 253.1 294.8 253.1 294.8" stroke="#454545" stroke-width="3.5" stroke-miterlimit="10" stroke-linecap="round" stroke-linejoin="round"/>
<path d="M257.88 279.46C256.83 283.78 256.24 288.35 259.58 290.73" stroke="#454545" stroke-width="3.5" stroke-miterlimit="10" stroke-linecap="round" stroke-linejoin="round"/>
<path d="M313.96 261.05C314.39 261.34 314.82 261.63 315.26 261.92" stroke="black" stroke-width="3.5" stroke-miterlimit="10" stroke-linecap="round" stroke-linejoin="round"/>
<path d="M314.11 266.11C314.16 276.72 311.08 283.49 306.47 289.01" stroke="#454545" stroke-width="3.5" stroke-miterlimit="10" stroke-linecap="round" stroke-linejoin="round"/>
<path d="M332.54 263.67C334.2 262.93 335.65 261.74 336.71 260.26" stroke="#454545" stroke-width="3.5" stroke-miterlimit="10" stroke-linecap="round" stroke-linejoin="round"/>
<path d="M336.64 268.98C337.99 268.34 339.16 267.35 340 266.12" stroke="#454545" stroke-width="3.5" stroke-miterlimit="10" stroke-linecap="round" stroke-linejoin="round"/>
<path d="M341.82 272.45C341.25 274.45 340.23 276.32 338.84 277.87" stroke="#454545" stroke-width="3.5" stroke-miterlimit="10" stroke-linecap="round" stroke-linejoin="round"/>
<path d="M343.15 280.09C344.56 283.06 344.65 286.64 343.39 289.68" stroke="#454545" stroke-width="3.5" stroke-miterlimit="10" stroke-linecap="round" stroke-linejoin="round"/>
<path d="M309.47 293.73C310.83 292.7 312.19 291.67 313.54 290.65" stroke="#454545" stroke-width="3.5" stroke-miterlimit="10" stroke-linecap="round" stroke-linejoin="round"/>
<path d="M311.78 299.38C313.03 298.57 314.09 297.29 313.93 296.5" stroke="#454545" stroke-width="3.5" stroke-miterlimit="10" stroke-linecap="round" stroke-linejoin="round"/>
<path d="M313.9 304.54C315.74 310.03 315.8 317.3 314.05 323.12" stroke="#454545" stroke-width="3.5" stroke-miterlimit="10" stroke-linecap="round" stroke-linejoin="round"/>
<path d="M343.34 295.09C344.41 304.37 341.88 315.16 330.98 321.45" stroke="#454545" stroke-width="3.5" stroke-miterlimit="10" stroke-linecap="round" stroke-linejoin="round"/>
<path d="M256.28 300.63L259.81 300.67" stroke="#454545" stroke-width="3.5" stroke-miterlimit="10" stroke-linecap="round" stroke-linejoin="round"/>
<path d="M254.97 307.33C254.84 316.53 254.74 332.76 263.99 333.29" stroke="#454545" stroke-width="3.5" stroke-miterlimit="10" stroke-linecap="round" stroke-linejoin="round"/>
<path d="M239.96 298.43C247.53 313.37 242.37 331.44 250.37 339.19C258.37 346.94 265.66 344.35 265.66 344.35" stroke="#454545" stroke-width="4" stroke-miterlimit="10" stroke-linecap="round" stroke-linejoin="round"/>
<path d="M230.57 248.94C223.72 258.49 223.47 270.45 228.4 286.38C229.45 289.77 230.66 293.24 230.61 296.83C230.58 299.26 229.06 302.77 231.26 304.7C233.5 306.66 236.87 305.38 238.66 302.07C240.68 298.35 240.61 293.23 240.2 289.16" stroke="#454545" stroke-width="4" stroke-miterlimit="10" stroke-linecap="round" stroke-linejoin="round"/>
<path d="M289.1 347.95C291.87 360.34 300.52 370.31 306.73 372.54" stroke="#454545" stroke-width="3.5" stroke-miterlimit="10" stroke-linecap="round" stroke-linejoin="round"/>
<path d="M302.68 351.66C303.63 357.92 306.34 361.83 309.23 365.08" stroke="#454545" stroke-width="3.5" stroke-miterlimit="10" stroke-linecap="round" stroke-linejoin="round"/>
</svg>
