<svg width="450" height="450" viewBox="0 0 450 450" fill="none" xmlns="http://www.w3.org/2000/svg">
<path d="M296.14 250.07L304.42 247.01L316 258.4L317.69 264.05L308.94 270.67L303.8 260.98L296.14 250.07Z" fill="#90969E"/>
<path d="M313.93 265.77L328.42 264.41L341.05 274.72L342.07 286.29L337.87 295.01L327.2 296.33H319.17L311.12 292.84L305.38 285.53L306.95 272.86L313.93 265.77Z" fill="white"/>
<path d="M241.76 307.77L241.9 313.13L225.41 314.28L214.55 312.37L205.3 294.79L200.95 266.92L205.38 256.5C205.38 256.5 210.81 252.24 219.82 258.16C223.92 260.85 225.68 262.97 225.3 265.59L236.86 281.88L241.76 307.77Z" fill="#90969E"/>
<path d="M259.04 319.05L253.83 314.05L248.03 314.83L242.33 312.16L241.39 304.75C236.94 305.21 232.43 288.19 236.25 283.5C237.38 281.5 239.77 281.11 239.77 281.11L243.85 279.54L254.54 278.06L264.66 279L275.43 284.45L282.31 297.12L282.64 310.73L278.46 312.09L271.54 314.48L265.65 317.65L259.04 319.05Z" fill="white"/>
<path d="M205.4 256.51C200.61 261.64 199.3 279.91 206.43 297.79C209.86 306.4 214.3 313.97 227.3 315.33C232.47 315.87 237.46 315.2 242.33 312.16" stroke="black" stroke-width="4" stroke-miterlimit="10" stroke-linecap="round" stroke-linejoin="round"/>
<path d="M244.96 300.98C240.62 303.04 239.35 313.38 246.76 315.24C251.76 316.49 257.35 313.23 258.15 306.81" stroke="black" stroke-width="4" stroke-miterlimit="10" stroke-linecap="round" stroke-linejoin="round"/>
<path d="M253.36 315.09C255.02 317.57 257.93 320.34 262.67 319.36C267.41 318.38 272.17 314.84 272.48 306.61" stroke="black" stroke-width="4" stroke-miterlimit="10" stroke-linecap="round" stroke-linejoin="round"/>
<path d="M270.69 314.65C276.46 315.41 279.39 313.62 281.71 309.32C285.53 302.24 281.54 293.02 278.46 289.33C272.63 282.33 268.91 279.89 259.87 278.4C239.82 275.09 228.1 287.3 222.29 294.5" stroke="black" stroke-width="4" stroke-miterlimit="10" stroke-linecap="round" stroke-linejoin="round"/>
<path d="M235.89 280.47C233.19 277.97 228.19 270.5 225.32 265.6" stroke="black" stroke-width="4" stroke-miterlimit="10" stroke-linecap="round" stroke-linejoin="round"/>
<path d="M332.28 287.29C332.13 288.79 332.66 295.18 325.17 296.81C321.88 297.52 318.16 296.92 315.99 294.63" stroke="black" stroke-width="4" stroke-miterlimit="10" stroke-linecap="round" stroke-linejoin="round"/>
<path d="M321.08 283.2C321.16 284.58 321.36 288.77 317.34 292.08C315.48 293.61 313.31 293.44 310.05 292.57C304.22 291.02 305.09 281.76 305.69 278.95C306.95 273.03 311.95 261.91 328.42 264.41C337.56 265.8 342.7 273.81 342.68 283.82C342.66 294.04 336.33 298.07 329.41 295.64" stroke="black" stroke-width="4" stroke-miterlimit="10" stroke-linecap="round" stroke-linejoin="round"/>
<path d="M296.14 251.15C299.26 253.71 304.96 261.73 306.76 267.08C307.34 268.79 307.76 270.8 307.97 272.86" stroke="black" stroke-width="4" stroke-miterlimit="10" stroke-linecap="round" stroke-linejoin="round"/>
<path d="M303.07 247.01C308.75 249.35 317.13 257.77 319.17 264.53" stroke="black" stroke-width="4" stroke-miterlimit="10" stroke-linecap="round" stroke-linejoin="round"/>
<path d="M305.84 243.84C302.68 248.09 296.83 249.88 290.66 250.5" stroke="black" stroke-width="4" stroke-miterlimit="10" stroke-linecap="round" stroke-linejoin="round"/>
</svg>
