<svg width="100%" height="100%" viewBox="0 0 450 450" fill="none" xmlns="http://www.w3.org/2000/svg" style="display: block;">
<path d="M184.23 244.35L190.61 289.09L158.16 274.94L151.77 217.26L132.3 208.6L107.05 220.01L93.5 247.37L95.76 313.39L124.28 353.15L162.11 373.28L205.97 375.66L208.7 278.21L204.37 243.53L194.39 241.07L184.23 244.35Z" fill="BACKGROUND_PLACEHOLDER"/>
<path d="M235.01 377.29L204.04 371.56L183.25 362.34L165.23 360.42L158.3 366.69L157.59 376.99L168.42 398.91L177.78 411.31L176.04 415.29L171.29 419.14L164.15 415.63L156.94 410.84L149.44 404.92L140.97 396.96L131.23 382.26L127.56 360.41L134.58 338.19L150.42 327.72L173.55 325.11L195.13 316.93L202.53 302.27L198.68 279.8L193.45 256.97L196.63 241.54L246.82 243.89L264.83 251L282.35 252.33L289.88 251L301.88 263.35L317.29 255.26L329.74 256.19L339.01 262.71L341.48 269.91L341.88 284.74L334.54 297.96L324.09 299.9L319.75 297.6L321.8 284.74H314.65L304.32 293.68L307.43 317.07L298.11 345.73L277.94 364.55L258.86 372.62L235.01 377.29Z" fill="BODY_PLACEHOLDER"/>
<path opacity="0.68" d="M302.96 287.07C305.62 286.85 310.6 284.4 312.31 282.94L314.02 285.28L304.32 293.67L302.96 287.07Z" fill="white"/>
<path opacity="0.68" d="M161.08 414.43L144.34 400.12L132.28 385.25L127.59 365.49L131.25 347.13L141.66 332.43L156.42 326.03L173.56 325.11L190.62 320.78L200.81 308.73L202.84 296.19L200.24 285.29L197.25 273.49L195.15 262.24V247.15L197 242.17L201.73 243.52C198.41 250.17 199.48 261.85 202.49 271.62C207.45 287.75 213.12 294.78 210.79 306.61C209.1 315.22 203.74 322.44 193.2 327.09C181.02 332.45 171.46 330.76 158.33 333.11C151.5 334.33 145.62 336.4 139.37 344.87C134.38 351.63 132.7 367.42 136.55 378.38C140.22 388.83 146.37 394.2 152.95 401.32C158.66 407.51 170.15 415.7 171.99 413.3C173.15 411.78 168.32 406.32 167.05 404.64C163.84 400.39 159.51 396.61 155.17 388.92C152.2 383.68 151.15 376.85 151.15 372.62C151.15 361.74 156.66 355.08 165.28 352.99C177.2 350.1 185.93 355.45 197.96 361.74C209.98 368.03 219.96 369.1 233.53 369.65C249.2 370.29 260.92 365.35 267.15 362.19C283.26 354.03 290.93 344 295.01 334.75C299.61 324.33 301.16 314.72 300.17 300.86C298.92 283.39 288.8 265.9 276.73 252.24L282.41 252.33L301.23 282.44L306.82 303.51L305.85 323.08L298.48 343.94L286.51 357.92L270.82 368.71L252.5 373.27L231.34 375.65L209.85 372.62L187.01 364.36L172.45 359.65L162.56 361.75L157.2 372.63L159.61 386.81L169.89 400.8L174.15 409.4L175.7 416.67L168.54 417.51L161.08 414.43Z" fill="white"/>
<path opacity="0.68" d="M325.31 280.43C325.97 284.45 324.16 287.91 324.16 291.68C324.16 294.03 326.38 294.43 327.95 294.55C330.4 294.74 331.86 293.28 333.6 291.11C335.91 288.24 338.74 276.31 342.67 274.22C344.46 278.08 341.88 285.87 341.88 285.87L336.82 295.68L329.69 299.92L319.53 295.5L320.31 283.96L325.31 280.43Z" fill="white"/>
<path opacity="0.68" d="M220.21 265.91C220.25 270.8 220.11 277.02 222.01 283.5C223.51 288.6 226.72 294.34 229.17 296.38C236.11 302.16 242.49 304.5 252.44 300.86L255.02 307.79L238.75 308.73L223.78 298.05L216.81 283.39L215.61 261.49C216.47 260.29 220.16 260.14 220.21 265.91Z" fill="white"/>
<path opacity="0.68" d="M253.24 293.43C257.03 295.39 257.99 305.53 264.75 307.79C268.97 309.2 276.35 306.42 279.48 303.58C282.59 300.76 283.31 294.35 284.17 291.79L283.25 306.75L274.41 314.7L264.05 315.36L255.03 307.79L253.24 293.43Z" fill="white"/>
<path d="M288.39 250.78C291.21 252.12 298.17 257.44 301.87 263.34" stroke="black" stroke-width="4" stroke-miterlimit="13.2283" stroke-linecap="round" stroke-linejoin="round"/>
<path d="M196.63 241.54C189.08 255.07 200.72 284.43 202.47 293.94C203.86 301.52 202.98 305.27 199.1 311C194.8 317.35 188.05 320.79 180.99 322.73C170.58 325.59 152.82 322.82 140.46 333.4C134.08 338.86 124.65 352.04 128.41 373.49C130.56 385.76 140.62 397.16 144.88 400.97C153.29 408.5 162.46 415.29 166.9 416.97C170.33 418.27 173.87 418.74 175.65 416.66C178.44 413.41 175.17 407.84 172.9 404.8C168.66 399.13 162.63 392.24 158.92 381.86C155.92 373.45 156.94 367.25 160.22 363.68C168.97 354.16 186.51 363.58 194.99 367.6C205.58 372.62 218.42 376.09 238.05 375.79C260.99 375.44 276.21 368.56 291.04 353.53C304.97 339.41 308.91 318.09 305.7 297.72C302.8 279.37 289.49 260.83 282.34 252.33" stroke="black" stroke-width="4" stroke-miterlimit="13.2283" stroke-linecap="round" stroke-linejoin="round"/>
<path d="M314.65 284.74C314.16 285.89 310.98 290.23 305.18 293.43" stroke="black" stroke-width="4" stroke-miterlimit="13.2283" stroke-linecap="round" stroke-linejoin="round"/>
<path d="M196.54 243.01C199.04 243.73 201.57 244.28 204.23 244.57C205.02 244.66 205.77 244.14 205.95 243.34C206.15 242.48 205.61 241.63 204.75 241.43L204.69 241.42C201.34 240.65 197.99 239.55 194.72 238.27L192.26 241.64C193.67 242.14 195.1 242.59 196.54 243.01Z" fill="black"/>
<path d="M292.75 244.94C291.12 246.4 289.08 247.61 287.04 248.39C282.87 249.94 277.8 250.16 273.05 250.11C268.45 249.95 263.76 248.47 259.3 246.54C257.07 245.56 254.87 244.46 252.72 243.25L251.12 242.33L250.72 242.1C250.67 242.07 250.28 241.82 249.92 241.72C249.17 241.5 248.51 241.64 248.07 241.78C247.17 242.09 246.63 242.46 246.09 242.74C245.58 243.03 245.1 243.22 244.79 243.27C244.75 243.28 244.71 243.28 244.68 243.29C243.82 243.49 243.29 244.34 243.49 245.2C243.69 246.06 244.54 246.59 245.4 246.39L245.44 246.38C246.36 246.17 247.01 245.78 247.6 245.47C248.16 245.15 248.7 244.85 249 244.78C249 244.78 249 244.78 249.01 244.78C249.13 244.86 249.33 244.98 249.44 245.06L251.06 246.09C253.23 247.44 255.47 248.7 257.79 249.83C262.42 252.07 267.4 253.98 272.86 254.31C274.26 254.4 275.48 254.37 276.78 254.35C278.07 254.32 279.37 254.26 280.68 254.14C283.29 253.9 285.97 253.48 288.59 252.49C291.22 251.46 293.56 250.07 295.68 248.18C296.08 247.81 296.47 247.42 296.84 247.01L292.75 244.94ZM249.07 244.77C249.09 244.77 249.1 244.77 249.1 244.77C249.1 244.76 249.09 244.76 249.07 244.77Z" fill="black"/>
<path d="M280.7 283.4C285.22 290.24 287.25 311.46 274.4 314.71C267.94 316.35 260.7 315.04 257.02 309.52C252.21 302.29 251.93 289.21 249.77 287.14" stroke="black" stroke-width="4" stroke-miterlimit="13.2283" stroke-linecap="round" stroke-linejoin="round"/>
<path d="M236.56 256.97C237.03 259.7 238.72 269.3 244.56 270.62C250.4 271.94 255.76 266 262.63 265.91C269.5 265.82 274.08 270.34 279.36 273.09C282.77 274.87 291.52 274.98 291.52 280.48C291.52 285.07 285.38 287.18 281.99 285.91" stroke="black" stroke-width="4" stroke-miterlimit="13.2283" stroke-linecap="round" stroke-linejoin="round"/>
<path d="M253.78 307.6C242.49 311.35 228.77 308.03 220.6 293.21C215.35 283.68 213.78 267.2 216.55 259.85" stroke="black" stroke-width="4" stroke-miterlimit="13.2283" stroke-linecap="round" stroke-linejoin="round"/>
<path d="M301.17 266.53C304.77 261.87 308.16 257.53 314.65 255.87C321.74 254.06 329 253.85 335.95 261.59C338.82 264.79 342.26 271.12 342.26 278.86C342.25 291.81 337.41 296.51 331.51 299.01C327.47 300.73 322.07 300.2 320.27 295.86C318.47 291.52 320.62 286.41 320.87 283.17" stroke="black" stroke-width="4" stroke-miterlimit="13.2283" stroke-linecap="round" stroke-linejoin="round"/>
<path d="M324.35 279.71C321.89 283.47 316.24 286.47 313.22 284.02C311.16 282.35 311.55 279.41 312.69 277.18C314.61 273.43 318.14 271.45 319.23 269.14" stroke="black" stroke-width="4" stroke-miterlimit="13.2283" stroke-linecap="round" stroke-linejoin="round"/>
</svg>
