<svg width="100%" height="100%" viewBox="0 0 450 450" fill="none" xmlns="http://www.w3.org/2000/svg" style="display: block;">
<path d="M358.31 256.88L350.31 253.73L347.16 248.25L338.91 247.67L327.67 255.51L322.73 262.19L324.42 272.51L332.05 276.53L338.75 282.34L344.11 279.16L350.31 278.54L353.44 272.09L359.49 265.77L358.31 256.88Z" fill="#F7F7F7"/>
<path d="M220.23 302.01L215.2 333.24L232.7 338.69L258.2 341.6L260.37 327.6L259.61 303.01L256.9 274.76L221.73 272.07L220.23 302.01Z" fill="COLOR_PLACEHOLDER"/>
<path d="M306.41 269.62L301.67 264.29L304.97 257.38L300.63 248.54L295.89 244.83L283.47 252.63L264.82 250.46L251.54 243.64L232.29 245.66L216.3 245.07L201.29 241.58L191.07 239.06L184.06 243.36L183.55 254.34L190.96 259.21L192.05 263.23L188.52 271.18L193.03 280.62L204.8 287.98L215.08 289.97L215.07 290.25L250.23 292.95L250.19 292.51L266.55 293.3L301.71 286.61L306.76 278.71L306.41 269.62Z" fill="COLOR_PLACEHOLDER"/>
<path d="M189.55 239.06C186.04 240.44 184.08 243.01 183.79 247.34C183.57 250.71 183.82 252.68 186.41 255.41C188.62 257.73 194.24 259.6 200.39 259.49" stroke="black" stroke-width="4" stroke-miterlimit="10" stroke-linecap="round" stroke-linejoin="round"/>
<path d="M249.73 243.36C224.75 251.68 199.82 241.61 189.55 239.06" stroke="black" stroke-width="4" stroke-miterlimit="10" stroke-linecap="round" stroke-linejoin="round"/>
<path d="M192.05 263.23C189.65 266.45 186.79 271.33 190.89 278.05C193.97 283.1 198.9 286.76 206.84 288.76C222.86 292.8 235.44 292.51 262.18 292.51C275.92 292.51 297.23 290.12 302.42 285.28C307.31 280.73 307.54 275.98 307.31 273.49C306.75 267.6 303.74 265.81 301.67 264.29C304.4 262.45 305.07 257.4 303.22 253C301.24 248.28 299.31 246.78 295.89 244.83" stroke="black" stroke-width="4" stroke-miterlimit="10" stroke-linecap="round" stroke-linejoin="round"/>
<path d="M241.74 253.73C247.71 257.14 275.22 262.34 283.47 252.63" stroke="black" stroke-width="3" stroke-miterlimit="10" stroke-linecap="round" stroke-linejoin="round"/>
<path d="M194.05 258.55C194.12 261.61 195.35 264.71 197.48 266.92C198.54 268.07 199.79 268.9 201.3 269.74C202.77 270.55 204.32 271.23 205.92 271.78C209.13 272.88 212.55 273.47 216.02 273.65C219.49 273.84 223 273.66 226.5 273.23H226.52C227.34 273.13 228.09 273.71 228.19 274.54C228.29 275.34 227.74 276.07 226.95 276.2C223.32 276.82 219.63 277.22 215.89 277.11C212.16 277.04 208.39 276.52 204.75 275.4C202.93 274.83 201.15 274.12 199.43 273.24C197.77 272.38 195.96 271.22 194.55 269.73C191.64 266.77 190.04 262.69 190.05 258.54C190.05 257.44 190.95 256.54 192.06 256.55C193.15 256.55 194.03 257.42 194.05 258.5V258.55Z" fill="black"/>
<path d="M221.85 292.52C221.85 306.97 218.71 320.43 215.2 333.24C218.71 339.22 247.75 343.44 258.19 341.6C261.67 332.48 262.9 309.45 259.95 292.98" stroke="black" stroke-width="4" stroke-miterlimit="10" stroke-linecap="round" stroke-linejoin="round"/>
<path d="M349.87 254.7C354.11 254.21 359.53 257.45 359.69 263.35C359.85 269.25 355.81 272.24 352.41 272.16C352.79 273.49 352.76 276.07 351.08 277.45C349.31 278.9 346.06 278.76 344.57 278.22C343.92 279.92 342.06 282.26 337.62 281.78C334.72 281.46 332.06 279.1 332.05 276.53C329.58 276.46 323.75 274.81 322.82 268.36C321.67 260.36 326.52 254.96 331.07 255.51C332.93 250.34 339.64 246.7 344.73 247.91C349.82 249.12 350.15 253.73 349.74 256.4" stroke="#707991" stroke-width="4" stroke-miterlimit="10" stroke-linecap="round" stroke-linejoin="round"/>
<path d="M296.03 240.17C295.62 241.82 294.31 243.57 292.75 244.94C291.12 246.4 289.08 247.61 287.04 248.39C282.87 249.94 277.8 250.16 273.05 250.11C268.45 249.95 263.76 248.47 259.3 246.54C257.07 245.56 254.87 244.46 252.72 243.25L251.12 242.33L250.72 242.1C250.67 242.07 250.28 241.82 249.92 241.72C249.17 241.5 248.51 241.64 248.07 241.78C247.17 242.09 246.63 242.46 246.09 242.74C245.58 243.03 245.1 243.22 244.79 243.27C244.75 243.28 244.71 243.28 244.68 243.29C243.82 243.49 243.29 244.34 243.49 245.2C243.69 246.06 244.54 246.59 245.4 246.39L245.44 246.38C246.36 246.17 247.01 245.78 247.6 245.47C248.16 245.15 248.7 244.85 249 244.78C249 244.78 249 244.78 249.01 244.78C248.91 244.72 248.87 244.69 249.01 244.75C249.04 244.76 249.07 244.76 249.09 244.76C249.13 244.76 249.13 244.75 249.09 244.76C249.07 244.76 249.05 244.77 249.02 244.78C249.14 244.86 249.34 244.98 249.45 245.06L251.07 246.09C253.24 247.44 255.48 248.7 257.8 249.83C262.43 252.07 267.41 253.98 272.87 254.31C274.27 254.4 275.49 254.37 276.79 254.35C278.08 254.32 279.38 254.26 280.69 254.14C283.3 253.9 285.98 253.48 288.6 252.49C291.23 251.46 293.57 250.07 295.69 248.18C296.73 247.23 297.68 246.16 298.5 244.93C299.31 243.71 299.98 242.31 300.28 240.68C300.31 240.5 300.32 240.33 300.3 240.16H296.03V240.17Z" fill="black"/>
</svg>
