<svg width="100%" height="100%" viewBox="0 0 450 450" fill="none" xmlns="http://www.w3.org/2000/svg" style="display: block;">
<path d="M304.93 331.14L300.12 326.79L292.75 339.75L279.54 350.94L271.97 361.3L266.09 364.84L265.66 364.74L265.08 365.45L263.22 366.58L262.91 366.96L263.7 367.13L254.02 378.86L281.93 392.45L290.9 376.58L279.17 372.49L282.28 371.01L283.64 371.29L298.42 367L305.12 359.16L308.01 347.77L304.93 331.14Z" fill="BODY_PLACEHOLDER"/>
<path d="M279.87 391.45C277.67 383.8 287.34 376.62 290.9 376.58C297.03 377.42 303.87 378.28 303.87 378.28L308.93 382.23L307.54 386.02L306.15 390.35L302.23 393.66L297.24 395.86L279.87 391.45Z" fill="#F9F9F9"/>
<path d="M254.65 376.52C256.77 377.97 259.22 379.31 261.65 380.58C264.1 381.84 266.56 383.1 269.07 384.28C274.07 386.65 279.14 388.93 284.27 390.96C286.84 391.95 289.42 392.91 291.98 393.69C293.28 394.07 294.46 394.4 295.64 394.46C296.8 394.54 297.95 394.4 298.74 393.98C299.52 393.58 299.9 392.89 299.85 392.1C299.8 391.32 299.18 390.37 298.27 389.68C296.44 388.27 293.8 387.72 291.39 388.1C290.57 388.23 289.8 387.67 289.67 386.85C289.54 386.03 290.1 385.26 290.91 385.13C290.94 385.13 290.96 385.12 290.99 385.12H291C294.1 384.8 297.35 385.37 300.05 387.29C301.34 388.27 302.65 389.65 302.97 391.68C303.13 392.68 302.95 393.74 302.5 394.66C302.06 395.6 301.31 396.35 300.51 396.86C298.88 397.88 297.14 398.11 295.53 398.11C293.91 398.13 292.35 397.78 290.96 397.41C288.13 396.68 285.47 395.71 282.82 394.71C277.55 392.67 272.37 390.46 267.29 388.01C264.75 386.8 262.22 385.54 259.73 384.2C257.23 382.84 254.78 381.47 252.32 379.73C251.42 379.09 251.21 377.84 251.84 376.94C252.47 376.05 253.7 375.83 254.6 376.44L254.65 376.52Z" fill="black"/>
<path d="M301.59 391.42C303.03 391.42 304.34 391.09 304.95 390.39C305.28 390.06 305.47 389.57 305.58 389C305.67 388.43 305.64 387.7 305.5 387.18C305.23 386.1 304.32 385.22 303.05 384.67C301.79 384.14 300.26 383.94 298.89 384.13H298.86C298.04 384.24 297.28 383.67 297.17 382.85C297.06 382.04 297.61 381.29 298.41 381.16C300.39 380.84 302.34 381.03 304.23 381.75C305.17 382.12 306.09 382.65 306.89 383.4C307.69 384.15 308.33 385.15 308.66 386.23C308.98 387.34 309.04 388.34 308.92 389.45C308.77 390.54 308.37 391.72 307.55 392.65C306.75 393.58 305.68 394.19 304.66 394.52C303.63 394.86 302.62 394.97 301.64 395.01C300.65 395.05 299.81 394.28 299.77 393.28C299.73 392.29 300.5 391.45 301.5 391.41C301.52 391.41 301.55 391.41 301.57 391.41L301.59 391.42Z" fill="black"/>
<path d="M278.5 370.9C281.34 372.18 284.31 373.23 287.36 374.04C290.39 374.83 293.55 375.5 296.55 375.66C298.09 375.74 299.71 375.69 301.48 375.83C303.22 375.97 305.25 376.43 306.86 377.62C307.68 378.19 308.34 378.86 308.95 379.63C309.58 380.43 310.06 381.42 310.26 382.48C310.64 384.62 309.99 386.9 308.07 388.36C307.41 388.86 306.47 388.73 305.97 388.07C305.47 387.41 305.59 386.48 306.24 385.98L306.31 385.92C306.63 385.67 306.95 385.2 307.12 384.68C307.27 384.16 307.32 383.61 307.19 383.08C307.07 382.55 306.82 382.05 306.43 381.58C306.02 381.1 305.52 380.6 304.99 380.27C302.94 378.8 299.82 379.2 296.41 379.14C292.93 379.03 289.69 378.41 286.42 377.66C283.17 376.89 279.98 375.85 276.87 374.55C275.85 374.12 275.37 372.95 275.8 371.93C276.23 370.91 277.4 370.43 278.42 370.86C278.43 370.87 278.45 370.87 278.46 370.88L278.5 370.9Z" fill="black"/>
<path d="M201.45 387.82L199.88 378.15L205.91 370.57L202.47 353.15L201.45 337.59L221.75 315.35L236.65 324.98L246.89 326.96L252 333.27H255.97L261.77 345.13L263.22 361.3L257.73 373.28L240.93 384.9L257.32 391.75L247.66 414.67L209.92 395.75L201.45 387.82Z" fill="BODY_PLACEHOLDER"/>
<path d="M244.3 412C244.71 405.49 252.04 392.28 257.32 391.75L268.06 393.84L276.54 398.11L277.9 402.04L276.16 404.75L278.07 408.19L277.44 413.03L273.54 414.75L268.51 418.53L254.45 416.05L244.3 412Z" fill="#F9F9F9"/>
<path d="M315.89 299.66L312.34 283.47L297.89 267.02L297.24 284.68L299.3 290.23L296.3 301.16L314.34 307.6L315.89 299.66Z" fill="BODY_PLACEHOLDER"/>
<path d="M296.9 299.53L293.96 305.29L288.85 312.25L291.09 317.46L294.45 319.52L297.88 321.46L306.4 322.91L310.92 319.86L312.6 309.5C312.6 309.5 314.18 306.2 313.65 304.93C313.76 301.87 310.65 299.11 307.68 298.07C303.11 296.47 299.26 297.53 296.9 299.53Z" fill="#F9F9F9"/>
<path d="M238.34 324.98L223.66 318.1L211.5 302.27L202.9 278.85L202.47 256.12L228.66 262.22L234.16 278.49L239.34 291.84L260.02 301.51L269.24 309.24L238.34 324.98Z" fill="BODY_PLACEHOLDER"/>
<path d="M274.25 323.66L269.24 328.31L265.08 332.26L255.97 333.28L251.14 330.97L246.89 326.96L241.39 325.94L235.01 323.42C232.98 320.71 234.54 312.73 240.15 307.14C245.11 302.2 253.73 299.33 258.6 300.87L265.8 304.81L271.3 312.33L274.25 323.66Z" fill="#F9F9F9"/>
<path d="M203.34 254.25C202.47 272.9 205.92 290.44 209.46 297.53C213.99 306.62 217.66 312.88 226.92 319.35C236.18 325.82 240.33 324.33 247.26 327.61" stroke="black" stroke-width="4" stroke-miterlimit="10" stroke-linecap="round" stroke-linejoin="round"/>
<path d="M248.28 325.89C249.35 326.49 250.27 327.35 250.98 328.16C251.69 328.97 252.24 329.71 252.73 330.16C253.23 330.62 253.67 330.84 254.3 331.01C255.02 331.18 255.73 331.24 256.36 331.15C257.68 330.94 258.26 330.33 258.48 329.19C258.57 328.63 258.5 327.92 258.3 327.15C258.08 326.38 257.76 325.55 257.41 324.67V324.66C257.1 323.88 257.48 323 258.26 322.7C258.91 322.44 259.64 322.67 260.04 323.21C260.63 324.01 261.21 324.9 261.65 325.93C262.1 326.96 262.45 328.18 262.37 329.55C262.31 330.23 262.17 330.93 261.89 331.57C261.76 331.9 261.58 332.19 261.4 332.5C261.19 332.82 260.95 333.12 260.68 333.39C259.62 334.45 258.29 334.99 257.03 335.22C255.75 335.44 254.51 335.35 253.35 335.09C252.1 334.81 250.78 334.1 249.89 333.22C248.98 332.35 248.39 331.51 247.86 330.86C247.32 330.21 246.82 329.73 246.24 329.34L246.19 329.31C245.28 328.69 245.04 327.44 245.66 326.53C246.23 325.65 247.38 325.4 248.28 325.89Z" fill="black"/>
<path d="M260.51 330.14C260.93 330.35 261.72 330.54 262.41 330.61C263.13 330.68 263.86 330.66 264.53 330.54C265.2 330.42 265.8 330.19 266.26 329.87C266.74 329.53 267.04 329.16 267.32 328.54C267.87 327.36 267.9 325.89 267.51 324.44C267.32 323.72 267.03 323 266.66 322.34C266.31 321.7 265.8 321.04 265.43 320.74L265.36 320.68C264.7 320.17 264.58 319.23 265.09 318.58C265.59 317.94 266.5 317.81 267.16 318.28C268.22 319.05 268.78 319.86 269.35 320.73C269.89 321.6 270.32 322.52 270.63 323.51C271.25 325.45 271.4 327.75 270.55 329.87C270.17 330.89 269.4 332.03 268.44 332.75C267.48 333.5 266.39 333.95 265.32 334.2C264.25 334.45 263.19 334.52 262.13 334.47C261.06 334.4 260.06 334.28 258.85 333.78H258.84C257.82 333.36 257.32 332.19 257.74 331.17C258.16 330.15 259.33 329.65 260.35 330.07C260.41 330.09 260.47 330.12 260.51 330.14Z" fill="black"/>
<path d="M235.85 290.04C237.04 290.04 237.97 290.33 238.87 290.63C239.76 290.94 240.58 291.31 241.38 291.69C242.97 292.46 244.47 293.29 245.97 294.1C247.46 294.91 248.94 295.68 250.41 296.39C251.85 297.08 253.35 297.59 254.92 298.04C256.51 298.51 258.08 298.78 259.97 299.41C261.1 299.83 261.74 300.27 262.55 300.72C263.33 301.18 264.09 301.68 264.83 302.22C267.82 304.36 270.26 307.15 272.29 310.02C272.33 310.08 272.37 310.14 272.4 310.2L272.42 310.24C273.15 311.6 274.04 313.11 274.74 314.75C275.45 316.4 275.99 318.21 276.11 320.14C276.16 321.12 276.11 322.02 275.97 322.99C275.83 323.95 275.53 324.99 274.96 325.97C274.4 326.96 273.47 327.76 272.51 328.25C271.54 328.75 270.54 328.98 269.6 329.07C268.78 329.15 268.04 328.55 267.95 327.73C267.87 326.98 268.36 326.31 269.06 326.13L269.13 326.11C269.8 325.93 270.41 325.7 270.88 325.39C271.35 325.08 271.66 324.7 271.88 324.24C272.11 323.77 272.26 323.2 272.31 322.53C272.37 321.86 272.35 321.11 272.28 320.45C272.16 319.08 271.69 317.71 271.1 316.34C270.49 314.96 269.71 313.63 268.9 312.08L269.04 312.3C267.18 309.62 265.08 307.2 262.54 305.34C261.9 304.87 261.25 304.43 260.57 304.02C259.91 303.64 259.1 303.15 258.64 302.97C257.32 302.48 255.54 302.07 253.88 301.54C252.19 301.02 250.48 300.37 248.87 299.55C247.29 298.77 245.79 297.89 244.31 297.03C242.83 296.17 241.39 295.31 239.94 294.55C239.22 294.17 238.49 293.82 237.79 293.54C237.09 293.26 236.38 293.04 235.85 293.03H235.81C234.98 293.01 234.33 292.31 234.36 291.49C234.38 290.68 235.05 290.04 235.85 290.04Z" fill="black"/>
<path d="M229.91 261.11C231.47 265.99 233.38 270.84 235.22 275.72C236.17 278.14 237.05 280.68 237.91 283.1C238.75 285.56 239.72 287.95 240.36 290.77C240.6 291.85 239.93 292.92 238.85 293.16C237.8 293.4 236.75 292.76 236.48 291.72L236.47 291.67C235.88 289.41 234.88 286.93 234.05 284.45L231.58 277.03C229.91 272.07 228.23 267.09 227.02 261.88C226.83 261.07 227.34 260.27 228.14 260.08C228.91 259.9 229.67 260.35 229.91 261.08V261.11Z" fill="black"/>
<path d="M297.88 321.46C297.81 322.25 297.71 323.05 297.56 323.84C296.98 327.2 295.82 330.53 294.31 333.67C293.54 335.28 292.74 336.69 291.72 338.09C290.72 339.49 289.61 340.84 288.41 342.09C287.21 343.34 285.94 344.52 284.6 345.49C283.93 345.99 283.25 346.39 282.56 346.76C281.75 347.17 280.96 347.56 280.17 347.91C277.07 349.34 273.72 350.17 270.19 350.73C267.96 351.1 265.69 351.26 263.42 351.32L263.38 354.91C265.81 354.87 268.24 354.74 270.68 354.52C272.33 354.35 273.98 354.1 275.64 353.76C275.55 353.9 275.47 354.05 275.37 354.19C274.39 355.58 273.28 356.89 271.99 358.07C269.43 360.44 266.33 362.31 263.06 363.89C262.43 364.19 261.8 364.46 261.16 364.74L262.5 368.81C263.31 368.47 264.11 368.11 264.9 367.73C268.42 366.01 271.87 363.95 274.87 361.18C276.38 359.81 277.69 358.19 278.85 356.47C279.69 355.13 280.37 353.69 280.89 352.2C281.22 352.07 281.56 351.93 281.89 351.79C282.78 351.4 283.63 350.98 284.46 350.56C285.39 350.08 286.29 349.53 287.09 348.94C288.72 347.76 290.15 346.44 291.49 345.05C292.83 343.66 294.06 342.17 295.2 340.6C296.34 339.04 297.36 337.26 298.18 335.56C299.85 332.1 301.15 328.46 301.84 324.59C301.99 323.7 302.1 322.8 302.17 321.88L297.88 321.46Z" fill="black"/>
<path d="M298.99 282.99C299.52 281.15 299.74 279.33 299.77 277.53C299.78 273.94 299.25 270.43 297.9 267.03C296.53 263.68 294.62 260.81 292.54 258.1C292.43 257.95 292.3 257.81 292.18 257.67L288.51 258.96C288.85 259.41 289.2 259.85 289.53 260.31C291.34 262.93 293.02 265.68 294.06 268.5C295.05 271.28 295.5 274.43 295.43 277.43C295.39 278.93 295.22 280.42 294.83 281.76C294.45 283.1 293.85 284.28 293.05 285.03L293.01 285.06C292.17 285.85 292.11 287.16 292.88 288.02C293.66 288.89 295 288.96 295.87 288.18C296.1 287.97 296.31 287.76 296.52 287.53C297.68 289.13 298.61 291.04 299.3 293.09L300.04 285.15C299.65 284.61 299.23 284.09 298.79 283.59C298.86 283.4 298.93 283.19 298.99 282.99Z" fill="black"/>
<path d="M249.07 244.77C249.09 244.77 249.1 244.77 249.1 244.77C249.1 244.76 249.09 244.76 249.07 244.77Z" fill="black"/>
<path d="M296.04 317.58C295.91 318.6 296.18 319.23 296.59 319.59C296.8 319.79 297.08 319.96 297.46 320.09C297.83 320.22 298.36 320.32 298.83 320.37C299.31 320.41 299.79 320.39 300.22 320.33C300.65 320.25 301.02 320.11 301.35 319.92C302.02 319.57 302.54 318.83 302.95 317.81L302.99 317.71C303.3 316.94 304.18 316.56 304.95 316.88C305.58 317.13 305.94 317.77 305.89 318.41C305.75 319.95 305.08 321.79 303.53 322.96C302.02 324.15 300.14 324.47 298.51 324.35C297.67 324.29 296.88 324.13 296.01 323.8C295.14 323.47 294.3 322.88 293.65 322.07C293.01 321.26 292.63 320.21 292.6 319.22C292.58 318.23 292.81 317.32 293.21 316.58C293.6 315.84 294.52 315.56 295.25 315.95C295.82 316.25 296.12 316.87 296.04 317.47V317.58Z" fill="black"/>
<path d="M300.17 285.33C300.92 286.99 301.48 288.88 301.48 290.85C301.52 292.83 300.95 294.74 300.28 296.36C299.58 298.01 298.93 299.32 298.32 300.83C297.65 302.33 297.13 303.9 295.89 305.61C294.67 307.18 293.31 308.18 292.35 309.22C291.44 310.21 290.72 311.43 290.53 312.57C290.44 313.15 290.45 313.72 290.6 314.29C290.77 314.93 290.94 315.3 291.28 315.65C291.94 316.33 293.03 316.47 293.63 315.95C294.26 315.41 295.2 315.47 295.75 316.1C296.28 316.71 296.23 317.64 295.63 318.19L295.62 318.2C294.71 319.03 293.43 319.45 292.25 319.37C291.06 319.3 289.94 318.8 289.08 318.03C288.64 317.65 288.29 317.17 287.99 316.68C287.71 316.14 287.52 315.7 287.38 315.2C287.08 314.21 287.01 313.12 287.14 312.09C287.29 311.06 287.62 310.08 288.07 309.22C288.52 308.35 289.05 307.58 289.68 306.85C290.9 305.47 292.15 304.45 292.87 303.4C293.54 302.45 294.1 300.9 294.68 299.4C294.97 298.64 295.27 297.85 295.6 297.07C295.93 296.3 296.26 295.58 296.53 294.88C297.07 293.48 297.41 292.2 297.4 290.91C297.4 289.62 297.07 288.3 296.52 286.99L296.51 286.96C296.08 285.94 296.56 284.77 297.58 284.34C298.58 283.88 299.73 284.34 300.17 285.33Z" fill="black"/>
<path d="M304.3 320.16C305.08 320.8 306.21 320.96 307.28 320.66C307.81 320.51 308.31 320.25 308.72 319.92C308.93 319.76 309.1 319.57 309.24 319.38C309.33 319.29 309.36 319.18 309.43 319.09C309.49 318.99 309.56 318.82 309.63 318.69C310.16 317.58 310.38 316.29 310.45 314.89C310.54 313.46 310.37 312 310.62 310.12C310.67 309.87 310.69 309.65 310.77 309.38C310.84 309.12 310.92 308.85 310.99 308.67C311.14 308.27 311.29 307.89 311.44 307.52L312.31 305.42C312.85 304.06 313.28 302.72 313.56 301.34C314.12 298.6 314.06 295.75 313.57 292.93C312.65 287.3 309.68 282.19 305.86 277.69C303.95 275.44 301.85 273.32 299.64 271.31C297.44 269.28 295.13 267.36 292.75 265.51C291.88 264.83 291.72 263.58 292.4 262.7C293.07 261.84 294.31 261.67 295.19 262.33C300.15 266.07 304.91 270.19 308.99 275.06C311.03 277.49 312.89 280.12 314.39 283.01C315.89 285.86 317.01 289.08 317.49 292.29C317.97 295.51 317.99 298.89 317.24 302.14C316.88 303.76 316.33 305.33 315.71 306.81L314.78 308.94C314.63 309.28 314.49 309.61 314.37 309.92C314.29 310.1 314.27 310.2 314.24 310.31C314.2 310.41 314.18 310.57 314.15 310.69C313.95 311.85 314.04 313.46 313.92 315.09C313.81 316.73 313.51 318.53 312.65 320.17C312.54 320.38 312.46 320.56 312.31 320.79C312.16 321.01 312.02 321.25 311.85 321.44C311.52 321.85 311.15 322.21 310.74 322.5C309.93 323.11 309.03 323.52 308.07 323.74C306.19 324.2 303.95 323.84 302.39 322.45L302.38 322.44C301.76 321.89 301.7 320.94 302.25 320.32C302.77 319.73 303.68 319.66 304.3 320.16Z" fill="black"/>
<path d="M257.24 332.46C261.27 338.42 264.52 345.23 265.36 352.71C265.77 356.42 265.63 360.22 264.7 363.93C263.77 367.62 262.02 371.13 259.69 374.11C257.39 377.13 254.53 379.61 251.5 381.73C248.45 383.85 245.11 385.53 241.64 386.8C234.69 389.37 227.17 390.13 219.98 389.2C219.16 389.09 218.57 388.34 218.68 387.52C218.78 386.77 219.41 386.22 220.15 386.21H220.17C227.06 386.1 233.91 385.38 240.23 382.98C243.38 381.79 246.39 380.25 249.13 378.3C251.86 376.34 254.46 374.19 256.45 371.59C258.49 369.02 259.99 366.08 260.83 362.93C261.67 359.79 261.89 356.42 261.59 353.11C260.98 346.46 258.28 340 254.73 334.1V334.09C254.3 333.38 254.53 332.46 255.24 332.03C255.91 331.6 256.79 331.81 257.24 332.46Z" fill="black"/>
<path d="M201.45 337.59C202.2 342.01 201.32 349.47 203.86 361C205.51 368.5 209.26 375.05 211.71 378.15" stroke="black" stroke-width="4" stroke-miterlimit="10" stroke-linecap="round" stroke-linejoin="round"/>
<path d="M208.44 373.08C206.44 374.69 204.43 375.83 203.46 377.26C202.95 377.98 202.62 378.8 202.41 379.74C202.29 380.2 202.24 380.71 202.19 381.22L202.14 382C202.12 382.26 202.15 382.46 202.14 382.7C202.21 384.49 203.11 386.25 204.44 387.9C205.76 389.55 207.42 391.07 209.19 392.51C210.98 393.97 212.78 395.26 214.72 396.49C216.67 397.7 218.68 398.86 220.73 399.95C224.83 402.15 229.03 404.2 233.29 406.12C241.84 409.93 250.54 413.37 259.55 415.53C261.79 416.07 264.05 416.58 266.19 416.77C267.24 416.86 268.31 416.86 269.03 416.65C269.39 416.55 269.62 416.42 269.79 416.28C269.95 416.14 270.13 415.88 270.27 415.52C270.5 414.89 270.48 414.42 270.08 413.74C269.68 413.07 268.93 412.4 268.08 411.82C266.36 410.64 264.24 409.77 262.15 409.16L262.12 409.15C261.32 408.92 260.87 408.09 261.1 407.29C261.32 406.53 262.09 406.08 262.85 406.24C265.33 406.75 267.68 407.59 269.96 408.93C271.08 409.64 272.2 410.48 273.1 411.8C273.54 412.45 273.9 413.27 274.03 414.16C274.17 415.05 274.05 415.98 273.77 416.77C273.52 417.51 273.11 418.31 272.42 419C271.73 419.68 270.88 420.09 270.11 420.32C268.55 420.77 267.21 420.71 265.92 420.65C263.36 420.46 260.98 419.98 258.63 419.43C253.97 418.33 249.34 416.92 244.86 415.28C240.37 413.65 235.96 411.85 231.61 409.92C227.26 407.98 222.95 405.94 218.74 403.66C216.63 402.53 214.55 401.32 212.49 400.05C210.44 398.76 208.4 397.3 206.54 395.76C204.65 394.21 202.8 392.54 201.17 390.51C200.36 389.49 199.6 388.37 199.02 387.09C198.44 385.82 198.06 384.37 198 382.91C197.97 382.15 198.02 381.5 198.07 380.85C198.15 380.18 198.23 379.52 198.4 378.84C198.71 377.49 199.28 376.08 200.16 374.89C201.03 373.68 202.13 372.78 203.13 372.03C204.14 371.28 205.09 370.65 205.94 369.98C206.8 369.29 208.06 369.43 208.75 370.3C209.44 371.13 209.3 372.39 208.44 373.08Z" fill="black"/>
<path d="M271.99 416.23C274.9 415.71 277.83 414.4 278.03 410.75C278.23 407.14 276.39 405.49 274.04 404.06C271.31 402.39 267.55 401.63 264.39 401.33" stroke="black" stroke-width="3" stroke-miterlimit="10" stroke-linecap="round" stroke-linejoin="round"/>
<path d="M242.01 383.22C245.02 385.18 248.44 386.75 251.91 388.12C253.65 388.8 255.42 389.42 257.19 389.96C258.98 390.52 260.69 390.91 262.57 391.24C264.43 391.58 266.36 391.91 268.29 392.36C270.22 392.85 272.19 393.38 274.12 394.5C274.6 394.76 275.07 395.11 275.52 395.48C275.74 395.68 275.97 395.89 276.17 396.09C276.35 396.3 276.54 396.5 276.71 396.71C277.41 397.56 278.01 398.54 278.41 399.64C278.82 400.73 278.98 401.99 278.8 403.23C278.6 404.47 278.02 405.63 277.24 406.54C276.7 407.17 275.75 407.24 275.13 406.71C274.51 406.18 274.43 405.25 274.94 404.62L274.95 404.61C275.86 403.5 276.04 402.13 275.48 400.74C275.21 400.05 274.79 399.38 274.26 398.76L273.85 398.31L273.45 397.95C273.16 397.73 272.86 397.5 272.49 397.32C271.09 396.53 269.31 396.05 267.54 395.66C265.74 395.28 263.89 395 261.98 394.7C260.09 394.42 258.05 393.99 256.18 393.45C254.29 392.92 252.43 392.31 250.59 391.64C246.92 390.28 243.31 388.73 239.85 386.6C238.91 386.02 238.62 384.79 239.2 383.85C239.78 382.91 241.01 382.62 241.95 383.2C241.96 383.21 241.97 383.21 241.98 383.22H242.01Z" fill="black"/>
<path d="M302.08 323.8C304.05 326.5 305.89 329.42 307.19 332.65C308.52 335.86 309.25 339.36 309.35 342.84C309.47 346.33 308.99 349.75 308.13 353.1C307.67 354.77 307.07 356.42 306.34 358.01C305.57 359.59 304.68 361.12 303.62 362.54C302.54 363.94 301.34 365.25 300.02 366.42C298.67 367.55 297.26 368.61 295.75 369.47C295.01 369.93 294.22 370.29 293.46 370.7C292.66 371.04 291.91 371.43 291.08 371.73C289.43 372.35 287.78 372.79 286.13 373.16C282.82 373.89 279.49 374.27 276.17 374.4C272.84 374.57 269.51 374.42 266.21 374.11C265.38 374.03 264.78 373.3 264.86 372.48C264.93 371.69 265.61 371.1 266.39 371.12H266.42C272.77 371.29 279.19 370.8 285.27 369.38C286.78 369.01 288.26 368.57 289.64 368.01C290.33 367.75 291.03 367.39 291.72 367.08C292.38 366.72 293.08 366.39 293.71 365.99C295.02 365.24 296.21 364.32 297.34 363.36C298.45 362.37 299.44 361.26 300.34 360.09C301.21 358.89 301.95 357.6 302.59 356.26C303.2 354.9 303.7 353.47 304.1 352.01C304.85 349.07 305.29 345.98 305.19 342.97C305.1 339.95 304.49 336.99 303.38 334.18C302.29 331.36 300.67 328.71 298.86 326.14L298.85 326.13C298.21 325.23 298.42 323.98 299.33 323.34C300.21 322.71 301.44 322.92 302.08 323.8Z" fill="black"/>
<path d="M294.63 317.07L295.35 316.35" stroke="black" stroke-width="3" stroke-miterlimit="10" stroke-linecap="round" stroke-linejoin="round"/>
</svg>
