<svg width="100%" height="100%" viewBox="0 0 450 450" fill="none" xmlns="http://www.w3.org/2000/svg" style="display: block;">
<path d="M318.61 331.3L324.74 335.75L315.48 346.6L307.66 347.4L312.82 337.59L300.61 342.53L302.4 338.19L295.31 338.82L297.94 331.37L298.77 326.79L300.89 321.32L301.22 316.9L310.54 317.6L308.86 329.54L315.13 333.27L318.61 331.3Z" fill="COLOR_PLACEHOLDER"/>
<path d="M254.51 401.47L264.46 407.11L276.89 423.99L267.29 421.73L269.48 431.33L256.69 429.74L251.8 427.81L243.71 425.11L248.79 438.08L225.55 432.06L223.45 419.11L231.08 412.46L237.23 415.34L243.08 405.14L250.55 408.43L254.51 401.47Z" fill="COLOR_PLACEHOLDER"/>
<path d="M318.61 405.269L304 404.649L310.14 415.049L285.59 409.039L286.06 395.489L291.97 396.269L295.26 387.589L300.04 383.479L312.58 389.019L320.4 395.489L312.25 397.019L318.61 405.269Z" fill="COLOR_PLACEHOLDER"/>
<path d="M185.6 414.58L185.5 405.04L193.31 393.28L197.58 381.17L195.73 363.53L224.13 356.72L232.49 362.44L232.5 377.89L227.05 390.74L236.56 393.35L243.35 397.29L248.79 385.66L251.24 371.21L277.66 356.34L276.46 376.01L283.52 381.75L296.04 378.79L300.14 381.8L297.05 388.14L294.35 387.3L291.97 396.27L286.63 394.69L285.59 409.04L274.97 407.94L256.98 398.68L250.55 408.43L243.01 404.22L236.97 416.2L231.85 413.19L224.51 416.79L225.55 432.06L218.91 433.82L205.41 425.87L192.41 421.66L185.6 414.58Z" fill="BODY_PLACEHOLDER"/>
<path d="M219.71 345.98L223.03 342.17L233.15 343.34L238.72 361.75L234.09 363.29L224.13 357.66L228.04 370.13L216.65 365.24L213.59 361.19L208.84 356.34L209.12 366.81L201.05 360.2L194.58 345.61L203.27 343.72L207.48 346.37L209.41 342.32L219.71 345.98Z" fill="COLOR_PLACEHOLDER"/>
<path d="M242.86 325.14L247.59 319.97L250.91 320.57L253.96 333.27L251.1 340.82L243.92 345.63L242.86 325.14Z" fill="COLOR_PLACEHOLDER"/>
<path d="M311.19 318.1L301.22 316.9L299.99 314.26L303.57 299.44L297.6 282.55L298.58 275.87L296.3 264.2L303.67 271.63L314.44 297.53L323.26 310.2L327.92 327L326.85 333.99L320.48 331.36L314.9 332.29L308.35 328.74L311.19 318.1Z" fill="BODY_PLACEHOLDER"/>
<path d="M244.57 306.89L252.28 313.39L254.66 318.5L253.03 323.73L251.1 318.93L243.1 325.66L243.34 332.2L235.62 326.03L235.51 333.8L236.6 339.55L233.15 343.34L221.97 341.66L220.64 346.22L209.79 342.85L206.94 346.06L203.84 343.87L198.22 344.24L195.15 346.63L192.41 341.76L194.19 326.03L200.23 318.45L199 313.39L200.23 308.35L198.54 296.2L199.03 271.19L204.8 252.26L226.63 262.27L224.75 281.57L233.45 301.51L244.57 306.89Z" fill="BODY_PLACEHOLDER"/>
<path d="M202.93 319.06C201.02 320.89 199.42 322.93 198.38 325.23C197.34 327.51 196.73 330.15 196.49 332.73C196.43 333.38 196.4 334.04 196.38 334.71C196.36 335.4 196.38 336.05 196.31 336.94C196.29 337.16 196.26 337.43 196.2 337.73C196.15 337.92 196.12 338.06 196.03 338.28C195.98 338.4 195.93 338.51 195.87 338.63L195.77 338.82C195.65 339.01 195.53 339.26 195.42 339.51C195.2 340.02 195.02 340.6 194.89 341.19C194.62 342.35 194.53 343.6 194.71 344.57C194.79 345.05 194.96 345.42 195.1 345.56C195.23 345.71 195.29 345.74 195.59 345.79L193.51 347.18C194.15 345.39 195.12 343.55 196.64 342.1L196.75 341.99C197.12 341.63 197.64 341.49 198.11 341.57C198.94 341.71 199.93 341.76 200.96 341.85C201.99 341.94 203.08 342.05 204.26 342.42C205.05 342.67 205.49 343.51 205.24 344.3C205.01 345.05 204.24 345.48 203.49 345.32L203.44 345.31C202.69 345.14 201.78 345.11 200.82 345.12C199.86 345.12 198.86 345.17 197.7 345.09L199.17 344.57C198.28 345.6 197.7 346.92 197.31 348.4C197.07 349.32 196.18 349.91 195.26 349.79H195.23C194.67 349.73 194.08 349.59 193.51 349.32C192.94 349.04 192.43 348.63 192.05 348.17C191.26 347.24 190.96 346.23 190.78 345.33C190.46 343.51 190.65 341.9 190.99 340.32C191.18 339.53 191.41 338.76 191.74 337.97C191.91 337.58 192.09 337.18 192.34 336.78L192.38 336.7C192.39 336.68 192.36 336.72 192.36 336.73C192.34 336.76 192.32 336.8 192.31 336.84C192.29 336.9 192.29 336.87 192.29 336.89C192.3 336.84 192.31 336.77 192.32 336.63C192.36 336.12 192.36 335.35 192.38 334.64C192.4 333.91 192.43 333.15 192.5 332.4C192.79 329.38 193.45 326.44 194.74 323.58C196.03 320.73 198 318.26 200.15 316.2C200.95 315.44 202.21 315.46 202.98 316.26C203.75 317.04 203.73 318.3 202.93 319.06Z" fill="black"/>
<path d="M208.21 250.2C205.87 252.86 202.65 259.46 200.83 267.42C198.35 278.24 197.64 290.83 197.69 292.41C197.76 294.75 198.56 301.66 201.55 306.17C199.79 308.63 197.59 312.29 199.97 319.16" stroke="black" stroke-width="4" stroke-miterlimit="13.2283" stroke-linecap="round" stroke-linejoin="round"/>
<path d="M228.63 262.2C228.66 264.08 228.46 265.69 228.28 267.34L227.66 272.18C227.45 273.78 227.24 275.37 227.07 276.95C226.9 278.52 226.76 280.1 226.76 281.56L226.72 281.18C227.38 284.44 229 287.49 231.01 290.47C232 291.98 233.09 293.48 234.11 295.21C234.35 295.66 234.61 296.08 234.86 296.68C235.09 297.24 235.25 297.8 235.37 298.36C235.58 299.51 235.68 300.59 235.43 301.93L233.66 299.52C235.22 299.69 236.78 299.98 238.3 300.47C239.81 300.99 241.28 301.7 242.61 302.59C243.94 303.48 245.15 304.55 246.19 305.68C246.71 306.24 247.2 306.82 247.66 307.35C247.88 307.61 248.1 307.86 248.3 308.07L249.01 308.79C249.98 309.75 251 310.64 252.09 311.6C252.63 312.08 253.19 312.57 253.73 313.09L254.54 313.88L254.74 314.08L254.98 314.35C255.14 314.54 255.31 314.71 255.45 314.93C256.05 315.74 256.47 316.75 256.61 317.77C256.76 318.79 256.67 319.78 256.44 320.68C255.98 322.48 255.06 323.92 254.05 325.2C253.37 326.07 252.11 326.22 251.24 325.53C250.37 324.85 250.22 323.59 250.91 322.72L250.92 322.71L250.95 322.67C251.71 321.72 252.33 320.67 252.57 319.69C252.81 318.69 252.7 317.93 252.21 317.27C252.02 317 251.47 316.46 250.99 316C250.5 315.53 249.99 315.08 249.46 314.61C248.4 313.68 247.27 312.7 246.21 311.65L245.41 310.84C245.11 310.52 244.87 310.24 244.62 309.96C244.15 309.41 243.71 308.9 243.27 308.42C242.38 307.46 241.43 306.62 240.39 305.93C239.35 305.23 238.23 304.69 237.04 304.28C235.84 303.89 234.59 303.66 233.3 303.52C232.18 303.4 231.38 302.39 231.5 301.27L231.51 301.18L231.52 301.1C231.62 300.63 231.6 299.83 231.46 299.17C231.39 298.83 231.29 298.5 231.17 298.21C231.07 297.95 230.85 297.58 230.66 297.22C229.81 295.77 228.73 294.27 227.69 292.69C225.6 289.57 223.62 285.99 222.82 281.98V281.96C222.8 281.84 222.78 281.72 222.78 281.6C222.78 279.82 222.94 278.17 223.11 276.53C223.29 274.89 223.5 273.27 223.71 271.67L224.33 266.89C224.51 265.33 224.68 263.71 224.66 262.36V262.28C224.64 261.18 225.52 260.27 226.63 260.25C227.7 260.21 228.61 261.09 228.63 262.2Z" fill="black"/>
<path d="M210.3 354.1C210.26 354.48 210.28 355.05 210.31 355.58C210.34 356.13 210.39 356.69 210.44 357.26C210.55 358.4 210.7 359.55 210.86 360.7C211.18 363 211.56 365.31 211.97 367.62V367.94C211.97 368.76 211.3 369.43 210.48 369.43C210.32 369.43 210.16 369.4 210.02 369.36C207.75 368.61 205.57 367.5 203.66 366.03C201.75 364.56 200.09 362.79 198.71 360.85C195.95 356.95 194.25 352.49 193.2 347.97C192.95 346.89 193.62 345.82 194.69 345.57C195.77 345.32 196.84 345.99 197.09 347.06C197.1 347.08 197.1 347.1 197.1 347.13V347.14C197.91 351.31 199.31 355.39 201.58 358.87C202.72 360.61 204.08 362.18 205.66 363.48C207.23 364.79 209.04 365.8 210.97 366.52L209.02 368.25C208.44 365.95 207.9 363.64 207.4 361.31C207.15 360.14 206.92 358.97 206.72 357.77C206.62 357.17 206.52 356.57 206.45 355.94C206.37 355.31 206.3 354.7 206.31 353.9V353.89C206.32 352.78 207.23 351.9 208.33 351.91C209.44 351.92 210.32 352.83 210.31 353.93C210.31 353.99 210.3 354.05 210.3 354.1Z" fill="black"/>
<path d="M216.94 345.79C216.03 345.67 215.31 345.42 214.63 345.18L212.75 344.49C211.57 344.08 210.46 343.87 209.74 344.07L210.81 343.42C210.41 343.99 210.08 344.62 209.84 345.28C209.6 345.93 209.46 346.64 209.47 347.17C209.44 348.25 208.54 349.11 207.46 349.08C207.25 349.07 207.05 349.04 206.87 348.97L206.77 348.94C205.83 348.61 204.88 348.1 204.06 347.34C203.25 346.57 202.6 345.55 202.29 344.5C201.97 343.45 201.91 342.4 201.98 341.44C202.05 340.47 202.24 339.57 202.49 338.71L202.53 338.58C202.54 338.55 202.55 338.52 202.56 338.5C202.86 337.81 203.06 337.14 203.13 336.42C203.23 335.7 203.13 334.94 203.16 333.78C203.18 332.95 203.86 332.29 204.69 332.31C205.46 332.32 206.09 332.92 206.15 333.68L206.16 333.78C206.21 334.43 206.45 335.47 206.44 336.57C206.44 337.67 206.21 338.78 205.86 339.79L205.93 339.58C205.65 340.94 205.63 342.31 206.03 343.22C206.23 343.67 206.47 344.04 206.83 344.34C207.18 344.66 207.64 344.93 208.19 345.18L205.49 346.95C205.6 345.74 205.93 344.76 206.36 343.8C206.79 342.86 207.34 341.97 208.01 341.17L208.07 341.09C208.34 340.77 208.7 340.58 209.08 340.51C210.04 340.35 210.96 340.45 211.76 340.63C212.57 340.82 213.28 341.09 213.94 341.37L215.8 342.21C216.38 342.47 216.93 342.68 217.35 342.77L217.43 342.79C218.24 342.96 218.76 343.75 218.59 344.56C218.44 345.38 217.71 345.89 216.94 345.79Z" fill="black"/>
<path d="M209.46 346.82C209.62 348.32 209.75 349.64 210 350.98C210.25 352.31 210.59 353.6 211.04 354.85C211.93 357.34 213.39 359.56 215.21 361.56C217.04 363.53 219.22 365.21 221.6 366.52C223.98 367.83 226.58 368.78 229.22 369.2L227.62 371.22L224.23 363.25C223.67 361.9 223.12 360.54 222.61 359.13C222.35 358.43 222.12 357.7 221.9 356.94C221.7 356.15 221.48 355.4 221.45 354.31V354.27C221.42 353.16 222.29 352.24 223.4 352.21C224.51 352.18 225.43 353.05 225.46 354.16C225.46 354.23 225.46 354.29 225.46 354.36C225.43 354.72 225.54 355.39 225.67 356C225.81 356.64 225.98 357.3 226.18 357.96C226.57 359.29 227.03 360.64 227.5 361.99L230.42 370.15L230.43 370.17C230.71 370.95 230.3 371.81 229.52 372.09C229.29 372.17 229.05 372.19 228.82 372.17C225.73 371.77 222.8 370.78 220.08 369.39C217.36 368 214.85 366.18 212.68 363.98C211.61 362.86 210.61 361.67 209.74 360.37C208.86 359.06 208.12 357.66 207.54 356.2C206.96 354.75 206.52 353.25 206.2 351.75C205.87 350.26 205.67 348.71 205.49 347.34L205.48 347.3C205.33 346.21 206.1 345.2 207.2 345.05C208.29 344.9 209.3 345.67 209.45 346.77C209.46 346.78 209.46 346.81 209.46 346.82Z" fill="black"/>
<path d="M218.95 331.81C218.96 333.06 218.59 333.88 218.35 334.6C218.08 335.32 217.85 335.96 217.68 336.6C217.34 337.86 217.28 339.07 217.52 340.3C217.75 341.56 218.22 342.83 218.86 343.53C219.49 344.23 220.23 344.49 221.36 344.46C222.46 344.43 223.38 345.3 223.41 346.41C223.44 347.52 222.57 348.43 221.46 348.46C221.43 348.46 221.38 348.46 221.35 348.46C220.41 348.44 219.39 348.28 218.41 347.84C217.43 347.41 216.56 346.69 215.94 345.88C215.31 345.07 214.91 344.2 214.63 343.36C214.35 342.5 214.17 341.71 214.07 340.84C213.82 339.11 214.03 337.27 214.57 335.67C214.83 334.87 215.16 334.13 215.45 333.46C215.75 332.8 215.95 332.19 215.96 331.93L215.97 331.77C216.01 330.94 216.71 330.3 217.53 330.34C218.32 330.37 218.94 331.03 218.95 331.81Z" fill="black"/>
<path d="M236.68 323.039C236.79 323.129 236.89 323.219 236.99 323.319C237.08 323.409 237.21 323.539 237.23 323.579L237.49 323.92L237.86 324.489L238.5 325.529C238.91 326.209 239.31 326.849 239.72 327.469C240.13 328.089 240.57 328.679 241 329.159C241.11 329.289 241.22 329.389 241.32 329.489C241.43 329.609 241.53 329.679 241.62 329.739C241.82 329.909 241.92 329.9 241.89 329.95C242.72 329.93 243.4 330.59 243.42 331.42C243.44 332.25 242.78 332.93 241.95 332.95C241.13 332.95 240.45 332.679 239.99 332.399C239.74 332.259 239.51 332.109 239.32 331.959C239.12 331.809 238.92 331.659 238.75 331.499C238.04 330.879 237.47 330.229 236.92 329.579C236.38 328.929 235.87 328.269 235.39 327.629L234.68 326.7L234.35 326.299L234.23 326.179C234.19 326.129 234.24 326.199 234.26 326.219C234.29 326.249 234.32 326.269 234.35 326.289C233.45 325.649 233.24 324.399 233.88 323.499C234.54 322.609 235.78 322.399 236.68 323.039Z" fill="black"/>
<path d="M222.17 339.79C224.09 339.95 226.16 339.96 228.26 340.12C229.31 340.2 230.38 340.3 231.48 340.49C232.59 340.7 233.73 340.93 235.02 341.64L232.69 341.79C233.21 341.36 233.64 340.97 233.97 340.57C234.29 340.17 234.49 339.79 234.57 339.45C234.65 339.11 234.63 338.79 234.51 338.39C234.4 337.99 234.1 337.54 233.79 337.09L233.73 337.01C233.46 336.62 233.35 336.17 233.38 335.73C233.64 332.08 233.7 328.4 233.52 324.77V324.76C233.47 323.66 234.32 322.72 235.42 322.66C236.52 322.61 237.46 323.46 237.52 324.56C237.71 328.39 237.64 332.2 237.38 336.01L236.97 334.65C237.49 335.38 238.01 336.15 238.33 337.15C238.65 338.13 238.74 339.3 238.48 340.37C238.22 341.45 237.68 342.36 237.09 343.08C236.5 343.8 235.84 344.38 235.24 344.87C234.59 345.4 233.71 345.46 233.02 345.08L232.91 345.02C232.44 344.69 231.58 344.37 230.7 344.15C229.81 343.92 228.85 343.74 227.87 343.59C225.91 343.28 223.9 343.11 221.77 342.76C220.95 342.63 220.4 341.85 220.53 341.04C220.66 340.26 221.36 339.73 222.13 339.79H222.17Z" fill="black"/>
<path d="M235.97 343.209C236.1 346.589 236.63 349.999 237.52 353.299C238.41 356.599 239.65 359.83 241.36 362.73C241.78 363.47 241.53 364.419 240.78 364.839C240.65 364.909 240.52 364.969 240.38 364.999L240.33 365.01C238.88 365.36 237.33 365.519 235.73 365.399C234.14 365.259 232.53 364.809 231.09 364.089C229.66 363.359 228.41 362.419 227.29 361.429C226.19 360.429 225.17 359.429 224.19 358.249C222.23 355.939 220.76 352.959 220.28 349.929C219.76 346.899 219.96 343.919 220.47 341.089C220.62 340.269 221.4 339.73 222.21 339.88C222.96 340.01 223.48 340.68 223.45 341.42V341.45C223.34 344.13 223.39 346.77 223.94 349.2C224.52 351.63 225.61 353.78 227.25 355.7C228.06 356.65 229 357.629 229.95 358.499C230.89 359.379 231.86 360.14 232.88 360.73C234.89 361.92 237.26 362.25 239.85 362.04L238.82 364.32C236.76 361.18 235.29 357.779 234.16 354.279C233.04 350.769 232.29 347.14 231.98 343.44C231.89 342.34 232.7 341.369 233.8 341.279C234.9 341.189 235.87 342 235.96 343.1C235.96 343.15 235.97 343.189 235.97 343.209Z" fill="black"/>
<path d="M234.53 362.5C234.96 365.12 235.5 367.98 235.46 370.93C235.45 372.4 235.32 373.86 235.09 375.3C234.98 376.02 234.83 376.73 234.68 377.43L234.21 379.4C233.65 381.93 233.32 384.75 232.27 387.61C231.75 389.03 231.02 390.45 230.03 391.72C229.05 392.99 227.81 394.06 226.48 394.89C226.35 394.98 226.2 395.04 226.06 395.09L225.85 395.15C224.36 395.58 222.73 396.19 221.02 396.85L219.65 397.37C219.11 397.55 218.6 397.68 218.1 397.78C217.09 397.99 216.12 398.09 215.01 398.09C214.18 398.09 213.51 397.41 213.51 396.58C213.51 395.84 214.05 395.23 214.75 395.1L214.83 395.09C215.57 394.96 216.42 394.69 217.19 394.43C217.58 394.29 217.95 394.14 218.27 393.97L219.44 393.37C221.09 392.52 222.86 391.61 224.99 391.24L224.36 391.5C226.33 390.29 227.69 388.5 228.51 386.23C229.36 383.96 229.69 381.34 230.29 378.56L230.76 376.56C230.9 375.94 231.03 375.31 231.12 374.68C231.32 373.43 231.43 372.18 231.44 370.92C231.48 368.41 231.02 365.89 230.56 363.15C230.38 362.06 231.12 361.03 232.21 360.85C233.3 360.67 234.33 361.41 234.51 362.5H234.53Z" fill="black"/>
<path d="M194.02 363.959C195.37 366.529 196.24 376.549 196.56 380.149C194.94 384.879 192.25 392.089 190.35 398.429C184.87 403.499 185.03 410.109 187.03 414.669C190.17 421.829 197.65 421.959 202.56 423.629C205.67 424.689 207.6 426.249 210.4 428.009C216.19 435.209 223.39 434.969 225.55 432.059C222.66 427.879 223.39 423.069 224.14 419.869C224.89 416.669 227.62 412.719 231.86 413.189C236.85 417.049 249.32 432.009 250.12 438.039C247.2 438.229 242.16 437.429 236.57 435.459C233.34 434.319 229.49 432.869 225.55 432.069" stroke="black" stroke-width="4" stroke-miterlimit="13.2283" stroke-linecap="round" stroke-linejoin="round"/>
<path d="M244.15 403.52C247.62 404.7 250.52 406.47 253.4 408.37C256.27 410.26 258.94 412.43 261.46 414.81C263.97 417.22 266.24 419.82 268.21 422.67C269.2 424.09 270.09 425.58 270.92 427.12C271.33 427.9 271.71 428.69 272.04 429.53C272.37 430.37 272.69 431.22 272.86 432.23V432.24V432.25C273.03 433.07 272.51 433.87 271.69 434.04C271.6 434.06 271.51 434.07 271.42 434.07C268.69 434.15 266.04 433.81 263.45 433.31C260.86 432.8 258.33 432.1 255.84 431.29C253.3 430.46 250.92 429.41 248.57 428.43C246.24 427.47 243.85 426.43 241.7 425.91L241.62 425.89C240.55 425.63 239.89 424.55 240.15 423.48C240.41 422.41 241.49 421.75 242.56 422.01C242.58 422.02 242.61 422.02 242.63 422.03C245.44 422.82 247.71 423.95 250.07 425.01C252.41 426.08 254.68 427.16 256.98 427.99C259.33 428.85 261.71 429.58 264.12 430.14C266.53 430.69 268.97 431.08 271.36 431.08L269.93 432.92C269.48 431.65 268.65 430.23 267.83 428.89C267 427.53 266.04 426.23 265.07 424.94C263.12 422.38 260.99 419.91 258.72 417.64C256.41 415.39 253.89 413.32 251.29 411.38C248.68 409.49 245.91 407.6 243.14 406.35L243.06 406.31C242.31 405.97 241.97 405.08 242.31 404.33C242.62 403.61 243.43 403.27 244.15 403.52Z" fill="black"/>
<path d="M234.64 417.07C235.13 415.53 235.73 414.2 236.36 412.85C236.99 411.51 237.69 410.22 238.42 408.94C239.16 407.66 239.94 406.41 240.85 405.19C241.31 404.58 241.8 403.98 242.36 403.39C242.69 403.1 242.93 402.81 243.35 402.52C243.56 402.38 243.72 402.24 243.97 402.11C244.24 401.98 244.53 401.86 244.81 401.76C245.51 401.51 246.28 401.88 246.53 402.57C246.7 403.05 246.58 403.57 246.26 403.92L245.61 404.65C245.57 404.69 245.53 404.72 245.48 404.74C245.41 404.78 245.31 404.88 245.23 404.95C245.06 405.07 244.85 405.34 244.65 405.53C244.26 406 243.87 406.52 243.51 407.07C242.78 408.18 242.12 409.39 241.5 410.61C240.88 411.84 240.3 413.1 239.79 414.37C239.28 415.63 238.8 416.94 238.49 418.14L238.48 418.17C238.21 419.24 237.12 419.89 236.05 419.62C234.98 419.35 234.33 418.26 234.6 417.19C234.61 417.15 234.62 417.11 234.64 417.07Z" fill="black"/>
<path d="M248.95 407.05C249.49 405.88 250.09 404.69 250.84 403.56C251.58 402.42 252.47 401.38 253.39 400.48C253.78 400.03 254.38 399.88 254.92 400.03L255 400.05C257.91 400.9 260.51 402.36 262.9 404.03C265.29 405.7 267.49 407.61 269.49 409.72C271.46 411.82 273.3 414.02 274.93 416.39C276.56 418.75 278.03 421.27 279.03 424.06L279.04 424.09C279.35 424.87 278.97 425.76 278.18 426.07C277.94 426.17 277.68 426.19 277.44 426.17C276.26 426.03 275.15 425.81 274.05 425.59C272.95 425.36 271.86 425.12 270.78 424.86L264.36 423.27H264.35C263.28 423 262.62 421.92 262.89 420.85C263.16 419.78 264.24 419.12 265.31 419.39C265.36 419.4 265.41 419.42 265.46 419.43L271.72 421.49C273.79 422.14 275.9 422.8 277.89 423.21L276.3 425.32C274.97 423.04 273.39 420.85 271.77 418.69C270.13 416.54 268.42 414.42 266.59 412.43C264.79 410.46 262.82 408.63 260.73 406.98C258.62 405.36 256.4 403.88 254.03 402.89L255.64 402.47C254.93 403.39 254.35 404.32 253.87 405.31C253.4 406.3 253.02 407.37 252.68 408.48C252.36 409.54 251.24 410.14 250.18 409.82C249.12 409.5 248.52 408.38 248.84 407.32C248.87 407.24 248.9 407.15 248.93 407.07L248.95 407.05Z" fill="black"/>
<path d="M225.4 391.18C226.84 391.15 228.43 391.1 229.99 391.14C231.56 391.18 233.16 391.3 234.8 391.59C235.62 391.75 236.46 391.96 237.29 392.25C238.05 392.53 238.81 392.84 239.56 393.2C241.05 393.94 242.54 394.79 243.87 396.24L243.88 396.25L241.81 395.66C243.77 395.13 245.81 394.62 247.95 394.38C250.09 394.13 252.29 394.19 254.38 394.51L254.48 394.53C254.59 394.55 254.7 394.58 254.8 394.62C255.57 394.96 256.33 395.41 256.99 396.01C257.65 396.61 258.19 397.37 258.55 398.17C259.27 399.8 259.29 401.47 259.11 402.97C259.01 403.79 258.26 404.38 257.44 404.28C256.64 404.18 256.07 403.48 256.12 402.68V402.65C256.21 401.48 256.08 400.36 255.64 399.52C255.22 398.68 254.49 398.14 253.53 397.77L253.95 397.88C252.09 397.69 250.26 397.73 248.45 398.04C246.64 398.34 244.81 398.88 242.95 399.49C242.23 399.73 241.46 399.51 240.97 398.99L240.88 398.9C240.17 398.11 239.03 397.38 237.82 396.8C237.21 396.51 236.58 396.24 235.92 396.01C235.33 395.81 234.71 395.64 234.05 395.52C232.72 395.28 231.31 395.17 229.87 395.13C228.42 395.09 227 395.14 225.43 395.17C224.33 395.19 223.41 394.31 223.39 393.21C223.37 392.11 224.25 391.19 225.35 391.17L225.4 391.18Z" fill="black"/>
<path d="M232.42 414.64C232.77 413.67 232.89 412.63 232.73 411.6C232.66 411.09 232.52 410.59 232.33 410.14C232.16 409.71 231.84 409.26 231.73 409.18C231.71 409.17 231.75 409.18 231.7 409.15L231.56 409.06C231.47 408.99 231.35 408.94 231.25 408.88C231.03 408.76 230.8 408.66 230.56 408.57C230.07 408.39 229.54 408.25 229.01 408.18C227.95 408.03 226.86 408.11 225.99 408.45H225.98L225.73 408.53C225.11 408.72 224.47 408.56 224.02 408.16C223.59 407.78 223.06 407.37 222.52 406.99C221.98 406.61 221.41 406.24 220.84 405.88C219.7 405.18 218.48 404.52 217.36 404.12L217.29 404.09C216.51 403.81 216.11 402.95 216.38 402.17C216.64 401.45 217.4 401.05 218.13 401.22C219.75 401.6 221.11 402.17 222.48 402.79C223.16 403.1 223.83 403.44 224.49 403.8C225.16 404.16 225.81 404.54 226.5 405.03L224.54 404.74H224.55C226.23 404.1 227.95 404.02 229.57 404.24C230.39 404.36 231.19 404.55 231.97 404.85C232.36 405 232.75 405.17 233.14 405.38C233.33 405.49 233.52 405.59 233.71 405.72L233.99 405.91C234.08 405.97 234.24 406.1 234.36 406.2C235.26 407.03 235.64 407.8 236.01 408.6C236.35 409.4 236.58 410.22 236.7 411.06C236.95 412.73 236.76 414.47 236.18 416.06C235.8 417.1 234.65 417.63 233.62 417.25C232.58 416.87 232.05 415.72 232.43 414.69L232.42 414.64Z" fill="black"/>
<path d="M250.14 370.68C251.15 376.11 249.25 381.26 248.8 385.66C244.94 388.11 244.83 394.86 246.71 396.27" stroke="black" stroke-width="4" stroke-miterlimit="13.2283" stroke-linecap="round" stroke-linejoin="round"/>
<path d="M279.59 351.25C280.31 353.73 280.39 355.97 280.46 358.2C280.48 359.31 280.48 360.42 280.46 361.51L280.43 363.14C280.41 363.71 280.4 364.28 280.35 364.85C280.2 367.13 279.78 369.41 279.17 371.6C278.57 373.79 277.76 375.86 277.09 377.83L274.7 375.25C275.96 374.94 277.2 375.09 278.23 375.41C279.27 375.73 280.16 376.21 280.97 376.73C282.58 377.8 283.9 379.07 285.07 380.48L283.16 379.78C284.67 379.44 286.27 378.92 287.94 378.41C289.62 377.91 291.39 377.42 293.36 377.21C294.35 377.12 295.39 377.12 296.47 377.31C297.01 377.4 297.55 377.55 298.08 377.76C298.59 377.96 298.98 378.15 299.43 378.4C300.3 378.87 301.15 379.44 301.92 380.16C302.67 380.89 303.35 381.79 303.77 382.82C304.08 383.59 303.7 384.46 302.93 384.77C302.25 385.04 301.49 384.78 301.11 384.19L301.07 384.12C300.39 383.06 299.23 382.26 297.84 381.68C297.51 381.54 297.11 381.39 296.8 381.29C296.52 381.2 296.21 381.14 295.89 381.11C295.25 381.04 294.55 381.09 293.82 381.19C292.34 381.38 290.77 381.88 289.13 382.37C287.49 382.86 285.78 383.41 283.88 383.71C283.15 383.85 282.44 383.57 281.99 383.04L281.97 383.02C281.03 381.88 279.93 380.84 278.77 380.08C278.19 379.7 277.6 379.4 277.05 379.24C276.5 379.07 276.03 379.05 275.67 379.13L275.63 379.14C274.56 379.39 273.48 378.73 273.23 377.66C273.14 377.28 273.17 376.9 273.28 376.56C274 374.45 274.75 372.5 275.29 370.53C275.83 368.57 276.2 366.59 276.33 364.57C276.37 364.07 276.38 363.56 276.4 363.05L276.43 361.45C276.45 360.39 276.45 359.34 276.43 358.3C276.38 356.24 276.24 354.13 275.74 352.46L275.72 352.39C275.4 351.33 276.01 350.22 277.06 349.9C278.12 349.58 279.23 350.19 279.55 351.24L279.59 351.25Z" fill="black"/>
<path d="M257.44 399.89C260.72 401.04 266.38 402.97 268.91 404.71C274.84 408.81 281.03 410.13 285.59 409.04" stroke="black" stroke-width="4" stroke-miterlimit="13.2283" stroke-linecap="round" stroke-linejoin="round"/>
<path d="M325.45 334.79C327.61 334.08 328.5 331.85 328.79 329.28C329.08 326.71 327.57 323.89 326.3 322.55C326.3 318.47 325.35 313.83 322.16 308.08C320.38 304.87 317.64 299.31 314.44 297.53C312.04 291 310.43 283.69 306.86 277.14C303.63 271.2 299.55 264.1 291.42 259.43" stroke="black" stroke-width="4" stroke-miterlimit="13.2283" stroke-linecap="round" stroke-linejoin="round"/>
<path d="M310.54 322.19C311.47 323.75 312.59 325.31 314.78 326.3C313.56 327.63 313.7 330.08 315.32 331.76C316.51 331.21 316.92 331.16 318.6 331.3C321.03 331.5 323.41 333.21 325.45 334.78" stroke="black" stroke-width="3" stroke-miterlimit="13.2283" stroke-linecap="round" stroke-linejoin="round"/>
<path d="M311.03 319.86C315.34 319.87 315.74 318.18 316.94 317.44" stroke="black" stroke-width="3" stroke-miterlimit="13.2283" stroke-linecap="round" stroke-linejoin="round"/>
<path d="M317.12 331.88C316.91 333.93 316.26 335.54 315.56 337.14C314.84 338.72 314.01 340.21 313.08 341.64C312.14 343.07 311.12 344.45 309.94 345.74C308.73 347.01 307.47 348.28 305.49 349.09L305.35 346.24C306.18 346.43 307.23 346.48 308.26 346.44C309.3 346.4 310.35 346.27 311.39 346.08C313.46 345.68 315.49 345.1 316.99 343.99C318.58 342.87 319.85 341.25 320.94 339.46C322.03 337.66 322.91 335.68 323.84 333.62C324.25 332.71 325.32 332.31 326.22 332.72C327.13 333.13 327.53 334.2 327.12 335.1C327.11 335.11 327.11 335.12 327.1 335.13L327.09 335.14C326.12 337.14 325.13 339.26 323.85 341.27C322.56 343.27 320.98 345.24 318.85 346.67C317.81 347.39 316.57 347.97 315.42 348.33C314.25 348.71 313.09 348.97 311.91 349.16C310.73 349.35 309.55 349.47 308.34 349.49C307.13 349.5 305.91 349.46 304.56 349.12C303.76 348.92 303.28 348.11 303.48 347.31C303.6 346.85 303.92 346.5 304.32 346.32L304.42 346.28C305.47 345.83 306.62 344.76 307.6 343.63C308.59 342.48 309.48 341.2 310.29 339.88C311.1 338.55 311.81 337.16 312.4 335.75C312.98 334.36 313.46 332.86 313.53 331.64V331.58C313.59 330.59 314.44 329.83 315.43 329.89C316.42 329.95 317.18 330.8 317.12 331.79C317.12 331.82 317.12 331.85 317.12 331.88Z" fill="black"/>
<path d="M305.17 335.73C304.93 336.32 304.62 337.15 304.27 337.87C303.91 338.61 303.5 339.33 303.03 340.02C302.1 341.39 300.97 342.6 299.75 343.66L299.02 341.04C301.52 341.41 303.99 341.14 306.2 340.12C308.43 339.11 310.41 337.44 312.27 335.58C312.97 334.87 314.11 334.87 314.82 335.57C315.53 336.27 315.53 337.41 314.83 338.12C314.82 338.13 314.79 338.16 314.78 338.17C312.7 340.1 310.35 341.98 307.51 343.15C306.1 343.73 304.58 344.1 303.05 344.23C301.52 344.36 300 344.26 298.54 344H298.53C297.71 343.85 297.17 343.07 297.32 342.25C297.38 341.9 297.56 341.6 297.81 341.38C298.86 340.47 299.8 339.45 300.56 338.33C300.94 337.77 301.28 337.18 301.58 336.57C301.89 335.94 302.1 335.36 302.43 334.55C302.74 333.78 303.61 333.41 304.38 333.72C305.15 334.03 305.52 334.91 305.21 335.67L305.17 335.73Z" fill="black"/>
<path d="M308.35 328.74C309.55 328.95 312.75 331.36 314.69 333.98" stroke="black" stroke-width="3" stroke-miterlimit="13.2283" stroke-linecap="round" stroke-linejoin="round"/>
<path d="M293.41 339.44C295.59 339.14 299.08 339.06 302.41 338.2" stroke="black" stroke-width="3" stroke-miterlimit="13.2283" stroke-linecap="round" stroke-linejoin="round"/>
<path d="M301.3 313.69C307.03 305.37 305.87 291.55 298.8 283.6C298.87 283.39 298.94 283.19 299 282.98C299.53 281.14 299.75 279.32 299.78 277.52C299.79 273.93 299.26 270.42 297.91 267.02C296.54 263.67 294.63 260.8 292.55 258.09C290.47 255.39 288.18 252.89 285.73 250.56C285.13 249.99 284.17 249.97 283.55 250.54C282.9 251.14 282.86 252.14 283.46 252.79L283.47 252.8C285.66 255.17 287.69 257.7 289.53 260.31C291.34 262.93 293.02 265.68 294.06 268.5C295.05 271.28 295.5 274.43 295.43 277.43C295.39 278.93 295.22 280.42 294.83 281.76C294.45 283.1 293.85 284.28 293.05 285.03L293.01 285.06C292.17 285.85 292.11 287.16 292.88 288.02C293.66 288.89 295 288.96 295.87 288.18C296.1 287.97 296.31 287.76 296.52 287.53C301.21 294.01 302.56 305.47 297.27 312.05C297.24 312.09 297.21 312.14 297.18 312.19C297.16 312.22 297.14 312.25 297.12 312.29C297.07 312.38 297.02 312.46 296.98 312.55C296.97 312.58 296.95 312.62 296.94 312.65C296.91 312.74 296.88 312.83 296.86 312.93C296.85 312.97 296.84 313.01 296.84 313.05C296.83 313.14 296.82 313.23 296.82 313.32C296.82 313.37 296.82 313.42 296.82 313.47C296.82 313.55 296.83 313.63 296.85 313.72C296.86 313.78 296.87 313.83 296.88 313.89C296.9 313.97 296.92 314.05 296.95 314.12C296.96 314.15 296.97 314.18 296.98 314.21L296.99 314.22C298.19 317.02 298.18 320.48 297.57 323.81C296.99 327.17 295.83 330.5 294.32 333.64C293.55 335.25 292.75 336.66 291.73 338.06C290.73 339.46 289.62 340.81 288.42 342.06C287.22 343.31 285.95 344.49 284.61 345.46C283.94 345.96 283.26 346.36 282.57 346.73C281.76 347.14 280.97 347.53 280.18 347.88C277.98 348.89 275.66 349.59 273.25 350.12C272.66 350.82 272.03 351.48 271.35 352.09C270.19 353.15 268.93 354.01 267.61 354.71C268.63 354.65 269.66 354.57 270.69 354.48C272.34 354.31 273.99 354.06 275.65 353.72C275.56 353.86 275.48 354.01 275.38 354.15C274.4 355.54 273.29 356.85 272 358.03C269.44 360.4 266.34 362.27 263.07 363.85C259.78 365.41 256.31 366.67 252.77 367.77C250.36 368.53 247.91 369.09 245.41 369.54C245.19 371.02 245.04 372.49 244.99 373.97C248.03 373.47 251.08 372.8 254.04 371.86C257.71 370.71 261.36 369.38 264.91 367.7C268.43 365.98 271.88 363.92 274.88 361.15C276.39 359.78 277.7 358.16 278.86 356.44C279.7 355.1 280.38 353.66 280.9 352.17C281.23 352.04 281.57 351.9 281.9 351.76C282.79 351.37 283.64 350.95 284.47 350.53C285.4 350.05 286.3 349.5 287.1 348.91C288.73 347.73 290.16 346.41 291.5 345.02C292.84 343.63 294.07 342.14 295.21 340.57C296.35 339.01 297.37 337.23 298.19 335.53C299.86 332.07 301.16 328.43 301.85 324.56C302.18 322.63 302.35 320.64 302.23 318.61C302.15 316.99 301.86 315.32 301.3 313.69Z" fill="black"/>
<path d="M218.97 326.03C219.72 323.35 221.49 319.61 221.35 316.22" stroke="black" stroke-width="3" stroke-miterlimit="13.2283" stroke-linecap="round" stroke-linejoin="round"/>
<path d="M274.28 385.8C276.19 386.36 279.79 390.95 281.2 391.94" stroke="black" stroke-width="3" stroke-miterlimit="13.2283" stroke-linecap="round" stroke-linejoin="round"/>
<path d="M198.27 412.83C198.02 411.84 198.12 410.62 198.47 409.85" stroke="black" stroke-width="3" stroke-miterlimit="13.2283" stroke-linecap="round" stroke-linejoin="round"/>
<path d="M203.2 415.7C203.01 414.7 203.09 413.51 203.34 412.79" stroke="black" stroke-width="3" stroke-miterlimit="13.2283" stroke-linecap="round" stroke-linejoin="round"/>
<path d="M207.48 419.44C207.19 418.46 207.24 417.24 207.56 416.45" stroke="black" stroke-width="3" stroke-miterlimit="13.2283" stroke-linecap="round" stroke-linejoin="round"/>
<path d="M284.04 410.31C283.9 410.01 283.77 409.68 283.67 409.34C283.62 409.17 283.58 409 283.55 408.83C283.52 408.65 283.49 408.47 283.49 408.42C283.47 408.09 283.43 407.76 283.42 407.43C283.39 406.78 283.39 406.14 283.41 405.5C283.45 404.23 283.57 402.98 283.76 401.74C283.95 400.5 284.19 399.27 284.54 398.04C284.9 396.81 285.3 395.58 286.08 394.31C286.38 393.8 286.94 393.54 287.49 393.6L287.56 393.61C289.2 393.8 290.5 394.28 291.82 394.78C293.14 395.27 294.38 395.88 295.61 396.51C298.07 397.77 300.42 399.24 302.64 400.92C304.89 402.63 306.94 404.63 308.64 406.88C310.34 409.15 311.79 411.56 312.59 414.48V414.49L312.62 414.58C312.84 415.37 312.38 416.19 311.59 416.41C311.54 416.42 311.49 416.44 311.44 416.44C310.06 416.67 308.86 416.58 307.69 416.46C306.52 416.33 305.4 416.13 304.29 415.91C302.08 415.46 299.92 414.92 297.78 414.37C295.63 413.82 293.54 413.27 291.41 412.77C290.34 412.51 289.26 412.26 288.16 411.97C287.61 411.82 287.06 411.67 286.49 411.49L285.64 411.21L285.43 411.13C285.36 411.1 285.33 411.1 285.08 410.99C284.72 410.82 284.35 410.57 284.04 410.31ZM287.15 407.78C287.1 407.62 286.98 407.47 286.85 407.4C286.73 407.35 286.83 407.39 286.89 407.41L287.06 407.48L287.77 407.74C288.25 407.91 288.75 408.07 289.26 408.23C290.28 408.54 291.33 408.83 292.39 409.13C294.51 409.72 296.66 410.36 298.75 410.99C300.85 411.61 302.94 412.22 305.02 412.73C306.06 412.98 307.1 413.2 308.11 413.35C309.12 413.5 310.14 413.58 310.94 413.47L309.78 415.43V415.42C309.28 414.38 308.6 413.31 307.9 412.28C307.19 411.25 306.43 410.25 305.62 409.28C304 407.35 302.23 405.57 300.25 404.02C298.24 402.44 296.1 400.99 293.89 399.68C292.78 399.03 291.64 398.43 290.51 397.86C289.39 397.31 288.18 396.8 287.18 396.55L288.67 395.85C288.26 396.64 287.94 397.72 287.72 398.79C287.5 399.87 287.35 400.99 287.26 402.12C287.17 403.24 287.14 404.37 287.18 405.48C287.21 406.03 287.24 406.58 287.3 407.12L287.41 407.91C287.42 408.01 287.43 407.98 287.42 407.95C287.41 407.93 287.4 407.9 287.37 407.88C287.32 407.83 287.24 407.79 287.15 407.78Z" fill="black"/>
<path d="M290.18 396.09C290.41 394.42 290.76 392.86 291.19 391.29C291.41 390.51 291.65 389.72 291.94 388.94C292.23 388.15 292.56 387.37 293.04 386.55C293.33 385.97 293.97 385.69 294.58 385.82L294.74 385.86C297.5 386.45 300.19 387.32 302.79 388.44C305.4 389.54 307.92 390.93 310.26 392.63C312.58 394.33 314.66 396.25 316.58 398.3C318.49 400.36 320.23 402.54 321.77 404.9L321.8 404.94C322.28 405.63 322.1 406.57 321.42 407.04C321.19 407.2 320.94 407.28 320.68 407.3C319.02 407.43 317.47 407.35 315.93 407.24C314.39 407.12 312.88 406.94 311.38 406.74L306.91 406.1C305.45 405.89 303.92 405.65 302.63 405.56H302.57C301.47 405.48 300.64 404.52 300.72 403.42C300.8 402.32 301.76 401.49 302.86 401.57C302.9 401.57 302.94 401.58 302.98 401.58C304.66 401.8 306.08 402.12 307.56 402.42L311.93 403.29C313.38 403.56 314.83 403.82 316.27 404.01C317.7 404.2 319.15 404.35 320.47 404.31L319.38 406.72C317.58 404.76 315.72 402.84 313.82 400.99C311.92 399.15 309.95 397.38 307.89 395.82C305.83 394.29 303.59 392.96 301.24 391.79C298.89 390.64 296.43 389.62 293.94 388.75L295.64 388.05C295.37 388.59 295.12 389.26 294.92 389.95C294.71 390.64 294.54 391.36 294.39 392.08C294.09 393.53 293.86 395.03 293.76 396.45V396.47C293.69 397.46 292.83 398.21 291.84 398.14C290.85 398.07 290.1 397.21 290.17 396.22C290.17 396.17 290.18 396.13 290.18 396.09Z" fill="black"/>
<path d="M296.61 388.43C296.67 387.5 296.75 386.63 296.89 385.72C296.96 385.27 297.05 384.8 297.16 384.33C297.29 383.85 297.4 383.37 297.74 382.74C298 382.25 298.51 381.97 299.03 381.99L299.21 382C301.57 382.08 303.88 382.54 306.11 383.24C308.35 383.93 310.5 384.89 312.53 386.1C314.57 387.31 316.41 388.79 318.07 390.39C319.73 392 321.2 393.76 322.51 395.6L322.55 395.65C323.05 396.33 322.91 397.28 322.24 397.79C321.98 397.98 321.69 398.08 321.39 398.09C319.46 398.16 317.61 398.01 315.8 397.87C314 397.72 312.23 397.55 310.52 397.5C309.41 397.47 308.54 396.54 308.58 395.44C308.61 394.33 309.53 393.46 310.64 393.5C310.7 393.5 310.76 393.51 310.82 393.51H310.83C312.7 393.74 314.49 394.08 316.25 394.39C318 394.7 319.73 394.99 321.39 395.08L320.26 397.57C318.66 396.07 317.1 394.6 315.48 393.23C313.88 391.85 312.21 390.59 310.47 389.5C308.71 388.42 306.83 387.51 304.89 386.74C302.94 385.99 300.93 385.39 298.88 384.98L300.35 384.23C300.28 384.35 300.15 384.71 300.07 385.06C299.98 385.41 299.91 385.8 299.85 386.19C299.73 386.97 299.65 387.81 299.6 388.6V388.63C299.55 389.46 298.84 390.09 298.01 390.04C297.19 389.97 296.56 389.26 296.61 388.43Z" fill="black"/>
<path d="M244.36 326.67C244.47 326.69 244.55 326.71 244.61 326.73C244.62 326.74 244.62 326.73 244.63 326.74L244.67 326.83L244.75 327.01L244.9 327.37C245.13 327.86 245.2 328.27 245.35 328.73C245.58 329.6 245.71 330.46 245.83 331.31C246.03 333 246.08 334.67 246.07 336.33C246.05 337.99 245.99 339.64 245.78 341.28C245.58 342.92 245.3 344.55 244.76 346.18L243.39 344.43C245.41 344.42 247.29 342.87 248.73 340.92C249.45 339.94 250.07 338.85 250.6 337.73C251.11 336.62 251.55 335.4 251.71 334.42C252.02 332.05 251.77 329.5 251.21 327C250.95 325.74 250.59 324.49 250.16 323.26C249.75 322.02 249.26 320.81 248.74 319.62L250.49 320.32C249.21 320.72 247.98 321.81 246.95 323.12C246.43 323.77 245.95 324.48 245.49 325.22C245.26 325.59 245.04 325.97 244.82 326.35L244.49 326.93C244.53 326.89 244.5 326.75 244.36 326.67ZM241.37 326.92C241.45 326.44 241.64 325.9 241.88 325.47L242.23 324.86C242.47 324.45 242.71 324.04 242.96 323.64C243.46 322.83 244.01 322.03 244.63 321.25C245.25 320.48 245.94 319.73 246.75 319.06C247.56 318.39 248.52 317.8 249.63 317.46C250.28 317.26 250.97 317.52 251.32 318.07L251.38 318.16C252.99 320.6 254.13 323.26 254.94 326.07C255.71 328.88 256.11 331.9 255.67 334.98C255.37 336.71 254.81 338.07 254.13 339.44C253.46 340.79 252.64 342.06 251.66 343.23C250.68 344.39 249.54 345.5 248.12 346.33C246.71 347.15 244.93 347.67 243.19 347.43C242.4 347.32 241.82 346.64 241.82 345.86V345.68C241.8 344.12 241.85 342.54 241.91 340.97L242.12 336.25C242.17 334.69 242.21 333.12 242.17 331.6L242.12 330.47L242.03 329.39C241.97 329.07 241.95 328.67 241.87 328.42L241.82 328.21L241.8 328.1L241.79 328.04L241.74 327.92C241.58 327.58 241.46 327.24 241.37 326.92Z" fill="black"/>
<path d="M299.95 316.16C300.11 315.95 300.34 315.74 300.59 315.6C300.65 315.56 300.72 315.53 300.77 315.5L300.81 315.48L300.9 315.44L301.26 315.28C301.5 315.18 301.74 315.09 301.98 315C302.46 314.83 302.96 314.7 303.46 314.6C304.47 314.4 305.55 314.33 306.62 314.47C307.65 314.61 308.61 314.85 309.57 315.21C310.52 315.58 311.46 315.99 312.44 316.85L312.47 316.87C312.84 317.21 313.02 317.68 313 318.15C312.91 320.13 312.48 321.73 312.03 323.37C311.56 324.99 311 326.56 310.39 328.11C309.77 329.66 309.08 331.18 308.29 332.67C307.48 334.16 306.63 335.63 305.34 337.03L305.33 337.04C304.8 337.64 303.88 337.7 303.28 337.17C303.15 337.06 303.05 336.93 302.97 336.79C301.98 335.01 301.61 333.4 301.22 331.75C300.86 330.11 300.6 328.47 300.38 326.83C300.17 325.19 300 323.55 299.89 321.91C299.84 321.09 299.79 320.26 299.76 319.43L299.73 318.18C299.73 318.11 299.73 317.88 299.74 317.72C299.75 317.54 299.76 317.36 299.78 317.18C299.8 316.84 299.87 316.49 299.95 316.16ZM302.49 317.76C302.57 317.84 302.63 317.89 302.67 317.94C302.69 317.96 302.7 317.99 302.71 318.01C302.72 318.05 302.71 318.02 302.72 318.15L302.75 319.33C302.78 320.12 302.82 320.91 302.87 321.7C302.98 323.28 303.14 324.87 303.34 326.44C303.55 328.01 303.8 329.57 304.13 331.09C304.46 332.58 304.91 334.15 305.5 335.2L303.14 334.96C304.01 333.96 304.79 332.59 305.47 331.22C306.15 329.83 306.76 328.39 307.29 326.92C307.82 325.45 308.3 323.95 308.69 322.45C309.07 320.97 309.38 319.4 309.39 318.14L309.95 319.44C309.63 319.1 308.96 318.69 308.28 318.4C307.59 318.1 306.84 317.86 306.13 317.72C305.45 317.59 304.74 317.58 304.01 317.69C303.65 317.74 303.28 317.82 302.92 317.92C302.74 317.97 302.56 318.03 302.39 318.09L302.14 318.19L302.08 318.21L302.05 318.22C302.08 318.21 302.12 318.18 302.16 318.16C302.29 318.08 302.42 317.93 302.49 317.76Z" fill="black"/>
</svg>
