<svg width="100%" height="100%" viewBox="0 0 450 450" fill="none" xmlns="http://www.w3.org/2000/svg" style="display: block;">
<path d="M309.19 384.42L301.07 379.81L289.16 383.65L280.97 379.67L283.02 371.06L271.59 369.85L270.91 374.56L265.65 376.46L257.3 370.4L249.33 371.81L247.09 377.72L248.51 382.09L250.35 384.81L248.56 391.23L247.59 402.09L256.07 403.88L261.85 406.87L280.16 413.76L297.41 413.8L309.07 409.61L314.65 402.72L315.82 395.4L309.19 384.42Z" fill="COLOR_PLACEHOLDER"/>
<path d="M275.41 384.84L280.53 380.64L287.23 384.67L281.53 389.99L278.29 389.38L275.41 384.84Z" fill="#E0DCD5"/>
<path d="M270.83 376.05L263.78 377.51L255.72 377.05L256.28 371.79L271.5 363.32L270.83 376.05Z" fill="BODY_PLACEHOLDER"/>
<path d="M249.96 401.28C264.86 399.57 272.19 405.87 278.95 406.99C286.79 408.29 295.13 408.23 298.35 406.87C301.97 405.33 305.25 402.75 309.29 400.72C312.59 399.06 315 400.61 314.64 402.71C313.26 405.36 304.94 410.57 304.94 410.57L292.8 413.67L277.79 410.78L269.02 407.37L261.85 406.85L249.96 401.28Z" fill="#E0DCD5"/>
<path d="M274 375.7C268.52 378.61 257.64 378.05 253.74 376.08" stroke="black" stroke-width="3" stroke-miterlimit="10" stroke-linecap="round" stroke-linejoin="round"/>
<path d="M270.78 376.86C271.1 373.81 272.26 365.12 273.29 361.27" stroke="black" stroke-width="3" stroke-miterlimit="10" stroke-linecap="round" stroke-linejoin="round"/>
<path d="M272.01 366.93C274.1 366.4 276.39 366.3 278.64 367.02C279.76 367.37 280.85 367.97 281.79 368.82C282.73 369.66 283.49 370.81 283.86 372.05C284.17 373.11 284.36 374.28 284.27 375.5C284.19 376.71 283.8 377.96 283.15 378.97C281.84 381.04 279.94 382.2 278.12 383.04C277.37 383.39 276.47 383.06 276.12 382.31C275.8 381.62 276.05 380.82 276.66 380.42L276.7 380.4C278.14 379.47 279.42 378.38 280 377.18C280.59 376 280.57 374.71 280.04 373.26C279.68 372.18 278.7 371.38 277.37 370.95C276.04 370.52 274.46 370.54 272.92 370.83L272.87 370.84C271.79 371.05 270.74 370.34 270.53 369.25C270.34 368.2 271 367.19 272.01 366.93Z" fill="black"/>
<path d="M256.22 376.03L257.3 370.4" stroke="black" stroke-width="3" stroke-miterlimit="10" stroke-linecap="round" stroke-linejoin="round"/>
<path d="M252.77 383.62C249.72 383.09 247.09 381.79 246.91 379.11C246.77 377 247.14 371.9 253 370.15" stroke="black" stroke-width="3" stroke-miterlimit="10" stroke-linecap="round" stroke-linejoin="round"/>
<path d="M249.33 384.02C248.07 387.56 246.78 392.68 247.7 400.1" stroke="black" stroke-width="3" stroke-miterlimit="10" stroke-linecap="round" stroke-linejoin="round"/>
<path d="M281.92 380.85C283.71 382.55 285.43 383.09 287.55 383.11C291.21 382.13 298.34 378.93 305.25 381.77C310.88 384.08 315.1 389.97 315.83 395.4C316.69 401.8 313.82 407.38 304.91 411.32C299.4 413.75 290.1 414.54 285.87 413.98C278.43 413 276.16 412.05 271.23 409.77C268.27 408.4 265.51 407.47 263.88 407.4" stroke="black" stroke-width="4" stroke-miterlimit="10" stroke-linecap="round" stroke-linejoin="round"/>
<path d="M274.81 354.95C273.97 356.06 273.04 357.11 272 358.07C269.44 360.44 266.34 362.31 263.07 363.89C259.78 365.45 256.31 366.71 252.77 367.81C251.1 368.34 249.4 368.77 247.69 369.14V373.51C249.83 373.08 251.96 372.56 254.05 371.9C257.72 370.75 261.37 369.42 264.92 367.74C268.44 366.02 271.89 363.96 274.89 361.19C276.4 359.82 277.71 358.2 278.87 356.48C279.18 355.99 279.46 355.48 279.72 354.96H274.81V354.95Z" fill="black"/>
<path opacity="0.4" d="M306.78 387.97C309.58 391.46 308.78 393.47 307.49 393.91C306.35 394.3 304.08 392.53 302.89 390.97C301.02 388.51 300.18 386.53 301.17 385.84C302.57 384.86 305.56 386.45 306.78 387.97Z" fill="white"/>
<path d="M250.22 387.88C251.63 388.32 253.8 388.77 255.08 388.76" stroke="black" stroke-width="3" stroke-miterlimit="10" stroke-linecap="round" stroke-linejoin="round"/>
<path d="M287.55 383.11C286.26 386.47 282.78 389.1 281.53 389.98C277.05 390.78 274.67 388.02 274.86 385.54C274.51 383.97 277.42 381.7 277.42 381.7" stroke="black" stroke-width="3" stroke-miterlimit="10" stroke-linecap="round" stroke-linejoin="round"/>
<path d="M234.56 397.8L229.32 394.09L231.36 391.66L233.25 389.84L234.28 384.34L230.01 378.16L224.46 377.59L220.73 385.7L210.57 385.53L205.78 383.7V376.9L197.97 375.84L192.7 379.03L191.63 382.59L193.45 390.42L191.97 397.16L188.21 410L194.68 423.6L208.42 430.66L225.23 441.32L246.16 443.45L266.09 436.85L271.63 426.12L272.65 414.7L264.63 400.96L250 397.34L234.56 397.8Z" fill="COLOR_PLACEHOLDER"/>
<path d="M189.63 409.55C191.97 415.5 197.17 419.13 203.25 421.23C208.93 423.2 214.65 426.16 219.46 431.1C220.72 432.39 225.86 434.84 231.9 436.16C237.22 437.32 243.23 437.61 247.91 435.45C253.42 432.91 255.96 429.94 262.35 427.98C266.25 426.78 269.84 428.12 269.84 430.21C267.75 434.85 249.43 442.09 249.43 442.09L227.74 441.69L211.34 432.26L199.18 426.05L191.99 420.65L189.63 409.55Z" fill="#E0DCD5"/>
<path d="M324.18 325.32L320.07 335.97L313.48 339.42L301.45 340.02L296.98 338.91L301.14 321.34L297.87 313.5L302.26 306.16L301.3 294.73L313.71 288.01L317.02 289.49L317.33 295.76L324 310.97L324.18 325.32Z" fill="#F9F9F9"/>
<path d="M289.62 257.36L296.26 268.55L305.07 279.76L310.12 290.25L302.35 292.24L297.29 283.09L297.01 271.66L287.2 254.23L289.62 257.36Z" fill="#FF00FF"/>
<path d="M221.88 384.06L214.17 385.91L205.78 383.69L205.89 358.53C206.18 351.57 214.03 350.07 216.93 351.66L221.35 357.38L221.88 384.06Z" fill="#FF00FF"/>
<path d="M289.62 257.36C300.12 271.59 306.07 281.57 311 288.72" stroke="black" stroke-width="3" stroke-miterlimit="10" stroke-linecap="round" stroke-linejoin="round"/>
<path d="M311.95 314.05C311.64 313.89 311 313.62 310.19 314.34C310.51 315.8 311.6 321.36 310.45 325.53C309.9 327.53 308.49 329.4 305.35 329.97C302.75 330.44 301.34 329.06 300.2 327.81" stroke="black" stroke-width="3" stroke-miterlimit="10" stroke-linecap="round" stroke-linejoin="round"/>
<path d="M300.6 291.28C302.45 290.29 304.34 289.36 306.33 288.57C308.32 287.79 310.41 287.12 312.68 286.86C313.82 286.75 315.02 286.71 316.32 287.02C316.96 287.18 317.63 287.43 318.26 287.86C318.9 288.3 319.38 288.83 319.77 289.43C320.54 290.61 320.85 292.16 320.49 293.59C320.15 295.03 319.24 296.11 318.31 296.9L318.5 294.82C320.42 297.1 322.01 299.66 323.22 302.37C324.43 305.08 325.31 307.92 325.9 310.79C326.48 313.67 326.82 316.59 326.94 319.52C326.98 322.76 326.29 325.67 325.37 328.53C324.89 329.95 324.33 331.35 323.66 332.72C323.33 333.38 322.93 334.12 322.46 334.8C322 335.48 321.49 336.12 320.93 336.7C319.81 337.87 318.56 338.87 317.19 339.68C315.82 340.49 314.37 341.17 312.66 341.56C312.22 341.65 311.77 341.72 311.26 341.74C310.78 341.75 310.37 341.75 309.89 341.69C308.97 341.58 307.92 341.33 306.96 340.65C305.99 339.99 305.3 338.96 304.98 338.01C304.8 337.53 304.7 337.07 304.62 336.61C304.59 336.39 304.56 336.16 304.54 335.95C304.53 335.71 304.5 335.58 304.51 335.25C304.52 334.07 304.93 333.06 305.33 332.34C305.74 331.6 306.15 331 306.53 330.43C307.29 329.3 307.92 328.28 308.41 327.14L308.43 327.09C308.76 326.32 309.64 325.97 310.41 326.29C311.06 326.57 311.41 327.24 311.31 327.91C311.06 329.5 310.43 331.04 309.73 332.32C309.03 333.6 308.41 334.78 308.51 335.21C308.5 335.24 308.53 335.45 308.54 335.56L308.59 335.95C308.64 336.19 308.69 336.42 308.77 336.6C308.92 336.98 309.08 337.16 309.29 337.3C309.49 337.45 309.86 337.55 310.33 337.6C310.55 337.62 310.85 337.62 311.08 337.61C311.28 337.6 311.53 337.55 311.78 337.5C312.83 337.25 313.99 336.74 315.03 336.1C316.09 335.47 317.06 334.68 317.89 333.8C318.32 333.37 318.69 332.9 319.03 332.42C319.37 331.94 319.65 331.44 319.96 330.85C320.55 329.69 321.06 328.47 321.5 327.21C322.35 324.72 322.97 322.04 322.95 319.62C322.91 316.9 322.66 314.18 322.19 311.51C321.23 306.18 319.37 301.01 316.17 296.7C315.69 296.05 315.79 295.16 316.36 294.62C317.58 293.51 317.8 292.27 317.06 291.21C316.67 290.68 316.29 290.45 315.57 290.3C314.87 290.16 314.01 290.19 313.13 290.32C311.35 290.59 309.55 291.23 307.79 292.01C306.02 292.8 304.29 293.74 302.59 294.75C301.64 295.32 300.41 295 299.85 294.06C299.29 293.12 299.6 291.88 300.54 291.32C300.55 291.31 300.58 291.29 300.6 291.28Z" fill="black"/>
<path d="M307.54 338.48C304.51 340.03 300.02 340.23 296.98 338.91" stroke="black" stroke-width="4" stroke-miterlimit="10" stroke-linecap="round" stroke-linejoin="round"/>
<path d="M222.84 357.17C223.21 359.4 223.43 361.58 223.63 363.77C223.82 365.96 223.98 368.14 224.11 370.33C224.24 372.52 224.34 374.71 224.4 376.9C224.46 379.1 224.51 381.29 224.44 383.55C224.41 384.65 223.49 385.52 222.38 385.49C221.28 385.46 220.41 384.54 220.44 383.43C220.44 383.41 220.44 383.38 220.44 383.36V383.33C220.58 381.25 220.62 379.08 220.64 376.93C220.66 374.78 220.64 372.61 220.6 370.46C220.55 368.3 220.48 366.14 220.38 363.99C220.27 361.84 220.13 359.69 219.87 357.61V357.58C219.77 356.76 220.35 356.01 221.17 355.91C221.98 355.82 222.71 356.38 222.84 357.17Z" fill="black"/>
<path d="M207.69 355.38C207.77 355.72 207.88 356.16 207.9 356.44L208.01 357.34C208.05 357.91 208.12 358.5 208.14 359.06C208.21 360.2 208.26 361.32 208.3 362.45C208.38 364.7 208.41 366.94 208.43 369.18C208.44 371.42 208.44 373.66 208.41 375.91C208.37 378.16 208.33 380.39 208.17 382.71C208.1 383.81 207.14 384.65 206.04 384.57C204.94 384.49 204.1 383.54 204.18 382.44C204.18 382.42 204.18 382.4 204.19 382.37V382.33C204.41 380.21 204.54 377.98 204.66 375.78C204.78 373.57 204.86 371.35 204.93 369.14C205 366.92 205.05 364.71 205.05 362.5C205.05 361.4 205.05 360.29 205.02 359.21C205.01 358.66 204.98 358.13 204.96 357.59L204.9 356.83C204.88 356.55 204.84 356.45 204.82 356.25L204.79 355.82C204.73 355.01 205.33 354.3 206.14 354.23C206.88 354.18 207.53 354.68 207.69 355.38Z" fill="black"/>
<path d="M217.95 401.83L223.52 397.16L229.51 395.65L233.58 399.61L227.34 406.34L225.02 408.22L217.95 401.83Z" fill="#E0DCD5"/>
<path d="M202.03 380.01C202.7 380.4 203.58 380.79 204.52 381.05C205.45 381.34 206.44 381.56 207.44 381.76C209.44 382.14 211.49 382.38 213.55 382.49C215.64 382.61 217.71 382.64 219.71 382.51C221.72 382.39 223.56 381.89 225.82 381.42C226.63 381.25 227.43 381.77 227.6 382.58C227.75 383.3 227.35 384.01 226.69 384.28L226.63 384.3C225.68 384.68 224.66 385.09 223.55 385.46C222.44 385.81 221.28 386.07 220.14 386.24C217.83 386.59 215.56 386.58 213.33 386.48C211.07 386.36 208.81 386.05 206.59 385.46C205.48 385.17 204.38 384.8 203.28 384.33C202.2 383.83 201.1 383.27 200.08 382.31C199.48 381.74 199.46 380.79 200.03 380.19C200.52 379.68 201.29 379.59 201.87 379.93L202.03 380.01Z" fill="black"/>
<path d="M222.62 376.73C225.24 376.27 228.09 376.03 230.98 377.19C232.4 377.78 233.74 378.84 234.59 380.2C235.45 381.56 235.88 383.02 236.04 384.52C236.34 387.55 235.31 390.57 233.48 392.87C231.67 395.19 229 396.91 225.98 397.45H225.97C224.88 397.65 223.84 396.92 223.65 395.84C223.45 394.75 224.18 393.71 225.26 393.52C225.28 393.52 225.31 393.51 225.33 393.51C227.3 393.23 229.21 392.12 230.55 390.52C231.9 388.92 232.67 386.84 232.54 384.82C232.47 383.82 232.19 382.79 231.72 382C231.25 381.2 230.56 380.59 229.66 380.17C227.85 379.34 225.43 379.33 223.12 379.69H223.1C222.28 379.82 221.52 379.26 221.39 378.44C221.27 377.63 221.82 376.88 222.62 376.73Z" fill="black"/>
<path d="M205.45 378.36C204.16 378.19 202.88 378.05 201.62 378.06C200.37 378.03 199.13 378.13 197.99 378.39C196.85 378.65 195.82 379.06 195.05 379.66C194.26 380.27 193.76 380.95 193.43 381.99C192.69 384.08 192.88 386.31 193.92 388.33C194.98 390.36 196.82 392.13 198.85 393.7L198.88 393.72C199.54 394.23 199.66 395.17 199.15 395.83C198.69 396.43 197.86 396.58 197.22 396.22C194.71 394.81 192.29 392.9 190.64 390.15C189.81 388.79 189.26 387.2 189.08 385.55C188.9 383.9 189.1 382.21 189.64 380.68C190.11 379.11 191.28 377.45 192.7 376.46C194.14 375.45 195.74 374.9 197.28 374.67C200.38 374.2 203.33 374.62 206.09 375.44C206.89 375.68 207.34 376.51 207.1 377.31C206.89 378.03 206.19 378.47 205.47 378.37L205.45 378.36Z" fill="black"/>
<path d="M229.32 394.09C230.71 395.42 232.75 396.7 234.59 399.24C237.79 396.53 255.48 393.84 265.06 402.21C274.64 410.58 274.3 424.51 268.8 431.74C263.27 439.02 252.1 442.08 245.87 442.55C235.42 443.33 228.94 442.21 220.46 438.6C215.63 436.55 213.38 433.53 208.43 430.65C201.52 426.63 196.44 426.46 191.68 418.75C188.47 413.55 188.36 408.9 189.29 404.43C190.43 398.9 192.22 396.71 193.63 391.9" stroke="black" stroke-width="4" stroke-miterlimit="10" stroke-linecap="round" stroke-linejoin="round"/>
<path d="M249.07 244.77C249.09 244.77 249.1 244.77 249.1 244.77C249.1 244.76 249.09 244.76 249.07 244.77Z" fill="black"/>
<path d="M301.3 313.7C307.03 305.37 305.87 291.56 298.8 283.6C298.87 283.39 298.94 283.19 299 282.99C299.53 281.15 299.75 279.33 299.78 277.53C299.79 273.94 299.26 270.43 297.91 267.03C296.54 263.68 294.63 260.81 292.55 258.1C291.1 256.21 289.54 254.43 287.9 252.73C288.13 252.65 288.37 252.59 288.6 252.5C291.23 251.47 293.57 250.08 295.69 248.19C296.73 247.24 297.68 246.17 298.5 244.94C299.31 243.72 299.98 242.32 300.28 240.69C300.49 239.55 299.75 238.45 298.61 238.22C297.46 237.99 296.35 238.74 296.12 239.89L296.11 239.94C295.77 241.65 294.4 243.51 292.77 244.94C291.14 246.4 289.1 247.61 287.06 248.39C286.62 248.55 286.16 248.7 285.69 248.83V255.37C287.04 256.97 288.34 258.61 289.54 260.31C291.35 262.93 293.03 265.68 294.07 268.5C295.06 271.28 295.51 274.43 295.44 277.43C295.4 278.93 295.23 280.42 294.84 281.76C294.46 283.1 293.86 284.28 293.06 285.03L293.02 285.06C292.18 285.85 292.12 287.16 292.89 288.02C293.67 288.89 295.01 288.96 295.88 288.18C296.11 287.97 296.32 287.76 296.53 287.53C301.23 294.01 302.57 305.47 297.28 312.05C297.25 312.09 297.22 312.14 297.19 312.19C297.17 312.22 297.15 312.25 297.13 312.28C297.08 312.37 297.03 312.46 296.99 312.55C296.98 312.58 296.96 312.61 296.95 312.65C296.92 312.74 296.89 312.84 296.87 312.93C296.86 312.97 296.85 313.01 296.85 313.05C296.84 313.14 296.83 313.23 296.82 313.32C296.82 313.37 296.82 313.42 296.82 313.47C296.82 313.56 296.83 313.64 296.85 313.72C296.86 313.77 296.87 313.83 296.88 313.88C296.9 313.96 296.93 314.04 296.96 314.12C296.97 314.15 296.98 314.18 296.99 314.21V314.22C298.19 317.02 298.18 320.48 297.57 323.81C296.99 327.17 295.83 330.5 294.32 333.64C293.55 335.25 292.75 336.66 291.73 338.06C290.73 339.46 289.62 340.81 288.42 342.06C288.38 342.1 288.33 342.15 288.29 342.19L291.31 345.21C291.38 345.14 291.44 345.08 291.51 345.01C292.85 343.62 294.08 342.13 295.22 340.56C296.36 339 297.38 337.22 298.2 335.52C299.87 332.07 301.17 328.42 301.86 324.55C302.19 322.62 302.36 320.63 302.24 318.6C302.15 316.99 301.86 315.32 301.3 313.7Z" fill="black"/>
<path opacity="0.4" d="M261.27 404.07C266.95 408.36 266.5 411.77 264.69 412.95C263.09 413.99 258.89 412.16 256.45 410.22C252.6 407.15 249.79 404.05 251.04 402.61C252.82 400.54 258.78 402.19 261.27 404.07Z" fill="white"/>
<path d="M191.97 397.16C192.95 398.16 198.21 401.08 199.16 401.38" stroke="black" stroke-width="3" stroke-miterlimit="10" stroke-linecap="round" stroke-linejoin="round"/>
<path d="M195.87 405.23C196.85 406.23 198.21 407.14 199.17 407.44" stroke="black" stroke-width="3" stroke-miterlimit="10" stroke-linecap="round" stroke-linejoin="round"/>
<path d="M225.81 397.53C224.32 397.91 222.75 398.64 221.38 399.54C220.69 399.99 220.01 400.48 219.46 401.03C218.9 401.55 218.46 402.24 218.4 402.62L218.13 401.33C218.27 401.51 218.58 401.81 218.88 402.08L219.85 402.94C220.52 403.53 221.2 404.13 221.86 404.77C223.19 406.04 224.44 407.42 225.56 408.92L223.72 408.45C225.48 407.66 226.86 405.3 228.62 403.2C229.5 402.13 230.48 401.1 231.56 400.18C232.65 399.26 233.84 398.46 235.09 397.79C235.82 397.4 236.73 397.67 237.12 398.4C237.51 399.13 237.24 400.04 236.51 400.43H236.5C235.43 401.01 234.42 401.69 233.49 402.47C232.56 403.25 231.72 404.14 230.92 405.11C230.12 406.08 229.37 407.13 228.48 408.22C227.6 409.29 226.5 410.46 224.97 411.18C224.32 411.49 223.55 411.28 223.14 410.72L223.13 410.71C222.13 409.37 221 408.12 219.77 406.94C219.15 406.35 218.51 405.78 217.85 405.2L216.83 404.3C216.48 403.97 216.14 403.68 215.72 403.16L215.69 403.12C215.4 402.76 215.33 402.28 215.46 401.87C215.93 400.53 216.64 399.77 217.3 398.99C217.99 398.25 218.7 397.58 219.45 396.96C220.97 395.75 222.54 394.66 224.4 393.77L224.43 393.76C225.43 393.28 226.63 393.71 227.11 394.71C227.59 395.71 227.16 396.91 226.16 397.39C226.06 397.45 225.93 397.5 225.81 397.53Z" fill="black"/>
<path d="M218.05 269.16C218.83 264.08 219.68 257.38 216.5 253.77C211.7 248.33 206.79 250.48 204.8 252.26L199.24 275.49L200.06 294.39L202.34 309.22L215.26 305.22L222.08 303.97L216.42 286.2L218.05 269.16Z" fill="#FF00FF"/>
<path d="M203.49 357.76L196.94 350.8L195.97 336.52L201.02 321.26L200.21 314.48L203.94 308.76L219.3 303.88L227.59 305.1L230.06 310.47L237.91 316.2L241.93 321.4L244.75 330.8L246.57 349.57L244.07 355.17L236.97 353.75L238.9 362.75L232.5 367L224.92 362.6L219.56 363.99L212.28 359.49L203.49 357.76Z" fill="#F9F9F9"/>
<path d="M207.47 253.11C207.37 253.16 207.02 253.44 206.74 253.85C206.45 254.25 206.18 254.73 205.93 255.24C205.43 256.25 205 257.36 204.63 258.49C203.88 260.76 203.32 263.13 202.86 265.51C202.41 267.9 202.07 270.31 201.86 272.72C201.66 275.18 201.49 277.64 201.36 280.1C201.11 285.01 201.06 289.92 201.41 294.77C201.75 299.62 202.51 304.42 203.89 308.98L203.9 309C204.22 310.06 203.62 311.17 202.56 311.49C201.5 311.81 200.39 311.21 200.07 310.15C200.07 310.14 200.06 310.12 200.06 310.11C198.66 305.13 197.97 300.04 197.72 294.98C197.46 289.92 197.61 284.87 197.97 279.88C198.15 277.38 198.37 274.89 198.62 272.41C198.87 269.88 199.25 267.37 199.75 264.89C200.26 262.4 200.87 259.94 201.71 257.5C202.13 256.28 202.6 255.07 203.22 253.86C203.53 253.26 203.87 252.66 204.32 252.05C204.77 251.46 205.3 250.81 206.33 250.33C207.08 249.98 207.97 250.31 208.32 251.06C208.67 251.81 208.34 252.7 207.59 253.05L207.47 253.11Z" fill="black"/>
<path d="M219.19 269.98C218.87 275.54 219.18 281.15 219.99 286.66C220.82 292.16 222.14 297.63 224.29 302.61L224.3 302.64C224.74 303.65 224.27 304.83 223.26 305.27C222.25 305.71 221.07 305.24 220.63 304.23C220.62 304.21 220.61 304.19 220.61 304.17C218.41 298.62 217.23 292.89 216.52 287.13C215.84 281.37 215.69 275.55 216.2 269.76C216.27 268.93 217 268.32 217.82 268.4C218.63 268.46 219.24 269.16 219.19 269.98Z" fill="black"/>
<path d="M227.05 310.46C227.4 309.98 227.6 309.37 227.63 308.77C227.64 308.47 227.6 308.17 227.52 307.91C227.48 307.78 227.44 307.66 227.38 307.56C227.33 307.45 227.28 307.38 227.17 307.23C226.79 306.71 226.43 306.45 225.84 306.23C225.25 306.02 224.45 305.92 223.6 305.84C220.23 305.5 216.68 306.12 213.25 306.99C209.83 307.91 206.52 309.32 203.63 311.2C203.29 311.44 202.87 311.7 202.63 311.9C202.37 312.12 202.13 312.35 201.94 312.6C201.56 313.1 201.32 313.65 201.25 314.26C201.09 315.46 201.73 316.88 202.77 317.65L202.78 317.66C203.48 318.13 203.66 319.08 203.19 319.78C200.94 323.11 199.52 327.11 198.56 331.14C198.09 333.17 197.75 335.23 197.56 337.28C197.37 339.35 197.38 341.33 197.65 343.35C198.17 347.34 199.69 351.15 202.27 354.09C202.58 354.46 202.94 354.8 203.27 355.16L204.4 356.25C205.15 356.96 205.9 357.61 206.63 358.08C208.1 359.06 209.41 359.18 211.17 358.67C212.23 358.37 213.34 358.98 213.64 360.04C213.94 361.1 213.33 362.21 212.27 362.51L212.25 362.52C211.04 362.85 209.66 363.03 208.25 362.83C206.83 362.64 205.51 362.01 204.47 361.3C203.41 360.58 202.56 359.78 201.76 359L200.59 357.83C200.2 357.39 199.78 356.98 199.41 356.52C196.36 352.9 194.68 348.31 194.18 343.78C193.91 341.53 193.95 339.17 194.2 336.96C194.44 334.73 194.85 332.54 195.39 330.38C196.5 326.08 198.07 321.84 200.72 318.06L201.14 320.19C199.04 318.94 197.73 316.58 197.81 314.05C197.84 312.79 198.31 311.53 199.03 310.52C199.39 310.01 199.8 309.56 200.24 309.17C200.71 308.76 201.07 308.52 201.49 308.2C204.74 305.81 208.42 304.29 212.18 303.2C214.06 302.66 215.99 302.26 217.97 302.06C219.92 301.84 221.99 301.8 223.99 302.04C224.99 302.17 226.05 302.34 227.21 302.83C228.37 303.29 229.51 304.28 230.13 305.34C230.28 305.58 230.47 305.91 230.59 306.24C230.72 306.57 230.8 306.89 230.86 307.22C230.98 307.87 230.98 308.52 230.9 309.15C230.73 310.4 230.18 311.6 229.27 312.51C228.69 313.1 227.74 313.1 227.15 312.52C226.62 311.99 226.56 311.16 226.99 310.57L227.05 310.46Z" fill="black"/>
<path d="M228.17 311.46C230.68 311.65 234.08 312.93 238.22 317.52C241.32 320.96 243.9 327.38 243.74 332.49C243.41 343.38 247.26 348.02 246.33 351.73C245.31 355.81 239.47 355.77 235.78 352.19" stroke="black" stroke-width="3" stroke-miterlimit="10" stroke-linecap="round" stroke-linejoin="round"/>
<path d="M235.34 340.98C235.28 341.12 235.07 341.63 234.96 342.1C234.84 342.59 234.76 343.12 234.72 343.64C234.67 344.17 234.65 344.7 234.67 345.22C234.69 345.72 234.76 346.3 234.87 346.62C235.17 347.54 235.62 348.68 236.11 349.75C236.59 350.84 237.09 351.95 237.61 353.06C238.11 354.18 238.62 355.3 239.12 356.48C239.37 357.08 239.61 357.65 239.84 358.42C240.06 359.2 240.18 359.86 240.23 360.64C240.35 362.14 240.1 363.91 239.12 365.38C238.17 366.86 236.7 367.8 235.34 368.34C234.72 368.6 233.79 368.88 232.95 368.91C232.11 368.96 231.32 368.85 230.56 368.68C229.07 368.31 227.74 367.63 226.59 366.78C225.43 365.93 224.43 364.91 223.6 363.77C222.76 362.62 222.16 361.38 221.64 360.16C220.62 357.71 220.05 355.22 219.52 352.8C219.26 351.59 219.01 350.39 218.73 349.25C218.59 348.68 218.44 348.12 218.27 347.61C218.11 347.09 217.89 346.66 217.74 346.41L217.6 346.17C217.17 345.47 217.4 344.55 218.1 344.13C218.75 343.74 219.58 343.9 220.04 344.48C220.63 345.22 220.94 345.91 221.18 346.54C221.44 347.19 221.63 347.81 221.81 348.42C222.16 349.65 222.46 350.85 222.77 352.03C223.39 354.38 224.03 356.68 224.94 358.76C225.41 359.78 225.92 360.77 226.55 361.58C227.19 362.41 227.95 363.14 228.79 363.72C229.62 364.31 230.55 364.72 231.45 364.94C231.89 365.03 232.33 365.09 232.72 365.06C233.11 365.03 233.37 364.95 233.89 364.75C235.72 363.98 236.46 362.85 236.31 360.95C236.23 359.95 235.97 359.19 235.47 358.04C235 356.96 234.49 355.85 233.98 354.73C233.48 353.61 232.97 352.47 232.49 351.3C232.03 350.11 231.54 348.96 231.22 347.5C231.05 346.62 231.05 345.97 231.06 345.24C231.08 344.53 231.16 343.83 231.29 343.14C231.43 342.45 231.62 341.78 231.88 341.1C232.16 340.41 232.42 339.75 233.16 338.96C233.71 338.37 234.64 338.34 235.23 338.89C235.7 339.33 235.81 340 235.56 340.55L235.34 340.98Z" fill="black"/>
<path d="M207.57 343.49C208.14 345.01 208.22 346.4 208.43 347.64C208.6 348.89 208.84 350.04 209.21 351.16C209.56 352.28 210.02 353.35 210.59 354.42C211.16 355.49 211.82 356.54 212.5 357.53C213.17 358.49 213.97 359.46 214.64 359.95C215.46 360.54 216.48 361 217.47 361.27C219.48 361.83 221.74 361.61 223.87 360.85L223.9 360.84C224.94 360.47 226.08 361.01 226.46 362.05C226.82 363.07 226.31 364.18 225.32 364.58C223.95 365.13 222.49 365.51 220.98 365.66C219.46 365.79 217.89 365.68 216.39 365.26C214.87 364.85 213.5 364.17 212.21 363.22C210.81 362.1 210.02 360.96 209.2 359.79C208.41 358.62 207.75 357.42 207.14 356.16C206.53 354.9 206.01 353.54 205.66 352.15C205.31 350.76 205.14 349.33 205.06 347.98C204.98 346.64 204.97 345.39 204.74 344.41L204.72 344.34C204.53 343.53 205.03 342.73 205.84 342.54C206.56 342.38 207.31 342.79 207.57 343.49Z" fill="black"/>
</svg>
