<svg width="100%" height="100%" viewBox="0 0 450 450" fill="none" xmlns="http://www.w3.org/2000/svg" style="display: block;">
<path d="M167.19 303.31C167.14 297.48 169.2 293.17 174.54 292.58C177.49 292.25 181.4 294.55 182.24 299.28C182.88 302.91 180.12 307.83 178.07 310.58L175.21 314.69L167.4 314.17C167.41 314.17 167.23 307.06 167.19 303.31Z" fill="white"/>
<path d="M175.1 295.55C176.43 295.55 178.73 296.71 179.28 299.81C179.69 302.1 177.69 306.07 175.66 308.79C175.64 308.82 175.62 308.84 175.6 308.87L173.71 311.58L170.33 311.36C170.28 308.96 170.2 305.5 170.18 303.28C170.11 296.08 173.56 295.7 174.86 295.56C174.95 295.55 175.02 295.55 175.1 295.55ZM175.1 292.55C174.91 292.55 174.72 292.56 174.54 292.58C169.2 293.17 167.14 297.48 167.19 303.31C167.22 307.06 167.4 314.17 167.4 314.17L175.21 314.69L178.07 310.58C180.12 307.83 182.89 302.91 182.24 299.28C181.46 294.85 177.97 292.55 175.1 292.55Z" fill="#FFA6C8"/>
<path d="M165.63 333.45C162.72 337.57 154.48 338.9 151.25 333.4C146.68 325.63 154.1 320.35 159.35 318.53C159.46 318.49 159.58 318.45 159.69 318.42C159.75 318.4 159.8 318.38 159.86 318.37C164.57 316.92 168.57 316.58 168.57 316.58L173.63 320.89C173.63 320.88 166.83 331.75 165.63 333.45Z" fill="white"/>
<path d="M186.01 307.68C191.05 307 198.32 309.58 197.71 315.9C196.81 325.28 185.79 324.9 179.14 322.32C177.77 321.79 176.42 321.2 175.11 320.54C174.91 320.44 173.7 320.01 173.64 319.77L172.05 313.38C172.05 313.38 180.81 308.38 186.01 307.68Z" fill="white"/>
<path d="M167.19 303.31C167.14 297.48 169.2 293.17 174.54 292.58C177.49 292.25 181.4 294.55 182.24 299.28C182.88 302.91 180.12 307.83 178.07 310.58L175.21 314.69L167.4 314.17C167.41 314.17 167.23 307.06 167.19 303.31Z" stroke="#7A40D1" stroke-width="3" stroke-miterlimit="10" stroke-linecap="round" stroke-linejoin="round"/>
<path d="M154.24 316.08C151.84 314.73 149.96 312.33 149.42 309.75C148.65 306.02 151.81 302.11 155.37 301.33C159.23 300.48 163.09 302.43 165.75 304.99C169.16 308.27 172.06 311.91 172.06 311.91L168.41 317.18C168.41 317.18 158.89 318.69 154.24 316.08Z" fill="white"/>
<path d="M157.24 304.13C159.33 304.13 161.67 305.23 163.66 307.15C165.47 308.9 167.15 310.77 168.28 312.08L166.69 314.37C165.66 314.48 164.1 314.61 162.4 314.61C159.4 314.61 157.02 314.2 155.69 313.46C154 312.51 152.69 310.82 152.35 309.14C151.92 307.08 154.04 304.69 156.01 304.25C156.42 304.18 156.83 304.13 157.24 304.13ZM157.24 301.13C156.62 301.13 156 301.19 155.37 301.33C151.8 302.12 148.65 306.03 149.42 309.75C149.95 312.33 151.83 314.73 154.24 316.08C156.4 317.29 159.6 317.61 162.42 317.61C165.68 317.61 168.41 317.18 168.41 317.18L172.06 311.91C172.06 311.91 169.16 308.28 165.75 304.99C163.53 302.85 160.45 301.13 157.24 301.13Z" fill="#FFA6C8"/>
<path d="M167.62 319.71L169.71 321.48C167.42 325.13 163.94 330.63 163.18 331.71C162.21 333.08 160.08 334.04 158 334.04C156.68 334.04 154.88 333.66 153.83 331.87C152.8 330.12 152.56 328.57 153.1 327.13C154.06 324.54 157.42 322.37 160.32 321.36C160.41 321.33 160.51 321.3 160.61 321.26L160.74 321.22C163.59 320.35 166.18 319.91 167.62 319.71ZM168.57 316.57C168.57 316.57 164.57 316.91 159.86 318.36C159.8 318.38 159.75 318.4 159.69 318.41C159.58 318.45 159.46 318.48 159.35 318.52C154.1 320.33 146.68 325.62 151.25 333.39C152.76 335.96 155.36 337.04 158.01 337.04C161.02 337.04 164.08 335.64 165.63 333.45C166.83 331.75 173.63 320.88 173.63 320.88L168.57 316.57Z" fill="#FFA6C8"/>
<path d="M154.24 316.08C151.84 314.73 149.96 312.33 149.42 309.75C148.65 306.02 151.81 302.11 155.37 301.33C159.23 300.48 163.09 302.43 165.75 304.99C169.16 308.27 172.06 311.91 172.06 311.91L168.41 317.18C168.41 317.18 158.89 318.69 154.24 316.08Z" stroke="#7A40D1" stroke-width="3" stroke-miterlimit="10" stroke-linecap="round" stroke-linejoin="round"/>
<path d="M165.63 333.45C162.72 337.57 154.48 338.9 151.25 333.4C146.68 325.63 154.1 320.35 159.35 318.53C159.46 318.49 159.58 318.45 159.69 318.42C159.75 318.4 159.8 318.38 159.86 318.37C164.57 316.92 168.57 316.58 168.57 316.58L173.63 320.89C173.63 320.88 166.83 331.75 165.63 333.45Z" stroke="#7A40D1" stroke-width="3" stroke-miterlimit="10" stroke-linecap="round" stroke-linejoin="round"/>
<path d="M187.64 310.57C190.13 310.57 192.62 311.47 193.84 312.82C194.55 313.6 194.83 314.49 194.72 315.62C194.59 316.93 194.21 320.91 187.38 320.91C185.08 320.91 182.48 320.41 180.23 319.54C178.93 319.03 177.66 318.47 176.45 317.87C176.4 317.85 176.33 317.81 176.23 317.77C176.07 317.1 175.84 316.19 175.53 314.92C178.57 313.34 183.42 311.06 186.41 310.66C186.8 310.6 187.22 310.57 187.64 310.57ZM187.64 307.57C187.08 307.57 186.53 307.61 186.01 307.68C180.81 308.39 172.06 313.39 172.06 313.39L173.65 319.78C173.71 320.02 174.92 320.45 175.12 320.55C176.43 321.2 177.78 321.8 179.15 322.33C181.55 323.26 184.53 323.91 187.39 323.91C192.44 323.91 197.14 321.9 197.72 315.91C198.26 310.23 192.48 307.57 187.64 307.57Z" fill="#FFA6C8"/>
<path d="M186.01 307.68C191.05 307 198.32 309.58 197.71 315.9C196.81 325.28 185.79 324.9 179.14 322.32C177.77 321.79 176.42 321.2 175.11 320.54C174.91 320.44 173.7 320.01 173.64 319.77L172.05 313.38C172.05 313.38 180.81 308.38 186.01 307.68Z" stroke="#7A40D1" stroke-width="3" stroke-miterlimit="10" stroke-linecap="round" stroke-linejoin="round"/>
<path d="M185.71 329.07C187.68 333.57 187.18 341.07 181.09 342.3C172.05 344.12 169.66 334.35 169.53 327.4C169.45 323.33 169.86 318.96 169.86 318.96L176.68 317.7C176.68 317.7 183.67 324.42 185.71 329.07Z" fill="white"/>
<path d="M175.67 320.93C177.93 323.23 181.72 327.44 182.96 330.27C183.83 332.25 184.14 335.35 183.04 337.45C182.49 338.51 181.68 339.11 180.49 339.35C179.95 339.46 179.44 339.51 178.97 339.51C177.66 339.51 175.75 339.15 174.26 336.04C173.21 333.85 172.59 330.75 172.52 327.33C172.48 325.25 172.58 323.05 172.67 321.47C173.43 321.35 174.41 321.17 175.67 320.93ZM176.67 317.7L169.85 318.96C169.85 318.96 169.44 323.34 169.52 327.4C169.64 333.77 171.66 342.52 178.97 342.52C179.63 342.52 180.34 342.45 181.08 342.3C187.18 341.07 187.68 333.57 185.7 329.07C183.67 324.42 176.67 317.7 176.67 317.7Z" fill="#FFA6C8"/>
<path d="M185.71 329.07C187.68 333.57 187.18 341.07 181.09 342.3C172.05 344.12 169.66 334.35 169.53 327.4C169.45 323.33 169.86 318.96 169.86 318.96L176.68 317.7C176.68 317.7 183.67 324.42 185.71 329.07Z" stroke="#7A40D1" stroke-width="3" stroke-miterlimit="10" stroke-linecap="round" stroke-linejoin="round"/>
<path d="M178.4 330.7C176.48 327.53 175.2 323.72 174.54 319.81" stroke="#7A40D1" stroke-width="3" stroke-miterlimit="10" stroke-linecap="round" stroke-linejoin="round"/>
<path d="M186.95 315.22C185.14 314.67 179.86 315.04 178.19 316.09" stroke="#7A40D1" stroke-width="3" stroke-miterlimit="10" stroke-linecap="round" stroke-linejoin="round"/>
<path d="M172.83 309.43C174.47 307.6 176.08 302.44 175.63 300.68" stroke="#7A40D1" stroke-width="3" stroke-miterlimit="10" stroke-linecap="round" stroke-linejoin="round"/>
<path d="M166.5 313.22C164.57 311.84 161.75 310.32 158.62 308.24" stroke="#7A40D1" stroke-width="3" stroke-miterlimit="10" stroke-linecap="round" stroke-linejoin="round"/>
<path d="M165.81 320.64C164.02 322.9 162.22 325.16 160.43 327.42" stroke="#7A40D1" stroke-width="3" stroke-miterlimit="10" stroke-linecap="round" stroke-linejoin="round"/>
<path d="M171.04 311.68C168.34 311.6 165.82 313.14 166.04 316.52C166.48 323.47 178.11 324.23 177.16 316.77C176.75 313.53 173.8 311.76 171.04 311.68Z" fill="#FFF1CF" stroke="#FFA661" stroke-width="3" stroke-miterlimit="10" stroke-linecap="round" stroke-linejoin="round"/>
<path d="M207.32 149.18C207.41 142.38 205.03 137.34 198.81 136.62C195.37 136.22 190.79 138.89 189.79 144.4C189.02 148.63 192.22 154.38 194.6 157.6L197.91 162.41L207.02 161.85C207.01 161.84 207.26 153.54 207.32 149.18Z" fill="white"/>
<path d="M198.12 139.58C198.24 139.58 198.35 139.59 198.46 139.6C200.09 139.79 204.44 140.29 204.32 149.13C204.28 151.87 204.17 156.2 204.09 159.01L199.41 159.3L197.06 155.89C197.04 155.86 197.02 155.84 197 155.81C194.58 152.54 192.22 147.74 192.73 144.93C193.45 141.03 196.42 139.58 198.12 139.58ZM198.12 136.58C194.78 136.58 190.72 139.25 189.79 144.4C189.02 148.63 192.22 154.38 194.6 157.6L197.91 162.41L207.02 161.85C207.02 161.85 207.26 153.55 207.32 149.18C207.41 142.38 205.03 137.34 198.81 136.62C198.58 136.59 198.35 136.58 198.12 136.58Z" fill="#FFA6C8"/>
<path d="M208.99 184.33C212.36 189.15 221.96 190.74 225.76 184.34C231.13 175.3 222.5 169.1 216.39 166.96C216.26 166.91 216.12 166.87 215.99 166.83C215.93 166.81 215.86 166.79 215.79 166.77C210.3 165.06 205.64 164.64 205.64 164.64L199.71 169.63C199.72 169.63 207.6 182.34 208.99 184.33Z" fill="white"/>
<path d="M185.35 154.17C179.47 153.35 170.99 156.32 171.66 163.7C172.67 174.65 185.52 174.26 193.28 171.29C194.88 170.68 196.45 169.99 197.99 169.24C198.22 169.12 199.63 168.63 199.7 168.35L201.59 160.9C201.59 160.9 191.41 155.02 185.35 154.17Z" fill="white"/>
<path d="M207.32 149.18C207.41 142.38 205.03 137.34 198.81 136.62C195.37 136.22 190.79 138.89 189.79 144.4C189.02 148.63 192.22 154.38 194.6 157.6L197.91 162.41L207.02 161.85C207.01 161.84 207.26 153.54 207.32 149.18Z" stroke="#7A40D1" stroke-width="3" stroke-miterlimit="10" stroke-linecap="round" stroke-linejoin="round"/>
<path d="M222.36 164.13C225.17 162.57 227.37 159.78 228.01 156.78C228.93 152.44 225.26 147.86 221.11 146.93C216.62 145.92 212.1 148.18 208.99 151.15C205 154.96 201.6 159.19 201.6 159.19L205.83 165.35C205.83 165.34 216.93 167.15 222.36 164.13Z" fill="white"/>
<path d="M218.89 149.68C219.42 149.68 219.95 149.74 220.46 149.85C223.02 150.43 225.66 153.45 225.08 156.16C224.64 158.25 223 160.35 220.91 161.51C219.32 162.39 216.51 162.88 213.01 162.88C210.81 162.88 208.78 162.69 207.55 162.55L205.36 159.37C206.68 157.84 208.78 155.5 211.06 153.32C213.48 151.01 216.33 149.68 218.89 149.68ZM218.89 146.68C215.17 146.68 211.59 148.66 209 151.14C205.01 154.95 201.61 159.18 201.61 159.18L205.84 165.34C205.84 165.34 209.14 165.88 213.02 165.88C216.26 165.88 219.9 165.51 222.37 164.13C225.18 162.57 227.38 159.78 228.02 156.78C228.94 152.44 225.27 147.86 221.12 146.93C220.37 146.76 219.62 146.68 218.89 146.68Z" fill="#FFA6C8"/>
<path d="M206.58 167.77C208.23 168 211.4 168.54 214.88 169.63L214.97 169.66L215.06 169.69C215.17 169.73 215.29 169.77 215.4 169.8C218.64 170.94 222.87 173.47 224.1 176.86C224.77 178.7 224.47 180.65 223.18 182.81C221.83 185.08 219.57 185.56 217.91 185.56C215.32 185.56 212.66 184.35 211.44 182.61C210.52 181.3 206.28 174.52 203.63 170.25L206.58 167.77ZM205.65 164.63L199.72 169.62C199.72 169.62 207.6 182.34 208.99 184.32C210.8 186.9 214.39 188.55 217.91 188.55C220.97 188.55 223.99 187.3 225.76 184.33C231.13 175.29 222.5 169.09 216.39 166.95C216.26 166.9 216.12 166.86 215.99 166.82C215.92 166.8 215.86 166.78 215.79 166.76C210.31 165.05 205.65 164.63 205.65 164.63Z" fill="#FFA6C8"/>
<path d="M222.36 164.13C225.17 162.57 227.37 159.78 228.01 156.78C228.93 152.44 225.26 147.86 221.11 146.93C216.62 145.92 212.1 148.18 208.99 151.15C205 154.96 201.6 159.19 201.6 159.19L205.83 165.35C205.83 165.34 216.93 167.15 222.36 164.13Z" stroke="#7A40D1" stroke-width="3" stroke-miterlimit="10" stroke-linecap="round" stroke-linejoin="round"/>
<path d="M208.99 184.33C212.36 189.15 221.96 190.74 225.76 184.34C231.13 175.3 222.5 169.1 216.39 166.96C216.26 166.91 216.12 166.87 215.99 166.83C215.93 166.81 215.86 166.79 215.79 166.77C210.3 165.06 205.64 164.64 205.64 164.64L199.71 169.63C199.72 169.63 207.6 182.34 208.99 184.33Z" stroke="#7A40D1" stroke-width="3" stroke-miterlimit="10" stroke-linecap="round" stroke-linejoin="round"/>
<path d="M183.38 157.03C183.92 157.03 184.44 157.07 184.94 157.13C188.6 157.64 194.58 160.51 198.12 162.39C197.65 164.25 197.34 165.49 197.13 166.33C196.92 166.42 196.75 166.49 196.67 166.53C195.25 167.23 193.75 167.88 192.22 168.47C189.57 169.49 186.49 170.07 183.78 170.07C178.14 170.07 175.07 167.83 174.66 163.41C174.53 161.97 174.91 160.78 175.82 159.78C177.34 158.12 180.31 157.03 183.38 157.03ZM183.38 154.03C177.76 154.03 171.06 157.1 171.67 163.69C172.32 170.72 177.84 173.08 183.77 173.08C187.08 173.08 190.51 172.35 193.29 171.28C194.89 170.67 196.46 169.98 198 169.23C198.23 169.11 199.64 168.62 199.71 168.34L201.6 160.89C201.6 160.89 191.43 155.01 185.36 154.16C184.72 154.08 184.05 154.03 183.38 154.03Z" fill="#FFA6C8"/>
<path d="M185.35 154.17C179.47 153.35 170.99 156.32 171.66 163.7C172.67 174.65 185.52 174.26 193.28 171.29C194.88 170.68 196.45 169.99 197.99 169.24C198.22 169.12 199.63 168.63 199.7 168.35L201.59 160.9C201.59 160.9 191.41 155.02 185.35 154.17Z" stroke="#7A40D1" stroke-width="3" stroke-miterlimit="10" stroke-linecap="round" stroke-linejoin="round"/>
<path d="M185.59 179.12C183.27 184.36 183.81 193.11 190.91 194.58C201.45 196.76 204.28 185.37 204.47 177.26C204.58 172.52 204.13 167.41 204.13 167.41L196.18 165.9C196.18 165.9 187.99 173.71 185.59 179.12Z" fill="white"/>
<path d="M197.17 169.14C199 169.49 200.33 169.74 201.31 169.92C201.42 171.79 201.54 174.56 201.48 177.18C201.42 179.63 200.76 191.84 193.43 191.84C192.84 191.84 192.2 191.77 191.52 191.63C189.99 191.31 188.91 190.5 188.21 189.14C186.88 186.54 187.26 182.74 188.33 180.33C189.85 176.9 194.53 171.8 197.17 169.14ZM196.19 165.9C196.19 165.9 187.99 173.71 185.59 179.12C183.27 184.36 183.81 193.11 190.91 194.58C191.8 194.76 192.64 194.85 193.42 194.85C201.91 194.85 204.29 184.68 204.47 177.26C204.58 172.52 204.13 167.41 204.13 167.41L196.19 165.9Z" fill="#FFA6C8"/>
<path d="M185.59 179.12C183.27 184.36 183.81 193.11 190.91 194.58C201.45 196.76 204.28 185.37 204.47 177.26C204.58 172.52 204.13 167.41 204.13 167.41L196.18 165.9C196.18 165.9 187.99 173.71 185.59 179.12Z" stroke="#7A40D1" stroke-width="3" stroke-miterlimit="10" stroke-linecap="round" stroke-linejoin="round"/>
<path d="M194.11 181.05C196.37 177.36 197.88 172.92 198.67 168.37" stroke="#7A40D1" stroke-width="3" stroke-miterlimit="10" stroke-linecap="round" stroke-linejoin="round"/>
<path d="M184.22 162.96C186.33 162.33 192.49 162.79 194.43 164.02" stroke="#7A40D1" stroke-width="3" stroke-miterlimit="10" stroke-linecap="round" stroke-linejoin="round"/>
<path d="M200.72 156.27C198.81 154.13 196.97 148.11 197.5 146.05" stroke="#7A40D1" stroke-width="3" stroke-miterlimit="10" stroke-linecap="round" stroke-linejoin="round"/>
<path d="M208.08 160.73C210.34 159.13 213.63 157.37 217.3 154.97" stroke="#7A40D1" stroke-width="3" stroke-miterlimit="10" stroke-linecap="round" stroke-linejoin="round"/>
<path d="M208.84 169.39C210.92 172.03 213 174.68 215.08 177.32" stroke="#7A40D1" stroke-width="3" stroke-miterlimit="10" stroke-linecap="round" stroke-linejoin="round"/>
<path d="M202.78 158.91C205.93 158.83 208.86 160.64 208.59 164.58C208.04 172.68 194.47 173.51 195.62 164.82C196.12 161.05 199.57 158.99 202.78 158.91Z" fill="#FFF1CF" stroke="#FFA661" stroke-width="3" stroke-miterlimit="10" stroke-linecap="round" stroke-linejoin="round"/>
<path d="M323.79 251.61C324.86 246.25 327.58 242.69 332.6 243.17C335.38 243.44 338.52 246.3 338.39 250.81C338.28 254.27 334.8 258.25 332.39 260.38L328.98 263.6L321.91 261.62C321.9 261.62 323.1 255.05 323.79 251.61Z" fill="white"/>
<path d="M331.71 246.12C331.9 246.12 332.1 246.13 332.31 246.15C333.43 246.26 335.48 247.7 335.38 250.71C335.32 252.5 333.23 255.62 330.39 258.13C330.37 258.15 330.34 258.17 330.32 258.2L328.14 260.26L325.34 259.48C325.75 257.27 326.33 254.2 326.73 252.2C327.95 246.12 330.78 246.12 331.71 246.12ZM331.71 243.12C327.26 243.12 324.79 246.57 323.79 251.61C323.1 255.06 321.9 261.62 321.9 261.62L328.97 263.6L332.38 260.38C334.79 258.25 338.28 254.27 338.39 250.81C338.53 246.31 335.38 243.44 332.6 243.17C332.3 243.13 332 243.12 331.71 243.12Z" fill="#FFA6C8"/>
<path d="M316.56 278.98C313.09 282.2 305.28 281.84 303.36 276.17C300.66 268.16 308.49 264.73 313.66 264.08C313.77 264.07 313.88 264.05 314 264.04C314.05 264.03 314.11 264.03 314.16 264.02C318.77 263.6 322.5 264.05 322.5 264.05L326.32 268.98C326.32 268.97 317.98 277.65 316.56 278.98Z" fill="white"/>
<path d="M340.23 259.23C344.99 259.57 351.17 263.34 349.39 269.03C346.76 277.47 336.71 275 331.11 271.36C329.95 270.61 328.83 269.81 327.75 268.95C327.59 268.82 326.56 268.19 326.55 267.96L326.32 261.78C326.32 261.78 335.32 258.88 340.23 259.23Z" fill="white"/>
<path d="M323.79 251.61C324.86 246.25 327.58 242.69 332.6 243.17C335.38 243.44 338.52 246.3 338.39 250.81C338.28 254.27 334.8 258.25 332.39 260.38L328.98 263.6L321.91 261.62C321.9 261.62 323.1 255.05 323.79 251.61Z" stroke="#7A40D1" stroke-width="3" stroke-miterlimit="10" stroke-linecap="round" stroke-linejoin="round"/>
<path d="M309.44 260.84C307.49 259.14 306.23 256.58 306.23 254.11C306.24 250.54 309.89 247.56 313.32 247.52C317.02 247.48 320.2 250.02 322.14 252.88C324.64 256.55 326.6 260.45 326.6 260.45L322.23 264.58C322.24 264.57 313.21 264.13 309.44 260.84Z" fill="white"/>
<path d="M313.41 250.52C316.66 250.52 319.02 253.62 319.67 254.57C320.96 256.46 322.11 258.44 322.89 259.84L321.15 261.49C317.96 261.18 313.33 260.25 311.42 258.58C310.09 257.42 309.24 255.67 309.24 254.11C309.25 252.23 311.55 250.53 313.36 250.51L313.41 250.52ZM313.4 247.52C313.37 247.52 313.34 247.52 313.31 247.52C309.88 247.56 306.23 250.54 306.22 254.11C306.21 256.58 307.48 259.14 309.43 260.84C313.2 264.13 322.23 264.58 322.23 264.58L326.6 260.45C326.6 260.45 324.63 256.55 322.14 252.88C320.21 250.04 317.07 247.52 313.4 247.52Z" fill="#FFA6C8"/>
<path d="M318.2 266.83C319.31 266.83 320.25 266.87 320.93 266.92L322.36 268.76C319.55 271.67 315.41 275.95 314.51 276.78C313.69 277.54 312.28 278.01 310.82 278.01C309.96 278.01 307.08 277.81 306.2 275.2C305.61 273.46 305.68 272.04 306.42 270.86C307.76 268.72 311.21 267.4 314.03 267.04C314.12 267.03 314.21 267.02 314.28 267.01L314.36 267L314.42 266.99C315.65 266.89 316.92 266.83 318.2 266.83ZM318.2 263.83C317 263.83 315.63 263.88 314.16 264.01C314.11 264.02 314.05 264.02 314 264.03C313.89 264.04 313.78 264.05 313.66 264.07C308.49 264.72 300.66 268.15 303.36 276.16C304.49 279.51 307.68 281.01 310.82 281.01C312.99 281.01 315.14 280.29 316.56 278.97C317.99 277.64 326.33 268.96 326.33 268.96L322.51 264.03C322.5 264.05 320.77 263.83 318.2 263.83Z" fill="#FFA6C8"/>
<path d="M309.44 260.84C307.49 259.14 306.23 256.58 306.23 254.11C306.24 250.54 309.89 247.56 313.32 247.52C317.02 247.48 320.2 250.02 322.14 252.88C324.64 256.55 326.6 260.45 326.6 260.45L322.23 264.58C322.24 264.57 313.21 264.13 309.44 260.84Z" stroke="#7A40D1" stroke-width="3" stroke-miterlimit="10" stroke-linecap="round" stroke-linejoin="round"/>
<path d="M316.56 278.98C313.09 282.2 305.28 281.84 303.36 276.17C300.66 268.16 308.49 264.73 313.66 264.08C313.77 264.07 313.88 264.05 314 264.04C314.05 264.03 314.11 264.03 314.16 264.02C318.77 263.6 322.5 264.05 322.5 264.05L326.32 268.98C326.32 268.97 317.98 277.65 316.56 278.98Z" stroke="#7A40D1" stroke-width="3" stroke-miterlimit="10" stroke-linecap="round" stroke-linejoin="round"/>
<path d="M339.35 262.2C339.58 262.2 339.8 262.21 340.01 262.22C342.45 262.39 345.02 263.7 346.13 265.32C346.73 266.19 346.85 267.09 346.53 268.13C345.76 270.61 344.18 271.72 341.43 271.72C338.81 271.72 335.48 270.62 332.75 268.84C331.66 268.13 330.6 267.37 329.62 266.59C329.59 266.57 329.56 266.54 329.51 266.51L329.42 263.99C332.23 263.22 336.53 262.2 339.35 262.2ZM339.35 259.2C334.32 259.2 326.32 261.79 326.32 261.79L326.55 267.97C326.56 268.2 327.58 268.83 327.75 268.96C328.83 269.81 329.95 270.61 331.11 271.37C333.93 273.2 337.87 274.74 341.43 274.74C344.95 274.74 348.09 273.24 349.4 269.04C351.18 263.35 345 259.58 340.24 259.24C339.95 259.21 339.66 259.2 339.35 259.2Z" fill="#FFA6C8"/>
<path d="M340.23 259.23C344.99 259.57 351.17 263.34 349.39 269.03C346.76 277.47 336.71 275 331.11 271.36C329.95 270.61 328.83 269.81 327.75 268.95C327.59 268.82 326.56 268.19 326.55 267.96L326.32 261.78C326.32 261.78 335.32 258.88 340.23 259.23Z" stroke="#7A40D1" stroke-width="3" stroke-miterlimit="10" stroke-linecap="round" stroke-linejoin="round"/>
<path d="M335.84 278.82C336.79 283.33 334.88 290.13 329.05 290.08C320.4 290.02 320.08 280.58 321.3 274.17C322.01 270.42 323.23 266.48 323.23 266.48L329.73 266.63C329.73 266.63 334.86 274.16 335.84 278.82Z" fill="white"/>
<path d="M325.47 269.54C326.34 269.56 327.3 269.58 328.09 269.6C329.72 272.16 332.33 276.66 332.91 279.43C333.38 281.69 332.85 284.4 331.65 285.88C330.98 286.7 330.18 287.08 329.08 287.08C326.83 287.06 325.88 286.22 325.37 285.59C323.78 283.66 323.35 279.5 324.26 274.73C324.6 272.88 325.08 270.96 325.47 269.54ZM323.22 266.49C323.22 266.49 322 270.43 321.29 274.18C320.08 280.59 320.39 290.02 329.04 290.09C329.06 290.09 329.08 290.09 329.09 290.09C334.88 290.09 336.77 283.33 335.83 278.83C334.85 274.17 329.72 266.65 329.72 266.65C329.72 266.65 323.24 266.49 323.22 266.49Z" fill="#FFA6C8"/>
<path d="M335.84 278.82C336.79 283.33 334.88 290.13 329.05 290.08C320.4 290.02 320.08 280.58 321.3 274.17C322.01 270.42 323.23 266.48 323.23 266.48L329.73 266.63C329.73 266.63 334.86 274.16 335.84 278.82Z" stroke="#7A40D1" stroke-width="3" stroke-miterlimit="10" stroke-linecap="round" stroke-linejoin="round"/>
<path d="M328.82 278.91C327.66 275.63 327.22 271.88 327.37 268.17" stroke="#7A40D1" stroke-width="3" stroke-miterlimit="10" stroke-linecap="round" stroke-linejoin="round"/>
<path d="M339.64 266.34C338.08 265.49 333.16 264.81 331.43 265.46" stroke="#7A40D1" stroke-width="3" stroke-miterlimit="10" stroke-linecap="round" stroke-linejoin="round"/>
<path d="M327.79 258.3C329.65 256.93 332.11 252.51 332.05 250.81" stroke="#7A40D1" stroke-width="3" stroke-miterlimit="10" stroke-linecap="round" stroke-linejoin="round"/>
<path d="M321.24 260.57C319.74 258.93 317.44 256.99 314.96 254.49" stroke="#7A40D1" stroke-width="3" stroke-miterlimit="10" stroke-linecap="round" stroke-linejoin="round"/>
<path d="M319.19 267.25C317.11 268.98 315.03 270.71 312.95 272.44" stroke="#7A40D1" stroke-width="3" stroke-miterlimit="10" stroke-linecap="round" stroke-linejoin="round"/>
<path d="M325.72 260.03C323.26 259.44 320.65 260.37 320.2 263.52C319.27 269.99 329.8 272.92 330.37 265.89C330.6 262.83 328.24 260.63 325.72 260.03Z" fill="#FFF1CF" stroke="#FFA661" stroke-width="3" stroke-miterlimit="10" stroke-linecap="round" stroke-linejoin="round"/>
</svg>
