<svg width="450" height="450" viewBox="0 0 450 450" fill="none" xmlns="http://www.w3.org/2000/svg">
<path d="M371.51 253.65C367 254 363.94 250 361.55 246.73C358.7 242.83 356.06 238.76 353.34 234.77C355.91 231.32 357.43 226.97 351.29 226.49C349.16 226.32 348.05 226.81 346.14 225.57C344.65 224.6 343.58 223.54 341.88 222.86C339.85 222.05 338.12 221.74 336.47 220.18C334.87 218.66 333.63 216.75 332.1 215.16C326.95 209.8 320.71 206.54 313.2 208.35C308.12 209.57 303.25 211.43 298.1 212.43C292.87 213.44 287.57 213.98 282.25 214.09C281.87 213.94 281.45 213.9 280.99 214.01C280.86 214.04 280.73 214.08 280.6 214.11C280.41 214.11 280.22 214.12 280.04 214.12C279.33 214.12 278.76 214.37 278.32 214.75C274.84 215.83 271.61 217.31 268.45 219.27C267.97 219.52 267.51 219.8 267.06 220.11C264.3 222.03 262.14 224.91 259.88 227.35C253.26 234.5 246.64 239.04 237.69 242.92C234.75 244.19 236.76 248.73 239.7 247.49C240.16 248.7 241.47 249.73 243.07 249.26C242.91 249.31 241.4 255.42 241.21 256.18C240.59 258.53 240.13 260.89 239.98 263.32C239.7 267.91 240.28 272.49 241.23 276.97C242.26 281.86 244.09 286.64 244.59 291.63C244.81 293.79 244.62 295.99 244.99 298.13C245.13 298.94 245.75 300.31 245.99 301.35C244.63 303.22 246.88 306.3 249.06 305.04C249.67 304.69 250.1 304.26 250.41 303.79C251.7 302.15 252.99 300.51 254.27 298.87C255.82 300.69 257.06 302.65 257.98 304.72C258.52 309.4 259.06 314.08 259.6 318.77C259.69 319.59 260.1 320.14 260.64 320.47C260.37 324.56 260.29 328.65 262.1 332.32C265.08 338.35 270.77 342.47 277.29 343.59C277.69 347.06 277.93 351.24 279.83 353.95C280.03 354.24 280.26 354.49 280.5 354.73C280.53 354.8 280.55 354.87 280.58 354.94C282.65 359.46 285.92 362.66 290.46 364.68C291.07 364.95 291.73 364.9 292.31 364.64C294.45 368.62 297.17 372 300.56 374.82C300.65 375.38 300.94 375.92 301.46 376.37C302.56 377.31 303.23 377.57 304.29 377.61C304.37 378.21 304.67 378.78 305.24 379.15C308.45 381.26 311.71 382.48 315.53 382.94C315.75 382.97 315.95 382.95 316.16 382.92C316.51 383.31 316.98 383.6 317.59 383.68C319.01 383.86 320.15 383.8 321.32 383.44C324.07 383.13 326.75 382.52 329.37 381.53C333.92 379.81 336.48 377.1 341.62 378.06C348.74 379.38 355.29 377.89 362.23 375.8C364.32 375.17 364.02 371.87 362.14 371.2C359.78 370.36 357.9 369.16 356.3 367.48C357.06 366.92 357.81 366.36 358.57 365.8C358.64 365.78 358.71 365.76 358.79 365.73C362.27 364.26 367.58 361.28 367.87 356.96C367.97 355.51 367.38 354.11 366.46 353.02C366.2 352.72 365.62 352.33 364.91 351.91C366.05 350.97 366.33 349.16 364.87 348.04C362.24 346.02 360.09 343.66 358.54 340.71C357.6 338.93 355.73 335.25 355.94 332.9C355.95 332.9 355.95 332.91 355.96 332.91C355.96 333.85 356.44 334.76 357.47 335.15C361.79 336.79 366.37 333.26 365.48 328.61C365.37 328.03 365.11 327.58 364.76 327.25C364.85 326.11 364.55 325 363.78 324.18C363.7 323.75 363.6 323.32 363.49 322.89C362.76 320.05 362.17 317.64 362.25 314.9C362.37 314.73 362.47 314.53 362.56 314.31C364.29 309.49 365.5 304.59 366.21 299.59C367.86 291.88 368.32 283.96 366.24 276.24C365.56 273.71 364.61 271.29 363.66 268.85C363.12 267.47 362.55 266.09 362.1 264.67C362.01 264.35 361.93 264.03 361.84 263.71C362.59 263.62 363.3 263.25 363.74 262.6C364.2 261.92 364.35 261.1 364.2 260.34C365.64 260.48 367.25 260.78 368.4 260.61C370.44 260.31 372.04 259.54 373.48 258.06C375.16 256.3 374.12 253.45 371.51 253.65Z" fill="#DDDDDD"/>
<path d="M374.16 253.56C371.19 253.56 369.28 253.3 367.13 251.13C365.67 249.66 364.57 248.48 362.93 247.24C360.21 245.18 359.53 243.23 358.26 240.14C357.58 238.49 354.18 232.72 356.23 231.2C358.24 229.71 357.19 227.16 355.38 226.42C354.84 225.85 354.05 225.5 353.04 225.65C342.08 227.29 334.59 215.01 326.05 210.23C321.89 207.9 317.21 206.57 312.46 207.69C309.52 208.38 307.04 210.13 304.21 211.1C300.57 212.35 296.64 212.12 292.87 212.05C287.08 211.94 281.52 212.42 275.99 214.29C270.7 216.08 267.85 218.61 264.48 222.9C260.91 227.43 255.28 230.26 250.82 233.83C246.08 237.64 241.71 241.85 237.58 246.31C236.25 247.75 237.35 249.9 238.81 250.62C240.19 251.29 241.57 251.96 242.95 252.64C241.53 260.41 241.16 268.32 241.95 276.21C242.41 280.78 243.28 285.3 244.52 289.72C245.75 294.13 247.58 298.27 246.65 302.91C245.93 306.48 251.55 307.13 252.27 303.58C252.55 302.18 252.64 300.76 252.59 299.33C252.78 299.62 252.98 299.91 253.15 300.22C254.66 302.88 255.13 305.95 255.8 308.9C257.09 314.6 258.39 320.3 259.68 326C260.57 329.91 261 334.45 263.98 337.4C267.45 340.83 272.76 343.04 276.92 345.51C278.83 346.64 280.84 345.36 281.38 343.78C282.47 343.54 283.55 343.2 284.62 342.85C285.24 342.64 285.67 342.3 285.95 341.89C291.63 340.26 295.9 336.29 299.94 332.01C302.44 329.37 297.86 326.04 295.39 328.65C292.06 332.17 288.36 335.74 283.44 336.7C282.59 336.87 281.99 337.32 281.62 337.9C279.76 338.45 278.15 338.6 276.21 337.88C274.45 337.23 272.74 336.39 271.01 335.65C270.87 335.59 270.73 335.56 270.59 335.52C269.49 334.73 268.5 333.88 267.74 332.92C265.97 330.7 265.69 327.03 265.07 324.26C264.46 321.56 263.84 318.86 263.23 316.16C262.1 311.19 261.25 306.04 259.72 301.17C258.47 297.22 255.74 294.32 253.53 290.9C252.81 289.78 251.76 289.56 250.82 289.86C249.75 286.11 248.49 282.38 247.97 278.77C246.6 269.3 247.11 259.79 249.13 250.45C249.64 248.08 247.34 247.02 245.5 247.6L244.56 247.14C248.05 243.59 251.74 240.26 255.67 237.2C259.63 234.11 264.26 231.6 267.67 227.87C269.36 226.02 270.5 223.61 272.52 222.08C275.05 220.17 278.7 219.17 281.72 218.5C287.76 217.17 293.8 218.07 299.9 217.61C305.57 217.19 310.21 213.25 315.69 212.95C321.36 212.64 326.44 216.96 330.47 220.46C336.22 225.46 342.29 230.83 349.91 231.37C349.77 232.29 349.79 233.25 349.98 234.23C350.82 238.67 353.27 243.87 355.35 247.87C356.2 249.5 357.01 250.35 358.55 251.36C360.63 252.72 361.9 253.92 363.62 255.67C366.4 258.51 369.6 259.16 373.48 259.17C377.09 259.18 377.79 253.56 374.16 253.56Z" fill="white"/>
<path d="M322.7 287.8C326.98 282.29 329.15 275.65 328.69 268.52C328.46 264.92 322.8 264.7 323.04 268.33C323.47 274.97 321.48 281.07 316.88 285.95C315.93 286.96 315.52 288.91 316.75 289.95C330.75 301.83 321.9 322.52 320.52 337.62C320.19 341.25 325.84 341.42 326.17 337.81C327.65 321.67 335.69 301.1 322.7 287.8Z" fill="white"/>
<path d="M331.72 374.74C320.66 377.04 307.01 378.72 300.96 366.68C299.02 362.81 298.9 360.09 294.64 358.22C292.5 357.29 290.05 356.75 288.14 355.34C284.56 352.69 284.27 348.75 284.24 344.61C284.21 341.01 278.6 340.31 278.62 343.94C278.67 350.74 279.6 356.85 285.88 360.56C288.03 361.83 292.21 362.31 293.8 364.03C295.36 365.73 295.84 369.31 297.14 371.35C305.19 383.86 319.7 383 332.57 380.33C336.11 379.6 335.29 374 331.72 374.74Z" fill="white"/>
<path d="M363.39 368.9C354.43 370.18 353.64 357.4 352.41 351.61C350.81 344.09 346.42 337.74 344.31 330.42C343.32 326.97 337.71 327.77 338.72 331.27C340.21 336.44 342.69 341.07 344.76 346.01C346.9 351.12 347.23 356.5 348.66 361.78C349.88 366.3 352.54 370.63 356.36 372.92C354.13 373.36 351.69 373.28 349.56 373.22C345.43 373.12 340.84 372.94 337.27 370.62C333.78 368.36 331.93 364.53 329.42 361.35C326.89 358.14 321.31 355.07 321.59 350.52C321.82 346.9 316.2 346.21 315.97 349.85C315.58 356.12 319.79 359.11 323.65 363.28C327.69 367.64 329.94 373.17 335.42 376.08C340.42 378.74 346.45 378.93 351.99 378.86C357.43 378.78 362.58 377.86 366.08 373.36C367.62 371.41 365.76 368.56 363.39 368.9Z" fill="white"/>
<path d="M364.59 259.89C362.1 258.87 359.84 258.59 357.16 258.86C355.56 259.02 354.67 260.61 354.79 262.08C354.94 264.02 355.35 265.67 355.95 267.51C356.35 268.72 357.24 269.2 358.18 269.2C359.22 272.42 360.62 275.51 361.36 278.87C362.33 283.29 362.78 287.82 362.73 292.34C362.64 300.22 359.98 307.81 359.97 315.62C359.97 323.06 363.05 331.63 358.31 338.25C356.19 341.21 360.74 344.57 362.86 341.61C365.87 337.41 366.71 332.59 366.52 327.49C366.39 323.92 365.71 320.39 365.6 316.82C365.49 312.96 366.38 309.29 367.06 305.52C368.21 299.21 368.64 292.79 368.15 286.39C367.89 282.99 367.36 279.62 366.54 276.31C366.03 274.25 364.44 265.92 362.49 265.14C365.89 266.49 367.96 261.26 364.59 259.89Z" fill="white"/>
<path d="M355.57 277.36C354.79 273.82 349.19 274.64 349.98 278.21C353.32 293.31 351.48 310.22 338.04 319.86C335.08 321.98 338.64 326.38 341.59 324.26C356.57 313.52 359.32 294.32 355.57 277.36Z" fill="white"/>
<path d="M325.3 256.09C324.28 254.66 322.77 253.72 321.16 253.08C319.6 252.46 313.46 251.77 314.42 249.48C315.47 246.95 312.14 244.29 310.02 246.23C309.76 246.47 309.48 246.91 309.2 247.41L309.17 247.39C309.14 247.45 309.13 247.51 309.1 247.57C308.57 248.53 308.06 249.62 307.76 249.8C307.71 249.83 303.54 248.25 303.59 249.46C303.42 245.99 298.68 246.75 297.99 249.55C297.81 250.27 297.4 250.91 296.85 251.49C296.13 250.52 294.96 249.79 293.23 249.54C290.75 249.18 288.67 250.58 287.57 252.76C285.43 257.02 285.96 261.45 280.13 262.77C276.6 263.57 277.42 269.17 280.98 268.36C284.02 267.67 286.68 266.43 288.8 264.07C289.8 262.96 290.63 261.69 291.22 260.31C291.91 260.71 292.76 260.81 293.65 260.41C294.41 260.07 295.06 259.58 295.63 259.02C297.78 257.5 299.85 256.29 301.41 254.5C303.2 255.16 305.37 255.34 307.05 255.56C308.46 255.74 309.71 255.76 310.88 254.97C311.69 255.74 312.68 256.37 313.79 256.82C316.81 258.03 320.11 257.6 321.34 261.11C322.58 264.67 322.78 269.08 323.41 272.8C324.02 276.38 329.62 275.55 329 271.95C328.17 267.13 328.24 260.18 325.3 256.09Z" fill="white"/>
<path d="M352.76 235.27C355.43 233.9 358.12 230.46 356.83 226.17C352.61 227.93 340.92 223.61 336.49 218.68C332.06 213.75 328.98 209.25 318.74 208.19C308.49 207.13 307.49 211.06 297.48 212.58C287.92 214.03 284.91 211.07 272.26 215.27C262.5 218.51 260.18 225.91 255.19 230.98C250.2 236.06 245.68 240.19 241.34 241.16C239.72 241.53 237.92 242.1 236.84 243.45C236.02 244.49 235.67 245.93 236.06 247.19C237.65 252.32 245.67 248.76 248.46 247.15" stroke="#454545" stroke-width="4" stroke-miterlimit="10" stroke-linecap="round" stroke-linejoin="round"/>
<path d="M354.64 233.93C362.37 241.65 363.13 255.15 376.94 252.26C376.39 254.42 376.35 259.28 372.65 261.12C367.29 263.77 362.56 262.42 362.56 262.42" stroke="#454545" stroke-width="4" stroke-miterlimit="10" stroke-linecap="round" stroke-linejoin="round"/>
<path d="M362.56 262.42C368.76 277.85 370.99 287.8 368.43 299.67C367.2 305.34 362.96 314.39 363.87 321.4C364.77 328.41 368.46 330.17 368.46 330.17" stroke="#454545" stroke-width="4" stroke-miterlimit="10" stroke-linecap="round" stroke-linejoin="round"/>
<path d="M357.3 329.83C358.51 337.84 360.65 341.94 365.7 347.98C368.69 351.55 371.7 359.18 363.62 363.92" stroke="#454545" stroke-width="4" stroke-miterlimit="10" stroke-linecap="round" stroke-linejoin="round"/>
<path d="M353.53 361.35C356.78 368.76 364.35 373.59 372.86 370.59" stroke="#454545" stroke-width="4" stroke-miterlimit="10" stroke-linecap="round" stroke-linejoin="round"/>
<path d="M367.52 371.49C359.66 382.19 343.21 384.15 329.91 371.75" stroke="#454545" stroke-width="4" stroke-miterlimit="10" stroke-linecap="round" stroke-linejoin="round"/>
<path d="M277.6 350.42C279.11 360.44 286.83 363.74 292.7 365.75C294.76 374.94 302.42 379.19 308.22 381.76C315.65 385.05 329.29 385.27 333.85 380.12" stroke="#454545" stroke-width="4" stroke-miterlimit="10" stroke-linecap="round" stroke-linejoin="round"/>
<path d="M278.58 238.38C278.58 238.38 285.13 239.02 289.64 232.49C292.99 235.61 301.9 231.49 304 228.4C305.87 231.34 312.28 231.9 316.38 227.99C316.38 227.99 318.26 231.21 321.89 231.94C326.84 232.94 329.8 230.1 329.8 230.1C329.8 230.1 331.67 232.43 334.24 235.99C338.99 242.58 337.47 247.45 335.66 248.9C333.85 250.35 328.27 252.27 327.15 244.85C326.15 238.24 320.67 236.92 316.81 238.94C314.22 235.57 308.11 235.37 304.42 238.49C300.1 236.1 295.82 239.5 294.36 242.91C292.5 241.82 283.67 243.15 280.81 248.29C279 251.54 276.69 254.85 273.79 257.21C271.35 259.19 266.42 260.79 264.99 256.61C264.14 254.14 266.48 251.6 268.25 250.18C275.73 244.22 277.37 242.3 278.58 238.38Z" fill="#A34949" stroke="black" stroke-width="3.5" stroke-miterlimit="10" stroke-linecap="round" stroke-linejoin="round"/>
<path d="M289.65 232.47C293.05 228.86 291.02 224.65 291.02 224.65" stroke="black" stroke-width="3.5" stroke-miterlimit="10" stroke-linecap="round" stroke-linejoin="round"/>
<path d="M303.96 228.4C306.36 225.45 305.31 220.67 305.31 220.67" stroke="black" stroke-width="3.5" stroke-miterlimit="10" stroke-linecap="round" stroke-linejoin="round"/>
<path d="M316.42 228.01C317.69 225.27 317.74 222.46 317.39 220.91" stroke="black" stroke-width="3.5" stroke-miterlimit="10" stroke-linecap="round" stroke-linejoin="round"/>
<path d="M285.66 260C285.95 260.42 286.24 260.83 286.53 261.25" stroke="black" stroke-width="3.5" stroke-miterlimit="10" stroke-linecap="round" stroke-linejoin="round"/>
<path d="M290.46 256.74C290.67 257.1 290.88 257.47 291.1 257.83" stroke="black" stroke-width="3.5" stroke-miterlimit="10" stroke-linecap="round" stroke-linejoin="round"/>
<path d="M295.77 253.77C295.95 254.29 296.12 254.81 296.3 255.33" stroke="black" stroke-width="3.5" stroke-miterlimit="10" stroke-linecap="round" stroke-linejoin="round"/>
<path d="M301.54 251.98C301.68 252.6 301.83 253.22 301.97 253.84" stroke="black" stroke-width="3.5" stroke-miterlimit="10" stroke-linecap="round" stroke-linejoin="round"/>
<path d="M308.51 250.96C308.42 251.55 308.33 252.15 308.24 252.74" stroke="black" stroke-width="3.5" stroke-miterlimit="10" stroke-linecap="round" stroke-linejoin="round"/>
<path d="M315.06 251.74C314.84 252.49 314.63 253.24 314.41 253.99" stroke="black" stroke-width="3.5" stroke-miterlimit="10" stroke-linecap="round" stroke-linejoin="round"/>
<path d="M294.96 242.25C295.39 243 295.83 243.76 296.26 244.51" stroke="black" stroke-width="3.5" stroke-miterlimit="10" stroke-linecap="round" stroke-linejoin="round"/>
<path d="M305.2 238.44C305.91 239.29 306.32 240.38 306.36 241.49" stroke="black" stroke-width="3.5" stroke-miterlimit="10" stroke-linecap="round" stroke-linejoin="round"/>
<path d="M317.18 239.43C317.31 240.44 317.44 241.45 317.57 242.46" stroke="black" stroke-width="3.5" stroke-miterlimit="10" stroke-linecap="round" stroke-linejoin="round"/>
<path d="M329.81 230.1C333.25 227.28 333.3 224.77 333.3 224.77" stroke="black" stroke-width="3.5" stroke-miterlimit="10" stroke-linecap="round" stroke-linejoin="round"/>
<path d="M278.58 238.38C279.19 236.42 278.89 233 278.89 233" stroke="black" stroke-width="4" stroke-miterlimit="10" stroke-linecap="round" stroke-linejoin="round"/>
<path d="M284.27 270.64C285 271.02 285.73 271.41 286.46 271.79" stroke="black" stroke-width="3.5" stroke-miterlimit="10" stroke-linecap="round" stroke-linejoin="round"/>
<path d="M286.45 276.43C286.71 276.58 286.96 276.72 287.22 276.87" stroke="black" stroke-width="3.5" stroke-miterlimit="10" stroke-linecap="round" stroke-linejoin="round"/>
<path d="M288.71 281.44C292.94 286.8 294.65 294.08 293.23 300.77" stroke="#454545" stroke-width="3.5" stroke-miterlimit="10" stroke-linecap="round" stroke-linejoin="round"/>
<path d="M341.41 258.44C344.47 256.28 345.89 252.05 344.76 248.48" stroke="#454545" stroke-width="3.5" stroke-miterlimit="10" stroke-linecap="round" stroke-linejoin="round"/>
<path d="M335.62 237.62C338.65 238.19 341.92 235.88 342.4 232.83" stroke="black" stroke-width="3.5" stroke-miterlimit="10" stroke-linecap="round" stroke-linejoin="round"/>
<path d="M265.63 269.9C263.12 280.84 263.52 288 264.12 290.34C264.83 293.17 267.1 294.8 267.1 294.8" stroke="#454545" stroke-width="3.5" stroke-miterlimit="10" stroke-linecap="round" stroke-linejoin="round"/>
<path d="M271.88 279.46C270.83 283.78 270.24 288.35 273.58 290.73" stroke="#454545" stroke-width="3.5" stroke-miterlimit="10" stroke-linecap="round" stroke-linejoin="round"/>
<path d="M327.96 261.05C328.39 261.34 328.82 261.63 329.26 261.92" stroke="black" stroke-width="3.5" stroke-miterlimit="10" stroke-linecap="round" stroke-linejoin="round"/>
<path d="M328.12 266.11C328.17 276.72 325.09 283.49 320.48 289.01" stroke="#454545" stroke-width="3.5" stroke-miterlimit="10" stroke-linecap="round" stroke-linejoin="round"/>
<path d="M346.54 263.67C348.2 262.93 349.65 261.74 350.71 260.26" stroke="#454545" stroke-width="3.5" stroke-miterlimit="10" stroke-linecap="round" stroke-linejoin="round"/>
<path d="M350.64 268.98C351.99 268.34 353.16 267.35 354 266.12" stroke="#454545" stroke-width="3.5" stroke-miterlimit="10" stroke-linecap="round" stroke-linejoin="round"/>
<path d="M355.82 272.45C355.25 274.45 354.23 276.32 352.84 277.87" stroke="#454545" stroke-width="3.5" stroke-miterlimit="10" stroke-linecap="round" stroke-linejoin="round"/>
<path d="M357.15 280.09C358.56 283.06 358.65 286.64 357.39 289.68" stroke="#454545" stroke-width="3.5" stroke-miterlimit="10" stroke-linecap="round" stroke-linejoin="round"/>
<path d="M323.47 293.73C324.83 292.7 326.18 291.67 327.54 290.65" stroke="#454545" stroke-width="3.5" stroke-miterlimit="10" stroke-linecap="round" stroke-linejoin="round"/>
<path d="M325.78 299.38C327.03 298.57 328.09 297.29 327.93 296.5" stroke="#454545" stroke-width="3.5" stroke-miterlimit="10" stroke-linecap="round" stroke-linejoin="round"/>
<path d="M327.9 304.54C329.74 310.03 329.8 317.3 328.05 323.12" stroke="#454545" stroke-width="3.5" stroke-miterlimit="10" stroke-linecap="round" stroke-linejoin="round"/>
<path d="M357.34 295.09C358.41 304.37 355.88 315.16 344.98 321.45" stroke="#454545" stroke-width="3.5" stroke-miterlimit="10" stroke-linecap="round" stroke-linejoin="round"/>
<path d="M270.28 300.63L273.81 300.67" stroke="#454545" stroke-width="3.5" stroke-miterlimit="10" stroke-linecap="round" stroke-linejoin="round"/>
<path d="M268.97 307.33C268.84 316.53 268.74 332.76 277.99 333.29" stroke="#454545" stroke-width="3.5" stroke-miterlimit="10" stroke-linecap="round" stroke-linejoin="round"/>
<path d="M253.96 298.43C261.53 313.37 256.37 331.44 264.37 339.19C272.37 346.94 279.66 344.35 279.66 344.35" stroke="#454545" stroke-width="4" stroke-miterlimit="10" stroke-linecap="round" stroke-linejoin="round"/>
<path d="M244.58 248.94C237.73 258.49 237.48 270.45 242.41 286.38C243.46 289.77 244.67 293.24 244.62 296.83C244.59 299.26 243.07 302.77 245.27 304.7C247.51 306.66 250.88 305.38 252.67 302.07C254.69 298.35 254.62 293.23 254.21 289.16" stroke="#454545" stroke-width="4" stroke-miterlimit="10" stroke-linecap="round" stroke-linejoin="round"/>
<path d="M303.1 347.95C305.87 360.34 314.52 370.31 320.73 372.54" stroke="#454545" stroke-width="3.5" stroke-miterlimit="10" stroke-linecap="round" stroke-linejoin="round"/>
<path d="M316.69 351.66C317.64 357.92 320.35 361.83 323.24 365.08" stroke="#454545" stroke-width="3.5" stroke-miterlimit="10" stroke-linecap="round" stroke-linejoin="round"/>
</svg>
