<svg width="90" height="90" viewBox="0 0 90 90" fill="none" xmlns="http://www.w3.org/2000/svg">
<circle cx="45" cy="45" r="44.5" stroke="#4E5D71"/>
<path d="M43.5407 21.7703C39.0632 21.7703 34.9927 27.3088 35.1774 31.3726C35.3263 34.6482 41.1019 35.709 43.6095 35.709C48.2848 35.709 48.9113 31.2293 48.8064 27.3458C48.7484 25.2018 47.33 23.4925 46.0014 21.9424C45.3198 21.1472 42.353 21.719 41.6822 22.3898" stroke="#4E5D71" stroke-linecap="round" stroke-linejoin="round"/>
<path d="M42.9203 28.5848C41.7321 28.5848 41.2625 31.6823 42.9203 31.6823C44.9893 31.6823 44.9006 29.1548 43.471 28.275C41.6032 27.1256 40.9856 29.8238 42.6278 29.8238C43.0519 29.8238 44.9507 29.7011 44.4002 28.7224C44.1563 28.2887 42.5419 29.9406 42.3008 30.1335" stroke="#4E5D71" stroke-linecap="round" stroke-linejoin="round"/>
<path d="M37.0356 27.3455C39.5568 27.3455 42.9549 26.742 45.3817 27.5004C46.5137 27.8542 47.2814 27.965 48.4964 27.965" stroke="#4E5D71" stroke-linecap="round" stroke-linejoin="round"/>
<path d="M48.498 29.2043H54.0735" stroke="#4E5D71" stroke-linecap="round" stroke-linejoin="round"/>
<path d="M54.6929 26.7266C53.5851 27.0958 53.3412 31.3528 53.4711 32.4569C53.6721 34.1652 54.8228 34.7801 56.3793 34.7801C57.4677 34.7801 58.561 34.8103 59.6489 34.7801C61.654 34.7244 61.7023 33.8792 62.8152 32.6807C63.4443 32.0031 63.8396 31.4661 64.1402 30.564C64.6651 28.9894 65.253 27.4493 65.775 25.8834C66.3346 24.2048 65.0568 22.8054 63.6756 22.1148C61.9552 21.2546 59.7218 20.7412 57.8592 21.4609C55.7194 22.2876 55.1016 23.8151 53.7636 25.4876" stroke="#4E5D71" stroke-linecap="round" stroke-linejoin="round"/>
<path d="M34.8672 34.7798C36.1388 36.0514 36.9331 37.3615 38.5842 38.187" stroke="#4E5D71" stroke-linecap="round" stroke-linejoin="round"/>
<path d="M32.3892 36.9482C34.6026 37.7451 35.9677 40.0682 38.2744 40.4931C40.555 40.9132 43.4515 40.4352 45.261 38.8067C45.6978 38.4136 46.6376 37.1177 46.6376 37.7054C46.6376 38.5643 44.2279 39.0231 43.7122 39.0821C41.7343 39.3081 40.0189 39.2552 38.8939 37.5677" stroke="#4E5D71" stroke-linecap="round" stroke-linejoin="round"/>
<path d="M55.312 27.965C57.6182 26.9401 59.8053 28.5845 62.1265 28.5845" stroke="#4E5D71" stroke-linecap="round" stroke-linejoin="round"/>
<path d="M59.0274 30.1331C59.0274 30.9615 59.0916 31.8585 60.0771 30.873C61.0659 29.8842 59.6564 28.7474 59.1994 29.5308C58.2254 31.2006 60.2664 32.5836 60.2664 30.1331" stroke="#4E5D71" stroke-linecap="round" stroke-linejoin="round"/>
<path d="M63.6731 34.1604C63.5103 35.6257 60.3201 37.2579 59.0269 37.2579" stroke="#4E5D71" stroke-linecap="round" stroke-linejoin="round"/>
<path d="M63.6758 37.8774C63.6758 39.774 61.7495 40.1715 60.2686 40.6652" stroke="#4E5D71" stroke-linecap="round" stroke-linejoin="round"/>
<path d="M65.5338 38.4971C66.3283 40.0859 67.0826 40.9512 67.0826 42.7647C67.0826 44.0469 67.2097 45.3273 66.7728 46.5505C66.3276 47.7971 65.7841 48.3767 65.1036 49.4759C63.4271 52.1841 60.6976 53.0553 57.618 53.0553C56.4645 53.0553 55.0749 52.1263 54.0731 51.5754C53.0979 51.039 52.4586 49.5155 51.4403 49.0629C50.6715 48.7213 50.4721 47.7895 49.4097 47.7895C48.2667 47.7895 47.0565 47.7765 46.6392 49.0285" stroke="#4E5D71" stroke-linecap="round" stroke-linejoin="round"/>
<path d="M61.1963 46.5503C61.4817 46.586 61.4014 46.6508 61.506 46.86" stroke="#4E5D71" stroke-linecap="round" stroke-linejoin="round"/>
<path d="M41.0635 23.3191C42.9004 23.3191 45.3922 22.4037 46.7078 21.2197C47.249 20.7326 48.8514 20.443 49.1169 19.9119" stroke="#4E5D71" stroke-linecap="round" stroke-linejoin="round"/>
<path d="M55.6211 18.6729C57.8895 18.7511 59.4612 18.9725 61.2654 20.2216C62.5953 21.1423 64.7957 22.0801 66.4623 22.0801" stroke="#4E5D71" stroke-linecap="round" stroke-linejoin="round"/>
<path d="M64.2941 21.151C64.2941 21.4548 64.1183 20.2051 63.9843 19.912C63.6231 19.1217 63.3646 18.6905 62.7453 18.0535C61.7014 16.9797 60.5594 14.8904 59.1316 14.3193C57.7659 13.773 56.1448 12.2766 54.864 11.9273C53.3639 11.5182 51.6542 11.5744 50.1833 11.0841C47.27 10.113 43.8406 10.7153 40.822 10.6195C39.4202 10.575 38.1444 10 36.7264 10C35.6193 10 34.6196 10.1467 33.5257 10.2925C32.7073 10.4017 32.581 10.7038 32.0286 11.2562C31.0372 12.2475 29.4929 12.6999 28.2944 13.4072C27.0853 14.1208 26.2295 15.0316 25.2657 16.0229C24.5231 16.7867 24.1921 17.9419 23.4072 18.6041C21.9206 19.8585 22.9154 21.5628 22.2887 23.1643C22.0126 23.8699 21.4785 24.7031 21.0669 25.3498C20.5629 26.1418 20.8049 26.8984 20.5507 27.7245C20.0136 29.47 20 30.8849 20 32.7665C20 34.9838 20.3384 37.947 21.0669 40.0284C21.6581 41.7177 21.5458 43.5696 22.1682 45.2425C22.9448 47.3296 23.3675 49.6411 24.2332 51.6612C25.498 54.6124 27.883 57.3603 29.2925 60.1793" stroke="#4E5D71" stroke-linecap="round" stroke-linejoin="round"/>
<path d="M51.595 52.126C53.5778 52.6217 49.3312 55.236 48.7385 55.3955C46.7787 55.9232 44.6447 56.1527 42.6123 56.1527" stroke="#4E5D71" stroke-linecap="round" stroke-linejoin="round"/>
<path d="M41.2888 56.6609C43.2716 57.1566 39.025 59.7709 38.4322 59.9305C36.4725 60.4581 31.7516 59.9305 29.7192 59.9305" stroke="#4E5D71" stroke-linecap="round" stroke-linejoin="round"/>
<path d="M35.8656 11.6817C35.764 12.0373 34.8549 11.4351 34.5536 11.4193C33.8582 11.3827 34.0507 11.9176 33.8976 12.4689C33.3448 14.4588 33.1051 15.3568 31.6672 16.9879C30.1438 18.716 30.3552 20.0123 30.3552 22.1776C30.3552 23.3545 31.0024 26.0912 32.848 24.6558C33.6788 24.0096 33.3708 21.1585 33.7081 20.0201C34.0653 18.8144 34.2586 17.3932 34.9617 16.2882C35.2991 15.758 35.7829 15.7735 35.8801 15.0928C35.9493 14.609 36.5655 13.8497 36.9152 13.5184C37.7881 12.6915 39.0143 13.2689 39.0143 14.3056" stroke="#4E5D71" stroke-linecap="round" stroke-linejoin="round"/>
<path d="M52.9219 12.2066C54.3345 12.2066 55.664 12.0885 56.7267 11.0258C57.4295 10.3229 59.1705 10.6322 60.1378 10.6322C62.3599 10.6322 69.8447 11.0342 69.9778 14.6265C70.0217 15.8114 70.1418 16.8391 68.6512 16.6528C67.6735 16.5306 66.4076 15.6165 65.7065 14.9764C65.2995 14.6048 65.0072 13.9658 64.4528 13.781C63.4595 13.4499 58.957 12.3232 58.957 14.3058" stroke="#4E5D71" stroke-linecap="round" stroke-linejoin="round"/>
<path d="M61.8423 46.8428C60.68 45.6805 59.8257 44.3613 58.4312 43.4316" stroke="#4E5D71" stroke-linecap="round" stroke-linejoin="round"/>
<path d="M29.445 67.915L30.345 68.575C29.535 69.31 28.515 70.15 27.735 70.675L27.045 70.135C27.795 69.565 28.845 68.59 29.445 67.915ZM25.725 60.385L26.97 60.625C26.61 61.345 26.19 62.125 25.845 62.62L24.9 62.38C25.185 61.825 25.545 60.985 25.725 60.385ZM23.685 65.035V66.34H28.74V65.035H23.685ZM23.685 62.86V64.165H28.74V62.86H23.685ZM22.65 61.96H29.82V67.255H22.65V61.96ZM25.68 66.76H26.7V73C26.7 73.57 26.595 73.855 26.22 74.02C25.83 74.185 25.23 74.2 24.285 74.2C24.255 73.915 24.12 73.495 23.985 73.21C24.66 73.225 25.26 73.225 25.44 73.21C25.635 73.21 25.68 73.165 25.68 73V66.76ZM22.08 68.56H24.585V69.505H22.08V68.56ZM24.33 68.56H24.525L24.72 68.53L25.335 68.785C24.795 71.17 23.61 72.745 22.11 73.6C21.975 73.36 21.63 72.985 21.405 72.82C22.815 72.085 23.895 70.705 24.33 68.74V68.56ZM26.565 66.835C26.985 68.95 28.065 71.53 30.69 72.67C30.48 72.88 30.15 73.3 30 73.585C27.435 72.265 26.355 69.55 25.95 67.6L26.565 66.835ZM18.99 60.415L19.98 60.79C19.41 61.9 18.705 63.25 18.12 64.075L17.355 63.745C17.895 62.875 18.6 61.405 18.99 60.415ZM20.67 62.125L21.615 62.56C20.58 64.225 19.125 66.355 18 67.66L17.31 67.27C18.435 65.935 19.845 63.7 20.67 62.125ZM16.59 63.535L17.19 62.815C18 63.55 18.915 64.555 19.305 65.245L18.66 66.085C18.285 65.365 17.385 64.3 16.59 63.535ZM20.085 65.56L20.895 65.215C21.525 66.205 22.14 67.495 22.35 68.32L21.465 68.725C21.27 67.885 20.685 66.55 20.085 65.56ZM16.47 67.045C17.775 66.985 19.65 66.895 21.54 66.79V67.735C19.755 67.855 17.955 67.96 16.59 68.05L16.47 67.045ZM20.475 69.19L21.3 68.935C21.69 69.79 22.005 70.9 22.095 71.62L21.225 71.89C21.15 71.17 20.835 70.045 20.475 69.19ZM17.37 68.98L18.315 69.145C18.12 70.57 17.775 72.01 17.295 72.97C17.115 72.85 16.665 72.655 16.44 72.55C16.92 71.635 17.205 70.285 17.37 68.98ZM18.96 67.48H19.95V74.2H18.96V67.48ZM38.4 65.26H44.565V66.385H38.4V65.26ZM32.115 72.37H45.585V73.495H32.115V72.37ZM37.755 60.625H38.94V72.97H37.755V60.625ZM52.29 63.055L53.505 63.295C52.47 64.75 50.955 66.175 48.75 67.27C48.585 67 48.24 66.625 47.985 66.46C50.07 65.53 51.525 64.225 52.29 63.055ZM52.125 64.18H57.345V65.08H51.315L52.125 64.18ZM57.03 64.18H57.24L57.45 64.135L58.2 64.6C56.19 67.75 51.765 69.655 47.73 70.51C47.625 70.225 47.385 69.775 47.175 69.52C51.03 68.815 55.32 67 57.03 64.36V64.18ZM51.69 64.885C53.445 67.135 57.075 68.59 61.095 69.1C60.84 69.355 60.54 69.835 60.375 70.165C56.34 69.535 52.71 67.93 50.7 65.335L51.69 64.885ZM50.01 69.58H58.35V74.17H57.195V70.54H51.12V74.185H50.01V69.58ZM50.565 72.73H57.765V73.69H50.565V72.73ZM53.535 60.415H54.69V62.365H53.535V60.415ZM47.79 61.765H60.48V64.6H59.34V62.8H48.9V64.6H47.79V61.765ZM64.02 60.955H67.5V62.005H64.02V60.955ZM64.02 64.465H67.53V65.515H64.02V64.465ZM69.87 66.1H75.315V67.15H69.87V66.1ZM63.99 68.065H67.5V69.13H63.99V68.065ZM63.555 60.955H64.59V66.355C64.59 68.695 64.44 72.01 63.375 74.23C63.165 74.05 62.715 73.795 62.445 73.69C63.48 71.575 63.555 68.56 63.555 66.355V60.955ZM66.87 60.955H67.92V72.865C67.92 73.465 67.785 73.81 67.41 74.005C67.02 74.185 66.42 74.215 65.4 74.2C65.355 73.93 65.22 73.42 65.07 73.135C65.775 73.15 66.405 73.15 66.585 73.135C66.795 73.12 66.87 73.06 66.87 72.85V60.955ZM74.535 61H75.615V63.91C75.615 64.465 75.495 64.765 75.015 64.93C74.55 65.095 73.8 65.095 72.66 65.095C72.6 64.78 72.435 64.405 72.3 64.135C73.2 64.15 73.995 64.15 74.235 64.135C74.475 64.135 74.535 64.075 74.535 63.895V61ZM75.015 66.1H75.21L75.39 66.07L76.05 66.295C75.3 70.135 73.38 72.73 71.04 74.125C70.905 73.87 70.605 73.48 70.38 73.285C72.51 72.16 74.37 69.595 75.015 66.31V66.1ZM71.55 66.745C72.405 69.655 74.145 72.22 76.5 73.36C76.245 73.57 75.93 73.96 75.765 74.215C73.335 72.895 71.595 70.18 70.65 66.985L71.55 66.745ZM69.24 61H74.835V62.05H70.305V74.2H69.24V61Z" fill="#4E5D71"/>
</svg>
