<svg width="125" height="90" viewBox="0 0 125 90" fill="none" xmlns="http://www.w3.org/2000/svg">
<circle cx="62" cy="45" r="44.5" stroke="#4E5D71"/>
<path d="M60.5407 21.7703C56.0632 21.7703 51.9927 27.3088 52.1774 31.3726C52.3263 34.6482 58.1019 35.709 60.6095 35.709C65.2848 35.709 65.9113 31.2293 65.8064 27.3458C65.7484 25.2018 64.33 23.4925 63.0014 21.9424C62.3198 21.1472 59.353 21.719 58.6822 22.3898" stroke="#4E5D71" stroke-linecap="round" stroke-linejoin="round"/>
<path d="M59.9203 28.5848C58.7321 28.5848 58.2625 31.6823 59.9203 31.6823C61.9893 31.6823 61.9006 29.1548 60.471 28.275C58.6032 27.1256 57.9856 29.8238 59.6278 29.8238C60.0519 29.8238 61.9507 29.7011 61.4002 28.7224C61.1563 28.2887 59.5419 29.9406 59.3008 30.1335" stroke="#4E5D71" stroke-linecap="round" stroke-linejoin="round"/>
<path d="M54.0356 27.3455C56.5568 27.3455 59.9549 26.742 62.3817 27.5004C63.5137 27.8542 64.2814 27.965 65.4964 27.965" stroke="#4E5D71" stroke-linecap="round" stroke-linejoin="round"/>
<path d="M65.498 29.2043H71.0735" stroke="#4E5D71" stroke-linecap="round" stroke-linejoin="round"/>
<path d="M71.6929 26.7266C70.5851 27.0958 70.3412 31.3528 70.4711 32.4569C70.6721 34.1652 71.8228 34.7801 73.3793 34.7801C74.4677 34.7801 75.561 34.8103 76.6489 34.7801C78.654 34.7244 78.7023 33.8792 79.8152 32.6807C80.4443 32.0031 80.8396 31.4661 81.1402 30.564C81.6651 28.9894 82.253 27.4493 82.775 25.8834C83.3346 24.2048 82.0568 22.8054 80.6756 22.1148C78.9552 21.2546 76.7218 20.7412 74.8592 21.4609C72.7194 22.2876 72.1016 23.8151 70.7636 25.4876" stroke="#4E5D71" stroke-linecap="round" stroke-linejoin="round"/>
<path d="M51.8672 34.7798C53.1388 36.0514 53.9331 37.3615 55.5842 38.187" stroke="#4E5D71" stroke-linecap="round" stroke-linejoin="round"/>
<path d="M49.3892 36.9482C51.6026 37.7451 52.9677 40.0682 55.2744 40.4931C57.555 40.9132 60.4515 40.4352 62.261 38.8067C62.6978 38.4136 63.6376 37.1177 63.6376 37.7054C63.6376 38.5643 61.2279 39.0231 60.7122 39.0821C58.7343 39.3081 57.0189 39.2552 55.8939 37.5677" stroke="#4E5D71" stroke-linecap="round" stroke-linejoin="round"/>
<path d="M72.312 27.965C74.6182 26.9401 76.8053 28.5845 79.1265 28.5845" stroke="#4E5D71" stroke-linecap="round" stroke-linejoin="round"/>
<path d="M76.0274 30.1331C76.0274 30.9615 76.0916 31.8585 77.0771 30.873C78.0659 29.8842 76.6564 28.7474 76.1994 29.5308C75.2254 31.2006 77.2664 32.5836 77.2664 30.1331" stroke="#4E5D71" stroke-linecap="round" stroke-linejoin="round"/>
<path d="M80.6731 34.1604C80.5103 35.6257 77.3201 37.2579 76.0269 37.2579" stroke="#4E5D71" stroke-linecap="round" stroke-linejoin="round"/>
<path d="M80.6758 37.8774C80.6758 39.774 78.7495 40.1715 77.2686 40.6652" stroke="#4E5D71" stroke-linecap="round" stroke-linejoin="round"/>
<path d="M82.5338 38.4971C83.3283 40.0859 84.0826 40.9512 84.0826 42.7647C84.0826 44.0469 84.2097 45.3273 83.7728 46.5505C83.3276 47.7971 82.7841 48.3767 82.1036 49.4759C80.4271 52.1841 77.6976 53.0553 74.618 53.0553C73.4645 53.0553 72.0749 52.1263 71.0731 51.5754C70.0979 51.039 69.4586 49.5155 68.4403 49.0629C67.6715 48.7213 67.4721 47.7895 66.4097 47.7895C65.2667 47.7895 64.0565 47.7765 63.6392 49.0285" stroke="#4E5D71" stroke-linecap="round" stroke-linejoin="round"/>
<path d="M78.1963 46.5503C78.4817 46.586 78.4014 46.6508 78.506 46.86" stroke="#4E5D71" stroke-linecap="round" stroke-linejoin="round"/>
<path d="M58.0635 23.3191C59.9004 23.3191 62.3922 22.4037 63.7078 21.2197C64.249 20.7326 65.8514 20.443 66.1169 19.9119" stroke="#4E5D71" stroke-linecap="round" stroke-linejoin="round"/>
<path d="M72.6211 18.6729C74.8895 18.7511 76.4612 18.9725 78.2654 20.2216C79.5953 21.1423 81.7957 22.0801 83.4623 22.0801" stroke="#4E5D71" stroke-linecap="round" stroke-linejoin="round"/>
<path d="M81.2941 21.151C81.2941 21.4548 81.1183 20.2051 80.9843 19.912C80.6231 19.1217 80.3646 18.6905 79.7453 18.0535C78.7014 16.9797 77.5594 14.8904 76.1316 14.3193C74.7659 13.773 73.1448 12.2766 71.864 11.9273C70.3639 11.5182 68.6542 11.5744 67.1833 11.0841C64.27 10.113 60.8406 10.7153 57.822 10.6195C56.4202 10.575 55.1444 10 53.7264 10C52.6193 10 51.6196 10.1467 50.5257 10.2925C49.7073 10.4017 49.581 10.7038 49.0286 11.2562C48.0372 12.2475 46.4929 12.6999 45.2944 13.4072C44.0853 14.1208 43.2295 15.0316 42.2657 16.0229C41.5231 16.7867 41.1921 17.9419 40.4072 18.6041C38.9206 19.8585 39.9154 21.5628 39.2887 23.1643C39.0126 23.8699 38.4785 24.7031 38.0669 25.3498C37.5629 26.1418 37.8049 26.8984 37.5507 27.7245C37.0136 29.47 37 30.8849 37 32.7665C37 34.9838 37.3384 37.947 38.0669 40.0284C38.6581 41.7177 38.5458 43.5696 39.1682 45.2425C39.9448 47.3296 40.3675 49.6411 41.2332 51.6612C42.498 54.6124 44.883 57.3603 46.2925 60.1793" stroke="#4E5D71" stroke-linecap="round" stroke-linejoin="round"/>
<path d="M68.595 52.126C70.5778 52.6217 66.3312 55.236 65.7385 55.3955C63.7787 55.9232 61.6447 56.1527 59.6123 56.1527" stroke="#4E5D71" stroke-linecap="round" stroke-linejoin="round"/>
<path d="M58.2888 56.6609C60.2716 57.1566 56.025 59.7709 55.4322 59.9305C53.4725 60.4581 48.7516 59.9305 46.7192 59.9305" stroke="#4E5D71" stroke-linecap="round" stroke-linejoin="round"/>
<path d="M52.8656 11.6817C52.764 12.0373 51.8549 11.4351 51.5536 11.4193C50.8582 11.3827 51.0507 11.9176 50.8976 12.4689C50.3448 14.4588 50.1051 15.3568 48.6672 16.9879C47.1438 18.716 47.3552 20.0123 47.3552 22.1776C47.3552 23.3545 48.0024 26.0912 49.848 24.6558C50.6788 24.0096 50.3708 21.1585 50.7081 20.0201C51.0653 18.8144 51.2586 17.3932 51.9617 16.2882C52.2991 15.758 52.7829 15.7735 52.8801 15.0928C52.9493 14.609 53.5655 13.8497 53.9152 13.5184C54.7881 12.6915 56.0143 13.2689 56.0143 14.3056" stroke="#4E5D71" stroke-linecap="round" stroke-linejoin="round"/>
<path d="M69.9219 12.2066C71.3345 12.2066 72.664 12.0885 73.7267 11.0258C74.4295 10.3229 76.1705 10.6322 77.1378 10.6322C79.3599 10.6322 86.8447 11.0342 86.9778 14.6265C87.0217 15.8114 87.1418 16.8391 85.6512 16.6528C84.6735 16.5306 83.4076 15.6165 82.7065 14.9764C82.2995 14.6048 82.0072 13.9658 81.4528 13.781C80.4595 13.4499 75.957 12.3232 75.957 14.3058" stroke="#4E5D71" stroke-linecap="round" stroke-linejoin="round"/>
<path d="M78.8423 46.8428C77.68 45.6805 76.8257 44.3613 75.4312 43.4316" stroke="#4E5D71" stroke-linecap="round" stroke-linejoin="round"/>
<path d="M45.445 67.915L46.345 68.575C45.535 69.31 44.515 70.15 43.735 70.675L43.045 70.135C43.795 69.565 44.845 68.59 45.445 67.915ZM41.725 60.385L42.97 60.625C42.61 61.345 42.19 62.125 41.845 62.62L40.9 62.38C41.185 61.825 41.545 60.985 41.725 60.385ZM39.685 65.035V66.34H44.74V65.035H39.685ZM39.685 62.86V64.165H44.74V62.86H39.685ZM38.65 61.96H45.82V67.255H38.65V61.96ZM41.68 66.76H42.7V73C42.7 73.57 42.595 73.855 42.22 74.02C41.83 74.185 41.23 74.2 40.285 74.2C40.255 73.915 40.12 73.495 39.985 73.21C40.66 73.225 41.26 73.225 41.44 73.21C41.635 73.21 41.68 73.165 41.68 73V66.76ZM38.08 68.56H40.585V69.505H38.08V68.56ZM40.33 68.56H40.525L40.72 68.53L41.335 68.785C40.795 71.17 39.61 72.745 38.11 73.6C37.975 73.36 37.63 72.985 37.405 72.82C38.815 72.085 39.895 70.705 40.33 68.74V68.56ZM42.565 66.835C42.985 68.95 44.065 71.53 46.69 72.67C46.48 72.88 46.15 73.3 46 73.585C43.435 72.265 42.355 69.55 41.95 67.6L42.565 66.835ZM34.99 60.415L35.98 60.79C35.41 61.9 34.705 63.25 34.12 64.075L33.355 63.745C33.895 62.875 34.6 61.405 34.99 60.415ZM36.67 62.125L37.615 62.56C36.58 64.225 35.125 66.355 34 67.66L33.31 67.27C34.435 65.935 35.845 63.7 36.67 62.125ZM32.59 63.535L33.19 62.815C34 63.55 34.915 64.555 35.305 65.245L34.66 66.085C34.285 65.365 33.385 64.3 32.59 63.535ZM36.085 65.56L36.895 65.215C37.525 66.205 38.14 67.495 38.35 68.32L37.465 68.725C37.27 67.885 36.685 66.55 36.085 65.56ZM32.47 67.045C33.775 66.985 35.65 66.895 37.54 66.79V67.735C35.755 67.855 33.955 67.96 32.59 68.05L32.47 67.045ZM36.475 69.19L37.3 68.935C37.69 69.79 38.005 70.9 38.095 71.62L37.225 71.89C37.15 71.17 36.835 70.045 36.475 69.19ZM33.37 68.98L34.315 69.145C34.12 70.57 33.775 72.01 33.295 72.97C33.115 72.85 32.665 72.655 32.44 72.55C32.92 71.635 33.205 70.285 33.37 68.98ZM34.96 67.48H35.95V74.2H34.96V67.48ZM54.4 65.26H60.565V66.385H54.4V65.26ZM48.115 72.37H61.585V73.495H48.115V72.37ZM53.755 60.625H54.94V72.97H53.755V60.625ZM68.29 63.055L69.505 63.295C68.47 64.75 66.955 66.175 64.75 67.27C64.585 67 64.24 66.625 63.985 66.46C66.07 65.53 67.525 64.225 68.29 63.055ZM68.125 64.18H73.345V65.08H67.315L68.125 64.18ZM73.03 64.18H73.24L73.45 64.135L74.2 64.6C72.19 67.75 67.765 69.655 63.73 70.51C63.625 70.225 63.385 69.775 63.175 69.52C67.03 68.815 71.32 67 73.03 64.36V64.18ZM67.69 64.885C69.445 67.135 73.075 68.59 77.095 69.1C76.84 69.355 76.54 69.835 76.375 70.165C72.34 69.535 68.71 67.93 66.7 65.335L67.69 64.885ZM66.01 69.58H74.35V74.17H73.195V70.54H67.12V74.185H66.01V69.58ZM66.565 72.73H73.765V73.69H66.565V72.73ZM69.535 60.415H70.69V62.365H69.535V60.415ZM63.79 61.765H76.48V64.6H75.34V62.8H64.9V64.6H63.79V61.765ZM80.02 60.955H83.5V62.005H80.02V60.955ZM80.02 64.465H83.53V65.515H80.02V64.465ZM85.87 66.1H91.315V67.15H85.87V66.1ZM79.99 68.065H83.5V69.13H79.99V68.065ZM79.555 60.955H80.59V66.355C80.59 68.695 80.44 72.01 79.375 74.23C79.165 74.05 78.715 73.795 78.445 73.69C79.48 71.575 79.555 68.56 79.555 66.355V60.955ZM82.87 60.955H83.92V72.865C83.92 73.465 83.785 73.81 83.41 74.005C83.02 74.185 82.42 74.215 81.4 74.2C81.355 73.93 81.22 73.42 81.07 73.135C81.775 73.15 82.405 73.15 82.585 73.135C82.795 73.12 82.87 73.06 82.87 72.85V60.955ZM90.535 61H91.615V63.91C91.615 64.465 91.495 64.765 91.015 64.93C90.55 65.095 89.8 65.095 88.66 65.095C88.6 64.78 88.435 64.405 88.3 64.135C89.2 64.15 89.995 64.15 90.235 64.135C90.475 64.135 90.535 64.075 90.535 63.895V61ZM91.015 66.1H91.21L91.39 66.07L92.05 66.295C91.3 70.135 89.38 72.73 87.04 74.125C86.905 73.87 86.605 73.48 86.38 73.285C88.51 72.16 90.37 69.595 91.015 66.31V66.1ZM87.55 66.745C88.405 69.655 90.145 72.22 92.5 73.36C92.245 73.57 91.93 73.96 91.765 74.215C89.335 72.895 87.595 70.18 86.65 66.985L87.55 66.745ZM85.24 61H90.835V62.05H86.305V74.2H85.24V61Z" fill="#4E5D71"/>
</svg>
