<svg width="1440" height="73" viewBox="0 0 1440 73" fill="none" xmlns="http://www.w3.org/2000/svg">
<path d="M1020 47.3133C1003.43 30.7469 981.713 22.4599 960 22.4599C938.286 22.4601 916.566 30.7472 900 47.3136C883.433 63.8799 861.713 72.167 840 72.167C818.286 72.167 796.566 63.8799 780 47.3135C763.433 30.7471 741.713 22.4601 720 22.4601C698.286 22.4601 676.566 30.7471 660 47.3135C643.433 63.8798 621.713 72.1669 600 72.1669C578.286 72.1669 556.566 63.8799 540 47.3135C523.433 30.7471 501.713 22.46 480 22.46C458.286 22.46 436.566 30.747 420 47.3134C403.433 63.8798 381.713 72.1668 360 72.1668C338.286 72.1668 316.566 63.8798 300 47.3134C283.433 30.747 261.713 22.46 240 22.46C218.286 22.4599 196.566 30.747 180 47.3134C163.433 63.8797 141.713 72.1668 120 72.1668C98.2867 72.1668 76.5666 63.8797 60 47.3133C43.4333 30.7469 21.7133 22.4599 -1.9635e-06 22.4599L0 0.00012207L1440 0.000247959L1440 22.46C1418.29 22.46 1396.57 30.747 1380 47.3134C1363.43 63.8798 1341.71 72.1668 1320 72.1668C1298.29 72.1668 1276.57 63.8798 1260 47.3134C1243.43 30.747 1221.71 22.4599 1200 22.4599C1178.29 22.4599 1156.57 30.747 1140 47.3134C1123.43 63.8798 1101.71 72.1668 1080 72.1668C1058.29 72.1668 1036.57 63.8797 1020 47.3133Z" fill="#282E36"/>
</svg>
