<svg width="36" height="24" viewBox="0 0 36 24" fill="none" xmlns="http://www.w3.org/2000/svg">
<path d="M2 23.2051V20.4043C2 19.6147 2.2045 18.9357 2.61349 18.3675C3.02249 17.7993 3.57212 17.3451 4.26239 17.0051C5.73819 16.3025 7.20354 15.7423 8.65846 15.3245C10.1134 14.9068 11.8639 14.6979 13.91 14.6979C15.9561 14.6979 17.7066 14.9068 19.1616 15.3245C20.6165 15.7423 22.0818 16.3025 23.5576 17.0051C24.2479 17.3451 24.7975 17.7993 25.2065 18.3675C25.6155 18.9357 25.82 19.6147 25.82 20.4043V23.2051H2ZM29.2229 23.2051V20.3258C29.2229 19.3398 29.0233 18.4091 28.6242 17.5337C28.2251 16.6583 27.659 15.9072 26.926 15.2803C27.7614 15.4505 28.5663 15.6866 29.3407 15.9887C30.1151 16.2909 30.8807 16.6306 31.6376 17.008C32.3749 17.3788 32.953 17.8533 33.3718 18.4316C33.7906 19.0099 34 19.6413 34 20.3258V23.2051H29.2229ZM13.91 10.9025C12.5063 10.9025 11.3047 10.4027 10.3051 9.40309C9.30552 8.4035 8.80572 7.20187 8.80572 5.79818C8.80572 4.39448 9.30552 3.19282 10.3051 2.19323C11.3047 1.19364 12.5063 0.693848 13.91 0.693848C15.3137 0.693848 16.5153 1.19364 17.5149 2.19323C18.5145 3.19282 19.0143 4.39448 19.0143 5.79818C19.0143 7.20187 18.5145 8.4035 17.5149 9.40309C16.5153 10.4027 15.3137 10.9025 13.91 10.9025ZM26.2781 5.79818C26.2781 7.20187 25.7783 8.4035 24.7788 9.40309C23.7792 10.4027 22.5775 10.9025 21.1739 10.9025C21.1019 10.9025 21.0102 10.8943 20.899 10.8779C20.7877 10.8616 20.6961 10.8436 20.6241 10.824C21.2005 10.118 21.6434 9.33485 21.9529 8.47449C22.2624 7.61414 22.4172 6.72067 22.4172 5.7941C22.4172 4.86756 22.2552 3.9822 21.9313 3.13804C21.6074 2.29387 21.1716 1.50532 20.6241 0.772369C20.7157 0.739673 20.8074 0.718405 20.899 0.708565C20.9906 0.698754 21.0822 0.693848 21.1739 0.693848C22.5775 0.693848 23.7792 1.19364 24.7788 2.19323C25.7783 3.19282 26.2781 4.39448 26.2781 5.79818ZM3.70143 21.5037H24.1186V20.4043C24.1186 20.0051 24.0188 19.6561 23.8192 19.3573C23.6196 19.0584 23.2613 18.7727 22.7444 18.5C21.4748 17.8216 20.1366 17.3019 18.7297 16.9409C17.3227 16.5799 15.7161 16.3994 13.91 16.3994C12.1039 16.3994 10.4973 16.5799 9.09037 16.9409C7.68343 17.3019 6.3452 17.8216 5.07568 18.5C4.5587 18.7727 4.2004 19.0584 4.0008 19.3573C3.80122 19.6561 3.70143 20.0051 3.70143 20.4043V21.5037ZM13.91 9.20105C14.8458 9.20105 15.6469 8.86785 16.3133 8.20146C16.9797 7.53506 17.3129 6.73397 17.3129 5.79818C17.3129 4.8624 16.9797 4.06131 16.3133 3.39491C15.6469 2.72852 14.8458 2.39532 13.91 2.39532C12.9742 2.39532 12.1731 2.72852 11.5067 3.39491C10.8404 4.06131 10.5072 4.8624 10.5072 5.79818C10.5072 6.73397 10.8404 7.53506 11.5067 8.20146C12.1731 8.86785 12.9742 9.20105 13.91 9.20105Z" fill="black"/>
</svg>
