<svg width="36" height="30" viewBox="0 0 36 30" fill="none" xmlns="http://www.w3.org/2000/svg">
<path d="M19.0476 13.5521C19.0476 13.2743 18.9373 13.0079 18.7408 12.8114C18.5444 12.615 18.2779 12.5046 18.0001 12.5046C17.7223 12.5046 17.4559 12.615 17.2594 12.8114C17.063 13.0079 16.9526 13.2743 16.9526 13.5521V16.3454C16.9526 16.6233 17.063 16.8897 17.2594 17.0861C17.4559 17.2826 17.7223 17.3929 18.0001 17.3929C18.2779 17.3929 18.5444 17.2826 18.7408 17.0861C18.9373 16.8897 19.0476 16.6233 19.0476 16.3454V13.5521Z" fill="black"/>
<path fill-rule="evenodd" clip-rule="evenodd" d="M20.4094 1.02001L23.8089 1.58706C25.422 1.85521 26.7307 2.07309 27.7531 2.37756C28.8187 2.696 29.6986 3.14014 30.376 3.93902C31.0534 4.73931 31.3481 5.68065 31.4849 6.78401C31.6176 7.84268 31.6176 9.1695 31.6176 10.8064V19.0927C31.6176 20.7282 31.6176 22.0537 31.4849 23.1137C31.3481 24.2171 31.0534 25.1584 30.376 25.9587C29.6986 26.7576 28.8187 27.2017 27.7531 27.5188C26.7307 27.8246 25.422 28.0425 23.8089 28.3107L20.4094 28.8777C18.9667 29.1179 17.7726 29.3177 16.82 29.34C15.82 29.3638 14.894 29.2031 14.1203 28.5481C13.4681 27.9964 13.1454 27.2771 12.975 26.4713H12.3382C10.7572 26.4713 9.46385 26.4713 8.4415 26.3344C7.37585 26.1905 6.45126 25.8805 5.71243 25.1417C4.9736 24.4028 4.66354 23.4796 4.51968 22.4112C4.38281 21.3916 4.38281 20.0983 4.38281 18.5145V11.3832C4.38281 9.80079 4.38281 8.50888 4.51968 7.48653C4.66354 6.42088 4.9736 5.4963 5.71243 4.75746C6.45126 4.01863 7.37445 3.70858 8.44289 3.56472C9.46245 3.42785 10.7558 3.42785 12.3396 3.42785H12.9764C13.144 2.62198 13.4681 1.9027 14.1217 1.35102C14.894 0.694592 15.82 0.535373 16.82 0.559116C17.7726 0.581463 18.9667 0.781185 20.4094 1.02141M12.7627 22.4C12.7627 23.1207 12.7627 23.7799 12.7781 24.3763H12.4136C10.7376 24.3763 9.58675 24.3735 8.72222 24.2576C7.88702 24.1458 7.4792 23.9447 7.19428 23.6598C6.90936 23.3763 6.70824 22.9671 6.59651 22.1319C6.48059 21.2673 6.4778 20.1165 6.4778 18.4405V11.4572C6.4778 9.78124 6.48059 8.63039 6.59651 7.76586C6.70824 6.93066 6.90936 6.52284 7.19428 6.23792C7.4778 5.953 7.88702 5.75188 8.72222 5.64015C9.58675 5.52423 10.7376 5.52143 12.4136 5.52143H12.7781C12.7627 6.11781 12.7627 6.77703 12.7627 7.4977V22.4ZM16.7698 2.65131C16.0114 2.63315 15.6901 2.76583 15.4751 2.9474C15.26 3.12896 15.077 3.42505 14.9709 4.17646C14.8591 4.95439 14.8577 6.01446 14.8577 7.57731V22.3204C14.8577 23.8833 14.8605 24.9433 14.9709 25.7227C15.077 26.4727 15.26 26.7688 15.4751 26.9503C15.6901 27.1319 16.0114 27.2632 16.7698 27.245C17.5561 27.2269 18.6022 27.0551 20.1427 26.7981L23.3969 26.2562C25.0938 25.9727 26.2726 25.7743 27.1553 25.5118C28.01 25.2576 28.4626 24.9755 28.7782 24.6039C29.0938 24.231 29.295 23.7394 29.4067 22.8539C29.5212 21.9405 29.5226 20.745 29.5226 19.0229V10.8748C29.5226 9.15274 29.5212 7.9572 29.4067 7.04379C29.295 6.15831 29.0924 5.66529 28.7782 5.29378C28.4626 4.92227 28.01 4.64014 27.1553 4.38595C26.2726 4.12338 25.0938 3.92506 23.3955 3.64154L20.1427 3.09963C18.6022 2.84265 17.5561 2.67086 16.7698 2.6527" fill="black"/>
</svg>
