<svg width="36" height="30" viewBox="0 0 36 30" fill="none" xmlns="http://www.w3.org/2000/svg">
<path d="M8.25 29.2617C7.33334 29.2617 6.56251 28.9492 5.9375 28.3242C5.3125 27.6992 5 26.9333 5 26.0265V22.7617H9.875V0.636719L11.9375 2.07423L14.0625 0.636719L16.1875 2.07423L18.3125 0.636719L20.4375 2.07423L22.5625 0.636719L24.6875 2.07423L26.8125 0.636719L28.9375 2.07423L31 0.636719V26.0117C31 26.9284 30.6875 27.6992 30.0625 28.3242C29.4375 28.9492 28.6667 29.2617 27.75 29.2617H8.25ZM27.75 27.6367C28.2104 27.6367 28.5964 27.481 28.9078 27.1696C29.2193 26.8581 29.375 26.4722 29.375 26.0117V3.26174H11.5V22.7617H26.125V26.0117C26.125 26.4722 26.2807 26.8581 26.5922 27.1696C26.9036 27.481 27.2896 27.6367 27.75 27.6367ZM13.75 8.94924V7.32424H22.4375V8.94924H13.75ZM13.75 13.8242V12.1992H22.4375V13.8242H13.75ZM25.9375 9.38673C25.6021 9.38673 25.3099 9.26226 25.0609 9.01331C24.812 8.76436 24.6875 8.47217 24.6875 8.13674C24.6875 7.80132 24.812 7.50913 25.0609 7.26018C25.3099 7.01123 25.6021 6.88675 25.9375 6.88675C26.2729 6.88675 26.5651 7.01123 26.8141 7.26018C27.063 7.50913 27.1875 7.80132 27.1875 8.13674C27.1875 8.47217 27.063 8.76436 26.8141 9.01331C26.5651 9.26226 26.2729 9.38673 25.9375 9.38673ZM25.9375 14.2617C25.6021 14.2617 25.3099 14.1373 25.0609 13.8883C24.812 13.6394 24.6875 13.3472 24.6875 13.0117C24.6875 12.6763 24.812 12.3841 25.0609 12.1352C25.3099 11.8862 25.6021 11.7618 25.9375 11.7618C26.2729 11.7618 26.5651 11.8862 26.8141 12.1352C27.063 12.3841 27.1875 12.6763 27.1875 13.0117C27.1875 13.3472 27.063 13.6394 26.8141 13.8883C26.5651 14.1373 26.2729 14.2617 25.9375 14.2617ZM8.25 27.6367H24.5V24.3867H6.625V26.0117C6.625 26.4722 6.78073 26.8581 7.09219 27.1696C7.40365 27.481 7.78958 27.6367 8.25 27.6367Z" fill="black"/>
</svg>
