<svg xmlns="http://www.w3.org/2000/svg" height="40" viewBox="0 -960 960 960" width="40"><path d="M112.796-158.668q-14.52 0-24.323-9.76-9.805-9.76-9.805-24.214 0-6.641 3.334-13.573 3.333-6.932 10.59-12.375l354.281-273.358v-64.667q0-14.109 8.768-24.118 8.768-10.009 22.231-10.009 30.41 0 52.795-20.574 22.385-20.573 22.385-51.385 0-29.401-21.032-50.722-21.033-21.321-50.635-21.321-30.078 0-51.398 20.92-21.321 20.92-21.321 51.03h-66.588q0-57.948 40.487-98.243 40.487-40.295 98.82-40.295 57.666 0 98.294 40.487t40.628 98.153q0 48.846-31.808 84.961-31.808 36.116-79.372 47.654v35.795L868.793-218.59q6.59 5.411 10.257 12.288 3.666 6.878 3.666 13.545 0 14.499-10.137 24.294-10.138 9.795-23.99 9.795H112.796Zm102.818-67.588h529.824L479.667-431.591 215.614-226.256Z"/></svg>