<svg width="62" height="62" viewBox="0 0 62 62" fill="none" xmlns="http://www.w3.org/2000/svg">
<circle cx="31" cy="31" r="30.5" stroke="black"/>
<g clip-path="url(#clip0_2306_2456)">
<path d="M47.1577 18.3839C47.1052 18.2954 47.0249 18.2198 46.9119 18.1651C45.9991 17.7259 44.1128 17.1918 43.3443 18.1377C43.1755 18.075 42.987 18.0798 42.8182 18.1908C42.0251 18.7121 41.5465 19.4376 41.1942 20.2983C41.0991 20.5316 41.0336 20.7472 40.9812 20.9708C40.6354 20.3192 40.2044 19.7272 39.544 19.3331C39.4587 19.2816 39.3702 19.2558 39.2834 19.2478C39.2801 19.2462 39.2768 19.243 39.2736 19.2414C38.9114 19.0145 38.5509 18.91 38.1297 18.8939C38.0822 18.8697 38.0297 18.8504 37.9707 18.836C36.6925 18.5351 35.393 18.7619 34.3409 19.5519C34.2327 19.6323 34.1622 19.7304 34.1164 19.8334C33.9951 19.9315 33.8804 20.0345 33.7673 20.1423C33.02 20.4447 32.4088 21.5017 32.2088 22.1597C32.1515 22.3511 32.181 22.5152 32.2629 22.6455C32.2514 22.6954 32.2432 22.7485 32.24 22.8048C32.2334 22.9254 32.2269 23.0461 32.2219 23.1684C32.1826 23.2327 32.1547 23.3019 32.1416 23.3791C31.9925 24.2881 31.8991 25.2179 32.1105 26.1108C31.922 26.3087 31.8303 26.5918 31.9138 26.8653C32.004 27.1613 32.1318 27.4525 32.3022 27.7115C32.3285 27.7518 32.358 27.7888 32.3907 27.8242C32.3989 27.8338 32.4104 27.8435 32.4186 27.8531C32.4383 27.8724 32.4563 27.8917 32.4776 27.9078C32.494 27.9223 32.5104 27.9352 32.5284 27.9464C32.5546 27.9657 32.5825 27.9834 32.612 27.9995C32.6185 28.0027 32.6234 28.0059 32.6284 28.0092C32.6972 28.0446 32.7709 28.0719 32.8479 28.0864C32.8922 28.2054 32.943 28.3213 33.002 28.4355C33.02 29.3509 34.3065 30.2405 34.998 30.6427C35.3897 30.8696 35.9043 31.2862 36.3959 31.2428C36.5794 31.3216 36.74 31.3522 36.9727 31.3635C37.0055 31.3828 37.0383 31.4021 37.076 31.4181C37.5889 31.6418 38.1297 31.2943 38.6049 31.1028C39.2375 30.979 39.8488 30.7312 40.3076 30.3371C40.4125 30.3113 40.5157 30.255 40.6092 30.1553C41.381 29.3348 42.0316 28.5095 42.1824 27.4043C42.7461 28.059 43.4672 28.5626 44.3128 28.8457C44.847 29.0259 45.9319 29.2527 46.4317 28.8184C47.4789 28.6704 48.4294 28.051 48.9783 27.1565C49.5126 26.283 49.706 25.3981 49.7191 24.4747C50.1828 22.52 49.1291 19.4038 47.1577 18.3839ZM39.793 29.1257C39.6882 29.1691 39.5898 29.2383 39.5079 29.3428C39.2572 29.6614 38.7492 29.7145 38.3755 29.7885C38.0133 29.8609 37.6692 29.9075 37.3103 29.8946C37.253 29.8319 37.1923 29.7724 37.1235 29.7225C36.8826 29.5488 36.6188 29.4764 36.3434 29.367C35.6568 29.0903 35.1127 28.6173 34.7178 28.0043C34.6637 27.9207 34.5932 27.8579 34.5129 27.8097C34.4982 27.7759 34.4818 27.7405 34.4621 27.7051C34.2507 27.3367 34.2802 26.8557 34.2262 26.4438C34.1721 26.032 34.0951 25.6282 33.9951 25.226C34.0328 25.152 34.0606 25.0683 34.0721 24.975C34.1622 24.2318 34.2606 23.4933 34.4228 22.7614C34.4687 22.5554 34.4195 22.3801 34.3196 22.2465C34.6637 21.6915 35.1553 21.2298 35.7551 20.8678C35.8748 20.7954 35.9616 20.7086 36.0239 20.612C36.0681 20.6072 36.1157 20.5992 36.1632 20.5847C36.4565 20.4994 36.7499 20.4286 37.0465 20.3659C37.2513 20.3466 37.4529 20.3418 37.6528 20.3498C37.7003 20.4672 37.7938 20.5734 37.9527 20.6458C38.2739 20.7922 38.6639 20.8469 38.9524 21.0303C39.2998 21.2507 39.5833 21.6417 39.8127 21.9682C39.8455 22.0149 39.8815 22.0535 39.9176 22.0889C39.8586 22.3302 39.9291 22.5973 40.2142 22.7597C40.2142 22.7597 40.2158 22.7597 40.2158 22.7614C40.2224 22.7742 40.2273 22.7871 40.2339 22.8C40.2453 22.845 40.2617 22.8917 40.283 22.9383C40.3879 23.1716 40.4928 23.4049 40.5993 23.6381C40.5633 23.7781 40.5846 23.9358 40.6927 24.0982C40.9156 24.428 40.8501 24.9847 40.8664 25.3708C40.8877 25.8486 40.9058 26.3296 40.9041 26.809C40.9025 27.792 40.4273 28.4387 39.793 29.1257ZM48.3212 23.1459C48.4867 24.2591 48.5113 25.2453 47.9754 26.2717C47.5936 27.0053 46.943 27.4557 46.1646 27.541C46.1646 27.541 46.1646 27.541 46.1629 27.541C45.5861 27.3142 45.0895 27.2547 44.5586 26.8959C43.926 26.468 43.613 26.0931 43.3705 25.3708C43.1132 24.6034 42.928 23.8183 42.792 23.0204C42.7674 22.8804 42.7068 22.7742 42.6248 22.6986C42.7723 21.6159 43.1542 20.4608 43.849 19.6114C44.0211 19.5856 44.1604 19.4875 44.2521 19.3556C44.38 19.2655 44.5881 19.1963 44.8093 19.14C44.9175 19.2896 45.0895 19.391 45.3157 19.3829C45.6156 19.3733 45.9155 19.3685 46.217 19.3652C47.3969 19.65 48.1917 21.2668 48.4375 22.6584C48.3425 22.7903 48.2933 22.9544 48.3212 23.1459Z" fill="#BB8DF5"/>
<path d="M52.1937 28.6254C52.043 28.1428 51.848 27.4398 51.2678 27.3143C51.2646 27.3143 51.2613 27.3127 51.258 27.3127C50.9384 26.9072 50.5337 26.5646 50.0715 26.3184C49.8749 26.2139 49.6274 26.2718 49.5111 26.4632C49.2341 26.9153 48.8916 27.3159 48.5229 27.6988C48.1722 28.0623 47.8133 28.5031 47.3643 28.7509C46.9399 28.9842 46.3925 29.174 45.9058 29.2126C45.7157 29.2271 45.5289 29.2191 45.3437 29.1981C45.3289 29.1821 45.3126 29.166 45.2945 29.1515C44.9176 28.8426 44.4211 28.7155 43.9475 28.8796C43.8967 28.8973 43.8491 28.923 43.8082 28.9552C43.7656 28.8008 43.641 28.6753 43.4296 28.6801C43.4116 28.6801 43.3952 28.6817 43.3772 28.6817C43.287 28.59 43.2002 28.4919 43.115 28.3986C43.0461 28.323 42.9495 28.2876 42.8478 28.2844C42.6364 27.9771 42.1415 28.0897 42.1006 28.4999C42.0399 29.1 41.5188 29.5826 41.114 29.9864C40.624 30.4771 40.0947 30.8986 39.4867 31.2381C39.4589 31.2397 39.4294 31.2445 39.3982 31.2525C36.7057 31.9813 33.4413 30.7023 32.4531 28.0334C32.1467 27.2049 32.0631 26.3072 31.6977 25.4996C31.7616 25.4336 31.8025 25.3467 31.8025 25.239C31.8025 25.1601 31.7714 25.0749 31.7206 25.0041C31.7845 24.5954 31.8484 24.1868 31.9123 23.7798C31.9894 23.2827 32.068 22.8033 32.2368 22.3271C32.54 21.4728 32.9333 20.6781 33.4692 19.9477C33.497 19.93 33.5233 19.9075 33.5478 19.8801C33.7199 19.6887 33.8936 19.4989 34.0804 19.3235C34.1329 19.3187 34.1853 19.3026 34.2361 19.2736C34.3394 19.2157 34.4393 19.1514 34.536 19.0838C34.6524 19.0323 34.7654 18.9744 34.8752 18.9117C35.0227 18.9824 35.2095 18.9647 35.3472 18.8409C35.6504 18.5722 36.1223 18.5722 36.5075 18.5577C37.0499 18.5368 37.6038 18.5352 38.1397 18.6349C38.6313 18.725 39.0951 18.8923 39.5228 19.1481C39.88 19.3621 40.2963 19.6501 40.4569 20.0491C40.6191 20.4512 41.1616 20.3869 41.2468 20.0426C41.2582 20.0185 41.2664 19.9944 41.273 19.967C41.4254 19.2575 41.8859 18.68 42.548 18.3615C42.8364 18.2231 42.7905 17.8177 42.548 17.6665C42.1071 17.393 41.6335 17.1758 41.1403 17.0101C41.0681 16.986 41.0026 16.986 40.9403 17.0004C40.8092 16.9136 40.6765 16.8331 40.5306 16.7672C40.0275 16.5355 39.4818 16.4197 38.9263 16.439C38.8788 16.4406 38.8329 16.4518 38.7903 16.4695C38.0758 16.2121 37.3268 16.0497 36.5632 16.0239C36.2436 16.0126 35.9273 16.0336 35.611 16.0738C35.8257 15.9644 35.988 15.7971 36.0322 15.5332C36.0797 15.2533 36.0535 14.9557 36.0535 14.6725L36.0584 13.6445C36.0617 13.0107 36.0633 12.3784 36.0666 11.7446C36.0666 11.6159 36.0289 11.4148 36.0683 11.2925C36.0732 11.2764 35.9519 11.3858 36.101 11.2555C36.1355 11.2266 36.1682 11.1976 36.2026 11.167C36.4255 10.9756 36.6451 10.7809 36.8598 10.583C37.6595 9.84301 38.4051 9.03219 38.9918 8.11519C39.2852 7.65669 39.5425 7.16763 39.7293 6.65765C39.8227 6.40507 39.8653 6.11871 39.7489 5.86613C39.7424 5.81304 39.7244 5.75995 39.6883 5.71008C39.5293 5.49451 39.2819 5.3465 39.0164 5.35937C38.2314 5.25319 37.4006 5.94174 36.8811 6.43564C36.5107 6.78796 36.1355 7.14671 35.8093 7.54086C35.4718 7.94627 35.1719 8.38064 35.1391 8.91475C34.9064 9.37486 34.7228 9.86393 34.5721 10.3594C34.4115 10.6345 34.2968 10.9354 34.2099 11.2459C34.0591 11.7864 33.9477 12.3398 33.8772 12.8949C33.7445 13.947 33.9805 14.9814 33.9837 16.0303C33.3463 16.2331 32.7039 16.4293 32.0516 16.5789C31.9812 16.5886 31.9107 16.5982 31.8402 16.6127C31.7616 16.6288 31.6846 16.6497 31.6092 16.6755C31.3126 16.7318 31.0143 16.7768 30.7128 16.8026C30.4293 16.8267 30.1294 16.8138 29.8442 16.8605C29.2756 15.8566 28.8692 14.7755 28.3906 13.7282C28.1317 13.1603 27.8482 12.6004 27.5041 12.076C27.4713 12.0261 27.4385 11.9779 27.4041 11.9296C27.6679 11.669 27.8941 11.3553 28.1055 11.0818C28.5086 10.5589 28.8642 10.0007 29.1658 9.41669C29.4821 8.80696 29.7197 8.16346 30.0278 7.55051C30.3277 6.94883 30.6276 6.32624 30.5931 5.63929C30.5915 5.59747 30.5817 5.55886 30.5686 5.52346C30.5899 5.28697 30.5554 5.05531 30.4407 4.8333C30.4358 4.82365 30.4309 4.81399 30.426 4.80434C30.426 4.80273 30.4243 4.80273 30.4243 4.80112C30.4063 4.76734 30.3883 4.73356 30.367 4.70138C30.3653 4.70138 30.3653 4.70299 30.3637 4.70299C30.344 4.67564 30.3244 4.64668 30.3031 4.61933C30.1933 4.47937 30.036 4.46489 29.8967 4.51959C29.682 4.47776 29.4378 4.51959 29.2428 4.57429C28.6299 4.74643 28.1628 5.19206 27.763 5.6586C27.3582 6.12997 26.996 6.63512 26.6896 7.17245C26.3864 7.70496 26.0341 8.30664 26.1062 8.93406C25.7833 9.7674 25.6277 10.6619 25.6604 11.5564C25.6604 11.566 25.6637 11.5741 25.6637 11.5821C25.6637 11.706 25.667 11.8315 25.6719 11.9553C25.6949 12.4798 25.7555 13.0026 25.8489 13.5191C25.9407 14.0242 26.0669 14.5245 26.2291 15.0136C26.3061 15.2469 26.3979 15.5525 26.5601 15.7746C26.6716 16.18 26.8027 16.5886 26.996 16.9618C27.1026 17.1661 27.2517 17.3415 27.3811 17.5313C27.4434 17.623 27.5139 17.7276 27.5467 17.837C27.4664 17.8531 27.3877 17.8692 27.3123 17.8853C26.9452 17.9625 26.588 18.0767 26.2422 18.2183C25.508 18.5175 24.8394 18.9245 24.2232 19.4168C23.0122 20.3869 22.0896 21.6739 21.3308 23.0028C21.0834 23.4355 20.8883 23.8763 20.7835 24.3638C20.7359 24.581 20.6917 24.7981 20.6491 25.0169C20.5327 25.2003 20.4639 25.4014 20.4492 25.6122C20.3394 25.6315 20.2361 25.6894 20.1657 25.7908C20.128 25.8471 20.0903 25.9018 20.0509 25.9581C19.9264 26.1399 19.9821 26.3168 20.1083 26.4278C20.1099 26.5034 20.1099 26.5791 20.1116 26.6531C20.1132 26.9233 20.3705 27.0971 20.6294 27.0408C22.0306 26.7335 23.4497 26.5195 24.8706 26.3184C25.5621 26.2203 26.2537 26.1222 26.9469 26.0256C27.2861 25.9774 27.6253 25.9275 27.9678 25.913C28.312 25.8985 28.6578 25.9211 29.0019 25.9066C29.6361 25.8809 30.2703 25.7924 30.9029 25.7103C30.9111 25.7393 30.9209 25.7666 30.934 25.794C31.0389 26.0031 31.0405 26.2428 31.0405 26.4697C31.0405 26.6434 31.0356 26.8155 31.029 26.9893C30.9733 27.007 30.9225 27.0376 30.8832 27.0842C30.7062 27.295 30.4325 27.2708 30.1753 27.2869C29.8278 27.3078 29.4804 27.3304 29.133 27.3545C28.4382 27.4027 27.7433 27.4607 27.0501 27.5266C25.6506 27.6585 24.2298 27.7824 22.8483 28.0446C22.0945 28.1878 21.3718 28.4645 20.6098 28.5707C20.3852 28.6013 20.2771 28.8764 20.323 29.0662C20.5163 29.8449 20.6589 30.6605 20.9441 31.4134C21.1997 32.0891 21.5914 32.694 22.0732 33.2362C22.3927 33.5949 22.7483 33.9118 23.1253 34.2062C23.3039 34.4411 23.512 34.6551 23.7398 34.8417C24.0823 35.1232 24.4559 35.3629 24.8411 35.5833C25.0131 35.6815 25.1852 35.7812 25.3605 35.8745C28.5365 37.1133 31.8484 37.4061 35.4029 37.1809C35.6078 37.0699 35.8241 36.9958 36.0633 36.954C36.1715 36.9347 36.2764 36.9138 36.3796 36.8865C36.3862 36.8961 36.3944 36.9058 36.4009 36.9138C36.5943 37.1374 36.8467 37.3031 37.122 37.435C37.3629 37.6571 37.6693 37.8051 37.9905 37.8935C38.138 37.9692 38.2904 38.0399 38.4461 38.1043C38.4953 38.1236 38.5477 38.1268 38.6002 38.1188C38.646 38.1622 38.7018 38.196 38.769 38.2105C38.905 38.2394 39.0394 38.2555 39.1737 38.2684C39.6277 38.3247 40.0865 38.3488 40.5421 38.3199C40.6077 38.315 40.6716 38.3086 40.7355 38.299C41.4713 38.4614 42.3021 38.2298 42.8134 37.6796C42.8577 37.6587 42.9003 37.6345 42.9413 37.6088C43.3411 37.3514 43.5951 36.9572 43.8065 36.547C43.9442 36.5213 44.0589 36.4151 44.1081 36.288C44.7406 36.3668 45.3748 36.3395 46.0041 36.2494C46.5679 36.2204 47.1726 36.2092 47.6953 36.0081C47.792 35.9711 47.874 35.9083 47.928 35.8295C48.6474 35.6316 49.3603 35.3823 49.988 34.9961C51.6136 33.9987 52.5199 32.1438 52.4658 30.2841C52.4527 29.7194 52.3593 29.1579 52.1937 28.6254Z" fill="#DAED95"/>
<path d="M27.8233 36.267C27.8299 36.2702 27.8381 36.2751 27.8447 36.2799C27.8578 36.2863 27.8676 36.2928 27.8741 36.2976C27.8807 36.3249 27.8709 36.3603 27.8692 36.3877C27.8627 36.4906 27.8496 36.5904 27.861 36.6949C27.8643 36.7287 27.8741 36.7609 27.8856 36.7915C27.5071 37.3674 27.2137 38.5708 27.3317 39.2497C27.4186 40.4675 27.866 41.1738 28.7624 42.0184C28.4248 42.1503 28.8771 42.5042 28.746 42.752C28.5493 43.1236 28.4281 43.5226 28.3559 43.9344C28.2248 44.6841 28.1675 45.4483 28.0954 46.2076C27.6595 46.1899 27.2219 46.1803 26.786 46.206C26.2239 46.2398 25.7044 46.3572 25.1653 46.5101C24.9211 46.5792 24.4999 45.8955 24.3967 45.8505C23.615 45.503 22.7874 45.4483 21.9238 45.3759C21.5092 45.3405 21.1011 45.3952 20.6996 45.4997C20.3964 45.5786 20.1883 45.5866 19.8704 45.5738C19.2952 44.0889 18.4266 42.5702 16.8846 41.9395C17.586 40.5994 17.4319 39.0341 16.9305 37.6312C17.3746 37.6473 17.8236 37.628 18.248 37.4993C18.8232 37.3256 19.3198 36.9475 19.5721 36.4005C19.8262 35.8536 19.836 35.2374 19.5754 34.6904C19.3247 34.1643 18.8298 33.7654 18.2644 33.6109C18.1956 33.5916 18.1251 33.5965 18.0612 33.6174C17.586 33.4436 17.0763 33.3664 16.5683 33.405C15.5981 33.479 14.6362 33.9375 14.0184 34.692C13.925 34.8062 13.5677 34.6727 13.5235 34.795C13.4972 34.8095 13.471 34.8256 13.4464 34.8449C12.9106 35.2631 12.7286 35.9469 12.396 36.5437C12.083 37.1052 11.8421 37.7181 11.6569 38.3327C11.2833 39.5779 11.1849 40.926 11.5782 42.1776C11.5799 42.1809 11.5815 42.1825 11.5815 42.1857C11.5455 43.6368 11.8339 45.0782 12.4369 46.4167C12.4451 46.4361 12.4566 46.4521 12.4664 46.4682C12.4927 46.5664 12.5205 46.6629 12.5533 46.7578C12.8237 47.5606 13.2318 48.3087 13.6693 49.0326C14.1183 49.7743 14.5968 50.4998 15.1016 51.2061C15.2261 51.3798 15.3523 51.5552 15.4801 51.7257C15.6047 51.8914 15.7325 52.0635 15.9161 52.1713C16.0324 52.2405 16.1668 52.2775 16.3012 52.2839C17.4319 53.5323 18.8445 54.5217 20.385 55.2264C20.4587 55.2602 20.5341 55.2923 20.6095 55.3245C21.1699 55.6784 21.7828 55.9407 22.417 56.1659C23.338 56.4925 24.2852 56.737 25.257 56.8512C25.788 56.914 26.3255 56.9317 26.8597 56.8898C27.0417 56.8754 27.2449 56.8641 27.4464 56.8303C27.4694 56.8303 27.4907 56.8319 27.5136 56.8319C28.6542 56.8174 29.8095 56.4828 30.5814 55.6414C30.8796 55.4596 31.1664 55.2585 31.4401 55.0414C31.8203 54.7389 32.2677 54.3609 32.4774 53.8991C32.4791 53.8991 32.4807 53.8991 32.4824 53.8991C32.7823 53.9184 32.9396 53.5195 32.7675 53.3152C32.7708 53.3135 32.7724 53.3119 32.7757 53.3103C33.4591 52.8985 33.7803 52.2228 33.8884 51.4618C33.9425 51.0838 33.9884 50.7106 34.1179 50.347C34.2424 49.9963 34.4276 49.6697 34.6242 49.3544C34.8242 49.0342 35.0405 48.7269 35.2502 48.4132C35.3666 48.2379 35.4535 48.0577 35.4174 47.8437C35.383 47.6442 35.2814 47.4496 35.2207 47.2549C34.9503 46.391 34.8946 45.4676 35.0651 44.5779C35.0667 44.5715 35.0651 44.5651 35.0667 44.5586C35.324 44.4943 35.4682 44.0872 35.1732 43.8942C34.6341 43.537 34.2604 42.974 34.0966 42.3562C33.9949 41.9717 33.9753 41.5679 34.0244 41.1754C34.072 40.7957 34.2096 40.4514 34.3276 40.0895C34.3883 39.9028 34.4112 39.721 34.4046 39.5425C34.4686 39.5006 34.5259 39.4395 34.5751 39.3542C34.6439 39.2352 34.6636 39.1033 34.7455 38.9907C34.7783 38.9456 34.816 38.9086 34.8553 38.8748C35.011 38.9858 35.2519 38.9939 35.3879 38.7896C35.6911 38.3327 36.0057 37.8404 36.4695 37.5235C36.5219 37.4865 36.3417 36.5695 36.3957 36.5405C33.2821 36.7368 30.6109 37.3626 27.8233 36.267Z" fill="#DAED95"/>
<path d="M44.7569 46.5536C44.7209 45.8586 44.6094 45.1668 44.4259 44.496C44.4226 44.4847 44.4177 44.4751 44.4144 44.4654C44.4259 44.4123 44.4243 44.3576 44.4062 44.3062C44.3013 44.0053 44.1244 43.764 43.913 43.5291C43.8245 43.431 43.7327 43.2942 43.6295 43.2122C43.636 43.1881 43.6426 43.1639 43.6491 43.1398C43.6704 43.0545 43.6884 42.9693 43.7032 42.884C43.8327 42.1713 43.8081 41.4458 43.6262 40.7443C43.6049 40.6623 43.5524 40.5947 43.4852 40.5497C43.4099 40.1957 43.2427 39.8676 43.01 39.5892C42.9936 39.549 42.9756 39.5072 42.9592 39.4654C42.8773 39.2691 42.7855 39.0889 42.6642 38.9152C42.6052 38.8299 42.5446 38.7462 42.4889 38.6594C42.4561 38.6079 42.425 38.5548 42.3922 38.5017C42.3889 38.4953 42.3709 38.4631 42.3545 38.4357C42.3332 38.3087 42.2136 38.1735 42.0956 38.1526C42.0923 38.1526 42.089 38.151 42.0857 38.151C41.9137 38.1204 41.7154 38.1928 41.6564 38.373C41.168 38.2202 40.6469 38.2523 40.1389 38.1848C39.5653 38.1076 38.2887 38.0866 37.7495 37.8711C37.507 37.7745 37.2743 37.6507 37.0563 37.5075C36.8318 37.3611 36.3582 37.1182 36.3582 37.1182C36.3582 37.1182 35.9207 37.2211 35.552 37.6233C35.1259 38.0899 34.8801 38.6722 34.6687 39.261C34.4278 39.6665 34.2917 40.1217 34.2016 40.5835C34.1082 41.0645 34.0115 41.5696 34.0492 42.0619C34.0885 42.5606 34.2688 43.0014 34.6064 43.3698C34.7686 43.5468 34.9587 43.6948 35.1488 43.8396C35.2308 43.9007 35.3274 43.9603 35.4127 44.0278C34.9341 45.0896 34.9325 46.3139 35.4209 47.366C35.411 47.3982 35.4028 47.432 35.3996 47.4674C35.3619 47.8792 35.1226 48.246 34.9079 48.5871C34.6523 48.9909 34.4196 49.3931 34.2377 49.8371C34.0607 50.2699 33.9312 50.7203 33.8591 51.1836C33.8411 51.3027 33.8132 51.4378 33.7985 51.5714C33.7591 51.5987 33.728 51.6357 33.7051 51.6808C33.1462 52.8214 32.576 54.028 31.6615 54.9273C31.2404 55.3423 30.7651 55.6914 30.2735 56.018C30.0178 56.1869 29.7573 56.3735 29.4721 56.4926C29.2001 56.6052 28.9035 56.5779 28.6314 56.6808C28.266 56.8192 28.3053 57.3758 28.7265 57.3871C28.756 57.3871 28.792 57.3871 28.8215 57.3999C28.8887 57.4289 28.9608 57.4434 29.028 57.4402C29.8425 57.5914 30.6684 57.6766 31.4976 57.6766C31.8778 57.6766 32.258 57.6606 32.6399 57.6429C32.6513 57.6461 32.6612 57.6509 32.6743 57.6525C32.7071 57.6589 32.7382 57.6606 32.7693 57.6638V57.6654C32.7792 57.667 32.789 57.6654 32.7988 57.667C32.8365 57.6702 32.8759 57.6734 32.9135 57.6734C33.2937 57.696 33.6723 57.6654 34.0459 57.5849C34.0771 57.5785 34.1033 57.5672 34.1279 57.556C34.6179 57.5576 35.1095 57.5302 35.5962 57.4691C35.9158 57.4289 36.2353 57.3839 36.5434 57.2922C36.8466 57.2021 37.1285 57.0573 37.4136 56.9221C37.6758 56.7983 37.9511 56.7355 38.2313 56.6663C38.5362 56.5907 38.8262 56.4813 39.0966 56.3205C39.5948 56.0244 40.0864 55.6415 40.4797 55.212C40.6993 54.9723 40.8976 54.7036 41.0386 54.4092C41.1123 54.2548 41.1779 54.0923 41.2221 53.9266C41.2401 53.859 41.2549 53.7899 41.2663 53.7191C41.2713 53.6901 41.2811 53.6563 41.286 53.6242C41.3417 53.5984 41.3942 53.5582 41.4319 53.5099C42.0382 53.259 42.5708 52.8745 43.046 52.4176C43.305 52.1682 43.5721 51.9028 43.7622 51.5939C43.9588 51.2737 44.0817 50.9005 44.2227 50.5514C44.2325 50.5385 44.244 50.5273 44.2522 50.5128C44.3833 50.3036 44.421 50.0704 44.4456 49.8275C44.4685 49.5877 44.4898 49.3464 44.4882 49.1067C44.4849 48.7399 44.4226 48.3619 44.2555 48.0321C44.3915 47.8857 44.5177 47.7296 44.6062 47.551C44.7651 47.2325 44.775 46.9011 44.7569 46.5536Z" fill="#FBECA9"/>
<path d="M37.4413 31.7142C33.6984 31.7142 31.9449 28.5208 31.5811 25.6861C31.196 22.6906 32.625 19.169 35.6813 18.4627C37.1496 18.1233 38.5852 18.3324 39.7274 19.0483C40.8319 19.7417 41.5956 20.8646 41.8758 22.2112C41.9119 22.3849 41.7972 22.5555 41.6202 22.5909C41.4432 22.6262 41.2695 22.5136 41.2334 22.3399C40.9892 21.1671 40.3288 20.1906 39.3751 19.5905C38.3852 18.9679 37.1267 18.7909 35.8337 19.0902C33.7147 19.5792 31.7892 22.15 32.2333 25.6057C32.7839 29.8882 35.5223 31.2283 37.8985 31.0546C40.8024 30.8422 41.9643 28.2907 41.9365 27.311C41.9315 27.134 42.0741 26.986 42.256 26.9812C42.2593 26.9812 42.2626 26.9812 42.2658 26.9812C42.4428 26.9812 42.5887 27.1195 42.5936 27.2949C42.6264 28.4886 41.3367 31.4487 37.9493 31.6981C37.774 31.7078 37.6052 31.7142 37.4413 31.7142Z" fill="black"/>
<path d="M45.386 29.3943C43.5505 29.3943 42.487 28.4596 41.9904 27.8563C41.8774 27.7179 41.8987 27.5152 42.0396 27.4042C42.1805 27.2932 42.387 27.3141 42.5001 27.4525C42.9737 28.0284 44.0618 28.9583 46.0382 28.7089C47.0231 28.5835 47.8703 28.0831 48.4914 27.261C49.3862 26.0738 49.7123 24.3057 49.3862 22.4122C49.0879 20.6892 48.321 19.3218 47.2247 18.5608C46.4053 17.9929 45.4482 17.7822 44.4535 17.9527C41.8905 18.3919 41.389 20.5589 41.3415 20.8034C41.3071 20.9772 41.135 21.0914 40.9564 21.0576C40.7794 21.0238 40.663 20.8549 40.6974 20.6796C40.9564 19.3716 42.0674 17.7066 44.3404 17.3172C45.5105 17.1177 46.638 17.3639 47.6016 18.0331C48.8421 18.8938 49.7041 20.4093 50.0319 22.3028C50.394 24.399 50.0335 26.2942 49.0175 27.6407C48.2882 28.6076 47.2869 29.1964 46.1218 29.3444C45.8645 29.3798 45.6187 29.3943 45.386 29.3943Z" fill="black"/>
<path d="M36.935 20.4512C38.8475 20.2533 40.56 22.5426 40.8435 24.5166C41.1434 26.5967 40.6747 29.2592 38.5247 29.6759C35.783 30.2084 34.3212 27.7985 34.0197 25.6379C33.7181 23.4789 34.6817 20.6845 36.935 20.4512Z" fill="white"/>
<path d="M37.7675 30.0732C37.0268 30.0732 36.35 29.8609 35.7486 29.4394C34.6883 28.6961 33.9197 27.2917 33.6952 25.6829C33.4772 24.1224 33.8902 22.4219 34.744 21.3521C35.311 20.641 36.0567 20.2195 36.9006 20.1327C38.9556 19.9203 40.8484 22.2482 41.168 24.4715C41.34 25.6652 41.2466 26.8879 40.9123 27.8258C40.483 29.0308 39.68 29.7805 38.5885 29.9912C38.3067 30.0459 38.033 30.0732 37.7675 30.0732ZM36.9694 20.7713C36.2975 20.8405 35.7223 21.1687 35.2602 21.7479C34.5097 22.689 34.1491 24.198 34.3441 25.5944C34.5441 27.0311 35.211 28.273 36.1288 28.9149C36.7941 29.3815 37.5791 29.5311 38.4607 29.359C39.4538 29.1659 41.0057 27.9384 40.519 24.56C40.1863 22.2546 38.3395 20.6282 36.9694 20.7713Z" fill="black"/>
<path d="M44.8354 19.3025C46.7135 18.8826 47.9425 20.9306 48.249 22.6986C48.5653 24.5262 48.4112 27.06 46.3857 27.4059C44.7551 27.6842 43.2213 25.8791 42.8968 23.7202C42.6247 21.9103 43.1115 19.687 44.8354 19.3025Z" fill="white"/>
<path d="M46.0499 27.7566C45.5255 27.7566 44.9995 27.5781 44.5111 27.2322C43.5311 26.5356 42.7871 25.2083 42.5708 23.7685C42.2611 21.706 42.915 19.4023 44.7618 18.9888C45.4436 18.836 46.0876 18.955 46.6776 19.3428C47.7772 20.0651 48.377 21.5226 48.5703 22.6456C48.9538 24.8592 48.5949 27.3544 46.4399 27.7244C46.3105 27.7454 46.181 27.7566 46.0499 27.7566ZM45.3207 19.5696C45.1846 19.5696 45.047 19.5857 44.9077 19.6162C43.4492 19.9412 42.9543 21.9039 43.2198 23.6736C43.4115 24.9493 44.0539 26.1125 44.8946 26.7093C45.3584 27.0375 45.8533 27.1694 46.3269 27.089C48.4966 26.7174 48.0377 23.4113 47.923 22.7533C47.7084 21.5082 47.0758 20.3788 46.3121 19.8785C46.0024 19.6725 45.6697 19.5696 45.3207 19.5696Z" fill="black"/>
<path d="M45.0747 36.7417C44.9207 36.7417 44.765 36.7385 44.6077 36.7337C40.6976 36.5937 36.9087 34.9399 36.3597 33.9344C36.2745 33.7784 36.3335 33.5821 36.4941 33.4984C36.6531 33.4148 36.853 33.4727 36.9382 33.6303C37.2889 34.2739 40.7369 35.9518 44.6322 36.0902C47.7394 36.1979 50.3532 35.1571 51.4544 33.3649C52.9703 30.8954 52.1722 28.9134 51.7593 28.175C51.1906 27.1583 50.2614 26.4633 49.4502 26.4456C49.27 26.4407 49.1257 26.2943 49.1307 26.1174C49.1356 25.9404 49.2863 25.794 49.4666 25.8037C50.5203 25.8278 51.6478 26.637 52.3361 27.8661C53.3259 29.6325 53.2096 31.7577 52.0182 33.6979C50.8481 35.5947 48.2162 36.7417 45.0747 36.7417Z" fill="black"/>
<path d="M35.8633 35.033C35.8306 35.033 35.7962 35.0282 35.7617 35.0169C35.5913 34.9622 35.4963 34.7837 35.5503 34.6147C35.5651 34.5713 35.9141 33.5304 37.294 33.0044C37.4628 32.94 37.6529 33.0221 37.7184 33.1878C37.784 33.3535 37.7004 33.5401 37.5316 33.6044C36.4566 34.0147 36.1862 34.7804 36.1747 34.8126C36.1288 34.9478 35.9994 35.033 35.8633 35.033Z" fill="black"/>
<path d="M49.4978 31.1817C49.4306 31.1817 49.3634 31.1607 49.3044 31.1189C49.1766 31.0272 48.7554 30.8792 48.4949 30.8052C48.3211 30.7553 48.2228 30.5752 48.2736 30.4046C48.3244 30.2341 48.508 30.1376 48.68 30.1874C48.8029 30.2228 49.4273 30.4095 49.6912 30.5993C49.837 30.7039 49.8681 30.9066 49.7616 31.0497C49.6977 31.1366 49.5977 31.1817 49.4978 31.1817Z" fill="black"/>
<path d="M50.822 30.4514C50.645 30.4514 50.4992 30.3082 50.4943 30.1329C50.491 30.0026 50.5598 29.6889 50.6221 29.5537C50.6958 29.3912 50.8908 29.3205 51.0547 29.3928C51.2202 29.4652 51.294 29.6567 51.2186 29.8176C51.1973 29.8674 51.1514 30.0653 51.1498 30.1248C51.1547 30.3018 51.0105 30.4466 50.8302 30.4498C50.8269 30.4514 50.8253 30.4514 50.822 30.4514Z" fill="black"/>
<path d="M40.1223 38.6353C40.1206 38.6353 40.1206 38.6353 40.1206 38.6353C38.8129 38.6353 36.694 37.9692 36.0024 37.2501C35.6566 37.3434 35.2633 37.4448 35.0257 37.493C34.8487 37.5284 34.675 37.4158 34.639 37.2421C34.6029 37.0683 34.7176 36.8978 34.8946 36.8624C35.1044 36.8206 35.5108 36.7176 36.0401 36.5728C36.1909 36.5326 36.3498 36.6002 36.4203 36.7369C36.6464 37.1729 38.6851 37.9917 40.119 37.9917H40.1206C42.2461 37.9917 43.4293 37.4271 43.6358 36.3154C43.6686 36.14 43.839 36.0242 44.0176 36.0564C44.1962 36.0886 44.3142 36.2559 44.2815 36.4312C44.0094 37.8936 42.6099 38.6353 40.1223 38.6353Z" fill="black"/>
<path d="M43.0098 18.3406C42.9196 18.3406 42.8311 18.3052 42.7656 18.2344C41.9446 17.3383 39.4651 16.5581 36.9988 16.4229C34.244 16.2701 31.0632 16.8863 30.0488 17.2338C29.8783 17.2917 29.6915 17.2032 29.6309 17.0359C29.5719 16.8686 29.662 16.6852 29.8324 16.6256C30.9222 16.2508 34.1539 15.6202 37.0348 15.7794C39.6995 15.9274 42.3149 16.7785 43.2523 17.8033C43.3736 17.9352 43.3621 18.1395 43.2277 18.2585C43.1655 18.3132 43.0868 18.3406 43.0098 18.3406Z" fill="black"/>
<path d="M28.9839 37.1615C27.3304 37.1615 24.474 36.1302 22.6173 34.4732C20.8884 32.932 20.0002 30.958 19.8199 28.2601C19.4905 23.3341 22.3813 18.992 27.0141 17.4556C27.1862 17.3977 27.3714 17.4894 27.4303 17.6567C27.4877 17.8256 27.3959 18.0074 27.2255 18.0637C22.8778 19.5052 20.1657 23.585 20.4754 28.2151C20.6442 30.736 21.4652 32.5716 23.0597 33.9938C24.3511 35.1457 27.4058 36.6949 29.2592 36.5003C29.4395 36.4842 29.6001 36.6097 29.6197 36.7866C29.6394 36.9636 29.5083 37.1212 29.328 37.1405C29.2199 37.1566 29.1052 37.1615 28.9839 37.1615Z" fill="black"/>
<path d="M40.201 24.6003C40.3157 25.5591 40.0633 26.3957 39.2505 26.5099C38.5753 26.6048 37.9083 26.0466 37.7641 24.9896C37.633 24.0276 37.9542 23.2168 38.7998 23.1122C39.4766 23.0269 40.083 23.6141 40.201 24.6003Z" fill="#282E36"/>
<path d="M39.1065 26.8397C38.8016 26.8397 38.5001 26.7384 38.2428 26.5469C37.8151 26.23 37.5316 25.6911 37.4415 25.0299C37.3464 24.3365 37.4693 23.73 37.7889 23.3246C38.0232 23.0253 38.3608 22.8403 38.7607 22.7905C39.1228 22.7454 39.4735 22.8435 39.7734 23.0736C40.1831 23.3889 40.4519 23.9166 40.5289 24.5601C40.6813 25.8294 40.211 26.6982 39.2998 26.8253C39.2343 26.8365 39.1704 26.8397 39.1065 26.8397ZM38.9278 23.4243C38.8983 23.4243 38.8705 23.4259 38.841 23.4291C38.6115 23.4581 38.4362 23.5514 38.3067 23.7171C38.0986 23.9826 38.02 24.4298 38.0904 24.9446C38.1576 25.4337 38.351 25.8214 38.6378 26.0353C38.8115 26.164 39.0081 26.2187 39.2048 26.1898C39.9652 26.0836 39.9275 25.0685 39.875 24.6373C39.8193 24.1724 39.6341 23.7863 39.367 23.582C39.231 23.4774 39.0835 23.4243 38.9278 23.4243Z" fill="black"/>
<path d="M36.9089 41.2318C36.8171 41.7579 36.4877 42.1761 35.8978 42.1633C35.4225 42.152 35.1325 41.6935 35.2062 41.1079C35.2751 40.5738 35.6012 40.0638 36.1944 40.104C36.632 40.1346 37.0318 40.5271 36.9089 41.2318Z" fill="#BB8DF5"/>
<path d="M35.924 42.485C35.9125 42.485 35.9011 42.485 35.8912 42.485C35.6077 42.4786 35.3488 42.3595 35.1636 42.1488C34.9309 41.8833 34.8277 41.4892 34.8818 41.0677C34.9866 40.252 35.5242 39.7356 36.2174 39.7839C36.5238 39.8048 36.809 39.9544 36.9991 40.1925C37.158 40.3904 37.3268 40.7427 37.2318 41.2881C37.1023 42.0281 36.6025 42.485 35.924 42.485ZM36.1305 40.4226C35.6389 40.4226 35.5405 41.0709 35.5307 41.1465C35.4996 41.3846 35.5487 41.6018 35.6585 41.7273C35.7241 41.8013 35.8044 41.8383 35.9044 41.8415C35.9109 41.8415 35.9158 41.8415 35.9224 41.8415C36.3976 41.8415 36.5402 41.4264 36.5844 41.1771C36.6271 40.9293 36.5926 40.725 36.4828 40.5883C36.4058 40.4917 36.2944 40.4338 36.1698 40.4258C36.1584 40.4242 36.1436 40.4226 36.1305 40.4226Z" fill="black"/>
<path d="M38.2102 45.9261C38.3675 46.4377 38.2642 46.9557 37.7316 47.2035C37.3023 47.403 36.832 47.1198 36.632 46.5632C36.4501 46.0564 36.5091 45.4547 37.0581 45.2311C37.4612 45.067 37.9988 45.2424 38.2102 45.9261Z" fill="#BB8DF5"/>
<path d="M37.4496 47.5881C37.3218 47.5881 37.1923 47.5623 37.0694 47.5125C36.74 47.3773 36.468 47.0701 36.3238 46.6695C36.0452 45.8941 36.2893 45.1958 36.9334 44.9336C37.2169 44.8178 37.5397 44.8258 37.8183 44.9545C38.051 45.0623 38.3624 45.302 38.5263 45.8313C38.7524 46.5649 38.5033 47.2004 37.874 47.4932C37.7364 47.5575 37.5922 47.5881 37.4496 47.5881ZM37.3496 45.4951C37.2939 45.4951 37.2365 45.5063 37.1825 45.5289C36.6941 45.7283 36.9137 46.3815 36.9399 46.4555C37.0219 46.6807 37.1628 46.8545 37.3201 46.9188C37.4119 46.9558 37.5004 46.9542 37.5905 46.9124C38.033 46.7065 37.9724 46.2641 37.8953 46.0195C37.8216 45.7782 37.697 45.6125 37.5348 45.5369C37.4774 45.5096 37.4135 45.4951 37.3496 45.4951Z" fill="black"/>
<path d="M36.7105 51.6936C36.4794 52.1762 35.9321 52.4513 35.3536 52.2534C34.9046 52.1006 34.8357 51.5987 35.0389 51.0437C35.2241 50.5385 35.6584 50.109 36.227 50.2763C36.6466 50.4001 37.0808 50.9214 36.7105 51.6936Z" fill="#BB8DF5"/>
<path d="M35.7304 52.6395C35.5698 52.6395 35.4076 52.6137 35.2454 52.5574C35.0012 52.4738 34.816 52.3129 34.7079 52.0909C34.5587 51.782 34.5653 51.383 34.7308 50.9342C35.0143 50.1604 35.6534 49.7726 36.3204 49.9689C36.6465 50.0654 36.9267 50.31 37.0693 50.6237C37.184 50.8763 37.266 51.2897 37.007 51.8319C36.7629 52.3419 36.268 52.6395 35.7304 52.6395ZM35.9845 50.5625C35.578 50.5625 35.3716 51.0854 35.3486 51.153C35.2486 51.4232 35.2323 51.671 35.3011 51.8142C35.3339 51.8817 35.383 51.9236 35.4617 51.9509C35.9123 52.1054 36.2712 51.856 36.4138 51.5584C36.5351 51.3042 36.5547 51.0725 36.4712 50.8875C36.3925 50.717 36.245 50.6205 36.1319 50.5867C36.0811 50.569 36.0303 50.5625 35.9845 50.5625Z" fill="black"/>
<path d="M47.7934 23.1491C47.8885 23.9373 47.6803 24.6275 47.0117 24.7208C46.4562 24.798 45.9072 24.3395 45.7876 23.4676C45.6794 22.6761 45.9432 22.0084 46.6397 21.9216C47.1985 21.854 47.6967 22.3366 47.7934 23.1491Z" fill="#282E36"/>
<path d="M46.8921 25.0507C46.6283 25.0507 46.3677 24.9638 46.1465 24.7981C45.7827 24.5278 45.5402 24.0709 45.4631 23.5111C45.3828 22.9239 45.4894 22.4107 45.7597 22.0648C45.963 21.8058 46.253 21.6465 46.5988 21.6031C46.9134 21.5645 47.2166 21.6497 47.4755 21.8476C47.8246 22.1163 48.054 22.5651 48.1196 23.1105C48.249 24.19 47.8426 24.9284 47.0577 25.0394C47.0036 25.0474 46.9479 25.0507 46.8921 25.0507ZM46.7446 22.2385C46.7233 22.2385 46.702 22.2401 46.6807 22.2417C46.507 22.2627 46.3759 22.3334 46.2792 22.4573C46.117 22.6632 46.0564 23.0156 46.1121 23.4258C46.1645 23.8135 46.3169 24.1192 46.5414 24.2849C46.6725 24.3814 46.8184 24.4216 46.9659 24.4023C47.5427 24.3219 47.5099 23.5255 47.469 23.1861C47.4247 22.8177 47.2805 22.5152 47.0724 22.3544C46.9708 22.2771 46.861 22.2385 46.7446 22.2385Z" fill="black"/>
<path d="M31.2779 43.5516C29.8522 43.5516 28.4494 42.6266 27.5825 41.1063C26.673 39.5104 26.6271 37.7005 27.4661 36.4988C27.5677 36.3524 27.7726 36.3154 27.9217 36.4151C28.0708 36.5148 28.1102 36.7159 28.0069 36.8623C27.3072 37.8646 27.3662 39.409 28.1544 40.7926C28.7624 41.8608 29.9358 42.9805 31.4025 42.9065C31.5827 42.9017 31.7368 43.0352 31.7466 43.2122C31.7564 43.3891 31.6155 43.5403 31.4352 43.55C31.3828 43.5516 31.3303 43.5516 31.2779 43.5516Z" fill="black"/>
<path d="M17.9989 30.9437C17.9808 30.9437 17.9628 30.9437 17.9448 30.942C17.5842 30.9131 17.3155 30.6026 17.345 30.2487C17.5203 28.1299 19.5688 27.311 21.2567 26.9957C22.5268 26.7592 28.1887 25.9935 30.5371 25.7827C30.8173 25.8487 30.9959 26.0884 31.0222 26.3619C31.0418 26.5726 31.0435 26.9024 30.7419 27.0601C28.4214 27.2676 22.7496 28.027 21.5009 28.2602C19.672 28.6013 18.7396 29.285 18.6511 30.3532C18.6232 30.6879 18.3364 30.9437 17.9989 30.9437Z" fill="#BB8DF5"/>
<path d="M17.9991 31.2655C17.9729 31.2655 17.9467 31.2639 17.9188 31.2623C17.378 31.2188 16.9732 30.7523 17.0175 30.2214C17.1699 28.3842 18.6136 27.1599 21.1947 26.6789C22.4697 26.4408 28.1513 25.6734 30.5062 25.4627C30.5422 25.4594 30.5783 25.4627 30.6127 25.4707C31.0175 25.5656 31.3059 25.9051 31.3469 26.3314C31.3944 26.8221 31.242 27.1631 30.8946 27.3433C30.8569 27.3626 30.8143 27.3755 30.77 27.3803C28.4626 27.5862 22.763 28.352 21.5601 28.5756C19.8968 28.8861 19.0512 29.4749 18.9758 30.3775C18.9365 30.8746 18.5071 31.2655 17.9991 31.2655ZM30.5029 26.1094C28.125 26.3266 22.5713 27.0779 21.3176 27.3111C19.7411 27.6039 17.8303 28.3568 17.6713 30.2729C17.6566 30.4498 17.791 30.6059 17.9712 30.6204C17.9794 30.6204 17.9893 30.622 17.9991 30.622C18.1679 30.622 18.3121 30.4917 18.3252 30.326C18.4268 29.0937 19.4461 28.315 21.4405 27.9434C22.6712 27.7133 28.2103 26.9685 30.6324 26.7465C30.675 26.7062 30.7176 26.6194 30.6963 26.3909C30.6848 26.288 30.6291 26.1593 30.5029 26.1094Z" fill="black"/>
<path d="M28.2576 47.3805C28.1134 47.3805 27.9823 47.2872 27.9414 47.1457C27.4514 45.4178 27.63 43.7528 28.474 42.1987C28.5592 42.041 28.7575 41.9815 28.9181 42.0668C29.0787 42.1504 29.1377 42.3451 29.0524 42.5028C28.2904 43.9056 28.1282 45.4114 28.5723 46.9735C28.6214 47.1441 28.5182 47.3226 28.3445 47.3693C28.3166 47.3757 28.2871 47.3805 28.2576 47.3805Z" fill="black"/>
<path d="M23.7071 47.979C23.6629 47.979 23.617 47.9694 23.5744 47.9517C23.4089 47.8793 23.3335 47.6894 23.4072 47.5269C24.3102 45.524 27.2272 45.5626 28.0318 45.849C28.2023 45.9101 28.2908 46.0935 28.2285 46.2608C28.1662 46.4282 27.9777 46.5134 27.809 46.4539C27.1666 46.2255 24.7264 46.1949 24.0086 47.7876C23.9529 47.9066 23.8333 47.979 23.7071 47.979Z" fill="black"/>
<path d="M17.5025 47.5654C17.4418 47.5654 17.3812 47.5493 17.3255 47.5139C17.1731 47.4174 17.1288 47.2195 17.2272 47.0699C18.1023 45.7314 20.4326 44.853 21.6043 44.853C21.6092 44.853 21.6142 44.853 21.6207 44.853C22.894 44.8611 24.9146 45.3952 25.2375 46.3395C25.2948 46.5084 25.2031 46.6902 25.031 46.7465C24.8589 46.8029 24.6737 46.7128 24.6164 46.5438C24.4607 46.0902 23.0169 45.5062 21.6158 45.4965C21.6109 45.4965 21.6076 45.4965 21.6027 45.4965C20.5866 45.4965 18.4989 46.3154 17.7778 47.4174C17.7172 47.5139 17.6106 47.5654 17.5025 47.5654Z" fill="black"/>
<path d="M19.8703 45.894C19.7064 45.894 19.5655 45.775 19.5458 45.6109C19.4917 45.1765 19.282 44.9223 19.0149 44.599C18.869 44.422 18.7035 44.2209 18.5544 43.9748C17.8857 42.8631 17.2237 42.5526 16.8697 42.3869C16.7976 42.3531 16.7353 42.3242 16.6878 42.2968C16.5305 42.2084 16.4764 42.0121 16.5665 41.8576C16.6567 41.7032 16.8566 41.6501 17.0139 41.7386C17.0516 41.7595 17.0975 41.7804 17.1532 41.8062C17.5416 41.988 18.3495 42.3676 19.1197 43.6482C19.2426 43.8541 19.3869 44.0279 19.5245 44.1952C19.8162 44.5507 20.1194 44.9159 20.1964 45.5337C20.2177 45.7106 20.0899 45.8699 19.9113 45.8924C19.8982 45.8924 19.8834 45.894 19.8703 45.894Z" fill="black"/>
<path d="M15.2477 42.6861C14.9855 42.6861 14.7478 42.6459 14.5561 42.5655C14.3906 42.4947 14.3136 42.3065 14.384 42.1424C14.4561 41.9799 14.6479 41.9043 14.815 41.9734C15.0543 42.0748 15.559 42.0828 16.1457 41.8737C16.6537 41.6919 16.87 41.2994 17.0028 40.318C17.147 39.2611 16.9651 38.3843 16.5062 37.9113C16.3817 37.7826 16.3866 37.5783 16.5177 37.456C16.6488 37.3337 16.8553 37.3386 16.9815 37.4673C17.7992 38.3087 17.7533 39.6681 17.6534 40.4033C17.5419 41.2254 17.342 42.1311 16.3702 42.4786C15.9851 42.6169 15.5951 42.6861 15.2477 42.6861Z" fill="black"/>
<path d="M32.1971 58C30.5239 58 28.7573 57.7861 27.4807 57.1216C27.3201 57.038 27.2595 56.8433 27.3447 56.6873C27.4299 56.5296 27.6282 56.4701 27.7872 56.5537C30.3109 57.8665 35.1289 57.2536 36.5038 56.8948C39.1389 56.2079 40.6286 55.13 41.0579 53.6016C41.1055 53.4311 41.2857 53.3282 41.4611 53.3764C41.6348 53.4231 41.738 53.6016 41.6905 53.7722C41.194 55.5402 39.5519 56.7645 36.6726 57.5158C35.8762 57.7233 34.0981 58 32.1971 58Z" fill="black"/>
<path d="M43.4573 44.1614C43.3672 44.1614 43.277 44.126 43.2131 44.0536C43.0918 43.9217 43.1033 43.7173 43.2393 43.5999C43.7375 43.1607 43.7473 41.9203 43.4442 41.0371C43.1557 40.199 42.2462 38.9763 41.8054 38.6208C41.6661 38.5081 41.6448 38.3054 41.7595 38.1687C41.8742 38.0319 42.0807 38.011 42.22 38.1236C42.787 38.5805 43.749 39.919 44.0636 40.8312C44.3602 41.6935 44.5176 43.3393 43.6752 44.0793C43.6146 44.134 43.5359 44.1614 43.4573 44.1614Z" fill="black"/>
<path d="M34.5048 43.8493C34.4327 43.8493 34.3606 43.8268 34.3016 43.7785C33.8313 43.4101 33.5707 42.8744 33.5248 42.1842C33.4232 40.6269 34.4852 38.6369 35.257 37.8566C35.3832 37.7295 35.5913 37.7263 35.7208 37.8502C35.8503 37.9741 35.8535 38.1784 35.7274 38.3055C35.0227 39.0166 34.0935 40.8216 34.1787 42.144C34.2115 42.6443 34.3901 43.0256 34.7097 43.275C34.8506 43.386 34.8752 43.5887 34.7621 43.727C34.6982 43.8075 34.6015 43.8493 34.5048 43.8493Z" fill="black"/>
<path d="M36.3254 48.7157C36.2795 48.7157 36.2336 48.706 36.191 48.6867C35.4994 48.3795 34.9914 47.8453 34.721 47.1407C34.3752 46.2382 34.4588 45.112 34.9504 44.0519C35.0258 43.891 35.2192 43.8186 35.3847 43.8926C35.5502 43.9666 35.6223 44.1564 35.5469 44.3189C35.1274 45.2247 35.0504 46.1722 35.3339 46.9155C35.542 47.4576 35.9304 47.8679 36.4597 48.1027C36.6253 48.1751 36.6974 48.3666 36.6236 48.5291C36.5695 48.6465 36.4499 48.7157 36.3254 48.7157Z" fill="black"/>
<path d="M33.8459 52.7746C33.7115 52.7746 33.587 52.6942 33.5378 52.5639C33.0363 51.2141 33.9114 49.6552 34.7325 48.4471C34.8324 48.299 35.0356 48.2588 35.1864 48.3586C35.3372 48.4567 35.3781 48.6562 35.2782 48.8042C34.6014 49.8016 33.7492 51.2528 34.154 52.3435C34.2163 52.5108 34.1294 52.6958 33.959 52.757C33.9213 52.7682 33.8836 52.7746 33.8459 52.7746Z" fill="black"/>
<path d="M40.6237 44.7469C39.3963 44.7469 37.887 44.5474 36.8234 43.9007C36.6694 43.8074 36.6219 43.6095 36.7169 43.4583C36.812 43.3071 37.0135 43.2604 37.1676 43.3537C38.7179 44.2965 41.7414 44.171 42.3543 43.9184C42.5214 43.8492 42.7132 43.9264 42.7836 44.0905C42.8541 44.2546 42.7754 44.4429 42.6083 44.512C42.315 44.6327 41.548 44.7469 40.6237 44.7469Z" fill="black"/>
<path d="M40.9617 49.4172C39.6392 49.4172 38.2053 49.1936 37.3826 48.9298C37.2105 48.8751 37.1171 48.6933 37.1728 48.5243C37.2286 48.3554 37.4137 48.2621 37.5858 48.3184C39.7392 49.0086 42.5152 48.8397 43.1855 48.3635C43.3313 48.2589 43.5378 48.2911 43.6427 48.4359C43.7492 48.5807 43.7164 48.7817 43.569 48.8847C43.0232 49.2708 42.0285 49.4172 40.9617 49.4172Z" fill="black"/>
<path d="M44.1898 48.4695C44.1177 48.4695 44.0456 48.447 43.9849 48.3987C43.844 48.2877 43.8211 48.085 43.9341 47.9466C44.9043 46.761 44.5241 44.5956 43.5326 43.6544C43.4032 43.5305 43.3983 43.3278 43.5245 43.1991C43.6506 43.072 43.8588 43.0688 43.9882 43.1911C45.3418 44.4749 45.5647 46.9814 44.4454 48.3488C44.3799 48.4293 44.2848 48.4695 44.1898 48.4695Z" fill="black"/>
<path d="M38.228 54.6972C36.2861 54.6972 34.2818 54.0682 33.8771 53.4569C33.7787 53.3073 33.8214 53.1094 33.9738 53.0112C34.1245 52.9147 34.3277 52.9565 34.4277 53.1045C34.7096 53.5293 37.6118 54.4398 39.7996 53.8735C41.7399 53.3716 43.0443 52.5527 43.6802 51.4395C44.1866 50.5514 44.2538 49.4752 43.8768 48.2396C43.8244 48.0691 43.9227 47.8905 44.0964 47.839C44.2701 47.7876 44.452 47.8841 44.5045 48.0546C44.9338 49.4639 44.8503 50.7075 44.2521 51.7532C43.5261 53.0241 42.084 53.9475 39.9667 54.4945C39.4243 54.6377 38.8294 54.6972 38.228 54.6972Z" fill="black"/>
<path d="M26.5534 57.2308C23.9969 57.2308 21.2209 56.1723 19.4231 55.1282C16.4717 53.4148 14.5806 51.5889 13.1008 49.0261C11.6685 46.5438 10.9622 43.693 11.0031 40.5527C11.0326 38.2425 11.5915 36.5984 12.814 35.218C14.7051 33.0864 16.5258 32.9818 17.4419 33.1089C18.612 33.2714 20.0344 33.8007 20.1606 35.3966C20.2524 36.5646 19.5428 37.8114 17.75 37.9658C16.8028 38.0479 16.1292 37.8982 15.69 37.5105C15.5556 37.3915 15.5442 37.1888 15.6654 37.0568C15.7867 36.9249 15.9932 36.9137 16.1276 37.0327C16.4193 37.2901 16.9453 37.3883 17.691 37.3255C19.1298 37.2016 19.5674 36.2364 19.5051 35.4481C19.4297 34.4941 18.7234 33.9374 17.3485 33.7476C16.5635 33.6382 14.9936 33.7396 13.3073 35.6411C12.5567 36.4873 11.6914 37.8098 11.657 40.5608C11.6193 43.5869 12.2961 46.3282 13.6711 48.7092C15.0902 51.169 16.9109 52.9225 19.7575 54.5748C21.801 55.7604 25.1474 56.9702 27.8612 56.4763C30.1177 56.0661 31.7237 54.8161 32.6333 52.7601C32.7054 52.5976 32.8987 52.522 33.0643 52.5927C33.2298 52.6635 33.3068 52.8534 33.2347 53.0159C32.2334 55.2794 30.4652 56.6565 27.9808 57.1086C27.517 57.1922 27.0401 57.2308 26.5534 57.2308Z" fill="black"/>
<path d="M27.5499 18.4773C27.4434 18.4773 27.3385 18.4258 27.2746 18.3309C26.5273 17.2063 25.8652 15.5332 25.5047 13.8569C25.2081 12.4766 24.9786 10.4801 25.5735 8.81177C27.0877 4.56784 29.0788 3.81171 30.0162 4.03212C30.3882 4.1206 30.675 4.32813 30.8504 4.63219C31.1257 5.11482 31.1158 5.81463 30.8192 6.71394C30.0867 8.93887 28.0481 12.1323 26.9681 12.3511C26.7911 12.3881 26.6174 12.2755 26.5814 12.1001C26.5453 11.9247 26.6584 11.7558 26.837 11.7204C27.4532 11.5966 29.4213 8.87291 30.1965 6.51606C30.4276 5.81463 30.457 5.25639 30.2801 4.9459C30.1948 4.79789 30.0588 4.70297 29.8638 4.65632C29.5639 4.58553 29.0166 4.71745 28.3742 5.29822C27.8006 5.81624 26.9566 6.88447 26.1946 9.02252C25.2228 11.7446 26.542 16.0448 27.8252 17.9769C27.9235 18.1266 27.8809 18.326 27.7301 18.4226C27.6728 18.4612 27.6105 18.4773 27.5499 18.4773Z" fill="black"/>
<path d="M30.1405 17.7518C30.0487 17.7518 29.9586 17.7148 29.893 17.6424C29.3227 17.0021 28.641 15.3081 28.0396 13.8119C27.7004 12.9689 27.3808 12.1726 27.1858 11.8508C27.094 11.698 27.1448 11.5001 27.3005 11.41C27.4562 11.32 27.6577 11.3698 27.7495 11.5227C27.9708 11.8879 28.2854 12.6697 28.6492 13.5755C29.2015 14.951 29.8898 16.6611 30.3863 17.2177C30.5059 17.3512 30.4912 17.5539 30.3552 17.6714C30.2945 17.7245 30.2175 17.7518 30.1405 17.7518Z" fill="black"/>
<path d="M33.9018 16.513C33.7379 16.513 33.5953 16.3924 33.5773 16.2283C33.2086 13.1073 33.8854 9.5728 35.2226 7.63423C36.8892 5.21786 38.5034 4.31695 39.7686 5.09881C40.0603 5.27899 40.2438 5.55731 40.3012 5.9048C40.4765 6.9859 39.408 8.39196 38.9393 8.94538C37.748 10.3547 36.2059 11.5902 35.3504 11.8219C35.1751 11.8685 34.9948 11.7688 34.9473 11.5966C34.8998 11.4245 35.0014 11.2475 35.1767 11.2009C35.8027 11.032 37.2268 9.96534 38.4346 8.53514C39.2769 7.53771 39.744 6.56923 39.6538 6.00777C39.6276 5.84206 39.5522 5.72784 39.4195 5.64579C38.1331 4.85267 36.4353 7.02612 35.765 7.99781C34.5278 9.79159 33.8821 13.2231 34.2279 16.1575C34.2492 16.3345 34.1197 16.4937 33.9395 16.5146C33.9263 16.513 33.9132 16.513 33.9018 16.513Z" fill="black"/>
<path d="M35.8632 16.397C35.8452 16.397 35.8255 16.3954 35.8058 16.3922C35.6272 16.3616 35.5076 16.1943 35.5387 16.0206C35.7616 14.7657 35.7616 12.47 35.5387 11.2972C35.506 11.1219 35.6223 10.9545 35.8009 10.9224C35.9796 10.8886 36.15 11.0044 36.1828 11.1798C36.4204 12.433 36.4204 14.7931 36.1828 16.1316C36.1582 16.2876 36.0205 16.397 35.8632 16.397Z" fill="black"/>
</g>
<defs>
<clipPath id="clip0_2306_2456">
<rect width="42" height="54" fill="white" transform="translate(11 4)"/>
</clipPath>
</defs>
</svg>
