<svg width="36" height="25" viewBox="0 0 36 25" fill="none" xmlns="http://www.w3.org/2000/svg">
<path d="M7.5 23.4492H9.14711L25.1942 7.40211L23.5471 5.75499L7.5 21.8021V23.4492ZM6 24.9492V21.1704L25.7712 1.37901C25.9248 1.24198 26.0945 1.13609 26.2802 1.06134C26.4658 0.986593 26.6594 0.949219 26.8609 0.949219C27.0624 0.949219 27.2576 0.980945 27.4465 1.04439C27.6354 1.10787 27.8096 1.22229 27.9692 1.38767L29.5702 2.99728C29.7356 3.15691 29.8486 3.33201 29.9091 3.52258C29.9697 3.71316 30 3.90373 30 4.09431C30 4.29758 29.9657 4.49206 29.8972 4.67773C29.8287 4.86341 29.7197 5.03307 29.5702 5.18672L9.77884 24.9492H6ZM24.3562 6.59301L23.5471 5.75499L25.1942 7.40211L24.3562 6.59301Z" fill="black"/>
</svg>
