<svg width="36" height="25" viewBox="0 0 36 25" fill="none" xmlns="http://www.w3.org/2000/svg">
<path d="M12.1751 19.7569C12.5026 19.7569 12.7764 19.6462 12.9966 19.4246C13.2168 19.2031 13.3269 18.9285 13.3269 18.601C13.3269 18.2735 13.2162 17.9997 12.9946 17.7795C12.7731 17.5593 12.4985 17.4492 12.171 17.4492C11.8435 17.4492 11.5697 17.56 11.3495 17.7815C11.1293 18.0031 11.0192 18.2776 11.0192 18.6051C11.0192 18.9326 11.13 19.2064 11.3516 19.4266C11.5731 19.6468 11.8476 19.7569 12.1751 19.7569ZM12.1751 14.1031C12.5026 14.1031 12.7764 13.9923 12.9966 13.7708C13.2168 13.5492 13.3269 13.2747 13.3269 12.9472C13.3269 12.6197 13.2162 12.3458 12.9946 12.1256C12.7731 11.9055 12.4985 11.7954 12.171 11.7954C11.8435 11.7954 11.5697 11.9061 11.3495 12.1277C11.1293 12.3492 11.0192 12.6237 11.0192 12.9512C11.0192 13.2787 11.13 13.5526 11.3516 13.7728C11.5731 13.993 11.8476 14.1031 12.1751 14.1031ZM12.1751 8.44922C12.5026 8.44922 12.7764 8.33844 12.9966 8.11689C13.2168 7.89537 13.3269 7.62086 13.3269 7.29336C13.3269 6.96586 13.2162 6.69201 12.9946 6.47181C12.7731 6.25161 12.4985 6.14151 12.171 6.14151C11.8435 6.14151 11.5697 6.25228 11.3495 6.47383C11.1293 6.69538 11.0192 6.96991 11.0192 7.29741C11.0192 7.62491 11.13 7.89875 11.3516 8.11892C11.5731 8.33912 11.8476 8.44922 12.1751 8.44922ZM16.7885 19.3531H24.8654V17.8531H16.7885V19.3531ZM16.7885 13.6992H24.8654V12.1992H16.7885V13.6992ZM16.7885 8.04538H24.8654V6.54538H16.7885V8.04538ZM8.42306 24.9492C7.73269 24.9492 7.15625 24.718 6.69375 24.2555C6.23125 23.793 6 23.2165 6 22.5262V3.37228C6 2.68191 6.23125 2.10547 6.69375 1.64297C7.15625 1.18047 7.73269 0.949219 8.42306 0.949219H27.5769C28.2673 0.949219 28.8438 1.18047 29.3063 1.64297C29.7688 2.10547 30 2.68191 30 3.37228V22.5262C30 23.2165 29.7688 23.793 29.3063 24.2555C28.8438 24.718 28.2673 24.9492 27.5769 24.9492H8.42306ZM8.42306 23.4492H27.5769C27.8077 23.4492 28.0192 23.3531 28.2115 23.1608C28.4039 22.9684 28.5 22.7569 28.5 22.5262V3.37228C28.5 3.14153 28.4039 2.92999 28.2115 2.73767C28.0192 2.54537 27.8077 2.44922 27.5769 2.44922H8.42306C8.19231 2.44922 7.98078 2.54537 7.78845 2.73767C7.59615 2.92999 7.5 3.14153 7.5 3.37228V22.5262C7.5 22.7569 7.59615 22.9684 7.78845 23.1608C7.98078 23.3531 8.19231 23.4492 8.42306 23.4492Z" fill="black"/>
</svg>
