<svg width="45" height="34" viewBox="0 0 45 34" fill="none" xmlns="http://www.w3.org/2000/svg">
<path d="M31.7163 6.30537C29.6981 6.30537 27.8633 8.80182 27.9466 10.6335C28.0137 12.11 30.617 12.5882 31.7473 12.5882C33.8546 12.5882 34.1371 10.569 34.0898 8.81849C34.0636 7.85209 33.4243 7.08161 32.8254 6.38294C32.5182 6.02448 31.1809 6.28224 30.8786 6.58461" stroke="black" stroke-linecap="round" stroke-linejoin="round"/>
<path d="M31.4368 9.37698C30.9012 9.37698 30.6895 10.7732 31.4368 10.7732C32.3694 10.7732 32.3294 9.63391 31.685 9.23736C30.8431 8.71928 30.5647 9.93545 31.3049 9.93545C31.4961 9.93545 32.352 9.88016 32.1038 9.43903C31.9939 9.24354 31.2662 9.98813 31.1575 10.0751" stroke="black" stroke-linecap="round" stroke-linejoin="round"/>
<path d="M28.7842 8.81842C29.9206 8.81842 31.4522 8.54639 32.5461 8.88823C33.0564 9.04768 33.4024 9.09765 33.95 9.09765" stroke="black" stroke-linecap="round" stroke-linejoin="round"/>
<path d="M33.9507 9.65625H36.4638" stroke="black" stroke-linecap="round" stroke-linejoin="round"/>
<path d="M36.7432 8.53938C36.2439 8.70583 36.1339 10.6246 36.1925 11.1223C36.2831 11.8923 36.8017 12.1694 37.5033 12.1694C37.9939 12.1694 38.4868 12.1831 38.9771 12.1694C39.8809 12.1443 39.9026 11.7634 40.4043 11.2231C40.6879 10.9178 40.866 10.6757 41.0015 10.2691C41.2381 9.55932 41.5031 8.86516 41.7384 8.15931C41.9906 7.40268 41.4147 6.77192 40.7921 6.46063C40.0166 6.07289 39.0099 5.84151 38.1704 6.16588C37.2059 6.53853 36.9274 7.22705 36.3243 7.98091" stroke="black" stroke-linecap="round" stroke-linejoin="round"/>
<path d="M27.8066 12.1694C28.3798 12.7426 28.7378 13.3331 29.4821 13.7052" stroke="black" stroke-linecap="round" stroke-linejoin="round"/>
<path d="M26.6899 13.1467C27.6876 13.5059 28.303 14.553 29.3427 14.7446C30.3706 14.9339 31.6763 14.7185 32.4918 13.9844C32.6887 13.8072 33.1124 13.2231 33.1124 13.488C33.1124 13.8752 32.0262 14.082 31.7938 14.1085C30.9022 14.2104 30.129 14.1866 29.6219 13.426" stroke="black" stroke-linecap="round" stroke-linejoin="round"/>
<path d="M37.022 9.09766C38.0615 8.63566 39.0473 9.37689 40.0936 9.37689" stroke="black" stroke-linecap="round" stroke-linejoin="round"/>
<path d="M38.6969 10.0749C38.6969 10.4483 38.7259 10.8526 39.1701 10.4084C39.6158 9.96272 38.9805 9.45035 38.7745 9.80343C38.3354 10.5561 39.2554 11.1795 39.2554 10.0749" stroke="black" stroke-linecap="round" stroke-linejoin="round"/>
<path d="M40.791 11.8901C40.7177 12.5506 39.2797 13.2863 38.6968 13.2863" stroke="black" stroke-linecap="round" stroke-linejoin="round"/>
<path d="M40.7921 13.5657C40.7921 14.4205 39.9239 14.5997 39.2563 14.8222" stroke="black" stroke-linecap="round" stroke-linejoin="round"/>
<path d="M41.6295 13.845C41.9876 14.5611 42.3276 14.9512 42.3276 15.7686C42.3276 16.3465 42.3849 16.9237 42.188 17.475C41.9873 18.0369 41.7423 18.2982 41.4356 18.7936C40.6799 20.0143 39.4495 20.407 38.0615 20.407C37.5415 20.407 36.9152 19.9883 36.4636 19.7399C36.024 19.4982 35.7359 18.8115 35.2769 18.6075C34.9303 18.4535 34.8405 18.0335 34.3616 18.0335C33.8464 18.0335 33.3009 18.0276 33.1128 18.592" stroke="black" stroke-linecap="round" stroke-linejoin="round"/>
<path d="M39.6743 17.4749C39.803 17.4909 39.7668 17.5202 39.8139 17.6145" stroke="black" stroke-linecap="round" stroke-linejoin="round"/>
<path d="M30.5996 7.00357C31.4276 7.00357 32.5508 6.59096 33.1438 6.05727C33.3877 5.83772 34.11 5.70719 34.2297 5.46777" stroke="black" stroke-linecap="round" stroke-linejoin="round"/>
<path d="M37.1616 4.90918C38.1841 4.94444 38.8925 5.04424 39.7058 5.60727C40.3052 6.02227 41.297 6.44498 42.0482 6.44498" stroke="black" stroke-linecap="round" stroke-linejoin="round"/>
<path d="M41.0708 6.02624C41.0708 6.16322 40.9916 5.59988 40.9312 5.46777C40.7684 5.11155 40.6519 4.91718 40.3727 4.63006C39.9022 4.14605 39.3874 3.20431 38.7439 2.94689C38.1283 2.70066 37.3976 2.02618 36.8202 1.86873C36.1441 1.68433 35.3735 1.70967 34.7105 1.48866C33.3973 1.05094 31.8515 1.32243 30.4909 1.27924C29.8591 1.25918 29.284 1 28.6448 1C28.1458 1 27.6952 1.06612 27.2021 1.13186C26.8332 1.18105 26.7763 1.31725 26.5273 1.56623C26.0805 2.01307 25.3844 2.21697 24.8441 2.5358C24.2991 2.85742 23.9134 3.26797 23.479 3.71479C23.1443 4.05907 22.995 4.5798 22.6413 4.87827C21.9712 5.44368 22.4196 6.21188 22.1371 6.93376C22.0126 7.25178 21.7719 7.62734 21.5864 7.91884C21.3592 8.27586 21.4683 8.61687 21.3537 8.98925C21.1116 9.776 21.1055 10.4138 21.1055 11.2619C21.1055 12.2613 21.258 13.597 21.5864 14.5352C21.8529 15.2966 21.8022 16.1314 22.0828 16.8854C22.4328 17.8262 22.6233 18.8681 23.0136 19.7786C23.5837 21.1088 24.6587 22.3474 25.294 23.6181" stroke="black" stroke-linecap="round" stroke-linejoin="round"/>
<path d="M35.3468 19.988C36.2405 20.2115 34.3264 21.3898 34.0592 21.4618C33.1758 21.6996 32.214 21.8031 31.2979 21.8031" stroke="black" stroke-linecap="round" stroke-linejoin="round"/>
<path d="M33.3917 22.2219C33.3917 23.0622 33.8407 23.6793 34.0898 24.4558C34.3667 25.319 34.0898 25.9935 34.0898 26.8371C34.0898 28.695 32.9624 30.4698 31.7163 31.7159" stroke="black" stroke-linecap="round" stroke-linejoin="round"/>
<path d="M24.0373 22.9199C22.9936 23.5339 23.887 25.578 22.7808 26.1311" stroke="black" stroke-linecap="round" stroke-linejoin="round"/>
<path d="M22.781 25.5726C22.2288 25.6051 21.892 26.1951 21.315 26.2629C20.8233 26.3208 20.3784 26.4103 19.8801 26.4103C19.5294 26.4103 18.9789 26.5032 18.6623 26.3327C18.0616 26.0093 17.5397 25.5287 16.9481 25.1848C14.8818 23.9834 12.6771 24.0193 10.3395 24.5953C8.8936 24.9515 7.56199 25.8966 6.24405 26.581C5.83752 26.792 4.94763 27.1172 4.77031 27.6048C4.66785 27.8866 4.19167 28.2044 3.9326 28.3339C3.19809 28.7012 1.04643 28.1203 1.00062 29.3113C0.967886 30.1624 2.2328 30.8841 2.9863 31.1263C3.4449 31.2737 4.08711 31.1573 4.56864 31.1573C4.81943 31.1573 5.07023 31.1573 5.32102 31.1573C5.67606 31.1573 5.75966 30.8849 6.05789 30.7695C7.11375 30.3608 8.27144 29.9035 9.34667 29.575C9.70662 29.465 10.1287 29.3423 10.4946 29.3423C11.156 29.3423 11.8567 29.4511 12.4958 29.6215C12.9213 29.735 13.2958 30.1497 13.7679 30.2886C14.4688 30.4947 15.1471 30.7404 15.8544 30.9556C16.2376 31.0723 16.9682 31.2991 17.3049 31.4986C17.7264 31.7484 18.2852 31.995 18.7941 31.995C18.9965 31.995 19.0682 32.078 19.2208 32.1967C19.5861 32.4808 20.2203 32.5085 20.6557 32.5845C22.5873 32.9218 24.922 33.0905 26.9075 32.8017C27.5146 32.7134 28.2641 32.8097 28.8466 32.6155C29.3456 32.4492 29.739 32.1093 30.3204 31.964C30.9612 31.8038 31.5786 31.6294 32.2052 31.4366C32.8987 31.2232 32.9731 30.9888 32.9731 30.3196" stroke="black" stroke-linecap="round" stroke-linejoin="round"/>
<path d="M28.2568 1.75799C28.211 1.91828 27.8013 1.64687 27.6655 1.63972C27.352 1.62322 27.4388 1.86434 27.3698 2.11282C27.1206 3.00977 27.0126 3.41456 26.3644 4.14977C25.6778 4.92868 25.7731 5.51301 25.7731 6.48899C25.7731 7.01948 26.0648 8.25304 26.8967 7.60603C27.2711 7.31478 27.1323 6.02963 27.2843 5.51651C27.4454 4.97306 27.5325 4.33243 27.8494 3.83437C28.0015 3.59539 28.2196 3.60238 28.2634 3.29557C28.2946 3.07748 28.5723 2.73524 28.7299 2.58592C29.1234 2.21316 29.6761 2.47343 29.6761 2.94074" stroke="black" stroke-linecap="round" stroke-linejoin="round"/>
<path d="M35.9448 1.99459C36.5816 1.99459 37.1808 1.94134 37.6598 1.46235C37.9766 1.14553 38.7614 1.28494 39.1974 1.28494C40.199 1.28494 43.5727 1.46612 43.6327 3.08535C43.6525 3.61943 43.7066 4.08268 43.0348 3.99869C42.5941 3.94361 42.0235 3.53158 41.7074 3.24305C41.524 3.07554 41.3922 2.78752 41.1424 2.70424C40.6946 2.555 38.6651 2.04712 38.6651 2.94079" stroke="black" stroke-linecap="round" stroke-linejoin="round"/>
<path d="M39.9658 17.6067C39.4419 17.0828 39.0568 16.4882 38.4282 16.0691" stroke="black" stroke-linecap="round" stroke-linejoin="round"/>
</svg>
