<svg width="18" height="19" viewBox="0 0 18 19" fill="none" xmlns="http://www.w3.org/2000/svg">
<path fill-rule="evenodd" clip-rule="evenodd" d="M7.76828 4.3855C7.76828 3.45352 8.53186 2.698 9.47355 2.698C10.4154 2.698 11.1788 3.45352 11.1788 4.3855C11.1788 5.31748 10.4154 6.073 9.47355 6.073C8.53186 6.073 7.76828 5.31748 7.76828 4.3855ZM9.47355 0.447998C7.27612 0.447998 5.49465 2.21087 5.49465 4.3855C5.49465 6.56011 7.27612 8.323 9.47355 8.323C11.6711 8.323 13.4525 6.56011 13.4525 4.3855C13.4525 2.21087 11.6711 0.447998 9.47355 0.447998ZM9.47355 12.8119C6.21241 12.8119 3.52923 15.28 3.19187 18.448H0.947266C1.29362 14.042 4.97541 10.573 9.47355 10.573C13.974 10.573 17.6536 14.042 17.9999 18.448H15.7543C15.4169 15.28 12.7348 12.8119 9.47355 12.8119Z" fill="black"/>
</svg>
