<svg width="22" height="23" viewBox="0 0 22 23" fill="none" xmlns="http://www.w3.org/2000/svg">
<path fill-rule="evenodd" clip-rule="evenodd" d="M2.21554 1.25271C2.91084 1.73818 3.56245 2.50557 3.74703 3.55688L3.74817 3.56336L5.50266 13.958C5.57267 14.3516 5.82594 14.6982 6.20876 14.9655C6.60659 15.2432 7.0368 15.358 7.2769 15.358H21.9472V17.358H7.2769C6.56769 17.358 5.745 17.0809 5.06381 16.6053C4.3685 16.1198 3.71689 15.3524 3.53231 14.3011L3.53117 14.2946L1.77668 3.89996C1.70667 3.50635 1.4534 3.15984 1.07058 2.89255C0.672751 2.61478 0.242548 2.5 0.00244141 2.5V0.5C0.711658 0.5 1.53434 0.777091 2.21554 1.25271Z" fill="black"/>
<path fill-rule="evenodd" clip-rule="evenodd" d="M19.8826 4.7298H2.7621V2.7298H21.8925L21.8385 13.6821H4.25232V11.6821H19.8483L19.8826 4.7298Z" fill="black"/>
<path d="M7.54183 22.3961C8.63919 22.3961 9.52878 21.5065 9.52878 20.4092C9.52878 19.3118 8.63919 18.4222 7.54183 18.4222C6.44446 18.4222 5.55487 19.3118 5.55487 20.4092C5.55487 21.5065 6.44446 22.3961 7.54183 22.3961Z" fill="black"/>
<path d="M18.8564 22.3961C19.9538 22.3961 20.8434 21.5065 20.8434 20.4092C20.8434 19.3118 19.9538 18.4222 18.8564 18.4222C17.7591 18.4222 16.8695 19.3118 16.8695 20.4092C16.8695 21.5065 17.7591 22.3961 18.8564 22.3961Z" fill="black"/>
</svg>
