<svg width="1440" height="70" viewBox="0 0 1440 70" fill="none" xmlns="http://www.w3.org/2000/svg">
<path d="M1020 24.8535C1003.43 8.28708 981.713 0 960 0C938.286 0.000259399 916.566 8.28731 900 24.8537C883.433 41.4201 861.713 49.7071 840 49.7071C818.286 49.7071 796.566 41.4201 780 24.8537C763.433 8.28729 741.713 0.000244141 720 0.000244141C698.286 0.000244141 676.566 8.28726 660 24.8536C643.433 41.42 621.713 49.7071 600 49.7071C578.286 49.7071 556.566 41.42 540 24.8536C523.433 8.28725 501.713 0.000198364 480 0.000183105C458.286 0.000183105 436.566 8.28723 420 24.8536C403.433 41.42 381.713 49.707 360 49.707C338.286 49.707 316.566 41.42 300 24.8536C283.433 8.28719 261.713 0.000152588 240 0.000152588C218.286 0.000137329 196.566 8.2872 180 24.8536C163.433 41.42 141.713 49.707 120 49.707C98.2868 49.707 76.5667 41.4199 60 24.8535C43.4334 8.28716 21.7134 0.00012207 4.19585e-05 0.00012207L-6.09398e-06 69.707L1440 69.707V0.00012207C1418.29 0.000106812 1396.57 8.28712 1380 24.8535C1363.43 41.4199 1341.71 49.7069 1320 49.7069C1298.29 49.7069 1276.57 41.4199 1260 24.8535C1243.43 8.28714 1221.71 6.10352e-05 1200 6.10352e-05C1178.29 6.10352e-05 1156.57 8.28711 1140 24.8535C1123.43 41.4199 1101.71 49.7069 1080 49.7069C1058.29 49.7069 1036.57 41.4198 1020 24.8535Z" fill="white"/>
</svg>
